<svg viewBox="0 0 64 64" xmlns="http://www.w3.org/2000/svg">
    <path fill="#fff" fill-rule="evenodd" d="M64 32C64 14.327 49.673 0 32 0 14.327 0 0 14.327 0 32c0 17.673 14.327 32 32 32 17.673 0 32-14.327 32-32Z"/>
    <path fill="#fff" d="m49.217 21.765-8.914 5.354 8.914 5.375 8.893-5.375-8.893-5.354Z"/>
    <path fill="#fff" d="M13.604 21.765 4.712 27.12l8.892 5.375 8.914-5.375-8.914-5.354Z"/>
    <path fill="#1792ff" d="M22.519 48.487v10.64l8.892-5.354v-10.64l-8.892 5.354Z"/>
    <path fill="#a4d8ff" d="M22.518 27.183v10.64l-8.914-5.354V21.83l8.914 5.354Z"/>
    <path fill="#a4d8ff" d="M22.518 37.827v10.617l-8.914-5.331v-10.64l8.914 5.354Z"/>
    <path fill="#a4d8ff" d="M13.604 32.472v10.64l-8.892-5.354v-10.64l8.892 5.354Z"/>
    <path fill="#a4d8ff" d="M31.411 43.134v10.639l-8.892-5.33v-10.64l8.892 5.33Z"/>
    <path fill="#a4d8ff" d="M40.304 27.141v10.64l-8.893-5.354v-10.64l8.893 5.354Z"/>
    <path fill="#a4d8ff" d="M22.518 16.435v10.639l-8.914-5.353V11.08l8.914 5.354Z"/>
    <path fill="#a4d8ff" d="M40.304 48.442v10.64L31.41 53.75V43.111l8.893 5.33Z"/>
    <path fill="#a4d8ff" d="M22.518 48.442v10.64l-8.914-5.332V43.111l8.914 5.33Z"/>
    <path fill="#1792ff" d="M40.303 27.141v10.64l8.914-5.354v-10.64l-8.914 5.354Z"/>
    <path fill="#1792ff" d="M40.303 16.435v10.639l8.914-5.353V11.08l-8.914 5.354Z"/>
    <path fill="#1792ff" d="M22.519 27.141v10.64l8.892-5.354v-10.64l-8.892 5.354Z"/>
    <path fill="#1792ff" d="M40.303 37.78v10.64l8.914-5.353v-10.64l-8.914 5.353Z"/>
    <path fill="#1792ff" d="M49.217 32.472v10.64l8.893-5.354v-10.64l-8.893 5.354Z"/>
    <path fill="#1792ff" d="M31.411 43.111v10.64l8.893-5.331V37.78l-8.893 5.331Z"/>
    <path fill="#1792ff" d="M40.303 48.42v10.64l8.914-5.354v-10.64l-8.914 5.354Z"/>
    <path fill="#fff" d="m22.518 16.459-8.914 5.353 8.914 5.376 8.892-5.376-8.892-5.353Z"/>
    <path fill="#fff" d="m31.411 11.081-8.892 5.376 8.892 5.353 8.893-5.353-8.893-5.376Z"/>
    <path fill="#fff" d="M31.411 32.427 22.52 37.78l8.892 5.354 8.893-5.354-8.893-5.353Z"/>
    <path fill="#fff" d="m40.304 5.728-8.893 5.353 8.893 5.376 8.914-5.376-8.914-5.353Z"/>
    <path fill="#fff" d="m22.518 5.728-8.914 5.353 8.914 5.376 8.892-5.376-8.892-5.353Z"/>
    <path fill="#fff" d="m40.304 16.39-8.893 5.375 8.893 5.354 8.914-5.354-8.914-5.375Z"/>
    <path fill="none" stroke="#001423" stroke-width="1.424" stroke-linecap="round" stroke-linejoin="round" d="M13.604 11.081v10.684L4.712 27.12v10.64l8.892 5.352v10.64l8.914 5.33 8.893-5.33 8.892 5.33 8.914-5.33V43.11l8.893-5.353v-10.64l-8.893-5.353V11.081l-8.914-5.353-8.892 5.353-8.893-5.353-8.914 5.353Z"/>
    <path fill="none" stroke="#fff" stroke-width="1.424" stroke-linecap="round" stroke-linejoin="round" d="m4.712 27.119 8.892 5.42"/>
    <path fill="none" stroke="#fff" stroke-width="1.424" stroke-linecap="round" stroke-linejoin="round" d="M22.519 48.487v10.595"/>
    <path fill="none" stroke="#001423" stroke-width="1.424" stroke-linecap="round" stroke-linejoin="round" d="M22.519 37.827V48.49"/>
    <path fill="none" stroke="#001423" stroke-width="1.424" stroke-linecap="round" stroke-linejoin="round" d="M13.604 21.765v21.346"/>
    <path fill="none" stroke="#001423" stroke-width="1.424" stroke-linecap="round" stroke-linejoin="round" d="M40.303 48.442V37.78"/>
    <path fill="none" stroke="#fff" stroke-width="1.424" stroke-linecap="round" stroke-linejoin="round" d="M40.303 59.082v-10.64"/>
    <path fill="none" stroke="#fff" stroke-width="1.424" stroke-linecap="round" stroke-linejoin="round" d="m58.11 27.074-8.893 5.42"/>
    <path fill="none" stroke="#fff" stroke-width="1.424" stroke-linecap="round" stroke-linejoin="round" d="m49.217 11.081-8.914 5.42"/>
    <path fill="none" stroke="#fff" stroke-width="1.424" stroke-linecap="round" stroke-linejoin="round" d="m13.604 11.081 8.914 5.42"/>
    <path fill="none" stroke="#001423" stroke-width="1.424" stroke-linecap="round" stroke-linejoin="round" d="M49.217 43.356V22.033"/>
    <path fill="none" stroke="#001423" stroke-width="1.424" stroke-linecap="round" stroke-linejoin="round" d="m13.626 32.473 8.892 5.331"/>
    <path fill="none" stroke="#001423" stroke-width="1.424" stroke-linecap="round" stroke-linejoin="round" d="M13.604 43.111 31.41 53.84"/>
    <path fill="none" stroke="#001423" stroke-width="1.424" stroke-linecap="round" stroke-linejoin="round" d="M49.045 43.111 31.26 53.84"/>
    <path fill="none" stroke="#001423" stroke-width="1.424" stroke-linecap="round" stroke-linejoin="round" d="m49.217 32.497-8.914 5.286"/>
    <path fill="none" stroke="#001423" stroke-width="1.424" stroke-linecap="round" stroke-linejoin="round" d="m40.605 16.522-9.194 5.264"/>
    <path fill="none" stroke="#001423" stroke-width="1.424" stroke-linecap="round" stroke-linejoin="round" d="M31.411 11.081 49.8 22.124"/>
    <path fill="none" stroke="#001423" stroke-width="1.424" stroke-linecap="round" stroke-linejoin="round" d="m40.153 37.668-8.742-5.33v-10.55l-8.892-5.353"/>
    <path fill="none" stroke="#001423" stroke-width="1.424" stroke-linecap="round" stroke-linejoin="round" d="M31.41 11.059 13.604 21.765"/>
    <path fill="none" stroke="#001423" stroke-width="1.424" stroke-linecap="round" stroke-linejoin="round" d="m31.41 32.293-8.957 5.398"/>
    <path fill="none" stroke="#fff" stroke-width="1.424" stroke-linecap="round" stroke-linejoin="round" d="m13.604 21.765 8.914 5.42v10.618l8.892 5.33V53.75"/>
    <path fill="none" stroke="#fff" stroke-width="1.424" stroke-linecap="round" stroke-linejoin="round" d="m49.218 21.765-8.914 5.42v10.618l-8.893 5.33"/>
    <path fill="none" stroke="#fff" stroke-width="1.424" stroke-linecap="round" stroke-linejoin="round" d="m22.519 27.188 8.892-5.375 8.893 5.375"/>
</svg>
