<svg width="64" height="64" fill="none" xmlns="http://www.w3.org/2000/svg">
    <path fill="#161E24" d="M0 0h64v64H0z"/>
    <path d="M41.416 20.455c-3.386.955-8.382 2.952-12.959 7.045-4.6 4.285-1.477 8.106-1.445 8.144 0 0-1.685-3.077 2.392-6.868.051-.045 5.256-4.493 12.824-6.627.965-.272 1.94-.499 2.9-.673l.067-.012 1.218-1.955-.3.021c-.018.002-1.92.142-4.697.925z" fill="#5928B1"/>
    <path d="M46.626 14.977a19.781 19.781 0 00-1.566-1.168l-.047-.03-.056.006c-.02.003-2.122.259-5.016 1.075-5.177 1.459-12.14 4.452-15.91 10.42-1.79 2.71-.35 5.954-.35 5.954l-.043-.825c-.004-.088-.252-8.833 17.86-13.94a73.655 73.655 0 015.06-1.225l.311-.064-.243-.203z" fill="#764BC4"/>
    <path d="M47.72 16.12c-.023.002-2.405.252-5.725 1.188-3.513.99-8.628 2.912-13.045 6.436-2.605 2.003-4.253 4.419-4.523 6.629-.132 1.079 1.145 3.368 1.145 3.368l-.269-.813c-.012-.037-1.153-3.741 4.63-8.04 3.242-2.409 6.62-4.057 10.629-5.188 2.067-.582 4.048-.965 6.237-1.37l.077-.015.034-.07c.165-.351.954-1.889.962-1.904l.128-.25-.28.028z" fill="#764BC4"/>
    <path d="M22.407 27.366c.218-3.47 2.874-6.678 7.9-9.535 2.648-1.636 5.609-2.922 8.799-3.822a32.368 32.368 0 014.992-.99l-1.839-1.317c-.017.002-1.712.208-4.135.891-15.533 4.38-17.458 11.926-17.286 14.96.3 5.288 6.593 9.05 6.593 9.05s-5.349-4.065-5.024-9.237z" fill="#BBA5E1"/>
    <path d="M22.6 43.366c3.386-.955 8.382-2.952 12.96-7.045 4.599-4.284 1.476-8.105 1.444-8.143 0 0 1.685 3.077-2.392 6.868-.051.044-5.255 4.493-12.824 6.627a31.54 31.54 0 01-2.9.673l-.066.012-1.219 1.954.3-.02c.018-.002 1.92-.143 4.697-.926z" fill="#5928B1"/>
    <path d="M17.39 48.844a19.74 19.74 0 001.567 1.169l.047.03.055-.007c.02-.002 2.122-.258 5.016-1.074 5.177-1.46 12.14-4.453 15.91-10.42 1.79-2.711.35-5.955.35-5.955l.043.826c.004.087.252 8.832-17.86 13.939a73.659 73.659 0 01-5.06 1.225l-.311.064.244.203z" fill="#764BC4"/>
    <path d="M16.296 47.702c.023-.002 2.406-.253 5.725-1.189 3.513-.99 8.628-2.911 13.045-6.436 2.605-2.002 4.253-4.418 4.523-6.628.133-1.08-1.145-3.369-1.145-3.369l.269.814c.012.037 1.153 3.74-4.63 8.04-3.241 2.408-6.619 4.057-10.629 5.187-2.067.583-4.048.966-6.237 1.37l-.077.015-.034.07a132.92 132.92 0 01-.962 1.904l-.128.25.28-.028z" fill="#764BC4"/>
    <path d="M41.61 36.455c-.219 3.471-2.875 6.678-7.9 9.535-2.649 1.637-5.61 2.923-8.8 3.822-2.705.763-4.992.991-4.992.991l1.84 1.317c.016-.002 1.711-.209 4.134-.892 15.533-4.38 17.458-11.926 17.287-14.96-.301-5.288-6.594-9.049-6.594-9.049s5.349 4.065 5.024 9.236z" fill="#BBA5E1"/>
</svg>
