<svg viewBox="0 0 64 64" xmlns="http://www.w3.org/2000/svg">
    <path fill-rule="evenodd" d="M64 32C64 14.327 49.673 0 32 0 14.327 0 0 14.327 0 32c0 17.673 14.327 32 32 32 17.673 0 32-14.327 32-32Z"/>
    <linearGradient id="a" x1="38.402" y1="21.632" x2="38.402" y2="43.307" gradientUnits="userSpaceOnUse">
        <stop offset="0" stop-color="#fab961"/>
        <stop offset="1"/>
    </linearGradient>
    <path fill="url(#a)" d="M41.704 24.864c-.119.316-6.955-3.187-11.217-.176-2.502 2.066-3.4 5.465-2.502 8.453.485 1.613.72 2.274 1.516 3.411.584.834 1.403 1.744 2.54 2.388.26.192 3.743 2.29 7.973 1.792 6.652-.783 11.807-9.518 11.807-9.518s-1.2 2.584-1.312 2.82c-3.212 6.838-8.551 8.66-8.551 8.66-4.746 1.62-9.495-.453-10.02-.717-3.427-1.725-4.906-3.317-5.366-4.182-.751-1.41-2.634-6.923-.83-11.041 1.337-3.053 4.24-4.33 4.582-4.474 5.523-2.317 11.49 2.296 11.38 2.584Z"/>
    <linearGradient id="b" x1="28.063" y1="17.236" x2="28.063" y2="49.364" gradientUnits="userSpaceOnUse">
        <stop offset="0" stop-color="#fab961"/>
        <stop offset="1"/>
    </linearGradient>
    <path fill="url(#b)" d="M41.706 24.864c-.225.208-1.837-1.736-4.426-3.141-.74-.402-3.563-1.845-7.012-1.77-5.716.122-9.515 4.337-10.193 5.118-3.386 3.904-4.98 9.916-3.075 14.594 2.475 6.08 11.031 10.33 10.157 9.622l-.758-.288c-.874-.346-11.599-5.124-11.983-14.8-.217-5.453 1.527-9.869 2.584-11.074 1.845-2.106 3.324-3.12 4.572-3.79 2.506-1.345 7.22-2.497 10.718-1.968 3.925.594 6.388 3.348 7.59 4.692 1.084 1.21 2.007 2.636 1.826 2.805Z"/>
    <linearGradient id="c" x1="36.705" y1="22.281" x2="36.705" y2="45.14" gradientUnits="userSpaceOnUse">
        <stop offset="0" stop-color="#fab961"/>
        <stop offset="1"/>
    </linearGradient>
    <path fill="url(#c)" d="M30.325 22.281a7.462 7.462 0 0 0-2.095 1.703c-.49.58-1.364 1.813-1.796 4.594-.37 2.383-.778 5.012.468 7.86 2.025 4.624 6.795 6.146 7.932 6.509a14.73 14.73 0 0 0 8.912-.082c3.559-1.152 6.047-3.533 6.266-3.255.135.173-.78 1.137-1.417 1.727a14.607 14.607 0 0 1-6.883 3.495c-1.809.36-3.665.405-5.489.133-1.498-.22-5.954-.87-9.377-4.67-.958-1.065-3.66-4.066-3.45-8.312.153-3.059 1.74-5.22 2.28-5.934a12.925 12.925 0 0 1 4.649-3.768Z"/>
    <linearGradient id="d" x1="26.971" y1="14.567" x2="26.971" y2="43.347" gradientUnits="userSpaceOnUse">
        <stop offset="0"/>
        <stop offset=".414" stop-color="#fab961"/>
    </linearGradient>
    <path fill="url(#d)" d="M41.705 24.864c.265-.119-.336-3.424-2.677-6.177a12.115 12.115 0 0 0-3.356-2.753c-5.269-2.87-11.392-.418-12.794.144-1.437.575-4.541 1.866-7.114 5.091-2.901 3.636-3.33 7.538-3.496 9.245-.706 7.292 2.988 13.044 3.337 12.932.267-.086-1.556-3.694-1.19-9.148.14-2.076.44-5.812 3.06-9.462a16.743 16.743 0 0 1 6.062-5.076c1.386-.688 6.09-3.023 11.058-1.262a12.468 12.468 0 0 1 4.104 2.461c2.163 1.986 2.789 4.102 3.006 4.005Z"/>
    <linearGradient id="e" x1="27.316" y1="21.549" x2="27.316" y2="44.953" gradientUnits="userSpaceOnUse">
        <stop offset="0"/>
        <stop offset="1" stop-color="#fab961"/>
    </linearGradient>
    <path fill="url(#e)" d="M32.828 44.937c-.125.213-7.204-1.691-10.432-7.764-.486-.913-3.03-5.734-1.557-9.525.616-1.585 1.828-3.36 2.318-3.912.79-.89 2.525-1.098 4.229-1.823.765-.318 1.622-.39 2.444-.5.814-.1 1.536-.079 2.353 0 1.11.074 5.677 1.476 4.142 1.233-1.441-.227-4.676-1.016-6.495 0a13.462 13.462 0 0 0-4.216 3.81c-.353.5-1.857 2.695-1.976 5.529-.148 3.545 1.791 6.131 2.936 7.658 2.89 3.852 6.344 5.142 6.254 5.294Z"/>
    <linearGradient id="f" x1="29.939" y1="20.171" x2="29.939" y2="42.673" gradientUnits="userSpaceOnUse">
        <stop offset="0"/>
        <stop offset="1" stop-color="#fab961"/>
    </linearGradient>
    <path fill="url(#f)" d="M29.388 19.798c1.491-.216 2.767-.29 4.245 0 1.697.342 2.635.695 3.791 1.289 1.973 1.014 4.471 3.614 4.281 4.004-.339.695-8.46-5.363-14.926-2.586-3.483 1.496-5.848 5.913-6.177 6.58-.795 1.474-.842 2.704-.915 4.376-.054 1.986.502 3.556 1.01 4.988.722 2.038 1.883 4.212 1.858 4.224l-.007-.007c-3.785-5.541-4.19-8.155-4.19-8.155-.17-1.104-.899-5.82 2.244-9.8 2.865-3.629 7.675-4.75 8.786-4.913Z"/>
</svg>
