<svg width="64" height="64" fill="none" xmlns="http://www.w3.org/2000/svg">
    <defs>
        <linearGradient id="a" x1="60.408" y1="64" x2="13.192" y2="5.682" gradientUnits="userSpaceOnUse">
            <stop stop-color="#5A81FF" offset="0"/>
            <stop stop-color="#E40C5B" offset=".524"/>
            <stop stop-color="#FF4C3B" offset="1"/>
        </linearGradient>
    </defs>
    <path fill="#fff" d="M0 0h64v64H0z"/>
    <path fill="url(#a)" fill-rule="evenodd" clip-rule="evenodd" d="M32 64c17.673 0 32-14.327 32-32C64 14.327 49.673 0 32 0 14.327 0 0 14.327 0 32c0 17.673 14.327 32 32 32zm.13-3.004c16.015 0 28.996-12.982 28.996-28.996S48.145 3.004 32.132 3.004C16.117 3.004 3.135 15.986 3.135 32S16.117 60.996 32.13 60.996zm-.13-2.22c14.788 0 26.776-11.988 26.776-26.776S46.788 5.224 32 5.224 5.224 17.212 5.224 32 17.212 58.776 32 58.776zm.065-3.266c13.02 0 23.576-10.555 23.576-23.575S45.086 8.359 32.065 8.359C19.045 8.36 8.49 18.914 8.49 31.935c0 13.02 10.555 23.575 23.575 23.575zm-1.33-42.623l17.068 29.609 1.83-3.175-15.238-26.434h-3.66zm-16.368 26.38l14.608-25.342.03.052.03-.05 17.31 30.032h-3.66l-4.373-7.587a20.862 20.862 0 00-6.298-.966c-1.132 0-2.236.078-3.31.236l2.108-3.651a24.665 24.665 0 015.14.288l-6.948-12.054-12.806 22.217-1.83-3.175zm9.931-.385l6.565-11.387-1.83-3.175L17.71 43.96h3.66l.036-.061c3.14-1.89 6.742-2.846 10.675-2.846 2.512 0 4.92.444 7.151 1.258l-2.452-4.248a24.446 24.446 0 00-4.699-.454c-2.722 0-5.34.448-7.784 1.273z"/>
</svg>
