<?xml version="1.0" standalone="no"?>
<!DOCTYPE svg PUBLIC "-//W3C//DTD SVG 20010904//EN"
 "http://www.w3.org/TR/2001/REC-SVG-20010904/DTD/svg10.dtd">
<svg version="1.0" xmlns="http://www.w3.org/2000/svg"
 width="288.000000pt" height="288.000000pt" viewBox="0 0 288.000000 288.000000"
 preserveAspectRatio="xMidYMid meet">
<metadata>
Created by potrace 1.16, written by Peter Selinger 2001-2019
</metadata>
<g transform="translate(0.000000,288.000000) scale(0.100000,-0.100000)"
fill="#000000" stroke="none">
<path d="M1250 2390 c-14 -5 -45 -14 -70 -20 -59 -16 -115 -37 -165 -63 -22
-12 -50 -26 -62 -32 -13 -5 -23 -13 -23 -17 0 -5 -7 -8 -15 -8 -8 0 -15 -4
-15 -10 0 -5 -5 -10 -11 -10 -6 0 -16 -6 -23 -12 -7 -7 -25 -22 -41 -33 -36
-26 -104 -94 -130 -130 -11 -16 -26 -34 -32 -41 -7 -7 -13 -17 -13 -23 0 -6
-4 -11 -10 -11 -5 0 -10 -7 -10 -15 0 -8 -3 -15 -7 -15 -5 0 -13 -10 -18 -23
-6 -12 -20 -40 -32 -62 -25 -49 -47 -107 -61 -160 -6 -22 -16 -58 -22 -80 -20
-69 -6 -396 19 -460 5 -11 16 -45 25 -75 18 -55 37 -101 46 -110 3 -3 11 -15
18 -27 35 -65 37 -68 80 -123 l20 -25 43 45 c24 25 38 45 31 48 -7 2 -12 10
-12 18 0 8 -4 14 -10 14 -5 0 -10 7 -10 15 0 8 -3 15 -7 15 -5 0 -13 10 -19
23 -6 12 -18 36 -27 52 -8 17 -21 44 -27 60 -7 17 -16 38 -21 47 -5 10 -9 27
-9 37 0 11 -4 23 -10 26 -5 3 -10 21 -10 40 0 19 -4 37 -10 40 -6 4 -10 63
-10 145 0 82 4 141 10 145 6 3 10 24 10 45 0 21 5 42 10 45 6 3 10 14 10 24 0
9 9 37 21 62 58 122 71 148 87 165 10 11 27 33 39 50 28 39 98 109 137 137 17
12 39 28 48 37 46 42 256 130 311 130 14 0 29 5 32 10 4 6 62 10 140 10 78 0
136 -4 140 -10 3 -5 24 -10 45 -10 21 0 42 -4 45 -10 3 -5 15 -10 26 -10 10 0
27 -4 37 -9 9 -5 35 -17 57 -26 22 -9 48 -20 58 -25 47 -26 62 -35 67 -40 3
-3 20 -16 38 -29 l32 -22 40 41 c32 34 38 45 29 56 -6 8 -16 14 -22 14 -5 0
-17 8 -26 18 -9 9 -26 23 -39 29 -12 7 -32 19 -45 25 -12 7 -24 16 -27 19 -8
9 -144 59 -162 59 -9 0 -19 4 -22 9 -3 5 -25 12 -48 16 -65 11 -389 15 -418 5z"/>
<path d="M2150 2014 c-25 -24 -40 -44 -34 -44 6 0 17 -12 25 -27 8 -16 16 -30
19 -33 20 -20 100 -183 100 -204 0 -8 5 -18 10 -21 6 -3 10 -21 10 -40 0 -19
5 -37 10 -40 6 -4 10 -73 10 -175 0 -102 -4 -171 -10 -175 -5 -3 -10 -19 -10
-35 0 -16 -4 -32 -10 -35 -5 -3 -10 -14 -10 -24 0 -9 -11 -41 -25 -69 -14 -29
-25 -54 -25 -58 0 -3 -13 -25 -30 -49 -16 -24 -30 -46 -30 -49 0 -17 -189
-206 -206 -206 -3 0 -25 -13 -49 -30 -24 -16 -46 -30 -49 -30 -4 0 -29 -11
-58 -25 -28 -14 -60 -25 -69 -25 -10 0 -21 -4 -24 -10 -3 -5 -19 -10 -35 -10
-16 0 -32 -4 -35 -10 -8 -13 -342 -13 -350 0 -3 6 -21 10 -40 10 -19 0 -37 5
-40 10 -3 6 -13 10 -22 10 -22 0 -203 90 -203 101 0 5 -6 9 -13 9 -7 0 -23 9
-34 19 -20 19 -21 19 -61 -24 l-41 -44 32 -23 c18 -12 38 -28 45 -35 7 -7 17
-13 22 -13 5 0 15 -6 22 -13 16 -16 110 -61 163 -78 22 -7 44 -17 50 -21 5 -4
24 -8 41 -8 18 0 36 -4 39 -10 3 -5 30 -10 60 -10 30 0 57 -4 60 -10 8 -13
182 -13 190 0 3 6 27 10 52 10 42 0 75 7 138 30 11 4 45 15 75 25 30 10 77 31
103 47 26 15 50 28 53 28 3 0 11 6 18 13 7 6 26 21 42 32 37 26 183 172 209
209 11 16 25 34 30 40 9 10 49 80 66 116 25 55 39 93 39 110 0 10 5 22 10 25
6 3 10 19 10 35 0 16 5 32 10 35 6 3 10 30 10 60 0 30 5 57 10 60 6 3 10 46
10 96 0 53 -4 89 -10 89 -6 0 -10 26 -10 59 0 33 -4 63 -10 66 -5 3 -10 17
-10 31 0 13 -4 32 -9 42 -5 9 -14 35 -21 57 -13 44 -60 147 -71 155 -3 3 -12
15 -18 28 -12 23 -20 33 -58 78 l-18 22 -45 -44z"/>
<path d="M880 1771 c-8 -5 -28 -15 -45 -22 -16 -8 -34 -17 -40 -22 -82 -63
-126 -152 -124 -253 1 -84 49 -177 110 -214 21 -14 39 -28 39 -32 0 -5 8 -8
18 -8 10 0 22 -4 27 -8 6 -5 28 -14 50 -21 60 -19 295 -3 295 20 0 5 6 9 13 9
17 0 137 63 137 73 0 23 -47 77 -67 77 -13 0 -23 -4 -23 -8 0 -9 -58 -39 -120
-63 -21 -9 -69 -13 -120 -13 -125 2 -180 32 -225 122 -31 61 -31 89 -4 147 23
49 92 115 120 115 10 0 21 5 24 10 8 14 90 13 134 -1 42 -14 120 -49 139 -64
44 -33 142 -140 142 -155 0 -5 5 -10 10 -10 6 0 10 -7 10 -15 0 -8 5 -15 10
-15 6 0 10 -7 10 -15 0 -8 4 -15 9 -15 5 0 14 -13 21 -30 7 -16 16 -30 21 -30
4 0 10 -8 13 -17 19 -58 203 -203 257 -203 10 0 19 -4 19 -9 0 -30 267 -30
286 0 3 5 13 9 22 10 38 1 104 64 138 129 29 55 34 75 34 134 0 62 -15 132
-31 146 -3 3 -14 19 -24 37 -10 17 -30 37 -44 45 -14 7 -35 21 -45 31 -11 9
-28 17 -38 17 -10 0 -18 3 -18 8 0 9 -115 32 -159 32 -32 0 -124 -18 -156 -30
-91 -35 -199 -100 -166 -100 6 0 11 -5 11 -11 0 -6 9 -24 21 -40 l20 -29 42
28 c86 57 152 76 248 70 110 -6 167 -39 217 -126 16 -29 15 -102 -2 -143 -19
-46 -68 -95 -112 -114 -41 -17 -169 -21 -179 -5 -3 6 -17 10 -31 10 -13 0 -24
4 -24 9 0 5 -10 11 -22 15 -51 12 -135 95 -208 201 -19 28 -37 52 -42 53 -4 2
-8 9 -8 14 0 13 -65 100 -106 143 -55 57 -165 125 -202 125 -12 0 -24 5 -27
10 -7 12 -233 13 -255 1z"/>
</g>
</svg>
