<svg id="svg" version="1.1" xmlns="http://www.w3.org/2000/svg" xmlns:xlink="http://www.w3.org/1999/xlink" width="400" height="400" viewBox="0, 0, 400,400"><g id="svgg"><path id="path0" d="M69.867 151.732 L 69.867 199.198 105.000 199.266 L 140.133 199.333 140.133 230.533 L 140.133 261.733 105.000 261.801 L 69.867 261.869 69.867 278.801 L 69.867 295.733 122.000 295.733 L 174.133 295.733 174.133 230.534 L 174.133 165.335 139.000 165.268 L 103.867 165.200 103.799 134.733 L 103.731 104.267 86.799 104.267 L 69.867 104.267 69.867 151.732 M225.867 230.533 L 225.867 295.733 278.000 295.733 L 330.133 295.733 330.133 278.801 L 330.133 261.869 295.000 261.801 L 259.867 261.733 259.867 230.533 L 259.867 199.333 295.000 199.266 L 330.133 199.198 330.133 182.266 L 330.133 165.333 278.000 165.333 L 225.867 165.333 225.867 230.533 M185.600 281.333 L 185.600 295.733 200.000 295.733 L 214.400 295.733 214.400 281.333 L 214.400 266.933 200.000 266.933 L 185.600 266.933 185.600 281.333 " stroke="none" fill="#f8fcfc" fill-rule="evenodd"></path><path id="path1" d="M69.724 104.331 C 69.654 104.516,69.627 125.967,69.665 152.000 L 69.733 199.333 104.867 199.401 L 140.000 199.469 140.000 230.533 L 140.000 261.598 104.867 261.666 L 69.733 261.733 69.733 278.800 L 69.733 295.867 122.000 295.867 L 174.267 295.867 174.267 230.533 L 174.267 165.200 139.134 165.132 L 104.002 165.065 103.934 134.599 L 103.867 104.133 86.859 104.065 C 73.394 104.010,69.825 104.066,69.724 104.331 M103.799 134.733 L 103.867 165.200 139.000 165.268 L 174.133 165.335 174.133 230.534 L 174.133 295.733 122.000 295.733 L 69.867 295.733 69.867 278.801 L 69.867 261.869 105.000 261.801 L 140.133 261.733 140.133 230.533 L 140.133 199.333 105.000 199.266 L 69.867 199.198 69.867 151.732 L 69.867 104.267 86.799 104.267 L 103.731 104.267 103.799 134.733 M225.724 165.399 C 225.654 165.583,225.627 195.013,225.665 230.800 L 225.733 295.867 278.000 295.867 L 330.267 295.867 330.267 278.800 L 330.267 261.733 295.133 261.666 L 260.000 261.598 260.000 230.533 L 260.000 199.469 295.133 199.401 L 330.267 199.333 330.267 182.267 L 330.267 165.200 278.059 165.133 C 236.432 165.079,225.825 165.133,225.724 165.399 M330.133 182.266 L 330.133 199.198 295.000 199.266 L 259.867 199.333 259.867 230.533 L 259.867 261.733 295.000 261.801 L 330.133 261.869 330.133 278.801 L 330.133 295.733 278.000 295.733 L 225.867 295.733 225.867 230.533 L 225.867 165.333 278.000 165.333 L 330.133 165.333 330.133 182.266 " stroke="none" fill="#848484" fill-rule="evenodd"></path><path id="path2" d="M0.000 200.000 L 0.000 400.000 200.000 400.000 L 400.000 400.000 400.000 200.000 L 400.000 0.000 200.000 0.000 L 0.000 0.000 0.000 200.000 M104.000 134.533 L 104.000 165.067 139.200 165.067 L 174.400 165.067 174.400 230.533 L 174.400 296.000 122.000 296.000 L 69.600 296.000 69.600 278.800 L 69.600 261.600 104.800 261.600 L 140.000 261.600 140.000 230.533 L 140.000 199.467 104.800 199.467 L 69.600 199.467 69.600 151.733 L 69.600 104.000 86.800 104.000 L 104.000 104.000 104.000 134.533 M330.400 182.267 L 330.400 199.467 295.200 199.467 L 260.000 199.467 260.000 230.533 L 260.000 261.600 295.200 261.600 L 330.400 261.600 330.400 278.800 L 330.400 296.000 278.000 296.000 L 225.600 296.000 225.600 230.533 L 225.600 165.067 278.000 165.067 L 330.400 165.067 330.400 182.267 M214.667 281.333 L 214.667 296.000 200.000 296.000 L 185.333 296.000 185.333 281.333 L 185.333 266.667 200.000 266.667 L 214.667 266.667 214.667 281.333 " stroke="none" fill="#040404" fill-rule="evenodd"></path><path id="path3" d="M185.456 267.000 C 185.385 267.183,185.360 273.753,185.400 281.600 L 185.471 295.867 185.536 281.402 L 185.600 266.938 200.067 266.867 L 214.533 266.795 200.058 266.731 C 188.676 266.680,185.556 266.738,185.456 267.000 " stroke="none" fill="#547c84" fill-rule="evenodd"></path><path id="path4" d="M214.464 281.264 L 214.400 295.729 199.933 295.800 L 185.467 295.871 199.942 295.936 C 211.324 295.986,214.444 295.929,214.544 295.667 C 214.615 295.483,214.640 288.913,214.600 281.067 L 214.529 266.800 214.464 281.264 " stroke="none" fill="#445c5c" fill-rule="evenodd"></path><path id="path5" d="" stroke="none" fill="#443c2c" fill-rule="evenodd"></path><path id="path6" d="" stroke="none" fill="#04402c" fill-rule="evenodd"></path><path id="path7" d="" stroke="none" fill="#040430" fill-rule="evenodd"></path><path id="path8" d="" stroke="none" fill="#080404" fill-rule="evenodd"></path></g></svg>