<svg viewBox="0 0 300 300" xmlns="http://www.w3.org/2000/svg">
    <g fill="none">
        <circle fill="#FFF" cx="150" cy="150" r="149"/>
        <path d="M150 0C67.2 0 0 67.2 0 150s67.2 150 150 150 150-67.2 150-150S232.8 0 150 0Z" fill="#B026CF"/>
        <g fill="#FFF">
            <path d="M153 159.1s-9.7 20-55.6 60.9l55.6-60.9Zm0 18.7s-8.1 26.2-60 50.3l60-50.3Zm0 18.5s-6.6 27.5-64.4 39.4l64.4-39.4Zm0 18.7s-5 28.8-68.8 28.8L153 215Z"/>
            <path d="M153 140.6s-11.3 23.4-51.2 71.9l51.2-71.9c.3 0 11.3 23.4 51.2 71.9L153 140.6Z"/>
            <path d="M153 159.1s9.7 20 55.6 60.9L153 159.1Zm0 18.7s8.1 26.2 60 50.3l-60-50.3Zm0 18.5s6.6 27.5 64.4 39.4L153 196.3Zm0 18.7s5 28.8 68.8 28.8L153 215Z"/>
        </g>
        <path d="M151.4 119.7v-6.3c-1.8 0-3.7-.1-5.6-.3-1.9-.2-3.7-.5-5.4-.9-1.7-.4-3.6-1.1-5.8-2.1v-7.7c1.8.9 3.5 1.7 5.2 2.3 1.7.6 3.5 1.1 5.4 1.5 1.9.4 4 .6 6.2.8V84.7l-4.3-2.3c-8.1-4.3-12.2-9.6-12.2-15.8 0-3.3 1.3-6.5 4-9.6 2.7-3.1 6.8-4.9 12.4-5.4V45h5.6v6.6c3.1 0 6.9.5 11.2 1.6v6.9l-1.4-.4c-4-1.1-7.3-1.8-9.8-2v21.8l4.5 2.5c4.2 2.4 7.1 4.8 8.7 7.2 1.6 2.3 2.3 4.8 2.3 7.5 0 2.4-.6 4.7-1.8 6.9-1.2 2.2-2.9 4.1-5.1 5.7-2.2 1.6-5.1 2.7-8.6 3.3v6.8h-5.5v.3Zm0-43.3V57.9c-2.7.6-4.8 1.6-6.2 3-1.5 1.4-2.2 3.1-2.2 5 0 1.8.6 3.5 1.9 5.1 1.2 1.7 3.4 3.5 6.5 5.4Zm5.6 11.8v18.4c2.9-1 4.9-2.3 5.9-3.8s1.5-3.2 1.5-5.1c0-1.8-.5-3.4-1.5-4.7-1-1.3-2.9-2.8-5.9-4.8Z" fill="#FFF"/>
    </g>
</svg>
