<svg viewBox="0 0 139 132" fill="none" xmlns="http://www.w3.org/2000/svg">
    <path d="M65.738 130c35.201 0 63.738-28.654 63.738-64 0-35.346-28.537-64-63.738-64C30.536 2 2 30.654 2 66c0 35.346 28.536 64 63.738 64Z" fill="url(#a)" fill-opacity=".2"/>
    <path d="M65.738 130c35.201 0 63.738-28.654 63.738-64 0-35.346-28.537-64-63.738-64C30.536 2 2 30.654 2 66c0 35.346 28.536 64 63.738 64Z" fill="url(#b)" fill-opacity=".2"/>
    <path d="M65.738 130c35.201 0 63.738-28.654 63.738-64 0-35.346-28.537-64-63.738-64C30.536 2 2 30.654 2 66c0 35.346 28.536 64 63.738 64Z" stroke="url(#c)"/>
    <path d="M65.738 130c35.201 0 63.738-28.654 63.738-64 0-35.346-28.537-64-63.738-64C30.536 2 2 30.654 2 66c0 35.346 28.536 64 63.738 64Z" stroke="url(#d)" stroke-opacity=".2"/>
    <path d="M65.738 130c35.201 0 63.738-28.654 63.738-64 0-35.346-28.537-64-63.738-64C30.536 2 2 30.654 2 66c0 35.346 28.536 64 63.738 64Z" fill="#FFD8E5"/>
    <path d="M65.738 130c35.201 0 63.738-28.654 63.738-64 0-35.346-28.537-64-63.738-64C30.536 2 2 30.654 2 66c0 35.346 28.536 64 63.738 64Z" stroke="url(#e)" stroke-width="4"/>
    <path d="M65.738 130c35.201 0 63.738-28.654 63.738-64 0-35.346-28.537-64-63.738-64C30.536 2 2 30.654 2 66c0 35.346 28.536 64 63.738 64Z" stroke="url(#f)" stroke-opacity=".2" stroke-width="4"/>
    <path d="M65.587 41.231c8.61 0 15.588-4.006 15.588-8.949 0-4.942-6.979-8.949-15.588-8.949-8.61 0-15.588 4.007-15.588 8.95 0 4.942 6.979 8.948 15.588 8.948Z" fill="url(#g)"/>
    <path d="M65.587 41.231c8.61 0 15.588-4.006 15.588-8.949 0-4.942-6.979-8.949-15.588-8.949-8.61 0-15.588 4.007-15.588 8.95 0 4.942 6.979 8.948 15.588 8.948Z" fill="url(#h)" fill-opacity=".2"/>
    <path d="M65.587 108.661c8.61 0 15.588-4.007 15.588-8.95 0-4.942-6.979-8.949-15.588-8.949-8.61 0-15.588 4.007-15.588 8.95 0 4.942 6.979 8.949 15.588 8.949Z" fill="url(#i)"/>
    <path d="M65.587 108.661c8.61 0 15.588-4.007 15.588-8.95 0-4.942-6.979-8.949-15.588-8.949-8.61 0-15.588 4.007-15.588 8.95 0 4.942 6.979 8.949 15.588 8.949Z" fill="url(#j)" fill-opacity=".2"/>
    <path d="M43.864 53.619c4.304-7.36 4.276-15.33-.063-17.803-4.339-2.473-11.346 1.489-15.65 8.848-4.305 7.36-4.277 15.33.062 17.803 4.339 2.472 11.346-1.489 15.65-8.848Z" fill="url(#k)"/>
    <path d="M43.864 53.619c4.304-7.36 4.276-15.33-.063-17.803-4.339-2.473-11.346 1.489-15.65 8.848-4.305 7.36-4.277 15.33.062 17.803 4.339 2.472 11.346-1.489 15.65-8.848Z" fill="url(#l)" fill-opacity=".2"/>
    <path d="M103.017 87.33c4.304-7.36 4.279-15.329-.057-17.8s-11.341 1.491-15.645 8.85c-4.305 7.36-4.28 15.329.056 17.8s11.341-1.492 15.646-8.85Z" fill="url(#m)"/>
    <path d="M103.017 87.33c4.304-7.36 4.279-15.329-.057-17.8s-11.341 1.491-15.645 8.85c-4.305 7.36-4.28 15.329.056 17.8s11.341-1.492 15.646-8.85Z" fill="url(#n)" fill-opacity=".2"/>
    <path d="M43.803 96.178c4.34-2.473 4.367-10.444.063-17.803-4.305-7.359-11.312-11.32-15.651-8.847-4.34 2.473-4.367 10.443-.062 17.803 4.304 7.359 11.311 11.32 15.65 8.847Z" fill="url(#o)"/>
    <path d="M43.803 96.178c4.34-2.473 4.367-10.444.063-17.803-4.305-7.359-11.312-11.32-15.651-8.847-4.34 2.473-4.367 10.443-.062 17.803 4.304 7.359 11.311 11.32 15.65 8.847Z" fill="url(#p)" fill-opacity=".2"/>
    <path d="M102.964 62.469c4.336-2.472 4.361-10.44.056-17.8-4.304-7.36-11.309-11.322-15.645-8.85-4.336 2.47-4.361 10.44-.056 17.799 4.303 7.36 11.308 11.322 15.645 8.85Z" fill="url(#q)"/>
    <path d="M102.964 62.469c4.336-2.472 4.361-10.44.056-17.8-4.304-7.36-11.309-11.322-15.645-8.85-4.336 2.47-4.361 10.44-.056 17.799 4.303 7.36 11.308 11.322 15.645 8.85Z" fill="url(#r)" fill-opacity=".2"/>
    <path d="M136.416 108.666c0 10.929-8.821 19.776-19.688 19.776-10.867 0-19.687-8.847-19.687-19.776 0-10.927 8.82-19.775 19.687-19.775s19.688 8.848 19.688 19.775Z" fill="#F1F0FF" stroke="#645AFF" stroke-width="4"/>
    <path d="M111.204 117.2h12.748v-4.394h-8.581l.083-12.673h-4.25V117.2Z" fill="#645AFF"/>
    <defs>
        <linearGradient id="a" x1="181.13" y1="181.414" x2="2.429" y2="-36.539" gradientUnits="userSpaceOnUse">
            <stop stop-color="#645AFF"/>
            <stop offset=".521" stop-color="#E40C5B"/>
            <stop offset=".986" stop-color="#FF4C3B"/>
        </linearGradient>
        <linearGradient id="b" x1="70.147" y1="-50.587" x2="233.602" y2="-14.822" gradientUnits="userSpaceOnUse">
            <stop stop-color="#fff"/>
            <stop offset="1" stop-color="#fff" stop-opacity="0"/>
        </linearGradient>
        <linearGradient id="c" x1="181.13" y1="181.414" x2="2.429" y2="-36.539" gradientUnits="userSpaceOnUse">
            <stop stop-color="#645AFF"/>
            <stop offset=".521" stop-color="#E40C5B"/>
            <stop offset=".986" stop-color="#FF4C3B"/>
        </linearGradient>
        <linearGradient id="d" x1="70.147" y1="-50.587" x2="233.602" y2="-14.822" gradientUnits="userSpaceOnUse">
            <stop stop-color="#fff"/>
            <stop offset="1" stop-color="#fff" stop-opacity="0"/>
        </linearGradient>
        <linearGradient id="e" x1="181.13" y1="181.414" x2="2.429" y2="-36.539" gradientUnits="userSpaceOnUse">
            <stop stop-color="#645AFF"/>
            <stop offset=".521" stop-color="#E40C5B"/>
            <stop offset=".986" stop-color="#FF4C3B"/>
        </linearGradient>
        <linearGradient id="f" x1="70.147" y1="-50.587" x2="233.602" y2="-14.822" gradientUnits="userSpaceOnUse">
            <stop stop-color="#fff"/>
            <stop offset="1" stop-color="#fff" stop-opacity="0"/>
        </linearGradient>
        <linearGradient id="g" x1="93.808" y1="48.42" x2="74.222" y2="6.638" gradientUnits="userSpaceOnUse">
            <stop stop-color="#645AFF"/>
            <stop offset=".521" stop-color="#E40C5B"/>
            <stop offset=".986" stop-color="#FF4C3B"/>
        </linearGradient>
        <linearGradient id="h" x1="66.665" y1="15.98" x2="103.204" y2="29.964" gradientUnits="userSpaceOnUse">
            <stop stop-color="#fff"/>
            <stop offset="1" stop-color="#fff" stop-opacity="0"/>
        </linearGradient>
        <linearGradient id="i" x1="93.808" y1="115.85" x2="74.222" y2="74.068" gradientUnits="userSpaceOnUse">
            <stop stop-color="#645AFF"/>
            <stop offset=".521" stop-color="#E40C5B"/>
            <stop offset=".986" stop-color="#FF4C3B"/>
        </linearGradient>
        <linearGradient id="j" x1="66.665" y1="83.41" x2="103.204" y2="97.393" gradientUnits="userSpaceOnUse">
            <stop stop-color="#fff"/>
            <stop offset="1" stop-color="#fff" stop-opacity="0"/>
        </linearGradient>
        <linearGradient id="k" x1="64.286" y1="33.092" x2="17.78" y2="29.316" gradientUnits="userSpaceOnUse">
            <stop stop-color="#645AFF"/>
            <stop offset=".521" stop-color="#E40C5B"/>
            <stop offset=".986" stop-color="#FF4C3B"/>
        </linearGradient>
        <linearGradient id="l" x1="22.234" y1="40.063" x2="52.236" y2="15.17" gradientUnits="userSpaceOnUse">
            <stop stop-color="#fff"/>
            <stop offset="1" stop-color="#fff" stop-opacity="0"/>
        </linearGradient>
        <linearGradient id="m" x1="123.435" y1="66.8" x2="76.955" y2="63.013" gradientUnits="userSpaceOnUse">
            <stop stop-color="#645AFF"/>
            <stop offset=".521" stop-color="#E40C5B"/>
            <stop offset=".986" stop-color="#FF4C3B"/>
        </linearGradient>
        <linearGradient id="n" x1="81.403" y1="73.782" x2="111.407" y2="48.898" gradientUnits="userSpaceOnUse">
            <stop stop-color="#fff"/>
            <stop offset="1" stop-color="#fff" stop-opacity="0"/>
        </linearGradient>
        <linearGradient id="o" x1="64.288" y1="98.776" x2="13.013" y2="93.794" gradientUnits="userSpaceOnUse">
            <stop stop-color="#645AFF"/>
            <stop offset=".521" stop-color="#E40C5B"/>
            <stop offset=".986" stop-color="#FF4C3B"/>
        </linearGradient>
        <linearGradient id="p" x1="22.354" y1="58.269" x2="44.574" y2="48.846" gradientUnits="userSpaceOnUse">
            <stop stop-color="#fff"/>
            <stop offset="1" stop-color="#fff" stop-opacity="0"/>
        </linearGradient>
        <linearGradient id="q" x1="123.439" y1="65.072" x2="72.185" y2="60.109" gradientUnits="userSpaceOnUse">
            <stop stop-color="#645AFF"/>
            <stop offset=".521" stop-color="#E40C5B"/>
            <stop offset=".986" stop-color="#FF4C3B"/>
        </linearGradient>
        <linearGradient id="r" x1="81.514" y1="24.56" x2="103.718" y2="15.142" gradientUnits="userSpaceOnUse">
            <stop stop-color="#fff"/>
            <stop offset="1" stop-color="#fff" stop-opacity="0"/>
        </linearGradient>
    </defs>
</svg>
