<svg viewBox="0 0 108 108" fill="none" xmlns="http://www.w3.org/2000/svg">
    <circle cx="54" cy="54" r="54" fill="url(#a)"/>
    <path fill-rule="evenodd" clip-rule="evenodd" d="M48.217 55.675C41.513 67.22 31.002 75.215 19.17 79c-2.62-12.08-.91-25.13 5.792-36.675 6.7-11.539 17.204-19.533 29.027-23.32l.001-.005.009.003a.287.287 0 0 1 .009-.003v.006c11.824 3.786 22.328 11.78 29.028 23.32C89.74 53.87 91.448 66.92 88.829 79c-11.831-3.784-22.342-11.78-29.046-23.325A51.414 51.414 0 0 1 54 40.835a51.413 51.413 0 0 1-5.783 14.84Z" fill="#F2F2F2"/>
    <defs>
        <linearGradient id="a" x1="202.723" y1="120.308" x2="107.895" y2="-31.92" gradientUnits="userSpaceOnUse">
            <stop stop-color="#645AFF"/>
            <stop offset=".638" stop-color="#E40C5B"/>
            <stop offset="1" stop-color="#FF4C3B"/>
        </linearGradient>
    </defs>
</svg>
