<svg width="108" height="108" viewBox="0 0 108 108" fill="none" xmlns="http://www.w3.org/2000/svg">
<circle cx="54" cy="54" r="54" fill="url(#paint0_linear_1_64)"/>
<path fill-rule="evenodd" clip-rule="evenodd" d="M48.2166 55.6748C41.5133 67.2199 31.0021 75.2159 19.1714 79C16.5517 66.9199 18.2601 53.8703 24.9634 42.3252C31.6632 30.7862 42.1669 22.7924 53.9901 19.0059C53.9905 19.0039 53.991 19.002 53.9914 19C53.9943 19.0009 53.9971 19.0018 54 19.0028C54.0029 19.0018 54.0057 19.0009 54.0086 19C54.009 19.002 54.0095 19.0039 54.0099 19.0059C65.8331 22.7924 76.3368 30.7862 83.0366 42.3252C89.7399 53.8703 91.4483 66.9199 88.8286 79C76.9979 75.2159 66.4867 67.2199 59.7834 55.6748C57.0257 50.9252 55.1134 45.921 54 40.8345C52.8866 45.9211 50.9743 50.9252 48.2166 55.6748Z" fill="#F2F2F2"/>
<defs>
<linearGradient id="paint0_linear_1_64" x1="202.723" y1="120.308" x2="107.895" y2="-31.92" gradientUnits="userSpaceOnUse">
<stop stop-color="#645AFF"/>
<stop offset="0.637566" stop-color="#E40C5B"/>
<stop offset="1" stop-color="#FF4C3B"/>
</linearGradient>
</defs>
</svg>
