<svg xmlns="http://www.w3.org/2000/svg" fill="none" viewBox="0 0 800 800">
    <path fill="#2E3148" fill-rule="evenodd" d="M400.012.768c220.497 0 399.245 178.733 399.245 399.212 0 220.478-178.748 399.212-399.245 399.212C179.516 799.192.768 620.458.768 399.98.768 179.501 179.516.768 400.012.768Z" clip-rule="evenodd"/>
    <path fill="#1B1E36" fill-rule="evenodd" d="M399.226 169.68c127.205 0 230.326 103.121 230.326 230.327 0 127.205-103.121 230.326-230.326 230.326-127.206 0-230.327-103.121-230.327-230.326 0-127.206 103.121-230.327 230.327-230.327Z" clip-rule="evenodd"/>
    <path stroke="#6F7390" stroke-width="15" d="M401.181 58.267c-6.861 0-15.06 7.544-23.338 23.29-8.861 16.854-17.047 41.724-23.994 72.966-14.348 64.524-22.578 152.029-22.578 245.454 0 93.425 8.23 180.931 22.578 245.454 6.947 31.242 15.133 56.112 23.994 72.966 8.278 15.746 16.477 23.291 23.338 23.291 6.861 0 15.06-7.545 23.338-23.291 8.861-16.854 17.047-41.724 23.994-72.966 14.349-64.523 22.579-152.029 22.579-245.454 0-93.425-8.23-180.93-22.579-245.454-6.947-31.242-15.133-56.112-23.994-72.966-8.278-15.746-16.477-23.29-23.338-23.29Z" clip-rule="evenodd"/>
    <path stroke="#6F7390" stroke-width="15" d="M697.298 229.144c-3.429-5.936-14.069-9.26-31.854-8.552-19.037.759-44.683 6.11-75.231 15.719-63.09 19.846-143.036 56.478-223.997 103.193-80.961 46.715-152.678 97.594-201.419 142.276-23.601 21.635-41.06 41.156-51.235 57.253-9.505 15.036-11.944 25.902-8.516 31.835 3.429 5.936 14.069 9.261 31.854 8.552 19.037-.758 44.683-6.109 75.231-15.719 63.09-19.845 143.036-56.477 223.998-103.193 80.961-46.715 152.677-97.593 201.418-142.275 23.601-21.635 41.06-41.156 51.236-57.253 9.504-15.036 11.943-25.902 8.515-31.836Zm0 0Z" clip-rule="evenodd"/>
    <path stroke="#6F7390" stroke-width="15" d="M697.298 570.868c3.428-5.933.99-16.799-8.515-31.835-10.176-16.097-27.635-35.618-51.235-57.253-48.742-44.682-120.458-95.561-201.419-142.276-80.962-46.715-160.908-83.347-223.998-103.193-30.548-9.609-56.194-14.96-75.231-15.719-17.785-.708-28.425 2.616-31.854 8.552-3.428 5.934-.989 16.8 8.516 31.836 10.175 16.097 27.634 35.618 51.235 57.253 48.741 44.682 120.458 95.56 201.419 142.275 80.961 46.716 160.907 83.348 223.997 103.193 30.548 9.61 56.194 14.961 75.231 15.719 17.785.709 28.425-2.616 31.854-8.552Z" clip-rule="evenodd"/>
    <path fill="#B7B9C8" fill-rule="evenodd" d="M177.765 302.102c13.575 0 24.58 11.01 24.58 24.592 0 13.582-11.005 24.592-24.58 24.592-13.576 0-24.58-11.01-24.58-24.592 0-13.582 11.004-24.592 24.58-24.592Z" clip-rule="evenodd"/>
    <path fill="#B7B9C8" fill-rule="evenodd" d="M568.451 217.905c13.582 0 24.592 11.01 24.592 24.592 0 13.582-11.01 24.592-24.592 24.592-13.582 0-24.592-11.01-24.592-24.592 0-13.582 11.01-24.592 24.592-24.592Z" clip-rule="evenodd"/>
    <path fill="#B7B9C8" fill-rule="evenodd" d="M351.649 603.909c13.582 0 24.592 11.005 24.592 24.58 0 13.575-11.01 24.58-24.592 24.58-13.582 0-24.592-11.005-24.592-24.58 0-13.575 11.01-24.58 24.592-24.58Z" clip-rule="evenodd"/>
    <path fill="#B7B9C8" fill-rule="evenodd" d="M399.811 358.173c22.995 0 41.636 18.641 41.636 41.636 0 22.994-18.641 41.635-41.636 41.635-22.994 0-41.635-18.641-41.635-41.635 0-22.995 18.641-41.636 41.635-41.636Z" clip-rule="evenodd"/>
</svg>
