<svg viewBox="0 0 625 625" xmlns="http://www.w3.org/2000/svg">
    <path fill="#fff" d="M563.61 244.42c12.88-24.56 14.57-83.56 9.98-113.29-6.06-39.25-12.87-105.27-51.78-117.5-43.94-13.81-124.87 86.73-131 105.76-23.12-5.68-47.42-8.72-72.5-8.72s-49.08 3.01-72.07 8.62C239.84 99.98 159.13-.16 115.28 13.63 76.37 25.86 69.56 91.88 63.5 131.13c-4.56 29.56-2.91 88.07 9.77 112.88-21.4 36.04-33.56 77.34-33.56 121.23 0 140.59 124.74 254.57 278.62 254.57s278.62-113.97 278.62-254.57c0-43.72-12.07-84.86-33.32-120.81Z"/>
    <path fill="#f5bb66" d="M44.15 426.32c5.64-34.17 20.92-69.93 51.27-90.42 8.62-5.82 35.17-23.75 63.19-17.09 23.16 5.5 26.76 21.72 47.14 23.83 15.02 1.55 24-9.5 54.73-30.37 25.63-17.41 41.84-27.35 44.2-39.04 3.88-19.19.02-29.43-9.32-75.11-8.69-42.44-14.44-71.95-6.86-90.21a302.86 302.86 0 0 0-46.95 7.58C235.15 96.18 154.43-3.96 110.58 9.83 71.67 22.06 64.86 88.08 58.8 127.33c-4.56 29.56-2.91 88.07 9.77 112.88-21.4 36.04-33.56 77.34-33.56 121.23 0 22.43 3.19 44.17 9.15 64.88Z"/>
    <path fill="#f5bb66" d="M583.09 426.32c-5.64-34.17-20.92-69.93-51.27-90.42-8.62-5.82-35.17-23.75-63.19-17.09-23.16 5.5-26.76 21.72-47.14 23.83-15.02 1.55-24-9.5-54.73-30.37-25.63-17.41-41.84-27.35-44.2-39.04-3.88-19.19-.02-29.43 9.32-75.11 8.69-42.44 14.44-71.95 6.86-90.21a302.861 302.861 0 0 1 46.95 7.58c6.4-19.31 87.12-119.45 130.97-105.66 38.91 12.23 45.72 78.25 51.78 117.5 4.56 29.56 2.91 88.07-9.77 112.88 21.4 36.04 33.56 77.34 33.56 121.23 0 22.43-3.19 44.17-9.15 64.88Z"/>
    <path fill="#0f2333" d="M238.08 305.16c0 12.018-9.742 21.76-21.76 21.76s-21.76-9.742-21.76-21.76 9.742-21.76 21.76-21.76 21.76 9.742 21.76 21.76Z"/>
    <path fill="#0f2333" d="M436.29 305.16c0 12.018-9.742 21.76-21.76 21.76s-21.76-9.742-21.76-21.76 9.742-21.76 21.76-21.76 21.76 9.742 21.76 21.76Z"/>
    <path fill="none" stroke="#133244" stroke-width="18" d="M557.92 240.63c12.88-24.56 14.57-83.56 9.98-113.29-6.06-39.25-12.87-105.27-51.78-117.5-43.94-13.81-124.87 86.73-131 105.76-23.12-5.68-47.42-8.72-72.5-8.72s-49.08 3.01-72.07 8.62C234.15 96.18 153.43-3.96 109.58 9.83 70.67 22.06 63.86 88.08 57.8 127.33c-4.56 29.56-2.91 88.07 9.77 112.88-21.4 36.04-33.56 77.34-33.56 121.23 0 140.59 124.74 254.57 278.62 254.57s278.62-113.97 278.62-254.57c0-43.72-12.07-84.86-33.32-120.81Z"/>
    <path fill="#cf8453" d="M532.5 190.43c8.63-11.74 5.02-128.16-21.06-131.22-1.9-.22-3.37.14-4.14.35-23.02 6.16-68.37 74.24-68.03 94.96 36.26 8.98 62.16 21.06 93.24 35.91Z"/>
    <path fill="#cf8453" d="M94.07 187.06c-8.63-11.74-5.02-128.16 21.06-131.22 1.9-.22 3.37.14 4.14.35 23.02 6.16 68.37 74.24 68.03 94.96-36.26 8.98-62.16 21.06-93.24 35.91Z"/>
    <path fill="#0f2333" d="M364.78 373.03c0 14.59-21.57 43.33-48.17 43.33s-48.17-28.74-48.17-43.33 21.57-26.42 48.17-26.42 48.17 11.83 48.17 26.42Z"/>
    <path fill="#0f2333" d="M435.19 411c-12.6-10.01-8.62 26.89-64.49 27.19-47.57.26-52.45-36.88-54.1-40.14v167.48c55.05-4.49 61.04-30.55 76.63-65.78 27.28-61.64 49.21-77.23 41.96-88.75Z"/>
    <path fill="#0f2333" d="M198.01 411c12.6-10.01 8.62 26.89 64.49 27.19 47.57.26 52.45-36.88 54.1-40.14v167.48c-55.05-4.49-61.04-30.55-76.63-65.78-27.28-61.64-49.21-77.23-41.96-88.75Z"/>
    <path fill="#f8a490" d="M316.6 534.63s28.8 0 37.76-25.71c4.18-12.02 3.83-49.57 3.83-49.57-4.45-3.15-12.06-8.21-18.99-11.22-6.93-3.01-12.17-5.4-22.59-6.82v93.32Z"/>
    <path fill="#f8a490" d="M316.6 534.63s-28.8 0-37.76-25.71c-4.18-12.02-3.83-49.57-3.83-49.57 4.45-3.15 12.06-8.21 18.99-11.22 6.93-3.01 12.17-5.4 22.59-6.82v93.32Z"/>
    <path fill="#c26a4f" d="M318.49 471.12c-.64.02-1.26.04-1.88.05V441.3c10.42 1.42 15.66 3.81 22.59 6.82 6.93 3.01 14.55 8.07 18.99 11.22 0 0 .07 7.09-.2 16.09-8.48-2.57-20.69-4.84-39.5-4.32Z"/>
    <path fill="#c26a4f" d="M314.72 471.12c.64.02 1.26.04 1.88.05V441.3c-10.42 1.42-15.66 3.81-22.59 6.82-6.93 3.01-14.55 8.07-18.99 11.22 0 0-.07 7.09.2 16.09 8.48-2.57 20.69-4.84 39.5-4.32Z"/>
    <path fill="#c26a4f" opacity=".59" d="M260.06 250.95c4.46 9.83-1.04 22.4-11.38 22.4-13.7 0-21.22-10.61-25.91-13.59-7.94-5.04-20.72-5.35-21.76-14.68-1.8-16.17 16.95-22.54 31.77-18.13s22.33 13.11 27.28 24Z"/>
    <path fill="#c26a4f" opacity=".59" d="M367.17 250.95c-4.46 9.83 1.04 22.4 11.38 22.4 13.7 0 21.22-10.61 25.91-13.59 7.94-5.04 20.72-5.35 21.76-14.68 1.8-16.17-16.95-22.54-31.77-18.13-14.5 4.32-22.33 13.11-27.28 24Z"/>
    <path fill="#3c3b44" d="M563.61 244.42c12.88-24.56 14.57-83.56 9.98-113.29-6.06-39.25-12.87-105.27-51.78-117.5-43.94-13.81-124.87 86.73-131 105.76-23.12-5.68-47.42-8.72-72.5-8.72s-49.08 3.01-72.07 8.62C239.84 99.98 159.13-.16 115.28 13.63 76.37 25.86 69.56 91.88 63.5 131.13c-4.56 29.56-2.91 88.07 9.77 112.88-21.4 36.04-33.56 77.34-33.56 121.23 0 140.59 124.74 254.57 278.62 254.57s278.62-113.97 278.62-254.57c0-43.72-12.07-84.86-33.32-120.81Z"/>
    <path fill="#fcf2e2" d="M559.02 242.5a4.016 4.016 0 0 1-.17-3.75c12.03-25.57 13.53-82.42 9.06-111.43-6.06-39.25-12.87-105.27-51.78-117.5-41.19-12.95-114.9 74.61-129 101.29a4.07 4.07 0 0 1-5.87 1.49c-4.93-3.24-11.78-6.13-19.98-8.28-1.43-.38-2.58-1.51-2.89-2.96-2.81-13.29 11.05-41.81 7.24-42.24-6.99-.79-22.19 16.79-33.71 29.35-2.86 3.12-7.98.34-6.93-3.76 2.03-7.87 2.92-17.86-.41-28.47-6.83-21.8-34.24-39.54-36.02-32.13-7.5 31.13-22.81 57.73-40.24 85.93-1.51 2.44-5.63.74-6.41-2.02-7.68-27.06-93.6-110.37-132.33-98.19-38.91 12.23-45.72 78.25-51.78 117.5-4.45 28.85-2.99 85.26 8.86 111.02.55 1.2.47 2.58-.19 3.72C45.75 277.67 34 318.3 34 361.43 34 502.02 158.74 616 312.62 616s278.62-113.97 278.62-254.57c0-42.96-11.65-83.43-32.22-118.93Z"/>
    <path fill="#fcf2e2" d="M563.61 244.42c12.88-24.56 14.57-83.56 9.98-113.29-6.06-39.25-12.87-105.27-51.78-117.5-43.94-13.81-124.87 86.73-131 105.76-23.12-5.68-47.42-8.72-72.5-8.72s-49.08 3.01-72.07 8.62C239.84 99.98 159.13-.16 115.28 13.63 76.37 25.86 69.56 91.88 63.5 131.13c-4.56 29.56-2.91 88.07 9.77 112.88-21.4 36.04-33.56 77.34-33.56 121.23 0 140.59 124.74 254.57 278.62 254.57s278.62-113.97 278.62-254.57c0-43.72-12.07-84.86-33.32-120.81Z"/>
    <path fill="#191720" d="M44.15 426.32c5.64-34.17 20.92-69.93 51.27-90.42 8.62-5.82 35.17-23.75 63.19-17.09 23.16 5.5 26.76 21.72 47.14 23.83 15.02 1.55 24-9.5 54.73-30.37 25.63-17.41 41.84-27.35 44.2-39.04 3.88-19.19 13.91-34.69-9.32-75.11-12.77-22.21-31.15-52.25-33.73-89.55-16.08 1.32-4.9 3.22-20.08 6.92C228.57 85.82 154.43-3.96 110.58 9.83 71.67 22.06 64.86 88.08 58.8 127.33c-4.56 29.56-2.91 88.07 9.77 112.88-21.4 36.04-33.56 77.34-33.56 121.23 0 22.43 3.19 44.17 9.15 64.88Z"/>
    <path fill="#191720" d="M583.09 426.32c-5.64-34.17-20.92-69.93-51.27-90.42-8.62-5.82-35.17-23.75-63.19-17.09-23.16 5.5-26.76 21.72-47.14 23.83-15.02 1.55-24-9.5-54.73-30.37-25.63-17.41-41.84-27.35-44.2-39.04-3.88-19.19-8.2-31.9 9.32-75.11 19.09-47.07 18.12-71.03 10.54-89.29 16.08 1.32 28.09 2.96 43.27 6.66 6.4-19.31 87.12-119.45 130.97-105.66 38.91 12.23 45.72 78.25 51.78 117.5 4.56 29.56 2.91 88.07-9.77 112.88 21.4 36.04 33.56 77.34 33.56 121.23 0 22.43-3.19 44.17-9.15 64.88Z"/>
    <path fill="#fffffd" d="M238.08 305.16c0 12.018-9.742 21.76-21.76 21.76s-21.76-9.742-21.76-21.76 9.742-21.76 21.76-21.76 21.76 9.742 21.76 21.76Z"/>
    <path fill="#fffffd" d="M436.29 305.16c0 12.018-9.742 21.76-21.76 21.76s-21.76-9.742-21.76-21.76 9.742-21.76 21.76-21.76 21.76 9.742 21.76 21.76Z"/>
    <path fill="none" stroke="#0b0b0d" stroke-width="18" d="M557.92 240.63c12.88-24.56 14.57-83.56 9.98-113.29-6.06-39.25-12.87-105.27-51.78-117.5-43.94-13.81-124.87 86.73-131 105.76-5.15-4.73-14.31-8.99-25.96-11.79 14.86-15.96 10.51-44.21 6.45-44.67-10.78-1.21-35.54 29.09-41.81 29.58 2.17-3.59 7.6-10.68.77-32.46-6.83-21.8-33.57-39.35-36.02-32.13-13.79 40.61-41.54 105.27-48 91.36C231.98 97.04 153.43-3.96 109.58 9.83 70.67 22.06 63.86 88.08 57.8 127.33c-4.56 29.56-2.91 88.07 9.77 112.88-21.4 36.04-33.56 77.34-33.56 121.23 0 140.59 124.74 254.57 278.62 254.57s278.62-113.97 278.62-254.57c0-43.72-12.07-84.86-33.32-120.81Z"/>
    <path fill="#55545a" d="M532.5 190.43c8.63-11.74 5.02-128.16-21.06-131.22-1.9-.22-3.37.14-4.14.35-23.02 6.16-68.37 74.24-68.03 94.96 36.26 8.98 62.16 21.06 93.24 35.91Z"/>
    <path fill="#55545a" d="M94.07 187.06c-8.63-11.74-5.02-128.16 21.06-131.22 1.9-.22 3.37.14 4.14.35 23.02 6.16 68.37 74.24 68.03 94.96-36.26 8.98-62.16 21.06-93.24 35.91Z"/>
    <path fill="#15141a" d="M435.19 411c-12.6-10.01-8.62 26.89-64.49 27.19-47.57.26-52.45-36.88-54.1-40.14v167.48c55.05-4.49 61.04-30.55 76.63-65.78 27.28-61.64 49.21-77.23 41.96-88.75Z"/>
    <path fill="#15141a" d="M198.01 411c12.6-10.01 8.62 26.89 64.49 27.19 47.57.26 52.45-36.88 54.1-40.14v167.48c-55.05-4.49-61.04-30.55-76.63-65.78-27.28-61.64-49.21-77.23-41.96-88.75Z"/>
    <path fill="#0b0b0d" d="M364.78 373.03c0 14.59-21.57 43.33-48.17 43.33s-48.17-28.74-48.17-43.33 21.57-26.42 48.17-26.42 48.17 11.83 48.17 26.42Z"/>
    <path fill="#f8a490" d="M316.6 534.63s28.8 0 37.76-25.71c4.18-12.02 3.83-49.57 3.83-49.57-4.45-3.15-12.06-8.21-18.99-11.22-6.93-3.01-12.17-5.4-22.59-6.82v93.32Z"/>
    <path fill="#f8a490" d="M316.6 534.63s-28.8 0-37.76-25.71c-4.18-12.02-3.83-49.57-3.83-49.57 4.45-3.15 12.06-8.21 18.99-11.22 6.93-3.01 12.17-5.4 22.59-6.82v93.32Z"/>
    <path fill="#c26a4f" d="M318.49 471.12c-.64.02-1.26.04-1.88.05V441.3c10.42 1.42 15.66 3.81 22.59 6.82 6.93 3.01 14.55 8.07 18.99 11.22 0 0 .07 7.09-.2 16.09-8.48-2.57-20.69-4.84-39.5-4.32Z"/>
    <path fill="#c26a4f" d="M314.72 471.12c.64.02 1.26.04 1.88.05V441.3c-10.42 1.42-15.66 3.81-22.59 6.82-6.93 3.01-14.55 8.07-18.99 11.22 0 0-.07 7.09.2 16.09 8.48-2.57 20.69-4.84 39.5-4.32Z"/>
    <path fill="#55545a" d="M260.06 250.95c4.46 9.83-1.04 22.4-11.38 22.4-13.7 0-21.22-10.61-25.91-13.59-7.94-5.04-20.72-5.35-21.76-14.68-1.8-16.17 16.95-22.54 31.77-18.13s22.33 13.11 27.28 24Z"/>
    <path fill="#55545a" d="M367.17 250.95c-4.46 9.83 1.04 22.4 11.38 22.4 13.7 0 21.22-10.61 25.91-13.59 7.94-5.04 20.72-5.35 21.76-14.68 1.8-16.17-16.95-22.54-31.77-18.13-14.5 4.32-22.33 13.11-27.28 24Z"/>
</svg>
