<svg xmlns="http://www.w3.org/2000/svg" xmlns:xlink="http://www.w3.org/1999/xlink" preserveAspectRatio="none" viewBox="0 0 1090 1090">
    <defs>
        <path fill="#FFB54D" fill-opacity=".31" d="m1945 318.4 11-78.1-78.1 11-23.85 61.15q-23.954-17.448-53.4-21.85l26.55-60.35-47.5-63-47.45 63 26.55 60.4h.5q-30.602 4.695-55.35 23.6l1.55-1.55-23.9-61.4-78.1-11 11 78.1 61.4 23.9 2-2.05q-20.328 26.676-24.2 60.15v-4.7l-60.3-26.55-63 47.45 63.05 47.45 60.3-26.55v-4.6q4 33.947 25 60.85l-2.9-2.9-61.4 23.9-11 78.1 78.1-11 23.9-61.4-2.6-2.6q25.713 20.074 57.85 24.65h-1.9l-26.55 60.4 47.45 63 47.5-63-26.55-60.4h-.95q29.997-4.266 54.35-22l23.9 61.35 78.1 11-11-78.1-61.25-23.85q17.624-23.893 22.2-53.2l59.95 26.35 63.05-47.5-63-47.4-60 26.35q-4.495-29.375-22.1-53.35l61.1-23.75Z" id="c"/>
        <path fill="#FFB54D" d="M965.1 3367.35q-88.35-66.05-213.3-66.05-124.95 0-213.35 66.05-56 41.95-78.25 107.4 26.55 7.7 29.2 19.5-20.7 4.85-33.1 2.75-6.2 18.8-6.2 29.9.006 93.447 86.3 146.2 86.332 52.758 211.15 51.95 124.818-.808 215.35-52.75 90.544-51.947 90.55-145.4 0-93.45-88.35-159.55Z" id="d"/>
        <path d="M2314.05 392.9q-6.989-53.283-31.35-59.6-24.157-6.572-65.3 33.75-67.676 66.367-111.2 100.85-75.324-35.995-173.5-17.55-96.62-18.141-171.15 16.5-44.054-33.461-109.4-98.9-40.759-40.795-64.75-34.45-24.157 6.105-31.15 59.4-13.816 104.982 79.75 227.55-35.301 53.834-45.4 108.15-10.076 53.937 54.4 150.7-7.125-2.92-17.9-4.65-.397-.049-.75.15-.303.268-.4.65-.05.416.15.75 2.375 3.563 4.6 6.85 10.153 14.764 17.4 23.15-1.904 11.808 3.9 43.2.095.431.4.65.354.25.75.15l10.05-1.7q8.58 43.634 27.85 77.3-16.063 19.257-16.15 33.9-.007.317.15.55.216.292.5.4 13.358 4.703 29.35-9.8 1.603 26.749 9.9 39.3.25.343.65.4.403.106.75-.15 5.377-3.502 8.45-9.35l9.55 28.95q.063.22.2.35 88.68 98.506 189.35 100.45 100.603 2.1 213.15-92.3.162-.12.25-.35.097-.177.1-.4v-17q2.222 3.369 5.6 6.05.246.205.5.25.298.037.55-.1.26-.093.4-.35 16.946-23.751 17-51.75 13.537 4.085 29.3-4.75.363-.176.45-.6 2.64-8.992-9.75-21.8 31.049-62.424 37.3-128.95 14.574-3.234 21.5-14.05.169-.278.15-.6-.021-.32-.25-.6-.172-.218-.5-.3-9.989-2.975-19.05-4 55.686-91.823 50.2-149.45-5.49-57.701-38.75-105.95 95.917-126.272 82.15-230.9m-299.9 274.2q-.481 1.492-.9 1.05l.9-1.05m-156.35 1.55.1.05q.049.027.05.05.044.02.05.05-.048.077-.2-.15m-5.35 5.4q-.637.56-1.3 1.05-.066-.09-.2-.2.142-.15 1.5-.85Z" id="f"/>
        <path fill="#7B5035" d="M785.95 3707.25q-4.05 29.65-11.7 42.45-39.05 48.8-53.8 101.25 23.83-31.94 94.9-41.6 9.15-76.35-29.4-102.1Z" id="k"/>
        <path fill="#7B5035" d="M785.95 3707.25q-4.05 29.65-11.7 42.45-39.05 48.8-53.8 101.25 23.83-31.94 94.9-41.6 9.15-76.35-29.4-102.1Z" id="m"/>
        <path id="b" stroke="#773D10" stroke-width="16" stroke-linejoin="round" stroke-linecap="round" fill="none" d="M2158.7 995.25q156.994-156.933 157-378.95-.025-200.509-128.025-347.975-13.753-15.817-28.975-31.025-156.936-156.946-378.95-156.95-222.015.006-379 156.95-15.224 15.22-28.925 31.05v-.025q-128 147.466-128.025 347.975.004 222.014 156.95 378.95 156.984 156.995 379 157 222.017-.006 378.95-157Z"/>
        <path id="e" stroke="#000" stroke-width="6" stroke-linejoin="round" stroke-linecap="square" fill="none" d="M1053.45 3526.9q-.006 93.453-90.55 145.4-90.532 51.942-215.35 52.75-124.818.808-211.125-51.95-86.319-52.753-86.325-146.2 0-11.1 6.2-29.9 12.4 2.1 33.1-2.75-2.65-11.8-29.2-19.5 22.25-65.45 78.25-107.4 88.4-66.05 213.35-66.05 124.95 0 213.3 66.05 88.35 66.1 88.35 159.55Z"/>
        <path id="g" stroke="#000" stroke-width="15" stroke-linejoin="round" stroke-linecap="square" fill="none" d="M779.925 217.798q-55.853 54.752-91.753 83.231-62.186-29.727-143.21-14.504-79.741-14.972-141.23 13.617-36.379-27.615-90.31-81.622-33.637-33.668-53.417-28.411-19.957 5.018-25.729 49.023-11.402 86.621 65.839 187.777-29.155 44.429-37.469 89.277-8.336 44.493 44.876 124.352-5.88-2.41-14.773-3.817-.327-.06-.598.124-.27.2-.33.536-.063.323.123.599 1.94 2.94 3.797 5.674 8.359 12.164 14.34 19.085-1.572 9.745 3.239 35.673.057.336.33.537.272.186.598.124l8.294-1.403q7.082 35.99 23.006 63.796-13.277 15.872-13.35 27.957-.005.261.145.474.158.22.413.31 11.004 3.88 24.222-8.088 1.303 22.076 8.17 32.434.186.283.517.35.332.067.619-.123 4.437-2.91 6.994-7.737l7.86 23.913q.053.162.166.289 73.188 81.277 156.271 82.901 83.028 1.713 175.913-76.175.134-.12.206-.289.08-.167.083-.35v-14.01q1.834 2.76 4.642 4.993.182.149.413.186.225.03.433-.062.214-.098.351-.289 13.965-19.623 14.01-42.71 11.172 3.351 24.18-3.92.3-.165.393-.495 2.157-7.442-8.047-18.012 25.604-51.519 30.784-106.402 12.007-2.69 17.723-11.616.14-.23.124-.495-.017-.264-.186-.475-.162-.2-.412-.268-8.265-2.456-15.722-3.301 45.937-75.782 41.41-123.342-4.532-47.62-31.981-87.42 79.16-104.233 67.798-190.562-5.768-43.995-25.873-49.188-19.937-5.445-53.892 27.854Z"/>
        <path id="i" stroke="#000" stroke-width="4" stroke-linejoin="round" stroke-linecap="square" fill="none" d="M785.95 3707.25q-.996 10.04-3.425 19.6-2.975 11.79-8.125 22.85-30.133 8.11-61.65 0-5.302-10.793-8.55-21.45m-4.875-25.7q-.485-6.502-.175-12.95h87.45q.2 9.004-.65 17.65m-81.75 21q-3.95-12.949-4.875-25.7"/>
        <path id="j" stroke="#000" stroke-width="2" stroke-linejoin="round" stroke-linecap="square" fill="none" d="M782.525 3726.85q61.956-14.618 129.075-70.9v-17.25m-207.4 89.55q-65.008-13.835-123.65-78.95l-8.5-25.9"/>
        <path id="l" stroke="#000" stroke-width="6" stroke-linejoin="round" stroke-linecap="square" fill="none" d="M785.95 3707.25q-4.05 29.65-11.7 42.45-39.05 48.8-53.8 101.25 23.83-31.94 94.9-41.6 9.15-76.35-29.4-102.1Z"/>
        <path id="n" stroke="#000" stroke-width="6" stroke-linejoin="round" stroke-linecap="square" fill="none" d="M501.15 876.1q4.05 29.65 11.7 42.45 39.05 48.8 53.8 101.25-23.83-31.94-94.9-41.6-9.15-76.35 29.4-102.1Z"/>
        <path id="p" stroke="#000" stroke-width="2" stroke-linejoin="round" stroke-linecap="square" fill="none" d="M538.75 3209.55q6.85-9.55 14.6-18.75 5.8-6.95 12.1-13.7 18-19.2 40.15-37.05 5.9-4.8 12.05-9.4-7.3-4.8-15.35-10.95-36.55-27.65-90.8-82-66.4-66.45-77.75 20.15-11.35 86.5 66.05 187.6 6.55-9.25 23.65-20.9m414.6-33.75q-.05-.1-.1-.1-22.3-26.55-52.2-50.65-5.85-4.7-11.8-9.25-.15-.1-.25-.15 5.65-4.1 11.9-9 .65-.5 1.35-1.05-62.2-29.9-143.35-14.65-79.85-15-141.3 13.75m365.5 104.75q14.8 10.1 19.9 21 .15.35.35.75.7 1.05 1.45 2.05 79.3-104.15 68-190.4-11.35-86.6-78.35-20.85-56.2 55.1-92.2 83.6m66.1 89.4q3.25 4.55 6.3 9.2 4.55 2.6 8.45 5.25m21.7 23.8q-.25.3-.45.6-.4-1.3-1-2.65m1.45 2.05q27.65 39.85 32.2 87.55 4.5 47.7-41.95 123.95 7.95.75 16.85 3.4-5.7 8.85-17.8 11.4-5.1 55.3-31 107.25 10.2 10.4 8.25 17.6-13.3 7.45-24.6 3.5.3 23.5-13.85 43.4-4.05-3.25-6-7.6-2-4.3-1.85-9.8-4.15 14.45-10.05 24.55-5.9 10.1-14.8 14.75-6.25-1.35-15.1-4.4-2.1 7.5-10.5 22.95l-15.6-9.4q-20.35 25.95-38.15 32.6-3.3-3.1-9.45-8.4-24.4 14.4-51.55 23.5-25.15-8.6-51.3-26.55-1.7 10.75-5.3 9.9-17.85-10.45-37.1-29.55-2.95 6.7-7.1 9.95-17.85-10.4-38.05-29.35-20.2-19.05-32.4-39.75-.5 2-1.25 3.7-2.5 5.95-7.55 9.3-7.05-10.65-8.15-33.8-13.55 12.95-24.7 9.1.15-12 13.55-27.85-16.25-28.15-23.35-64.8l-9.1 1.5q-4.85-26.25-3.15-35.75-6.05-6.95-14.55-19.3-1.85-2.75-3.75-5.65 10.85 1.7 17.2 4.95-54.75-81.25-46.4-126.15 8.35-44.95 37.7-89.5m474.25 235.5q2.4-3.2 4.75-6.4M953.05 3210q-7.05-9.75-15-19.2m-92.7 60.15q-.55 3.9-3.65 6.65-3.1 2.8-6.85 2.8-3.8 0-6-2.8-2.15-2.75-1.6-6.65.6-3.95 3.7-6.7 3.1-2.8 6.85-2.8 3.75 0 5.95 2.8 2.2 2.75 1.6 6.7Zm35.75 42.95q16.45-20.55 2.25-41.3 2.6 22-8.9 35.4 5.15-8.15 3.5-20.6-17.7 24.4-35.65 19.9-17.95-4.55-23.1-19.9-6.5 15.95.55 26.65 9.8 6.3 22.75 8.85 20.9 4.1 32.3-4.6l6.3-4.4 10.1-7q8.15-6.8 24.15-8.35-.1 0-.1-.05-6.4-1.2-18-25.35-11.8-24.6-45.5-27.4-33.65-2.8-42.75 59.15l3.05-3.6q.75 5.8 3.8 9.95 1.9 1.45 3.9 2.8m95.6-15.5h.075q-.13-.004-.175-.05m-243.45 15.4q-9.75 6.35-22.75 8.9-20.9 4.05-32.3-4.65l-6.3-4.35-10.05-7.05q-8.25-6.8-24.3-8.3m34.35 15.35q-16.45-20.55-2.25-41.3-2.6 22 8.9 35.4-5.15-8.2-3.5-20.6 17.7 24.4 35.7 19.9 17.9-4.55 23.05-19.9 6.5 15.95-.55 26.6 2-1.3 3.9-2.75 3.05-4.15 3.8-10l3.05 3.65q-9.1-62-42.75-59.2-33.7 2.8-45.5 27.4-11.8 24.6-18.2 25.45m106.45 6.35q-3.2 3.45-6.85 6.35m14.15 55.85q-4.6 7.3-4.4 16.75.05 4.3 1.15 9.15 3.7 12.6 16.3 22.95-8.75-8.65-11.8-19.35l10.65 5.05q20.75-3.4 10.05-21.5 8.8 4.15 7.95 13.65-.848 9.43-12.1 10.6m67.1 0q-11.252-1.17-12.1-10.6-.85-9.5 7.95-13.65-10.7 18.1 10.05 21.5l10.65-5.05q-3.05 10.7-11.85 19.35 12.65-10.35 16.35-22.95 1.1-4.85 1.15-9.2.2-9.4-4.4-16.7 6.05 25.3-4.85 24.35 7.9-11.5-4.4-15.45-12.85-4.15-37.65 6.15-2.55 1.05-5.2 2.25-27.2-12.95-41.35-8.4-12.3 3.95-4.4 15.45-10.9.95-4.85-24.35 11-17.5 50.8-22.4.1-.05.25-.05h.6q40 4.85 51.05 22.45m16.45-62.1q3.2 3.5 6.85 6.35m-112.95 104.6q3.55 2.9 7.85 5.65 11.85 8.7 24.65 10.9 2.35.4 4.75.55 17.45-1.15 31.5-11.45 4.25-2.75 7.8-5.65m-4.7-11.55h.05l5.85-2.75m-174 1.35q29.5 65.9 107 67.7 15.1.35 27.6-8.3 21.35 8.65 36.45 8.3 77.5-1.8 107-67.7m-177.05 1.4h-.05l-5.85-2.75m184-1.95q5.6.35 11.1 6.15.55.55 1.15 1.2m-307.05 0q2.15-2.45 4.3-4.1 7.85-5.95 15.8-1.15m266.85 0q3.95-2.4 7.85-2.1m40.95 153.7 7.45 20.15q4.45-4 5.7-18.5 2.2-1.1 8.1 4.4 8.15-9.7.95-28.25 13.1-14.35 25.15-30.15m-335.65-230.2q-.65 4.35-4.1 7.4-3.4 3.1-7.6 3.1-4.15 0-6.6-3.1-2.45-3.05-1.75-7.4.65-4.35 4.05-7.45 3.45-3.05 7.6-3.05 4.2 0 6.6 3.05 2.45 3.1 1.8 7.45Zm-114.95-26.2q3.95-2.75 8.6-5.35 3.2-4.9 6.7-9.65"/>
        <path id="q" stroke="#F1DDD4" stroke-width="2" stroke-linejoin="round" stroke-linecap="square" fill="none" d="M682.55 3284.8q6.75-6.45 13.75-11.35 13.3-86.8-44.95-103.65m185.9 4.15q-50.45 19.8-40.8 102.1 6.2 3.95 12.55 8.85m-112.7-11.45q45.9-32.25 100.15 2.6"/>
        <path id="r" stroke="#DBBAAB" stroke-width="2" stroke-linejoin="round" stroke-linecap="square" fill="none" d="M881.05 3469.7q-17.85 11.45-36.65 10.3-12.05 12.65-26.15 21.8-8.3 5.4-17.35 9.6-24.85 11.55-55.25 13.95-30.35-2.4-55.2-13.95-9.05-4.2-17.35-9.6-14.1-9.15-26.15-21.8-13.4.85-26.35-4.75m223.8 4.75q5.85-6.15 11.2-13.15M646.95 3480q-5.85-6.15-11.2-13.15m-15.15 8.4q-5.2-2.25-10.3-5.55"/>
        <path id="s" stroke="#824F37" stroke-width="2" stroke-linejoin="round" stroke-linecap="square" fill="none" d="M553.35 3190.8q-19.1-1.75-27.5-18.1l26.45-5.9q-25.6-12.05-31.45-20.35 15.6-4.25 29.75-2.35-6.4-13.2-13.05-25.4-56.3-19.4-42.75 28.7 13.5 48.15 43.95 62.15m-15.3 15q-60.85-27.8-66.8-125.55-6-97.8 37.2-45.75 23.15 28 43.7 65.45m400.5 72.1q18.9-1.8 27.3-18.1l-26.45-5.9q25.6-12.05 31.4-20.35-15.6-4.25-29.75-2.35 4.8-9.85 9.75-19.15 21.95-41.35 47.05-71.7 43.15-52.05 27 55.85-16.2 107.9-56.55 115.35m-17.5-99.5q42.5-22.55 42.75 11.7.2 34.2-40 73.35m-37.7 68.55q29.4 10.1 44.75 25.35 18.4 6.65 25.9 25.25-6.95-5.7-12.75-5.5m-397.15-45.2q-39.3 13.55-68.2 42.95 3.7 2.15 13-2-5.75 12.95-6.15 19.95"/>
        <path id="t" stroke="#E0C7BC" stroke-width="2" stroke-linejoin="round" stroke-linecap="square" fill="none" d="M891.65 3215.9q-40.7-19.6-60.6-7.1 1.55-12.6 8.6-19.8 33.6-3.3 52 26.9Zm-277.65 0q40.75-19.6 60.6-7.1-1.55-12.6-8.55-19.8-33.65-3.3-52.05 26.9Z"/>
        <g id="a">
            <path fill="#FFB54D" d="M2187.65 268.3q-13.728-15.792-28.95-31-156.936-156.946-378.95-156.95-222.015.006-379 156.95-15.224 15.22-28.95 31.05v-.05q-127.975 147.491-128 348 .004 222.014 156.95 378.95 156.984 156.995 379 157 222.017-.006 378.95-157 156.994-156.933 157-378.95-.025-200.509-128.05-348m-34.35 37.8.1.1q111.784 131.904 111.75 310.1.006 201.083-142.15 343.2-142.117 142.156-343.2 142.15h-.05q-200.985.005-343.15-142.15-142.106-142.116-142.1-343.2-.035-178.195 111.7-310.05.087-.082.15-.15.803-.97 1.6-2 .279-.258.5-.55l.1-.1q.828-.972 1.7-1.95.075-.08.15-.15 12.387-14.42 26.2-28.25 142.165-142.105 343.2-142.1 201.084-.006 343.2 142.1 13.827 13.83 26.25 28.25.088.057.15.15.825.919 1.65 1.9.102.124.15.2l.4.45q.873 1.009 1.7 2.05Z"/>
            <path fill="#DD3D3D" d="m1779.75 682.1-362.1-368.15q-109.35 128.556-109.4 302.35 0 195.3 138.1 333.35 138.1 138.15 333.4 138.15V682.1Z"/>
            <path fill="#AF2E2E" d="M1407.95 304.1q-.797 1.03-1.6 2-.063.068-.15.15-111.735 131.855-111.7 310.05-.006 201.084 142.1 343.2 142.165 142.155 343.15 142.15v-13.85q-195.3 0-333.4-138.15-138.1-138.05-138.1-333.35.05-173.794 109.4-302.35l-9.7-9.85Z"/>
            <path fill="#2237B8" d="M2251.2 616.3q0-173.775-109.35-302.3l-362.1 368.1v405.7q195.3 0 333.35-138.15 138.1-138.05 138.1-333.35Z"/>
            <path fill="#FFF" d="M2141.85 314q-1.606-1.905-3.25-3.8-12.1-13.95-25.5-27.3-138.05-138.05-333.35-138.05t-333.4 138.05q-13.4 13.35-25.45 27.3-1.632 1.88-3.25 3.75l362.1 368.15 362.1-368.1Z"/>
            <path fill="#C7C7C7" d="m2151.6 304.05-.4-.45q-.048-.076-.15-.2-.825-.981-1.65-1.9-.062-.093-.15-.15-12.423-14.42-26.25-28.25-142.116-142.106-343.2-142.1-201.035-.005-343.2 142.1-13.813 13.83-26.2 28.25-.075.07-.15.15-.872.978-1.7 1.95l-.1.1q-.221.292-.5.55l9.7 9.85q1.618-1.87 3.25-3.75 12.05-13.95 25.45-27.3 138.1-138.05 333.4-138.05 195.3 0 333.35 138.05 13.4 13.35 25.5 27.3 1.644 1.895 3.25 3.8l9.75-9.95Z"/>
            <path fill="#233185" d="m2153.4 306.2-.1-.1q-.827-1.041-1.7-2.05l-9.75 9.95q109.35 128.525 109.35 302.3 0 195.3-138.1 333.35-138.05 138.15-333.35 138.15v13.85h.05q201.083.006 343.2-142.15 142.156-142.117 142.15-343.2.034-178.196-111.75-310.1Z"/>
        </g>
        <g id="h">
            <path fill="#7B5035" d="M699.15 3689.6q-.31 6.448.15 12.95.95 12.751 4.9 25.7 3.248 10.657 8.55 21.45 31.517 8.11 61.65 0 5.15-11.06 8.1-22.85 2.454-9.56 3.45-19.6.85-8.646.65-17.65h-87.45Z"/>
            <path fill="#573B29" d="M699.3 3702.55q-3.011-1.964-6.05-4.05-1.7 10.75-5.3 9.9-17.85-10.45-37.1-29.55-2.95 6.7-7.1 9.95-17.85-10.4-38.05-29.35-20.2-19.05-32.4-39.75-.5 2-1.25 3.7l8.5 25.9q58.642 65.115 123.65 78.95-3.95-12.949-4.9-25.7m212.3-46.6v-17.25q-2-4.3-1.85-9.8-4.15 14.45-10.05 24.55-5.9 10.1-14.8 14.75-6.25-1.35-15.1-4.4-2.1 7.5-10.5 22.95l-15.6-9.4q-20.35 25.95-38.15 32.6-3.3-3.1-9.45-8.4-5.02 2.962-10.15 5.7-.996 10.04-3.45 19.6 61.981-14.618 129.1-70.9Z"/>
        </g>
        <g id="o">
            <path fill="#FBEDE7" d="M939.85 3534.95q2.2-1.1 8.1 4.4 8.15-9.7.95-28.25 13.1-14.35 25.15-30.15-142.85 106.5-254.75 93.5-111.9-12.95-224.25-112.65 8.5 12.35 14.55 19.3 49.35 56.75 96 81.6 3.05 1.65 6.15 3.1l57 30.45q-35.6 4.45-76.95-13.9 63.4 52.7 145.85 74.1 117.1-15.85 186.35-85.35l-67.45 22.15q36.15-15.1 70.15-59.95l7.45 20.15q4.45-4 5.7-18.5m-243.55-261.5q45.9-32.25 100.15 2.6-9.65-82.3 40.8-102.1-52.75-5-92.65 16.9-57-26.85-93.25-21.05 58.25 16.85 44.95 103.65Z"/>
            <path fill="#FFF" d="M978.8 3474.55q-2.35 3.2-4.75 6.4-12.05 15.8-25.15 30.15 7.2 18.55-.95 28.25-5.9-5.5-8.1-4.4-1.25 14.5-5.7 18.5l-7.45-20.15q-34 44.85-70.15 59.95L924 3571.1q-69.25 69.5-186.35 85.35-82.45-21.4-145.85-74.1 41.35 18.35 76.95 13.9l-57-30.45q-3.1-1.45-6.15-3.1-46.65-24.85-96-81.6-1.7 9.5 3.15 35.75l9.1-1.5q7.1 36.65 23.35 64.8-13.4 15.85-13.55 27.85 11.15 3.85 24.7-9.1 1.1 23.15 8.15 33.8 5.05-3.35 7.55-9.3.75-1.7 1.25-3.7 12.2 20.7 32.4 39.75 20.2 18.95 38.05 29.35 4.15-3.25 7.1-9.95 19.25 19.1 37.1 29.55 3.6.85 5.3-9.9 26.15 17.95 51.3 26.55 27.15-9.1 51.55-23.5 6.15 5.3 9.45 8.4 17.8-6.65 38.15-32.6l15.6 9.4q8.4-15.45 10.5-22.95 8.85 3.05 15.1 4.4 8.9-4.65 14.8-14.75t10.05-24.55q-.15 5.5 1.85 9.8 1.95 4.35 6 7.6 14.15-19.9 13.85-43.4 11.3 3.95 24.6-3.5 1.95-7.2-8.25-17.6 25.9-51.95 31-107.25M602.3 3119.7q8.05 6.15 15.35 10.95-6.15 4.6-12.05 9.4-22.15 17.85-40.15 37.05-6.3 6.75-12.1 13.7-7.75 9.2-14.6 18.75-3.5 4.75-6.7 9.65-4.65 2.6-8.6 5.35-17.1 11.65-23.65 20.9-29.35 44.55-37.7 89.5-8.35 44.9 46.4 126.15-6.35-3.25-17.2-4.95 1.9 2.9 3.75 5.65 112.35 99.7 224.25 112.65 111.9 13 254.75-93.5 2.4-3.2 4.75-6.4 12.1-2.55 17.8-11.4-8.9-2.65-16.85-3.4 46.45-76.25 41.95-123.95-4.55-47.7-32.2-87.55-.25.3-.45.6-.4-1.3-1-2.65-.2-.4-.35-.75-5.1-10.9-19.9-21-3.9-2.65-8.45-5.25-3.05-4.65-6.3-9.2-7.05-9.75-15-19.2-.05-.1-.1-.1-22.3-26.55-52.2-50.65-5.85-4.7-11.8-9.25-.15-.1-.25-.15 5.65-4.1 11.9-9 .65-.5 1.35-1.05-62.2-29.9-143.35-14.65-79.85-15-141.3 13.75M986 3329.15q-6.95-5.7-12.75-5.5 5.8-.2 12.75 5.5-7.5-18.6-25.9-25.25-15.35-15.25-44.75-25.35-16 1.55-24.15 8.35l-10.1 7-6.3 4.4q-11.4 8.7-32.3 4.6-12.95-2.55-22.75-8.85-2-1.35-3.9-2.8-3.65-2.85-6.85-6.35-6.35-4.9-12.55-8.85-54.25-34.85-100.15-2.6-7 4.9-13.75 11.35-3.2 3.45-6.85 6.35-1.9 1.45-3.9 2.75-9.75 6.35-22.75 8.9-20.9 4.05-32.3-4.65l-6.3-4.35-10.05-7.05q-8.25-6.8-24.3-8.3-39.3 13.55-68.2 42.95 3.7 2.15 13-2-5.75 12.95-6.15 19.95.4-7 6.15-19.95-9.3 4.15-13 2 28.9-29.4 68.2-42.95 6.4-.85 18.2-25.45 11.8-24.6 45.5-27.4 33.65-2.8 42.75 59.2 6.75-6.45 13.75-11.35 13.3-86.8-44.95-103.65 36.25-5.8 93.25 21.05 39.9-21.9 92.65-16.9-50.45 19.8-40.8 102.1 6.2 3.95 12.55 8.85 9.1-61.95 42.75-59.15 33.7 2.8 45.5 27.4 11.6 24.15 18 25.35.046.046.15.05h-.05q29.4 10.1 44.75 25.35 18.4 6.65 25.9 25.25M831.05 3208.8q1.55-12.6 8.6-19.8 33.6-3.3 52 26.9-40.7-19.6-60.6-7.1m-165-19.8q7 7.2 8.55 19.8-19.85-12.5-60.6 7.1 18.4-30.2 52.05-26.9m19.4 174.75q-.2-9.45 4.4-16.75 11-17.5 50.8-22.4.1-.05.25-.05h.6q40 4.85 51.05 22.45 4.6 7.3 4.4 16.7 10.25 42.3-30.2 62.4.1 13.95 20.95 13 71.1-3.75 90.2-57.4 3.95-2.4 7.85-2.1 5.6.35 11.1 6.15.55.55 1.15 1.2 1.3 24-10.75 24.3-4.6.05-9.9-5.75-48.2 63.1-131.05 63.6-80.25.5-127.7-59.3-11.6 7-21.85 1.45-9.55-5.1-5.8-24.3 2.15-2.45 4.3-4.1 7.85-5.95 15.8-1.15 21.05 53.65 83.85 57.45 20.8.95 20.9-13-40.45-20.1-30.35-62.4M673.1 3501.8q8.3 5.4 17.35 9.6 24.85 11.55 55.2 13.95 30.4-2.4 55.25-13.95 9.05-4.2 17.35-9.6 14.1-9.15 26.15-21.8 5.85-6.15 11.2-13.15-5.35 7-11.2 13.15 18.8 1.15 36.65-10.3-9.5 24.4-36.65 28.05-10.1 19.35-22 26.9-12 7.55-29.15 15.5-17.2 7.9-47.6 10.3-30.35-2.4-55.2-13.9-9.05-4.2-17.35-9.6-14.1-9.15-21.2-27.25-20.1-4.15-31.3-24.45-5.2-2.25-10.3-5.55 5.1 3.3 10.3 5.55 12.95 5.6 26.35 4.75-5.85-6.15-11.2-13.15 5.35 7 11.2 13.15 12.05 12.65 26.15 21.8m-34.7-251.05q.65-4.35-1.8-7.45-2.4-3.05-6.6-3.05-4.15 0-7.6 3.05-3.4 3.1-4.05 7.45-.7 4.35 1.75 7.4 2.45 3.1 6.6 3.1 4.2 0 7.6-3.1 3.45-3.05 4.1-7.4m22.2.35q0-1.6-1.15-2.75-1.15-1.1-2.75-1.1t-2.75 1.1q-1.1 1.15-1.1 2.75 0 1.65 1.1 2.75 1.15 1.15 2.75 1.15t2.75-1.15q1.15-1.1 1.15-2.75m200.8 0q0-1.6-1.15-2.75-1.15-1.1-2.75-1.1t-2.75 1.1q-1.15 1.15-1.15 2.75 0 1.65 1.15 2.75 1.15 1.15 2.75 1.15t2.75-1.15q1.15-1.1 1.15-2.75m-16.05-.15q.6-3.95-1.6-6.7-2.2-2.8-5.95-2.8t-6.85 2.8q-3.1 2.75-3.7 6.7-.55 3.9 1.6 6.65 2.2 2.8 6 2.8 3.75 0 6.85-2.8 3.1-2.75 3.65-6.65Z"/>
            <path fill="#D69D82" d="M989.5 3248.25q-.75-1-1.45-2.05.6 1.35 1 2.65.2-.3.45-.6Z"/>
            <path fill="#F9BDA0" d="M1024.35 3109.1q16.15-107.9-27-55.85-25.1 30.35-47.05 71.7 42.5-22.55 42.75 11.7.2 34.2-40 73.35 3.25 4.55 6.3 9.2 4.55 2.6 8.45 5.25 40.35-7.45 56.55-115.35m-529.55 38.3q-13.55-48.1 42.75-28.7-20.55-37.45-43.7-65.45-43.2-52.05-37.2 45.75 5.95 97.75 66.8 125.55 3.95-2.75 8.6-5.35 3.2-4.9 6.7-9.65-30.45-14-43.95-62.15Z"/>
            <path fill="#B87B5D" d="M950.3 3124.95q-4.95 9.3-9.75 19.15 14.15-1.9 29.75 2.35-5.8 8.3-31.4 20.35l26.45 5.9q-8.4 16.3-27.3 18.1 7.95 9.45 15 19.2 40.2-39.15 40-73.35-.25-34.25-42.75-11.7m-399.7 19.15q-6.4-13.2-13.05-25.4-56.3-19.4-42.75 28.7 13.5 48.15 43.95 62.15 6.85-9.55 14.6-18.75-19.1-1.75-27.5-18.1l26.45-5.9q-25.6-12.05-31.45-20.35 15.6-4.25 29.75-2.35Z"/>
            <path fill="#F9AA84" d="M886.95 3120.6q-.7.55-1.35 1.05-6.25 4.9-11.9 9 .1.05.25.15 5.95 4.55 11.8 9.25 29.9 24.1 52.2 50.65.05 0 .1.1 18.9-1.8 27.3-18.1l-26.45-5.9q25.6-12.05 31.4-20.35-15.6-4.25-29.75-2.35 4.8-9.85 9.75-19.15 21.95-41.35 47.05-71.7 43.15-52.05 27 55.85-16.2 107.9-56.55 115.35 14.8 10.1 19.9 21 .15.35.35.75.7 1.05 1.45 2.05 79.3-104.15 68-190.4-11.35-86.6-78.35-20.85-56.2 55.1-92.2 83.6m-349.4-1.9q6.65 12.2 13.05 25.4-14.15-1.9-29.75 2.35 5.85 8.3 31.45 20.35l-26.45 5.9q8.4 16.35 27.5 18.1 5.8-6.95 12.1-13.7 18-19.2 40.15-37.05 5.9-4.8 12.05-9.4-7.3-4.8-15.35-10.95-36.55-27.65-90.8-82-66.4-66.45-77.75 20.15-11.35 86.5 66.05 187.6 6.55-9.25 23.65-20.9-60.85-27.8-66.8-125.55-6-97.8 37.2-45.75 23.15 28 43.7 65.45Z"/>
            <path fill="#F1DDD4" d="M690.45 3511.4q-9.05-4.2-17.35-9.6-14.1-9.15-26.15-21.8-13.4.85-26.35-4.75 11.2 20.3 31.3 24.45 7.1 18.1 21.2 27.25 8.3 5.4 17.35 9.6 24.85 11.5 55.2 13.9 30.4-2.4 47.6-10.3 17.15-7.95 29.15-15.5 11.9-7.55 22-26.9 27.15-3.65 36.65-28.05-17.85 11.45-36.65 10.3-12.05 12.65-26.15 21.8-8.3 5.4-17.35 9.6-24.85 11.55-55.25 13.95-30.35-2.4-55.2-13.95m-15.85-302.6q-1.55-12.6-8.55-19.8-33.65-3.3-52.05 26.9 40.75-19.6 60.6-7.1m165.05-19.8q-7.05 7.2-8.6 19.8 19.9-12.5 60.6 7.1-18.4-30.2-52-26.9Z"/>
            <path d="m701.75 3381.55 5.85 2.75h.05q11.252-1.17 12.1-10.6.85-9.5-7.95-13.65 10.7 18.1-10.05 21.5m73.05 2.75 5.85-2.75q-20.75-3.4-10.05-21.5-8.8 4.15-7.95 13.65.848 9.43 12.1 10.6h.05m-102.45-117q6.5 15.95-.55 26.6 2-1.3 3.9-2.75 3.05-4.15 3.8-10l3.05 3.65q-9.1-62-42.75-59.2-33.7 2.8-45.5 27.4-11.8 24.6-18.2 25.45 16.05 1.5 24.3 8.3l10.05 7.05q-16.45-20.55-2.25-41.3-2.6 22 8.9 35.4-5.15-8.2-3.5-20.6 17.7 24.4 35.7 19.9 17.9-4.55 23.05-19.9m-12.9-18.95q1.15 1.15 1.15 2.75 0 1.65-1.15 2.75-1.15 1.15-2.75 1.15t-2.75-1.15q-1.1-1.1-1.1-2.75 0-1.6 1.1-2.75 1.15-1.1 2.75-1.1t2.75 1.1m-22.85-5.05q2.45 3.1 1.8 7.45-.65 4.35-4.1 7.4-3.4 3.1-7.6 3.1-4.15 0-6.6-3.1-2.45-3.05-1.75-7.4.65-4.35 4.05-7.45 3.45-3.05 7.6-3.05 4.2 0 6.6 3.05m278.65 35.2q0 .05.1.05h.05q-.104-.004-.15-.05m-37.3-11.1q1.65 12.45-3.5 20.6 11.5-13.4 8.9-35.4 14.2 20.75-2.25 41.3l10.1-7q8.15-6.8 24.15-8.35-.1 0-.1-.05-6.4-1.2-18-25.35-11.8-24.6-45.5-27.4-33.65-2.8-42.75 59.15l3.05-3.6q.75 5.8 3.8 9.95 1.9 1.45 3.9 2.8-7.05-10.7-.55-26.65 5.15 15.35 23.1 19.9 17.95 4.5 35.65-19.9m-34.2-23.15q2.2 2.75 1.6 6.7-.55 3.9-3.65 6.65-3.1 2.8-6.85 2.8-3.8 0-6-2.8-2.15-2.75-1.6-6.65.6-3.95 3.7-6.7 3.1-2.8 6.85-2.8 3.75 0 5.95 2.8m16.5 4.1q1.15 1.15 1.15 2.75 0 1.65-1.15 2.75-1.15 1.15-2.75 1.15t-2.75-1.15q-1.15-1.1-1.15-2.75 0-1.6 1.15-2.75 1.15-1.1 2.75-1.1t2.75 1.1Z"/>
            <path fill="#DBBAAB" d="M779.45 3395.85q-3.55 2.9-7.8 5.65-14.05 10.3-31.5 11.45-2.4-.15-4.75-.55-12.8-2.2-24.65-10.9-4.3-2.75-7.85-5.65-12.6-10.35-16.3-22.95-1.1-4.85-1.15-9.15-10.1 42.3 30.35 62.4-.1 13.95-20.9 13-62.8-3.8-83.85-57.45-7.95-4.8-15.8 1.15-2.15 1.65-4.3 4.1-3.75 19.2 5.8 24.3 10.25 5.55 21.85-1.45 47.45 59.8 127.7 59.3 82.85-.5 131.05-63.6 5.3 5.8 9.9 5.75 12.05-.3 10.75-24.3-.6-.65-1.15-1.2-5.5-5.8-11.1-6.15l-7.85 2.1q-19.1 53.65-90.2 57.4-20.85.95-20.95-13 40.45-20.1 30.2-62.4-.05 4.35-1.15 9.2-3.7 12.6-16.35 22.95m-38.2 46.45q21.35 8.65 36.45 8.3 77.5-1.8 107-67.7-29.5 65.9-107 67.7-15.1.35-36.45-8.3-12.5 8.65-27.6 8.3-77.5-1.8-107-67.7 29.5 65.9 107 67.7 15.1.35 27.6-8.3Z"/>
            <path fill="#923838" d="M771.65 3401.5q4.25-2.75 7.8-5.65 8.8-8.65 11.85-19.35l-10.65 5.05-5.85 2.75h-.05q-7.7 5.6-15.6 6.3l-17.75-12.9-18.15 12.9q-7.9-.7-15.6-6.3h-.05l-5.85-2.75-10.65-5.05q3.05 10.7 11.8 19.35 3.55 2.9 7.85 5.65 11.85 8.7 24.65 10.9 2.35.4 4.75.55 17.45-1.15 31.5-11.45Z"/>
            <path fill="#F17E7E" d="M740.45 3364.3q2.65-1.2 5.2-2.25 24.8-10.3 37.65-6.15 12.3 3.95 4.4 15.45 10.9.95 4.85-24.35-11.05-17.6-51.05-22.45h-.6q-.15 0-.25.05-39.8 4.9-50.8 22.4-6.05 25.3 4.85 24.35-7.9-11.5 4.4-15.45 14.15-4.55 41.35 8.4Z"/>
            <path fill="#7B3030" d="M689.85 3347q-4.6 7.3-4.4 16.75.05 4.3 1.15 9.15 3.7 12.6 16.3 22.95-8.75-8.65-11.8-19.35l10.65 5.05q20.75-3.4 10.05-21.5 8.8 4.15 7.95 13.65-.848 9.43-12.1 10.6 7.7 5.6 15.6 6.3l18.15-12.9 17.75 12.9q7.9-.7 15.6-6.3-11.252-1.17-12.1-10.6-.85-9.5 7.95-13.65-10.7 18.1 10.05 21.5l10.65-5.05q-3.05 10.7-11.85 19.35 12.65-10.35 16.35-22.95 1.1-4.85 1.15-9.2.2-9.4-4.4-16.7 6.05 25.3-4.85 24.35 7.9-11.5-4.4-15.45-12.85-4.15-37.65 6.15-2.55 1.05-5.2 2.25-27.2-12.95-41.35-8.4-12.3 3.95-4.4 15.45-10.9.95-4.85-24.35Z"/>
            <path fill="#0A92B8" d="M649.05 3302.8q13-2.55 22.75-8.9 7.05-10.65.55-26.6-5.15 15.35-23.05 19.9-18 4.5-35.7-19.9-1.65 12.4 3.5 20.6-11.5-13.4-8.9-35.4-14.2 20.75 2.25 41.3l6.3 4.35q11.4 8.7 32.3 4.65m225.4-14.8q5.15-8.15 3.5-20.6-17.7 24.4-35.65 19.9-17.95-4.55-23.1-19.9-6.5 15.95.55 26.65 9.8 6.3 22.75 8.85 20.9 4.1 32.3-4.6l6.3-4.4q16.45-20.55 2.25-41.3 2.6 22-8.9 35.4Z"/>
        </g>
    </defs>
    <g transform="translate(-1234.75 -71.3)">
        <use xlink:href="#a"/>
        <use xlink:href="#b"/>
    </g>
    <use xlink:href="#c" transform="translate(-1234.75 -71.3)"/>
    <g transform="translate(-198.65 -2818.6)">
        <use xlink:href="#d"/>
        <use xlink:href="#e"/>
    </g>
    <g transform="translate(-1050.1 -85.15) scale(.8253)">
        <use xlink:href="#f"/>
        <use xlink:href="#g" transform="matrix(1.21167 0 0 1.21167 1272.35 103.15)"/>
    </g>
    <g transform="translate(-198.65 -2818.6)">
        <use xlink:href="#h"/>
        <use xlink:href="#i"/>
        <use xlink:href="#j"/>
    </g>
    <g transform="translate(-198.65 -2831.15)">
        <use xlink:href="#k"/>
        <use xlink:href="#l"/>
    </g>
    <g transform="matrix(-1 0 0 1 1287.1 -2831.15)">
        <use xlink:href="#m"/>
        <use xlink:href="#n" transform="matrix(-1 0 0 1 1287.1 2831.15)"/>
    </g>
    <g transform="translate(-198.65 -2818.6)">
        <use xlink:href="#o"/>
        <use xlink:href="#p"/>
        <use xlink:href="#q"/>
        <use xlink:href="#r"/>
        <use xlink:href="#s"/>
        <use xlink:href="#t"/>
    </g>
</svg>
