
<svg xmlns="http://www.w3.org/2000/svg" version="1.1" xmlns:xlink="http://www.w3.org/1999/xlink" preserveAspectRatio="none" x="0px" y="0px" width="1090px" height="1090px" viewBox="0 0 1090 1090">
<defs>
<g id="Layer0_0_MEMBER_0_FILL">
<path fill="#FFB54D" stroke="none" d="
M 2187.65 268.3
Q 2173.9224609375 252.5078125 2158.7 237.3 2001.7640625 80.3537109375 1779.75 80.35 1557.734765625 80.3556640625 1400.75 237.3 1385.5263671875 252.5203125 1371.8 268.35
L 1371.8 268.3
Q 1243.825390625 415.7912109375 1243.8 616.3 1243.8037109375 838.3140625 1400.75 995.25 1557.7341796875 1152.24453125 1779.75 1152.25 2001.7669921875 1152.244140625 2158.7 995.25 2315.694140625 838.3169921875 2315.7 616.3 2315.674609375 415.7912109375 2187.65 268.3
M 2153.3 306.1
L 2153.4 306.2
Q 2265.184375 438.10390625 2265.15 616.3 2265.1556640625 817.3830078125 2123 959.5 1980.8830078125 1101.6556640625 1779.8 1101.65
L 1779.75 1101.65
Q 1578.7654296875 1101.655078125 1436.6 959.5 1294.4939453125 817.38359375 1294.5 616.3 1294.4650390625 438.10546875 1406.2 306.25 1406.28671875 306.168359375 1406.35 306.1 1407.1529296875 305.1294921875 1407.95 304.1 1408.228515625 303.8421875 1408.45 303.55
L 1408.55 303.45
Q 1409.3783203125 302.4783203125 1410.25 301.5 1410.325390625 301.419140625 1410.4 301.35 1422.7869140625 286.9298828125 1436.6 273.1 1578.7650390625 130.99453125 1779.8 131 1980.88359375 130.9939453125 2123 273.1 2136.8265625 286.930078125 2149.25 301.35 2149.3384765625 301.40703125 2149.4 301.5 2150.225 302.4189453125 2151.05 303.4 2151.1515625 303.52421875 2151.2 303.6 2151.423046875 303.8498046875 2151.6 304.05 2152.4728515625 305.0587890625 2153.3 306.1 Z"/>

<path fill="#DD3D3D" stroke="none" d="
M 1779.75 682.1
L 1417.65 313.95
Q 1308.29921875 442.50625 1308.25 616.3 1308.25 811.6 1446.35 949.65 1584.45 1087.8 1779.75 1087.8
L 1779.75 682.1 Z"/>

<path fill="#AF2E2E" stroke="none" d="
M 1407.95 304.1
Q 1407.1529296875 305.1294921875 1406.35 306.1 1406.28671875 306.168359375 1406.2 306.25 1294.4650390625 438.10546875 1294.5 616.3 1294.4939453125 817.38359375 1436.6 959.5 1578.7654296875 1101.655078125 1779.75 1101.65
L 1779.75 1087.8
Q 1584.45 1087.8 1446.35 949.65 1308.25 811.6 1308.25 616.3 1308.29921875 442.50625 1417.65 313.95
L 1407.95 304.1 Z"/>

<path fill="#2237B8" stroke="none" d="
M 2251.2 616.3
Q 2251.2 442.5251953125 2141.85 314
L 1779.75 682.1 1779.75 1087.8
Q 1975.05 1087.8 2113.1 949.65 2251.2 811.6 2251.2 616.3 Z"/>

<path fill="#FFFFFF" stroke="none" d="
M 2141.85 314
Q 2140.2443359375 312.0947265625 2138.6 310.2 2126.5 296.25 2113.1 282.9 1975.05 144.85 1779.75 144.85 1584.45 144.85 1446.35 282.9 1432.95 296.25 1420.9 310.2 1419.2677734375 312.080859375 1417.65 313.95
L 1779.75 682.1 2141.85 314 Z"/>

<path fill="#C7C7C7" stroke="none" d="
M 2151.6 304.05
Q 2151.423046875 303.8498046875 2151.2 303.6 2151.1515625 303.52421875 2151.05 303.4 2150.225 302.4189453125 2149.4 301.5 2149.3384765625 301.40703125 2149.25 301.35 2136.8265625 286.930078125 2123 273.1 1980.88359375 130.9939453125 1779.8 131 1578.7650390625 130.99453125 1436.6 273.1 1422.7869140625 286.9298828125 1410.4 301.35 1410.325390625 301.419140625 1410.25 301.5 1409.3783203125 302.4783203125 1408.55 303.45
L 1408.45 303.55
Q 1408.228515625 303.8421875 1407.95 304.1
L 1417.65 313.95
Q 1419.2677734375 312.080859375 1420.9 310.2 1432.95 296.25 1446.35 282.9 1584.45 144.85 1779.75 144.85 1975.05 144.85 2113.1 282.9 2126.5 296.25 2138.6 310.2 2140.2443359375 312.0947265625 2141.85 314
L 2151.6 304.05 Z"/>

<path fill="#233185" stroke="none" d="
M 2153.4 306.2
L 2153.3 306.1
Q 2152.4728515625 305.0587890625 2151.6 304.05
L 2141.85 314
Q 2251.2 442.5251953125 2251.2 616.3 2251.2 811.6 2113.1 949.65 1975.05 1087.8 1779.75 1087.8
L 1779.75 1101.65 1779.8 1101.65
Q 1980.8830078125 1101.6556640625 2123 959.5 2265.1556640625 817.3830078125 2265.15 616.3 2265.184375 438.10390625 2153.4 306.2 Z"/>
</g>

<g id="Layer0_0_MEMBER_1_FILL">
<path fill="#FFB54D" fill-opacity="0.30980392156862746" stroke="none" d="
M 1945 318.4
L 1956 240.3 1877.9 251.3 1854.05 312.45
Q 1830.0962890625 295.001953125 1800.65 290.6
L 1827.2 230.25 1779.7 167.25 1732.25 230.25 1758.8 290.65 1759.3 290.65
Q 1728.6982421875 295.3453125 1703.95 314.25
L 1705.5 312.7 1681.6 251.3 1603.5 240.3 1614.5 318.4 1675.9 342.3 1677.9 340.25
Q 1657.572265625 366.926171875 1653.7 400.4
L 1653.7 395.7 1593.4 369.15 1530.4 416.6 1593.45 464.05 1653.75 437.5 1653.75 432.9
Q 1657.75078125 466.847265625 1678.75 493.75
L 1675.85 490.85 1614.45 514.75 1603.45 592.85 1681.55 581.85 1705.45 520.45 1702.85 517.85
Q 1728.562890625 537.9244140625 1760.7 542.5
L 1758.8 542.5 1732.25 602.9 1779.7 665.9 1827.2 602.9 1800.65 542.5 1799.7 542.5
Q 1829.696875 538.234375 1854.05 520.5
L 1877.95 581.85 1956.05 592.85 1945.05 514.75 1883.8 490.9
Q 1901.423828125 467.0068359375 1906 437.7
L 1965.95 464.05 2029 416.55 1966 369.15 1906 395.5
Q 1901.5046875 366.125390625 1883.9 342.15
L 1945 318.4 Z"/>
</g>

<g id="Layer0_0_MEMBER_2_MEMBER_0_FILL">
<path fill="#FFB54D" stroke="none" d="
M 965.1 3367.35
Q 876.75 3301.3 751.8 3301.3 626.85 3301.3 538.45 3367.35 482.45 3409.3 460.2 3474.75 486.75 3482.45 489.4 3494.25 468.7 3499.1 456.3 3497 450.1 3515.8 450.1 3526.9 450.1060546875 3620.3470703125 536.4 3673.1 622.7318359375 3725.858203125 747.55 3725.05 872.3681640625 3724.2416015625 962.9 3672.3 1053.4439453125 3620.352734375 1053.45 3526.9 1053.45 3433.45 965.1 3367.35 Z"/>
</g>

<g id="Layer0_0_MEMBER_2_MEMBER_1_MEMBER_0_FILL">
<path fill="#000000" stroke="none" d="
M 2314.05 392.9
Q 2307.0611328125 339.6171875 2282.7 333.3 2258.5427734375 326.7275390625 2217.4 367.05 2149.7244140625 433.4166015625 2106.2 467.9 2030.87578125 431.905078125 1932.7 450.35 1836.0802734375 432.20859375 1761.55 466.85 1717.49609375 433.388671875 1652.15 367.95 1611.39140625 327.1548828125 1587.4 333.5 1563.2427734375 339.60546875 1556.25 392.9 1542.4337890625 497.88203125 1636 620.45 1600.698828125 674.2837890625 1590.6 728.6 1580.5244140625 782.53671875 1645 879.3 1637.875390625 876.3796875 1627.1 874.65 1626.703125 874.601171875 1626.35 874.8 1626.0470703125 875.0677734375 1625.95 875.45 1625.899609375 875.8662109375 1626.1 876.2 1628.475 879.7626953125 1630.7 883.05 1640.8533203125 897.8138671875 1648.1 906.2 1646.1958984375 918.0076171875 1652 949.4 1652.094921875 949.8314453125 1652.4 950.05 1652.7544921875 950.30078125 1653.15 950.2
L 1663.2 948.5
Q 1671.780859375 992.1341796875 1691.05 1025.8 1674.9873046875 1045.0568359375 1674.9 1059.7 1674.8927734375 1060.016796875 1675.05 1060.25 1675.2662109375 1060.541796875 1675.55 1060.65 1688.908203125 1065.3525390625 1704.9 1050.85 1706.5033203125 1077.598828125 1714.8 1090.15 1715.05 1090.49296875 1715.45 1090.55 1715.8533203125 1090.6556640625 1716.2 1090.4 1721.57734375 1086.8982421875 1724.65 1081.05
L 1734.2 1110
Q 1734.2630859375 1110.220703125 1734.4 1110.35 1823.0798828125 1208.85625 1923.75 1210.8 2024.353125 1212.9001953125 2136.9 1118.5 2137.062109375 1118.3794921875 2137.15 1118.15 2137.247265625 1117.9728515625 2137.25 1117.75
L 2137.25 1100.75
Q 2139.471875 1104.11875 2142.85 1106.8 2143.095703125 1107.0052734375 2143.35 1107.05 2143.6478515625 1107.08671875 2143.9 1106.95 2144.159375 1106.856640625 2144.3 1106.6 2161.2455078125 1082.848828125 2161.3 1054.85 2174.8375 1058.93515625 2190.6 1050.1 2190.9634765625 1049.9240234375 2191.05 1049.5 2193.6890625 1040.5078125 2181.3 1027.7 2212.348828125 965.2759765625 2218.6 898.75 2233.1740234375 895.51640625 2240.1 884.7 2240.2689453125 884.4220703125 2240.25 884.1 2240.2287109375 883.7802734375 2240 883.5 2239.8279296875 883.2818359375 2239.5 883.2 2229.511328125 880.224609375 2220.45 879.2 2276.1359375 787.37734375 2270.65 729.75 2265.1595703125 672.048828125 2231.9 623.8 2327.816796875 497.5279296875 2314.05 392.9
M 2014.15 667.1
Q 2013.6685546875 668.5921875 2013.25 668.15
L 2014.15 667.1
M 1857.8 668.65
L 1857.9 668.7
Q 1857.948828125 668.726953125 1857.95 668.75 1857.994140625 668.7697265625 1858 668.8 1857.9517578125 668.8771484375 1857.8 668.65
M 1852.45 674.05
Q 1851.812890625 674.609765625 1851.15 675.1 1851.084375 675.010546875 1850.95 674.9 1851.091796875 674.75 1852.45 674.05 Z"/>
</g>

<g id="Layer0_0_MEMBER_2_MEMBER_1_MEMBER_1_FILL">
<path fill="#7B5035" stroke="none" d="
M 699.15 3689.6
Q 698.8404296875 3696.0482421875 699.3 3702.55 700.249609375 3715.3009765625 704.2 3728.25 707.44765625 3738.9068359375 712.75 3749.7 744.2673828125 3757.809765625 774.4 3749.7 779.549609375 3738.63984375 782.5 3726.85 784.953515625 3717.289453125 785.95 3707.25 786.800390625 3698.6037109375 786.6 3689.6
L 699.15 3689.6 Z"/>

<path fill="#573B29" stroke="none" d="
M 699.3 3702.55
Q 696.2888671875 3700.5859375 693.25 3698.5 691.55 3709.25 687.95 3708.4 670.1 3697.95 650.85 3678.85 647.9 3685.55 643.75 3688.8 625.9 3678.4 605.7 3659.45 585.5 3640.4 573.3 3619.7 572.8 3621.7 572.05 3623.4
L 580.55 3649.3
Q 639.191796875 3714.4150390625 704.2 3728.25 700.249609375 3715.3009765625 699.3 3702.55
M 911.6 3655.95
L 911.6 3638.7
Q 909.6 3634.4 909.75 3628.9 905.6 3643.35 899.7 3653.45 893.8 3663.55 884.9 3668.2 878.65 3666.85 869.8 3663.8 867.7 3671.3 859.3 3686.75
L 843.7 3677.35
Q 823.35 3703.3 805.55 3709.95 802.25 3706.85 796.1 3701.55 791.080078125 3704.5125 785.95 3707.25 784.953515625 3717.289453125 782.5 3726.85 844.4814453125 3712.232421875 911.6 3655.95 Z"/>
</g>

<g id="Layer0_0_MEMBER_2_MEMBER_1_MEMBER_2_FILL">
<path fill="#7B5035" stroke="none" d="
M 785.95 3707.25
Q 781.9 3736.9 774.25 3749.7 735.2 3798.5 720.45 3850.95 744.2796875 3819.0109375 815.35 3809.35 824.5 3733 785.95 3707.25 Z"/>
</g>

<g id="Layer0_0_MEMBER_2_MEMBER_1_MEMBER_3_FILL">
<path fill="#7B5035" stroke="none" d="
M 785.95 3707.25
Q 781.9 3736.9 774.25 3749.7 735.2 3798.5 720.45 3850.95 744.2796875 3819.0109375 815.35 3809.35 824.5 3733 785.95 3707.25 Z"/>
</g>

<g id="Layer0_0_MEMBER_2_MEMBER_1_MEMBER_4_FILL">
<path fill="#FBEDE7" stroke="none" d="
M 939.85 3534.95
Q 942.05 3533.85 947.95 3539.35 956.1 3529.65 948.9 3511.1 962 3496.75 974.05 3480.95 831.2 3587.45 719.3 3574.45 607.4 3561.5 495.05 3461.8 503.55 3474.15 509.6 3481.1 558.95 3537.85 605.6 3562.7 608.65 3564.35 611.75 3565.8
L 668.75 3596.25
Q 633.15 3600.7 591.8 3582.35 655.2 3635.05 737.65 3656.45 854.75 3640.6 924 3571.1
L 856.55 3593.25
Q 892.7 3578.15 926.7 3533.3
L 934.15 3553.45
Q 938.6 3549.45 939.85 3534.95
M 696.3 3273.45
Q 742.2 3241.2 796.45 3276.05 786.8 3193.75 837.25 3173.95 784.5 3168.95 744.6 3190.85 687.6 3164 651.35 3169.8 709.6 3186.65 696.3 3273.45 Z"/>

<path fill="#FFFFFF" stroke="none" d="
M 978.8 3474.55
Q 976.45 3477.75 974.05 3480.95 962 3496.75 948.9 3511.1 956.1 3529.65 947.95 3539.35 942.05 3533.85 939.85 3534.95 938.6 3549.45 934.15 3553.45
L 926.7 3533.3
Q 892.7 3578.15 856.55 3593.25
L 924 3571.1
Q 854.75 3640.6 737.65 3656.45 655.2 3635.05 591.8 3582.35 633.15 3600.7 668.75 3596.25
L 611.75 3565.8
Q 608.65 3564.35 605.6 3562.7 558.95 3537.85 509.6 3481.1 507.9 3490.6 512.75 3516.85
L 521.85 3515.35
Q 528.95 3552 545.2 3580.15 531.8 3596 531.65 3608 542.8 3611.85 556.35 3598.9 557.45 3622.05 564.5 3632.7 569.55 3629.35 572.05 3623.4 572.8 3621.7 573.3 3619.7 585.5 3640.4 605.7 3659.45 625.9 3678.4 643.75 3688.8 647.9 3685.55 650.85 3678.85 670.1 3697.95 687.95 3708.4 691.55 3709.25 693.25 3698.5 719.4 3716.45 744.55 3725.05 771.7 3715.95 796.1 3701.55 802.25 3706.85 805.55 3709.95 823.35 3703.3 843.7 3677.35
L 859.3 3686.75
Q 867.7 3671.3 869.8 3663.8 878.65 3666.85 884.9 3668.2 893.8 3663.55 899.7 3653.45 905.6 3643.35 909.75 3628.9 909.6 3634.4 911.6 3638.7 913.55 3643.05 917.6 3646.3 931.75 3626.4 931.45 3602.9 942.75 3606.85 956.05 3599.4 958 3592.2 947.8 3581.8 973.7 3529.85 978.8 3474.55
M 602.3 3119.7
Q 610.35 3125.85 617.65 3130.65 611.5 3135.25 605.6 3140.05 583.45 3157.9 565.45 3177.1 559.15 3183.85 553.35 3190.8 545.6 3200 538.75 3209.55 535.25 3214.3 532.05 3219.2 527.4 3221.8 523.45 3224.55 506.35 3236.2 499.8 3245.45 470.45 3290 462.1 3334.95 453.75 3379.85 508.5 3461.1 502.15 3457.85 491.3 3456.15 493.2 3459.05 495.05 3461.8 607.4 3561.5 719.3 3574.45 831.2 3587.45 974.05 3480.95 976.45 3477.75 978.8 3474.55 990.9 3472 996.6 3463.15 987.7 3460.5 979.75 3459.75 1026.2 3383.5 1021.7 3335.8 1017.15 3288.1 989.5 3248.25 989.25 3248.55 989.05 3248.85 988.65 3247.55 988.05 3246.2 987.85 3245.8 987.7 3245.45 982.6 3234.55 967.8 3224.45 963.9 3221.8 959.35 3219.2 956.3 3214.55 953.05 3210 946 3200.25 938.05 3190.8 938 3190.7 937.95 3190.7 915.65 3164.15 885.75 3140.05 879.9 3135.35 873.95 3130.8 873.8 3130.7 873.7 3130.65 879.35 3126.55 885.6 3121.65 886.25 3121.15 886.95 3120.6 824.75 3090.7 743.6 3105.95 663.75 3090.95 602.3 3119.7
M 986 3329.15
Q 979.05 3323.45 973.25 3323.65 979.05 3323.45 986 3329.15 978.5 3310.55 960.1 3303.9 944.75 3288.65 915.35 3278.55 899.35 3280.1 891.2 3286.9
L 881.1 3293.9 874.8 3298.3
Q 863.4 3307 842.5 3302.9 829.55 3300.35 819.75 3294.05 817.75 3292.7 815.85 3291.25 812.2 3288.4 809 3284.9 802.65 3280 796.45 3276.05 742.2 3241.2 696.3 3273.45 689.3 3278.35 682.55 3284.8 679.35 3288.25 675.7 3291.15 673.8 3292.6 671.8 3293.9 662.05 3300.25 649.05 3302.8 628.15 3306.85 616.75 3298.15
L 610.45 3293.8 600.4 3286.75
Q 592.15 3279.95 576.1 3278.45 536.8 3292 507.9 3321.4 511.6 3323.55 520.9 3319.4 515.15 3332.35 514.75 3339.35 515.15 3332.35 520.9 3319.4 511.6 3323.55 507.9 3321.4 536.8 3292 576.1 3278.45 582.5 3277.6 594.3 3253 606.1 3228.4 639.8 3225.6 673.45 3222.8 682.55 3284.8 689.3 3278.35 696.3 3273.45 709.6 3186.65 651.35 3169.8 687.6 3164 744.6 3190.85 784.5 3168.95 837.25 3173.95 786.8 3193.75 796.45 3276.05 802.65 3280 809 3284.9 818.1 3222.95 851.75 3225.75 885.45 3228.55 897.25 3253.15 908.85 3277.3 915.25 3278.5 915.295703125 3278.545703125 915.4 3278.55 915.3875 3278.55 915.35 3278.55 944.75 3288.65 960.1 3303.9 978.5 3310.55 986 3329.15
M 831.05 3208.8
Q 832.6 3196.2 839.65 3189 873.25 3185.7 891.65 3215.9 850.95 3196.3 831.05 3208.8
M 666.05 3189
Q 673.05 3196.2 674.6 3208.8 654.75 3196.3 614 3215.9 632.4 3185.7 666.05 3189
M 685.45 3363.75
Q 685.25 3354.3 689.85 3347 700.85 3329.5 740.65 3324.6 740.75 3324.55 740.9 3324.55 741.05 3324.55 741.2 3324.55 741.35 3324.55 741.5 3324.55 781.5 3329.4 792.55 3347 797.15 3354.3 796.95 3363.7 807.2 3406 766.75 3426.1 766.85 3440.05 787.7 3439.1 858.8 3435.35 877.9 3381.7 881.85 3379.3 885.75 3379.6 891.35 3379.95 896.85 3385.75 897.4 3386.3 898 3386.95 899.3 3410.95 887.25 3411.25 882.65 3411.3 877.35 3405.5 829.15 3468.6 746.3 3469.1 666.05 3469.6 618.6 3409.8 607 3416.8 596.75 3411.25 587.2 3406.15 590.95 3386.95 593.1 3384.5 595.25 3382.85 603.1 3376.9 611.05 3381.7 632.1 3435.35 694.9 3439.15 715.7 3440.1 715.8 3426.15 675.35 3406.05 685.45 3363.75
M 673.1 3501.8
Q 681.4 3507.2 690.45 3511.4 715.3 3522.95 745.65 3525.35 776.05 3522.95 800.9 3511.4 809.95 3507.2 818.25 3501.8 832.35 3492.65 844.4 3480 850.25 3473.85 855.6 3466.85 850.25 3473.85 844.4 3480 863.2 3481.15 881.05 3469.7 871.55 3494.1 844.4 3497.75 834.3 3517.1 822.4 3524.65 810.4 3532.2 793.25 3540.15 776.05 3548.05 745.65 3550.45 715.3 3548.05 690.45 3536.55 681.4 3532.35 673.1 3526.95 659 3517.8 651.9 3499.7 631.8 3495.55 620.6 3475.25 615.4 3473 610.3 3469.7 615.4 3473 620.6 3475.25 633.55 3480.85 646.95 3480 641.1 3473.85 635.75 3466.85 641.1 3473.85 646.95 3480 659 3492.65 673.1 3501.8
M 638.4 3250.75
Q 639.05 3246.4 636.6 3243.3 634.2 3240.25 630 3240.25 625.85 3240.25 622.4 3243.3 619 3246.4 618.35 3250.75 617.65 3255.1 620.1 3258.15 622.55 3261.25 626.7 3261.25 630.9 3261.25 634.3 3258.15 637.75 3255.1 638.4 3250.75
M 660.6 3251.1
Q 660.6 3249.5 659.45 3248.35 658.3 3247.25 656.7 3247.25 655.1 3247.25 653.95 3248.35 652.85 3249.5 652.85 3251.1 652.85 3252.75 653.95 3253.85 655.1 3255 656.7 3255 658.3 3255 659.45 3253.85 660.6 3252.75 660.6 3251.1
M 861.4 3251.1
Q 861.4 3249.5 860.25 3248.35 859.1 3247.25 857.5 3247.25 855.9 3247.25 854.75 3248.35 853.6 3249.5 853.6 3251.1 853.6 3252.75 854.75 3253.85 855.9 3255 857.5 3255 859.1 3255 860.25 3253.85 861.4 3252.75 861.4 3251.1
M 845.35 3250.95
Q 845.95 3247 843.75 3244.25 841.55 3241.45 837.8 3241.45 834.05 3241.45 830.95 3244.25 827.85 3247 827.25 3250.95 826.7 3254.85 828.85 3257.6 831.05 3260.4 834.85 3260.4 838.6 3260.4 841.7 3257.6 844.8 3254.85 845.35 3250.95 Z"/>

<path fill="#D69D82" stroke="none" d="
M 989.5 3248.25
Q 988.75 3247.25 988.05 3246.2 988.65 3247.55 989.05 3248.85 989.25 3248.55 989.5 3248.25 Z"/>

<path fill="#F9BDA0" stroke="none" d="
M 1024.35 3109.1
Q 1040.5 3001.2 997.35 3053.25 972.25 3083.6 950.3 3124.95 992.8 3102.4 993.05 3136.65 993.25 3170.85 953.05 3210 956.3 3214.55 959.35 3219.2 963.9 3221.8 967.8 3224.45 1008.15 3217 1024.35 3109.1
M 494.8 3147.4
Q 481.25 3099.3 537.55 3118.7 517 3081.25 493.85 3053.25 450.65 3001.2 456.65 3099 462.6 3196.75 523.45 3224.55 527.4 3221.8 532.05 3219.2 535.25 3214.3 538.75 3209.55 508.3 3195.55 494.8 3147.4 Z"/>

<path fill="#B87B5D" stroke="none" d="
M 950.3 3124.95
Q 945.35 3134.25 940.55 3144.1 954.7 3142.2 970.3 3146.45 964.5 3154.75 938.9 3166.8
L 965.35 3172.7
Q 956.95 3189 938.05 3190.8 946 3200.25 953.05 3210 993.25 3170.85 993.05 3136.65 992.8 3102.4 950.3 3124.95
M 550.6 3144.1
Q 544.2 3130.9 537.55 3118.7 481.25 3099.3 494.8 3147.4 508.3 3195.55 538.75 3209.55 545.6 3200 553.35 3190.8 534.25 3189.05 525.85 3172.7
L 552.3 3166.8
Q 526.7 3154.75 520.85 3146.45 536.45 3142.2 550.6 3144.1 Z"/>

<path fill="#F9AA84" stroke="none" d="
M 886.95 3120.6
Q 886.25 3121.15 885.6 3121.65 879.35 3126.55 873.7 3130.65 873.8 3130.7 873.95 3130.8 879.9 3135.35 885.75 3140.05 915.65 3164.15 937.95 3190.7 938 3190.7 938.05 3190.8 956.95 3189 965.35 3172.7
L 938.9 3166.8
Q 964.5 3154.75 970.3 3146.45 954.7 3142.2 940.55 3144.1 945.35 3134.25 950.3 3124.95 972.25 3083.6 997.35 3053.25 1040.5 3001.2 1024.35 3109.1 1008.15 3217 967.8 3224.45 982.6 3234.55 987.7 3245.45 987.85 3245.8 988.05 3246.2 988.75 3247.25 989.5 3248.25 1068.8 3144.1 1057.5 3057.85 1046.15 2971.25 979.15 3037 922.95 3092.1 886.95 3120.6
M 537.55 3118.7
Q 544.2 3130.9 550.6 3144.1 536.45 3142.2 520.85 3146.45 526.7 3154.75 552.3 3166.8
L 525.85 3172.7
Q 534.25 3189.05 553.35 3190.8 559.15 3183.85 565.45 3177.1 583.45 3157.9 605.6 3140.05 611.5 3135.25 617.65 3130.65 610.35 3125.85 602.3 3119.7 565.75 3092.05 511.5 3037.7 445.1 2971.25 433.75 3057.85 422.4 3144.35 499.8 3245.45 506.35 3236.2 523.45 3224.55 462.6 3196.75 456.65 3099 450.65 3001.2 493.85 3053.25 517 3081.25 537.55 3118.7 Z"/>

<path fill="#F1DDD4" stroke="none" d="
M 690.45 3511.4
Q 681.4 3507.2 673.1 3501.8 659 3492.65 646.95 3480 633.55 3480.85 620.6 3475.25 631.8 3495.55 651.9 3499.7 659 3517.8 673.1 3526.95 681.4 3532.35 690.45 3536.55 715.3 3548.05 745.65 3550.45 776.05 3548.05 793.25 3540.15 810.4 3532.2 822.4 3524.65 834.3 3517.1 844.4 3497.75 871.55 3494.1 881.05 3469.7 863.2 3481.15 844.4 3480 832.35 3492.65 818.25 3501.8 809.95 3507.2 800.9 3511.4 776.05 3522.95 745.65 3525.35 715.3 3522.95 690.45 3511.4
M 674.6 3208.8
Q 673.05 3196.2 666.05 3189 632.4 3185.7 614 3215.9 654.75 3196.3 674.6 3208.8
M 839.65 3189
Q 832.6 3196.2 831.05 3208.8 850.95 3196.3 891.65 3215.9 873.25 3185.7 839.65 3189 Z"/>

<path fill="#000000" stroke="none" d="
M 701.75 3381.55
L 707.6 3384.3 707.65 3384.3
Q 718.901953125 3383.129296875 719.75 3373.7 720.6 3364.2 711.8 3360.05 722.5 3378.15 701.75 3381.55
M 774.8 3384.3
L 780.65 3381.55
Q 759.9 3378.15 770.6 3360.05 761.8 3364.2 762.65 3373.7 763.498046875 3383.129296875 774.75 3384.3
L 774.8 3384.3
M 672.35 3267.3
Q 678.85 3283.25 671.8 3293.9 673.8 3292.6 675.7 3291.15 678.75 3287 679.5 3281.15
L 682.55 3284.8
Q 673.45 3222.8 639.8 3225.6 606.1 3228.4 594.3 3253 582.5 3277.6 576.1 3278.45 592.15 3279.95 600.4 3286.75
L 610.45 3293.8
Q 594 3273.25 608.2 3252.5 605.6 3274.5 617.1 3287.9 611.95 3279.7 613.6 3267.3 631.3 3291.7 649.3 3287.2 667.2 3282.65 672.35 3267.3
M 659.45 3248.35
Q 660.6 3249.5 660.6 3251.1 660.6 3252.75 659.45 3253.85 658.3 3255 656.7 3255 655.1 3255 653.95 3253.85 652.85 3252.75 652.85 3251.1 652.85 3249.5 653.95 3248.35 655.1 3247.25 656.7 3247.25 658.3 3247.25 659.45 3248.35
M 636.6 3243.3
Q 639.05 3246.4 638.4 3250.75 637.75 3255.1 634.3 3258.15 630.9 3261.25 626.7 3261.25 622.55 3261.25 620.1 3258.15 617.65 3255.1 618.35 3250.75 619 3246.4 622.4 3243.3 625.85 3240.25 630 3240.25 634.2 3240.25 636.6 3243.3
M 915.25 3278.5
Q 915.25 3278.55 915.35 3278.55 915.3875 3278.55 915.4 3278.55 915.295703125 3278.545703125 915.25 3278.5
M 877.95 3267.4
Q 879.6 3279.85 874.45 3288 885.95 3274.6 883.35 3252.6 897.55 3273.35 881.1 3293.9
L 891.2 3286.9
Q 899.35 3280.1 915.35 3278.55 915.25 3278.55 915.25 3278.5 908.85 3277.3 897.25 3253.15 885.45 3228.55 851.75 3225.75 818.1 3222.95 809 3284.9
L 812.05 3281.3
Q 812.8 3287.1 815.85 3291.25 817.75 3292.7 819.75 3294.05 812.7 3283.35 819.2 3267.4 824.35 3282.75 842.3 3287.3 860.25 3291.8 877.95 3267.4
M 843.75 3244.25
Q 845.95 3247 845.35 3250.95 844.8 3254.85 841.7 3257.6 838.6 3260.4 834.85 3260.4 831.05 3260.4 828.85 3257.6 826.7 3254.85 827.25 3250.95 827.85 3247 830.95 3244.25 834.05 3241.45 837.8 3241.45 841.55 3241.45 843.75 3244.25
M 860.25 3248.35
Q 861.4 3249.5 861.4 3251.1 861.4 3252.75 860.25 3253.85 859.1 3255 857.5 3255 855.9 3255 854.75 3253.85 853.6 3252.75 853.6 3251.1 853.6 3249.5 854.75 3248.35 855.9 3247.25 857.5 3247.25 859.1 3247.25 860.25 3248.35 Z"/>

<path fill="#DBBAAB" stroke="none" d="
M 779.45 3395.85
Q 775.9 3398.75 771.65 3401.5 757.6 3411.8 740.15 3412.95 737.75 3412.8 735.4 3412.4 722.6 3410.2 710.75 3401.5 706.45 3398.75 702.9 3395.85 690.3 3385.5 686.6 3372.9 685.5 3368.05 685.45 3363.75 675.35 3406.05 715.8 3426.15 715.7 3440.1 694.9 3439.15 632.1 3435.35 611.05 3381.7 603.1 3376.9 595.25 3382.85 593.1 3384.5 590.95 3386.95 587.2 3406.15 596.75 3411.25 607 3416.8 618.6 3409.8 666.05 3469.6 746.3 3469.1 829.15 3468.6 877.35 3405.5 882.65 3411.3 887.25 3411.25 899.3 3410.95 898 3386.95 897.4 3386.3 896.85 3385.75 891.35 3379.95 885.75 3379.6
L 877.9 3381.7
Q 858.8 3435.35 787.7 3439.1 766.85 3440.05 766.75 3426.1 807.2 3406 796.95 3363.7 796.9 3368.05 795.8 3372.9 792.1 3385.5 779.45 3395.85
M 741.25 3442.3
Q 762.6 3450.95 777.7 3450.6 855.2 3448.8 884.7 3382.9 855.2 3448.8 777.7 3450.6 762.6 3450.95 741.25 3442.3 728.75 3450.95 713.65 3450.6 636.15 3448.8 606.65 3382.9 636.15 3448.8 713.65 3450.6 728.75 3450.95 741.25 3442.3 Z"/>

<path fill="#923838" stroke="none" d="
M 771.65 3401.5
Q 775.9 3398.75 779.45 3395.85 788.25 3387.2 791.3 3376.5
L 780.65 3381.55 774.8 3384.3 774.75 3384.3
Q 767.05 3389.9 759.15 3390.6
L 741.4 3377.7 723.25 3390.6
Q 715.35 3389.9 707.65 3384.3
L 707.6 3384.3 701.75 3381.55 691.1 3376.5
Q 694.15 3387.2 702.9 3395.85 706.45 3398.75 710.75 3401.5 722.6 3410.2 735.4 3412.4 737.75 3412.8 740.15 3412.95 757.6 3411.8 771.65 3401.5 Z"/>

<path fill="#F17E7E" stroke="none" d="
M 740.45 3364.3
Q 743.1 3363.1 745.65 3362.05 770.45 3351.75 783.3 3355.9 795.6 3359.85 787.7 3371.35 798.6 3372.3 792.55 3347 781.5 3329.4 741.5 3324.55 741.35 3324.55 741.2 3324.55 741.05 3324.55 740.9 3324.55 740.75 3324.55 740.65 3324.6 700.85 3329.5 689.85 3347 683.8 3372.3 694.7 3371.35 686.8 3359.85 699.1 3355.9 713.25 3351.35 740.45 3364.3 Z"/>

<path fill="#7B3030" stroke="none" d="
M 689.85 3347
Q 685.25 3354.3 685.45 3363.75 685.5 3368.05 686.6 3372.9 690.3 3385.5 702.9 3395.85 694.15 3387.2 691.1 3376.5
L 701.75 3381.55
Q 722.5 3378.15 711.8 3360.05 720.6 3364.2 719.75 3373.7 718.901953125 3383.129296875 707.65 3384.3 715.35 3389.9 723.25 3390.6
L 741.4 3377.7 759.15 3390.6
Q 767.05 3389.9 774.75 3384.3 763.498046875 3383.129296875 762.65 3373.7 761.8 3364.2 770.6 3360.05 759.9 3378.15 780.65 3381.55
L 791.3 3376.5
Q 788.25 3387.2 779.45 3395.85 792.1 3385.5 795.8 3372.9 796.9 3368.05 796.95 3363.7 797.15 3354.3 792.55 3347 798.6 3372.3 787.7 3371.35 795.6 3359.85 783.3 3355.9 770.45 3351.75 745.65 3362.05 743.1 3363.1 740.45 3364.3 713.25 3351.35 699.1 3355.9 686.8 3359.85 694.7 3371.35 683.8 3372.3 689.85 3347 Z"/>

<path fill="#0A92B8" stroke="none" d="
M 649.05 3302.8
Q 662.05 3300.25 671.8 3293.9 678.85 3283.25 672.35 3267.3 667.2 3282.65 649.3 3287.2 631.3 3291.7 613.6 3267.3 611.95 3279.7 617.1 3287.9 605.6 3274.5 608.2 3252.5 594 3273.25 610.45 3293.8
L 616.75 3298.15
Q 628.15 3306.85 649.05 3302.8
M 874.45 3288
Q 879.6 3279.85 877.95 3267.4 860.25 3291.8 842.3 3287.3 824.35 3282.75 819.2 3267.4 812.7 3283.35 819.75 3294.05 829.55 3300.35 842.5 3302.9 863.4 3307 874.8 3298.3
L 881.1 3293.9
Q 897.55 3273.35 883.35 3252.6 885.95 3274.6 874.45 3288 Z"/>
</g>

<path id="Layer0_0_MEMBER_0_1_STROKES" stroke="#773D10" stroke-width="16" stroke-linejoin="round" stroke-linecap="round" fill="none" d="
M 2158.7 995.25
Q 2315.694140625 838.3169921875 2315.7 616.3 2315.674609375 415.7912109375 2187.675 268.325 2173.9224609375 252.5078125 2158.7 237.3 2001.7640625 80.3537109375 1779.75 80.35 1557.734765625 80.3556640625 1400.75 237.3 1385.5263671875 252.5203125 1371.825 268.35
L 1371.825 268.325
Q 1243.825390625 415.7912109375 1243.8 616.3 1243.8037109375 838.3140625 1400.75 995.25 1557.7341796875 1152.24453125 1779.75 1152.25 2001.7669921875 1152.244140625 2158.7 995.25 Z"/>

<path id="Layer0_0_MEMBER_2_MEMBER_0_1_STROKES" stroke="#000000" stroke-width="6" stroke-linejoin="round" stroke-linecap="square" fill="none" d="
M 1053.45 3526.9
Q 1053.4439453125 3620.352734375 962.9 3672.3 872.3681640625 3724.2416015625 747.55 3725.05 622.7318359375 3725.858203125 536.425 3673.1 450.1060546875 3620.3470703125 450.1 3526.9 450.1 3515.8 456.3 3497 468.7 3499.1 489.4 3494.25 486.75 3482.45 460.2 3474.75 482.45 3409.3 538.45 3367.35 626.85 3301.3 751.8 3301.3 876.75 3301.3 965.1 3367.35 1053.45 3433.45 1053.45 3526.9 Z"/>

<path id="Layer0_0_MEMBER_2_MEMBER_1_MEMBER_0_1_STROKES" stroke="#000000" stroke-width="15" stroke-linejoin="round" stroke-linecap="square" fill="none" d="
M 779.9249298095706 217.7977771759033
Q 724.0721249908208 272.54964185655115 688.1719661712646 301.02949638366704 625.9860958933832 271.3021783530712 544.9614151000978 286.52481155395515 465.22094954550266 271.552670443058 403.7315891265871 300.14229660034187 367.35317417383203 272.52659142613413 313.42290420532254 218.5199165344238 279.78475021123904 184.85161966979499 260.0052242279053 190.10889091491694 240.0475812822583 195.12711468935012 234.2764305114747 239.1318370819092 222.8738822788 325.75309790372853 300.1149074554446 426.9087028503419 270.9601427733901 471.3378433078527 262.64619102478036 516.1857601165772 254.31015599668035 560.6792161107063 307.5219940185548 640.5381576538085 301.6420387685298 638.1280175447465 292.74908599853507 636.7211353302001 292.42154421806345 636.660204821825 292.15074195861826 636.8449306488038 291.8801008909941 637.045292082429 291.8206211090087 637.381377029419 291.75840106606483 637.7042442470789 291.9444164276124 637.979721069336 293.8838764190673 640.9200210779906 295.74080619812 643.6536731719972 304.0997304648163 655.8176915675402 310.08043060302725 662.7387847900392 308.50897153914 672.4836363345386 313.3197414398196 698.4124691009521 313.37744811177254 698.7479092806578 313.6498622894287 698.9489154815675 313.92179289162186 699.1352532267571 314.248206329346 699.072710800171
L 322.54249267578143 697.669697189331
Q 329.62429414391545 733.6604458123446 345.54778938293475 761.4655513763429 332.2705802708865 777.3376264244317 332.19852752685574 789.4226608276368 332.19256342947483 789.6841139614581 332.34295539855975 789.8972095489503 332.5007621914151 790.1173975765706 332.75560646057147 790.2066978454591 343.7595273196698 794.0877133220434 356.9782238006592 782.1187370300293 358.2808149069547 804.1946016967296 365.1487148284914 814.5531105041505 365.3344078063965 814.8361633419992 365.66452865600604 814.9038639068605 365.9973897665741 814.9704361289739 366.2835052490236 814.7800685882568 370.7214384675026 811.8694278746844 373.27794075012207 807.042861175537
L 381.1389434814455 830.9559902191163
Q 381.19100843966 831.1175044238568 381.3040039062503 831.2448459625244 454.49169954955596 912.5216307640077 537.574961090088 914.1464443206788 620.6029338359835 915.8591074198486 713.4881088256839 837.9710582733155 713.6218980371955 837.8509703665973 713.6944343566897 837.6822025299072 713.7747078835966 837.5153689950704 713.7769645690919 837.3314491271973
L 713.7769645690919 823.3219455718995
Q 715.6106827259066 826.0815495491029 718.4192890167237 828.3150234222413 718.6014357745648 828.4638034731149 718.8319400787354 828.5007164001464 719.0571250528096 828.5310204625131 719.2652236938479 828.4388187408447 719.4792864322665 828.3411364972591 719.6159770965576 828.1499629974365 733.580508133769 808.5274378478526 733.6254806518557 785.4405780792237 744.798008155823 788.7914336562158 757.8068328857421 781.5203929901123 758.1068108648064 781.3545266062021 758.1988513946533 781.0252117156983 760.3562427282336 773.5833077192307 750.1521556854248 763.0129928588868 775.7561869323256 711.4943137258291 780.9359249114991 656.610916519165 792.9432648569348 653.9215921759607 798.6592880249023 644.9947891235353 798.7987189501523 644.7654131621122 798.783083343506 644.4996078491212 798.7655134350064 644.2357368379832 798.5973903656009 644.0250591278076 798.4347478181123 643.8243753105402 798.1847393035891 643.7568359375001 789.9204346358779 641.3012397348881 782.4627338409423 640.4556274414064 828.3998237848284 564.6741942048073 823.8722679138186 517.1142250061035 819.3410046309232 469.4933252990246 791.8918106079104 429.694097518921 871.0521467983722 325.4608571320772 859.6903800964358 239.1318370819092 853.9224531620744 195.13678619861602 833.8171585083007 189.94383049011228 813.8801481157541 184.4989319652319 779.9249298095706 217.7977771759033 Z"/>

<path id="Layer0_0_MEMBER_2_MEMBER_1_MEMBER_1_1_STROKES" stroke="#000000" stroke-width="4" stroke-linejoin="round" stroke-linecap="square" fill="none" d="
M 785.95 3707.25
Q 784.953515625 3717.289453125 782.525 3726.85 779.549609375 3738.63984375 774.4 3749.7 744.2673828125 3757.809765625 712.75 3749.7 707.44765625 3738.9068359375 704.2 3728.25
M 699.325 3702.55
Q 698.8404296875 3696.0482421875 699.15 3689.6
L 786.6 3689.6
Q 786.800390625 3698.6037109375 785.95 3707.25
M 704.2 3728.25
Q 700.249609375 3715.3009765625 699.325 3702.55"/>

<path id="Layer0_0_MEMBER_2_MEMBER_1_MEMBER_1_2_STROKES" stroke="#000000" stroke-width="2" stroke-linejoin="round" stroke-linecap="square" fill="none" d="
M 782.525 3726.85
Q 844.4814453125 3712.232421875 911.6 3655.95
L 911.6 3638.7
M 704.2 3728.25
Q 639.191796875 3714.4150390625 580.55 3649.3
L 572.05 3623.4"/>

<path id="Layer0_0_MEMBER_2_MEMBER_1_MEMBER_2_1_STROKES" stroke="#000000" stroke-width="6" stroke-linejoin="round" stroke-linecap="square" fill="none" d="
M 785.95 3707.25
Q 781.9 3736.9 774.25 3749.7 735.2 3798.5 720.45 3850.95 744.2796875 3819.0109375 815.35 3809.35 824.5 3733 785.95 3707.25 Z"/>

<path id="Layer0_0_MEMBER_2_MEMBER_1_MEMBER_3_1_STROKES" stroke="#000000" stroke-width="6" stroke-linejoin="round" stroke-linecap="square" fill="none" d="
M 501.14999999999986 876.0999999999999
Q 505.19999999999993 905.75 512.8499999999999 918.5499999999997 551.8999999999999 967.3499999999999 566.6499999999999 1019.7999999999997 542.8203124999999 987.8609375000001 471.7499999999999 978.1999999999998 462.5999999999999 901.8499999999999 501.14999999999986 876.0999999999999 Z"/>

<path id="Layer0_0_MEMBER_2_MEMBER_1_MEMBER_4_1_STROKES" stroke="#000000" stroke-width="2" stroke-linejoin="round" stroke-linecap="square" fill="none" d="
M 538.75 3209.55
Q 545.6 3200 553.35 3190.8 559.15 3183.85 565.45 3177.1 583.45 3157.9 605.6 3140.05 611.5 3135.25 617.65 3130.65 610.35 3125.85 602.3 3119.7 565.75 3092.05 511.5 3037.7 445.1 2971.25 433.75 3057.85 422.4 3144.35 499.8 3245.45 506.35 3236.2 523.45 3224.55
M 938.05 3190.8
Q 938 3190.7 937.95 3190.7 915.65 3164.15 885.75 3140.05 879.9 3135.35 873.95 3130.8 873.8 3130.7 873.7 3130.65 879.35 3126.55 885.6 3121.65 886.25 3121.15 886.95 3120.6 824.75 3090.7 743.6 3105.95 663.75 3090.95 602.3 3119.7
M 967.8 3224.45
Q 982.6 3234.55 987.7 3245.45 987.85 3245.8 988.05 3246.2 988.75 3247.25 989.5 3248.25 1068.8 3144.1 1057.5 3057.85 1046.15 2971.25 979.15 3037 922.95 3092.1 886.95 3120.6
M 953.05 3210
Q 956.3 3214.55 959.35 3219.2 963.9 3221.8 967.8 3224.45
M 989.5 3248.25
Q 989.25 3248.55 989.05 3248.85 988.65 3247.55 988.05 3246.2
M 989.5 3248.25
Q 1017.15 3288.1 1021.7 3335.8 1026.2 3383.5 979.75 3459.75 987.7 3460.5 996.6 3463.15 990.9 3472 978.8 3474.55 973.7 3529.85 947.8 3581.8 958 3592.2 956.05 3599.4 942.75 3606.85 931.45 3602.9 931.75 3626.4 917.6 3646.3 913.55 3643.05 911.6 3638.7 909.6 3634.4 909.75 3628.9 905.6 3643.35 899.7 3653.45 893.8 3663.55 884.9 3668.2 878.65 3666.85 869.8 3663.8 867.7 3671.3 859.3 3686.75
L 843.7 3677.35
Q 823.35 3703.3 805.55 3709.95 802.25 3706.85 796.1 3701.55 771.7 3715.95 744.55 3725.05 719.4 3716.45 693.25 3698.5 691.55 3709.25 687.95 3708.4 670.1 3697.95 650.85 3678.85 647.9 3685.55 643.75 3688.8 625.9 3678.4 605.7 3659.45 585.5 3640.4 573.3 3619.7 572.8 3621.7 572.05 3623.4 569.55 3629.35 564.5 3632.7 557.45 3622.05 556.35 3598.9 542.8 3611.85 531.65 3608 531.8 3596 545.2 3580.15 528.95 3552 521.85 3515.35
L 512.75 3516.85
Q 507.9 3490.6 509.6 3481.1 503.55 3474.15 495.05 3461.8 493.2 3459.05 491.3 3456.15 502.15 3457.85 508.5 3461.1 453.75 3379.85 462.1 3334.95 470.45 3290 499.8 3245.45
M 974.05 3480.95
Q 976.45 3477.75 978.8 3474.55
M 953.05 3210
Q 946 3200.25 938.05 3190.8
M 845.35 3250.95
Q 844.8 3254.85 841.7 3257.6 838.6 3260.4 834.85 3260.4 831.05 3260.4 828.85 3257.6 826.7 3254.85 827.25 3250.95 827.85 3247 830.95 3244.25 834.05 3241.45 837.8 3241.45 841.55 3241.45 843.75 3244.25 845.95 3247 845.35 3250.95 Z
M 881.1 3293.9
Q 897.55 3273.35 883.35 3252.6 885.95 3274.6 874.45 3288 879.6 3279.85 877.95 3267.4 860.25 3291.8 842.3 3287.3 824.35 3282.75 819.2 3267.4 812.7 3283.35 819.75 3294.05 829.55 3300.35 842.5 3302.9 863.4 3307 874.8 3298.3
L 881.1 3293.9 891.2 3286.9
Q 899.35 3280.1 915.35 3278.55 915.25 3278.55 915.25 3278.5 908.85 3277.3 897.25 3253.15 885.45 3228.55 851.75 3225.75 818.1 3222.95 809 3284.9
L 812.05 3281.3
Q 812.8 3287.1 815.85 3291.25 817.75 3292.7 819.75 3294.05
M 915.35 3278.55
Q 915.3875 3278.55 915.425 3278.55 915.295703125 3278.545703125 915.25 3278.5
M 671.8 3293.9
Q 662.05 3300.25 649.05 3302.8 628.15 3306.85 616.75 3298.15
L 610.45 3293.8 600.4 3286.75
Q 592.15 3279.95 576.1 3278.45
M 610.45 3293.8
Q 594 3273.25 608.2 3252.5 605.6 3274.5 617.1 3287.9 611.95 3279.7 613.6 3267.3 631.3 3291.7 649.3 3287.2 667.2 3282.65 672.35 3267.3 678.85 3283.25 671.8 3293.9 673.8 3292.6 675.7 3291.15 678.75 3287 679.5 3281.15
L 682.55 3284.8
Q 673.45 3222.8 639.8 3225.6 606.1 3228.4 594.3 3253 582.5 3277.6 576.1 3278.45
M 682.55 3284.8
Q 679.35 3288.25 675.7 3291.15
M 689.85 3347
Q 685.25 3354.3 685.45 3363.75 685.5 3368.05 686.6 3372.9 690.3 3385.5 702.9 3395.85 694.15 3387.2 691.1 3376.5
L 701.75 3381.55
Q 722.5 3378.15 711.8 3360.05 720.6 3364.2 719.75 3373.7 718.901953125 3383.129296875 707.65 3384.3
M 774.75 3384.3
Q 763.498046875 3383.129296875 762.65 3373.7 761.8 3364.2 770.6 3360.05 759.9 3378.15 780.65 3381.55
L 791.3 3376.5
Q 788.25 3387.2 779.45 3395.85 792.1 3385.5 795.8 3372.9 796.9 3368.05 796.95 3363.7 797.15 3354.3 792.55 3347 798.6 3372.3 787.7 3371.35 795.6 3359.85 783.3 3355.9 770.45 3351.75 745.65 3362.05 743.1 3363.1 740.45 3364.3 713.25 3351.35 699.1 3355.9 686.8 3359.85 694.7 3371.35 683.8 3372.3 689.85 3347 700.85 3329.5 740.65 3324.6 740.75 3324.55 740.9 3324.55 741.05 3324.55 741.2 3324.55 741.35 3324.55 741.5 3324.55 781.5 3329.4 792.55 3347
M 809 3284.9
Q 812.2 3288.4 815.85 3291.25
M 702.9 3395.85
Q 706.45 3398.75 710.75 3401.5 722.6 3410.2 735.4 3412.4 737.75 3412.8 740.15 3412.95 757.6 3411.8 771.65 3401.5 775.9 3398.75 779.45 3395.85
M 774.75 3384.3
L 774.8 3384.3 780.65 3381.55
M 606.65 3382.9
Q 636.15 3448.8 713.65 3450.6 728.75 3450.95 741.25 3442.3 762.6 3450.95 777.7 3450.6 855.2 3448.8 884.7 3382.9
M 707.65 3384.3
L 707.6 3384.3 701.75 3381.55
M 885.75 3379.6
Q 891.35 3379.95 896.85 3385.75 897.4 3386.3 898 3386.95
M 590.95 3386.95
Q 593.1 3384.5 595.25 3382.85 603.1 3376.9 611.05 3381.7
M 877.9 3381.7
Q 881.85 3379.3 885.75 3379.6
M 926.7 3533.3
L 934.15 3553.45
Q 938.6 3549.45 939.85 3534.95 942.05 3533.85 947.95 3539.35 956.1 3529.65 948.9 3511.1 962 3496.75 974.05 3480.95
M 638.4 3250.75
Q 637.75 3255.1 634.3 3258.15 630.9 3261.25 626.7 3261.25 622.55 3261.25 620.1 3258.15 617.65 3255.1 618.35 3250.75 619 3246.4 622.4 3243.3 625.85 3240.25 630 3240.25 634.2 3240.25 636.6 3243.3 639.05 3246.4 638.4 3250.75 Z
M 523.45 3224.55
Q 527.4 3221.8 532.05 3219.2 535.25 3214.3 538.75 3209.55"/>

<path id="Layer0_0_MEMBER_2_MEMBER_1_MEMBER_4_2_STROKES" stroke="#F1DDD4" stroke-width="2" stroke-linejoin="round" stroke-linecap="square" fill="none" d="
M 682.55 3284.8
Q 689.3 3278.35 696.3 3273.45 709.6 3186.65 651.35 3169.8
M 837.25 3173.95
Q 786.8 3193.75 796.45 3276.05 802.65 3280 809 3284.9
M 696.3 3273.45
Q 742.2 3241.2 796.45 3276.05"/>

<path id="Layer0_0_MEMBER_2_MEMBER_1_MEMBER_4_3_STROKES" stroke="#DBBAAB" stroke-width="2" stroke-linejoin="round" stroke-linecap="square" fill="none" d="
M 881.05 3469.7
Q 863.2 3481.15 844.4 3480 832.35 3492.65 818.25 3501.8 809.95 3507.2 800.9 3511.4 776.05 3522.95 745.65 3525.35 715.3 3522.95 690.45 3511.4 681.4 3507.2 673.1 3501.8 659 3492.65 646.95 3480 633.55 3480.85 620.6 3475.25
M 844.4 3480
Q 850.25 3473.85 855.6 3466.85
M 646.95 3480
Q 641.1 3473.85 635.75 3466.85
M 620.6 3475.25
Q 615.4 3473 610.3 3469.7"/>

<path id="Layer0_0_MEMBER_2_MEMBER_1_MEMBER_4_4_STROKES" stroke="#824F37" stroke-width="2" stroke-linejoin="round" stroke-linecap="square" fill="none" d="
M 553.35 3190.8
Q 534.25 3189.05 525.85 3172.7
L 552.3 3166.8
Q 526.7 3154.75 520.85 3146.45 536.45 3142.2 550.6 3144.1 544.2 3130.9 537.55 3118.7 481.25 3099.3 494.8 3147.4 508.3 3195.55 538.75 3209.55
M 523.45 3224.55
Q 462.6 3196.75 456.65 3099 450.65 3001.2 493.85 3053.25 517 3081.25 537.55 3118.7
M 938.05 3190.8
Q 956.95 3189 965.35 3172.7
L 938.9 3166.8
Q 964.5 3154.75 970.3 3146.45 954.7 3142.2 940.55 3144.1 945.35 3134.25 950.3 3124.95 972.25 3083.6 997.35 3053.25 1040.5 3001.2 1024.35 3109.1 1008.15 3217 967.8 3224.45
M 950.3 3124.95
Q 992.8 3102.4 993.05 3136.65 993.25 3170.85 953.05 3210
M 915.35 3278.55
Q 944.75 3288.65 960.1 3303.9 978.5 3310.55 986 3329.15 979.05 3323.45 973.25 3323.65
M 576.1 3278.45
Q 536.8 3292 507.9 3321.4 511.6 3323.55 520.9 3319.4 515.15 3332.35 514.75 3339.35"/>

<path id="Layer0_0_MEMBER_2_MEMBER_1_MEMBER_4_5_STROKES" stroke="#E0C7BC" stroke-width="2" stroke-linejoin="round" stroke-linecap="square" fill="none" d="
M 891.65 3215.9
Q 850.95 3196.3 831.05 3208.8 832.6 3196.2 839.65 3189 873.25 3185.7 891.65 3215.9 Z
M 614 3215.9
Q 654.75 3196.3 674.6 3208.8 673.05 3196.2 666.05 3189 632.4 3185.7 614 3215.9 Z"/>
</defs>

<g transform="matrix( 1, 0, 0, 1, -1234.75,-71.3) ">
<use xlink:href="#Layer0_0_MEMBER_0_FILL"/>

<use xlink:href="#Layer0_0_MEMBER_0_1_STROKES"/>
</g>

<g transform="matrix( 1, 0, 0, 1, -1234.75,-71.3) ">
<use xlink:href="#Layer0_0_MEMBER_1_FILL"/>
</g>

<g transform="matrix( 1, 0, 0, 1, -198.65,-2818.6) ">
<use xlink:href="#Layer0_0_MEMBER_2_MEMBER_0_FILL"/>

<use xlink:href="#Layer0_0_MEMBER_2_MEMBER_0_1_STROKES"/>
</g>

<g transform="matrix( 0.8253021240234375, 0, 0, 0.8253021240234375, -1050.1,-85.15) ">
<use xlink:href="#Layer0_0_MEMBER_2_MEMBER_1_MEMBER_0_FILL"/>

<use xlink:href="#Layer0_0_MEMBER_2_MEMBER_1_MEMBER_0_1_STROKES" transform="matrix( 1.211669921875, 0, 0, 1.211669921875, 1272.35,103.15) "/>
</g>

<g transform="matrix( 1, 0, 0, 1, -198.65,-2818.6) ">
<use xlink:href="#Layer0_0_MEMBER_2_MEMBER_1_MEMBER_1_FILL"/>

<use xlink:href="#Layer0_0_MEMBER_2_MEMBER_1_MEMBER_1_1_STROKES"/>

<use xlink:href="#Layer0_0_MEMBER_2_MEMBER_1_MEMBER_1_2_STROKES"/>
</g>

<g transform="matrix( 1, 0, 0, 1, -198.65,-2831.15) ">
<use xlink:href="#Layer0_0_MEMBER_2_MEMBER_1_MEMBER_2_FILL"/>

<use xlink:href="#Layer0_0_MEMBER_2_MEMBER_1_MEMBER_2_1_STROKES"/>
</g>

<g transform="matrix( -1, 0, 0, 1, 1287.1,-2831.15) ">
<use xlink:href="#Layer0_0_MEMBER_2_MEMBER_1_MEMBER_3_FILL"/>

<use xlink:href="#Layer0_0_MEMBER_2_MEMBER_1_MEMBER_3_1_STROKES" transform="matrix( -1, 0, 0, 1, 1287.1,2831.15) "/>
</g>

<g transform="matrix( 1, 0, 0, 1, -198.65,-2818.6) ">
<use xlink:href="#Layer0_0_MEMBER_2_MEMBER_1_MEMBER_4_FILL"/>

<use xlink:href="#Layer0_0_MEMBER_2_MEMBER_1_MEMBER_4_1_STROKES"/>

<use xlink:href="#Layer0_0_MEMBER_2_MEMBER_1_MEMBER_4_2_STROKES"/>

<use xlink:href="#Layer0_0_MEMBER_2_MEMBER_1_MEMBER_4_3_STROKES"/>

<use xlink:href="#Layer0_0_MEMBER_2_MEMBER_1_MEMBER_4_4_STROKES"/>

<use xlink:href="#Layer0_0_MEMBER_2_MEMBER_1_MEMBER_4_5_STROKES"/>
</g>
</svg>
