<svg xmlns="http://www.w3.org/2000/svg" xml:space="preserve" viewBox="0 0 623 623">
    <path fill="#DFDDFD" d="M296 1c10.688 0 21.375 0 32.832.287 15.36 2.093 30.049 3.334 44.522 5.828 27.499 4.738 53.65 14.014 78.532 26.478 21.098 10.568 40.853 23.356 59.016 38.6 18.651 15.653 35.605 32.864 50.306 52.255 14.398 18.992 26.469 39.354 36.163 61.178 12.897 29.03 21.23 59.231 24.663 90.803.53 4.87 1.305 9.715 1.966 14.571 0 14.354 0 28.708-.285 43.828-2.996 18.076-4.919 35.557-8.599 52.66-5.662 26.316-15.647 51.238-28.889 74.64-7.747 13.692-16.382 26.996-25.774 39.615-11.69 15.709-24.526 30.606-39.824 43.044-11.442 9.303-22.786 18.822-34.925 27.151-20.076 13.777-41.744 24.71-64.676 33.07-23.322 8.503-47.215 14.49-71.945 17.024-4.712.483-9.39 1.303-14.083 1.968-14.354 0-28.708 0-43.83-.286-13.391-1.869-26.154-2.742-38.615-5.17-35.16-6.852-68.201-19.461-99.105-37.743-32.84-19.427-60.895-44.361-84.734-73.914-19.162-23.755-34.326-50.046-45.555-78.518-10.522-26.678-17.586-54.189-20.2-82.799C2.455 340.033 1.66 334.523 1 329c0-10.688 0-21.375.287-32.832.754-6.038 1.247-11.304 1.683-16.575 1.823-22.088 6.669-43.566 13.584-64.554 6.465-19.618 14.917-38.38 25.073-56.412 12.29-21.821 27.042-41.811 44.3-59.861 8.938-9.347 18.627-18.026 28.422-26.491 15.755-13.616 33.145-24.935 51.532-34.686 19.591-10.391 39.887-19.306 61.423-24.607C244.3 8.8 261.685 6.165 278.934 3.05 284.564 2.032 290.309 1.665 296 1M156.56 63.026C57.92 125.781 5.75 236.341 20.83 351.014c8.552 65.045 35.414 121.741 81.956 167.737 77.064 76.16 169.989 103.76 275.754 80.648 157.064-34.32 256.665-192.953 221.68-349.795-31.3-140.32-156.998-237.112-300.252-231.057-51.424 2.173-99.031 16.964-143.407 44.48z"/>
    <path fill="#202123" d="M156.874 62.844c44.062-27.333 91.669-42.124 143.093-44.297 143.254-6.055 268.953 90.737 300.252 231.057C635.204 406.446 535.603 565.08 378.54 599.4c-105.765 23.112-198.69-4.487-275.754-80.648C56.243 472.755 29.38 416.06 20.829 351.014 5.75 236.34 57.92 125.78 156.874 62.844M314.16 232.562c-1.724.092-3.45.185-5.98.015-1.399.086-2.799.172-5.045 0-2.055.085-4.11.17-7.002.01-2.027.074-4.054.148-6.778-.1-2.105-.178-4.21-.355-6.351-1.464-.001-38.49.014-76.98-.015-115.47-.007-10.161-4.488-14.552-14.65-14.553-25.493-.002-50.99-.166-76.478.189-3.592.05-7.992 1.756-10.579 4.212-12.684 12.041-24.992 24.488-37.145 37.07-2.13 2.204-3.762 5.641-4.09 8.675-.64 5.93-.365 11.982-.157 17.973.22 6.313 4.821 10.886 11.09 11.34 2.155.156 4.33.046 6.496.046 11.289.003 22.577.001 34.356.001v6.407c0 62.984-.003 125.968.003 188.953 0 10.442 4.127 14.63 14.425 14.636 20.662.014 41.323.009 61.985.002 10.433-.003 14.727-4.341 14.751-14.936.04-17.161.054-34.323.935-51.669 2.036-.09 4.071-.18 6.973-.116 2.046-.056 4.093-.11 7-.003 2.039-.056 4.077-.111 6.938.007 1.394-.058 2.788-.117 5.025.004 1.716-.06 3.431-.119 5.982.003 1.416-.063 2.832-.125 5.096-.002 2.022-.06 4.043-.12 6.909.008 1.72-.062 3.442-.124 6.08.004 4.998.038 9.997-.002 14.992.132 8.517.23 12.87 4.612 12.893 13.028.045 17.494.047 34.988-.002 52.482-.022 7.803-4.187 12.365-11.968 13.254-1.647.189-3.326.127-4.99.128-46.65.005-93.3-.005-139.951.013-8.426.004-13.008 4.505-13.06 12.85-.064 10.164-.029 20.327-.013 30.49.042 27.508 20.12 47.642 47.562 47.65 55.314.017 110.628.015 165.942.002 27.303-.007 47.625-20.289 47.647-47.67.046-55.98.043-111.96-.002-167.94-.017-20.99-14.356-39.177-34.803-44.244-3.365-.833-6.85-1.696-10.278-1.688-24.97.057-49.942.334-75.735.258-1.726.094-3.452.188-6.003.003-1.726.093-3.453.186-6.003.002-1.725.093-3.45.186-6.002.008z"/>
    <path fill="#FFF" d="M332.99 232.832c24.971-.207 49.942-.484 74.913-.54 3.428-.009 6.913.854 10.278 1.687 20.447 5.067 34.786 23.254 34.803 44.243.045 55.98.048 111.96.002 167.941-.022 27.381-20.344 47.663-47.647 47.67-55.314.013-110.628.015-165.942-.001-27.443-.009-47.52-20.143-47.562-47.651-.016-10.163-.051-20.326.013-30.49.052-8.345 4.634-12.846 13.06-12.85 46.65-.018 93.3-.008 139.95-.013 1.665 0 3.344.06 4.99-.127 7.782-.89 11.947-5.452 11.969-13.255.049-17.494.047-34.988.002-52.482-.022-8.416-4.376-12.798-12.893-13.028-4.995-.134-9.994-.094-15.451-.671-.468-30.504-.476-60.469-.484-90.433z"/>
    <path fill="#FEFEFE" d="M283.074 324.084c-.024 17.161-.038 34.323-.078 51.484-.024 10.595-4.318 14.933-14.751 14.936-20.662.007-41.323.012-61.985-.002-10.298-.006-14.424-4.194-14.425-14.636-.006-62.985-.003-125.969-.003-188.953v-6.407c-11.78 0-23.067.002-34.356 0-2.166-.001-4.34.11-6.496-.047-6.269-.454-10.87-5.027-11.09-11.34-.208-5.991-.483-12.044.158-17.973.327-3.034 1.96-6.47 4.089-8.675 12.153-12.582 24.461-25.029 37.145-37.07 2.587-2.456 6.987-4.162 10.579-4.212 25.489-.355 50.985-.19 76.478-.189 10.162.001 14.643 4.392 14.65 14.552.029 38.49.014 76.981-.024 116.406.01 31.331.06 61.728.11 92.126z"/>
    <path fill="#A6A7A8" d="M283.503 323.992c-.478-30.306-.528-60.703-.52-91.569 2.162-.291 4.267-.114 6.703.706.338 30.595.345 60.547.352 90.499-2.036.09-4.071.181-6.535.364z"/>
    <path fill="#C8C8C8" d="M304.019 323.613c-2.038.056-4.076.111-6.55-.358-.457-30.49-.478-60.456-.498-90.422 2.055-.085 4.11-.17 6.593.353.437 30.549.446 60.488.455 90.427z"/>
    <path fill="#B8B8B9" d="M296.552 232.71c.44 30.089.46 60.055.486 90.464-2.04.498-4.088.553-6.567.531-.44-30.029-.447-59.98-.437-90.414 2.045-.556 4.072-.63 6.518-.581z"/>
    <path fill="#EFEFF0" d="M327.01 323.614c-2.022.059-4.043.118-6.295-.256-.059-2.068.261-3.702.263-5.336.026-28.397.013-56.794.008-85.19 1.726-.094 3.453-.187 5.594.34.42 30.56.425 60.501.43 90.442z"/>
    <path fill="#DCDCDC" d="M308.986 232.84c1.725-.093 3.45-.186 5.591.338.424 30.555.43 60.495.437 90.435-1.716.06-3.431.119-5.57-.355-.435-30.496-.447-60.457-.458-90.419z"/>
    <path fill="#F8F8F8" d="M327.432 323.707c-.427-30.034-.432-59.975-.44-90.395 1.724-.575 3.45-.669 5.587-.622.42 30.106.428 60.071.437 90.48-1.72.506-3.441.568-5.584.537z"/>
    <path fill="#E6E6E6" d="M315.432 323.703c-.425-30.03-.431-59.97-.442-90.39 1.721-.573 3.447-.666 5.584-.62.417 28.535.43 56.932.404 85.33-.002 1.633-.322 3.267-.687 5.242-1.61.404-3.026.466-4.86.438z"/>
    <path fill="#D3D3D4" d="M308.583 232.708c.414 30.093.426 60.054.44 90.46-1.393.502-2.787.56-4.593.532-.42-30.026-.429-59.965-.443-90.385 1.394-.566 2.794-.652 4.596-.607z"/>
  </svg>
  