<svg viewBox="0 0 200 200" fill="none" xmlns="http://www.w3.org/2000/svg">
    <path d="m18 53.056 81.5 47.055L181 53.056 99.5 6 18 53.056Z" fill="#EE2F51"/>
    <path d="m18 53.056 81.5 47.055v94.112L18 147.167V53.056Z" fill="#C32942"/>
    <path d="M181 53.056 99.5 100.11v94.112l81.5-47.056V53.056Z" fill="#7D1729"/>
    <path d="m45.183 131.482 27.164-15.685v31.37l-27.164-15.685Z" fill="#EE2F51"/>
    <path d="m72.337 115.797-27.174-15.686v31.371l27.174-15.685Z" fill="#7D1729"/>
    <path d="m153.817 131.482-27.164-15.685v31.37l27.164-15.685Z" fill="#EE2F51"/>
    <path d="m126.663 115.797 27.174-15.686v31.371l-27.174-15.685Z" fill="#C32942"/>
    <path d="M72.337 53.056 99.5 37.37v31.37L72.337 53.057Z" fill="#7D1729"/>
    <path d="M126.663 53.056 99.5 37.37v31.37l27.163-15.684Z" fill="#C32942"/>
</svg>
