<svg viewBox="0 0 450 450" fill="none" xmlns="http://www.w3.org/2000/svg">
    <g clip-path="url(#a)">
        <circle cx="225" cy="225" r="157.218" transform="rotate(-180 225 225)" fill="url(#b)"/>
        <g filter="url(#c)">
            <circle cx="225" cy="225" r="157.218" transform="rotate(-180 225 225)" stroke="url(#d)" stroke-width="10.481"/>
        </g>
        <circle cx="225" cy="225" r="157.218" transform="rotate(-180 225 225)" stroke="url(#e)" stroke-width="5.241"/>
        <circle opacity=".25" cx="225" cy="225" transform="rotate(-180 225 225)" stroke="#fff" stroke-width="1.789" r="170"/>
        <path d="M172.419 148.273c4.495 0 8.836 1.659 12.209 4.664l4.444 3.961a15.29 15.29 0 0 0 10.174 3.887h52.752a15.29 15.29 0 0 0 10.174-3.887l4.444-3.961a18.353 18.353 0 0 1 12.209-4.664h24.146v14.069H148.274v-14.069h24.145Z" fill="#fff"/>
        <path d="M278.825 302.97a18.348 18.348 0 0 1-12.209-4.664l-4.444-3.961a15.294 15.294 0 0 0-10.174-3.886h-52.752a15.294 15.294 0 0 0-10.174 3.886l-4.444 3.961a18.348 18.348 0 0 1-12.209 4.664h-24.145v-14.068h154.697v14.068h-24.146Z" fill="#fff"/>
        <path d="M266.616 168.562a18.348 18.348 0 0 1 12.209-4.664h24.146v14.068H148.274v-14.068h24.145c4.495 0 8.836 1.658 12.209 4.664l4.444 3.96a15.29 15.29 0 0 0 10.174 3.887h52.752a15.29 15.29 0 0 0 10.174-3.887l4.444-3.96Z" fill="#fff"/>
        <path d="M278.825 287.346a18.348 18.348 0 0 1-12.209-4.664l-4.444-3.961a15.29 15.29 0 0 0-10.174-3.887h-52.752a15.29 15.29 0 0 0-10.174 3.887l-4.444 3.961a18.348 18.348 0 0 1-12.209 4.664h-24.145v-14.069h154.697v14.069h-24.146Z" fill="#fff"/>
        <path d="M286.576 184.189a18.348 18.348 0 0 1 12.209-4.664h4.186v14.068h-31.252v-1.557h.239a15.29 15.29 0 0 0 10.174-3.887l4.444-3.96Z" fill="#fff"/>
        <path d="M271.719 207.66h.239c3.746 0 7.363-1.382 10.174-3.886l4.444-3.961a18.348 18.348 0 0 1 12.209-4.664h4.186v14.068h-31.252v-1.557Z" fill="#fff"/>
        <path d="M179.525 192.036v1.557h-31.251v-14.068h4.186c4.494 0 8.835 1.658 12.208 4.664l4.444 3.96a15.29 15.29 0 0 0 10.174 3.887h.239Z" fill="#fff"/>
        <path d="M179.525 207.66v1.557h-31.251v-14.068h4.186c4.494 0 8.835 1.658 12.208 4.664l4.444 3.961a15.294 15.294 0 0 0 10.174 3.886h.239Z" fill="#fff"/>
        <path d="M179.286 223.287h.239v1.557h-31.251v-14.068h4.186c4.494 0 8.835 1.658 12.208 4.664l4.444 3.961a15.294 15.294 0 0 0 10.174 3.886Z" fill="#fff"/>
        <path d="M271.719 224.844h31.252v-14.068h-4.186a18.348 18.348 0 0 0-12.209 4.664l-4.444 3.96a15.29 15.29 0 0 1-10.174 3.887h-.239v1.557Z" fill="#fff"/>
        <path d="M271.958 238.911h-.239v1.557h31.252v-14.069h-4.186a18.353 18.353 0 0 0-12.209 4.664l-4.444 3.961a15.29 15.29 0 0 1-10.174 3.887Z" fill="#fff"/>
        <path d="M179.525 238.911h-.239a15.29 15.29 0 0 1-10.174-3.887l-4.444-3.961a18.352 18.352 0 0 0-12.208-4.664h-4.186v14.069h31.251v-1.557Z" fill="#fff"/>
        <path d="M179.286 254.538h.239v1.557h-31.251v-14.069h4.186c4.494 0 8.835 1.659 12.208 4.664l4.444 3.961a15.29 15.29 0 0 0 10.174 3.887Z" fill="#fff"/>
        <path d="M271.719 256.095h31.252v-14.069h-4.186a18.353 18.353 0 0 0-12.209 4.664l-4.444 3.961a15.29 15.29 0 0 1-10.174 3.887h-.239v1.557Z" fill="#fff"/>
        <path d="M271.958 270.162h-.253v1.557h31.266v-14.068h-4.186a18.348 18.348 0 0 0-12.209 4.664l-4.444 3.96a15.29 15.29 0 0 1-10.174 3.887Z" fill="#fff"/>
        <path d="M179.539 271.719v-1.557h-.253a15.29 15.29 0 0 1-10.174-3.887l-4.444-3.96a18.347 18.347 0 0 0-12.208-4.664h-4.186v14.068h31.265Z" fill="#fff"/>
        <path d="M251.376 191.762a8.115 8.115 0 0 1 8.115 8.115v51.51a8.115 8.115 0 0 1-8.115 8.114h-51.51a8.114 8.114 0 0 1-8.114-8.114v-51.51a8.115 8.115 0 0 1 8.114-8.115h51.51Z" fill="#fff"/>
    </g>
    <defs>
        <linearGradient id="b" x1="324.699" y1="102.293" x2="129.135" y2="345.15" gradientUnits="userSpaceOnUse">
            <stop stop-color="#090909"/>
            <stop offset=".158" stop-color="#222"/>
            <stop offset=".32" stop-color="#414141"/>
            <stop offset=".488" stop-color="#2A2A2A"/>
            <stop offset=".67" stop-color="#292929"/>
            <stop offset=".841" stop-color="#343434"/>
            <stop offset="1" stop-color="#515050"/>
        </linearGradient>
        <linearGradient id="d" x1="47.613" y1="382.218" x2="366.306" y2="67.759" gradientUnits="userSpaceOnUse">
            <stop stop-color="#C74800"/>
            <stop offset=".25" stop-color="#F9ED00"/>
            <stop offset=".5" stop-color="#CB00CB"/>
            <stop offset=".75" stop-color="#2F3EC6"/>
            <stop offset="1" stop-color="#25E893"/>
        </linearGradient>
        <linearGradient id="e" x1="47.613" y1="382.218" x2="366.306" y2="67.759" gradientUnits="userSpaceOnUse">
            <stop stop-color="#C74800"/>
            <stop offset=".25" stop-color="#F9ED00"/>
            <stop offset=".5" stop-color="#CB00CB"/>
            <stop offset=".75" stop-color="#2F3EC6"/>
            <stop offset="1" stop-color="#25E893"/>
        </linearGradient>
        <clipPath id="a">
            <path fill="#fff" d="M0 0h450v450H0z"/>
        </clipPath>
        <filter id="c" x=".702" y=".702" width="448.595" height="448.595" filterUnits="userSpaceOnUse" color-interpolation-filters="sRGB">
            <feFlood flood-opacity="0" result="BackgroundImageFix"/>
            <feBlend in="SourceGraphic" in2="BackgroundImageFix" result="shape"/>
            <feGaussianBlur stdDeviation="30.919" result="effect1_foregroundBlur_3666_3690"/>
        </filter>
    </defs>
</svg>
