<svg viewBox="0 0 256 256" xmlns="http://www.w3.org/2000/svg">
    <defs>
        <linearGradient x1="50%" y1="0%" x2="50%" y2="100%" id="a">
            <stop stop-color="#8959DF" offset="0%"/>
            <stop stop-color="#512DBC" offset="100%"/>
        </linearGradient>
        <linearGradient x1="50%" y1="0%" x2="50%" y2="100%" id="b">
            <stop stop-color="#8959DF" offset="0%"/>
            <stop stop-color="#512DBC" offset="100%"/>
        </linearGradient>
        <linearGradient x1="50%" y1="0%" x2="50%" y2="100%" id="c">
            <stop stop-color="#8959DF" offset="0%"/>
            <stop stop-color="#512DBC" offset="100%"/>
        </linearGradient>
        <linearGradient x1="100%" y1="50%" x2="0%" y2="50%" id="d">
            <stop stop-color="#8959DF" offset="0%"/>
            <stop stop-color="#512DBC" offset="100%"/>
        </linearGradient>
        <linearGradient x1="50%" y1="0%" x2="50%" y2="100%" id="e">
            <stop stop-color="#8959DF" offset="0%"/>
            <stop stop-color="#512DBC" offset="100%"/>
        </linearGradient>
        <linearGradient x1="50%" y1="0%" x2="50%" y2="100%" id="f">
            <stop stop-color="#8959DF" offset="0%"/>
            <stop stop-color="#512DBC" offset="100%"/>
        </linearGradient>
        <linearGradient x1="50%" y1="0%" x2="50%" y2="100%" id="g">
            <stop stop-color="#8959DF" offset="0%"/>
            <stop stop-color="#512DBC" offset="100%"/>
        </linearGradient>
        <linearGradient x1="50%" y1="0%" x2="50%" y2="100%" id="h">
            <stop stop-color="#8959DF" offset="0%"/>
            <stop stop-color="#512DBC" offset="100%"/>
        </linearGradient>
        <linearGradient x1="50%" y1="0%" x2="50%" y2="100%" id="i">
            <stop stop-color="#8959DF" offset="0%"/>
            <stop stop-color="#512DBC" offset="100%"/>
        </linearGradient>
        <linearGradient x1="50%" y1="0%" x2="50%" y2="100%" id="j">
            <stop stop-color="#8959DF" offset="0%"/>
            <stop stop-color="#512DBC" offset="100%"/>
        </linearGradient>
    </defs>
    <g fill-rule="nonzero" fill="none">
        <path fill="url(#a)" d="m41.552 0 20.49 24.745L0 49.49z" transform="translate(0 28)"/>
        <path fill="url(#b)" d="m128.22 124.689 63.136-75.199h32.203l-95.503 114.298z" transform="translate(0 28)"/>
        <path fill="url(#c)" d="M191.356 49.49H0l62.043-24.745h141.472l20.044 24.745z" transform="translate(0 28)"/>
        <path fill="url(#d)" d="m191.356 49.49 12.159-24.745 20.044 24.745z" transform="translate(0 28)"/>
        <path fill="url(#e)" d="M203.515 24.745H62.043L41.553 0h173.286z" transform="translate(0 28)"/>
        <path fill="url(#f)" d="m223.559 49.49-20.044-24.745L214.839 0 256 49.49z" transform="translate(0 28)"/>
        <path fill="url(#g)" d="M128.056 163.788 223.559 49.49H256l-95.459 113.695-32.263 38.566z" transform="translate(0 28)"/>
        <path fill="url(#h)" d="m90.455 119.012 37.73 44.776.221 37.963L42.12 98.981z" transform="translate(0 28)"/>
        <path fill="url(#i)" d="M90.455 119.012 42.119 98.98h64.644z" transform="translate(0 28)"/>
        <path fill="url(#j)" d="m106.763 98.98-16.308 20.032 37.73 44.776.163-39.1z" transform="translate(0 28)"/>
    </g>
</svg>
