<svg viewBox="0 0 256 256" xmlns="http://www.w3.org/2000/svg">
    <g fill="none" fill-rule="evenodd">
        <circle fill="#512DBC" fill-rule="nonzero" cx="128" cy="128" r="128"/>
        <path d="M196.834 81.152c4.449 0 8.055 3.608 8.055 8.06a8.058 8.058 0 0 1-7.776 8.056l-9.842 14.772-.108.16a12.08 12.08 0 0 1-9.945 5.224h-11.93a40.018 40.018 0 0 1 2.546 8.06H193.2l.13-.001a4.027 4.027 0 0 0 3.221-1.793l9.477-14.224a8.027 8.027 0 0 1-1.138-4.133c0-4.451 3.607-8.06 8.056-8.06 4.448 0 8.055 3.609 8.055 8.06a8.058 8.058 0 0 1-7.907 8.06l-9.84 14.768-.108.16a12.08 12.08 0 0 1-9.946 5.224H168.64c0 2.761-.277 5.457-.806 8.062H193.2a12.08 12.08 0 0 1 9.946 5.224l.108.16 9.84 14.768a8.058 8.058 0 0 1 7.907 8.06c0 4.45-3.607 8.06-8.055 8.06-4.45 0-8.056-3.61-8.056-8.06 0-1.511.416-2.925 1.138-4.133l-9.477-14.225a4.027 4.027 0 0 0-3.22-1.792l-.13-.002h-27.912a40.273 40.273 0 0 1-4.701 8.061h16.501a12.08 12.08 0 0 1 9.946 5.224l.108.16 9.84 14.768a8.058 8.058 0 0 1 7.907 8.06c0 4.451-3.606 8.06-8.055 8.06s-8.056-3.609-8.056-8.06c0-1.511.416-2.925 1.138-4.133l-9.476-14.224a4.027 4.027 0 0 0-3.222-1.793l-.13-.002h-24.556a40.082 40.082 0 0 1-24.169 8.06 40.082 40.082 0 0 1-24.169-8.06H79.912l-.13.002a4.027 4.027 0 0 0-3.222 1.793l-9.476 14.224a8.027 8.027 0 0 1 1.138 4.132c0 4.452-3.607 8.061-8.056 8.061-4.449 0-8.055-3.609-8.055-8.06a8.058 8.058 0 0 1 7.908-8.06l9.839-14.769.108-.159a12.08 12.08 0 0 1 9.946-5.225l16.227.001a40.273 40.273 0 0 1-4.701-8.06l-27.637-.001-.13.002a4.027 4.027 0 0 0-3.221 1.792l-9.477 14.225a8.027 8.027 0 0 1 1.138 4.132c0 4.452-3.607 8.06-8.056 8.06-4.448 0-8.055-3.608-8.055-8.06a8.058 8.058 0 0 1 7.908-8.06l9.84-14.768.107-.159a12.08 12.08 0 0 1 9.946-5.225h25.091a40.513 40.513 0 0 1-.806-8.06H63.801a12.08 12.08 0 0 1-9.946-5.225l-.108-.16-9.84-14.768a8.058 8.058 0 0 1-7.907-8.06c0-4.451 3.607-8.06 8.055-8.06 4.45 0 8.056 3.609 8.056 8.06 0 1.51-.415 2.924-1.138 4.133l9.477 14.224a4.027 4.027 0 0 0 3.22 1.793l.13.002h25.092a40.018 40.018 0 0 1 2.546-8.061H79.782a12.08 12.08 0 0 1-9.945-5.225l-.108-.159-9.842-14.772a8.058 8.058 0 0 1-7.776-8.056c0-4.452 3.606-8.06 8.055-8.06s8.056 3.608 8.056 8.06a8.027 8.027 0 0 1-1.2 4.234l9.41 14.123a4.027 4.027 0 0 0 3.22 1.793l.13.002 16.357-.001c7.348-9.789 19.047-16.12 32.224-16.12 13.177 0 24.876 6.331 32.224 16.12h16.63l.13-.001a4.027 4.027 0 0 0 3.222-1.793l9.409-14.123a8.027 8.027 0 0 1-1.2-4.234c0-4.452 3.607-8.06 8.056-8.06Zm-68.47 20.151c-17.796 0-32.222 14.435-32.222 32.242 0 17.807 14.426 32.243 32.221 32.243 17.796 0 32.222-14.436 32.222-32.243 0-17.807-14.426-32.242-32.222-32.242Zm0 8.06c13.346 0 24.165 10.827 24.165 24.182 0 13.356-10.82 24.182-24.166 24.182s-24.166-10.826-24.166-24.182c0-13.355 10.82-24.181 24.166-24.181ZM156.556 61l.266.002c8.775.143 15.845 7.305 15.845 16.12 0 8.903-7.213 16.12-16.111 16.12s-16.11-7.217-16.11-16.12c0-4.453 1.802-8.483 4.718-11.4l11.392 11.4V61Zm-56.388 0v16.121l8.938-13.415c4.325 2.891 7.173 7.82 7.173 13.415 0 8.904-7.213 16.121-16.11 16.121-8.898 0-16.111-7.217-16.111-16.12 0-8.904 7.213-16.122 16.11-16.122Z" fill="#FFF"/>
    </g>
</svg>
