<svg xmlns="http://www.w3.org/2000/svg" viewBox="0 0 761.74 618.74"><defs><style>.cls-1{fill:#ff007a;}.cls-2{fill:#bf0064;}.cls-3{fill:#ffc200;}.cls-4{fill:#cc6f00;}.cls-5{fill:#fff;}.cls-6{fill:#fe018b;}</style></defs><g id="Capa_2" data-name="Capa 2"><path d="M211.19,621.13C222.42,637,318.52,768.31,474.33,768.4c109.34.06,185-64.55,225.63-99.3,34.17-29.2,110.25-94.21,130.55-205.32,5.1-28,18.77-102.8-21.37-178C758,189.82,648.93,148.93,561.1,149.67c-13.07.11-139.92,3.11-212.84,98.11a223.43,223.43,0,0,0-28.48,49.06l-45.1-56.44c-29.09-27.87-68.52-34.7-94.15-19.72C169.68,227,154.84,241,148.68,260a99.42,99.42,0,0,0-3.76,19,130.68,130.68,0,0,0,.6,33.43c4.07,31.55,18.53,65.72,21.75,73.19l.47,1.38h-1.45c-6.74,1.75-24.12,7.24-36.4,23.74-8.43,11.33-10.54,22.57-12.07,31.25-3.9,22.2,1.42,40.36,6.33,56.57a198.93,198.93,0,0,0,12.07,30.07c7.34,15.37,21.67,44.67,50.64,72.39a214.62,214.62,0,0,0,23.77,19.69Z" transform="translate(-116.48 -149.66)"/></g><g id="Capa_26" data-name="Capa 26"><path class="cls-1" d="M796.09,470.11c-14.92,56.92-46.57,91.56-84.54,131.28l5,.85A336.62,336.62,0,0,1,583.12,710.82a222.18,222.18,0,0,1-76.61,24.08c-116.22,14.45-205.32-64.19-223.13-80.57l1.78.53c2.74.71,7.09,1.76,12.47,2.77,16.48,3.07,63.36,11.81,107.6-12.47,0,0,23.68-13,41.08-36.79,1.29-1.77,4.2-8.08,10-20.7,1-2.18,2.61-5.8,1.25-9.16-.51-1.26-.75-.81-4.15-4.75a38.72,38.72,0,0,0-6.86-6.53,3,3,0,0,0-2.11-.66,3.42,3.42,0,0,0-2.24,1.85A86.6,86.6,0,0,1,434,584.31c-13.57,20.57-32.5,29.61-42.73,34.55-24.66,11.9-46.62,12-59.6,11.87-31.11-.25-53.92-9.89-65.14-14.77-45.36-19.72-70.14-52.43-79.92-65.67-14-18.95-20.56-34.61-28.81-54.27a108.89,108.89,0,0,1-9.1-37.78c-.65-13.81,2-20.88,5.34-25.91.91-1.35,4.71-6.89,10.68-9.89,11.7-5.88,29.08-.67,42.93,13.05,6.93,6.49,16.8,15.61,28.88,26.31,16,14.19,24,21.28,30.65,26.38,15.31,11.7,29.46,20.22,57.42,37,3.9,2.35,7.11,4.26,9.19,5.49a8.34,8.34,0,0,0-.28-1.52,9.88,9.88,0,0,0-3-4.75l-25-20.31L302,501.36a148.18,148.18,0,0,0,25.18,3.43,45.74,45.74,0,0,0,15.7-1.58,42,42,0,0,0,4.09-1.45,159.68,159.68,0,0,1-42.2-11.34c-5.1-2.16-28.72-12.48-52.49-35.87-13.17-13-20.57-24.23-32.37-42.2-8.71-13.26-16.84-25.79-24.13-44.11-3.46-8.7-5.8-16.87-10.49-33.23-3.82-13.36-6-22.58-7.51-33.23a84.39,84.39,0,0,1-.4-25.12c.73-5,1.41-9.4,4.16-14.24a38.26,38.26,0,0,1,15.23-13.65c13.78-6.9,35.74-2.05,55.38,13,5.65,6.38,13.34,15.17,22.29,25.78,14,16.57,38.81,46.82,67.51,86.77,18.73,26.08,38.95,56.08,59.61,89.94l4.75,6.85c-19.77-64.89-32.22-89-40.09-98.63,0,0-9.29-11.36-21.3-36.93a26.44,26.44,0,0,1-1.78-5.44,22,22,0,0,1-.39-4.84c7.23-16.17,43.51-92.63,132.92-128.18,90-35.8,169.16-4.35,189.1,4,21.87,9.11,69.15,29.53,103.65,79.91C820.63,357.3,803.13,443.24,796.09,470.11Z" transform="translate(-116.48 -149.66)"/></g><g id="Capa_25" data-name="Capa 25"><path class="cls-2" d="M418.09,222.07l-57.17,52.41L336.4,327.3l21.75,35a148.65,148.65,0,0,1,4.55-61.72A194.11,194.11,0,0,1,376,277.85c2.66-3.94,5.35-7.59,8-11l32.34-31.55Z" transform="translate(-116.48 -149.66)"/><path class="cls-2" d="M708.26,571.09l-1.48,20.57a14.69,14.69,0,0,0-10.65,4.78c-.86,1.46-2.13,3.56-3.69,6.07a286.22,286.22,0,0,1-25.06,35.07,266.12,266.12,0,0,1-29,28.75c-41,34.35-90,47.76-94.94,49-55.94,14.74-101.45,5.38-121.32,1.06a277,277,0,0,1-93-39.17,271.49,271.49,0,0,1-27.29-20.57l8-7.38,98.9-19.39,33.73-40.64,4-22.06a15.48,15.48,0,0,0-3.66-1.93,14,14,0,0,0-1.63-.49L438.86,568a124.28,124.28,0,0,1-24.93,25.12,130.49,130.49,0,0,1-49.84,22.55c-23.8,5.25-42.65,2.51-55.39.53a182.23,182.23,0,0,1-59.6-20.84c-9.85-5.48-17.25-11-31.65-21.89-18.91-14.26-33.74-26.93-43.78-35.86L141.49,491,146,454.81a208.76,208.76,0,0,0,28,53.54A205.63,205.63,0,0,0,232.48,563c12.37,7.51,50.81,30.19,102.6,28.48a170.46,170.46,0,0,0,57.36-12c19.41-7.81,30.66-16.76,33.63-19.19a115.5,115.5,0,0,0,16.36-16.39l-3-9.92-2.24-4.84L415,488.84l219.43-15.57-3.89,29.58a139.81,139.81,0,0,1-16.82,24.62,137,137,0,0,1-42.13,33.43c-22.55,11.21-42.2,12.63-55.38,13.45-20.16,1.26-36.94,2.3-53.21-8.11l-.46-.3c-2.09,15.37-8.46,46-28.82,67.06a155.13,155.13,0,0,1-25.12,20.37A161.21,161.21,0,0,1,380.7,668,213.48,213.48,0,0,0,487,694a206.5,206.5,0,0,0,92-24.79s34.76-18.4,58.55-45.89a188.89,188.89,0,0,0,21-30.2c.83-1.52,2.42-4.46,4.25-8.5a120.28,120.28,0,0,0,6.82-19.39Z" transform="translate(-116.48 -149.66)"/><ellipse class="cls-2" cx="302.31" cy="226.69" rx="49.55" ry="71.6"/></g><g id="Capa_13" data-name="Capa 13"><path class="cls-3" d="M848.7,409.32l-43.64,21.4a202.14,202.14,0,0,1-5.15,26.8c-7.47,28.31-15,48-21.23,57.49-1.52,2.34-7.22,2.2-7.91,3.17a184.57,184.57,0,0,1-43.91,43.71c-6.05,1.32-30,5.84-52.62-8.31a69,69,0,0,1-22-22.84c-13.28-22.23-10.07-44.95-8.81-51.93,16.36-56.93,10-87.74,5.15-101.86-2.22-6.5-5.22-12.66-9.3-22.55-5.56-13.52-18.17-38.95-21.46-46.09-.11-.23.14-4.61.06-4.79l-.36-.75a13.94,13.94,0,0,1-.85-2.11,16.44,16.44,0,0,1-.53-2.24,2,2,0,0,1,0-.22,18.64,18.64,0,0,0,1.85-8.88c0-.48-.07-.95-.11-1.42.18-.51.38-1,.55-1.52a10,10,0,0,0,.31-1c.69-1.52,1.84-3.57,1.91-3.75a41.38,41.38,0,0,0,2.45-7.71c.22-1,.41-2,.65-3,.32-1.31,1.66-4.32-.24-.24a28.52,28.52,0,0,0,1.78-5.43c10.64-15.3,27.48-23.71,28.46-24.19,37.48-18.18,79,4.39,83.87,7.13a205.85,205.85,0,0,1,15,15c9.89,11,40.71,46.05,50.9,101.93a215.93,215.93,0,0,1,3.27,40.69l38.53-8.25Z" transform="translate(-116.48 -149.66)"/></g><g id="Capa_28" data-name="Capa 28"><path class="cls-3" d="M646.55,404.44a181.53,181.53,0,0,0-10-58c-4.81-13.53-12.42-34.27-31.65-54.33A143.38,143.38,0,0,0,502,249.63,133.11,133.11,0,0,0,433.45,271a128.47,128.47,0,0,0-25.58,21.63S382,321.51,376.22,366.46a2.7,2.7,0,0,1,0,.28,23.69,23.69,0,0,1,1.1,6.15,18.32,18.32,0,0,1-.87,6.41,23.64,23.64,0,0,1,.43,3.48,18.5,18.5,0,0,1-1.08,7,100.15,100.15,0,0,0,3.36,17.29c7.52,26.92,21.5,53.41,27.17,63.82,6.45,11.86,6.86,11.49,15.56,27.43,7.29,13.37,12.94,24.51,16.61,31.91a172,172,0,0,0,34.81,16.88,141,141,0,0,0,20.58,5.8c26.34,5,48.61-1.56,57.23-4.22a134.85,134.85,0,0,0,54.85-33.49,137.54,137.54,0,0,0,22.42-29.8C646.7,452.6,646.73,421,646.55,404.44Z" transform="translate(-116.48 -149.66)"/></g><g id="Capa_18" data-name="Capa 18"><path class="cls-4" d="M840.31,398.64l-.44,8.57c-4.55,1.44-10.83,3.53-18.2,6.33-31,11.78-52.58,25.29-66.59,34.15-24.69,15.62-41.83,29.86-54.2,40.22-14.27,11.95-25.83,22.79-34.4,31.21a7.09,7.09,0,0,1-2.82,1.23,6,6,0,0,1-3.51-.25,5.89,5.89,0,0,1-2.92-2.62,64.49,64.49,0,0,1-5.64-14.73c-3.23-13.16-1.42-24.06-.36-30.2a79.22,79.22,0,0,1,4.15-15.1,75.83,75.83,0,0,1,9.89-17.74l2.84-2.37a34.15,34.15,0,0,0-5.21,3.1,37.53,37.53,0,0,0-5.93,5.47,55.08,55.08,0,0,0-8.57,13.32l0-.05c-1.36,6.17-3,12.7-5,19.63-1.26,7-4.47,29.7,8.81,51.93a69,69,0,0,0,22,22.84c22.6,14.15,46.57,9.63,52.62,8.31a184.57,184.57,0,0,0,43.91-43.71c.69-1,6.39-.83,7.91-3.17,6.18-9.52,13.76-29.18,21.23-57.49a202.14,202.14,0,0,0,5.15-26.8l43.64-21.4-3.43-11.74Z" transform="translate(-116.48 -149.66)"/><path class="cls-4" d="M402.26,463.88c2,5.58,3.47,10.13,4.36,12.86L437,527.18A116.34,116.34,0,0,0,476.44,549,121.64,121.64,0,0,0,502,554a132.14,132.14,0,0,0,37.19-1.06c30.83-5.54,51.89-22.44,60.46-30.19,16-14.53,24-29.39,29.28-39.37,16.81-32,18.09-60.66,18.79-76.28.87-19.51-1.79-31.84-3.7-38.77a112.32,112.32,0,0,0-4.74-13.72l.92,29.41a146.49,146.49,0,0,1-7.52,36.4c-3.62,10.52-11.62,33-32.44,53.27-28,27.37-61,33.05-71.21,34.42a125.76,125.76,0,0,1-65.67-8.71c-35.05-15.36-51.74-43.23-59.73-56.57a152.47,152.47,0,0,1-20.18-57,150.44,150.44,0,0,1,.93-47l-1.72-.39a113.73,113.73,0,0,0-5.8,21.89,114.94,114.94,0,0,0-.4,33.36C379.59,416.37,387.81,423,402.26,463.88Z" transform="translate(-116.48 -149.66)"/></g><g id="Capa_6" data-name="Capa 6"><path d="M679.71,372.92c-.35-2.29-.9-9.06-1.78-25-.26-7.81,0-17.44,2-25.25a25.56,25.56,0,0,1,1.06-3.3c2.78-6.94,8.08-10.94,10.41-12.65A35.38,35.38,0,0,1,695.7,304c2.45-3.22,3.25-7.12,1.78-10.09a9.25,9.25,0,0,0-4.45-4,13.78,13.78,0,0,0-8.5-1.19A39.61,39.61,0,0,0,673,296.69a40,40,0,0,0-5.44,6.72,58.36,58.36,0,0,0-8.25,19.86,71.19,71.19,0,0,0-1.58,15.57A209,209,0,0,0,661.32,378c.44,1.26,2.21,5.89,6.79,7.85a8.14,8.14,0,0,0,4.88.72c3.92-.78,5.74-4.78,6.06-5.54a14,14,0,0,0,.86-6A14.76,14.76,0,0,0,679.71,372.92Z" transform="translate(-116.48 -149.66)"/><path d="M780.66,372.66c-.56-3.54-2.48-17.74-5.14-37.32a95.61,95.61,0,0,0-10.68-26.57,62.8,62.8,0,0,0-13.13-15.3,18.27,18.27,0,0,0-9.18-4.6c-1.64-.24-5.61-.82-8.55,1.73a8.1,8.1,0,0,0-2.52,4.26,8.59,8.59,0,0,0,1.13,6.33,20.69,20.69,0,0,0,4.55,4.94c.56.43.93.66,2,1.45.63.49,2.23,1.75,3.79,3.23a42.92,42.92,0,0,1,4.45,5.15c4.23,5.79,6.71,13.44,7.42,15.69a107.51,107.51,0,0,1,3.66,16.42c1.11,7,2.41,16.26,3.51,27.44a10.07,10.07,0,0,0,3.63,6.87,9,9,0,0,0,6.36,2,9.27,9.27,0,0,0,5.65-3,10.58,10.58,0,0,0,3.1-5.64A9.28,9.28,0,0,0,780.66,372.66Z" transform="translate(-116.48 -149.66)"/></g><g id="Capa_8" data-name="Capa 8"><rect x="406.4" y="370.61" width="215.31" height="44.31" rx="22.15" transform="translate(-202.17 485.63) rotate(-59.4)"/><rect x="405.87" y="369.3" width="215.31" height="44.31" rx="22.15" transform="translate(266.77 -390.64) rotate(41.04)"/></g><g id="Capa_12" data-name="Capa 12"><path class="cls-5" d="M718.51,433.61c-.28,2.13-.33,4.94,1.26,6.11,7.71,5.64,32.37-6.61,45.46-12.69,20.27-9.42,50.55-19.45,93.84-21.43l-44-5.78L755,416.18Z" transform="translate(-116.48 -149.66)"/></g><g id="Capa_17" data-name="Capa 17"><path d="M637.05,349.25a128,128,0,0,1,13.06,32.05c.27,1.06.93,3.66,1.58,6.92,3.79,18.94,2.36,34.78,1.39,44.7a190.58,190.58,0,0,1-7.32,36.4c-.77,2.54-1.47,4.65-2,6.13-2.13,10.73-3.32,26.26,2.24,42.66a68.32,68.32,0,0,0,6.33,13.71,65.59,65.59,0,0,0,25.06,23.48,64.12,64.12,0,0,0,32.7,7.12V576a91.09,91.09,0,0,1-15.43-.26A80.7,80.7,0,0,1,679.91,573a65.89,65.89,0,0,1-24.26-13.85,82.82,82.82,0,0,1-21.89-31.25c-2.45-6.07-9.19-23.51-5.41-44.11,2.3-12.49,6.8-17.05,12-40.85,1.38-6.33,2.19-11.22,2.47-13,1.78-11,4.08-25.13,3-41.61A130.78,130.78,0,0,0,637.55,351Z" transform="translate(-116.48 -149.66)"/></g><g id="Capa_10" data-name="Capa 10"><path d="M877.85,403.78a15.93,15.93,0,0,1-2.05,3.56,14.05,14.05,0,0,1-1.38,1.58Q840.76,432.73,806,459.43q-21.83,16.79-42.4,33.49,2.94,3.09,5.9,6.17,10.82,11.24,21.6,22.18A67.9,67.9,0,0,1,803.8,558c.08,2.17.14,4.32.22,6.49a49.35,49.35,0,0,1,.51,7.13v110.5a50.11,50.11,0,0,1-100.22,0V571.65c0-.88,0-1.75.07-2.61l-.76-22.28a47,47,0,0,0-4.36-17.41,45.74,45.74,0,0,0-6.09-9.53,2.81,2.81,0,0,1-.52-1.56,2.73,2.73,0,0,1,.36-1.44q10.69-11.1,22.77-22.28c30.26-27.92,58.28-46.49,89.21-67,7.24-4.79,18.07-11.85,31.52-20.17a215.8,215.8,0,0,0-25.72.66,239.37,239.37,0,0,0-53.6,11.4c-11.26,3.72-48.91,22.27-49.52,22.35a16.56,16.56,0,0,1-4.81-.06,4.87,4.87,0,0,1-2.09-2.61,5.44,5.44,0,0,1,.25-3.31,18.75,18.75,0,0,1,2.45-5.19,51.65,51.65,0,0,1,5.39-7.07,102.37,102.37,0,0,1,24.19-17.95,228.7,228.7,0,0,1,44.71-16.49c16.68-4.25,35.43-8.86,59.87-6.85,5.9.48,10.77,1.24,14.11,1.84a73.26,73.26,0,0,1,23.8,10.49,9.6,9.6,0,0,1,2.57,5.14A9.4,9.4,0,0,1,877.85,403.78Z" transform="translate(-116.48 -149.66)"/></g><g id="Capa_14" data-name="Capa 14"><path class="cls-6" d="M778.09,571.09v108.2a24.43,24.43,0,0,1-48.86,0V571.09c0-.22,0-.44,0-.66l0-.7.26-10a62.75,62.75,0,0,0-.6-7.81,63.78,63.78,0,0,0-4-15.13c-4.56-10.83-12.39-18.1-16.32-21.36l21.46-19a59.46,59.46,0,0,1,22.16,10.48,62.71,62.71,0,0,1,14,15.23,67.39,67.39,0,0,1,11.7,38.64l.06,8.11A20.19,20.19,0,0,1,778.09,571.09Z" transform="translate(-116.48 -149.66)"/></g><g id="Capa_31" data-name="Capa 31"><path class="cls-2" d="M752.18,506.9A59.46,59.46,0,0,0,730,496.42l-21.38,18.92a115.27,115.27,0,0,1,50.87-1.77A59,59,0,0,0,752.18,506.9Z" transform="translate(-116.48 -149.66)"/></g><g id="Capa_15" data-name="Capa 15"><circle class="cls-5" cx="623.83" cy="406.16" r="5.27"/><circle class="cls-5" cx="637.58" cy="526.76" r="14.64"/><circle class="cls-5" cx="626.75" cy="505.74" r="4.1"/><path class="cls-5" d="M773.54,563.21v15.95a8.71,8.71,0,1,1-17.41,0V562.63c0-.63-.06-1.52-.12-2.59-.12-1.93-.47-5.6-1.25-11a56.53,56.53,0,0,0-1.39-7.45c-1.81-6.28-4.5-9.5-4.68-9.69a1.31,1.31,0,0,1-.21-.28,1.78,1.78,0,0,1-.22-.69,9.83,9.83,0,0,1,0-1.67,6.2,6.2,0,0,1,1.22-2.44,6.33,6.33,0,0,1,3.1-2,8.18,8.18,0,0,1,4.95.26,17,17,0,0,1,8.17,6.06c2,2.7,2.76,5.43,4.29,10.88.88,3.16,1.34,5.58,1.75,7.73.56,3,1.24,7.13,1.7,12.08a0,0,0,0,1,0,0A8.33,8.33,0,0,1,773.54,563.21Z" transform="translate(-116.48 -149.66)"/></g><g id="Capa_29" data-name="Capa 29"><path class="cls-5" d="M639.82,366.13c-.14-2.56-.43-7.57-1.05-11.93-.54-3.78-2.27-13.62-10.95-29.8-5-9.31-12.18-22.73-26.5-36.66a135.22,135.22,0,0,0-41.61-27.3,137.54,137.54,0,0,0-54.19-10.68,136.13,136.13,0,0,0-56.25,12.53A130.64,130.64,0,0,0,404.18,297a126.26,126.26,0,0,0-24.47,47.63A124,124,0,0,0,376,366.85c0,.32,0,.64,0,.95.45-2,1.11-4.71,2-8,1.76-6.48,6.28-22,12.93-35.31a137.24,137.24,0,0,1,31-40.16A128.1,128.1,0,0,1,476,256.48a134.3,134.3,0,0,1,51.63-1,137,137,0,0,1,52,20.51,134.91,134.91,0,0,1,34.91,33.2A127.82,127.82,0,0,1,633,345.1a149.61,149.61,0,0,1,5.08,23.08,169.5,169.5,0,0,1,1.78,20.11A201.78,201.78,0,0,0,639.82,366.13Z" transform="translate(-116.48 -149.66)"/><circle class="cls-5" cx="516.48" cy="143.27" r="2.72"/></g><g id="Capa_23" data-name="Capa 23"><path class="cls-5" d="M234.53,250.25c-5-.71-8.84-.6-11.67,1.78a10.17,10.17,0,0,0-3,4.55c-2.36,6.55,1,13.28,2.57,16.42,4.61,9.21,12.45,13.91,17.11,16.71,8.6,5.18,11.65,4.15,19.29,9,4.9,3.09,7.7,6.17,14.5,13.85,6.2,7,13.68,15.6,22.09,25.65,6.54,7.54,16.75,19.34,29.28,33.92,10.79,12.57,16.81,19.56,20.67,24.13a821.07,821.07,0,0,1,57.06,76.45c17.59,26.85,25.72,41.05,31.25,52.29,3.9,7.9,6.85,14.59,8.81,19.22a30,30,0,0,0-.6-5.34,34.71,34.71,0,0,0-1.48-5.05c-6.42-16.54-20.67-39.26-20.67-39.26-5.17-8.25-9.65-16.91-14.54-25.32-15.47-26.59-23.83-42.05-30.07-53-20.42-36-23.36-33.49-60.65-91.92,0,0-32.13-50.33-61-68C246.47,252,238.06,250.76,234.53,250.25Z" transform="translate(-116.48 -149.66)"/><path class="cls-5" d="M193.58,423.82a10.91,10.91,0,0,0-8,.2,9.92,9.92,0,0,0-5.34,5.54,8.26,8.26,0,0,0-.39,3c.26,7,8.19,15.4,8.7,15.92,3.52,3.66,7.42,7.71,13.84,10.39,5,2.08,8.17,1.93,17,5.43,2.26.9,4.1,1.72,5.3,2.28,4.47,3.88,9.9,8.4,16.22,13.25,1.62,1.24,7,5.32,13.45,9.83a339.12,339.12,0,0,0,34.68,21.1c7,3.67,12.44,6.23,16,7.89,11.39,5.32,20,8.75,23.34,10,2.22.86,4.08,1.56,5.39,2.05l-.6-1-45.83-32.8L205.45,431Z" transform="translate(-116.48 -149.66)"/><circle class="cls-5" cx="82.65" cy="122.05" r="9"/><circle class="cls-5" cx="114.49" cy="159.83" r="4.95"/><circle class="cls-5" cx="49.28" cy="298.82" r="6.66"/><path class="cls-5" d="M372.66,283a212.89,212.89,0,0,1,55.91-51.3C453,216.33,474.63,210,488.51,206a268.9,268.9,0,0,1,78.13-10.28,262,262,0,0,1,94.68,19.58,255.08,255.08,0,0,1,36.06,18.4l-4.64.1c-8.81.16-14.31.14-16,.16-11.78.16-23,5-23.67,5.27a61.38,61.38,0,0,0-22.49,17.08,64.2,64.2,0,0,0-8.27,13.19,72.19,72.19,0,0,0-6.53,34.71l0,.41,3.84,6.55a32.83,32.83,0,0,1,5.08-28.62c5.77-.6,17.73-2.74,27.09-12,3-2.94,6.67-6.7,7.69-12.77,1.28-7.74-2.67-13.93-3.91-15.73A44,44,0,0,1,668,237.54a47.36,47.36,0,0,1,10.63-.84,94.54,94.54,0,0,1,24.4,2.9c4.24,1.15,14,4.18,28.61,14.38a164.65,164.65,0,0,1,36.53,35.21,190,190,0,0,1,33,69.62l-.26-46.41-59.08-83.35L609.89,175.78l-96.53-5.27L422.11,212.7,407.6,238c-3.67,4.19-11.19,12.77-19.51,22.55-1.9,2.23-4.72,5.55-8,10.29-2.36,3.36-4.15,6.25-5.34,8.24Z" transform="translate(-116.48 -149.66)"/></g><g id="Capa_16" data-name="Capa 16"><path d="M809.14,285.76C758,189.82,648.93,148.93,561.1,149.67c-13.07.11-139.92,3.11-212.84,98.11a223.43,223.43,0,0,0-28.48,49.06l-45.1-56.44c-29.09-27.87-68.52-34.7-94.15-19.72C169.68,227,154.84,241,148.68,260a99.42,99.42,0,0,0-3.76,19,130.68,130.68,0,0,0,.6,33.43c4.07,31.55,18.53,65.72,21.75,73.19l.47,1.38h-1.45c-6.74,1.75-24.12,7.24-36.4,23.74-8.43,11.33-10.54,22.57-12.07,31.25-3.9,22.2,1.42,40.36,6.33,56.57a198.93,198.93,0,0,0,12.07,30.07c7.34,15.37,21.67,44.67,50.64,72.39a214.62,214.62,0,0,0,23.77,19.69l.56.39C222.42,637,318.52,768.31,474.33,768.4c7.13,0,14.11-.28,20.94-.8-1.58-10.4-2.8-20.86-3.77-31.34C382.68,742.61,300.42,670,283.38,654.33l1.78.53c2.74.71,7.09,1.76,12.47,2.77,16.48,3.07,63.36,11.81,107.6-12.47,0,0,23.68-13,41.08-36.79,1.29-1.77,4.2-8.08,10-20.7,1-2.18,2.61-5.8,1.25-9.16-.51-1.26-.75-.81-4.15-4.75a38.72,38.72,0,0,0-6.86-6.53,3,3,0,0,0-2.11-.66,3.42,3.42,0,0,0-2.24,1.85A86.6,86.6,0,0,1,434,584.31c-13.57,20.57-32.5,29.61-42.73,34.55-24.66,11.9-46.62,12-59.6,11.87-31.11-.25-53.92-9.89-65.14-14.77-45.36-19.72-70.14-52.43-79.92-65.67-14-18.95-20.56-34.61-28.81-54.27a108.89,108.89,0,0,1-9.1-37.78c-.65-13.81,2-20.88,5.34-25.91.91-1.35,4.71-6.89,10.68-9.89,11.7-5.88,29.08-.67,42.93,13.05,6.93,6.49,16.8,15.61,28.88,26.31,16,14.19,24,21.28,30.65,26.38,15.31,11.7,29.46,20.22,57.42,37,3.9,2.35,7.11,4.26,9.19,5.49a8.34,8.34,0,0,0-.28-1.52,9.88,9.88,0,0,0-3-4.75l-25-20.31L302,501.36a148.18,148.18,0,0,0,25.18,3.43,45.74,45.74,0,0,0,15.7-1.58,42,42,0,0,0,4.09-1.45,159.68,159.68,0,0,1-42.2-11.34c-5.1-2.16-28.72-12.48-52.49-35.87-13.17-13-20.57-24.23-32.37-42.2-8.71-13.26-16.84-25.79-24.13-44.11-3.46-8.7-5.8-16.87-10.49-33.23-3.82-13.36-6-22.58-7.51-33.23a84.39,84.39,0,0,1-.4-25.12c.73-5,1.41-9.4,4.16-14.24a38.26,38.26,0,0,1,15.23-13.65c13.78-6.9,35.74-2.05,55.38,13,5.65,6.38,13.34,15.17,22.29,25.78,14,16.57,38.81,46.82,67.51,86.77,18.73,26.08,38.95,56.08,59.61,89.94l4.75,6.85c-19.77-64.89-32.22-89-40.09-98.63,0,0-9.29-11.36-21.3-36.93a26.44,26.44,0,0,1-1.78-5.44,22,22,0,0,1-.39-4.84c7.23-16.17,43.51-92.63,132.92-128.18,90-35.8,169.16-4.35,189.1,4,21.87,9.11,69.15,29.53,103.65,79.91,24.2,35.35,33.42,72.77,35.65,105.43a24.27,24.27,0,0,1,17.15,1.07h.11c-2.53-1.3-.92-.5.38,0h.13c2.12,0,4.26.07,6.36.18a61.18,61.18,0,0,1,8.46,1C835.28,357.9,828.42,321.88,809.14,285.76Z" transform="translate(-116.48 -149.66)"/></g></svg>