<svg viewBox="0 0 128 128" xmlns="http://www.w3.org/2000/svg">
    <path fill="#de0376" d="M64.064 128c35.38 0 64.064-28.653 64.064-64S99.44 0 64.064 0C28.682 0 0 28.653 0 64s28.682 64 64.064 64Z"/>
    <path fill="#fff" d="M95.776 94.88s-2.883.16-4.486-.48c-4.004-1.6-5.767-4.96-5.767-10.88V20.8c0-1.92-1.44-3.2-4.323-3.84h-.96c-1.763 0-2.883 1.28-3.686 4V48.8c-7.207-6.4-14.893-9.76-23.223-9.76-6.406 0-12.493 1.92-18.416 5.92-9.29 7.2-13.936 16-13.936 26.4 0 6.88 2.243 13.6 6.89 20.16 7.526 8.16 15.693 12.32 24.342 12.32h1.92c8.81 0 16.66-3.68 23.706-11.2 3.52 7.52 8.806 11.2 15.856 11.2h1.12c2.4 0 4.323-1.28 4.323-4.32v-.32c0-2.72-1.28-4.32-3.36-4.32Zm-41.642-.32h-1.44c-2.243 0-4.646-.32-7.37-1.12C35.236 88.8 30.27 81.6 30.27 72v-1.12c0-2.24.48-4.8 1.44-7.52 4.806-9.92 11.853-14.88 21.302-14.88h.96c1.763 0 4.167.32 7.37 1.12 10.25 4.8 15.376 11.84 15.376 21.44v1.44c0 1.6-.32 4-1.12 7.04C70.63 89.6 63.42 94.56 54.134 94.56Z"/>
    <path fill="#fff" d="M105.702 73.28c1.92 0 3.524.64 5.127 2.08 1.44 1.44 2.08 3.2 2.08 5.12 0 2.72-1.28 4.8-3.84 6.4l-3.687.8c-1.92 0-3.68-.96-5.443-2.72-.96-1.44-1.6-2.88-1.6-4.48 0-2.4.96-4.32 3.04-5.92 1.6-.8 2.88-1.28 4.323-1.28Z"/>
</svg>
