<svg viewBox="0 0 403 403" fill="none" xmlns="http://www.w3.org/2000/svg">
    <circle cx="201.289" cy="201.642" r="201.289" fill="#E6F2FF"/>
    <path d="m293.872 152.028-46.989 27.095 46.989 27.209 46.876-27.209-46.876-27.095Z" fill="#C9EEFF"/>
    <path d="m106.136 152.028-46.875 27.095 46.875 27.209 46.99-27.209-46.99-27.095Z" fill="#C9EEFF"/>
    <path d="M153.121 287.278v53.851l46.876-27.096v-53.851l-46.876 27.096Z" fill="#5178E5"/>
    <path d="M153.131 179.464v53.851l-46.989-27.096v-53.85l46.989 27.095Z" fill="#59A8FE"/>
    <path d="M153.131 233.314v53.737l-46.989-26.982v-53.85l46.989 27.095Z" fill="#59A8FE"/>
    <path d="M106.136 206.219v53.85l-46.875-27.095v-53.851l46.875 27.096Z" fill="#59A8FE"/>
    <path d="M199.997 260.184v53.85l-46.876-26.982v-53.85l46.876 26.982Z" fill="#59A8FE"/>
    <path d="M246.878 179.238v53.85l-46.876-27.095v-53.851l46.876 27.096Z" fill="#59A8FE"/>
    <path d="M153.131 125.046v53.851l-46.989-27.096v-53.85l46.989 27.095Z" fill="#59A8FE"/>
    <path d="M246.878 287.052v53.85l-46.876-26.982v-53.85l46.876 26.982Z" fill="#59A8FE"/>
    <path d="M153.131 287.052v53.85l-46.989-26.982v-53.85l46.989 26.982Z" fill="#59A8FE"/>
    <path d="M246.883 179.238v53.85l46.989-27.095v-53.851l-46.989 27.096Z" fill="#5176E5"/>
    <path d="M246.883 125.046v53.851l46.989-27.096v-53.85l-46.989 27.095Z" fill="#5176E5"/>
    <path d="M153.121 179.238v53.85l46.876-27.095v-53.851l-46.876 27.096Z" fill="#5178E5"/>
    <path d="M246.883 233.088v53.851l46.989-27.096v-53.85l-46.989 27.095Z" fill="#5176E5"/>
    <path d="M293.861 206.219v53.85l46.876-27.095v-53.851l-46.876 27.096Z" fill="#5176E5"/>
    <path d="M200.002 260.07v53.851l46.876-26.982v-53.851l-46.876 26.982Z" fill="#5176E5"/>
    <path d="M246.883 286.938v53.851l46.989-27.096v-53.85l-46.989 27.095Z" fill="#5176E5"/>
    <path d="m153.131 125.16-46.989 27.095 46.989 27.209 46.875-27.209-46.875-27.095Z" fill="#C9EEFF"/>
    <path d="m199.997 97.95-46.876 27.209 46.876 27.096 46.875-27.096-46.875-27.208Z" fill="#C9EEFF"/>
    <path d="m199.997 205.993-46.876 27.095 46.876 27.095 46.875-27.095-46.875-27.095Z" fill="#C9EEFF"/>
    <path d="m246.878 70.855-46.876 27.096 46.876 27.208 46.989-27.208-46.989-27.096Z" fill="#C9EEFF"/>
    <path d="m153.131 70.855-46.989 27.096 46.989 27.208 46.875-27.208-46.875-27.096Z" fill="#C9EEFF"/>
    <path d="m246.878 124.819-46.876 27.209 46.876 27.095 46.989-27.095-46.989-27.209Z" fill="#C9EEFF"/>
    <path d="M106.136 97.95v54.078l-46.875 27.095v53.851l46.875 27.095v53.851l46.99 26.982 46.875-26.982 46.876 26.982 46.989-26.982v-53.851l46.876-27.095v-53.851l-46.876-27.095V97.951l-46.989-27.096-46.876 27.096-46.875-27.096-46.99 27.096Z" stroke="#001423" stroke-width="2.537" stroke-miterlimit="10" stroke-linejoin="round"/>
    <path d="m59.26 179.123 46.876 27.436" stroke="#fff" stroke-width="2.537" stroke-miterlimit="10" stroke-linecap="round" stroke-linejoin="round"/>
    <path d="M153.121 287.278v53.624" stroke="#fff" stroke-width="2.537" stroke-miterlimit="10" stroke-linecap="round" stroke-linejoin="round"/>
    <path d="M153.121 233.314v53.964" stroke="#001423" stroke-width="2.537" stroke-miterlimit="10" stroke-linejoin="round"/>
    <path d="M106.142 152.028v108.041" stroke="#001423" stroke-width="2.537" stroke-miterlimit="10" stroke-linejoin="round"/>
    <path d="M246.883 287.052v-53.964" stroke="#001423" stroke-width="2.537" stroke-miterlimit="10" stroke-linejoin="round"/>
    <path d="M246.883 340.902v-53.85" stroke="#fff" stroke-width="2.537" stroke-miterlimit="10" stroke-linecap="round" stroke-linejoin="round"/>
    <path d="m340.737 178.897-46.876 27.436" stroke="#fff" stroke-width="2.537" stroke-miterlimit="10" stroke-linecap="round" stroke-linejoin="round"/>
    <path d="m293.872 97.95-46.989 27.436" stroke="#fff" stroke-width="2.537" stroke-miterlimit="10" stroke-linecap="round" stroke-linejoin="round"/>
    <path d="m106.142 97.95 46.989 27.436" stroke="#fff" stroke-width="2.537" stroke-miterlimit="10" stroke-linecap="round" stroke-linejoin="round"/>
    <path d="M293.861 261.317V153.389" stroke="#001423" stroke-width="2.537" stroke-miterlimit="10" stroke-linejoin="round"/>
    <path d="m106.254 206.219 46.876 26.982" stroke="#001423" stroke-width="2.537" stroke-miterlimit="10" stroke-linejoin="round"/>
    <path d="m106.142 260.07 93.864 54.304" stroke="#001423" stroke-width="2.537" stroke-miterlimit="10" stroke-linejoin="round"/>
    <path d="m292.956 260.07-93.751 54.304" stroke="#001423" stroke-width="2.537" stroke-miterlimit="10" stroke-linejoin="round"/>
    <path d="m293.872 206.332-46.989 26.756" stroke="#001423" stroke-width="2.537" stroke-miterlimit="10" stroke-linejoin="round"/>
    <path d="m248.467 125.5-48.465 26.642" stroke="#001423" stroke-width="2.537" stroke-miterlimit="10" stroke-linejoin="round"/>
    <path d="m200.002 97.95 96.929 55.892" stroke="#001423" stroke-width="2.537" stroke-miterlimit="10" stroke-linejoin="round"/>
    <path d="m246.078 232.52-46.081-26.982v-53.397l-46.876-27.096" stroke="#001423" stroke-width="2.537" stroke-miterlimit="10" stroke-linejoin="round"/>
    <path d="m200.006 97.838-93.864 54.191" stroke="#001423" stroke-width="2.537" stroke-miterlimit="10" stroke-linejoin="round"/>
    <path d="m200.001 205.312-47.216 27.322" stroke="#001423" stroke-width="2.537" stroke-miterlimit="10" stroke-linejoin="round"/>
    <path d="m106.142 152.028 46.989 27.435v53.738l46.875 26.982v53.737" stroke="#fff" stroke-width="2.537" stroke-miterlimit="10" stroke-linecap="round" stroke-linejoin="round"/>
    <path d="m293.867 152.028-46.989 27.435v53.738l-46.876 26.982" stroke="#fff" stroke-width="2.537" stroke-miterlimit="10" stroke-linecap="round" stroke-linejoin="round"/>
    <path d="m153.121 179.465 46.876-27.209 46.875 27.209" stroke="#fff" stroke-width="2.537" stroke-miterlimit="10" stroke-linecap="round" stroke-linejoin="round"/>
</svg>
