<svg viewBox="0 0 403 403" fill="none" xmlns="http://www.w3.org/2000/svg">
    <circle cx="201.643" cy="201.642" r="201.289" fill="#3897F9"/>
    <path fill-rule="evenodd" clip-rule="evenodd" d="M203.779 90.025c5.687 0 10.298 4.61 10.298 10.298v20.596c0 5.688-4.611 10.299-10.298 10.299-5.688 0-10.299-4.611-10.299-10.299v-20.596c0-5.687 4.611-10.298 10.299-10.298Z" fill="#fff"/>
    <path d="M203.723 271.955c-48.351 0-58.297-22.885-58.297-42.337 0-1.716 1.381-3.432 3.315-3.432h14.367c1.658 0 3.04 1.144 3.04 2.86 2.21 15.161 8.565 22.599 37.851 22.599 23.209 0 33.155-5.435 33.155-18.308 0-7.437-2.763-12.872-38.957-16.591-30.115-3.147-48.903-10.012-48.903-34.899 0-23.171 18.788-36.902 50.285-36.902 35.365 0 52.771 12.587 54.982 40.048 0 .859-.277 1.717-.829 2.575-.553.572-1.382 1.144-2.211 1.144h-14.643c-1.381 0-2.763-1.144-3.039-2.574-3.316-15.734-11.881-20.883-34.537-20.883-25.418 0-28.457 9.154-28.457 16.02 0 8.295 3.591 10.87 37.851 15.447 33.984 4.577 50.009 11.156 50.009 35.757 0 25.173-20.169 39.476-54.982 39.476Z" fill="#fff"/>
    <path fill-rule="evenodd" clip-rule="evenodd" d="M190.052 48.527a27.463 27.463 0 0 1 28.238.36l109.764 67.718a27.463 27.463 0 0 1 13.043 23.372V271.14a27.462 27.462 0 0 1-12.977 23.331l-83.878 52.074c-4.832 3-11.181 1.514-14.181-3.318s-1.515-11.181 3.317-14.181l83.878-52.074a6.863 6.863 0 0 0 3.245-5.832V139.977a6.865 6.865 0 0 0-3.261-5.843L207.476 66.416a6.867 6.867 0 0 0-7.06-.09L83.622 134.333a6.866 6.866 0 0 0-3.41 5.933v130.26a6.864 6.864 0 0 0 3.562 6.019l104.97 57.596c2.288 1.255 5.084-.4 5.084-3.01v-32.41c0-5.688 4.611-10.298 10.298-10.298 5.688 0 10.298 4.61 10.298 10.298v32.41c0 18.266-19.574 29.853-35.588 21.067l-104.97-57.596a27.462 27.462 0 0 1-14.25-24.076v-130.26a27.463 27.463 0 0 1 13.642-23.732l116.794-68.007Z" fill="#fff"/>
</svg>
