<svg viewBox="0 0 29 29" fill="none" xmlns="http://www.w3.org/2000/svg">
    <circle cx="14.09" cy="14.09" r="14.09" fill="#F9FAFB"/>
    <path fill-rule="evenodd" clip-rule="evenodd" d="M17.983 5.466c0 1.261-1.758 2.284-3.927 2.284s-3.927-1.023-3.927-2.284c0-1.262 1.758-2.284 3.927-2.284s3.927 1.022 3.927 2.284Zm-1.96 15.779c-1.576-.656-2.475-.772-3.043-.768-1.646.272-2.851 1.153-2.851 2.197 0 1.261 1.758 2.284 3.927 2.284 2.086 0 3.793-.947 3.92-2.142-.538-.807-1.065-1.141-1.954-1.571Zm2.754-1.962c1.376.142 2.73.567 3.822 1.43.323-.342.625-.745.887-1.199 1.084-1.878 1.078-3.912-.015-4.542-1.092-.631-2.857.38-3.941 2.258a6.091 6.091 0 0 0-.753 2.053ZM8.583 10.91c1.085-1.878 1.078-3.912-.015-4.544-1.093-.63-2.859.38-3.943 2.258-1.084 1.879-1.077 3.913.016 4.544 1.093.63 2.858-.38 3.942-2.258Zm-.015 10.861c1.093-.63 1.1-2.665.015-4.543-1.084-1.878-2.85-2.89-3.942-2.258-1.093.631-1.1 2.665-.016 4.543 1.084 1.878 2.85 2.89 3.943 2.258ZM23.486 8.627c1.084 1.878 1.078 3.912-.015 4.543-1.092.63-2.857-.38-3.941-2.26-1.084-1.877-1.078-3.911.014-4.542 1.093-.63 2.857.38 3.942 2.26Zm-6.846 11.83c1.479-.46 4.633-.53 5.848 1.881 1.322 2.621 2.285 3.219 3.344 2.74.167-.075.379.132.261.273-.813.975-1.448 1.094-2.168 1.186-1.87.24-3.138-.958-3.81-1.84-.287-.293-.512-.804-.752-1.345-.322-.731-.67-1.52-1.226-1.906-.727-.433-1.178-.605-1.487-.7-.16-.05-.17-.238-.01-.288Z" fill="url(#a)"/>
    <defs>
        <linearGradient id="a" x1="21.477" y1="20.186" x2="17.898" y2="24.122" gradientUnits="userSpaceOnUse">
            <stop stop-color="#549EFD"/>
            <stop offset="1" stop-color="#6EBDFF"/>
        </linearGradient>
    </defs>
</svg>
