<svg viewBox="0 0 85 85" fill="none" xmlns="http://www.w3.org/2000/svg">
    <circle cx="42.271" cy="42.271" r="42.271" fill="#233445"/>
    <g clip-path="url(#a)" fill="#fff">
        <path d="M42.536 23.036c6.507 0 11.781-3.067 11.781-6.851s-5.274-6.852-11.78-6.852c-6.507 0-11.781 3.068-11.781 6.852 0 3.784 5.274 6.851 11.78 6.851Z"/>
        <path d="M42.536 74.662c6.507 0 11.781-3.068 11.781-6.852 0-3.784-5.274-6.852-11.78-6.852-6.507 0-11.781 3.068-11.781 6.852 0 3.784 5.274 6.852 11.78 6.852Z"/>
        <path d="M26.118 32.52c3.253-5.634 3.232-11.737-.047-13.63-3.28-1.893-8.575 1.14-11.828 6.774s-3.232 11.737.047 13.63c3.28 1.893 8.575-1.14 11.828-6.774Z"/>
        <path d="M70.823 58.33c3.253-5.634 3.234-11.736-.043-13.628-3.277-1.892-8.571 1.142-11.824 6.776-3.253 5.635-3.234 11.736.043 13.628 3.277 1.892 8.57-1.141 11.824-6.776Z"/>
        <path d="M26.074 65.105c3.279-1.894 3.3-7.996.047-13.63-3.253-5.635-8.549-8.668-11.828-6.775-3.28 1.894-3.3 7.996-.047 13.63 3.253 5.635 8.548 8.668 11.828 6.775Z"/>
        <path d="M70.782 39.297c3.278-1.892 3.297-7.994.044-13.628-3.253-5.635-8.547-8.668-11.824-6.776-3.277 1.892-3.296 7.993-.043 13.627 3.253 5.635 8.547 8.669 11.823 6.777Z"/>
    </g>
    <defs>
        <clipPath id="a">
            <path fill="#fff" d="M11.821 9.333h61.433v65.333H11.821z"/>
        </clipPath>
    </defs>
</svg>
