<svg viewBox="0 0 85 85" fill="none" xmlns="http://www.w3.org/2000/svg">
    <circle cx="42.271" cy="42.271" r="42.271" fill="url(#a)"/>
    <path fill-rule="evenodd" clip-rule="evenodd" d="M54.316 16.185c0 3.784-5.275 6.851-11.78 6.851-6.507 0-11.782-3.067-11.782-6.851s5.275-6.852 11.781-6.852c6.507 0 11.78 3.068 11.78 6.852Zm0 51.625c0 3.784-5.275 6.852-11.78 6.852-6.507 0-11.782-3.068-11.782-6.852 0-3.784 5.275-6.852 11.781-6.852 6.507 0 11.78 3.068 11.78 6.852Zm-28.2-35.29c3.254-5.634 3.233-11.737-.047-13.63-3.279-1.893-8.574 1.14-11.827 6.774-3.254 5.634-3.233 11.737.047 13.63 3.279 1.894 8.574-1.14 11.827-6.774Zm44.662 12.182c3.277 1.892 3.297 7.994.043 13.628-3.253 5.635-8.546 8.668-11.823 6.776-3.277-1.892-3.297-7.993-.044-13.628 3.254-5.634 8.547-8.668 11.824-6.776ZM26.072 65.105c3.28-1.894 3.3-7.996.047-13.63-3.253-5.635-8.548-8.668-11.827-6.774-3.28 1.893-3.3 7.995-.047 13.63 3.253 5.634 8.548 8.667 11.827 6.774Zm44.752-39.436c3.254 5.634 3.234 11.736-.043 13.628-3.277 1.892-8.57-1.142-11.824-6.776-3.253-5.635-3.233-11.736.044-13.628 3.277-1.892 8.57 1.142 11.823 6.776Z" fill="#fff"/>
    <path d="M83.399 57.9c0 7.622-6.179 13.8-13.8 13.8-7.622 0-13.8-6.178-13.8-13.8 0-7.621 6.178-13.8 13.8-13.8 7.621 0 13.8 6.178 13.8 13.8Z" fill="#fff" stroke="url(#b)" stroke-width="2"/>
    <path d="M69.344 65.553c-1.74 0-3.254-.387-4.545-1.162v-3.954c1.495.883 2.867 1.325 4.117 1.325.652 0 1.169-.129 1.55-.387.393-.258.59-.612.59-1.06 0-.421-.163-.761-.489-1.02-.326-.257-.781-.387-1.365-.387-.91 0-1.706.163-2.385.49v-2.63l2.813-2.12h-4.505V51h9.6v3.261L72.26 56.26c2.12.815 3.18 2.208 3.18 4.178 0 1.55-.591 2.793-1.774 3.73-1.168.924-2.609 1.386-4.32 1.386Z" fill="#7650DB"/>
    <defs>
        <linearGradient id="a" x1="72.498" y1="-.431" x2="5.609" y2="88.985" gradientUnits="userSpaceOnUse">
            <stop stop-color="#9762DB"/>
            <stop offset="1" stop-color="#6346DA"/>
        </linearGradient>
        <linearGradient id="b" x1="56" y1="73.5" x2="77.5" y2="44" gradientUnits="userSpaceOnUse">
            <stop stop-color="#7A52DB"/>
            <stop offset="1" stop-color="#8B5BDB"/>
        </linearGradient>
    </defs>
</svg>
