<svg viewBox="0 0 85 85" fill="none" xmlns="http://www.w3.org/2000/svg">
    <circle cx="42.271" cy="42.271" r="42.271" fill="url(#a)"/>
    <path fill-rule="evenodd" clip-rule="evenodd" d="M54.316 16.185c0 3.784-5.275 6.851-11.78 6.851-6.507 0-11.782-3.067-11.782-6.851s5.275-6.852 11.781-6.852c6.507 0 11.78 3.068 11.78 6.852Zm0 51.625c0 3.784-5.275 6.852-11.78 6.852-6.507 0-11.782-3.068-11.782-6.852 0-3.784 5.275-6.852 11.781-6.852 6.507 0 11.78 3.068 11.78 6.852Zm-28.2-35.29c3.254-5.634 3.233-11.737-.047-13.63-3.279-1.893-8.574 1.14-11.827 6.774-3.254 5.634-3.233 11.737.047 13.63 3.279 1.894 8.574-1.14 11.827-6.774Zm44.662 12.182c3.277 1.892 3.297 7.994.043 13.628-3.253 5.635-8.546 8.668-11.823 6.776-3.277-1.892-3.297-7.993-.044-13.628 3.254-5.634 8.547-8.668 11.824-6.776ZM26.072 65.105c3.28-1.894 3.3-7.996.047-13.63-3.253-5.635-8.548-8.668-11.827-6.774-3.28 1.893-3.3 7.995-.047 13.63 3.253 5.634 8.548 8.667 11.827 6.774Zm44.752-39.436c3.254 5.634 3.234 11.736-.043 13.628-3.277 1.892-8.57-1.142-11.824-6.776-3.253-5.635-3.233-11.736.044-13.628 3.277-1.892 8.57 1.142 11.823 6.776Z" fill="#fff"/>
    <path d="M83.399 57.9c0 7.622-6.179 13.8-13.8 13.8-7.622 0-13.8-6.178-13.8-13.8 0-7.621 6.178-13.8 13.8-13.8 7.621 0 13.8 6.178 13.8 13.8Z" fill="#fff" stroke="url(#b)" stroke-width="2"/>
    <path d="M75.357 64.653H64.799v-3.139l3.526-3.057c.883-.775 1.468-1.373 1.753-1.794.326-.462.49-.91.49-1.345 0-.38-.15-.68-.45-.897-.298-.23-.692-.346-1.181-.346-1.21 0-2.412.462-3.608 1.386V51.16c1.073-.707 2.432-1.06 4.076-1.06 1.427 0 2.704.421 3.832 1.264 1.128.842 1.692 1.977 1.692 3.404 0 1.046-.217 1.97-.652 2.772-.421.788-1.196 1.65-2.324 2.588l-1.06.877h4.464v3.648Z" fill="#4E6DD6"/>
    <defs>
        <linearGradient id="a" x1="10.857" y1="13.986" x2="73.684" y2="70.555" gradientUnits="userSpaceOnUse">
            <stop stop-color="#535CD9"/>
            <stop offset="1" stop-color="#477FD0"/>
        </linearGradient>
        <linearGradient id="b" x1="56" y1="73.5" x2="77.5" y2="44" gradientUnits="userSpaceOnUse">
            <stop stop-color="#497DD1"/>
            <stop offset="1" stop-color="#4B77D3"/>
        </linearGradient>
    </defs>
</svg>
