<svg viewBox="0 0 512 512" xmlns="http://www.w3.org/2000/svg">
    <path fill="#0e0d11" fill-rule="evenodd" d="M512 256C512 114.615 397.385 0 256 0S0 114.615 0 256s114.615 256 256 256 256-114.615 256-256Z"/>
    <linearGradient id="a" x1="274.275" y1="125.677" x2="260.185" y2="391.257" gradientUnits="userSpaceOnUse">
        <stop offset="0" stop-color="#48ef8a"/>
        <stop offset=".546" stop-color="#43b4a6"/>
        <stop offset=".692" stop-color="#2d796f"/>
        <stop offset=".966"/>
    </linearGradient>
    <path fill="url(#a)" d="M378.085 136v104.641c0 18.603-5.886 36.624-16.51 51.449-3.302 4.65-7.035 8.865-11.198 12.79l-.286.144h-49.1v-96.938H160.153l.574-.581 38.476-36.189 14.213-13.225c16.08-15.115 35.89-22.091 57.713-22.091h106.956Z"/>
    <linearGradient id="b" x1="247.686" y1="389.993" x2="210.697" y2="117.855" gradientUnits="userSpaceOnUse">
        <stop offset="0" stop-color="#ff5f96"/>
        <stop offset=".61" stop-color="#ff33af"/>
        <stop offset="1"/>
    </linearGradient>
    <path fill="url(#b)" d="m350.098 305.168-.143.146-.144.145-2.584 2.47-9.762 9.302-35.462 33.282-3.446 3.197c-16.08 14.97-37.183 23.108-58.861 23.108H132.309v-46.797l.143-24.998.288-33.282c.143-24.27 10.05-47.234 27.564-63.802h45.51v97.084h144.284v.145Z"/>
</svg>
