<svg viewBox="0 0 48 48" xmlns="http://www.w3.org/2000/svg">
    <path fill-rule="evenodd" d="M48 24C48 10.745 37.255 0 24 0S0 10.745 0 24s10.745 24 24 24 24-10.745 24-24z"/>
    <clipPath id="a">
        <path d="M12 13h23.31v22.852H12z"/>
    </clipPath>
    <g clip-path="url(#a)">
        <linearGradient id="b" x1="25.463" y1="12.021" x2="24.127" y2="37.208" gradientUnits="userSpaceOnUse">
            <stop offset="0" stop-color="#48ef8a"/>
            <stop offset=".546" stop-color="#43b4a6"/>
            <stop offset=".692" stop-color="#2d796f"/>
            <stop offset=".966"/>
        </linearGradient>
        <path fill="url(#b)" d="M35.308 13v9.924a8.39 8.39 0 01-1.565 4.879c-.313.44-.668.84-1.062 1.213l-.027.013h-4.657v-9.193H14.641l.054-.055 3.649-3.432 1.348-1.254C21.217 13.662 23.096 13 25.165 13h10.143z"/>
        <linearGradient id="c" x1="22.942" y1="37.088" x2="19.434" y2="11.279" gradientUnits="userSpaceOnUse">
            <stop offset="0" stop-color="#ff5f96"/>
            <stop offset=".61" stop-color="#ff33af"/>
            <stop offset="1"/>
        </linearGradient>
        <path fill="url(#c)" d="M32.654 29.043l-.013.014-.014.014-.245.234-.926.882-3.363 3.156-.327.304a8.194 8.194 0 01-5.582 2.191H12V31.4l.014-2.37.027-3.157a8.374 8.374 0 012.614-6.05h4.316v9.206h13.683v.014z"/>
    </g>
</svg>
