<svg viewBox="0 0 48 48" xmlns="http://www.w3.org/2000/svg">
    <path fill="#2e0d41" fill-rule="evenodd" d="M48 24C48 10.745 37.255 0 24 0S0 10.745 0 24s10.745 24 24 24 24-10.745 24-24Z"/>
    <path fill="#ff2284" d="M23.06 23.83 12.42 13.19a.243.243 0 0 0-.42.17v21.27c0 .22.27.33.42.17l10.64-10.64c.1-.1.1-.25 0-.35Z"/>
    <path fill="#ffcca9" d="M23.83 23.06c.1.1.25.1.35 0l10.64-10.63c.16-.16.05-.42-.17-.42H13.36c-.22 0-.33.27-.17.42l10.64 10.64Z"/>
    <path fill="#b3004a" d="m23.83 24.94-4.12 4.12c-.16.16-.05.42.17.42h8.24c.22 0 .33-.27.17-.42l-4.12-4.12c-.1-.1-.25-.1-.35 0Z"/>
    <path fill="#d6ff80" d="m35.58 13.19-4.6 4.61c-.1.1-.1.25 0 .35l4.6 4.6c.16.16.42.05.42-.17v-9.21c0-.22-.27-.33-.42-.17Z"/>
    <path fill="#82acff" d="M28.12 30.58h-9.83c-.07 0-.13.03-.17.07l-4.93 4.93c-.16.16-.05.42.17.42h9.83c.07 0 .13-.03.17-.07L28.29 31c.16-.16.05-.42-.17-.42Z"/>
    <path fill="#61ffb6" d="M35.58 25.25 25.25 35.58c-.16.16-.05.42.17.42h10.33c.14 0 .25-.11.25-.25V25.42c0-.22-.27-.33-.42-.17Z"/>
    <path fill="#ffd208" d="m24.952 23.825 4.908-4.907a.25.25 0 0 1 .354 0l4.906 4.909a.25.25 0 0 1 0 .353l-4.908 4.907a.25.25 0 0 1-.354 0l-4.906-4.909a.25.25 0 0 1 0-.353Z"/>
</svg>
