<svg width="48" height="48" viewBox="0 0 48 48" fill="none" xmlns="http://www.w3.org/2000/svg">
<g clip-path="url(#clip0_3079_583)">
<circle cx="24" cy="24" r="24" fill="black"/>
<path d="M28.1663 27.5918L28.062 27.7187V34.2028L28.1663 34.5066L36.6209 22.5996L28.1663 27.5918Z" fill="#8C8C8C"/>
<path d="M28.1661 34.5066V27.5918L19.7163 22.5996L28.1661 34.5066Z" fill="#343434"/>
<path d="M28.169 8L27.9844 8.62761V25.7464H28.169L36.6211 22.0244L28.169 8Z" fill="#8C8C8C"/>
<path d="M28.1692 8L19.7168 22.0244L28.1692 25.7464V18.1826V8Z" fill="#343434"/>
<path d="M28.1689 25.7464L36.621 22.0244L28.1689 18.1826V25.7464Z" fill="#393939"/>
<path d="M19.7163 22.0244L28.1687 25.7464V18.1826L19.7163 22.0244Z" fill="#141414"/>
<path d="M19.5323 39.9232V32.861L28.1621 27.7625L19.5323 39.9232Z" fill="#E7E7E7"/>
<path d="M19.5317 32.9379L19.6382 33.0675V39.6898L19.5317 40.0001L10.8969 27.8394L19.5317 32.9379Z" fill="#8C8C8C"/>
<path d="M19.5317 11.7109L19.7202 12.3517V30.9427L19.5317 31.1308L10.9022 26.0297L19.5317 11.7109Z" fill="#343434"/>
<path d="M19.5317 31.1778L10.9023 26.0768L19.5317 22.1543V31.1778Z" fill="#474747"/>
<path d="M19.5323 11.8069L28.1621 26.1257L19.5323 31.2268V22.2032V11.8069Z" fill="#E7E7E7"/>
<path d="M28.1621 26.1725L19.5323 31.2735V22.25L28.1621 26.1725Z" fill="white"/>
</g>
<defs>
<clipPath id="clip0_3079_583">
<rect width="48" height="48" rx="24" fill="white"/>
</clipPath>
</defs>
</svg>
