<svg xmlns="http://www.w3.org/2000/svg" width="48" height="48" fill="none" viewBox="0 0 48 48">
  <path fill="#000" fill-rule="evenodd" d="M24 0c13.256 0 24 10.744 24 24S37.256 48 24 48 0 37.256 0 24 10.744 0 24 0z" clip-rule="evenodd"/>
  <path fill="#fff" d="M28.802 20.335c1.48 1.548 1.949 3.497 1.048 4.359-.9.861-2.83.304-4.308-1.24-1.477-1.545-1.948-3.497-1.047-4.359.9-.861 2.83-.304 4.307 1.24zM16.53 32.073c1.48 1.547 1.949 3.497 1.048 4.358-.9.862-2.83.304-4.308-1.24-1.478-1.545-1.948-3.497-1.047-4.359.9-.861 2.83-.304 4.307 1.24ZM22.52 33.821c2.078-.507 4.003.061 4.299 1.267.295 1.206-1.15 2.6-3.23 3.108s-4.003-.061-4.299-1.267c-.295-1.205 1.15-2.6 3.23-3.108zM13.975 21.663c1.195.348 1.679 2.299 1.08 4.352-.597 2.053-2.053 3.435-3.248 3.087-1.195-.348-1.678-2.298-1.08-4.351.597-2.053 2.053-3.437 3.248-3.088ZM30.276 26.423c1.195.348 1.676 2.296 1.075 4.351-.6 2.056-2.054 3.436-3.249 3.088-1.195-.348-1.675-2.296-1.075-4.351.6-2.055 2.052-3.436 3.249-3.088z"/>
  <path fill="#979faa" d="M34.808 12.027c1.48 1.547 1.948 3.497 1.047 4.359-.9.861-2.83.304-4.307-1.241-1.478-1.545-1.949-3.497-1.048-4.358.9-.862 2.83-.304 4.308 1.24zM22.536 23.764c1.48 1.547 1.948 3.497 1.047 4.358-.9.862-2.83.304-4.307-1.24-1.478-1.544-1.949-3.497-1.048-4.358.9-.862 2.83-.304 4.308 1.24zM24.495 9.015c2.078-.507 4.004.061 4.3 1.273.295 1.212-1.153 2.603-3.23 3.109-2.077.505-4.004-.062-4.299-1.274-.296-1.211 1.152-2.602 3.23-3.108ZM28.525 25.514c2.078-.506 4.004.062 4.299 1.267.295 1.206-1.15 2.6-3.23 3.109-2.08.508-4.003-.061-4.298-1.267-.296-1.206 1.149-2.602 3.229-3.109zM19.98 13.351c1.195.349 1.679 2.299 1.08 4.352-.597 2.053-2.053 3.436-3.248 3.088-1.195-.349-1.678-2.3-1.08-4.352.597-2.052 2.053-3.434 3.248-3.088ZM36.281 18.115c1.195.348 1.676 2.296 1.076 4.351-.6 2.056-2.054 3.437-3.25 3.088-1.194-.348-1.675-2.295-1.075-4.35.6-2.057 2.054-3.438 3.25-3.089z"/>
  <path fill="#fff" d="M18.49 17.324c2.078-.507 4.004.06 4.3 1.273.295 1.212-1.152 2.603-3.23 3.108-2.078.506-4.004-.061-4.3-1.273-.295-1.212 1.153-2.603 3.23-3.108z"/>
</svg>