<svg viewBox="0 0 500 500" xmlns="http://www.w3.org/2000/svg">
    <linearGradient id="a" x1="250.687" y1="6.515" x2="250.687" y2="504.327" gradientUnits="userSpaceOnUse">
        <stop offset="0" stop-color="#e89549"/>
        <stop offset=".895" stop-color="#9d318b"/>
    </linearGradient>
    <path fill="url(#a)" fill-rule="evenodd" d="M500 250C500 111.929 388.071 0 250 0S0 111.929 0 250s111.929 250 250 250 250-111.929 250-250Z"/>
    <path fill="#fff" d="M401.294 134.743H283.839V61.94c0-2.849-3.439-4.281-5.461-2.274l-20.5 20.346a3.205 3.205 0 0 0-.947 2.274v52.456h-10.35V99.197c0-2.849-3.439-4.281-5.461-2.274l-20.5 20.346a3.205 3.205 0 0 0-.947 2.274v15.2H107.859c-6.004 0-9.022 7.248-4.793 11.509l44.991 45.256v197.296c0 6.004 7.249 9.022 11.509 4.793l43.204-42.881a6.755 6.755 0 0 0 1.996-4.793V295.32h49.57a6.75 6.75 0 0 0 4.793-1.996l42.881-43.204c4.23-4.261 1.211-11.509-4.793-11.509h-92.451v-47.16h153.648c1.8 0 3.525-.718 4.792-1.996l42.881-43.204c4.229-4.26 1.211-11.508-4.793-11.508Z"/>
</svg>
