<svg xmlns="http://www.w3.org/2000/svg" viewBox="0 0 800 800">
    <path fill="#F0A841" d="M680.5 410.5c0 161.5-142.7 267.7-251.1 283.8-10.7 1.6-18.6 1.9-21.8 2-118.2 3.7-298.8-102.2-298.8-285.8-.1-154.4 127.6-285.8 285.8-285.8 157.9 0 285.9 128 285.9 285.8z"/>
    <path fill="#FED62E" d="M687 393.4c0 161.5-142.7 267.7-251.1 283.8-10.7 1.6-18.6 1.9-21.8 2C296 682.9 115.5 577 115.4 393.4c-.1-154.4 127.5-285.9 285.8-285.9 157.8 0 285.8 128 285.8 285.9z"/>
    <path fill="#F0A841" d="M606.4 386.5c2.2 90.5-63.7 169.5-142.6 191.4-119.7 33.2-262.9-66.9-261.9-191.4.9-98 91-192 202.2-192 107.3.1 199.8 87.6 202.3 192z"/>
    <path fill="#373636" d="M469.2 246.8c2.5 6.8 9.8 9.4 15.2 13.5 40.5 31.4 70.8 69.3 91.4 113.8 5.2 11.3 7.6 23.5 14 34.4.1-.1.3-.2.4-.2.2-.1.2-.2.2-.3.6-.8 44.4-40.8 69-94.4 5.1-11.1 15.4-34 19-65.4 5.1-44.3-8.4-58.7-7.2-91 .1-1.7.3-6-2.4-9.7-6.1-8.6-22.6-7-35.8-4.8-39.6 6.7-78 13.2-117.1 46.4-12.5 10.7-31 29.2-46.7 57.7z"/>
    <path fill="#373636" d="M317.9 252.7c-2.5 6.8-9.8 9.4-15.2 13.5-40.5 31.4-70.8 69.3-91.4 113.8-5.2 11.3-7.6 23.5-14 34.4-.1-.1-.3-.2-.4-.2-.2-.1-.2-.2-.2-.3-.6-.8-44.4-40.8-69-94.4-5.1-11.1-15.4-34-19-65.4-5.1-44.3 8.4-58.7 7.2-91-.1-1.7-.3-6 2.4-9.7 6.1-8.6 22.6-7 35.8-4.8 39.6 6.7 78 13.2 117.1 46.4 12.5 10.8 31.1 29.2 46.7 57.7z"/>
    <path fill="#FED62E" d="M309 265.6c-2 5.8-7.7 8-11.9 11.5-31.9 26.7-55.8 59-72 96.9-4.1 9.6-6 20-11 29.3-.2-.1-.5-.3-.5-.4-2.1-16.2-11.5-28.5-21-41.4-19.5-26.5-28.2-57.6-34.5-89.2-5.5-27.4-7.4-55.1-8.1-83-.2-8.9 2.2-10.7 11-8.9 59.1 12.2 108.5 40.5 148 85.2z"/>
    <path fill="#FED62E" d="M492.5 261.7c1.9 5.8 7.7 8 11.9 11.6 31.7 26.9 55.4 59.3 71.4 97.3 4.1 9.7 5.9 20 10.8 29.3.2-.1.5-.3.5-.4 2.2-16.2 11.6-28.4 21.2-41.3 19.6-26.4 28.5-57.4 35-89 5.7-27.3 7.8-55.1 8.6-82.9.3-8.9-2.1-10.8-11-9-59.1 11.9-108.6 39.9-148.4 84.4z"/>
    <path fill="#FFF" d="M485.3 276.1c1.8 5.1 7.2 7 11.1 10.1 29.6 23.4 51.8 51.5 66.9 84.6 3.8 8.4 5.6 17.5 10.2 25.6.2-.1.5-.2.5-.4 2-14.1 10.7-24.9 19.5-36.2 18.1-23.2 26.2-50.3 32.1-77.9 5.1-23.9 6.9-48.2 7.6-72.5.2-7.8-2-9.4-10.2-7.8-55.2 10.7-101 35.5-137.7 74.5z"/>
    <path fill="#FFF" d="M318.9 282.5c-1.8 5.1-7.2 7-11.1 10.1-29.6 23.4-51.8 51.5-66.9 84.6-3.8 8.4-5.6 17.5-10.2 25.6-.2-.1-.5-.2-.5-.4-2-14.1-10.7-24.9-19.5-36.2-18.1-23.2-26.2-50.3-32.1-77.9-5.1-23.9-6.9-48.2-7.6-72.5-.2-7.8 2-9.4 10.2-7.8 55.2 10.6 101.1 35.4 137.7 74.5z"/>
    <ellipse fill="#373636" cx="399.1" cy="401.8" rx="202.2" ry="192"/>
    <circle fill="#FED62E" cx="288.6" cy="437.4" r="71.7"/>
    <circle fill="#373636" cx="290.3" cy="432.3" r="56.8"/>
    <circle fill="#FED62E" cx="542.7" cy="433.7" r="71.7"/>
    <circle fill="#373636" cx="544.4" cy="428.6" r="56.8"/>
    <circle fill="#FFFEDF" cx="559.5" cy="402" r="17"/>
    <circle transform="rotate(-80.781 509.709 471.892)" fill="#FFFEDF" cx="509.7" cy="471.9" r="9.9"/>
    <path fill="#FA7F5B" d="M389.7 606.6c3.7 6.2 15.5 25.9 36.9 25.9 15.3 0 29.8-10.3 36.8-25.8 1.5-5.2 6.1-22.6-2.9-36-16.5-24.5-67.6-20.1-77.9.6-6.5 12.9 4 30.2 7.1 35.3z"/>
    <path fill="#FFF" d="M506.2 535.1c3.2 19.8-4.6 40.2-18.1 53.5-10.9 10.8-22.9 14.3-33.3 17.2-9.2 2.6-55.9 15.6-92-12.9-5.4-4.2-28.1-22.2-29.2-49.7-.6-14.8 5.4-26.3 9.1-33.4 13-24.4 27.7-24.5 39.8-40.2 28.9-37.6-.8-108 18.1-133.9 1.7-2.4 6.6-9 13.3-9.1 6.5-.1 11.5 6.1 13.3 8.3 20.4 25.3-2.1 98.5 30.7 135.1 10 11.2 22.8 16.3 36.6 38.3 5.4 8.4 9.9 15.9 11.7 26.8z"/>
    <path fill="#373636" d="M421.5 552.2c-9.3-2.1-16.9-7.2-17.4-7.6-6.7-4.5-14.8-10-14.2-16.8.3-3.3 2.5-5.8 3-6.3 2.5-2.6 5.9-3.5 11.7-4.9.8-.2 1.9-.5 3.4-.7 14.7-2.7 30.8-.8 30.8-.8 3.2.4 6.6.9 10.2 1.7 2.8.6 5.5 1.3 7.9 2 2.9.7 5.2 2.7 6 5.4.9 3.1-.6 5.7-.8 6.2-3.7 6.7-8 11.2-11 13.8-3.6 3.2-7.8 6.9-14.1 8.3-3.9.9-7.8.7-8.7.7-1-.1-3.5-.3-6.8-1z"/>
    <circle fill="#FFFEDF" cx="305.3" cy="405.7" r="17"/>
    <circle fill="#FFFEDF" cx="263.7" cy="475.6" r="9.9"/>
</svg>
