
<svg xmlns="http://www.w3.org/2000/svg" version="1.1" xmlns:xlink="http://www.w3.org/1999/xlink" preserveAspectRatio="none" x="0px" y="0px" width="160px" height="160px" viewBox="0 0 160 160">
<defs>
<g id="Layer2_0_FILL">
<path fill="#000000" stroke="none" d="
M 84.65 2.1
Q 84.0837890625 1.54453125 83.25 1.55
L 66.1 1.55
Q 65.266015625 1.54453125 64.65 2.1 64.09453125 2.716015625 64.1 3.55
L 64.1 20.85 36.65 20.85
Q 35.816015625 20.84453125 35.2 21.4 34.64453125 22.016015625 34.65 22.85
L 34.65 130.65
Q 34.64453125 131.4837890625 35.2 132.05 35.816015625 132.6552734375 36.65 132.65
L 64.3 132.65 64.3 156.5
Q 64.29453125 157.3337890625 64.85 157.9 65.466015625 158.5052734375 66.3 158.5
L 82.9 158.5
Q 83.7337890625 158.5052734375 84.3 157.9 84.9052734375 157.3337890625 84.9 156.5
L 84.9 131
Q 101.9142578125 127.5505859375 111.45 116.5
L 111.45 116.5
Q 113.68125 113.990234375 115.55 111.3
L 115.55 111.25
Q 125.4498046875 96.8572265625 125.45 76.9 125.44765625 53.2720703125 111.85 37.2
L 111.85 37.2
Q 101.7373046875 25.069921875 85.25 21.95
L 85.25 3.55
Q 85.2552734375 2.716015625 84.65 2.1
M 84.6 38.9
Q 90.8376953125 41.6927734375 95.5 47.9 103.95 59.2171875 103.95 75.7 103.951953125 92.482421875 97.3 102.35 95.9435546875 104.29296875 94.35 105.95 89.8837890625 110.6765625 84.55 113.1
L 84.55 113.1
Q 79.18359375 115.6240234375 72.85 116
L 72.85 116
Q 72.2720703125 116.0470703125 71.65 116.05 71.5 116.05 71.4 116.05 71.3 116.05 71.15 116.05
L 54.95 116.05 54.95 36.8 73.6 36.8
Q 74.0451171875 36.8048828125 74.45 36.85 74.526953125 36.852734375 74.6 36.85 80.04296875 36.9884765625 84.6 38.95
L 84.6 38.9
M 38.65 35.5
Q 45.225390625 39.498046875 50.95 44.65
L 50.95 118.05
Q 50.94453125 118.8837890625 51.5 119.45 52.116015625 120.0552734375 52.95 120.05
L 71.15 120.05
Q 71.3 120.05 71.4 120.05 71.5 120.05 71.65 120.05 72.427734375 120.0529296875 73.15 120 80.2267578125 119.5712890625 86.25 116.75
L 86.2 116.75
Q 92.216015625 114.0232421875 97.25 108.7 99.04453125 106.81953125 100.55 104.65
L 100.6 104.6
Q 100.641015625 104.5654296875 100.65 104.5 105.9537109375 107.4171875 111.9 109.45 110.3234375 111.7328125 108.45 113.85
L 108.45 113.9
Q 99.243359375 124.419140625 82.55 127.35 81.8388671875 127.5103515625 81.35 128.05 80.9037109375 128.6314453125 80.9 129.35
L 80.9 154.5 68.3 154.5 68.3 130.65
Q 68.3052734375 129.816015625 67.7 129.2 67.1337890625 128.64453125 66.3 128.65
L 38.65 128.65 38.65 35.5 Z"/>

<path fill="#FFFFFF" stroke="none" d="
M 50.95 44.65
Q 45.225390625 39.498046875 38.65 35.5
L 38.65 128.65 66.3 128.65
Q 67.1337890625 128.64453125 67.7 129.2 68.3052734375 129.816015625 68.3 130.65
L 68.3 154.5 80.9 154.5 80.9 129.35
Q 80.9037109375 128.6314453125 81.35 128.05 81.8388671875 127.5103515625 82.55 127.35 99.243359375 124.419140625 108.45 113.9
L 108.45 113.85
Q 110.3234375 111.7328125 111.9 109.45 105.9537109375 107.4171875 100.65 104.5 100.641015625 104.5654296875 100.6 104.6
L 100.55 104.65
Q 99.04453125 106.81953125 97.25 108.7 92.216015625 114.0232421875 86.2 116.75
L 86.25 116.75
Q 80.2267578125 119.5712890625 73.15 120 72.427734375 120.0529296875 71.65 120.05 71.5 120.05 71.4 120.05 71.3 120.05 71.15 120.05
L 52.95 120.05
Q 52.116015625 120.0552734375 51.5 119.45 50.94453125 118.8837890625 50.95 118.05
L 50.95 44.65 Z"/>
</g>

<path id="Layer2_0_1_STROKES" stroke="#FFFFFF" stroke-width="2" stroke-linejoin="round" stroke-linecap="square" fill="none" d="
M 34.65 22.85
L 34.65 130.65
Q 34.64453125 131.4837890625 35.225 132.075 35.816015625 132.6552734375 36.65 132.65
L 64.3 132.65 64.3 156.5
Q 64.29453125 157.3337890625 64.875 157.925 65.466015625 158.5052734375 66.3 158.5
L 82.9 158.5
Q 83.7337890625 158.5052734375 84.325 157.925 84.9052734375 157.3337890625 84.9 156.5
L 84.9 131
Q 101.9142578125 127.5505859375 111.45 116.5
L 111.45 116.525
Q 113.68125 113.990234375 115.55 111.3
L 115.55 111.275
Q 125.4498046875 96.8572265625 125.45 76.9 125.44765625 53.2720703125 111.875 37.2
L 111.875 37.225
Q 101.7373046875 25.069921875 85.25 21.975
L 85.25 3.55
Q 85.2552734375 2.716015625 84.675 2.125 84.0837890625 1.54453125 83.25 1.55
L 66.1 1.55
Q 65.266015625 1.54453125 64.675 2.125 64.09453125 2.716015625 64.1 3.55
L 64.1 20.85 36.65 20.85
Q 35.816015625 20.84453125 35.225 21.425 34.64453125 22.016015625 34.65 22.85 Z
M 103.95 75.7
Q 103.951953125 92.482421875 97.3 102.375 95.9435546875 104.29296875 94.35 105.975 89.8837890625 110.6765625 84.575 113.125
L 84.55 113.125
Q 79.18359375 115.6240234375 72.875 116
L 72.85 116
Q 72.2720703125 116.0470703125 71.65 116.05 71.5 116.05 71.4 116.05 71.3 116.05 71.15 116.05
L 54.95 116.05 54.95 36.8 73.6 36.8
Q 74.0451171875 36.8048828125 74.45 36.85 74.526953125 36.852734375 74.6 36.85 80.04296875 36.9884765625 84.6 38.95
L 84.6 38.925
Q 90.8376953125 41.6927734375 95.5 47.9 103.95 59.2171875 103.95 75.7 Z
M 108.45 113.9
Q 99.243359375 124.419140625 82.55 127.375 81.8388671875 127.5103515625 81.375 128.075 80.9037109375 128.6314453125 80.9 129.35
L 80.9 154.5 68.3 154.5 68.3 130.65
Q 68.3052734375 129.816015625 67.725 129.225 67.1337890625 128.64453125 66.3 128.65
L 38.65 128.65 38.65 35.525
Q 45.225390625 39.498046875 50.95 44.65
L 50.95 118.05
Q 50.94453125 118.8837890625 51.525 119.475 52.116015625 120.0552734375 52.95 120.05
L 71.15 120.05
Q 71.3 120.05 71.4 120.05 71.5 120.05 71.65 120.05 72.427734375 120.0529296875 73.15 120 80.2267578125 119.5712890625 86.25 116.775
L 86.225 116.775
Q 92.216015625 114.0232421875 97.25 108.725 99.04453125 106.81953125 100.575 104.65
L 100.6 104.625
Q 100.641015625 104.5654296875 100.675 104.5 105.9537109375 107.4171875 111.925 109.475 110.3234375 111.7328125 108.45 113.875
L 108.45 113.9 Z"/>
</defs>

<g transform="matrix( 1, 0, 0, 1, 0,0) ">
<use xlink:href="#Layer2_0_FILL"/>

<use xlink:href="#Layer2_0_1_STROKES"/>
</g>
</svg>
