<svg viewBox="0 0 253 248" fill="none" xmlns="http://www.w3.org/2000/svg">
    <path d="M252 124c0 67.912-56.169 123-125.5 123C57.17 247 1 191.912 1 124S57.17 1 126.5 1C195.831 1 252 56.088 252 124Z" fill="#fff" stroke="#E11D48" stroke-width="2"/>
    <path d="M98.5 90.3a81.41 81.41 0 0 0-16.3-12.15v96.3h29.65v25.85h16.6v-27.15c11.634-2.067 20.65-6.783 27.05-14.15a51.353 51.353 0 0 0 3.95-5.1c-5.403-1.685-10.403-3.885-15-6.6a28.905 28.905 0 0 1-3.1 3.85c-3.166 3.333-6.633 5.867-10.4 7.6-3.8 1.767-7.933 2.783-12.4 3.05-.433.033-.883.05-1.35.05H98.5V90.3Z" fill="url(#a)"/>
    <path d="M100.6 92.4c-.69-.7-1.39-1.4-2.1-2.1v71.55h18.7c.467 0 .917-.016 1.35-.05 4.467-.266 8.6-1.283 12.4-3.05 3.767-1.733 7.233-4.266 10.4-7.6a28.984 28.984 0 0 0 3.1-3.85 77.267 77.267 0 0 1-1.75-1.1 29.414 29.414 0 0 1-2.65 3.3c-2.933 3.134-6.133 5.534-9.6 7.2-3.5 1.667-7.3 2.617-11.4 2.85-.4.034-.817.05-1.25.05h-17.2V92.4ZM82.2 78.15a75.377 75.377 0 0 0-2.2-1.2v99h29.85v26.65h20.6v-27.95c10.933-2.133 19.767-7 26.5-14.6a53.063 53.063 0 0 0 4.35-5.55 60.104 60.104 0 0 1-1.85-.6 51.503 51.503 0 0 1-3.95 5.1c-6.4 7.367-15.417 12.084-27.05 14.15v27.15h-16.6v-25.85H82.2v-96.3Z" fill="#402B2F"/>
    <path d="M142.65 90.5c-3.333-4.433-7.233-7.633-11.7-9.6-3.267-1.4-6.85-2.15-10.75-2.25-.333-.033-.683-.05-1.05-.05H98.5v11.7c.71.7 1.41 1.4 2.1 2.1V80.7h19c.333 0 .65.017.95.05 3.6.1 6.9.817 9.9 2.15 4.133 1.867 7.733 4.9 10.8 9.1 5.433 7.467 8.15 16.633 8.15 27.5 0 11.269-2.233 20.169-6.7 26.7.58.375 1.164.742 1.75 1.1 4.7-6.857 7.05-16.124 7.05-27.8 0-11.467-2.95-21.133-8.85-29ZM128.8 67.45c11.267 1.767 20.3 6.717 27.1 14.85 8.733 10.367 13.1 23.167 13.1 38.4 0 12.865-3.183 23.932-9.55 33.2.62.211 1.236.411 1.85.6 6.533-9.496 9.8-20.796 9.8-33.9 0-15.7-4.583-28.9-13.75-39.6-7.133-8.367-16.1-13.467-26.9-15.3V45h-20.6v19.9H80v12.05c.74.388 1.474.788 2.2 1.2v-11.5h29.45v-19.3h17.15v20.1Z" fill="#6D4A51"/>
    <path d="M155.9 82.3c-6.8-8.133-15.833-13.083-27.1-14.85v-20.1h-17.15v19.3H82.2v11.5A81.41 81.41 0 0 1 98.5 90.3V78.6h20.65c.367 0 .717.017 1.05.05 3.9.1 7.484.85 10.75 2.25 4.467 1.967 8.367 5.167 11.7 9.6 5.9 7.867 8.85 17.533 8.85 29 0 11.677-2.35 20.943-7.05 27.8 4.597 2.715 9.597 4.915 15 6.6 6.367-9.268 9.55-20.335 9.55-33.2 0-15.233-4.366-28.033-13.1-38.4Z" fill="#BB828E"/>
    <path d="M161.325 154.5c6.517-9.496 9.775-20.796 9.775-33.9 0-15.7-4.583-28.9-13.75-39.6-7.133-8.367-16.1-13.467-26.9-15.3V45h-20.6v19.9H80v12.05m62.7 69.25c4.467-6.531 6.7-15.431 6.7-26.7 0-10.867-2.717-20.033-8.15-27.5-3.067-4.2-6.667-7.233-10.8-9.1-3-1.333-6.3-2.05-9.9-2.15-.3-.033-.617-.05-.95-.05h-19v11.725m29.85 82.225v27.95h-20.6v-26.65H80v-99" stroke="#FF9191" stroke-linecap="round" stroke-linejoin="round"/>
    <path d="M100.6 92.425V159.6h17.2c.433 0 .85-.017 1.25-.05 4.1-.234 7.9-1.184 11.4-2.85 3.466-1.667 6.666-4.067 9.6-7.2a29.414 29.414 0 0 0 2.65-3.3m18.625 8.3a55.702 55.702 0 0 1-4.375 5.55c-6.734 7.6-15.567 12.466-26.5 14.6" stroke="#D47373" stroke-linecap="round" stroke-linejoin="round"/>
    <defs>
        <linearGradient id="a" x1="93.45" y1="166.5" x2="148.05" y2="111.9" gradientUnits="userSpaceOnUse">
            <stop stop-color="#BB828E"/>
            <stop offset="1" stop-color="#805760"/>
        </linearGradient>
    </defs>
</svg>
