<svg xmlns="http://www.w3.org/2000/svg" xmlns:xlink="http://www.w3.org/1999/xlink" preserveAspectRatio="none" viewBox="0 0 414 414">
    <defs>
        <path fill="#8F8F8F" d="m-420.95 1323.35-12.45-13.8-12.45 13.8 3.05 62.55q-2.3.25-4.5.7l-3.15-60.1-5.9 5.4 4.1 55.65h.1q-8.45 2.1-16.1 6.2l-33.5-44.2-8.05-.1 37.25 46.8q-1.9 1.2-3.8 2.5l-38.95-48.6-18.45-2.1-.15 18.6 43.65 44.85q-1.5 1.75-2.85 3.5l-42.2-42.95-.85 7.95 39.95 39 .4-.35q-7.2 10.55-10.25 22.85v-.15l-55.7-4.1-5.35 5.9 60.05 3.15q-.4 2.2-.65 4.5l-62.55-3.05-13.8 12.45 13.8 12.45 62.55-3q.25 2.25.65 4.45l-60.05 3.15 5.35 5.9 55.7-4.15v-.1q3.05 12.25 10.2 22.75l-.35-.3-39.95 39 .85 7.95 42.2-42.9q1.35 1.75 2.8 3.5l-43.6 44.8.15 18.6 18.45-2.1 38.95-48.55q1.85 1.3 3.8 2.5l-37.25 46.75 8.05-.1 33.5-44.15q7.6 4.1 16 6.2l-4.1 55.6 5.9 5.4 3.15-60q2.2.4 4.5.65l-3.05 62.5 12.45 13.8 12.45-13.8-3-62.5q2.25-.25 4.45-.65l3.15 60 5.9-5.4-4.15-55.6q19.15-4.8 34.1-19.75 21.9-21.9 21.9-52.9t-21.9-52.9q-14.95-14.95-34.2-19.75h.1l4.15-55.65-5.9-5.4-3.15 60.1q-2.2-.45-4.45-.7l3-62.55Z" id="b"/>
        <path d="M-1004.4 1217.6h12.15q54.462-47.9 128.85-47.9 81.65 0 139.45 57.85 57.85 57.8 57.85 139.45 0 81.75-57.85 139.5-57.8 57.8-139.45 57.8-80.682 0-137.95-56.3h-11.55q2.064 2.166 4.2 4.3 60.15 60.2 145.3 60.2 85.05 0 145.25-60.2 60.25-60.15 60.25-145.3 0-85.05-60.25-145.25-60.2-60.25-145.25-60.25-82.166 0-141 56.1Z" id="e"/>
        <path fill="#FFF" d="M517.7 292.4q-2.85.05-5.45 1.1t-4.6 3.05q-2.05 2.05-3.05 4.65-1.1 2.55-1.15 5.4v36.2q.05 2.85 1.15 5.4 1.05 2.65 3.05 4.65 2 1.95 4.6 3.05 2.6 1.1 5.45 1.1h25.85q2.85 0 5.4-1.1 2.6-1.1 4.65-3.05 1.95-2 3.05-4.65 1.1-2.55 1.1-5.4v-11.65h-15.5v10.35H519v-33.55h23.25v10.3h15.5V306.6q0-2.85-1.1-5.4-1.1-2.6-3.05-4.65-2.05-2-4.65-3.05-2.55-1.05-5.4-1.1H517.7Z" id="f"/>
        <path fill="#FFF" d="M545.25 235.7v9H507.8v40.05h15.5V260.2h23.25q2.85 0 5.45-1.1 2.55-1.05 4.6-3.1 2-2 3.1-4.55 1.05-2.6 1.05-5.45v-11.65q0-2.85-1.05-5.4-1.1-2.6-3.1-4.65-2.05-2-4.6-3.05-2.6-1.05-5.45-1.1H507.8v15.55h37.45Z" id="g"/>
        <path fill="#FFF" d="M561 196.85h-13v12.9h13v-12.9m0-51.7h-23.05l-5.1 46.7-5.15-46.7h-23.05v64.6h13v-36.9l4.1 36.9h22.2l4.05-36.9v17.5h13v-45.2Z" id="h"/>
        <path fill="#FFF" d="M349.3 65.7h-12.85v53.6h12.85V65.7Z" id="i"/>
        <path id="d" stroke="#FFF" stroke-width="2" stroke-linejoin="round" stroke-linecap="round" fill="none" d="M-375 1657.25q1.5-.05 3.05-.15l28.85-29.5q.05-.05.1-.15l46.8-50.35q.25-.35.25-.75l-.75-58.4 6.4-7.5q.2-.25.25-.5l2.1-17.4q10.2-16.75 18.35-31.85.1-.3.3-.55 8.5-16 14.65-30.2 0-.1.1-.3 9.35-57.1 1.8-75.5-11.7-28.7-28-51.45-.2-.2-.35-.3-27-16.4-57.55-20.5-9.35-12.05-20.85-17.65-12.1-1.4-24.8-1.4-50.3 0-91.45 21.9-6.5 5.4-11.4 12.05-16.2 21.9-16.2 22.1l-4.2 18-11.6 49.75q-.05.15-.05.35 4.55 31.8 11.55 79.1.05.2.15.4l18.7 35.75v.05q1.35 2.3 3.95.95 1.3-.7 3.15-2.65l6.25 28 .05.05v.05l3.2 19.4m30.25-30.25-2.45-11.6q-.1-.4-.4-.65l-45.1-34.2q1.1-17.9 9.6-51.85l30.45-24.9"/>
        <g id="a">
            <path d="M-1008.65 1221.75h-.05q-6.25 6.2-11.85 12.7-48.35 56.25-48.35 132.55 0 85.15 60.2 145.3 60.15 60.2 145.3 60.2 85.05 0 145.25-60.2 60.25-60.15 60.25-145.3 0-85.05-60.25-145.25-60.2-60.25-145.25-60.25-85.15 0-145.25 60.25m284.7 5.8q57.85 57.8 57.85 139.45 0 81.75-57.85 139.5-57.8 57.8-139.45 57.8-81.75 0-139.45-57.8L-863.4 1367l-139.45-139.45q57.7-57.85 139.45-57.85 81.65 0 139.45 57.85Z"/>
            <path fill="#FB364C" d="M-666.1 1367h-197.3l-139.45 139.5q57.7 57.8 139.45 57.8 81.65 0 139.45-57.8 57.85-57.75 57.85-139.5Z"/>
            <path fill="#4A4A4A" d="M-666.1 1367q0-81.65-57.85-139.45-57.8-57.85-139.45-57.85-81.75 0-139.45 57.85L-863.4 1367h197.3Z"/>
        </g>
        <g id="c">
            <path fill="#747474" d="m-344.85 1626.35 8.1-29.75-33.4 20.2q-.25.2-.55.2h-39.05q-.3 0-.5-.15l-24.5-12.05 15.05 33.15 31.45 19.5 8.15 5 5.1-5.2 30.15-30.9m-174.3-239.7q-.05.15-.05.35 4.55 31.8 11.55 79.1.05.2.15.4l18.7 35.75v.05q1.35 2.3 3.95.95 1.3-.7 3.15-2.65l6.25 28 .05.05v.05l3.2 19.4 9.7-9.7-10.95-10.45-6.7-29.85q-.05-.3-.15-.5l-.2-.2q-.4-.25-.8-.2-.2 0-.3.1-3.55-7.5-4.7-11.2-1.15-3.55-4.1-12.45l44.05 33.4 2.65 12.55 1.75-1.75-2.45-11.6q-.1-.4-.4-.65l-45.1-34.2q1.1-17.9 9.6-51.85l30.45-24.9-57.7-57.75-11.6 49.75m28.9 84.5-.1-.1q-.05-.05-.15-.1.15.05.25.2m133.35-34.4-1.2.8 30.15 3.8q.2.05.45.15.15.1.3.3l3.85 6 7.75-9.2-9.1-7.9-32.2 6.05m-80.85 166.6-7.55-3.75q-.25-.15-.4-.35l-22-36.7 7.9 48.1 36.8 25.05-14.75-32.35m123.4-63.85v25.5l-20.1 28.5q.15.1.3.3.2.4.1.8l-7.7 28.5 43.7-47.1-.7-55.55-14.75 17.95v.05l-.85 1.05m-21.15-37.55-8.6 25.9 11.15 32.5 17.75-23.15.05-.1 16.4-19.9 4.65-49.45-41.4 34.2Z"/>
            <path fill="#FFF" d="M-490.4 1473.65q2.95 8.9 4.1 12.45 1.15 3.7 4.7 11.2.1-.1.3-.1.4-.05.8.2l.2.2q.1.2.15.5l6.7 29.85 10.95 10.45 19.2 18.3 2.7-22.5-3.1-14.6-2.65-12.55-44.05-33.4m.05-2.6.1.1q-.1-.15-.25-.2.1.05.15.1m123.3-86.8q-.35.1-.7 0-.3-.1-.5-.4-.2-.25-.2-.6v-31.7l-3.45-10.35-27.65 62.75q-.25.35-.6.55-.35.2-.8 0-.35-.15-.55-.5-14-27.85-6.55-60.15l-35.15 45.35q-.1.05-.15.15l-6.5 5.3-30.45 24.9q-8.5 33.95-9.6 51.85l45.1 34.2q.3.25.4.65l2.45 11.6 3.05 14.4 5.7-4.95q.2-.15.45-.2l36.9-8.2q.3-.1.65.05.3.15.5.45.15.25.1.65-.05.35-.3.6l-12.4 11.75h13.6q.2 0 .4.15.2.05.35.2l4.15 4.3 7.15-3q.2-.1.45-.1h11.05l-12.75-13.35q-.25-.25-.3-.55-.05-.4.15-.65.15-.3.45-.45.35-.15.65-.05l36.1 7.75 8.45-25.65q.1-.3.3-.45l42.95-35.6-26.7-56.15q-.1-.25-.1-.45v-39.45l-46.1 15.35m4.8 44.7q.15-.2.4-.3.2-.15.45-.15h37q.1 0 .3.1.15 0 .35.15.1.05.15.15l10.15 8.85q.3.25.35.7.05.45-.2.75l-9.3 11.1q-.3.3-.75.35h-.35l-.05-.05-21-5.45q-7.7 8.5-16.95 1.75l-5.2 4.85q-.3.25-.65.25-.4 0-.7-.2-.3-.2-.35-.6-.1-.4.05-.7l4.6-8.85-11.8 8.1q-.35.2-.7.15-.4-.05-.65-.3-.3-.3-.3-.7 0-.35.2-.65l14.95-19.3m-39 11.95q.2.25.3.6.05.3-.1.6-.15.3-.4.5l-4.35 2.5q-.2.1-.45.1-.3 0-.55-.1l-5.6-2.95 4.05 3.15q.25.2.35.55.1.3 0 .6-.1.25-.3.55l-6.85 5.6q-.3.2-.7.2-.35 0-.6-.2l-9.15-7.35q-2.85 3.4-6.7 3.35-4.05.05-9.1-3.7l-14.95 2.1h-.05q-.45.05-.75-.25-.15-.1-.25-.25-.05-.05-.05-.1l-9.15-14q-.05-.05-.05-.1l-.05-.1q-.05-.1-.1-.15-.05-.25-.05-.5.05-.25.15-.4.1-.2.3-.35l16.45-11.4q.2-.15.45-.2.25-.05.45.05l37.8 11.8q.3.05.45.25l9.55 9.6m-15.9 63.45q.25-.25.65-.25h17.3q.25 0 .45.15.25.1.45.3 3.2 4.6 8.5 4.1h.1q5.65.05 8.9-4.15.15-.2.35-.3.2-.1.5-.1h15.1q.35 0 .6.2.35.2.45.55.05.35-.05.7-1.4 3.6-7.25 5.35-.15.05-.3.05h-7.45q-12.7 10.35-22.75.4l-8.35-1.05q-.1 0-.2-.05-6.1-1.95-7.3-4.65-.15-.35-.05-.7.05-.35.35-.55m-35.1-64.85q.3-.3.65-.35l19.35-2.9-31.5-3.3 7.4 11.3 4.1-4.75m27.6 105.75-7.7 14.8 8.25 16.3 21.45 4 2.35-8.4-10.65-12.4q-.3-.3-.3-.7 0-.45.35-.7.3-.3.7-.3h41.25q.35 0 .65.2.25.15.35.5.1.3 0 .65-.1.3-.35.5l-16.55 12.85 3.1 7.3h18.25l13.95-9 2-20.7-11.3-4.9h-65.8Z"/>
            <path fill="#343434" d="M-416.5 1504.1q-.4 0-.65.25-.3.2-.35.55-.1.35.05.7 1.2 2.7 7.3 4.65.1.05.2.05l8.35 1.05q10.05 9.95 22.75-.4h7.45q.15 0 .3-.05 5.85-1.75 7.25-5.35.1-.35.05-.7-.1-.35-.45-.55-.25-.2-.6-.2h-15.1q-.3 0-.5.1t-.35.3q-3.25 4.2-8.9 4.15h-.1q-5.3.5-8.5-4.1-.2-.2-.45-.3-.2-.15-.45-.15h-17.3m15.55-62.6q-.1-.35-.3-.6l-9.55-9.6q-.15-.2-.45-.25l-37.8-11.8q-.2-.1-.45-.05t-.45.2l-16.45 11.4q-.2.15-.3.35-.1.15-.15.4 0 .25.05.5.05.05.1.15l.05.1q0 .05.05.1l9.15 14q0 .05.05.1.1.15.25.25.3.3.75.25h.05l14.95-2.1q5.05 3.75 9.1 3.7 3.85.05 6.7-3.35l9.15 7.35q.25.2.6.2.4 0 .7-.2l6.85-5.6q.2-.3.3-.55.1-.3 0-.6-.1-.35-.35-.55l-4.05-3.15 5.6 2.95q.25.1.55.1.25 0 .45-.1l4.35-2.5q.25-.2.4-.5.15-.3.1-.6m-50.65-2.35q-.35.05-.65.35l-4.1 4.75-7.4-11.3 31.5 3.3-19.35 2.9m89.75-10.5q-.25.1-.4.3l-14.95 19.3q-.2.3-.2.65 0 .4.3.7.25.25.65.3.35.05.7-.15l11.8-8.1-4.6 8.85q-.15.3-.05.7.05.4.35.6.3.2.7.2.35 0 .65-.25l5.2-4.85q9.25 6.75 16.95-1.75l21 5.45.05.05h.35q.45-.05.75-.35l9.3-11.1q.25-.3.2-.75-.05-.45-.35-.7l-10.15-8.85q-.05-.1-.15-.15-.2-.15-.35-.15-.2-.1-.3-.1h-37q-.25 0-.45.15m3.75 8.9 1.2-.8 32.2-6.05 9.1 7.9-7.75 9.2-3.85-6q-.15-.2-.3-.3-.25-.1-.45-.15l-30.15-3.8m19.45-155.65q-9.35-12.05-20.85-17.65-12.1-1.4-24.8-1.4-50.3 0-91.45 21.9-6.5 5.4-11.4 12.05-16.2 21.9-16.2 22.1l-4.2 18 57.7 57.75 6.5-5.3q.05-.1.15-.15l35.15-45.35q-7.45 32.3 6.55 60.15.2.35.55.5.45.2.8 0 .35-.2.6-.55l27.65-62.75 3.45 10.35v31.7q0 .35.2.6.2.3.5.4.35.1.7 0l46.1-15.35v39.45q0 .2.1.45l26.7 56.15-42.95 35.6q-.2.15-.3.45l-8.45 25.65-36.1-7.75q-.3-.1-.65.05-.3.15-.45.45-.2.25-.15.65.05.3.3.55l12.75 13.35h-11.05q-.25 0-.45.1l-7.15 3-4.15-4.3q-.15-.15-.35-.2-.2-.15-.4-.15h-13.6l12.4-11.75q.25-.25.3-.6.05-.4-.1-.65-.2-.3-.5-.45-.35-.15-.65-.05l-36.9 8.2q-.25.05-.45.2l-5.7 4.95-3.05-14.4-1.75 1.75 3.1 14.6-2.7 22.5-19.2-18.3-9.7 9.7 10.45 63.35q0 .2.1.4.1.15.3.3l40.25 27.4h.05l.05.05 28.65 17.7q2.05.1 4.1.15l-31.45-19.5-15.05-33.15 24.5 12.05q.2.15.5.15h39.05q.3 0 .55-.2l33.4-20.2-8.1 29.75-30.15 30.9q1.5-.05 3.05-.15l28.85-29.5q.05-.05.1-.15l46.8-50.35q.25-.35.25-.75l-.75-58.4 6.4-7.5q.2-.25.25-.5l2.1-17.4q10.2-16.75 18.35-31.85.1-.3.3-.55 8.5-16 14.65-30.2 0-.1.1-.3 9.35-57.1 1.8-75.5-11.7-28.7-28-51.45-.2-.2-.35-.3-27-16.4-57.55-20.5m-93.7 278.15 7.7-14.8h65.8l11.3 4.9-2 20.7-13.95 9h-18.25l-3.1-7.3 16.55-12.85q.25-.2.35-.5.1-.35 0-.65-.1-.35-.35-.5-.3-.2-.65-.2h-41.25q-.4 0-.7.3-.35.25-.35.7 0 .4.3.7l10.65 12.4-2.35 8.4-21.45-4-8.25-16.3m88.25-32.2 8.6-25.9 41.4-34.2-4.65 49.45-16.4 19.9-.05.1-17.75 23.15-11.15-32.5m29.75 37.15v-25.5l.85-1.05v-.05l14.75-17.95.7 55.55-43.7 47.1 7.7-28.5q.1-.4-.1-.8-.15-.2-.3-.3l20.1-28.5m-130.95 34.6 7.55 3.75 14.75 32.35-36.8-25.05-7.9-48.1 22 36.7q.15.2.4.35Z"/>
        </g>
    </defs>
    <use xlink:href="#a" transform="translate(1070.4 -1160)"/>
    <use xlink:href="#b" transform="translate(591.3 -1253.15)"/>
    <g transform="translate(591.3 -1253.15)">
        <use xlink:href="#c"/>
        <use xlink:href="#d"/>
    </g>
    <use xlink:href="#e" transform="translate(1070.4 -1160)"/>
    <use xlink:href="#f" transform="translate(-115.1 14.15) scale(.8674)"/>
    <use xlink:href="#g" transform="translate(-115.1 13.75) scale(.8674)"/>
    <use xlink:href="#h" transform="translate(-115.1 15.9) scale(.8674)"/>
    <use xlink:href="#i" transform="translate(-15.65 10.2) scale(1.04524)"/>
</svg>
