<svg viewBox="0 0 64 64" xmlns="http://www.w3.org/2000/svg">
    <path fill="#fff" fill-rule="evenodd" d="M64 32C64 14.327 49.673 0 32 0 14.327 0 0 14.327 0 32c0 17.673 14.327 32 32 32 17.673 0 32-14.327 32-32Z"/>
    <path fill="#1a0a2d" d="M31.995 64c-8.546 0-16.575-3.322-22.628-9.37C3.325 48.59 0 40.547 0 32c0-8.548 3.325-16.591 9.377-22.63C15.42 3.323 23.45 0 31.995 0S48.57 3.322 54.623 9.37C60.665 15.42 64 23.453 64 32c0 8.548-3.325 16.591-9.377 22.63C48.58 60.677 40.54 64 31.995 64Zm0-62.54c-8.161 0-15.835 3.179-21.614 8.95C4.613 16.18 1.44 23.843 1.44 32s3.183 15.82 8.951 21.59c5.769 5.771 13.443 8.95 21.614 8.95 8.161 0 15.835-3.179 21.614-8.95C59.387 47.82 62.56 40.157 62.56 32s-3.173-15.82-8.941-21.59C47.84 4.639 40.166 1.46 31.995 1.46Z"/>
    <path fill="#1a0a2d" d="M48.925 46.123H25.142a.622.622 0 0 1-.324-.093l-8.597-5.38a.625.625 0 0 1-.213-.843.602.602 0 0 1 .537-.298h23.783c.112 0 .223.03.325.092l8.597 5.38a.625.625 0 0 1 .213.843.623.623 0 0 1-.538.299Zm-23.61-1.245h21.461l-6.61-4.145H18.705l6.61 4.145Z"/>
    <path fill="#1a0a2d" d="M47.444 24.502H23.661a.622.622 0 0 1-.324-.093l-8.587-5.38a.616.616 0 0 1-.213-.843.582.582 0 0 1 .537-.298h23.784c.111 0 .223.03.324.092l8.597 5.38a.616.616 0 0 1-.335 1.142Zm-23.61-1.235h21.461l-6.61-4.145H17.223l6.61 4.145Z"/>
    <path fill="#1a0a2d" d="M35.28 29.305c-.7-.7-1.642-1.09-2.616-1.09h-.04c-2.068.123-3.65 1.913-3.528 4.011.111 1.945 1.652 3.498 3.568 3.59h.041c2.068-.02 3.73-1.738 3.71-3.837a3.906 3.906 0 0 0-1.135-2.674Z"/>
</svg>
