<svg viewBox="0 0 380 380" xmlns="http://www.w3.org/2000/svg">
    <path fill="#172027" fill-rule="evenodd" d="M380 190C380 85.066 294.934 0 190 0S0 85.066 0 190s85.066 190 190 190 190-85.066 190-190Z"/>
    <linearGradient id="a" x1="122.675" y1="96.612" x2="190.014" y2="96.612" gradientUnits="userSpaceOnUse">
        <stop offset="0" stop-color="#f96943"/>
        <stop offset=".45" stop-color="#f46640"/>
        <stop offset="1" stop-color="#e55d38"/>
    </linearGradient>
    <path fill="url(#a)" d="m190.01 95.002-34.754-24.341h-27.198c-2.966 0-5.38 1.994-5.38 4.452v27.873l27.967 19.577Z"/>
    <linearGradient id="b" x1="195.438" y1="262.752" x2="257.339" y2="262.752" gradientUnits="userSpaceOnUse">
        <stop offset="0" stop-color="#ce4e2c"/>
        <stop offset="1" stop-color="#ce4e2c"/>
    </linearGradient>
    <path fill="url(#b)" d="m195.44 266.01 30.07 21.028h26.451a5.99 5.99 0 0 0 2.248-.42c.56-.196 1.08-.49 1.537-.87a4.075 4.075 0 0 0 1.58-3.148v-28.38l-22.528-15.778Z"/>
    <path fill="#8c175b" d="M257.38 74.185v28.793L135.62 188.22a34.029 34.029 0 0 0-13.008 26.77v-72.806l102.24-71.588h27.408c2.56.065 4.655 1.588 5.12 3.59Z"/>
    <linearGradient id="c" x1="195.438" y1="152.488" x2="257.382" y2="152.488" gradientUnits="userSpaceOnUse">
        <stop offset="0" stop-color="#e05935"/>
        <stop offset="1" stop-color="#ce4e2c"/>
    </linearGradient>
    <path fill="url(#c)" d="m230.68 178.61 12.834-8.984.065-.05a34.079 34.079 0 0 0 13.777-27.402l-22.572-15.8-39.372 27.553 35.24 24.653Z"/>
    <linearGradient id="d" x1="123.357" y1="208.53" x2="190.014" y2="208.53" gradientUnits="userSpaceOnUse">
        <stop offset="0" stop-color="#f96943"/>
        <stop offset=".46" stop-color="#f46640"/>
        <stop offset="1" stop-color="#e55c38"/>
    </linearGradient>
    <path fill="url(#d)" d="m190.01 207.08-35.239-24.653-19.142 13.414a34.159 34.159 0 0 0-12.283 19.737l27.285 19.106Z"/>
    <path fill="#8c175b" d="m243.58 169.57-.065.05-120.88 84.64v55.144l134.75-94.356v-72.864a34.079 34.079 0 0 1-13.806 27.387Z"/>
</svg>
