<svg xmlns="http://www.w3.org/2000/svg" viewBox="0 0 440 440" style="enable-background:new 0 0 440 440" xml:space="preserve">
    <circle cx="220" cy="220" r="220"/>
    <path d="M373.1 126.9c-5.2-4.1-11.4-9.7-22.7-11.1-10.6-1.4-21.4 5.7-28.7 10.4-7.3 4.7-21.1 18.5-26.8 22.7-5.7 4.2-20.3 8.1-43.8 22.2s-115.7 73.3-115.7 73.3l24 .3-107 55.1h10.7l-15.4 11.7s13.6 3.6 25-3.6v3.3s127.4-50.2 152-37.2l-15 4.4c1.3 0 25.5 1.6 25.5 1.6s.8 15.1 15.4 24.8c14.6 9.6 14.9 14.9 14.9 14.9s-7.6 3.1-7.6 7c0 0 11.2-3.4 21.6-3.1 10.4.3 19.5 3.1 19.5 3.1s-.8-4.2-10.9-7c-10.2-2.9-20.1-13.8-25-19.8-4.9-6-8.3-16.7-4.1-27.4 3.5-9.1 15.7-14.1 40.9-27.1 29.7-15.4 36.5-26.8 40.7-35.7 4.2-8.9 10.4-26.6 13.9-34.9 4.4-10.7 9.8-16.4 14.3-19.8 4.4-3.4 24.5-10.9 24.5-10.9s-15.3-13.3-20.2-17.2z" fill="#fff"/>
</svg>
