<svg viewBox="0 0 200 200" xmlns="http://www.w3.org/2000/svg">
    <defs>
        <linearGradient x1="50%" y1="100%" x2="50%" y2="0%" id="a">
            <stop stop-color="#ABEC79" offset="0%"/>
            <stop stop-color="#72D444" offset="100%"/>
        </linearGradient>
        <linearGradient x1="50%" y1="0%" x2="50%" y2="98.135%" id="b">
            <stop stop-color="#36B564" offset="0%"/>
            <stop stop-color="#598E69" offset="100%"/>
        </linearGradient>
        <linearGradient x1="50%" y1="100%" x2="50%" y2="0%" id="c">
            <stop stop-color="#499D6C" offset="0%"/>
            <stop stop-color="#1C8441" offset="100%"/>
        </linearGradient>
        <linearGradient x1="0%" y1="50%" x2="100%" y2="50%" id="d">
            <stop stop-color="#4C9B72" offset="0%"/>
            <stop stop-color="#25623E" offset="100%"/>
        </linearGradient>
        <linearGradient x1="50%" y1="0%" x2="50%" y2="98.06%" id="e">
            <stop stop-color="#B1F286" offset="0%"/>
            <stop stop-color="#6BD240" offset="100%"/>
        </linearGradient>
        <linearGradient x1="100%" y1="50%" x2="0%" y2="50%" id="f">
            <stop stop-color="#A6E579" offset="0%"/>
            <stop stop-color="#66B740" offset="100%"/>
        </linearGradient>
        <linearGradient x1="50%" y1="100%" x2="50%" y2="0%" id="g">
            <stop stop-color="#399163" offset="0%"/>
            <stop stop-color="#205A38" offset="100%"/>
        </linearGradient>
        <linearGradient x1="50%" y1="0%" x2="50%" y2="100%" id="h">
            <stop stop-color="#54A66D" offset="0%"/>
            <stop stop-color="#2A6D3B" offset="100%"/>
        </linearGradient>
        <linearGradient x1="50%" y1="0%" x2="50%" y2="100%" id="i">
            <stop stop-color="#B1F286" offset="0%"/>
            <stop stop-color="#79E14E" offset="100%"/>
        </linearGradient>
        <linearGradient x1="50%" y1="0%" x2="50%" y2="100%" id="j">
            <stop stop-color="#4C9D69" offset="0%"/>
            <stop stop-color="#256438" offset="100%"/>
        </linearGradient>
    </defs>
    <g fill="none" fill-rule="nonzero">
        <path fill="url(#a)" d="m32.357 21 15.956 19.27L0 59.538z"/>
        <path fill="url(#b)" d="m99.846 118.097 49.166-58.558h25.076L99.72 148.544z"/>
        <path fill="url(#c)" d="M149.012 59.539H0l48.313-19.27H158.48l15.608 19.27z"/>
        <path fill="url(#d)" d="m149.012 59.539 9.468-19.27 15.608 19.27z"/>
        <path fill="url(#e)" d="M158.48 40.27H48.313L32.357 21h134.94z"/>
        <path fill="url(#f)" d="m174.088 59.539-15.608-19.27L167.298 21l32.053 38.539z"/>
        <path fill="url(#g)" d="m99.719 148.544 74.37-89.005h25.262l-74.335 88.535-25.124 30.032z"/>
        <path fill="url(#h)" d="m70.439 113.676 29.38 34.868.173 29.562-67.193-80.029z"/>
        <path fill="url(#i)" d="m70.439 113.676-37.64-15.599h50.339z"/>
        <path fill="url(#j)" d="m83.138 98.077-12.7 15.6 29.381 34.867.127-30.447z"/>
    </g>
</svg>
