
<svg xmlns="http://www.w3.org/2000/svg" version="1.1" xmlns:xlink="http://www.w3.org/1999/xlink" preserveAspectRatio="none" x="0px" y="0px" width="414px" height="414px" viewBox="0 0 414 414">
<defs>
<g id="Layer3_0_MEMBER_0_FILL">
<path fill="#FFFFFF" stroke="none" d="
M -1008.65 1221.75
L -1008.7 1221.75
Q -1014.95 1227.95 -1020.55 1234.45 -1068.9 1290.7 -1068.9 1367 -1068.9 1452.15 -1008.7 1512.3 -948.55 1572.5 -863.4 1572.5 -778.35 1572.5 -718.15 1512.3 -657.9 1452.15 -657.9 1367 -657.9 1281.95 -718.15 1221.75 -778.35 1161.5 -863.4 1161.5 -948.55 1161.5 -1008.65 1221.75
M -723.95 1227.55
Q -666.1 1285.35 -666.1 1367 -666.1 1448.75 -723.95 1506.5 -781.75 1564.3 -863.4 1564.3 -945.15 1564.3 -1002.85 1506.5
L -863.4 1367 -1002.85 1227.55
Q -945.15 1169.7 -863.4 1169.7 -781.75 1169.7 -723.95 1227.55 Z"/>

<path fill="#FB364C" stroke="none" d="
M -666.1 1367
L -863.4 1367 -1002.85 1506.5
Q -945.15 1564.3 -863.4 1564.3 -781.75 1564.3 -723.95 1506.5 -666.1 1448.75 -666.1 1367 Z"/>

<path fill="#0038A8" stroke="none" d="
M -666.1 1367
Q -666.1 1285.35 -723.95 1227.55 -781.75 1169.7 -863.4 1169.7 -945.15 1169.7 -1002.85 1227.55
L -863.4 1367 -666.1 1367 Z"/>
</g>

<g id="Layer3_0_MEMBER_1_FILL">
<path fill="#FFEEA7" stroke="none" d="
M -420.95 1323.35
L -433.4 1309.55 -445.85 1323.35 -442.8 1385.9
Q -445.1 1386.15 -447.3 1386.6
L -450.45 1326.5 -456.35 1331.9 -452.25 1387.55 -452.15 1387.55
Q -460.6 1389.65 -468.25 1393.75
L -501.75 1349.55 -509.8 1349.45 -472.55 1396.25
Q -474.45 1397.45 -476.35 1398.75
L -515.3 1350.15 -533.75 1348.05 -533.9 1366.65 -490.25 1411.5
Q -491.75 1413.25 -493.1 1415
L -535.3 1372.05 -536.15 1380 -496.2 1419 -495.8 1418.65
Q -503 1429.2 -506.05 1441.5
L -506.05 1441.35 -561.75 1437.25 -567.1 1443.15 -507.05 1446.3
Q -507.45 1448.5 -507.7 1450.8
L -570.25 1447.75 -584.05 1460.2 -570.25 1472.65 -507.7 1469.65
Q -507.45 1471.9 -507.05 1474.1
L -567.1 1477.25 -561.75 1483.15 -506.05 1479 -506.05 1478.9
Q -503 1491.15 -495.85 1501.65
L -496.2 1501.35 -536.15 1540.35 -535.3 1548.3 -493.1 1505.4
Q -491.75 1507.15 -490.3 1508.9
L -533.9 1553.7 -533.75 1572.3 -515.3 1570.2 -476.35 1521.65
Q -474.5 1522.95 -472.55 1524.15
L -509.8 1570.9 -501.75 1570.8 -468.25 1526.65
Q -460.65 1530.75 -452.25 1532.85
L -456.35 1588.45 -450.45 1593.85 -447.3 1533.85
Q -445.1 1534.25 -442.8 1534.5
L -445.85 1597 -433.4 1610.8 -420.95 1597 -423.95 1534.5
Q -421.7 1534.25 -419.5 1533.85
L -416.35 1593.85 -410.45 1588.45 -414.6 1532.85
Q -395.45 1528.05 -380.5 1513.1 -358.6 1491.2 -358.6 1460.2 -358.6 1429.2 -380.5 1407.3 -395.45 1392.35 -414.7 1387.55
L -414.6 1387.55 -410.45 1331.9 -416.35 1326.5 -419.5 1386.6
Q -421.7 1386.15 -423.95 1385.9
L -420.95 1323.35 Z"/>
</g>

<g id="Layer3_0_MEMBER_2_FILL">
<path fill="#FCD116" stroke="none" d="
M -344.85 1626.35
L -336.75 1596.6 -370.15 1616.8
Q -370.4 1617 -370.7 1617
L -409.75 1617
Q -410.05 1617 -410.25 1616.85
L -434.75 1604.8 -419.7 1637.95 -388.25 1657.45 -380.1 1662.45 -375 1657.25 -344.85 1626.35
M -437.75 1603.35
L -445.3 1599.6
Q -445.55 1599.45 -445.7 1599.25
L -467.7 1562.55 -459.8 1610.65 -423 1635.7 -437.75 1603.35
M -314.35 1539.5
L -314.35 1565 -334.45 1593.5
Q -334.3 1593.6 -334.15 1593.8 -333.95 1594.2 -334.05 1594.6
L -341.75 1623.1 -298.05 1576 -298.75 1520.45 -313.5 1538.4 -313.5 1538.45 -314.35 1539.5
M -335.5 1501.95
L -344.1 1527.85 -332.95 1560.35 -315.2 1537.2 -315.15 1537.1 -298.75 1517.2 -294.1 1467.75 -335.5 1501.95
M -519.15 1386.65
Q -519.2 1386.8 -519.2 1387 -514.65 1418.8 -507.65 1466.1 -507.6 1466.3 -507.5 1466.5
L -488.8 1502.25 -488.8 1502.3
Q -487.45 1504.6 -484.85 1503.25 -483.55 1502.55 -481.7 1500.6
L -475.45 1528.6 -475.4 1528.65 -475.4 1528.7 -472.2 1548.1 -462.5 1538.4 -473.45 1527.95 -480.15 1498.1
Q -480.2 1497.8 -480.3 1497.6 -480.4 1497.5 -480.5 1497.4 -480.9 1497.15 -481.3 1497.2 -481.5 1497.2 -481.6 1497.3 -485.15 1489.8 -486.3 1486.1 -487.45 1482.55 -490.4 1473.65
L -446.35 1507.05 -443.7 1519.6 -441.95 1517.85 -444.4 1506.25
Q -444.5 1505.85 -444.8 1505.6
L -489.9 1471.4
Q -488.8 1453.5 -480.3 1419.55
L -449.85 1394.65 -507.55 1336.9 -519.15 1386.65
M -490.25 1471.15
L -490.35 1471.05
Q -490.4 1471 -490.5 1470.95 -490.35 1471 -490.25 1471.15
M -356.9 1436.75
L -358.1 1437.55 -327.95 1441.35
Q -327.75 1441.4 -327.5 1441.5 -327.35 1441.6 -327.2 1441.8
L -323.35 1447.8 -315.6 1438.6 -324.7 1430.7 -356.9 1436.75 Z"/>

<path fill="#CE1126" stroke="none" d="
M -443.7 1519.6
L -440.6 1534.2 -443.3 1556.7 -462.5 1538.4 -472.2 1548.1 -461.75 1611.45
Q -461.75 1611.65 -461.65 1611.85 -461.55 1612 -461.35 1612.15
L -421.1 1639.55 -421.05 1639.55 -421 1639.6 -392.35 1657.3
Q -390.3 1657.4 -388.25 1657.45
L -419.7 1637.95 -434.75 1604.8 -410.25 1616.85
Q -410.05 1617 -409.75 1617
L -370.7 1617
Q -370.4 1617 -370.15 1616.8
L -336.75 1596.6 -344.85 1626.35 -375 1657.25
Q -373.5 1657.2 -371.95 1657.1
L -343.1 1627.6
Q -343.05 1627.55 -343 1627.45
L -296.2 1577.1
Q -295.95 1576.75 -295.95 1576.35
L -296.7 1517.95 -290.3 1510.45
Q -290.1 1510.2 -290.05 1509.95
L -287.95 1492.55
Q -277.75 1475.8 -269.6 1460.7 -269.5 1460.4 -269.3 1460.15
L -296.4 1460.15 -294.15 1464.95 -337.1 1500.55
Q -337.3 1500.7 -337.4 1501
L -345.85 1526.65 -381.95 1518.9
Q -382.25 1518.8 -382.6 1518.95 -382.9 1519.1 -383.05 1519.4 -383.25 1519.65 -383.2 1520.05 -383.15 1520.35 -382.9 1520.6
L -370.15 1533.95 -381.2 1533.95
Q -381.45 1533.95 -381.65 1534.05
L -388.8 1537.05 -392.95 1532.75
Q -393.1 1532.6 -393.3 1532.55 -393.5 1532.4 -393.7 1532.4
L -407.3 1532.4 -394.9 1520.65
Q -394.65 1520.4 -394.6 1520.05 -394.55 1519.65 -394.7 1519.4 -394.9 1519.1 -395.2 1518.95 -395.55 1518.8 -395.85 1518.9
L -432.75 1527.1
Q -433 1527.15 -433.2 1527.3
L -438.9 1532.25 -441.95 1517.85 -443.7 1519.6
M -432.35 1560.05
L -424.65 1545.25 -358.85 1545.25 -347.55 1550.15 -349.55 1570.85 -363.5 1579.85 -381.75 1579.85 -384.85 1572.55 -368.3 1559.7
Q -368.05 1559.5 -367.95 1559.2 -367.85 1558.85 -367.95 1558.55 -368.05 1558.2 -368.3 1558.05 -368.6 1557.85 -368.95 1557.85
L -410.2 1557.85
Q -410.6 1557.85 -410.9 1558.15 -411.25 1558.4 -411.25 1558.85 -411.25 1559.25 -410.95 1559.55
L -400.3 1571.95 -402.65 1580.35 -424.1 1576.35 -432.35 1560.05
M -344.1 1527.85
L -335.5 1501.95 -294.1 1467.75 -298.75 1517.2 -315.15 1537.1 -315.2 1537.2 -332.95 1560.35 -344.1 1527.85
M -314.35 1565
L -314.35 1539.5 -313.5 1538.45 -313.5 1538.4 -298.75 1520.45 -298.05 1576 -341.75 1623.1 -334.05 1594.6
Q -333.95 1594.2 -334.15 1593.8 -334.3 1593.6 -334.45 1593.5
L -314.35 1565
M -445.3 1599.6
L -437.75 1603.35 -423 1635.7 -459.8 1610.65 -467.7 1562.55 -445.7 1599.25
Q -445.55 1599.45 -445.3 1599.6
M -416.5 1504.1
Q -416.9 1504.1 -417.15 1504.35 -417.45 1504.55 -417.5 1504.9 -417.6 1505.25 -417.45 1505.6 -416.25 1508.3 -410.15 1510.25 -410.05 1510.3 -409.95 1510.3
L -401.6 1511.35
Q -391.55 1521.3 -378.85 1510.95
L -371.4 1510.95
Q -371.25 1510.95 -371.1 1510.9 -365.25 1509.15 -363.85 1505.55 -363.75 1505.2 -363.8 1504.85 -363.9 1504.5 -364.25 1504.3 -364.5 1504.1 -364.85 1504.1
L -379.95 1504.1
Q -380.25 1504.1 -380.45 1504.2 -380.65 1504.3 -380.8 1504.5 -384.05 1508.7 -389.7 1508.65 -389.75 1508.65 -389.8 1508.65 -395.1 1509.15 -398.3 1504.55 -398.5 1504.35 -398.75 1504.25 -398.95 1504.1 -399.2 1504.1
L -416.5 1504.1
M -400.95 1441.5
Q -401.05 1441.15 -401.25 1440.9
L -410.8 1431.3
Q -410.95 1431.1 -411.25 1431.05
L -449.05 1419.25
Q -449.25 1419.15 -449.5 1419.2 -449.75 1419.25 -449.95 1419.4
L -466.4 1430.8
Q -466.6 1430.95 -466.7 1431.15 -466.8 1431.3 -466.85 1431.55 -466.85 1431.8 -466.8 1432.05 -466.75 1432.1 -466.7 1432.2
L -466.65 1432.3
Q -466.65 1432.35 -466.6 1432.4
L -457.45 1446.4
Q -457.45 1446.45 -457.4 1446.5 -457.3 1446.65 -457.15 1446.75 -456.85 1447.05 -456.4 1447
L -456.35 1447 -441.4 1444.9
Q -436.35 1448.65 -432.3 1448.6 -428.45 1448.65 -425.6 1445.25
L -416.45 1452.6
Q -416.2 1452.8 -415.85 1452.8 -415.45 1452.8 -415.15 1452.6
L -408.3 1447
Q -408.1 1446.7 -408 1446.45 -407.9 1446.15 -408 1445.85 -408.1 1445.5 -408.35 1445.3
L -412.4 1442.15 -406.8 1445.1
Q -406.55 1445.2 -406.25 1445.2 -406 1445.2 -405.8 1445.1
L -401.45 1442.6
Q -401.2 1442.4 -401.05 1442.1 -400.9 1441.8 -400.95 1441.5
M -451.6 1439.15
Q -451.95 1439.2 -452.25 1439.5
L -456.35 1444.25 -463.75 1432.95 -432.25 1436.25 -451.6 1439.15 Z"/>

<path fill="#FFFFFF" stroke="none" d="
M -424.65 1545.25
L -432.35 1560.05 -424.1 1576.35 -402.65 1580.35 -400.3 1571.95 -410.95 1559.55
Q -411.25 1559.25 -411.25 1558.85 -411.25 1558.4 -410.9 1558.15 -410.6 1557.85 -410.2 1557.85
L -368.95 1557.85
Q -368.6 1557.85 -368.3 1558.05 -368.05 1558.2 -367.95 1558.55 -367.85 1558.85 -367.95 1559.2 -368.05 1559.5 -368.3 1559.7
L -384.85 1572.55 -381.75 1579.85 -363.5 1579.85 -349.55 1570.85 -347.55 1550.15 -358.85 1545.25 -424.65 1545.25
M -490.4 1473.65
Q -487.45 1482.55 -486.3 1486.1 -485.15 1489.8 -481.6 1497.3 -481.5 1497.2 -481.3 1497.2 -480.9 1497.15 -480.5 1497.4 -480.4 1497.5 -480.3 1497.6 -480.2 1497.8 -480.15 1498.1
L -473.45 1527.95 -462.5 1538.4 -443.3 1556.7 -440.6 1534.2 -443.7 1519.6 -446.35 1507.05 -490.4 1473.65
M -490.35 1471.05
L -490.25 1471.15
Q -490.35 1471 -490.5 1470.95 -490.4 1471 -490.35 1471.05
M -367.05 1384.25
Q -367.4 1384.35 -367.75 1384.25 -368.05 1384.15 -368.25 1383.85 -368.45 1383.6 -368.45 1383.25
L -368.45 1351.55 -371.9 1341.2 -399.55 1403.95
Q -399.8 1404.3 -400.15 1404.5 -400.5 1404.7 -400.95 1404.5 -401.3 1404.35 -401.5 1404 -415.5 1376.15 -408.05 1343.85
L -443.2 1389.2
Q -443.3 1389.25 -443.35 1389.35
L -449.85 1394.65 -480.3 1419.55
Q -488.8 1453.5 -489.9 1471.4
L -444.8 1505.6
Q -444.5 1505.85 -444.4 1506.25
L -441.95 1517.85 -438.9 1532.25 -433.2 1527.3
Q -433 1527.15 -432.75 1527.1
L -395.85 1518.9
Q -395.55 1518.8 -395.2 1518.95 -394.9 1519.1 -394.7 1519.4 -394.55 1519.65 -394.6 1520.05 -394.65 1520.4 -394.9 1520.65
L -407.3 1532.4 -393.7 1532.4
Q -393.5 1532.4 -393.3 1532.55 -393.1 1532.6 -392.95 1532.75
L -388.8 1537.05 -381.65 1534.05
Q -381.45 1533.95 -381.2 1533.95
L -370.15 1533.95 -382.9 1520.6
Q -383.15 1520.35 -383.2 1520.05 -383.25 1519.65 -383.05 1519.4 -382.9 1519.1 -382.6 1518.95 -382.25 1518.8 -381.95 1518.9
L -345.85 1526.65 -337.4 1501
Q -337.3 1500.7 -337.1 1500.55
L -294.15 1464.95 -296.4 1460.15 -320.85 1408.8
Q -320.95 1408.55 -320.95 1408.35
L -320.95 1368.9 -367.05 1384.25
M -362.25 1428.95
Q -362.1 1428.75 -361.85 1428.65 -361.65 1428.5 -361.4 1428.5
L -324.4 1428.5
Q -324.3 1428.5 -324.1 1428.6 -323.95 1428.6 -323.75 1428.75 -323.65 1428.8 -323.6 1428.9
L -313.45 1437.75
Q -313.15 1438 -313.1 1438.45 -313.05 1438.9 -313.3 1439.2
L -322.6 1450.3
Q -322.9 1450.6 -323.35 1450.65 -323.55 1450.65 -323.7 1450.65
L -323.75 1450.6 -344.75 1445.15
Q -352.45 1453.65 -361.7 1446.9
L -366.9 1451.75
Q -367.2 1452 -367.55 1452 -367.95 1452 -368.25 1451.8 -368.55 1451.6 -368.6 1451.2 -368.7 1450.8 -368.55 1450.5
L -363.95 1441.65 -375.75 1449.75
Q -376.1 1449.95 -376.45 1449.9 -376.85 1449.85 -377.1 1449.6 -377.4 1449.3 -377.4 1448.9 -377.4 1448.55 -377.2 1448.25
L -362.25 1428.95
M -401.25 1440.9
Q -401.05 1441.15 -400.95 1441.5 -400.9 1441.8 -401.05 1442.1 -401.2 1442.4 -401.45 1442.6
L -405.8 1445.1
Q -406 1445.2 -406.25 1445.2 -406.55 1445.2 -406.8 1445.1
L -412.4 1442.15 -408.35 1445.3
Q -408.1 1445.5 -408 1445.85 -407.9 1446.15 -408 1446.45 -408.1 1446.7 -408.3 1447
L -415.15 1452.6
Q -415.45 1452.8 -415.85 1452.8 -416.2 1452.8 -416.45 1452.6
L -425.6 1445.25
Q -428.45 1448.65 -432.3 1448.6 -436.35 1448.65 -441.4 1444.9
L -456.35 1447 -456.4 1447
Q -456.85 1447.05 -457.15 1446.75 -457.3 1446.65 -457.4 1446.5 -457.45 1446.45 -457.45 1446.4
L -466.6 1432.4
Q -466.65 1432.35 -466.65 1432.3
L -466.7 1432.2
Q -466.75 1432.1 -466.8 1432.05 -466.85 1431.8 -466.85 1431.55 -466.8 1431.3 -466.7 1431.15 -466.6 1430.95 -466.4 1430.8
L -449.95 1419.4
Q -449.75 1419.25 -449.5 1419.2 -449.25 1419.15 -449.05 1419.25
L -411.25 1431.05
Q -410.95 1431.1 -410.8 1431.3
L -401.25 1440.9
M -417.15 1504.35
Q -416.9 1504.1 -416.5 1504.1
L -399.2 1504.1
Q -398.95 1504.1 -398.75 1504.25 -398.5 1504.35 -398.3 1504.55 -395.1 1509.15 -389.8 1508.65 -389.75 1508.65 -389.7 1508.65 -384.05 1508.7 -380.8 1504.5 -380.65 1504.3 -380.45 1504.2 -380.25 1504.1 -379.95 1504.1
L -364.85 1504.1
Q -364.5 1504.1 -364.25 1504.3 -363.9 1504.5 -363.8 1504.85 -363.75 1505.2 -363.85 1505.55 -365.25 1509.15 -371.1 1510.9 -371.25 1510.95 -371.4 1510.95
L -378.85 1510.95
Q -391.55 1521.3 -401.6 1511.35
L -409.95 1510.3
Q -410.05 1510.3 -410.15 1510.25 -416.25 1508.3 -417.45 1505.6 -417.6 1505.25 -417.5 1504.9 -417.45 1504.55 -417.15 1504.35
M -452.25 1439.5
Q -451.95 1439.2 -451.6 1439.15
L -432.25 1436.25 -463.75 1432.95 -456.35 1444.25 -452.25 1439.5 Z"/>

<path fill="#001746" stroke="none" d="
M -361.85 1428.65
Q -362.1 1428.75 -362.25 1428.95
L -377.2 1448.25
Q -377.4 1448.55 -377.4 1448.9 -377.4 1449.3 -377.1 1449.6 -376.85 1449.85 -376.45 1449.9 -376.1 1449.95 -375.75 1449.75
L -363.95 1441.65 -368.55 1450.5
Q -368.7 1450.8 -368.6 1451.2 -368.55 1451.6 -368.25 1451.8 -367.95 1452 -367.55 1452 -367.2 1452 -366.9 1451.75
L -361.7 1446.9
Q -352.45 1453.65 -344.75 1445.15
L -323.75 1450.6 -323.7 1450.65
Q -323.55 1450.65 -323.35 1450.65 -322.9 1450.6 -322.6 1450.3
L -313.3 1439.2
Q -313.05 1438.9 -313.1 1438.45 -313.15 1438 -313.45 1437.75
L -323.6 1428.9
Q -323.65 1428.8 -323.75 1428.75 -323.95 1428.6 -324.1 1428.6 -324.3 1428.5 -324.4 1428.5
L -361.4 1428.5
Q -361.65 1428.5 -361.85 1428.65
M -358.1 1437.55
L -356.9 1436.75 -324.7 1430.7 -315.6 1438.6 -323.35 1447.8 -327.2 1441.8
Q -327.35 1441.6 -327.5 1441.5 -327.75 1441.4 -327.95 1441.35
L -358.1 1437.55
M -338.65 1281.9
Q -348 1269.85 -359.5 1264.25 -371.6 1262.85 -384.3 1262.85 -434.6 1262.85 -475.75 1284.75 -482.25 1290.15 -487.15 1296.8 -503.35 1318.7 -503.35 1318.9
L -507.55 1336.9 -449.85 1394.65 -443.35 1389.35
Q -443.3 1389.25 -443.2 1389.2
L -408.05 1343.85
Q -415.5 1376.15 -401.5 1404 -401.3 1404.35 -400.95 1404.5 -400.5 1404.7 -400.15 1404.5 -399.8 1404.3 -399.55 1403.95
L -371.9 1341.2 -368.45 1351.55 -368.45 1383.25
Q -368.45 1383.6 -368.25 1383.85 -368.05 1384.15 -367.75 1384.25 -367.4 1384.35 -367.05 1384.25
L -320.95 1368.9 -320.95 1408.35
Q -320.95 1408.55 -320.85 1408.8
L -296.4 1460.15 -269.3 1460.15
Q -260.8 1444.15 -254.65 1429.95 -254.65 1429.85 -254.55 1429.65 -245.2 1372.55 -252.75 1354.15 -264.45 1325.45 -280.75 1302.7 -280.95 1302.5 -281.1 1302.4 -308.1 1286 -338.65 1281.9 Z"/>
</g>

<g id="Layer3_0_MEMBER_3_MEMBER_0_FILL">
<path fill="#FFFFFF" stroke="none" d="
M 517.7 292.4
Q 514.85 292.45 512.25 293.5 509.65 294.55 507.65 296.55 505.6 298.6 504.6 301.2 503.5 303.75 503.45 306.6
L 503.45 342.8
Q 503.5 345.65 504.6 348.2 505.65 350.85 507.65 352.85 509.65 354.8 512.25 355.9 514.85 357 517.7 357
L 543.55 357
Q 546.4 357 548.95 355.9 551.55 354.8 553.6 352.85 555.55 350.85 556.65 348.2 557.75 345.65 557.75 342.8
L 557.75 331.15 542.25 331.15 542.25 341.5 519 341.5 519 307.95 542.25 307.95 542.25 318.25 557.75 318.25 557.75 306.6
Q 557.75 303.75 556.65 301.2 555.55 298.6 553.6 296.55 551.55 294.55 548.95 293.5 546.4 292.45 543.55 292.4
L 517.7 292.4 Z"/>
</g>

<g id="Layer3_0_MEMBER_3_MEMBER_1_FILL">
<path fill="#FFFFFF" stroke="none" d="
M 545.25 235.7
L 545.25 244.7 507.8 244.7 507.8 284.75 523.3 284.75 523.3 260.2 546.55 260.2
Q 549.4 260.2 552 259.1 554.55 258.05 556.6 256 558.6 254 559.7 251.45 560.75 248.85 560.75 246
L 560.75 234.35
Q 560.75 231.5 559.7 228.95 558.6 226.35 556.6 224.3 554.55 222.3 552 221.25 549.4 220.2 546.55 220.15
L 507.8 220.15 507.8 235.7 545.25 235.7 Z"/>
</g>

<g id="Layer3_0_MEMBER_3_MEMBER_2_FILL">
<path fill="#FFFFFF" stroke="none" d="
M 561 196.85
L 548 196.85 548 209.75 561 209.75 561 196.85
M 561 145.15
L 537.95 145.15 532.85 191.85 527.7 145.15 504.65 145.15 504.65 209.75 517.65 209.75 517.65 172.85 521.75 209.75 543.95 209.75 548 172.85 548 190.35 561 190.35 561 145.15 Z"/>
</g>

<g id="Layer3_0_MEMBER_4_FILL">
<path fill="#FFFFFF" stroke="none" d="
M -1004.4 1217.6
L -992.25 1217.6
Q -937.787890625 1169.7 -863.4 1169.7 -781.75 1169.7 -723.95 1227.55 -666.1 1285.35 -666.1 1367 -666.1 1448.75 -723.95 1506.5 -781.75 1564.3 -863.4 1564.3 -944.0822265625 1564.3 -1001.35 1508
L -1012.9 1508
Q -1010.8359375 1510.1658203125 -1008.7 1512.3 -948.55 1572.5 -863.4 1572.5 -778.35 1572.5 -718.15 1512.3 -657.9 1452.15 -657.9 1367 -657.9 1281.95 -718.15 1221.75 -778.35 1161.5 -863.4 1161.5 -945.565625 1161.5 -1004.4 1217.6 Z"/>
</g>

<path id="Layer3_0_MEMBER_2_1_STROKES" stroke="#FF7777" stroke-width="2" stroke-linejoin="round" stroke-linecap="round" fill="none" d="
M -269.3 1460.15
Q -260.8 1444.15 -254.65 1429.95 -254.65 1429.85 -254.55 1429.65 -245.2 1372.55 -252.75 1354.15 -264.45 1325.45 -280.75 1302.7 -280.95 1302.5 -281.1 1302.4 -308.1 1286 -338.65 1281.9 -348 1269.85 -359.5 1264.25 -371.6 1262.85 -384.3 1262.85 -434.6 1262.85 -475.75 1284.75 -482.25 1290.15 -487.15 1296.8 -503.35 1318.7 -503.35 1318.9
L -507.55 1336.9"/>

<path id="Layer3_0_MEMBER_2_2_STROKES" stroke="#0038A8" stroke-width="2" stroke-linejoin="round" stroke-linecap="round" fill="none" d="
M -269.3 1460.15
Q -269.5 1460.4 -269.6 1460.7 -277.75 1475.8 -287.95 1492.55
L -290.05 1509.95
Q -290.1 1510.2 -290.3 1510.45
L -296.7 1517.95 -295.95 1576.35
Q -295.95 1576.75 -296.2 1577.1
L -343 1627.45
Q -343.05 1627.55 -343.1 1627.6
L -371.95 1657.1
Q -373.5 1657.2 -375 1657.25"/>

<path id="Layer3_0_MEMBER_2_3_STROKES" stroke="#CE1126" stroke-width="2" stroke-linejoin="round" stroke-linecap="round" fill="none" d="
M -472.2 1548.1
L -475.4 1528.7 -475.4 1528.65 -475.45 1528.6 -481.7 1500.6
Q -483.55 1502.55 -484.85 1503.25 -487.45 1504.6 -488.8 1502.3
L -488.8 1502.25 -507.5 1466.5
Q -507.6 1466.3 -507.65 1466.1 -514.65 1418.8 -519.2 1387 -519.2 1386.8 -519.15 1386.65
L -507.55 1336.9
M -441.95 1517.85
L -444.4 1506.25
Q -444.5 1505.85 -444.8 1505.6
L -489.9 1471.4
Q -488.8 1453.5 -480.3 1419.55
L -449.85 1394.65"/>
</defs>

<g transform="matrix( 1, 0, 0, 1, 1070.4,-1160) ">
<use xlink:href="#Layer3_0_MEMBER_0_FILL"/>
</g>

<g transform="matrix( 1, 0, 0, 1, 591.3,-1253.15) ">
<use xlink:href="#Layer3_0_MEMBER_1_FILL"/>
</g>

<g transform="matrix( 1, 0, 0, 1, 591.3,-1253.15) ">
<use xlink:href="#Layer3_0_MEMBER_2_FILL"/>

<use xlink:href="#Layer3_0_MEMBER_2_1_STROKES"/>

<use xlink:href="#Layer3_0_MEMBER_2_2_STROKES"/>

<use xlink:href="#Layer3_0_MEMBER_2_3_STROKES"/>
</g>

<g transform="matrix( 1, 0, 0, 1, -185.75,-35.1) ">
<use xlink:href="#Layer3_0_MEMBER_3_MEMBER_0_FILL"/>
</g>

<g transform="matrix( 1, 0, 0, 1, -185.75,-36.5) ">
<use xlink:href="#Layer3_0_MEMBER_3_MEMBER_1_FILL"/>
</g>

<g transform="matrix( 1, 0, 0, 1, -185.75,-35.1) ">
<use xlink:href="#Layer3_0_MEMBER_3_MEMBER_2_FILL"/>
</g>

<g transform="matrix( 1, 0, 0, 1, 1070.4,-1160) ">
<use xlink:href="#Layer3_0_MEMBER_4_FILL"/>
</g>
</svg>
