<svg viewBox="0 0 24 24" fill="none" xmlns="http://www.w3.org/2000/svg">
    <path d="M22.95 4.25c-.25-.95-1.05-1.9-2.45-2.95C19.35.5 18.15 0 17.2 0c-.2 0-.35 0-.55.05-.45.1-.8.4-1.05.9-.3.55-.35 1.35-.15 1.8.05.15.15.3.25.5-.9.55-1.45.75-1.5.75 2.4.8 4.4 2.5 5.65 4.75v-.2c.05-.6.25-1.25.45-1.95.25.05.5.1.75.1.65 0 1.2-.25 1.55-.75.35-.55.5-1.15.35-1.7Z" fill="#5E12A0"/>
    <path d="M20.4 6c1.6.45 2.25-.8 2-1.65-.25-.85-.95-1.7-2.25-2.65S17.55.35 16.7.55c-.85.2-1.1 1.45-.85 1.95.1.2.3.5.55.8-.35.25-.65.4-.9.55 1.6.75 3 1.85 4.05 3.3.1-.5.3-.9.45-1.3.15.1.3.1.4.15Z" fill="url(#a)"/>
    <path d="M11.35 23.4c5.4 0 9.75-4.45 9.75-9.9s-4.4-9.95-9.75-9.95C5.95 3.55 1.6 8 1.6 13.5c0 5.5 4.35 9.9 9.75 9.9Z" fill="url(#b)"/>
    <path opacity=".6" d="M21.65 3.55c-1.35-1.4-2.45-1.8-3.8-2.1-1.05-.25-.75-.85.5-.75-.6-.2-1.2-.25-1.6-.2-.85.2-1.1 1.45-.85 1.95.1.2.3.5.55.8-.45.3-.85.55-1.2.75.15.05.35.15.6.3.6.3 1.25.85 1.25.85-1-.85-.75-1.25.6-2.2.4-.3 1.2-.25 1.9.1s1.55 1.3 1.55 1.3L20.25 6c.05 0 .1.05.15.05.5.15.9.1 1.2 0 .4-.25 1.35-1.05.05-2.5Z" fill="#A98698"/>
    <path d="M17.85 2.35c.35.15.8.4 1.35.75.65.45 1.25.95 1.6 1.35-.6.8-1 1.95-1.25 2.7.1.2.25.35.4.55.1-.45.35-1.1.6-1.75h.25c.2 0 .45-.05.65-.2.15-.1.3-.3.3-.65 0-.35-.25-.75-.8-1.3-.4-.35-.95-.8-1.45-1.15-1.5-1-2.55-1.3-3-.8-.3.3-.3.7-.15 1-.55.35-1.05.65-1.35.8.2.05.4.15.6.25.5-.3 1.3-.85 2.25-1.55Zm3.3 2.5c.05.1.05.2.05.25 0 .15-.05.2-.1.25-.05.05-.2.1-.35.1.15-.25.25-.4.4-.6Zm-4.3-2.65c.05-.05.2-.1.4-.05-.15.15-.35.25-.5.4-.05-.1-.05-.25.1-.35Z" fill="#5E12A0"/>
    <path d="M11.35 3C5.6 3 1 7.7 1 13.5S5.6 24 11.35 24c5.7 0 10.35-4.7 10.35-10.5S17 3 11.35 3Zm0 20.4c-5.4 0-9.75-4.4-9.75-9.9s4.35-9.95 9.75-9.95c5.35 0 9.75 4.45 9.75 9.95 0 5.5-4.4 9.9-9.75 9.9Z" fill="#5E12A0"/>
    <path opacity=".6" d="M11.35 23.4c5.4 0 9.75-4.45 9.75-9.9s-4.4-9.95-9.75-9.95C5.95 3.55 1.6 8 1.6 13.5c0 5.5 4.35 9.9 9.75 9.9Z" fill="url(#c)"/>
    <path opacity=".6" d="M11.25 22.2c-5.3-.85-8.9-5.95-8.05-11.35.4-2.4 1.55-4.45 3.25-5.9C4 6.4 2.2 8.9 1.7 11.95c-.85 5.4 2.75 10.5 8.05 11.4 2.95.5 5.85-.45 7.95-2.3-1.85 1.05-4.15 1.55-6.45 1.15Z" fill="#A98698"/>
    <path opacity=".6" d="M12.9 3.7c-2.45-.4-4.85.15-6.8 1.4l-.05.05C6.8 4.7 7.9 4.3 7.9 4.3 5.05 5.95 4.2 7.85 4.2 7.85 5.25 5.75 8.5 4.2 11 4.1c2.55-.1 4.2.65 6.2 2.3s3.25 5.1 3.1 7.8c-.1 2.7-1.5 4.9-1.5 4.9.95-1.25 1.55-2.2 1.9-3.1.05-.3.15-.55.15-.85C21.8 9.65 18.2 4.6 12.9 3.7Z" fill="url(#d)"/>
    <path d="M20.6 13.4c0 5.2-4.15 9.45-9.25 9.45s-9.3-4.25-9.3-9.45H20.6Z" fill="url(#e)"/>
    <path opacity=".6" d="M19.85 13.4c0 5.1-3.95 9.25-8.9 9.45h.35c5.1 0 9.25-4.2 9.25-9.45h-.7Z" fill="url(#f)"/>
    <path opacity=".7" d="M3.35 13.4h-1.3c0 5.2 4.15 9.45 9.25 9.45h.65c-4.8-.4-8.6-4.5-8.6-9.45Z" fill="url(#g)"/>
    <path d="M20.6 13.5c0-1.1-1.85-1.7-4.3-1.9-1.8-.15-3.6.05-5.65.65-1.8.55-3.4.45-4.55.3-2.6-.3-4.05-.35-4.05.95 0 1.85 3.7 4.15 9.25 3.35 2.8-.4 4.25-1.25 5.9-1.8 1.8-.6 3.4-.6 3.4-1.55Z" fill="url(#h)"/>
    <path d="M14.35 9c.85 0 1.55-.7 1.55-1.6 0-.9-.7-1.6-1.55-1.6-.85 0-1.55.7-1.55 1.6 0 .9.7 1.6 1.55 1.6Z" fill="#fff"/>
    <path d="M16.95 10.2c.35 0 .65-.3.65-.65 0-.35-.3-.65-.65-.65-.35 0-.65.3-.65.65 0 .35.25.65.65.65Z" fill="#fff"/>
    <path opacity=".6" d="M19.3 6.15c-.05 0 0 0 0 0-.15 0-.2-.1-.2-.25.15-.8.8-1.6.85-1.65.05-.1.2-.1.3 0 .1.05.1.2 0 .3 0 0-.65.75-.75 1.45 0 .1-.1.15-.2.15Z" fill="url(#i)"/>
    <path opacity=".2" d="M10.7 20.9c.25 0 .5-.2.5-.5s-.2-.5-.5-.5-.5.2-.5.5.2.5.5.5Z" fill="#fff"/>
    <g opacity=".4">
        <path opacity=".6" d="M10.4 20.7c-.2-.2-.2-.5 0-.7l.1-.1c-.05 0-.1.05-.15.1-.2.2-.2.5 0 .7.15.15.4.2.6.1-.2.1-.4.05-.55-.1Z" fill="url(#j)"/>
    </g>
    <path opacity=".3" d="M10.85 20.25c.05 0 .1-.05.1-.1s-.05-.1-.1-.1-.1.05-.1.1.05.1.1.1Z" fill="#fff"/>
    <path opacity=".2" d="M13.25 20.65a.501.501 0 0 0 0-1 .501.501 0 0 0 0 1Z" fill="#fff"/>
    <g opacity=".4">
        <path opacity=".6" d="M12.95 20.45c-.2-.2-.2-.5 0-.7l.1-.1c-.05 0-.1.05-.15.1-.2.2-.2.5 0 .7.15.15.4.2.6.1-.2.1-.4.05-.55-.1Z" fill="url(#k)"/>
    </g>
    <path opacity=".3" d="M13.4 20c.05 0 .1-.05.1-.1s-.05-.1-.1-.1-.1.05-.1.1.05.1.1.1Z" fill="#fff"/>
    <path opacity=".2" d="M12 21.8c.2 0 .35-.15.35-.35 0-.2-.15-.35-.35-.35-.2 0-.35.15-.35.35 0 .2.1.35.35.35Z" fill="#fff"/>
    <g opacity=".4">
        <path opacity=".6" d="M11.75 21.65a.392.392 0 0 1 0-.55l.05-.05c-.05 0-.1.05-.1.1-.15.15-.15.4 0 .55.1.1.3.15.45.05-.1.05-.3 0-.4-.1Z" fill="url(#l)"/>
    </g>
    <path opacity=".3" d="M12.1 21.3c.05 0 .05-.05.05-.05 0-.05-.05-.05-.05-.05-.05 0-.05.05-.05.05s0 .05.05.05Z" fill="#fff"/>
    <path opacity=".2" d="M14.25 21.55c.2 0 .35-.15.35-.35 0-.2-.15-.35-.35-.35-.2 0-.35.15-.35.35-.05.15.15.35.35.35Z" fill="#fff"/>
    <g opacity=".4">
        <path opacity=".6" d="M14 21.4a.392.392 0 0 1 0-.55l.05-.05c-.05 0-.1.05-.1.1-.15.15-.15.4 0 .55.1.1.3.15.45.05-.1.05-.3 0-.4-.1Z" fill="url(#m)"/>
    </g>
    <path opacity=".3" d="M14.35 21.05c.05 0 .05-.05.05-.05 0-.05-.05-.05-.05-.05-.05 0-.05.05-.05.05s0 .05.05.05Z" fill="#fff"/>
    <path opacity=".2" d="M8.6 20.7c.45 0 .8-.35.8-.8 0-.45-.35-.8-.8-.8-.45 0-.8.35-.8.8 0 .45.35.8.8.8Z" fill="#fff"/>
    <g opacity=".4">
        <path opacity=".6" d="M8.15 20.4c-.3-.3-.3-.85 0-1.15.05-.05.1-.1.15-.1-.1.05-.2.1-.3.2-.3.3-.3.85 0 1.15.25.25.65.3 1 .1-.25.1-.6.05-.85-.2Z" fill="url(#n)"/>
    </g>
    <path opacity=".3" d="M8.9 19.65c.1 0 .15-.1.15-.2s-.1-.2-.15-.2c-.1 0-.15.1-.15.2s.05.2.15.2Z" fill="#fff"/>
    <path opacity=".2" d="M15.8 18.7c.45 0 .8-.35.8-.8 0-.45-.35-.8-.8-.8-.45 0-.8.35-.8.8 0 .45.35.8.8.8Z" fill="#fff"/>
    <g opacity=".4">
        <path opacity=".6" d="M15.3 18.4c-.3-.3-.3-.85 0-1.15.05-.05.1-.1.15-.1-.1.05-.2.1-.3.2-.3.3-.3.85 0 1.15.25.25.65.3 1 .1-.25.1-.6.05-.85-.2Z" fill="url(#o)"/>
    </g>
    <path opacity=".3" d="M16.05 17.65c.1 0 .15-.1.15-.2s-.1-.2-.15-.2c-.1 0-.15.1-.15.2s.05.2.15.2Z" fill="#fff"/>
    <defs>
        <linearGradient id="c" x1="9.717" y1="23.279" x2="12.945" y2="3.703" gradientUnits="userSpaceOnUse">
            <stop stop-color="#81FFFF"/>
            <stop offset=".62" stop-color="#fff" stop-opacity="0"/>
        </linearGradient>
        <linearGradient id="d" x1="18.29" y1="6.845" x2="10.097" y2="14.234" gradientUnits="userSpaceOnUse">
            <stop offset=".289" stop-color="#fff"/>
            <stop offset=".78" stop-color="#fff" stop-opacity="0"/>
        </linearGradient>
        <linearGradient id="e" x1="2.047" y1="18.116" x2="20.597" y2="18.116" gradientUnits="userSpaceOnUse">
            <stop stop-color="#0002E9"/>
            <stop offset=".995" stop-color="#FF00C7"/>
        </linearGradient>
        <linearGradient id="f" x1="21.52" y1="14.283" x2="11.267" y2="23.808" gradientUnits="userSpaceOnUse">
            <stop offset=".289" stop-color="#fff"/>
            <stop offset=".78" stop-color="#fff" stop-opacity="0"/>
        </linearGradient>
        <linearGradient id="g" x1="2.047" y1="18.116" x2="11.959" y2="18.116" gradientUnits="userSpaceOnUse">
            <stop stop-color="#000292"/>
            <stop offset=".995" stop-color="#7D00C7"/>
        </linearGradient>
        <linearGradient id="h" x1="2.067" y1="14.269" x2="20.58" y2="14.269" gradientUnits="userSpaceOnUse">
            <stop stop-color="#000292"/>
            <stop offset=".995" stop-color="#BE00C7"/>
        </linearGradient>
        <linearGradient id="i" x1="20.3" y1="4.188" x2="18.936" y2="6.367" gradientUnits="userSpaceOnUse">
            <stop offset=".289" stop-color="#fff"/>
            <stop offset=".78" stop-color="#fff" stop-opacity="0"/>
        </linearGradient>
        <linearGradient id="j" x1="10.193" y1="20.401" x2="10.931" y2="20.401" gradientUnits="userSpaceOnUse">
            <stop offset=".289" stop-color="#fff"/>
            <stop offset=".78" stop-color="#fff" stop-opacity="0"/>
        </linearGradient>
        <linearGradient id="k" x1="12.738" y1="20.152" x2="13.476" y2="20.152" gradientUnits="userSpaceOnUse">
            <stop offset=".289" stop-color="#fff"/>
            <stop offset=".78" stop-color="#fff" stop-opacity="0"/>
        </linearGradient>
        <linearGradient id="l" x1="11.608" y1="21.436" x2="12.162" y2="21.436" gradientUnits="userSpaceOnUse">
            <stop offset=".289" stop-color="#fff"/>
            <stop offset=".78" stop-color="#fff" stop-opacity="0"/>
        </linearGradient>
        <linearGradient id="m" x1="13.851" y1="21.17" x2="14.406" y2="21.17" gradientUnits="userSpaceOnUse">
            <stop offset=".289" stop-color="#fff"/>
            <stop offset=".78" stop-color="#fff" stop-opacity="0"/>
        </linearGradient>
        <linearGradient id="n" x1="7.807" y1="19.923" x2="9.013" y2="19.923" gradientUnits="userSpaceOnUse">
            <stop offset=".289" stop-color="#fff"/>
            <stop offset=".78" stop-color="#fff" stop-opacity="0"/>
        </linearGradient>
        <linearGradient id="o" x1="14.968" y1="17.917" x2="16.174" y2="17.917" gradientUnits="userSpaceOnUse">
            <stop offset=".289" stop-color="#fff"/>
            <stop offset=".78" stop-color="#fff" stop-opacity="0"/>
        </linearGradient>
        <radialGradient id="a" cx="0" cy="0" r="1" gradientUnits="userSpaceOnUse" gradientTransform="matrix(7.7996 0 0 7.9339 22.13 3.267)">
            <stop stop-color="#FFEAFF" stop-opacity=".6"/>
            <stop offset=".681" stop-color="#A087C9"/>
            <stop offset="1" stop-color="#10002F"/>
        </radialGradient>
        <radialGradient id="b" cx="0" cy="0" r="1" gradientUnits="userSpaceOnUse" gradientTransform="matrix(19.0829 0 0 19.4114 17.79 6.649)">
            <stop stop-color="#FFEAFF" stop-opacity=".6"/>
            <stop offset=".681" stop-color="#A087C9"/>
            <stop offset="1" stop-color="#10002F"/>
        </radialGradient>
    </defs>
</svg>
