<svg viewBox="0 0 112 112" xmlns="http://www.w3.org/2000/svg">
    <path fill="#fff" fill-rule="evenodd" d="M112 56c0-30.928-25.072-56-56-56S0 25.072 0 56s25.072 56 56 56 56-25.072 56-56Z"/>
    <path fill-rule="evenodd" d="M56 6c27.614 0 50 22.386 50 50s-22.386 50-50 50S6 83.614 6 56 28.386 6 56 6Zm0 10c22.091 0 40 17.909 40 40S78.091 96 56 96 16 78.091 16 56s17.909-40 40-40Z"/>
    <path fill-rule="evenodd" d="M21 54h50V44H21Zm50 0h18L71 36Z"/>
    <path fill-rule="evenodd" d="M89 59H39v10h50Zm-50 0H21l18 18Z"/>
</svg>
