<svg viewBox="0 0 40 40" fill="none" xmlns="http://www.w3.org/2000/svg">
    <circle cx="20" cy="20" r="20" fill="#fff"/>
    <path d="M24.772 18.962c-.6.532-1.578.821-2.98.821h-6.27v9.554h2.622v-7.069h3.977c1.25 0 2.342-.224 3.273-.68h.001c.947-.474 1.69-1.14 2.224-1.997.536-.861.8-1.88.8-3.045 0-1.16-.261-2.34-.8-3.206-.534-.858-1.277-1.515-2.224-1.97-.931-.474-2.025-.707-3.274-.707h-6.6v2.485h6.271c1.403 0 2.38.289 2.98.822.594.528.915 1.475.915 2.576 0 1.07-.314 1.864-.915 2.416Z" fill="url(#a)"/>
    <path fill-rule="evenodd" clip-rule="evenodd" d="M40 20c0 11.046-8.954 20-20 20S0 31.046 0 20 8.954 0 20 0s20 8.954 20 20Zm-2.62 0c0 9.599-7.781 17.38-17.38 17.38S2.62 29.599 2.62 20 10.401 2.62 20 2.62 37.38 10.401 37.38 20Z" fill="url(#b)"/>
    <defs>
        <linearGradient id="a" x1="92.337" y1="10.303" x2="92.267" y2="46.293" gradientUnits="userSpaceOnUse">
            <stop stop-color="#FF2E72"/>
            <stop offset=".935" stop-color="#4A125E"/>
        </linearGradient>
        <linearGradient id="b" x1="92.337" y1="10.303" x2="92.267" y2="46.293" gradientUnits="userSpaceOnUse">
            <stop stop-color="#FF2E72"/>
            <stop offset=".935" stop-color="#4A125E"/>
        </linearGradient>
    </defs>
</svg>
