<svg viewBox="0 0 24 24" fill="none" xmlns="http://www.w3.org/2000/svg">
    <g clip-path="url(#a)">
        <circle cx="12" cy="12" r="11.5" fill="#311CAF" stroke="#0547F2"/>
        <g clip-path="url(#b)" fill="#E6007A">
            <path d="M12 8.517c1.27 0 2.3-.564 2.3-1.259S13.27 6 12 6c-1.271 0-2.302.563-2.302 1.258 0 .695 1.03 1.259 2.301 1.259Z"/>
            <path d="M12 18c1.27 0 2.3-.564 2.3-1.26 0-.694-1.03-1.258-2.3-1.258-1.271 0-2.302.564-2.302 1.259s1.03 1.258 2.301 1.258Z"/>
            <path d="M8.793 10.259c.635-1.035.631-2.156-.01-2.504-.64-.347-1.674.21-2.31 1.245-.635 1.034-.631 2.155.01 2.503.64.348 1.674-.21 2.31-1.244Z"/>
            <path d="M17.525 15c.636-1.035.632-2.156-.008-2.504-.64-.347-1.675.21-2.31 1.245-.636 1.035-.632 2.156.008 2.503.64.348 1.675-.21 2.31-1.245Z"/>
            <path d="M8.784 16.244c.64-.348.644-1.469.009-2.504s-1.67-1.592-2.31-1.244c-.64.348-.645 1.469-.01 2.504.636 1.035 1.67 1.591 2.31 1.244Z"/>
            <path d="M17.517 11.503c.64-.347.644-1.468.009-2.503-.636-1.035-1.67-1.592-2.31-1.244-.64.347-.644 1.468-.008 2.503.635 1.035 1.669 1.592 2.31 1.244Z"/>
        </g>
    </g>
    <defs>
        <clipPath id="a">
            <path fill="#fff" d="M0 0h24v24H0z"/>
        </clipPath>
        <clipPath id="b">
            <path fill="#fff" d="M6 6h12v12H6z"/>
        </clipPath>
    </defs>
</svg>
