<svg viewBox="0 0 24 24" fill="none" xmlns="http://www.w3.org/2000/svg">
    <g clip-path="url(#a)">
        <circle cx="12" cy="12" r="11.5" fill="#311CAF" stroke="#0547F2"/>
        <g clip-path="url(#b)">
            <path d="M18.754 18h-9.49a.247.247 0 0 1-.127-.036l-3.43-2.098a.242.242 0 0 1-.107-.271.242.242 0 0 1 .234-.176h9.49c.046 0 .09.013.129.036l3.429 2.097a.242.242 0 0 1 .108.272.242.242 0 0 1-.236.176Zm-9.422-.484h8.563l-2.64-1.613H6.694l2.64 1.613Zm8.831-7.936h-9.49a.246.246 0 0 1-.128-.036l-3.43-2.097a.242.242 0 0 1-.106-.272A.242.242 0 0 1 5.244 7h9.49c.046 0 .09.012.129.036l3.428 2.097a.242.242 0 0 1 .107.271.242.242 0 0 1-.235.176Zm-9.421-.484h8.564l-2.641-1.612H6.103l2.639 1.612Zm4.566 2.355a1.491 1.491 0 0 0-1.046-.423h-.015c-.397.002-.776.16-1.055.438a1.473 1.473 0 0 0 .01 2.094c.282.276.663.43 1.06.428h.014c.296-.003.584-.093.828-.258s.433-.398.544-.67a1.466 1.466 0 0 0-.34-1.609Z" fill="#fff"/>
        </g>
    </g>
    <defs>
        <clipPath id="a">
            <path fill="#fff" d="M0 0h24v24H0z"/>
        </clipPath>
        <clipPath id="b">
            <path fill="#fff" d="M5 7h14v11H5z"/>
        </clipPath>
    </defs>
</svg>
