<svg viewBox="0 0 24 24" fill="none" xmlns="http://www.w3.org/2000/svg">
    <g clip-path="url(#a)">
        <circle cx="12" cy="12" r="11.5" fill="#311CAF" stroke="#0547F2"/>
        <path d="M7.126 8.678c-.33.003-.66-.013-.988-.048-.68-.078-1.033-.245-1.109-.525-.123-.44.532-.81 1.036-1.052 1.916-.913 6.117-1.86 9.366-2.112 1.005-.078 1.85-.083 2.445-.015.68.079 1.033.245 1.109.526.123.44-.532.81-1.036 1.051-1.916.913-6.117 1.861-9.366 2.113-.535.041-1.025.062-1.457.062Zm8.32-3.538.016.197c-3.207.249-7.344 1.178-9.221 2.073-.807.385-.824.592-.824.592.027.096.639.414 3.134.22 3.208-.248 7.345-1.178 9.222-2.074.807-.384.824-.59.823-.59-.026-.097-.637-.415-3.134-.222l-.015-.196ZM7.113 19.496a8.85 8.85 0 0 1-.987-.048c-.68-.078-1.033-.245-1.11-.526-.124-.438.531-.808 1.035-1.048 1.916-.913 6.118-1.86 9.367-2.112 1.005-.078 1.849-.083 2.444-.015.68.079 1.033.245 1.111.526.123.44-.532.81-1.035 1.05-1.916.914-6.118 1.862-9.367 2.113-.537.039-1.027.06-1.458.06Zm8.336-3.341c-3.207.248-7.344 1.179-9.222 2.074-.807.385-.824.59-.823.591.027.096.637.415 3.134.221 3.207-.249 7.344-1.179 9.222-2.074.806-.385.824-.591.823-.591-.027-.096-.637-.414-3.134-.221Zm-7.998-1.97c.397.376.836.706 1.31.983l-.195.314a7.05 7.05 0 0 1-1.694-1.358l.006 1.341h-.37V11.82h.357l.005 1.741c.11.13.219.258.328.376l.775-.797h.498l-1.02 1.047Z" fill="#DADADA"/>
        <path d="M14.694 9.837a3.388 3.388 0 0 0-2.357-.941h-.035a3.409 3.409 0 0 0-2.377.976c-.63.62-.98 1.46-.975 2.333.004.873.363 1.709.998 2.323a3.41 3.41 0 0 0 2.388.953h.033a3.424 3.424 0 0 0 1.867-.573c.55-.367.977-.885 1.226-1.49a3.223 3.223 0 0 0 .172-1.904 3.272 3.272 0 0 0-.94-1.677Z" fill="url(#b)"/>
        <path d="M13.774 9.439c-.394-.099-.712-.019-.97.24a1.201 1.201 0 0 0-.089.104c-.067.083-.124.155-.255.184a1.77 1.77 0 0 1-.534.022 1.742 1.742 0 0 1-.131-.025c-.135-.03-.213-.048-.372.1-.05.05-.095.103-.135.16-.07.095-.137.185-.247.226a.567.567 0 0 1-.157.033l-.014-.007-.004.007a1.331 1.331 0 0 1-.23-.014 1.606 1.606 0 0 0-.182-.016c.082-.117.155-.242.216-.371.111-.017.206-.088.298-.158.048-.04.1-.074.154-.105.184-.099.273-.183.432-.354.152-.162.314-.263.511-.364a.717.717 0 0 0 .25-.207c.659.005 1.274.155 1.816.504a.461.461 0 0 1-.357.04Z" fill="#DADADA"/>
        <path d="M15.6 11.729a.909.909 0 0 1-.134-.064.645.645 0 0 0-.218-.085l-.197-.094c-.31-.052-.437-.013-.75-.099a1.411 1.411 0 0 0-.447-.054l-.008-.006-.006.007c-.107.005-.215.02-.336.036l-.083.011-.114.017c-.267.041-.713.11-.868-.06l-.009.008a1.575 1.575 0 0 0-.784-.209c-.429 0-.564-.113-.809-.319a8.86 8.86 0 0 0-.139-.115h.067a1.077 1.077 0 0 0 .414.055.272.272 0 0 0 .162-.076.285.285 0 0 1 .219-.083.621.621 0 0 0 .075-.005.552.552 0 0 0 .278-.14c.074-.057.143-.112.238-.126.023-.004.047-.006.072-.008a.389.389 0 0 0 .18-.043.441.441 0 0 0 .082-.065.313.313 0 0 1 .103-.076c.124-.041.18-.142.246-.225.03-.037.168-.056.205-.093.28-.282.505-.382.934-.276.218.054.302.063.375.011.36.262.664.591.892.97.228.377.377.796.437 1.231a.615.615 0 0 1-.076-.025Zm-4.263 2.846a.308.308 0 0 1-.006-.062.742.742 0 0 0-.017-.144c-.023-.11-.055-.131-.096-.16a.302.302 0 0 1-.087-.082.63.63 0 0 1-.088-.197l-.002-.01c.03.019.06.036.09.05.016.008.034.019.058.03.087.046.207.11.269.105a.208.208 0 0 0 .132-.074c.029-.027.12.025.159.018.071-.012.154-.033.262.01.045.018.085.033.115.043.056.017.113.041.168.063.09.042.186.073.284.091.055.008.11.011.165.01a.582.582 0 0 1 .296.061c.21.103.256.111.486.09.172-.017.391-.033.558-.007.158.025.303.097.444.187 0 .014.02.06.022.074a3.194 3.194 0 0 1-2.345.804.728.728 0 0 0-.103-.09.627.627 0 0 0-.142-.063c-.065-.023-.134-.046-.17-.087-.053-.056-.047-.12-.042-.18a.225.225 0 0 0-.01-.123c-.031-.063-.099-.101-.17-.142a.777.777 0 0 1-.12-.078.417.417 0 0 1-.096-.102c.003-.01-.014-.035-.014-.035Zm-.83-4.986c-.005.084 0 .168.014.25.016.11.03.213-.013.331l-.004.012H10.5v.008c-.056.142-.19.342-.252.433-.142-.019-.208-.122-.278-.232a.754.754 0 0 0-.161-.199.888.888 0 0 0-.101-.066c.241-.293.533-.544.86-.742a.628.628 0 0 0-.06.205Z" fill="#DADADA"/>
        <path d="M14.722 14.478a3.051 3.051 0 0 1-.009-.204c-.003-.36-.02-.48-.269-.682-.19-.158-.41-.235-.48-.47-.039-.129-.04-.295-.04-.468 0-.077 0-.154-.006-.23a.943.943 0 0 1 .082-.215c.042-.088.109-.18.095-.277-.012-.08 0-.023-.036-.131a.42.42 0 0 0-.161-.205 1.37 1.37 0 0 1 .392.054c.314.088.608-.027.919.025l.031.005a.62.62 0 0 1 .207.081.63.63 0 0 0 .233.09c.017.112.025.225.025.338a3.245 3.245 0 0 1-.962 2.303l-.02-.014Zm-5.388-1.325.084.03c.117.038.229.091.332.158.11.073.195.146.258.262.067.126.117.206.252.276l.04.02c.169.085.287.146.374.31.053.099.149.141.241.181.05.02.099.044.145.073l.018.013.034.021c.014.045.047.088.128.157a.9.9 0 0 0 .14.09c.074.043.144.083.174.142a.225.225 0 0 1 .008.118c-.007.072-.014.154.055.23.048.052.128.08.205.106a.66.66 0 0 1 .149.066c.028.02.054.042.08.066a3.413 3.413 0 0 1-1.88-.759 3.288 3.288 0 0 1-1.091-1.676c.069.053.167.087.254.116Zm.537-2.677c.058.09.117.183.222.227-.096.016-.127-.01-.228.075-.054.044-.17.037-.219.088-.083.085-.103.235-.208.289-.111.055-.227.1-.346.138.121-.42.27-.733.538-1.066a.66.66 0 0 1 .09.06.72.72 0 0 1 .151.19Z" fill="#DADADA"/>
        <path d="m14.132 13.609.022.018c.219.18.278.228.281.54 0 .054.003.107.006.16a1.188 1.188 0 0 0-.434-.178 2.466 2.466 0 0 0-.568.006c-.223.021-.175-.037-.38-.137-.13-.064-.305-.013-.398-.014-.053.001-.107-.002-.16-.01a1.205 1.205 0 0 1-.277-.088c-.055-.023-.031-.068-.089-.086-.029-.008-.15-.002-.194-.02-.118-.046-.264-.104-.345-.09a.212.212 0 0 0-.112.07.178.178 0 0 1-.111.065c-.051.003-.17-.06-.249-.101a2.202 2.202 0 0 0-.058-.03 1.056 1.056 0 0 1-.123-.07c0-.003 0-.006-.002-.009l-.007.002a2.378 2.378 0 0 1-.262-.212 1.518 1.518 0 0 0-.584-.33c.137-.02.252-.083.37-.15.098-.06.204-.109.314-.144.134-.039.288-.04.437-.04.157 0 .32-.002.462-.048.148-.048.26-.152.367-.253.114-.107.255-.123.415-.164.127-.033.29-.138.485-.15.244-.014.495-.029.655-.089.091.113.118.272.127.442v.002c.003.068.004.138.005.207 0 .16.002.31.037.431.066.22.2.33.37.47Zm-5.074-.653a2.908 2.908 0 0 1-.092-.726 3.22 3.22 0 0 1 .082-.767 2.5 2.5 0 0 0 .359-.134c.1-.051.178-.068.255-.147.042-.046.087-.09.135-.132.187-.155.357-.134.537-.111.043.005.087.01.131.013.06.047.113.026.16.066.22.184.35.372.75.372.289 0 .515.003.743.137a3.176 3.176 0 0 1 .2.129l.04.027c.128.09.249.175.417.201.057.008.115.01.173.007.11-.002.206-.004.29.08-.154.053-.398.069-.633.083a3.081 3.081 0 0 0-.515.056c-.168.044-.29.157-.407.266-.11.103-.213.2-.354.245-.14.046-.297.046-.452.046-.155.001-.306.002-.446.042-.112.036-.22.085-.32.147-.144.082-.283.159-.463.15a1.798 1.798 0 0 0-.158-.03l-.014-.004v.002a2.675 2.675 0 0 0-.418-.018Z" fill="#DADADA"/>
        <path d="M13.937 11.194c-.058-.559-.552-.743-1.176-.793l-.003-.775-.482.003.004.756c-.127 0-.257.003-.385.007l-.005-.76-.482.003.005.774-.307.006v-.002l-.666.002.003.503s.356-.008.35-.002c.196 0 .26.11.279.205l.005.883c.017 0 .034 0 .05.003h-.05l.007 1.236a.164.164 0 0 1-.057.115.17.17 0 0 1-.124.042c.006.005-.35.002-.35.002l-.093.563.627-.003h.345l.004.783.482-.002-.004-.775c.132.002.26.002.385.001l.004.772.483-.003-.004-.781c.81-.05 1.378-.253 1.443-.997.054-.6-.235-.866-.697-.972.279-.14.452-.386.41-.794Zm-.665 1.678c.003.585-1.023.525-1.35.525l-.005-1.037c.326-.001 1.351-.098 1.355.512Zm-.233-1.463c.003.533-.853.475-1.125.476l-.005-.941c.272-.001 1.127-.09 1.13.465Z" fill="#041333"/>
    </g>
    <defs>
        <linearGradient id="b" x1="12.336" y1="15.482" x2="12.336" y2="8.896" gradientUnits="userSpaceOnUse">
            <stop stop-color="#603211"/>
            <stop offset=".17" stop-color="#DD7D26"/>
            <stop offset=".35" stop-color="#603211"/>
            <stop offset=".54" stop-color="#9C3520"/>
            <stop offset=".77" stop-color="#DD7D26"/>
            <stop offset="1" stop-color="#603211"/>
        </linearGradient>
        <clipPath id="a">
            <path fill="#fff" d="M0 0h24v24H0z"/>
        </clipPath>
    </defs>
</svg>
