<svg viewBox="0 0 24 24" fill="none" xmlns="http://www.w3.org/2000/svg">
    <g clip-path="url(#a)">
        <circle cx="12" cy="12" r="11.5" fill="#311CAF" stroke="#0547F2"/>
        <path d="M14.944 9.364a3.347 3.347 0 0 0-2.357-.963h-.034a3.37 3.37 0 1 0 .034 6.738h.034a3.37 3.37 0 0 0 2.323-5.775Z" fill="url(#b)"/>
        <path d="M14.024 8.956c-.395-.1-.712-.018-.97.246a1.197 1.197 0 0 0-.09.106c-.067.085-.124.159-.254.19a1.722 1.722 0 0 1-.534.021 1.65 1.65 0 0 1-.132-.025c-.132-.03-.213-.049-.372.103-.05.05-.094.105-.134.163-.07.098-.137.19-.247.231a.561.561 0 0 1-.157.034l-.015-.007-.003.008a1.321 1.321 0 0 1-.231-.015 1.547 1.547 0 0 0-.181-.016c.082-.121.154-.248.216-.38.11-.018.206-.09.297-.162.049-.04.1-.076.154-.108.184-.1.273-.187.433-.361a1.75 1.75 0 0 1 .511-.373.72.72 0 0 0 .25-.212c.658.005 1.274.158 1.815.517a.454.454 0 0 1-.356.04Z" fill="#DADADA"/>
        <path d="M15.85 11.3a.908.908 0 0 1-.134-.064.638.638 0 0 0-.217-.088l-.197-.096c-.31-.054-.437-.013-.75-.1a1.384 1.384 0 0 0-.447-.056l-.008-.007-.006.007c-.107.005-.215.02-.336.037l-.083.012c-.034.004-.071.01-.114.017-.267.042-.713.112-.868-.061l-.009.008a1.546 1.546 0 0 0-.784-.214c-.43 0-.564-.116-.81-.327a8.971 8.971 0 0 0-.138-.118h.067a1.05 1.05 0 0 0 .412.055.269.269 0 0 0 .162-.078.633.633 0 0 1 .061-.047.276.276 0 0 1 .157-.038.653.653 0 0 0 .076-.006c.117-.014.199-.08.278-.142.074-.059.143-.114.238-.13.024-.004.047-.005.072-.008a.382.382 0 0 0 .18-.043.444.444 0 0 0 .082-.067.314.314 0 0 1 .101-.078c.124-.042.18-.145.247-.23.029-.037.168-.058.205-.096.28-.288.504-.39.933-.282.219.055.303.065.376.012a3.37 3.37 0 0 1 1.328 2.252.6.6 0 0 1-.074-.024Zm-4.264 2.912a.335.335 0 0 1-.006-.063.768.768 0 0 0-.017-.147c-.023-.113-.055-.135-.096-.164a.308.308 0 0 1-.086-.084.659.659 0 0 1-.088-.202l-.003-.01c.03.02.06.037.092.052l.057.03c.086.047.206.112.267.107a.207.207 0 0 0 .132-.075c.028-.028.12.025.159.018.071-.013.154-.034.262.01.045.019.084.034.114.045.057.017.114.041.168.064.09.043.187.074.285.093.055.007.11.011.165.01a.573.573 0 0 1 .296.063c.21.105.256.113.486.09.172-.016.391-.033.558-.005.158.025.303.099.444.19 0 .014.02.062.022.076a3.152 3.152 0 0 1-2.345.823.723.723 0 0 0-.103-.092.618.618 0 0 0-.142-.064c-.065-.024-.135-.048-.17-.09-.053-.057-.048-.122-.042-.184a.235.235 0 0 0-.01-.126c-.032-.064-.099-.103-.17-.145a.767.767 0 0 1-.121-.08.42.42 0 0 1-.095-.104c.004-.01-.013-.036-.013-.036Zm-.83-5.102c-.005.086 0 .172.014.257a.667.667 0 0 1-.012.338l-.004.012h-.004v.008c-.057.145-.19.35-.252.443-.143-.019-.208-.125-.279-.237a.769.769 0 0 0-.16-.204.893.893 0 0 0-.102-.067c.242-.3.533-.558.86-.76a.662.662 0 0 0-.06.21Z" fill="#DADADA"/>
        <path d="M14.972 14.113a3.154 3.154 0 0 1-.009-.208c-.004-.37-.021-.491-.269-.7-.19-.16-.41-.24-.48-.479-.039-.132-.04-.302-.041-.48 0-.078 0-.157-.005-.235a.998.998 0 0 1 .082-.22c.042-.09.109-.184.095-.283-.012-.083 0-.023-.036-.135a.427.427 0 0 0-.161-.209c.132-.001.264.017.392.055.314.09.607-.027.919.026l.03.005a.603.603 0 0 1 .208.083c.044.026.09.049.138.067.03.011.063.02.095.026.016.114.025.229.025.344a3.36 3.36 0 0 1-.96 2.357l-.023-.014Zm-5.39-1.356.085.03c.117.04.228.094.332.162.11.075.194.15.257.269.067.128.117.21.253.282l.04.02c.167.087.287.15.373.318.053.101.149.144.241.185.05.02.1.045.145.075l.019.012.033.023c.015.045.048.089.128.16.044.035.09.066.14.093.074.043.145.084.174.144.013.04.016.08.008.12-.006.075-.014.159.056.236.048.053.127.082.204.11a.641.641 0 0 1 .15.067c.027.02.054.042.079.067a3.373 3.373 0 0 1-2.971-2.492c.07.056.168.09.255.119Zm.539-2.74c.057.094.117.189.222.233-.096.017-.127-.01-.228.076-.054.046-.17.038-.22.09-.082.088-.102.241-.207.297a2.347 2.347 0 0 1-.346.14c.12-.428.269-.75.538-1.09a.71.71 0 0 1 .09.06c.06.057.111.122.15.195Z" fill="#DADADA"/>
        <path d="m14.381 13.224.022.018c.22.184.278.234.281.552 0 .055.003.11.007.165a1.165 1.165 0 0 0-.435-.183 2.419 2.419 0 0 0-.567.006c-.223.022-.175-.037-.38-.14-.131-.065-.306-.013-.398-.014-.054 0-.107-.002-.16-.01a1.192 1.192 0 0 1-.277-.09c-.056-.024-.032-.07-.09-.088-.028-.01-.149-.003-.194-.02-.117-.049-.264-.108-.345-.093a.212.212 0 0 0-.111.07.177.177 0 0 1-.112.068c-.05.004-.168-.06-.248-.103l-.059-.031a1.085 1.085 0 0 1-.122-.072l-.003-.009-.007.003a2.402 2.402 0 0 1-.261-.217 1.51 1.51 0 0 0-.585-.341c.138-.02.253-.085.37-.153a1.41 1.41 0 0 1 .314-.148c.135-.04.288-.04.437-.04.158 0 .32-.003.463-.05.148-.049.259-.156.367-.258.113-.11.254-.126.414-.169.128-.033.29-.14.486-.152.243-.015.494-.03.654-.092.092.116.119.279.128.453v.002c.003.07.004.14.004.212 0 .163.002.317.038.441.065.227.2.34.369.483Zm-5.074-.668a3.39 3.39 0 0 1-.01-1.528c.123-.037.243-.082.36-.137.1-.052.178-.07.254-.151.043-.047.088-.092.135-.135.187-.159.358-.137.538-.114.043.006.086.011.13.014.06.048.114.027.16.067.22.189.35.381.75.381.29 0 .515.003.744.14.068.042.135.086.2.133l.04.027c.127.092.248.178.416.206.058.008.116.01.174.007.11-.002.206-.004.29.081-.157.056-.399.07-.633.084-.198.013-.385.024-.516.058-.168.045-.29.16-.407.272-.11.106-.213.205-.354.252-.14.047-.297.046-.451.047a1.63 1.63 0 0 0-.446.043c-.113.036-.22.087-.321.15-.144.083-.282.162-.463.152a1.787 1.787 0 0 0-.157-.03l-.015-.003v.002a2.627 2.627 0 0 0-.418-.018ZM7.633 8.195c-.33.002-.66-.014-.987-.05-.68-.08-1.033-.25-1.11-.537-.122-.45.533-.828 1.036-1.076 1.916-.934 6.118-1.904 9.367-2.161 1.005-.08 1.849-.085 2.444-.015.68.08 1.033.25 1.11.538.122.45-.533.828-1.036 1.075-1.916.935-6.118 1.905-9.367 2.162-.535.043-1.025.064-1.457.064Zm9.753-3.482c-.386 0-.853.018-1.416.062-3.208.256-7.344 1.207-9.222 2.123-.807.393-.824.605-.823.605.026.098.638.424 3.134.226 3.207-.254 7.344-1.207 9.222-2.123.807-.393.823-.603.823-.605-.02-.076-.392-.288-1.718-.288ZM7.62 19.265c-.33.002-.66-.014-.988-.05-.68-.08-1.033-.25-1.11-.537-.124-.449.532-.828 1.036-1.073 1.916-.935 6.117-1.905 9.366-2.162 1.005-.08 1.85-.085 2.445-.015.68.08 1.033.25 1.11.538.123.45-.531.829-1.035 1.076-1.916.934-6.117 1.904-9.367 2.161-.536.04-1.026.062-1.457.062Zm9.751-3.482c-.386 0-.852.017-1.415.062-3.208.254-7.345 1.206-9.223 2.122-.806.394-.824.604-.823.605.027.098.637.425 3.134.226 3.207-.254 7.345-1.206 9.222-2.122.807-.394.824-.605.824-.605-.022-.076-.392-.289-1.719-.289Z" fill="#DADADA"/>
    </g>
    <defs>
        <linearGradient id="b" x1="12.586" y1="15.14" x2="12.586" y2="8.401" gradientUnits="userSpaceOnUse">
            <stop stop-color="#603211"/>
            <stop offset=".17" stop-color="#DD7D26"/>
            <stop offset=".35" stop-color="#603211"/>
            <stop offset=".54" stop-color="#9C3520"/>
            <stop offset=".77" stop-color="#DD7D26"/>
            <stop offset="1" stop-color="#603211"/>
        </linearGradient>
        <clipPath id="a">
            <path fill="#fff" d="M0 0h24v24H0z"/>
        </clipPath>
    </defs>
</svg>
