<svg viewBox="0 0 24 24" fill="none" xmlns="http://www.w3.org/2000/svg">
    <g clip-path="url(#a)">
        <circle cx="12" cy="12" r="11.5" fill="#311CAF" stroke="#0547F2"/>
        <path d="M19.006 6.588c-.255-.214-.56-.506-1.116-.579-.522-.073-1.053.297-1.412.542-.36.245-1.038.964-1.318 1.183-.28.22-.999.422-2.155 1.157-1.156.735-5.691 3.82-5.691 3.82l1.18.016-5.263 2.871h.527l-.758.61s.669.188 1.23-.188v.172s6.266-2.616 7.477-1.938l-.738.229c.064 0 1.254.083 1.254.083.029.261.112.513.243.736.13.223.307.414.515.557.718.5.732.776.732.776s-.373.162-.373.365c0 0 .55-.177 1.062-.162.325.014.647.068.96.162 0 0-.04-.219-.537-.365-.497-.146-.989-.719-1.23-1.032a1.54 1.54 0 0 1-.202-1.428c.173-.474.773-.734 2.013-1.412 1.46-.802 1.795-1.396 2.002-1.86.206-.464.511-1.386.683-1.819.217-.558.482-.855.704-1.032.221-.177 1.205-.568 1.205-.568s-.753-.693-.994-.896Z" fill="#fff"/>
    </g>
    <defs>
        <clipPath id="a">
            <path fill="#fff" d="M0 0h24v24H0z"/>
        </clipPath>
    </defs>
</svg>
