<svg viewBox="0 0 24 24" fill="none" xmlns="http://www.w3.org/2000/svg">
    <g clip-path="url(#a)">
        <circle cx="12" cy="12" r="11.5" fill="#311CAF" stroke="#0547F2"/>
        <mask id="b" style="mask-type:luminance" maskUnits="userSpaceOnUse" x="4" y="4" width="16" height="16">
            <path d="M19.92 4H4v16h15.92V4Z" fill="#fff"/>
        </mask>
        <g mask="url(#b)">
            <path d="M11.854 4.28c-3.174 0-5.744 2.585-5.746 5.774 0 .365.034.73.102 1.088l.743-.51c1.305-.9 3.421-.9 4.724 0l.78.538.422.292c1.176.811 3.082.811 4.255 0l.346-.236c.637-3.126-1.366-6.179-4.476-6.82a5.61 5.61 0 0 0-1.148-.118l-.002-.009Z" fill="#F2B705"/>
        </g>
        <mask id="c" style="mask-type:luminance" maskUnits="userSpaceOnUse" x="4" y="4" width="16" height="16">
            <path d="M19.92 4H4v16h15.92V4Z" fill="#fff"/>
        </mask>
        <g mask="url(#c)">
            <path d="M15.082 13.523a4.12 4.12 0 0 1-2.316-.661l-1.199-.826a4.135 4.135 0 0 0-4.343 0l-.775.534a.337.337 0 0 1-.469-.088.34.34 0 0 1 .087-.471l.775-.534a4.817 4.817 0 0 1 5.103 0l1.2.826a3.684 3.684 0 0 0 3.869 0l.454-.314a.337.337 0 0 1 .469.088.34.34 0 0 1-.087.471l-.454.314a4.152 4.152 0 0 1-2.314.661Z" fill="#53CBC8"/>
        </g>
        <mask id="d" style="mask-type:luminance" maskUnits="userSpaceOnUse" x="4" y="4" width="16" height="16">
            <path d="M19.92 4H4v16h15.92V4Z" fill="#fff"/>
        </mask>
        <g mask="url(#d)">
            <path d="M9.37 15.949v-3.264c-.002-.069 0-.137.009-.205a.368.368 0 0 1 .365-.326c.18.006.327.145.344.326.014.113.017.228.012.341v6.507a.38.38 0 0 1-.365.395H9.73a.374.374 0 0 1-.352-.395c0-.006 0-.013.002-.017v-2.172l-.009-1.19Z" fill="#53CBC8"/>
        </g>
        <mask id="e" style="mask-type:luminance" maskUnits="userSpaceOnUse" x="4" y="4" width="16" height="16">
            <path d="M19.92 4H4v16h15.92V4Z" fill="#fff"/>
        </mask>
        <g mask="url(#e)">
            <path d="M8.689 14.306v1.622c0 .277-.15.456-.357.456-.204 0-.367-.194-.37-.457v-3.244c0-.284.166-.476.38-.457.215.02.343.181.345.467.002.532.002 1.071.002 1.613Z" fill="#53CBC8"/>
        </g>
        <mask id="f" style="mask-type:luminance" maskUnits="userSpaceOnUse" x="4" y="4" width="16" height="16">
            <path d="M19.92 4H4v16h15.92V4Z" fill="#fff"/>
        </mask>
        <g mask="url(#f)">
            <path d="M10.784 14.304v-1.137c0-.265.14-.435.348-.435.214.01.382.194.371.41v.014c.007.775.007 1.55 0 2.326 0 .264-.15.424-.369.42-.216-.002-.348-.164-.35-.435v-1.163Z" fill="#53CBC8"/>
        </g>
        <mask id="g" style="mask-type:luminance" maskUnits="userSpaceOnUse" x="4" y="4" width="16" height="16">
            <path d="M19.92 4H4v16h15.92V4Z" fill="#fff"/>
        </mask>
        <g mask="url(#g)">
            <path d="M6.558 14.539v-1.14c0-.264.14-.435.348-.435.214.01.382.194.371.41v.015c.007.776.007 1.55 0 2.327 0 .265-.15.423-.367.42-.214-.002-.35-.164-.352-.435V14.54Z" fill="#53CBC8"/>
        </g>
        <mask id="h" style="mask-type:luminance" maskUnits="userSpaceOnUse" x="4" y="4" width="16" height="16">
            <path d="M19.92 4H4v16h15.92V4Z" fill="#fff"/>
        </mask>
        <g mask="url(#h)">
            <path d="M12.543 13.57c.198 0 .357.16.357.358v.62a.357.357 0 1 1-.713 0v-.62a.361.361 0 0 1 .356-.358Z" fill="#53CBC8"/>
        </g>
        <mask id="i" style="mask-type:luminance" maskUnits="userSpaceOnUse" x="4" y="4" width="16" height="16">
            <path d="M19.92 4H4v16h15.92V4Z" fill="#fff"/>
        </mask>
        <g mask="url(#i)">
            <path d="M13.955 14.114c.197 0 .357.16.357.358v3.476a.357.357 0 1 1-.714 0v-3.476c0-.198.16-.358.357-.358Z" fill="#53CBC8"/>
        </g>
        <mask id="j" style="mask-type:luminance" maskUnits="userSpaceOnUse" x="4" y="4" width="16" height="16">
            <path d="M19.92 4H4v16h15.92V4Z" fill="#fff"/>
        </mask>
        <g mask="url(#j)">
            <path d="M15.358 14.248c.197 0 .356.16.356.359v2.953a.357.357 0 1 1-.713 0v-2.953c0-.198.16-.358.357-.358Z" fill="#53CBC8"/>
        </g>
        <mask id="k" style="mask-type:luminance" maskUnits="userSpaceOnUse" x="4" y="4" width="16" height="16">
            <path d="M19.92 4H4v16h15.92V4Z" fill="#fff"/>
        </mask>
        <g mask="url(#k)">
            <path d="M16.778 13.912c.197 0 .357.16.357.358v1.274a.357.357 0 1 1-.714 0V14.27c0-.198.162-.358.357-.358Z" fill="#53CBC8"/>
        </g>
    </g>
    <defs>
        <clipPath id="a">
            <path fill="#fff" d="M0 0h24v24H0z"/>
        </clipPath>
    </defs>
</svg>
