<svg viewBox="0 0 200 200" xmlns="http://www.w3.org/2000/svg">
    <defs>
        <linearGradient x1="0%" y1="50%" x2="100%" y2="50%" id="a">
            <stop stop-color="#929297" offset="0%"/>
            <stop stop-color="#88878D" offset="78.036%"/>
            <stop stop-color="#BAB9C6" offset="100%"/>
        </linearGradient>
        <linearGradient x1="0%" y1="50%" x2="100%" y2="50%" id="b">
            <stop stop-color="#919FB7" offset="0%"/>
            <stop stop-color="#F8FAFE" offset="100%"/>
        </linearGradient>
    </defs>
    <g fill-rule="nonzero" fill="none">
        <path d="M97.701 45.665C63.89 45.525 33.997 62.54 15.905 88.37A100.243 100.243 0 0 0 .252 123.63 101.336 101.336 0 0 1 0 116.476c0-54.878 44.25-99.364 98.836-99.364 59.306 0 101.014 41.163 101.014 91.94 0 39.535-25.284 73.242-60.764 86.23-8.623 2.956-17.433 4.568-26.618 4.568-42.664 0-79.523-34.772-79.523-77.664 0-7.369 1.021-14.498 5.2-21.253-1.568 4.167-1.792 7.259-1.792 10.403 0 35.639 29.874 63.387 65.323 63.387s64.186-28.89 64.186-64.53c0-30.18-20.61-55.522-48.452-62.575-5.676-1.141-11.478-1.926-19.709-1.953Z" fill="url(#a)" transform="rotate(180 99.925 108.48)"/>
        <path d="M97.701 28.553c-33.812-.14-63.704 16.876-81.796 42.707A100.243 100.243 0 0 0 .252 106.517 101.336 101.336 0 0 1 0 99.364C0 44.487 44.25 0 98.836 0 158.142 0 199.85 41.163 199.85 91.94c0 39.535-25.284 73.242-60.764 86.23-8.623 2.956-17.433 4.568-26.618 4.568-42.664 0-79.523-34.771-79.523-77.664 0-7.369 1.021-14.498 5.2-21.252-1.568 4.166-1.792 7.258-1.792 10.402 0 35.639 29.874 63.387 65.323 63.387s64.186-28.89 64.186-64.529c0-30.181-20.61-55.523-48.452-62.576-5.676-1.141-11.478-1.926-19.709-1.953Z" fill="url(#b)"/>
    </g>
</svg>
