<svg viewBox="0 0 125 125" xmlns="http://www.w3.org/2000/svg">
    <linearGradient id="a" x1="0%" x2="100%" y1="50%" y2="50%">
        <stop offset="0" stop-color="#929297"/>
        <stop offset=".78" stop-color="#88878d"/>
        <stop offset="1" stop-color="#bab9c6"/>
    </linearGradient>
    <linearGradient id="b" x1="0%" x2="100%" y1="50%" y2="50%">
        <stop offset="0" stop-color="#919fb7"/>
        <stop offset="1" stop-color="#f8fafe"/>
    </linearGradient>
    <g fill="none" fill-rule="evenodd">
        <path d="M59.582 27.848c-20.62-.085-38.85 10.291-49.883 26.044a61.132 61.132 0 0 0-9.545 21.5A61.798 61.798 0 0 1 0 71.032c0-33.466 26.985-60.596 60.273-60.596 36.168 0 61.602 25.103 61.602 56.068 0 24.11-15.419 44.666-37.056 52.586-5.258 1.803-10.63 2.786-16.232 2.786-26.018 0-48.496-21.205-48.496-47.362 0-4.494.623-8.841 3.171-12.96-.956 2.54-1.092 4.426-1.092 6.343 0 21.734 18.217 38.656 39.835 38.656s39.143-17.618 39.143-39.352c0-18.406-12.568-33.86-29.548-38.161-3.46-.696-6.999-1.175-12.018-1.191z" fill="url(#a)" transform="rotate(180 60.938 66.155)"/>
        <path d="M59.582 17.412c-20.62-.084-38.85 10.292-49.883 26.044A61.132 61.132 0 0 0 .154 64.957 61.798 61.798 0 0 1 0 60.595C0 27.13 26.985 0 60.273 0c36.168 0 61.602 25.103 61.602 56.068 0 24.11-15.419 44.666-37.056 52.586-5.258 1.803-10.63 2.786-16.232 2.786-26.018 0-48.496-21.205-48.496-47.362 0-4.494.623-8.842 3.171-12.96-.956 2.54-1.092 4.425-1.092 6.343 0 21.734 18.217 38.656 39.835 38.656s39.143-17.619 39.143-39.352c0-18.406-12.568-33.86-29.548-38.162-3.46-.695-6.999-1.174-12.018-1.19z" fill="url(#b)"/>
    </g>
</svg>
