<svg xmlns="http://www.w3.org/2000/svg" viewBox="0 0 259.6 259.6">
    <defs>
        <style>
            .b{fill:#ea328a}
        </style>
    </defs>
    <circle cx="129.8" cy="129.8" r="129.8" style="fill:#3d2a76"/>
    <path class="b" d="M187.1 162h-9.2l-.6-1.2s-5-10.9-17.4-13.7c11.9-3.5 20-11.1 24-19.9h9.2a30.8 30.8 0 0 0 2.8-12.6 57.3 57.3 0 0 0-1.3-12.6c-3.9-17.5-16.8-29.8-42.2-32.2h-.2l-2.7-.2H70.6v57.7h-9.2V162h9.2v28.8h34.8V162h26.3c11.4 0 15 6.7 22.3 23.3q1.2 2.5 2.4 5.4h43.9c-4.6-11.3-11.2-24.7-13.2-28.7Zm-81.7-60h35.2c7.2 0 13.9 5.4 13.9 12.6s-6.7 12.6-13.9 12.6h-35.2Z"/>
    <path class="b" d="M155.4 63.1v-7.7h8.4v-34H134v33.9h-8.4v7h17.2a125.2 125.2 0 0 1 12.6.8Z"/>
    <path class="b" d="M113.3 62.4v-7h8.4V41.1H91.9v14.2h-8.4v7.1H113.3z"/>
    <path class="b" d="M112.4 120.2h11.5V109h-11.5v11.2z"/>
    <path class="b" d="m150 193.6-1.1-2.4c-8.8-19.9-10.5-22.1-17.3-22.1h-19.2v28.8H96.8v6.7h29.8v-25.3h11.6v47.8H168v-29.3h-16.2Z"/>
</svg>
