<svg viewBox="0 0 36 36" fill="none" xmlns="http://www.w3.org/2000/svg">
    <rect x=".002" width="36.002" height="36" rx="18" fill="url(#a)"/>
    <path d="m12.883 19.748 5.313-11.036 5.226 11.036H12.883Z" fill="url(#b)"/>
    <path d="M23.97 21.978c0 2.86-2.604 5.18-5.817 5.18s-5.818-2.32-5.818-5.18 2.604-5.18 5.818-5.18c3.213 0 5.818 2.32 5.818 5.18Z" fill="url(#c)"/>
    <path fill-rule="evenodd" clip-rule="evenodd" d="m16.63 7-3.313 7.698H9.003v2.625h3.137l-.612 1.4a7.047 7.047 0 0 0 .465 6.54c2.768 4.463 9.297 4.396 12.033-.087a7.12 7.12 0 0 0 .527-6.37l-.601-1.483h3.05v-2.625H22.82L19.593 7H16.63Zm5.057 16.931a4.23 4.23 0 0 0 .338-3.803l-3.913-9.804-4.069 9.194a4.433 4.433 0 0 0 .3 4.15l.173.276c1.66 2.646 5.52 2.64 7.171-.013Z" fill="#fff"/>
    <defs>
        <linearGradient id="b" x1="18.153" y1="8.712" x2="18.153" y2="27.158" gradientUnits="userSpaceOnUse">
            <stop offset=".201" stop-color="#fff"/>
            <stop offset="1" stop-color="#05D1D2"/>
        </linearGradient>
        <linearGradient id="c" x1="18.153" y1="8.712" x2="18.153" y2="27.158" gradientUnits="userSpaceOnUse">
            <stop offset=".201" stop-color="#fff"/>
            <stop offset="1" stop-color="#05D1D2"/>
        </linearGradient>
        <radialGradient id="a" cx="0" cy="0" r="1" gradientUnits="userSpaceOnUse" gradientTransform="matrix(.44667 16.05839 -16.05929 .4467 18.003 18)">
            <stop offset=".113" stop-color="#05D2D3"/>
            <stop offset="1" stop-color="#025F70"/>
        </radialGradient>
    </defs>
</svg>
