<svg width="36" height="36" viewBox="0 0 36 36" fill="none" xmlns="http://www.w3.org/2000/svg">
<rect x="0.00183105" width="36.0019" height="36" rx="18" fill="url(#paint0_radial_4282_14058)"/>
<path d="M12.883 19.748L18.1958 8.71191L23.4225 19.748H12.883Z" fill="url(#paint1_linear_4282_14058)"/>
<path d="M23.9707 21.9783C23.9707 24.8387 21.3659 27.1576 18.1527 27.1576C14.9395 27.1576 12.3347 24.8387 12.3347 21.9783C12.3347 19.1178 14.9395 16.7989 18.1527 16.7989C21.3659 16.7989 23.9707 19.1178 23.9707 21.9783Z" fill="url(#paint2_linear_4282_14058)"/>
<path fill-rule="evenodd" clip-rule="evenodd" d="M16.6299 7L13.3173 14.6985H9.00256V17.3229H12.1405L11.5276 18.7223C10.5973 20.8463 10.7715 23.292 11.9933 25.2628C14.7605 29.7264 21.2896 29.659 24.0255 25.1761C25.1953 23.2592 25.3963 20.8876 24.5529 18.8063L23.9517 17.3229H27.0026V14.6985H22.8185L19.5933 7H18.1116H16.6299ZM21.6872 23.9313C22.3985 22.7893 22.5239 21.377 22.0251 20.1275L18.1116 10.3243L14.0434 19.5183C13.4473 20.8655 13.5595 22.4208 14.3427 23.6685L14.5157 23.944C16.1769 26.5903 20.0354 26.5835 21.6872 23.9313Z" fill="white"/>
<defs>
<radialGradient id="paint0_radial_4282_14058" cx="0" cy="0" r="1" gradientUnits="userSpaceOnUse" gradientTransform="translate(18.0028 18) rotate(88.4067) scale(16.0646 16.0655)">
<stop offset="0.112783" stop-color="#05D2D3"/>
<stop offset="1" stop-color="#025F70"/>
</radialGradient>
<linearGradient id="paint1_linear_4282_14058" x1="18.1527" y1="8.71191" x2="18.1527" y2="27.1576" gradientUnits="userSpaceOnUse">
<stop offset="0.201068" stop-color="white"/>
<stop offset="1" stop-color="#05D1D2"/>
</linearGradient>
<linearGradient id="paint2_linear_4282_14058" x1="18.1527" y1="8.71191" x2="18.1527" y2="27.1576" gradientUnits="userSpaceOnUse">
<stop offset="0.201068" stop-color="white"/>
<stop offset="1" stop-color="#05D1D2"/>
</linearGradient>
</defs>
</svg>
