<svg viewBox="0 0 400 400" fill="none" xmlns="http://www.w3.org/2000/svg">
    <path d="M200 400c-53.434 0-103.636-20.808-141.414-58.586C20.808 303.636 0 253.434 0 200 0 146.566 20.808 96.364 58.586 58.586 96.364 20.808 146.566 0 200 0c53.434 0 103.636 20.808 141.414 58.586C379.192 96.364 400 146.566 400 200c0 53.434-20.808 103.636-58.586 141.414C303.636 379.192 253.434 400 200 400Zm0-383.737C98.687 16.263 16.263 98.687 16.263 200c0 101.313 82.424 183.737 183.737 183.737 101.313 0 183.737-82.424 183.737-183.737 0-101.313-82.424-183.737-183.737-183.737Zm-23.838 125.151L59.394 112.525l77.576 92.02-63.637 102.223 111.515-45.354 77.576 92.02-8.687-120 111.516-45.353-116.768-28.889-8.687-120-63.636 102.222Z" fill="url(#a)"/>
    <defs>
        <linearGradient id="a" x1="29.78" y1="157.938" x2="418.254" y2="253.932" gradientUnits="userSpaceOnUse">
            <stop stop-color="#FEF5A0"/>
            <stop offset=".635" stop-color="#93D4CB"/>
            <stop offset="1" stop-color="#719AD1"/>
        </linearGradient>
    </defs>
</svg>
