<svg viewBox="0 0 24 24" fill="none" xmlns="http://www.w3.org/2000/svg">
    <mask id="a" style="mask-type:alpha" maskUnits="userSpaceOnUse" x="0" y="0" width="24" height="24">
        <path d="M12 24c6.627 0 12-5.373 12-12S18.627 0 12 0 0 5.373 0 12s5.373 12 12 12Z" fill="#D9D9D9"/>
    </mask>
    <g mask="url(#a)">
        <path d="M24 0H0v24h24V0Z" fill="#E50571"/>
        <path d="M12.101 4.418c-.932 0-1.687 3.38-1.687 7.548s.755 7.548 1.687 7.548 1.687-3.38 1.687-7.548c0-4.169-.755-7.548-1.687-7.548Zm.117 14.67c-.107.142-.213.035-.213.035-.43-.497-.644-1.42-.644-1.42-.75-2.416-.572-7.602-.572-7.602.353-4.117.995-5.09 1.213-5.305a.133.133 0 0 1 .17-.014c.317.225.583 1.163.583 1.163.785 2.913.714 5.648.714 5.648.07 2.38-.393 5.044-.393 5.044-.358 2.024-.858 2.45-.858 2.45Z" fill="#fff"/>
        <path d="M18.648 8.21c-.463-.809-3.77.218-7.388 2.292-3.617 2.075-6.17 4.412-5.706 5.22.464.808 3.771-.218 7.389-2.293 3.617-2.074 6.169-4.411 5.705-5.22Zm-12.666 7.4c-.177-.021-.137-.167-.137-.167.218-.62.911-1.266.911-1.266 1.722-1.853 6.31-4.278 6.31-4.278 3.746-1.743 4.91-1.67 5.205-1.588a.134.134 0 0 1 .096.142c-.035.386-.719 1.084-.719 1.084-2.134 2.13-4.542 3.43-4.542 3.43-2.03 1.247-4.57 2.169-4.57 2.169-1.935.697-2.554.475-2.554.475Z" fill="#fff"/>
        <path d="M18.632 15.75c.467-.807-2.078-3.154-5.683-5.244s-6.911-3.13-7.378-2.322c-.467.808 2.078 3.154 5.685 5.244 3.607 2.09 6.909 3.13 7.376 2.322ZM5.881 8.496c-.07-.164.076-.204.076-.204.646-.121 1.552.156 1.552.156 2.466.562 6.864 3.316 6.864 3.316 3.385 2.37 3.905 3.413 3.982 3.71a.133.133 0 0 1-.073.154c-.354.162-1.3-.08-1.3-.08-2.913-.78-5.244-2.212-5.244-2.212-2.094-1.13-4.165-2.868-4.165-2.868-1.574-1.325-1.692-1.97-1.692-1.97v-.002Z" fill="#fff"/>
        <path d="M12.083 12.835a.888.888 0 1 0 0-1.776.888.888 0 0 0 0 1.776Z" fill="#fff"/>
        <path d="M15.726 9.07a.524.524 0 0 0 .515-.533.524.524 0 0 0-.515-.533.524.524 0 0 0-.515.533c0 .294.23.532.515.532Z" fill="#fff"/>
        <path d="M7.273 10.882a.524.524 0 0 0 .515-.533.524.524 0 0 0-.515-.533.524.524 0 0 0-.515.533c0 .294.23.533.515.533Z" fill="#fff"/>
        <path d="M11.039 17.417a.524.524 0 0 0 .515-.533.524.524 0 0 0-.515-.532.524.524 0 0 0-.516.532c0 .295.231.533.516.533Z" fill="#fff"/>
    </g>
</svg>
