<svg viewBox="0 0 24 24" fill="none" xmlns="http://www.w3.org/2000/svg">
    <mask id="a" style="mask-type:alpha" maskUnits="userSpaceOnUse" x="0" y="0" width="24" height="24">
        <path d="M12 24c6.627 0 12-5.373 12-12S18.627 0 12 0 0 5.373 0 12s5.373 12 12 12Z" fill="#D9D9D9"/>
    </mask>
    <g mask="url(#a)">
        <path d="M24 0H0v24h24V0Z" fill="#E50571"/>
        <path d="M12.38 18.06c-1.495 0-2.72-.332-3.677-.997-.878-.61-1.437-1.46-1.678-2.55a.315.315 0 0 1 .229-.373l2.069-.549c.178-.047.357.07.407.252.108.395.26.717.453.966.262.316.578.546.948.688.386.127.802.19 1.25.19.678 0 1.179-.119 1.502-.356.324-.253.486-.561.486-.925a.917.917 0 0 0-.463-.83c-.308-.206-.801-.372-1.48-.499l-.647-.119a12.041 12.041 0 0 1-2.197-.64c-.663-.285-1.195-.672-1.596-1.163-.4-.49-.6-1.123-.6-1.898 0-1.17.415-2.064 1.248-2.681.832-.633 1.927-.949 3.284-.949 1.28 0 2.343.293 3.191.878.755.52 1.277 1.186 1.568 1.995a.312.312 0 0 1-.203.401l-2.07.653c-.18.057-.367-.058-.428-.242-.14-.42-.365-.732-.67-.933-.37-.253-.833-.38-1.388-.38-.555 0-.98.103-1.272.309a.907.907 0 0 0-.44.807c0 .38.155.664.463.854.308.174.724.308 1.249.403l.647.119c.864.158 1.642.372 2.336.64.709.254 1.264.625 1.665 1.116.416.474.624 1.123.624 1.945 0 1.234-.44 2.19-1.318 2.871-.863.665-2.027.997-3.492.997Z" fill="#fff"/>
    </g>
</svg>
