<svg viewBox="0 0 100 100" fill="none" xmlns="http://www.w3.org/2000/svg">
    <path d="M50 100c27.614 0 50-22.386 50-50S77.614 0 50 0 0 22.386 0 50s22.386 50 50 50Z" fill="#B026CF"/>
    <path d="M49.965 28.703s-4.634 9.7-26.934 29.567l26.934-29.567Zm.001 8.998S46.1 50.368 20.9 62.068L49.966 37.7Zm.001 9.033s-3.1 13.3-31.167 19.134l31.167-19.134Z" fill="#fff"/>
    <path d="M49.966 55.734s-2.367 13.934-33.3 13.934l33.3-13.934Zm0-36.066s-5.4 11.433-24.8 34.8l24.867-34.8s5.4 11.433 24.8 34.8l-24.867-34.8Z" fill="#fff"/>
    <path d="M50.033 28.703s4.633 9.7 26.933 29.567L50.033 28.703Zm0 8.998S53.9 50.368 79.1 62.068L50.033 37.7Zm0 9.033s3.1 13.3 31.167 19.134L50.033 46.734Z" fill="#fff"/>
    <path d="M50.033 55.734s2.367 13.934 33.3 13.934l-33.3-13.934Z" fill="#fff"/>
</svg>
