<svg width="200" height="200" viewBox="0 0 200 200" fill="none" xmlns="http://www.w3.org/2000/svg">
<g clip-path="url(#clip0_14_132)">
<circle cx="100" cy="100" r="100" fill="#6349F4"/>
<circle cx="100" cy="100" r="98.5" stroke="#FEFEFE" stroke-opacity="0.3" stroke-width="3"/>
<path d="M139.222 64.5245L110.443 47.9066C103.725 44.0311 95.385 44.0311 88.6673 47.9066L59.8878 64.5245C53.17 68.4041 49 75.6281 49 83.3831V116.619C49 124.374 53.1742 131.598 59.8878 135.478L88.6673 152.091C92.0241 154.029 95.7916 155 99.555 155C103.318 155 107.086 154.029 110.443 152.091L139.222 135.478C145.94 131.598 150.11 124.374 150.11 116.619V83.3831C150.114 75.6322 145.94 68.4041 139.222 64.5245ZM140.504 116.619C140.504 120.951 138.173 124.988 134.417 127.158L105.638 143.772C101.887 145.938 97.2232 145.938 93.4681 143.772L64.6885 127.158C60.9334 124.992 58.6015 120.951 58.6015 116.619V83.3831C58.6015 79.0512 60.9334 75.0139 64.6885 72.8439L93.4681 56.2259C95.3435 55.143 97.4472 54.5994 99.5509 54.5994C101.655 54.5994 103.758 55.143 105.634 56.2259L134.413 72.8439C138.168 75.0098 140.5 79.0512 140.5 83.3831V116.619H140.504Z" fill="white"/>
<path d="M122.956 80.7106L96.6913 95.9385C95.0979 96.8596 94.2514 98.5525 94.3137 100.274C94.3095 100.357 94.2888 100.432 94.2888 100.515V121.544C94.2888 124.195 96.4381 126.349 99.0937 126.349C101.745 126.349 103.899 124.199 103.899 121.544V102.88L127.761 89.0382C130.06 87.7104 130.844 84.7727 129.521 82.474C128.193 80.1712 125.251 79.3828 122.956 80.7106Z" fill="white"/>
</g>
<defs>
<clipPath id="clip0_14_132">
<rect width="200" height="200" fill="white"/>
</clipPath>
</defs>
</svg>
