<svg viewBox="0 0 160 160" xmlns="http://www.w3.org/2000/svg">
    <path d="M80 160c44.2 0 80-35.8 80-80S124.2 0 80 0 0 35.8 0 80s35.8 80 80 80z" fill="#b026cf"/>
    <path d="M80 46c11.6 0 21.1-5.5 21.1-12.3S91.6 21.5 80 21.5 58.9 27 58.9 33.8 68.4 46 80 46zm0 92.5c11.6 0 21.1-5.5 21.1-12.3S91.6 114 80 114s-21.1 5.5-21.1 12.3 9.5 12.2 21.1 12.2zM50.6 63c5.8-10.1 5.8-21-.1-24.4s-15.4 2-21.2 12.1-5.8 21 .1 24.4c5.9 3.5 15.4-2 21.2-12.1zm80 46.2c5.8-10.1 5.8-21-.1-24.4-5.9-3.4-15.3 2-21.2 12.1-5.8 10.1-5.8 21 .1 24.4s15.4-2 21.2-12.1zm-80.1 12.2c5.9-3.4 5.9-14.3.1-24.4S35.3 81.5 29.4 84.9s-5.9 14.3-.1 24.4c5.8 10 15.3 15.5 21.2 12.1zm80.1-46.2c5.9-3.4 5.9-14.3.1-24.4-5.8-10.1-15.3-15.5-21.2-12.1-5.9 3.4-5.9 14.3-.1 24.4 5.8 10 15.3 15.4 21.2 12.1z" fill="#fff"/>
    <path d="M80 64.5s-3.4 7-19.4 21.3L80 64.5zm0 6.4s-2.8 9.2-20.9 17.5L80 70.9zm0 6.5S77.7 87 57.6 91.1L80 77.4zm0 6.5S78.2 94 56 94l24-10.1z" fill="#fff"/>
    <path d="M80 58s-3.9 8.2-17.9 25L80 58c.1 0 3.9 8.2 17.9 25L80 58z" fill="#fff"/>
    <path d="M80 64.5s3.4 7 19.4 21.3L80 64.5zm0 6.4s2.8 9.2 20.9 17.5L80 70.9zm0 6.5s2.3 9.6 22.4 13.7L80 77.4zm0 6.5S81.8 94 104 94L80 83.9z" fill="#fff"/>
</svg>
