<svg viewBox="0 0 100 100" xmlns="http://www.w3.org/2000/svg">
    <path d="M50 99.667c27.43 0 49.666-22.236 49.666-49.666C99.666 22.57 77.43.334 50 .334 22.57.334.333 22.57.333 50.001.333 77.43 22.57 99.667 50 99.667Z" fill="#fff"/>
    <path d="M50 0C22.4 0 0 22.4 0 50s22.4 50 50 50 50-22.4 50-50S77.6 0 50 0Z" fill="#B026CF"/>
    <path d="M63.267 16.466c-.667-.5-1.433-1.2-2.833-1.367-1.334-.167-2.667.7-3.567 1.3-.9.567-2.633 2.3-3.333 2.833-.7.534-2.534 1-5.434 2.734-2.9 1.766-14.366 9.1-14.366 9.1l3 .033-13.267 6.833H24.8l-1.9 1.434s1.7.466 3.1-.467v.4s15.8-6.233 18.867-4.633L43 35.232c.167 0 3.167.2 3.167.2.067.634.3 1.234.6 1.767.333.533.767 1 1.3 1.333 1.8 1.167 1.867 1.867 1.867 1.867s-.934.4-.934.867c0 0 1.4-.434 2.667-.4a9.515 9.515 0 0 1 2.4.4s-.1-.534-1.333-.867c-1.234-.333-2.5-1.7-3.1-2.467-.367-.466-.634-1.033-.7-1.633-.1-.6-.034-1.2.2-1.767.433-1.133 1.966-1.766 5.1-3.366 3.7-1.9 4.533-3.334 5.066-4.434.534-1.1 1.3-3.3 1.734-4.333.566-1.333 1.2-2.033 1.766-2.467.567-.433 3.034-1.333 3.034-1.333s-1.967-1.633-2.567-2.133ZM51 53.031s-3.233 6.667-18.533 20.3L51 53.031Zm0 6.235s-2.7 8.733-20 16.766l20-16.766Zm0 6.166s-2.2 9.166-21.467 13.133L51 65.432Zm0 6.234s-1.667 9.6-22.934 9.6L51 71.666Z" fill="#fff"/>
    <path d="M51 46.865s-3.766 7.8-17.066 23.967L51 46.865c.1 0 3.767 7.8 17.067 23.967L51 46.865Z" fill="#fff"/>
    <path d="M51 53.031s3.233 6.667 18.533 20.3L51 53.031Zm0 6.235s2.7 8.733 20 16.766L51 59.266Zm0 6.166s2.2 9.166 21.467 13.133L51 65.432Zm0 6.234s1.667 9.6 22.933 9.6L51 71.666Z" fill="#fff"/>
</svg>
