<svg viewBox="0 0 31 31" xmlns="http://www.w3.org/2000/svg">
    <path fill="#1e1e1e" fill-rule="evenodd" d="M31 15.5C31 6.94 24.06 0 15.5 0 6.94 0 0 6.94 0 15.5 0 24.06 6.94 31 15.5 31 24.06 31 31 24.06 31 15.5Z"/>
    <linearGradient id="a" x1="22.627" y1="21.465" x2="6.416" y2="13.067" gradientUnits="userSpaceOnUse">
        <stop offset="0" stop-color="#30bcd0"/>
        <stop offset="1" stop-color="#ca28cc"/>
    </linearGradient>
    <path fill="url(#a)" fill-rule="evenodd" d="m24.758 7.62 2.571-.328 1.458 2.612-1.632 1.845c.198.568.355 1.15.468 1.74l2.37.857-.045 2.992-2.338.783c-.113.589-.27 1.17-.467 1.736l1.627 1.93-1.534 2.57-2.413-.491a12.23 12.23 0 0 1-1.277 1.27l.443 2.482-2.614 1.458-1.233-1.091v-4.727a8.8 8.8 0 0 0 2.092-13.136l2.525-2.501Zm-16.083 2.6a8.8 8.8 0 0 0 2.174 13.037v4.65l-1.36 1.145-2.569-1.534.49-2.412c-.454-.393-.879-.82-1.27-1.276l-2.483.443-1.458-2.613 1.632-1.845a12.202 12.202 0 0 1-.468-1.741l-2.37-.857.044-2.992 2.338-.783c.113-.589.27-1.17.467-1.736l-1.626-1.93 1.534-2.57 2.395.488Z"/>
    <path fill="#fff" fill-rule="evenodd" d="m7.048 4.003 2.614-1.458 1.844 1.632c.568-.199 1.15-.355 1.741-.468l.856-2.37 2.993.044.781 2.338c.59.114 1.17.27 1.737.467l1.929-1.626 2.568 1.534-.49 2.412c.178.152.35.311.519.476l-2.505 2.504a8.848 8.848 0 0 0-1.378-1.083l-1.46-.93v8.782l-1.628.94-1.63.941-1.628-.94-1.629-.941V7.476l-1.46.93c-.53.339-1.023.734-1.47 1.178L6.85 7.081c.206-.204.42-.402.643-.593Z"/>
</svg>
