<svg xmlns="http://www.w3.org/2000/svg" viewBox="0 0 991.8 863">
    <defs>
        <linearGradient id="a" x1="-76.3" y1="812.7" x2="1190.6" y2="150.2" gradientTransform="translate(0 -202)" gradientUnits="userSpaceOnUse">
            <stop offset="0" stop-color="#ffa4ff"/>
            <stop offset="0" stop-color="#f8a6ff"/>
            <stop offset=".2" stop-color="#dbb1ff"/>
            <stop offset=".4" stop-color="#d1b6ff"/>
            <stop offset=".9" stop-color="#00ffe5"/>
        </linearGradient>
        <linearGradient id="b" x1="440.7" y1="605" x2="571.2" y2="126.3" gradientTransform="translate(0 -202)" gradientUnits="userSpaceOnUse">
            <stop offset="0" stop-color="#16173e" stop-opacity=".3"/>
            <stop offset=".3" stop-color="#16173e" stop-opacity=".2"/>
            <stop offset=".9" stop-color="#16173e" stop-opacity="0"/>
        </linearGradient>
        <linearGradient id="c" x1="-34.3" y1="848.6" x2="1102" y2="345.7" gradientTransform="translate(0 -202)" gradientUnits="userSpaceOnUse">
            <stop offset="0" stop-color="#ffa4ff"/>
            <stop offset="0" stop-color="#f8a6ff"/>
            <stop offset=".2" stop-color="#dbb1ff"/>
            <stop offset=".4" stop-color="#d1b6ff"/>
            <stop offset=".9" stop-color="#00ffe5"/>
        </linearGradient>
        <linearGradient id="d" x1="382.2" y1="739.4" x2="556.3" y2="381.6" gradientTransform="translate(0 -202)" gradientUnits="userSpaceOnUse">
            <stop offset="0" stop-color="#16173e" stop-opacity=".3"/>
            <stop offset=".3" stop-color="#16173e" stop-opacity=".2"/>
            <stop offset=".9" stop-color="#16173e" stop-opacity="0"/>
        </linearGradient>
        <linearGradient id="e" x1="-83" y1="921" x2="937.3" y2="529.3" gradientTransform="translate(0 -202)" gradientUnits="userSpaceOnUse">
            <stop offset="0" stop-color="#ffa4ff"/>
            <stop offset="0" stop-color="#f8a6ff"/>
            <stop offset=".2" stop-color="#dbb1ff"/>
            <stop offset=".4" stop-color="#d1b6ff"/>
            <stop offset=".9" stop-color="#00ffe5"/>
        </linearGradient>
    </defs>
    <path class="cls-1" style="fill:url(#a)" d="M.4 16.7V312c2.2 262.8 223.2 487.5 495.7 487.5S989.7 587 991.7 324.2V16.7s-68.7-33.5-147 46.4c-50.2 51.4-90.4 235.8-197.9 237.5-143.5 2.2-241.2-188.6-358-259.9C166.9-33.7.4 16.7.4 16.7Z"/>
    <path class="cls-4" style="fill:url(#b)" d="M.4 16.7V312c2.2 262.8 223.2 487.5 495.7 487.5S989.7 587 991.7 324.2V16.7s-68.7-33.5-147 46.4c-50.2 51.4-90.4 235.8-197.9 237.5-143.5 2.2-241.2-188.6-358-259.9C166.9-33.7.4 16.7.4 16.7Z"/>
    <path class="cls-2" style="fill:url(#c)" d="M991.7 354.6V140.9c-28 4.7-62.4 18.3-98.8 51.9-56.3 52-101.3 238.6-221.9 240.3-161 2.2-270.6-190.8-401.6-262.9C178.5 120.1 65.6 125.9 0 135.3v206.2C2.2 622.7 223.3 863 495.9 863s493.7-227.3 495.8-508.4Z"/>
    <path class="cls-3" style="fill:url(#d)" d="M991.7 354.6V140.9c-28 4.7-62.4 18.3-98.8 51.9-56.3 52-101.3 238.6-221.9 240.3-161 2.2-270.6-190.8-401.6-262.9C178.5 120.1 65.6 125.9 0 135.3v206.2C2.2 622.7 223.3 863 495.9 863s493.7-227.3 495.8-508.4Z"/>
    <path class="cls-5" style="fill:url(#e)" d="M991.7 354.6v-48.4c-21.4 8.2-44.8 21.3-68.9 42-60.6 52-109.1 238.6-238.9 240.3-173.3 2.2-291.3-190.8-432.3-262.9-81.8-41.9-180.3-44.7-251.6-39v55.1C2.2 622.7 223.3 863 495.9 863s493.8-227.3 495.8-508.4Z"/>
</svg>
