<svg width="32" height="32" viewBox="0 0 32 32" fill="none" xmlns="http://www.w3.org/2000/svg">
<g clip-path="url(#clip0_4384_3991)">
<mask id="mask0_4384_3991" style="mask-type:alpha" maskUnits="userSpaceOnUse" x="0" y="0" width="32" height="32">
<circle cx="16" cy="16" r="16" fill="#E6007A"/>
</mask>
<g mask="url(#mask0_4384_3991)">
<circle cx="16" cy="16" r="16" fill="#262626"/>
<path fill-rule="evenodd" clip-rule="evenodd" d="M10.5693 14.2799L10.6589 10.7415C10.6589 8.87698 11.7499 7.95333 13.3279 8.42109C13.4667 8.46222 13.666 8.64906 13.666 8.81486L13.6984 12.2064C13.6999 12.3639 13.828 12.4908 13.9855 12.4908C14.144 12.4908 14.2726 12.3623 14.2726 12.2037V8.10245C14.2726 7.19385 15.0092 6.45728 15.9178 6.45728C16.8264 6.45728 17.563 7.19385 17.563 8.10245V12.2037C17.563 12.3623 17.6915 12.4908 17.8501 12.4908C18.0076 12.4908 18.1357 12.3639 18.1372 12.2064L18.1695 8.8167C18.1695 8.64942 18.3788 8.46199 18.5188 8.42109C19.8865 8.02143 21.1432 8.76701 21.1432 10.7051L21.23 14.248C19.7565 15.0001 18.3387 15.155 16.7131 14.6497C16.0927 14.3455 15.6458 14.3992 15.0066 14.6494C13.3945 15.0115 12.0237 15.0278 10.5693 14.2799ZM10.1685 14.6143L10.1685 14.6143L10.1685 14.6143C10.4764 14.7618 10.7843 14.9094 11.1023 15.018L11.7526 15.2401C12.8573 15.5881 13.9476 15.4474 15.0178 15.1142C15.5743 14.835 16.149 14.8792 16.7184 15.1142C17.8446 15.579 18.8257 15.5779 20.0187 15.2483L20.02 15.2401L20.6703 15.018C20.9883 14.9094 21.2962 14.7618 21.6041 14.6143C22.4525 14.2077 23.7735 14.3339 24.6657 15.3511C25.0746 15.8174 24.7582 16.4921 24.1695 16.6874C23.8857 16.7815 23.6286 16.941 23.3883 17.119C23.361 17.1392 23.3334 17.1593 23.3053 17.1794C22.5639 17.7114 22.0869 18.5083 22.0394 19.4196L22.0175 19.8401C22.019 19.9871 22.0162 20.1347 22.0085 20.2825C21.7916 22.3572 20.4532 24.1452 18.5237 24.938C16.8385 25.6304 14.9482 25.6304 13.263 24.938C11.3335 24.1452 9.99505 22.3572 9.77815 20.2825L9.7332 19.4196C9.68574 18.5083 9.20866 17.7114 8.46729 17.1794C8.43923 17.1593 8.41155 17.1392 8.38431 17.119C8.14401 16.941 7.88694 16.7815 7.60309 16.6874C7.01442 16.4921 6.698 15.8174 7.10694 15.3511C7.9991 14.3339 9.32009 14.2077 10.1685 14.6143L10.1685 14.6143ZM19.9117 19.9223C19.9117 19.9223 18.1095 22.5187 15.8863 22.5187C13.6631 22.5187 11.8609 19.9223 11.8609 19.9223C11.8609 19.9223 13.6631 17.3259 15.8863 17.3259C18.1095 17.3259 19.9117 19.9223 19.9117 19.9223ZM15.8863 21.5727C16.7867 21.5727 17.5166 20.8428 17.5166 19.9424C17.5166 19.0421 16.7867 18.3122 15.8863 18.3122C14.9859 18.3122 14.256 19.0421 14.256 19.9424C14.256 20.8428 14.9859 21.5727 15.8863 21.5727Z" fill="#A5A5A5"/>
</g>
</g>
<defs>
<clipPath id="clip0_4384_3991">
<rect width="32" height="32" fill="white"/>
</clipPath>
</defs>
</svg>
