<svg viewBox="0 0 24 24" fill="none" xmlns="http://www.w3.org/2000/svg">
    <g clip-path="url(#a)">
        <circle cx="12" cy="12" r="11.5" fill="#53AE94" stroke="#53AE94"/>
        <path d="M13.423 10.365v-1.73h3.923V6H6.663v2.636h3.924v1.728C7.397 10.512 5 11.148 5 11.911c0 .763 2.399 1.4 5.587 1.548V19h2.837v-5.541C16.607 13.31 19 12.674 19 11.912c0-.762-2.393-1.398-5.576-1.546m0 2.623c-.08.004-.491.03-1.407.03-.732 0-1.247-.022-1.429-.031v.002c-2.817-.126-4.92-.62-4.92-1.212s2.103-1.086 4.92-1.212v1.931c.185.013.712.044 1.44.044.876 0 1.316-.036 1.396-.044v-1.931c2.812.126 4.91.621 4.91 1.211 0 .59-2.099 1.085-4.91 1.211" fill="#fff"/>
    </g>
    <defs>
        <clipPath id="a">
            <path fill="#fff" d="M0 0h24v24H0z"/>
        </clipPath>
    </defs>
</svg>
