<svg viewBox="0 0 64 64" fill="none" xmlns="http://www.w3.org/2000/svg">
    <rect width="64" height="64" rx="32" fill="#fff"/>
    <path d="M49 19h-8.5L15 44h17l17-25Z" fill="url(#a)"/>
    <path d="M52 63c6.075 0 11-4.925 11-11s-4.925-11-11-11-11 4.925-11 11 4.925 11 11 11Z" fill="url(#b)" stroke="#fff" stroke-width="2"/>
    <path d="m51.584 56.376-4.066-6.099a.5.5 0 0 1 .416-.777h1.808a.5.5 0 0 1 .408.21l1.443 2.03a.5.5 0 0 0 .815 0l1.443-2.03a.5.5 0 0 1 .407-.21h1.808a.5.5 0 0 1 .416.777l-4.066 6.099a.5.5 0 0 1-.832 0Z" fill="#fff"/>
    <path fill-rule="evenodd" clip-rule="evenodd" d="M41.756 58.253A27.942 27.942 0 0 1 32 60C16.536 60 4 47.464 4 32S16.536 4 32 4s28 12.536 28 28c0 3.431-.617 6.718-1.747 9.756a12.064 12.064 0 0 1 3.18 2.825A31.897 31.897 0 0 0 64 32C64 14.327 49.673 0 32 0 14.327 0 0 14.327 0 32c0 17.673 14.327 32 32 32 4.466 0 8.719-.915 12.58-2.568a12.064 12.064 0 0 1-2.824-3.179Z" fill="url(#c)"/>
    <defs>
        <linearGradient id="a" x1="32" y1="19" x2="32" y2="44" gradientUnits="userSpaceOnUse">
            <stop stop-color="#7AEDCF"/>
            <stop offset=".201" stop-color="#68CEFA"/>
            <stop offset=".403" stop-color="#689CF8"/>
            <stop offset=".602" stop-color="#AC57C0"/>
            <stop offset=".802" stop-color="#E65659"/>
            <stop offset="1" stop-color="#F2C241"/>
        </linearGradient>
        <linearGradient id="b" x1="52" y1="42" x2="52" y2="62" gradientUnits="userSpaceOnUse">
            <stop stop-color="#7AEDCF"/>
            <stop offset=".201" stop-color="#68CEFA"/>
            <stop offset=".403" stop-color="#689CF8"/>
            <stop offset=".602" stop-color="#AC57C0"/>
            <stop offset=".802" stop-color="#E65659"/>
            <stop offset="1" stop-color="#F2C241"/>
        </linearGradient>
        <linearGradient id="c" x1="32" y1="0" x2="32" y2="64" gradientUnits="userSpaceOnUse">
            <stop stop-color="#7AEDCF"/>
            <stop offset=".201" stop-color="#68CEFA"/>
            <stop offset=".403" stop-color="#689CF8"/>
            <stop offset=".602" stop-color="#AC57C0"/>
            <stop offset=".802" stop-color="#E65659"/>
            <stop offset="1" stop-color="#F2C241"/>
        </linearGradient>
    </defs>
</svg>
