<svg viewBox="0 0 64 64" fill="none" xmlns="http://www.w3.org/2000/svg">
    <rect width="64" height="64" rx="32" fill="#fff"/>
    <path d="m31.973 9-.302 1.025v29.756l.302.3 13.812-8.164L31.973 9Z" fill="#7986CB"/>
    <path d="M31.97 9 18.158 31.918l13.812 8.164V9Z" fill="#9EA7D9"/>
    <path d="m31.973 42.697-.17.207v10.6l.17.496 13.82-19.463-13.82 8.16Z" fill="#7986CB"/>
    <path d="M31.97 54V42.697l-13.813-8.16L31.97 54Z" fill="#9EA7D9"/>
    <path d="m31.979 40.081 13.811-8.164L31.98 25.64v14.442Z" fill="#5C6BC0"/>
    <path d="m18.157 31.917 13.812 8.164V25.64l-13.812 6.278Z" fill="#7986CB"/>
    <mask id="b" maskUnits="userSpaceOnUse" x="39.688" y="40" width="25" height="24" fill="#000">
        <path fill="#fff" d="M39.688 40h25v24h-25z"/>
        <path d="M62 52c0 5.523-4.547 10-10.156 10-5.61 0-10.157-4.477-10.157-10s4.548-10 10.157-10S62 46.477 62 52Z"/>
    </mask>
    <path d="M62 52c0 5.523-4.547 10-10.156 10-5.61 0-10.157-4.477-10.157-10s4.548-10 10.157-10S62 46.477 62 52Z" fill="url(#a)"/>
    <path d="M60 52c0 4.39-3.622 8-8.156 8v4C58.528 64 64 58.657 64 52h-4Zm-8.156 8c-4.534 0-8.157-3.61-8.157-8h-4c0 6.657 5.472 12 12.157 12v-4Zm-8.157-8c0-4.39 3.623-8 8.157-8v-4c-6.685 0-12.157 5.343-12.157 12h4Zm8.157-8C56.378 44 60 47.61 60 52h4c0-6.657-5.472-12-12.156-12v4Z" fill="#fff" mask="url(#b)"/>
    <path d="m51.422 56.376-4.13-6.099a.5.5 0 0 1 .423-.777h1.836a.51.51 0 0 1 .414.21l1.465 2.03c.203.28.625.28.828 0l1.465-2.03a.51.51 0 0 1 .414-.21h1.836a.5.5 0 0 1 .423.777l-4.13 6.099a.512.512 0 0 1-.844 0Z" fill="#fff"/>
    <path fill-rule="evenodd" clip-rule="evenodd" d="M41.756 58.253A27.942 27.942 0 0 1 32 60C16.536 60 4 47.464 4 32S16.536 4 32 4s28 12.536 28 28c0 3.431-.617 6.718-1.747 9.756a12.064 12.064 0 0 1 3.18 2.825A31.897 31.897 0 0 0 64 32C64 14.327 49.673 0 32 0 14.327 0 0 14.327 0 32c0 17.673 14.327 32 32 32 4.466 0 8.719-.915 12.58-2.568a12.064 12.064 0 0 1-2.824-3.179Z" fill="url(#c)"/>
    <defs>
        <linearGradient id="a" x1="51.844" y1="42" x2="51.844" y2="62" gradientUnits="userSpaceOnUse">
            <stop stop-color="#7AEDCF"/>
            <stop offset=".201" stop-color="#68CEFA"/>
            <stop offset=".403" stop-color="#689CF8"/>
            <stop offset=".602" stop-color="#AC57C0"/>
            <stop offset=".802" stop-color="#E65659"/>
            <stop offset="1" stop-color="#F2C241"/>
        </linearGradient>
        <linearGradient id="c" x1="32" y1="0" x2="32" y2="64" gradientUnits="userSpaceOnUse">
            <stop stop-color="#7AEDCF"/>
            <stop offset=".201" stop-color="#68CEFA"/>
            <stop offset=".403" stop-color="#689CF8"/>
            <stop offset=".602" stop-color="#AC57C0"/>
            <stop offset=".802" stop-color="#E65659"/>
            <stop offset="1" stop-color="#F2C241"/>
        </linearGradient>
    </defs>
</svg>
