<svg viewBox="0 0 64 64" fill="none" xmlns="http://www.w3.org/2000/svg">
    <g clip-path="url(#a)">
        <rect width="64" height="64" rx="32" fill="#fff"/>
        <path fill-rule="evenodd" clip-rule="evenodd" d="M32 64C14.4 64 0 49.6 0 31.84.16 14.24 14.4-.16 32.16 0 49.76.16 64 14.4 64 32.32 63.84 49.76 49.6 64 32 64Z" fill="#fff"/>
        <path fill-rule="evenodd" clip-rule="evenodd" d="m35.04 28.16-.96 5.12 9.12 1.28-.64 2.4-8.96-1.28c-.64 2.08-.96 4.32-1.76 6.24-.8 2.24-1.6 4.48-2.56 6.56-1.28 2.72-3.52 4.64-6.56 5.12-1.76.32-3.68.16-5.12-.96-.48-.32-.96-.96-.96-1.44 0-.64.32-1.44.8-1.76.32-.16 1.12 0 1.6.16.48.48.96 1.12 1.28 1.76.96 1.28 2.24 1.44 3.52.48 1.44-1.28 2.24-3.04 2.72-4.8.96-3.84 1.92-7.52 2.72-11.36v-.64l-8.48-1.28.32-2.4 8.8 1.28 1.12-4.96-9.12-1.44.32-2.56 9.44 1.28c.32-.96.48-1.76.8-2.56.8-2.88 1.6-5.76 3.52-8.32 1.92-2.56 4.16-4.16 7.52-4 1.44 0 2.88.48 3.84 1.6.16.16.48.48.48.8 0 .64 0 1.44-.48 1.92-.64.48-1.44.32-2.08-.32-.48-.48-.8-.96-1.28-1.44-.96-1.28-2.4-1.44-3.52-.32-.8.8-1.6 1.92-2.08 3.04-1.12 3.36-1.92 6.88-3.04 10.4l8.8 1.28-.64 2.4-8.48-1.28Z" fill="#0090FF"/>
    </g>
    <mask id="c" maskUnits="userSpaceOnUse" x="40" y="40" width="24" height="24" fill="#000">
        <path fill="#fff" d="M40 40h24v24H40z"/>
        <path d="M62 52c0 5.523-4.477 10-10 10s-10-4.477-10-10 4.477-10 10-10 10 4.477 10 10Z"/>
    </mask>
    <path d="M62 52c0 5.523-4.477 10-10 10s-10-4.477-10-10 4.477-10 10-10 10 4.477 10 10Z" fill="url(#b)"/>
    <path d="M60 52a8 8 0 0 1-8 8v4c6.627 0 12-5.373 12-12h-4Zm-8 8a8 8 0 0 1-8-8h-4c0 6.627 5.373 12 12 12v-4Zm-8-8a8 8 0 0 1 8-8v-4c-6.627 0-12 5.373-12 12h4Zm8-8a8 8 0 0 1 8 8h4c0-6.627-5.373-12-12-12v4Z" fill="#fff" mask="url(#c)"/>
    <path d="m51.584 56.376-4.066-6.099a.5.5 0 0 1 .416-.777h1.808a.5.5 0 0 1 .408.21l1.443 2.03a.5.5 0 0 0 .815 0l1.443-2.03a.5.5 0 0 1 .407-.21h1.808a.5.5 0 0 1 .416.777l-4.066 6.099a.5.5 0 0 1-.832 0Z" fill="#fff"/>
    <path fill-rule="evenodd" clip-rule="evenodd" d="M41.756 58.253A27.942 27.942 0 0 1 32 60C16.536 60 4 47.464 4 32S16.536 4 32 4s28 12.536 28 28c0 3.431-.617 6.718-1.747 9.756a12.064 12.064 0 0 1 3.18 2.825A31.897 31.897 0 0 0 64 32C64 14.327 49.673 0 32 0 14.327 0 0 14.327 0 32c0 17.673 14.327 32 32 32 4.466 0 8.719-.915 12.58-2.568a12.064 12.064 0 0 1-2.824-3.179Z" fill="url(#d)"/>
    <defs>
        <linearGradient id="b" x1="52" y1="42" x2="52" y2="62" gradientUnits="userSpaceOnUse">
            <stop stop-color="#7AEDCF"/>
            <stop offset=".201" stop-color="#68CEFA"/>
            <stop offset=".403" stop-color="#689CF8"/>
            <stop offset=".602" stop-color="#AC57C0"/>
            <stop offset=".802" stop-color="#E65659"/>
            <stop offset="1" stop-color="#F2C241"/>
        </linearGradient>
        <linearGradient id="d" x1="32" y1="0" x2="32" y2="64" gradientUnits="userSpaceOnUse">
            <stop stop-color="#7AEDCF"/>
            <stop offset=".201" stop-color="#68CEFA"/>
            <stop offset=".403" stop-color="#689CF8"/>
            <stop offset=".602" stop-color="#AC57C0"/>
            <stop offset=".802" stop-color="#E65659"/>
            <stop offset="1" stop-color="#F2C241"/>
        </linearGradient>
        <clipPath id="a">
            <rect width="64" height="64" rx="32" fill="#fff"/>
        </clipPath>
    </defs>
</svg>
