<svg viewBox="0 0 64 64" fill="none" xmlns="http://www.w3.org/2000/svg">
    <rect width="64" height="64" rx="32" fill="#fff"/>
    <path d="M49.399 42.672c.007-.94 3.597-.9 3.573-1.78-.018-.678-1.608-.662-1.108-2.096A20.891 20.891 0 0 0 53 31.977C53 20.391 43.595 11 32 11c-11.599 0-21 9.391-21 20.977-.002 2.374.4 4.732 1.189 6.971.298.951-1.185 1.324-1.185 1.892 0 .89 3.124.77 3.124 1.804 0 .903-3.088 1.18-3.088 2.09 0 1.257 6.84.819 6.926 1.9.069.835-2.35.884-2.365 1.775-.023 1.423 9.336.957 9.336 1.904 0 .717-4.257.457-4.257 1.303 0 .846 5.604 1.384 11.78 1.384 6.175 0 10.437-.687 10.437-1.43 0-.74-3.977-.586-3.894-1.257.144-1.168 8.967-.57 8.967-1.921 0-.713-2.427-.88-2.35-1.647.112-1.085 7.38-.922 7.38-2.049 0-.884-3.6-1.103-3.596-2.02l-.005-.004Zm-5.629-2.726c-.193.717 2.02.824 2.02 1.571 0 .91-6.747.547-6.68 1.75.042.757 4.794.885 4.702 1.676-.13 1.146-7.357.575-7.429 1.671-.052.806 3.528.832 3.535 1.566.007.618-2.812.955-8.206.955-6.149 0-9.135-.331-8.796-1.022.317-.644 5.76-.525 5.705-1.54-.056-1.011-9.664-.712-9.955-1.694-.24-.817 3.157-.985 3.136-1.76-.022-.79-4.353-.612-4.448-1.568-.061-.63 2.264-.589 2.164-1.38-.074-.575-1.035-.494-1.603-1.682a15.482 15.482 0 0 1 1.004-14.858 15.508 15.508 0 0 1 13.076-7.152 15.526 15.526 0 0 1 12.91 6.898 15.486 15.486 0 0 1 1.415 14.557c-.728 1.65-2.367 1.319-2.555 2.014h.004l.001-.002Z" fill="#2B1D3C"/>
    <path d="M52 63c6.075 0 11-4.925 11-11s-4.925-11-11-11-11 4.925-11 11 4.925 11 11 11Z" fill="url(#a)" stroke="#fff" stroke-width="2"/>
    <path d="m51.584 56.376-4.066-6.099a.5.5 0 0 1 .416-.777h1.808a.5.5 0 0 1 .408.21l1.443 2.03a.5.5 0 0 0 .815 0l1.443-2.03a.5.5 0 0 1 .407-.21h1.808a.5.5 0 0 1 .416.777l-4.066 6.099a.5.5 0 0 1-.832 0Z" fill="#fff"/>
    <path fill-rule="evenodd" clip-rule="evenodd" d="M41.756 58.253A27.942 27.942 0 0 1 32 60C16.536 60 4 47.464 4 32S16.536 4 32 4s28 12.536 28 28c0 3.431-.617 6.718-1.747 9.756a12.064 12.064 0 0 1 3.18 2.825A31.897 31.897 0 0 0 64 32C64 14.327 49.673 0 32 0 14.327 0 0 14.327 0 32c0 17.673 14.327 32 32 32 4.466 0 8.719-.915 12.58-2.568a12.064 12.064 0 0 1-2.824-3.179Z" fill="url(#b)"/>
    <defs>
        <linearGradient id="a" x1="52" y1="42" x2="52" y2="62" gradientUnits="userSpaceOnUse">
            <stop stop-color="#7AEDCF"/>
            <stop offset=".201" stop-color="#68CEFA"/>
            <stop offset=".403" stop-color="#689CF8"/>
            <stop offset=".602" stop-color="#AC57C0"/>
            <stop offset=".802" stop-color="#E65659"/>
            <stop offset="1" stop-color="#F2C241"/>
        </linearGradient>
        <linearGradient id="b" x1="32" y1="0" x2="32" y2="64" gradientUnits="userSpaceOnUse">
            <stop stop-color="#7AEDCF"/>
            <stop offset=".201" stop-color="#68CEFA"/>
            <stop offset=".403" stop-color="#689CF8"/>
            <stop offset=".602" stop-color="#AC57C0"/>
            <stop offset=".802" stop-color="#E65659"/>
            <stop offset="1" stop-color="#F2C241"/>
        </linearGradient>
    </defs>
</svg>
