<svg viewBox="0 0 64 64" fill="none" xmlns="http://www.w3.org/2000/svg">
    <rect width="64" height="64" rx="32" fill="#fff"/>
    <path d="M51.416 20.392c-.66-.502-1.454-1.19-2.887-1.37-1.353-.17-2.724.702-3.654 1.28-.929.579-2.687 2.281-3.417 2.795-.73.514-2.588.996-5.575 2.73-2.986 1.735-14.733 9.024-14.733 9.024l3.053.032-13.606 6.808h1.36L10 43.136s1.725.45 3.185-.45l.005.407s16.212-6.185 19.354-4.58l-1.905.545c.165 0 3.252.193 3.252.193s.1 1.863 1.958 3.05c1.858 1.188 1.891 1.832 1.891 1.832s-.962.385-.962.867c0 0 1.427-.418 2.755-.386 1.328.032 2.488.386 2.488.386s-.099-.514-1.394-.867c-1.293-.353-2.554-1.702-3.186-2.441a3.361 3.361 0 0 1-.527-3.372c.448-1.117 1.999-1.736 5.205-3.34 3.785-1.891 4.647-3.308 5.178-4.4.53-1.091 1.327-3.275 1.766-4.303.563-1.317 1.253-2.023 1.817-2.44.564-.418 3.12-1.35 3.12-1.35s-1.949-1.614-2.584-2.095Z" fill="#1B2026"/>
    <mask id="b" maskUnits="userSpaceOnUse" x="40" y="40" width="24" height="24" fill="#000">
        <path fill="#fff" d="M40 40h24v24H40z"/>
        <path d="M62 52c0 5.523-4.477 10-10 10s-10-4.477-10-10 4.477-10 10-10 10 4.477 10 10Z"/>
    </mask>
    <path d="M62 52c0 5.523-4.477 10-10 10s-10-4.477-10-10 4.477-10 10-10 10 4.477 10 10Z" fill="url(#a)"/>
    <path d="M60 52a8 8 0 0 1-8 8v4c6.627 0 12-5.373 12-12h-4Zm-8 8a8 8 0 0 1-8-8h-4c0 6.627 5.373 12 12 12v-4Zm-8-8a8 8 0 0 1 8-8v-4c-6.627 0-12 5.373-12 12h4Zm8-8a8 8 0 0 1 8 8h4c0-6.627-5.373-12-12-12v4Z" fill="#fff" mask="url(#b)"/>
    <path d="m51.584 56.376-4.066-6.099a.5.5 0 0 1 .416-.777h1.808a.5.5 0 0 1 .408.21l1.443 2.03a.5.5 0 0 0 .815 0l1.443-2.03a.5.5 0 0 1 .407-.21h1.808a.5.5 0 0 1 .416.777l-4.066 6.099a.5.5 0 0 1-.832 0Z" fill="#fff"/>
    <path fill-rule="evenodd" clip-rule="evenodd" d="M41.756 58.253A27.942 27.942 0 0 1 32 60C16.536 60 4 47.464 4 32S16.536 4 32 4s28 12.536 28 28c0 3.431-.617 6.718-1.747 9.756a12.064 12.064 0 0 1 3.18 2.825A31.897 31.897 0 0 0 64 32C64 14.327 49.673 0 32 0 14.327 0 0 14.327 0 32c0 17.673 14.327 32 32 32 4.466 0 8.719-.915 12.58-2.568a12.064 12.064 0 0 1-2.824-3.179Z" fill="url(#c)"/>
    <defs>
        <linearGradient id="a" x1="52" y1="42" x2="52" y2="62" gradientUnits="userSpaceOnUse">
            <stop stop-color="#7AEDCF"/>
            <stop offset=".201" stop-color="#68CEFA"/>
            <stop offset=".403" stop-color="#689CF8"/>
            <stop offset=".602" stop-color="#AC57C0"/>
            <stop offset=".802" stop-color="#E65659"/>
            <stop offset="1" stop-color="#F2C241"/>
        </linearGradient>
        <linearGradient id="c" x1="32" y1="0" x2="32" y2="64" gradientUnits="userSpaceOnUse">
            <stop stop-color="#7AEDCF"/>
            <stop offset=".201" stop-color="#68CEFA"/>
            <stop offset=".403" stop-color="#689CF8"/>
            <stop offset=".602" stop-color="#AC57C0"/>
            <stop offset=".802" stop-color="#E65659"/>
            <stop offset="1" stop-color="#F2C241"/>
        </linearGradient>
    </defs>
</svg>
