<svg viewBox="0 0 64 64" fill="none" xmlns="http://www.w3.org/2000/svg">
    <g clip-path="url(#a)">
        <rect width="64" height="64" rx="32" fill="#fff"/>
        <path fill-rule="evenodd" clip-rule="evenodd" d="M18.63 49.93C13.17 45.853 9.634 39.339 9.634 32 9.635 19.649 19.65 9.635 32 9.635c10.197 0 21.328 6.095 24.02 15.422C53.013 14.63 43.4 7 32 7 18.194 7 7 18.194 7 32s11.194 25 25 25 25-11.194 25-25v-1.318h-1.558c-.16 0-.395-.005-.693-.017-.59-.017-1.41-.057-2.326-.137-1.873-.16-4.016-.481-5.471-1.066-2.343-.934-3.666-2.177-5.179-3.626l-.086-.086c-1.512-1.455-3.214-3.088-6.164-4.48-2.904-1.369-6.118-1.146-8.478-.664a21.559 21.559 0 0 0-2.956.836c-.367.132-.66.252-.865.338-1.186.498-2.343 1.094-3.506 1.638 0 0 2.285.63 3.42.98.04.012.103.034.189.063a13.112 13.112 0 0 1 2.864 1.37c1.22.784 2.234 1.77 2.647 2.984-2.59.338-5.019 1.478-6.84 2.55a27.697 27.697 0 0 0-3.409 2.37c-.149.121-2.486 2.183-2.486 2.183s3.019.321 4.508.62c.991.2 2.326.52 3.718 1.007 1.398.487 2.813 1.129 3.988 1.948 1.174.82 2.039 1.77 2.463 2.853 1.237 3.162.023 6.244-2.418 7.974-2.411 1.719-6.072 2.126-9.733-.39Zm8.53 3.913c.985-.32 1.901-.784 2.732-1.369 3.317-2.36 5.064-6.68 3.34-11.079-.676-1.73-1.971-3.053-3.409-4.056-1.438-1.002-3.093-1.741-4.629-2.274a31.37 31.37 0 0 0-2.83-.83c.304-.196.63-.402.974-.602 2.028-1.192 4.577-2.286 7.024-2.286 3.689 0 6.433 1.128 9.05 2.343.242.109.476.223.717.338 2.343 1.1 4.8 2.251 7.66 2.251 2.772 0 4.932-.785 6.421-1.592C52.887 45.777 43.446 54.37 32 54.37c-1.661 0-3.282-.184-4.84-.528Zm24.209-20.778c-.986.339-2.177.58-3.575.58-2.24 0-4.17-.9-6.617-2.04-.217-.103-.435-.2-.658-.304-2.452-1.134-5.282-2.337-8.972-2.555-.492-2.44-2.343-4.113-3.93-5.127a10.899 10.899 0 0 0-.527-.32c.16-.035.321-.075.488-.11 2.13-.44 4.674-.55 6.828.464 2.555 1.203 3.999 2.59 5.5 4.028l.051.051c1.547 1.484 3.18 3.036 6.027 4.176 1.575.63 3.626.968 5.385 1.157Z" fill="url(#b)"/>
        <path d="M52 63c6.075 0 11-4.925 11-11s-4.925-11-11-11-11 4.925-11 11 4.925 11 11 11Z" fill="url(#c)" stroke="#fff" stroke-width="2"/>
        <path d="m51.584 56.376-4.066-6.099a.5.5 0 0 1 .416-.777h1.808a.5.5 0 0 1 .408.21l1.443 2.03a.5.5 0 0 0 .815 0l1.443-2.03a.5.5 0 0 1 .407-.21h1.808a.5.5 0 0 1 .416.777l-4.066 6.099a.5.5 0 0 1-.832 0Z" fill="#fff"/>
        <path fill-rule="evenodd" clip-rule="evenodd" d="M41.756 58.253A27.942 27.942 0 0 1 32 60C16.536 60 4 47.464 4 32S16.536 4 32 4s28 12.536 28 28c0 3.431-.617 6.718-1.747 9.756a12.064 12.064 0 0 1 3.18 2.825A31.897 31.897 0 0 0 64 32C64 14.327 49.673 0 32 0 14.327 0 0 14.327 0 32c0 17.673 14.327 32 32 32 4.466 0 8.719-.915 12.58-2.568a12.064 12.064 0 0 1-2.824-3.179Z" fill="url(#d)"/>
    </g>
    <defs>
        <linearGradient id="b" x1="6.556" y1="32.467" x2="57.449" y2="31.537" gradientUnits="userSpaceOnUse">
            <stop stop-color="#29CCB9"/>
            <stop offset=".495" stop-color="#0091FF"/>
            <stop offset="1" stop-color="#FF66B7"/>
        </linearGradient>
        <linearGradient id="c" x1="52" y1="42" x2="52" y2="62" gradientUnits="userSpaceOnUse">
            <stop stop-color="#7AEDCF"/>
            <stop offset=".201" stop-color="#68CEFA"/>
            <stop offset=".403" stop-color="#689CF8"/>
            <stop offset=".602" stop-color="#AC57C0"/>
            <stop offset=".802" stop-color="#E65659"/>
            <stop offset="1" stop-color="#F2C241"/>
        </linearGradient>
        <linearGradient id="d" x1="32" y1="0" x2="32" y2="64" gradientUnits="userSpaceOnUse">
            <stop stop-color="#7AEDCF"/>
            <stop offset=".201" stop-color="#68CEFA"/>
            <stop offset=".403" stop-color="#689CF8"/>
            <stop offset=".602" stop-color="#AC57C0"/>
            <stop offset=".802" stop-color="#E65659"/>
            <stop offset="1" stop-color="#F2C241"/>
        </linearGradient>
        <clipPath id="a">
            <path fill="#fff" d="M0 0h64v64H0z"/>
        </clipPath>
    </defs>
</svg>
