<svg viewBox="0 0 64 64" fill="none" xmlns="http://www.w3.org/2000/svg">
    <rect width="64" height="64" rx="32" fill="#fff"/>
    <path fill-rule="evenodd" clip-rule="evenodd" d="M51.232 41.785c-.907.22-1.83.445-1.833.92v.003c-.001.466.916.752 1.825 1.035.89.278 1.77.552 1.77.99 0 .572-1.864.813-3.718 1.052-1.806.233-3.603.465-3.658 1-.04.394.58.63 1.194.863.58.22 1.154.438 1.154.785 0 .702-2.38.878-4.687 1.05-2.136.158-4.21.312-4.28.874-.04.328.892.459 1.855.594 1.003.14 2.04.285 2.04.665 0 .743-4.26 1.43-10.435 1.43-6.177 0-11.782-.533-11.782-1.382 0-.443 1.156-.584 2.263-.72 1.018-.124 1.994-.243 1.994-.587 0-.426-1.888-.566-3.966-.721-2.548-.19-5.383-.4-5.37-1.185.007-.449.624-.684 1.226-.914.594-.226 1.174-.447 1.141-.862-.04-.518-1.638-.688-3.289-.862-1.788-.19-3.639-.386-3.639-1.04 0-.456.777-.754 1.551-1.051.77-.296 1.54-.591 1.54-1.04 0-.537-.841-.764-1.65-.982-.75-.202-1.473-.397-1.473-.825 0-.232.246-.432.518-.65.387-.313.825-.667.672-1.214l-.011-.035A20.966 20.966 0 0 1 11 32.002C11 20.405 20.402 11 32 11c11.597 0 21 9.402 21 21 0 2.388-.4 4.685-1.136 6.826a1.707 1.707 0 0 0-.082.332c-.021.148-.013.299.023.444.101.351.398.552.667.733.26.175.492.332.5.59.01.435-.857.646-1.74.86ZM31.773 48.92c5.403 0 8.216-.282 8.216-.903l.002-.002c.002-.645-3.398-.866-8.192-.876-3.597-.004-8.833.06-8.833.781 0 .723 4.389 1 8.807 1Zm14.73-22.439c-2.227-5.842-7.88-9.994-14.505-9.994l-.002.003c-8.57 0-15.515 6.947-15.515 15.515 0 2.318.513 4.515 1.42 6.492.051.106.112.207.182.301.784.972 2.382 1.128 4.44 1.128 3.122 0 6.11-.106 6.11-.617 0-.323-1.359-.422-2.718-.52-1.36-.1-2.72-.198-2.72-.52 0-.562 4.472-.578 9.005-.595h.187c4.596-.019 9.19.032 9.19.564 0 .416-2.615.471-5.242.526-2.656.056-5.324.112-5.313.542.012.455 1.783.553 3.5.648 1.621.09 3.194.178 3.197.56.001.392-1.664.663-7.09.663h-.914c-4.003-.005-8.557-.01-8.564.676-.004.501 2.807.568 5.72.637 3.129.074 6.375.15 6.375.772 0 .629-3.365.702-6.856.778-3.17.069-6.445.14-7.401.631-.174.09-.167.313.017.391.664.284 2.354.557 4.34.629l-.001-.004c2.936.099 10.724.135 15.13.076 2.837-.07 5.44-.278 5.44-.84 0-.565-2.075-.718-4.124-.868-2.002-.147-3.979-.293-3.979-.82-.001-.523 2.386-.623 4.835-.727 2.58-.108 5.228-.22 5.222-.832-.004-.377-1.317-.483-2.675-.592-1.459-.118-2.97-.24-2.97-.705 0-.295.759-.407 1.753-.555 1.094-.163 2.473-.368 3.441-.905.385-.23.7-.507.943-1.041a15.456 15.456 0 0 0 1.155-5.878c0-1.035-.104-2.047-.297-3.025-.143-.775-1.132-.868-2.39-.868h-.067c-.668.001-4.267.008-4.267-.412 0-.35 1.607-.504 2.884-.504h1.9c.647.003 1.466.006 1.223-.71Zm-12.744 9.992-2.077-.002v.002c-.483 0-1.02.002-1.592.005-4.166.017-10.135.04-10.135-.715 0-.77 5.535-.753 9.451-.741l1.288.002 1.4-.001c5.043-.01 12.778-.023 12.778.8-.002.667-5.222.659-11.113.65Zm8.831-3.148c0 .53-2.2.581-6.593.581-.801 0-1.68.009-2.58.017-3.999.04-8.43.082-8.43-.598 0-.435 2.512-.494 5.047-.553 2.581-.06 5.187-.12 5.187-.58 0-.322-1.634-.393-3.257-.464-1.602-.07-3.192-.139-3.192-.447 0-.48 2.517-.577 5.077-.577h.556c2.368-.005 5.983-.01 5.983.511 0 .365-.98.448-1.942.528-.927.078-1.838.154-1.838.481 0 .38 1.49.464 2.981.548 1.5.084 3.001.17 3.001.553Zm1.419-3.927c0 .377-2.76.435-3.702.435-2.646.003-4.905-.053-4.905-.48 0-.425 2.976-.451 4.437-.451 2.124-.003 4.17.12 4.17.496Zm.683 2.334c-1.212 0-2.791-.145-2.791-.503 0-.308 1.54-.398 2.62-.383.834.011 2.202.115 2.202.458 0 .283-1.332.428-2.031.428Z" fill="#72D500"/>
    <path d="M52 63c6.075 0 11-4.925 11-11s-4.925-11-11-11-11 4.925-11 11 4.925 11 11 11Z" fill="url(#a)" stroke="#fff" stroke-width="2"/>
    <path d="m51.584 56.376-4.066-6.099a.5.5 0 0 1 .416-.777h1.808a.5.5 0 0 1 .408.21l1.443 2.03a.5.5 0 0 0 .815 0l1.443-2.03a.5.5 0 0 1 .407-.21h1.808a.5.5 0 0 1 .416.777l-4.066 6.099a.5.5 0 0 1-.832 0Z" fill="#fff"/>
    <path fill-rule="evenodd" clip-rule="evenodd" d="M41.756 58.253A27.942 27.942 0 0 1 32 60C16.536 60 4 47.464 4 32S16.536 4 32 4s28 12.536 28 28c0 3.431-.617 6.718-1.747 9.756a12.064 12.064 0 0 1 3.18 2.825A31.897 31.897 0 0 0 64 32C64 14.327 49.673 0 32 0 14.327 0 0 14.327 0 32c0 17.673 14.327 32 32 32 4.466 0 8.719-.915 12.58-2.568a12.064 12.064 0 0 1-2.824-3.179Z" fill="url(#b)"/>
    <defs>
        <linearGradient id="a" x1="52" y1="42" x2="52" y2="62" gradientUnits="userSpaceOnUse">
            <stop stop-color="#7AEDCF"/>
            <stop offset=".201" stop-color="#68CEFA"/>
            <stop offset=".403" stop-color="#689CF8"/>
            <stop offset=".602" stop-color="#AC57C0"/>
            <stop offset=".802" stop-color="#E65659"/>
            <stop offset="1" stop-color="#F2C241"/>
        </linearGradient>
        <linearGradient id="b" x1="32" y1="0" x2="32" y2="64" gradientUnits="userSpaceOnUse">
            <stop stop-color="#7AEDCF"/>
            <stop offset=".201" stop-color="#68CEFA"/>
            <stop offset=".403" stop-color="#689CF8"/>
            <stop offset=".602" stop-color="#AC57C0"/>
            <stop offset=".802" stop-color="#E65659"/>
            <stop offset="1" stop-color="#F2C241"/>
        </linearGradient>
    </defs>
</svg>
