<svg viewBox="0 0 489 488" xmlns="http://www.w3.org/2000/svg">
    <path fill="#fcfefd" d="M285.81 178.23s-7.85 14.7-16.16 21.3c0 0-6.39-33.23-20.63-43.39 0 0 10.88 50.97 3.75 76.49 0 0-4.15 9.69-14.63 4.35-10.49-5.34-10.49-25.45-8.9-33.5H187.9v15.7s-1.02 16.24-13.65 19.38c-14.74 3.66-13.06-16.02-13.06-31.25s2.77-42.4 5.74-51.17c0 0-15.5 12.19-20.39 44.09 0 0 .61-10.33-9.28-27.74-3.59-6.31-7.2-16.52-10.35-26.98-4.01-13.34-7.28-27.08-8.76-33.6v-.01c.04-7.65.49-15.24 1.44-22.35 3.16-23.6 16.76-55.15 45.36-65.28 0 0 8.97-3.82 27.56-1.58 18.59 2.24 30.07-1.41 43.78-.7 13.72.7 35.61 5.85 51.96 38.68 16.35 32.84 8.83 97.39-2.44 117.56z"/>
    <path fill="#fff" d="M244.758.124C110.063.124.868 109.319.868 244.014s109.195 243.89 243.89 243.89 243.89-109.195 243.89-243.89S379.453.124 244.758.124zm118.389 379.567c-8.34-21.655-22.809-60.727-22.809-60.727s-10.347-31.373-10.977-52.91c-.641-21.549-.566-57.246-.566-57.246s-4.581 2.894-5.489 16.274c-.918 13.369-4.165 31.821-15.355 39.285 0 0-.918.758-2.509 1.751-.598 17.032-6.738 71.747-60.684 71.747-54.299 0-57.192-59.179-57.032-74.566-6.247-5.702-11.255-11.928-13.337-22.029-2.531-12.323-1.805-16.615-1.805-19.627 0-3.012-1.847-7.763-4.015-11.031l-.79 51.213s-.95 47.945-11.831 64.208c-10.881 16.274-36.733 70.818 8.564 115.111-1.121-.203-37.555-7.582-36.306-60.823 0 0-16.615 41.346 28.094 78.762-26.589-10.956-50.7-26.685-71.256-46.13 1.228-4.41 5.051-15.75 15.142-30.732 13.091-19.434 37.171-51.96 37.171-51.96s18.377-25.767 18.377-45.617c0-19.85.641-79.489.641-79.489s.63-10.144-2.904-11.853c0 6.706-8.713 28.073-19.488 28.607-10.774.523-14.789-5.179-18.164-21.442-2.392-10.529-19.573-23.62-25.628-28.265s-15.142-17.149-19.893-31.714c-4.271-13.091-10.411-22.008-6.482-42.446a232.518 232.518 0 0131.447-32.067c10.251-5.734 22.552-12.419 37.342-23.919 0 0 2.595-2.627 7.176-5.521a212.643 212.643 0 0111.265-5.328c6.428-2.104 14.234-3.129 22.958-1.185 0 0 8.511-8.158 22.083-13.38a233.2 233.2 0 0126.685-4.079c1.431.118 2.883.288 4.357.523 14.725 1.708 29.109.16 42.606-.224 12.62 2.475 25.927 3.898 38.303 7.4a43.068 43.068 0 014.848 3.385l8.553 6.791s5.392-1.442 12.76-1.068a231.82 231.82 0 0140.321 21.719.944.944 0 00.224.15c1.068.715 2.125 1.452 3.171 2.189a233.625 233.625 0 0155.783 55.099c.096 3.705-.342 7.582-1.377 11.575-5.595 21.538-11.084 38.58-28.265 53.647s-21.121 16.049-24.784 31.821c-3.663 15.772-12.814 20.417-23.375 14.149-10.561-6.257-12.878-20.694-13.444-27.176 0 0-4.122-2.104-3.171 18.591l.139 50.337s.149 27.176 8.457 50.551c8.169 22.99 32.419 84.411 36.829 117.642a227.063 227.063 0 01-9.237 6.631c-1.185-9.194-5.35-38.538-12.323-56.605z"/>
    <g fill="none" stroke="#a5b8d8" stroke-width=".25">
        <path d="M177.971 306.466s-4.398-9.443.931-19.157l-1.445-.813s-4.906 8.212-1.541 19.407"/>
        <path d="M174.529 305.797s-3.685-9.914 1.879-19.77l-1.266-.833s-5.351 9.409-1.986 20.603h-1.619s-3.106-9.605 1.739-20.697l-1.756-.519s-4.312 11.746-1.25 21.357h-1.338s-2.692-7.97.977-21.833l-1.553-.459s-3.156 12.259-.692 22.82l-1.253.563s-2.408-7.827.374-23.848l-3.802 12.125 1.549 12.075"/>
    </g>
    <g fill="none" stroke="#a5b8d8" stroke-width=".25">
        <path d="M176.389 307.073s-2.643-10.103 4.21-18.81l-1.542-.868s-6.082 7.189-4.601 18.784"/>
        <path d="M173.104 305.848s-2.186-10.254 4.921-19.063l-1.359-.734s-6.397 7.977-4.917 19.572l-1.597-.266s-1.487-9.985 5.113-20.13l-1.59-.858s-6.24 10.936-4.797 20.919l-1.32-.22s-1.216-8.435 4.68-21.507l-1.385-.779s-5.329 11.776-4.632 22.599l-1.329.35s-.866-8.418 4.51-23.765l-1.442-.811-4.979 24.615"/>
    </g>
    <linearGradient id="a" x1="143.163" y1="449.998" x2="143.163" y2="319.852" gradientUnits="userSpaceOnUse">
        <stop offset="0" stop-color="#d7e7f1"/>
        <stop offset=".3" stop-color="#ccddeb"/>
        <stop offset=".818" stop-color="#b0c2dd"/>
        <stop offset="1" stop-color="#a5b8d8"/>
    </linearGradient>
    <path fill="url(#a)" d="M156.3 459.084s-14.726-17.889-21.007-52.198c0 0 10.084 24.113 29.219 34.259 0 0-37.002-58.74 13.08-113.627l-20.101-11.582s-20.466 23.312-19.832 40.417c0 12.779 3.815 21.122 1.28 4.592s-7.181 13.252-7.181 13.252l-9.082-2.323-13.94 17.64 1.267 21.435 16.897 23.023 29.401 25.113z"/>
    <g fill="none" stroke="#a5b8d8" stroke-width=".25">
        <path d="M164.296 243.44l26.417 7.513"/>
        <path d="M164.249 244.765l26.417 7.513"/>
        <path d="M164.201 246.089l26.417 7.513"/>
        <path d="M164.154 247.414l26.417 7.513"/>
        <path d="M164.106 248.739l26.417 7.513"/>
        <path d="M164.059 250.063l26.417 7.513"/>
        <path d="M164.011 251.388l26.417 7.513"/>
        <path d="M163.964 252.712l26.417 7.514"/>
        <path d="M163.916 254.037l26.418 7.513"/>
        <path d="M163.869 255.362l26.417 7.513"/>
        <g>
            <path d="M163.821 256.692l30.938 9.146"/>
            <path d="M163.84 258.041l30.939 9.146"/>
            <path d="M163.86 259.389l30.938 9.147"/>
            <path d="M163.879 260.738l30.939 9.147"/>
            <path d="M163.899 262.087l30.938 9.147"/>
            <path d="M163.918 263.436l30.938 9.146"/>
            <path d="M163.938 264.785l30.938 9.146"/>
            <path d="M163.957 266.133l30.938 9.147"/>
            <path d="M163.976 267.482l30.939 9.147"/>
            <path d="M163.996 268.831l30.938 9.147"/>
        </g>
        <g>
            <path d="M164.365 270.378l30.938 9.147"/>
            <path d="M164.384 271.727l30.938 9.147"/>
            <path d="M164.403 273.076l30.939 9.146"/>
            <path d="M164.423 274.425l30.938 9.146"/>
            <path d="M164.442 275.774l30.939 9.146"/>
            <path d="M164.462 277.122l30.938 9.147"/>
            <path d="M164.481 278.471l30.938 9.147"/>
            <path d="M164.501 279.82l30.938 9.147"/>
            <path d="M164.52 281.169l30.938 9.146"/>
            <path d="M164.539 282.518l30.939 9.146"/>
        </g>
    </g>
    <g fill="none" stroke="#a5b8d8" stroke-width=".25">
        <path d="M158.982 233.144l35.903 19.87"/>
        <path d="M158.837 234.536l35.903 19.87"/>
        <path d="M158.691 235.929l35.903 19.87"/>
        <path d="M158.546 237.322l35.903 19.869"/>
        <path d="M158.401 238.714l35.903 19.87"/>
        <path d="M158.255 240.107l35.903 19.87"/>
        <path d="M158.11 241.499l35.903 19.87"/>
        <path d="M157.965 242.892l35.903 19.87"/>
        <path d="M157.819 244.285l35.903 19.869"/>
        <path d="M157.674 245.677l35.903 19.87"/>
        <g>
            <path d="M157.528 247.075l42.026 23.642"/>
            <path d="M157.473 248.524l42.027 23.641"/>
            <path d="M157.419 249.972l42.026 23.641"/>
            <path d="M157.364 251.421l42.026 23.641"/>
            <path d="M157.309 252.869l42.026 23.641"/>
            <path d="M157.255 254.318l42.026 23.641"/>
            <path d="M157.2 255.766l42.026 23.641"/>
            <path d="M157.145 257.214l42.026 23.642"/>
            <path d="M157.09 258.663l42.027 23.641"/>
            <path d="M157.036 260.111l42.026 23.641"/>
        </g>
        <g>
            <path d="M157.45 261.928l42.026 23.641"/>
            <path d="M157.395 263.377l42.026 23.641"/>
            <path d="M157.34 264.825l42.027 23.641"/>
            <path d="M157.286 266.273l42.026 23.642"/>
            <path d="M157.231 267.722l42.026 23.641"/>
            <path d="M157.176 269.17l42.026 23.642"/>
            <path d="M157.122 270.619l42.026 23.641"/>
            <path d="M157.067 272.067l42.026 23.641"/>
            <path d="M157.012 273.516l42.026 23.641"/>
            <path d="M156.957 274.964l42.027 23.641"/>
        </g>
    </g>
    <path fill="#a5b8d8" d="M165.688 243.377l13.659 3.379-3.52-26.332-.141-7.745-7.181-7.322h-3.52s-1.408 15.912-1.408 16.897c0 .985 2.112 21.122 2.112 21.122z"/>
    <path fill="none" stroke="#000" d="M247.673 246.972c9.343 0 22.051 10.945 25.767 14.352.683.619 1.068.993 1.068.993s-27.742 19.157-53.081-.694c0 0 .182-.182.534-.502 2.776-2.552 15.868-14.149 25.713-14.149z"/>
    <path fill="#fff" d="M201.992 22.655s9.578-4.079 29.429-1.687c19.851 2.392 32.109-1.506 46.749-.747 14.651.747 38.025 6.247 55.484 41.303 17.459 35.067 9.429 103.995-2.605 125.533 0 0-8.382 15.697-17.256 22.745l-.416 17.32s-.288 21.121-11.97 29.29c-12.675 9.429-26.119-4.154-29.707-7.752-3.599-3.588-15.494-10.838-20.844-10.838-5.35 0-12.248-.427-34.501 17.32-25.062 15.772-38.442-17.042-33.935-44.496 0 0-.032-.032-.085-.096-.523-.598-3.588-4.068-7.421-9.205-1.036-3.834-2.83-9.536-5.873-17.032-5.19-12.803-7.731-25.382-7.667-32.195-4.282-14.245-7.774-28.917-9.354-35.879v-.011c.043-8.169.523-16.274 1.538-23.866 3.374-25.201 17.897-58.89 48.436-69.707z"/>
    <path fill="none" stroke="#000" d="M273.44 261.323c.683.619 1.068.993 1.068.993s-27.742 19.157-53.081-.694c0 0 .182-.182.534-.502 2.776-2.552 15.868-14.149 25.713-14.149 9.343 0 22.051 10.945 25.767 14.352z"/>
    <path fill="#fff" d="M331.049 187.056s-8.382 15.697-17.256 22.745l-.416 17.32s-.288 21.121-11.97 29.29c-12.675 9.429-26.119-4.154-29.707-7.752-3.599-3.588-15.494-10.838-20.844-10.838-5.35 0-12.248-.427-34.501 17.32-25.062 15.772-38.442-17.042-33.935-44.496 0 0-.032-.032-.085-.096-.523-.598-3.588-4.068-7.421-9.205-1.036-3.834-2.83-9.536-5.873-17.032-5.19-12.803-7.731-25.382-7.667-32.195-4.282-14.245-7.774-28.917-9.354-35.879v-.011c.043-8.169.523-16.274 1.538-23.866 3.374-25.201 17.897-58.89 48.436-69.707 0 0 9.578-4.079 29.429-1.687 19.851 2.392 32.109-1.506 46.749-.747 14.651.747 38.025 6.247 55.484 41.303 17.459 35.067 9.429 103.995-2.605 125.533z"/>
    <path fill="#001125" d="M377.915 53.429a88.19 88.19 0 01-3.171-2.189.886.886 0 01-.224-.15 232.183 232.183 0 00-34.518-19.208 27.192 27.192 0 00-14.716-2.149c-2.408.32-3.848.705-3.848.705l-8.553-6.791a43.071 43.071 0 00-4.848-3.385c-15.808-7.248-25.946-7.699-38.303-7.4-13.497.384-27.881 1.933-42.606.224a57.32 57.32 0 00-4.357-.523c-7.003-.817-17.511.521-26.685 4.079-13.572 5.222-22.083 13.38-22.083 13.38-8.724-1.943-16.53-.918-22.958 1.185a213.074 213.074 0 00-11.265 5.328c-4.581 2.894-7.176 5.521-7.176 5.521-14.789 11.5-27.091 18.185-37.342 23.919a232.35 232.35 0 00-31.447 32.067c-3.93 20.438 2.21 29.354 6.482 42.446 4.752 14.565 13.839 27.069 19.893 31.714 6.055 4.645 23.236 17.737 25.628 28.265 3.374 16.263 7.389 21.965 18.164 21.442 10.774-.534 19.488-21.901 19.488-28.607 3.534 1.709 2.904 11.853 2.904 11.853s-.641 59.627-.641 79.489c0 19.862-18.377 45.617-18.377 45.617s-24.079 32.526-37.171 51.96c-10.091 14.981-13.914 26.322-15.142 30.732 20.556 19.445 44.667 35.174 71.256 46.13-44.71-37.416-28.094-78.762-28.094-78.762-1.249 53.241 35.185 60.62 36.306 60.823-45.297-44.293-19.445-98.837-8.564-115.111 10.881-16.263 11.831-64.208 11.831-64.208l.79-51.213c2.168 3.268 4.015 8.019 4.015 11.031 0 3.012-.726 7.304 1.805 19.627 2.082 10.102 7.09 16.327 13.337 22.029a124.302 124.302 0 004.271 3.737c8.169 6.898 20.983 1.271 20.983 1.271s2.531 16.615 12.109 31.608c9.568 15.003 20.556 18.804 35.195 11.831 14.651-6.973 22.958-42.948 22.958-42.948 9.258 3.972 18.046-.117 22.2-2.68 1.591-.993 2.509-1.751 2.509-1.751 11.191-7.464 14.437-25.916 15.355-39.285.908-13.38 5.489-16.274 5.489-16.274s-.075 35.697.566 57.246c.63 21.538 10.977 52.91 10.977 52.91s14.469 39.072 22.809 60.727c6.973 18.068 11.137 47.411 12.323 56.605a227.75 227.75 0 009.237-6.631c-4.41-33.231-28.66-94.652-36.829-117.642-8.308-23.375-8.457-50.551-8.457-50.551l-.139-50.337c-.95-20.694 3.171-18.591 3.171-18.591.566 6.482 2.883 20.919 13.444 27.176 10.561 6.268 19.712 1.623 23.375-14.149 3.663-15.772 7.603-16.754 24.784-31.821 17.181-15.067 22.67-32.109 28.265-53.647 1.036-3.994 1.474-7.87 1.377-11.575a233.625 233.625 0 00-55.783-55.099zM221.426 261.622s.182-.182.534-.502c2.776-2.552 15.868-14.149 25.713-14.149 9.343 0 22.051 10.945 25.767 14.352.683.619 1.068.993 1.068.993s-27.742 19.157-53.081-.694zm109.622-74.566s-8.382 15.697-17.256 22.745l-.416 17.32s-.288 21.121-11.97 29.29c-12.675 9.429-26.119-4.154-29.707-7.752-3.599-3.588-15.494-10.838-20.844-10.838-5.35 0-12.248-.427-34.501 17.32-25.062 15.772-38.442-17.042-33.935-44.496 0 0-.032-.032-.085-.096-.523-.598-3.588-4.068-7.421-9.205-1.036-3.834-2.83-9.536-5.873-17.032-5.19-12.803-7.731-25.382-7.667-32.195-4.282-14.245-7.774-28.917-9.354-35.879v-.011c.043-8.169.523-16.274 1.538-23.866 3.374-25.201 17.897-58.89 48.436-69.707 0 0 9.578-4.079 29.429-1.687 19.851 2.392 32.109-1.506 46.749-.747 14.651.747 38.025 6.247 55.484 41.303 17.459 35.067 9.429 103.995-2.605 125.533z"/>
    <path fill="#001125" d="M377.915 53.429c9.835 6.642 20.075 12.472 30.646 17.352 14.202 8.169 24.752 21.453 25.136 37.747"/>
    <path fill="#001125" d="M63.816 98.043a78.87 78.87 0 01.347-1.728c.858-4.049 2.61-7.884 5.216-11.1 6.733-8.308 15.196-13.258 25.885-19.239"/>
    <path fill="none" stroke="#daff03" stroke-width=".25" d="M107.928 73.846s0 .011-.011.011"/>
    <linearGradient id="b" x1="181.555" y1="211.576" x2="313.793" y2="211.576" gradientUnits="userSpaceOnUse">
        <stop offset="0" stop-color="#f887a7"/>
        <stop offset=".064" stop-color="#f77da1"/>
        <stop offset=".5" stop-color="#f53d80"/>
        <stop offset=".64" stop-color="#f64d89"/>
        <stop offset=".913" stop-color="#f877a1"/>
        <stop offset="1" stop-color="#fa86aa"/>
    </linearGradient>
    <path fill="url(#b)" d="M313.793 209.801l-.416 17.32s-.288 21.121-11.97 29.29c-12.675 9.429-26.119-4.154-29.707-7.752-3.599-3.588-15.494-10.838-20.844-10.838-5.35 0-12.248-.427-34.501 17.32-25.062 15.772-38.442-17.042-33.935-44.496 0 0-.032-.032-.085-.096 5.222-34.063 21.773-47.08 21.773-47.08-3.171 9.365-6.129 38.377-6.129 54.64 0 16.263-1.794 37.278 13.946 33.369 13.487-3.353 14.576-20.694 14.576-20.694v-16.765h44.144c-1.698 8.596-1.698 30.07 9.504 35.772 11.191 5.702 15.622-4.645 15.622-4.645 7.614-27.251-4.004-81.678-4.004-81.678 15.206 10.849 22.029 46.333 22.029 46.333z"/>
    <path fill="#f23b7c" d="M273.44 261.323c-24.026 8.318-43.855 2.702-51.48-.203 2.776-2.552 15.868-14.149 25.713-14.149 9.343 0 22.051 10.945 25.767 14.352z"/>
    <path fill="#fff" d="M274.508 262.316s-27.742 19.157-53.081-.694c0 0 .182-.182.534-.502 7.624 2.905 27.454 8.521 51.48.203.683.619 1.068.993 1.068.993z"/>
    <path fill="#a5b8d8" d="M174.917 201.361c-6.247-8.361-14.565-21.1-17.416-32.942-3.342-13.871-5.595-33.188-5.478-52.163 1.58 6.962 5.072 21.634 9.354 35.879-.064 6.813 2.477 19.392 7.667 32.195 3.043 7.496 4.837 13.198 5.873 17.032z"/>
    <linearGradient id="c" x1="162.206" y1="184.182" x2="182.328" y2="178.278" gradientUnits="userSpaceOnUse">
        <stop offset="0" stop-color="#f33a7e"/>
        <stop offset=".11" stop-color="#f34081"/>
        <stop offset=".258" stop-color="#f4518d"/>
        <stop offset=".428" stop-color="#f56d9f"/>
        <stop offset=".614" stop-color="#f795b9"/>
        <stop offset=".811" stop-color="#f9c7d9"/>
        <stop offset="1" stop-color="#fcfefd"/>
    </linearGradient>
    <path fill="url(#c)" d="M182.338 210.566c-.523-.598-3.588-4.068-7.421-9.205-1.036-3.834-2.83-9.536-5.873-17.032-5.19-12.803-7.731-25.382-7.667-32.195 3.364 11.169 7.218 22.072 11.052 28.81 10.561 18.591 9.909 29.621 9.909 29.621z"/>
    <path fill="#a5b8d8" d="M321.229 202.049c6.558-8.233 14.36-21.09 16.895-33.648 2.823-13.986 5.758-32.986 5.64-51.961-1.58 6.962-4.713 21.432-8.995 35.677.064 6.813-2.477 19.392-7.667 32.195-3.043 7.496-4.837 13.904-5.873 17.737z"/>
    <linearGradient id="d" x1="314.544" y1="178.255" x2="334.757" y2="183.867" gradientUnits="userSpaceOnUse">
        <stop offset="0" stop-color="#fcfefd"/>
        <stop offset=".189" stop-color="#f9c7d9"/>
        <stop offset=".386" stop-color="#f795b9"/>
        <stop offset=".572" stop-color="#f56d9f"/>
        <stop offset=".742" stop-color="#f4518d"/>
        <stop offset=".89" stop-color="#f34081"/>
        <stop offset="1" stop-color="#f33a7e"/>
    </linearGradient>
    <path fill="url(#d)" d="M313.8 209.801c.567-.511 3.595-2.615 7.429-7.752 1.036-3.834 2.83-10.241 5.873-17.737 5.19-12.803 7.731-25.382 7.667-32.195-3.364 11.169-7.218 22.072-11.052 28.81-10.561 18.591-9.917 28.874-9.917 28.874z"/>
    <path fill="#a5b8d8" d="M305.442 266.118c-.598 17.032-6.738 71.747-60.684 71.747-54.299 0-57.192-59.179-57.032-74.566a124.33 124.33 0 004.271 3.737c8.169 6.898 20.983 1.271 20.983 1.271s2.531 16.615 12.109 31.608c9.568 15.003 20.556 18.804 35.195 11.831 14.651-6.973 22.958-42.948 22.958-42.948 9.258 3.972 18.046-.117 22.2-2.68z"/>
    <linearGradient id="e" x1="408.189" y1="429.665" x2="408.189" y2="108.529" gradientUnits="userSpaceOnUse">
        <stop offset=".366" stop-color="#ed3678"/>
        <stop offset=".723" stop-color="#f482aa"/>
        <stop offset="1" stop-color="#fac0d3"/>
    </linearGradient>
    <path fill="url(#e)" d="M477.236 244.014c0 75.847-36.327 143.216-92.527 185.651-4.41-33.231-28.66-94.652-36.829-117.642-8.308-23.375-8.457-50.551-8.457-50.551l-.139-50.337c-.95-20.694 3.171-18.591 3.171-18.591.566 6.482 2.883 20.919 13.444 27.176 10.561 6.268 19.712 1.623 23.375-14.149 3.663-15.772 7.603-16.754 24.784-31.821 17.181-15.067 22.67-32.109 28.265-53.647 1.036-3.994 1.474-7.87 1.377-11.575 27.4 38.143 43.535 84.934 43.535 135.485z"/>
    <linearGradient id="f" x1="84.348" y1="412.954" x2="84.348" y2="98.043" gradientUnits="userSpaceOnUse">
        <stop offset=".366" stop-color="#ed3678"/>
        <stop offset=".723" stop-color="#f482aa"/>
        <stop offset="1" stop-color="#fac0d3"/>
    </linearGradient>
    <path fill="url(#f)" d="M137.36 330.262s-24.079 32.526-37.171 51.96c-10.091 14.981-13.914 26.322-15.142 30.732-44.816-42.382-72.772-102.393-72.772-168.94 0-55.292 19.306-106.067 51.544-145.971-3.93 20.438 2.21 29.354 6.482 42.446 4.752 14.565 13.839 27.069 19.893 31.714 6.055 4.645 23.236 17.737 25.628 28.265 3.374 16.263 7.389 21.965 18.164 21.442 10.774-.534 19.488-21.901 19.488-28.607 3.534 1.709 2.904 11.853 2.904 11.853s-.641 59.627-.641 79.489c0 19.862-18.377 45.617-18.377 45.617z"/>
    <path fill="#fcf9f9" d="M104.618 91.903s-7.496 12.045 2.541 47.102c0 0-11.938-15.633-8.767-42.029 0 0 2.008-12.771 9.525-23.118-.641.384-21.186 12.686-26.033 27.304-2.926 8.82.502 18.516 3.769 24.934.192 1.014.459 2.04.801 3.086l5.756 17.117-1.025-1.559-13.284-24.325s-7.923-15.729 3.065-28.511c10.849-12.622 37.352-28.02 38.004-28.393-.406.641-17.907 28.5-5.691 73.071 0 0-11.298-16.904-8.66-44.678z"/>
    <path fill="#e33e7c" d="M107.917 73.857c-7.517 10.347-9.525 23.118-9.525 23.118s-15.975 12.226-12.739 29.119c-3.268-6.418-6.695-16.113-3.769-24.934 4.848-14.618 25.393-26.92 26.033-27.304z"/>
    <path fill="#fdfffe" d="M139.613 163.472c-6.177-34.302-4.086-85.126 16.253-114.452 3.225-4.593 7.08-8.945 11.909-11.855-6.368 5.406-10.541 12.778-14.02 20.249-13.651 30.461-15.188 72.886-14.142 106.059z"/>
    <path fill="#a5b8d8" d="M164.207 70.388c4.941-16.986 16.866-34.17 32.255-43.198 1.07-.596 2.149-1.169 3.23-1.721-1.304 1.183-2.78 2.432-4.127 3.564-12.95 11.698-22.801 26.222-31.357 41.355z"/>
    <path fill="#fcf9f9" d="M388.423 91.903s7.496 12.045-2.541 47.102c0 0 11.938-15.633 8.767-42.029 0 0-2.008-12.771-9.525-23.118.641.384 21.186 12.686 26.033 27.304 2.926 8.82-.502 18.516-3.769 24.934a24.725 24.725 0 01-.801 3.086l-5.756 17.117 1.025-1.559 13.284-24.325s7.923-15.729-3.065-28.511c-10.849-12.622-37.352-28.02-38.004-28.393.406.641 17.907 28.5 5.691 73.071 0 0 11.298-16.904 8.66-44.678z"/>
    <path fill="#e33e7c" d="M385.124 73.857c7.517 10.347 9.525 23.118 9.525 23.118s15.975 12.226 12.739 29.119c3.268-6.418 6.695-16.113 3.769-24.934-4.848-14.618-25.393-26.92-26.033-27.304z"/>
    <path fill="#fdfffe" d="M353.427 163.472c1.045-33.159-.487-75.583-14.142-106.059-3.48-7.472-7.651-14.842-14.02-20.249 4.829 2.911 8.684 7.263 11.909 11.855 20.331 29.316 22.435 80.118 16.253 114.452z"/>
    <path fill="#a5b8d8" d="M328.834 70.388c-8.556-15.132-18.408-29.658-31.357-41.355-1.345-1.129-2.821-2.379-4.127-3.564 1.081.553 2.16 1.125 3.229 1.721 15.389 9.029 27.311 26.205 32.255 43.197z"/>
    <path fill="#f33a7e" d="M192.228 149.946c0 7.622-5.359 13.8-11.969 13.8-6.61 0-11.969-6.178-11.969-13.8 0-7.622 5.359-13.8 11.969-13.8 6.61 0 11.969 6.178 11.969 13.8z"/>
    <path fill="#001025" d="M287.135 46.379c0 4.127-3.2 7.473-7.146 7.473-3.947 0-7.146-3.346-7.146-7.473s3.2-7.473 7.146-7.473c3.947 0 7.146 3.346 7.146 7.473z"/>
    <path fill="#f33a7e" d="M328.956 149.946c0 7.622-5.422 13.8-12.11 13.8s-12.11-6.178-12.11-13.8c0-7.622 5.422-13.8 12.11-13.8s12.11 6.178 12.11 13.8z"/>
    <path fill="#001025" d="M231.022 48.819c0 7.044-5.461 12.754-12.198 12.754s-12.198-5.71-12.198-12.754 5.461-12.754 12.198-12.754 12.198 5.71 12.198 12.754z"/>
    <path fill="#a2b8d3" d="M197.72 121.291s13.518-3.027 10.279 13.377c0 0 4.084-9.747 4.928-29.128 0 0 5.351 16.596-.845 36.239 0 0 11.547-15.912 12.814-36.541 1.267-20.629-5.492-30.908-18.094-32.105 0 0-1.408-.422.774 4.788s3.593 9.153 4.049 15.7c0 0-8.485-18.869-25.101-13.095 0 0 14.574 4.224 16.757 15.348 2.183 11.124-5.562 25.416-5.562 25.416z"/>
    <path fill="#001125" d="M181.949 91.932s15.489-15.419 26.684 3.168c0 0 4.013 6.865 2.746 24.184 0 0-2.359-6.125-5.069-3.415s-8.378 11.054-17.179 8.942c-8.801-2.112-9.927-13.377-17.883-15.348 0 0 1.655-8.484 10.702-17.531z"/>
    <path fill="#f1397d" d="M184.202 99.935c-.261 2.843.049 5.646 1.288 7.765 2.449 4.102 8.765 5.765 13.226 4.794 2.396-.598 4.592-2.308 6.185-4.697-.415 2.86-2.446 5.623-5.395 6.911-4.393 1.795-9.593.68-13.313-2.132-3.858-2.884-4.367-8.899-1.992-12.64z"/>
    <path fill="#fbfffe" d="M184.202 99.935c-.841 5.768-.092 12.439 6.218 14.153 6.025 2.189 11.287-.945 14.481-6.292-.688 4.817-5.003 9.62-10.251 9.814-10.592.498-15.528-8.739-10.448-17.675z"/>
    <path fill="#f6f9f8" d="M199.908 99.935c0 1.985-1.521 3.594-3.398 3.594-1.877 0-3.398-1.61-3.398-3.594 0-1.985 1.521-3.594 3.398-3.594 1.877 0 3.398 1.61 3.398 3.594z"/>
    <path fill="#a2b8d3" d="M300.531 121.291s-13.518-3.027-10.279 13.377c0 0-4.084-9.747-4.928-29.128 0 0-5.351 16.596.845 36.239 0 0-11.547-15.912-12.814-36.541-1.267-20.629 5.492-30.908 18.094-32.105 0 0 1.408-.422-.774 4.788s-3.593 9.153-4.049 15.7c0 0 8.485-18.869 25.101-13.095 0 0-14.574 4.224-16.757 15.348-2.183 11.124 5.562 25.416 5.562 25.416z"/>
    <path fill="#001125" d="M316.302 91.932s-15.489-15.419-26.684 3.168c0 0-4.013 6.865-2.746 24.184 0 0 2.359-6.125 5.069-3.415s8.378 11.054 17.179 8.942c8.801-2.112 9.927-13.377 17.883-15.348 0 0-1.655-8.484-10.702-17.531z"/>
    <path fill="#f1397d" d="M314.049 99.935c2.374 3.742 1.867 9.756-1.992 12.64-3.719 2.813-8.919 3.927-13.312 2.132-2.949-1.288-4.979-4.051-5.395-6.911 1.593 2.389 3.789 4.099 6.185 4.697 4.461.971 10.777-.691 13.226-4.793 1.239-2.119 1.549-4.921 1.288-7.765z"/>
    <path fill="#fbfffe" d="M314.049 99.935c5.082 8.945.139 18.172-10.448 17.675-5.248-.195-9.564-4.996-10.251-9.814 3.197 5.348 8.454 8.481 14.482 6.292 6.31-1.715 7.058-8.384 6.218-14.153z"/>
    <path fill="#f6f9f8" d="M305.138 99.935c0 1.985-1.521 3.594-3.398 3.594-1.877 0-3.398-1.61-3.398-3.594 0-1.985 1.521-3.594 3.398-3.594 1.877 0 3.398 1.61 3.398 3.594z"/>
    <path fill="#f33a7e" d="M276.997 169.802c0 11.666-12.823 21.123-28.642 21.123-15.819 0-28.642-9.457-28.642-21.123s12.823-21.123 28.642-21.123c15.819 0 28.642 9.457 28.642 21.123z"/>
    <path fill="#030f24" d="M284.882 191.527c-.397 16.332-16.389 31.005-36.605 30.514-20.216-.491-37.002-15.96-36.605-32.292.397-16.332 17.107-29.174 37.323-28.683 20.216.491 36.284 14.129 35.887 30.461z"/>
    <path fill="#f33a7e" d="M229.543 204.722c3.043-.817 5.666-1.459 7.491-4.075.695-.866 1.169-1.839 1.908-2.79 2.312 5.777-4.639 10.83-9.399 6.865z"/>
    <path fill="#f33a7e" d="M257.998 197.238c1.548 2.744 2.823 5.125 5.81 6.242 1.012.458 2.072.675 3.177 1.154-5.02 3.677-11.644-1.799-8.987-7.396z"/>
    <path fill="#fcfefd" d="M220.375 186.684s7.583-9.568 18.906-5.869c11.323 3.699 16.884-3.158 25.578-.85 8.695 2.307 12.132 6.72 12.132 6.72s.809-12.483-17.389-16.63c-18.198-4.147-39.631 1.986-39.227 16.63z"/>
    <path fill="#f33a7e" d="M219.194 190.925s7.921-9.015 19.749-5.53c11.828 3.485 17.637-2.975 26.719-.801s12.673 6.331 12.673 6.331.845-11.761-18.165-15.668c-19.01-3.908-41.399 1.871-40.976 15.668z"/>
    <path fill="#001025" d="M285.867 84.099c0 6.61-4.867 11.969-10.87 11.969-6.003 0-10.87-5.359-10.87-11.969 0-6.61 4.867-11.969 10.87-11.969 6.003 0 10.87 5.359 10.87 11.969z"/>
    <path fill="#030f24" d="M246.581 220.219h5.041v21.122h-5.041z"/>
    <g>
        <path fill="#001125" d="M353.755 404.928c0 11.024-8.936 19.96-19.96 19.96-11.024 0-19.96-8.936-19.96-19.96 0-11.024 8.936-19.96 19.96-19.96 11.024 0 19.96 8.936 19.96 19.96z"/>
        <g fill="#fd377f">
            <path d="M186.265 369.659c0 10.965-8.889 19.854-19.854 19.854s-19.854-8.889-19.854-19.854 8.889-19.854 19.854-19.854 19.854 8.889 19.854 19.854z"/>
            <path d="M258.923 360.944c0 6.671-5.408 12.079-12.079 12.079s-12.079-5.408-12.079-12.079 5.408-12.079 12.079-12.079 12.079 5.408 12.079 12.079z"/>
            <path d="M268.182 418.965c0 6.671-5.408 12.079-12.079 12.079s-12.079-5.408-12.079-12.079 5.408-12.079 12.079-12.079 12.079 5.408 12.079 12.079z"/>
            <path d="M332.045 341.617c0 6.671-5.408 12.079-12.079 12.079s-12.079-5.408-12.079-12.079 5.408-12.079 12.079-12.079 12.079 5.408 12.079 12.079z"/>
            <path d="M352.915 363.797a7.178 7.178 0 11-14.356 0 7.178 7.178 0 0114.356 0z"/>
        </g>
        <path fill="#001125" d="M313.472 432.416c0 7.387-5.988 13.375-13.375 13.375s-13.375-5.988-13.375-13.375 5.988-13.375 13.375-13.375 13.375 5.988 13.375 13.375z"/>
        <path fill="#001125" d="M298.248 362.549c0 7.387-5.988 13.375-13.375 13.375s-13.375-5.988-13.375-13.375 5.988-13.375 13.375-13.375 13.375 5.988 13.375 13.375z"/>
        <path fill="#001125" d="M336.435 297.166c0 6.24-5.06 11.3-11.3 11.3-6.24 0-11.3-5.06-11.3-11.3 0-6.24 5.06-11.3 11.3-11.3 6.24 0 11.3 5.06 11.3 11.3z"/>
        <path fill="#001125" d="M231.848 393.172c0 8.158-6.614 14.772-14.772 14.772-8.158 0-14.772-6.614-14.772-14.772 0-8.158 6.614-14.772 14.772-14.772 8.158 0 14.772 6.614 14.772 14.772z"/>
        <path fill="#001125" d="M281.413 468.401a7.408 7.408 0 11-14.816 0 7.408 7.408 0 0114.816 0z"/>
        <path fill="#001125" d="M228.003 446.753c0 14.194-11.506 25.7-25.7 25.7-14.194 0-25.7-11.506-25.7-25.7 0-14.194 11.506-25.7 25.7-25.7 14.194 0 25.7 11.506 25.7 25.7z"/>
        <path fill="#001125" d="M205.375 343.855a8.248 8.248 0 11-16.496 0 8.248 8.248 0 0116.496 0z"/>
        <path fill="#001125" d="M185.521 317.705c0 7.81-6.06 14.142-13.535 14.142-7.475 0-13.535-6.332-13.535-14.142s6.06-14.142 13.535-14.142c7.475 0 13.535 6.332 13.535 14.142z"/>
        <path fill="#001125" d="M296.274 289.666c4.846 1.42 6.912 8.93 4.614 16.778-2.298 7.847-8.09 13.058-12.936 11.639-4.846-1.42-6.911-8.931-4.613-16.778 2.298-7.847 8.089-13.058 12.935-11.639z"/>
        <path fill="#001125" d="M220.718 306.738c4.942 8.56 5.108 17.715.372 20.45-4.737 2.735-12.583-1.987-17.525-10.547-4.941-8.56-5.108-17.715-.371-20.45 4.736-2.734 12.582 1.988 17.524 10.547z"/>
    </g>
    <g>
        <path fill="#fff" d="M98.438 330.65c8.378 0 16.405-7.367 16.017-16.017-.389-8.678-7.038-16.017-16.017-16.017-8.378 0-16.405 7.367-16.017 16.017.388 8.65 7.038 16.017 16.017 16.017z"/>
        <path fill="#fff" d="M79.006 278.022c16.49 0 16.518-25.628 0-25.628s-16.518 25.628 0 25.628z"/>
        <path fill="#fff" d="M56.617 245.336c10.306 0 10.323-16.017 0-16.017s-10.323 16.017 0 16.017z"/>
        <path fill="#fff" d="M107.52 245.248c12.368 0 12.388-19.221 0-19.221s-12.388 19.221 0 19.221z"/>
        <path fill="#fff" d="M58.518 336.036c8.245 0 8.259-12.814 0-12.814s-8.259 12.814 0 12.814z"/>
        <path fill="#001125" d="M88.088 369.373c4.123 0 4.129-6.407 0-6.407s-4.129 6.407 0 6.407z"/>
        <path fill="#fff" d="M139.625 255.964c5.772 0 5.781-8.97 0-8.97s-5.781 8.97 0 8.97z"/>
        <path fill="#fff" d="M44.366 295.236c4.123 0 4.129-6.407 0-6.407s-4.129 6.407 0 6.407z"/>
        <path fill="#001125" d="M91.89 348.878c3.298 0 3.304-5.126 0-5.126s-3.304 5.126 0 5.126z"/>
        <path fill="#001125" d="M88.088 208.426c4.123 0 4.129-6.407 0-6.407s-4.129 6.407 0 6.407z"/>
    </g>
    <g>
        <path fill="#f75c92" d="M93.298 192.76a5.21 5.21 0 11-10.42 0 5.21 5.21 0 0110.42 0z"/>
        <path fill="#ba2267" d="M68.093 298.615a4.365 4.365 0 11-8.73 0 4.365 4.365 0 018.73 0z"/>
        <path fill="#c73065" d="M125.403 259.611a3.52 3.52 0 11-7.04 0 3.52 3.52 0 017.04 0z"/>
        <path fill="#d4336d" d="M143.216 272.284a2.779 2.779 0 11-5.558 0 2.779 2.779 0 015.558 0z"/>
    </g>
    <g>
        <path fill="#fcfefd" d="M393.812 318.787c0 7.155-5.8 12.955-12.955 12.955s-12.955-5.8-12.955-12.955 5.8-12.955 12.955-12.955 12.955 5.8 12.955 12.955z"/>
        <path fill="#fcfefd" d="M439.576 296.398c0 7.155-5.8 12.955-12.955 12.955s-12.955-5.8-12.955-12.955 5.8-12.955 12.955-12.955 12.955 5.8 12.955 12.955z"/>
        <path fill="#fcfefd" d="M437.463 244.016c0 12.21-9.898 22.107-22.107 22.107-12.21 0-22.107-9.898-22.107-22.107 0-12.21 9.898-22.107 22.107-22.107 12.21 0 22.107 9.898 22.107 22.107z"/>
        <path fill="#fcfefd" d="M440.842 329.77a6.477 6.477 0 11-12.954 0 6.477 6.477 0 0112.954 0z"/>
        <path fill="#fcfefd" d="M456.05 208.531a7.181 7.181 0 11-14.362 0 7.181 7.181 0 0114.362 0z"/>
        <path fill="#fcfefd" d="M455.047 292.455a2.535 2.535 0 11-5.07 0 2.535 2.535 0 015.07 0z"/>
        <path fill="#fcfefd" d="M359.682 246.867a2.059 2.059 0 11-4.118 0 2.059 2.059 0 014.118 0z"/>
        <path fill="#fcfefd" d="M417.081 195.929a2.007 2.007 0 11-4.014 0 2.007 2.007 0 014.014 0z"/>
        <path fill="#070f29" d="M414.722 350.68a8.73 8.73 0 11-17.46 0 8.73 8.73 0 0117.46 0z"/>
        <path fill="#070f29" d="M411.43 381.536a5.122 5.122 0 11-10.244 0 5.122 5.122 0 0110.244 0z"/>
        <path fill="#070f29" d="M397.701 291.98a3.115 3.115 0 11-6.23 0 3.115 3.115 0 016.23 0z"/>
        <path fill="#ba2368" d="M385.574 268.482a4.383 4.383 0 11-8.766 0 4.383 4.383 0 018.766 0z"/>
    </g>
    <path fill="#e33e7c" d="M395.462 96.921s3.233 3.838 3.233 11.608c0 0 3.684-2.699 2.259-8.553-1.425-5.854-5.492-3.055-5.492-3.055z"/>
    <path fill="#e33e7c" d="M97.44 97.765s-3.233 3.838-3.233 11.608c0 0-3.684-2.699-2.259-8.553 1.425-5.854 5.492-3.055 5.492-3.055z"/>
</svg>
