<svg viewBox="0 0 682 681" xmlns="http://www.w3.org/2000/svg">
    <path d="M681.3 340.55c0-93.967-33.217-174.167-99.65-240.6C515.217 33.55 435.017.35 341.05.35c-93.933 0-174.117 33.2-240.55 99.6C34.1 166.383.9 246.583.9 340.55c0 93.967 33.2 174.167 99.6 240.6 66.433 66.4 146.617 99.6 240.55 99.6 93.967 0 174.167-33.2 240.6-99.6 66.433-66.433 99.65-146.633 99.65-240.6Z"/>
    <radialGradient id="a" cx="341.05" cy="340.5" r="312.85" fx="341.05" fy="340.5" gradientUnits="userSpaceOnUse">
        <stop offset="0" stop-color="#fff"/>
        <stop offset="1" stop-color="#8c9bac"/>
    </radialGradient>
    <path fill="url(#a)" d="M488.8 361.15a2.25 2.25 0 0 0-1.1 1.05c-7.133 12.567-11.833 26.05-14.1 40.45a240.021 240.021 0 0 0-2.85 29.85 2.226 2.226 0 0 0 .5 1.55A84.114 84.114 0 0 0 481 444.9a643.644 643.644 0 0 0 20.25 17.95 91.31 91.31 0 0 1 15.3 16.55h-.05c3.4 4.767 5.8 9.95 7.2 15.55 1.333 5.367 1.017 10.65-.95 15.85l-.05.05c-2.467 6.567-6.533 11.9-12.2 16-2.7 1.933-5.7 3.283-9 4.05l.1-.05c-6.467 1.267-12.667.45-18.6-2.45-3.667-1.733-7.1-3.95-10.3-6.65a165.743 165.743 0 0 1-23.95-24.85c-5-6.3-10.033-12.65-15.1-19.05a252.165 252.165 0 0 0-16.85-19.05 299.983 299.983 0 0 0-18.65-17.6 241.005 241.005 0 0 0-20.2-16.05 111.078 111.078 0 0 0-21.9-12.05 120.569 120.569 0 0 0-28.25-7.85c-10.9-1.633-21.633-.967-32.2 2h-.05c-12.4 3.667-23.333 9.85-32.8 18.55v.05a266.427 266.427 0 0 0-28.55 30.85c-.4.5-.583 1.067-.55 1.7.033.633.283 1.183.75 1.65a2.552 2.552 0 0 0 1.65.7c6.033.333 12.05.817 18.05 1.45 9.8 1.2 19.517 3.017 29.15 5.45 9.5 2.367 18.817 5.35 27.95 8.95a214.325 214.325 0 0 1 26.6 12.4 237.83 237.83 0 0 1 25.4 16.3 279.958 279.958 0 0 1 24.05 19.8c8 7.433 15.783 15.083 23.35 22.95 7.033 7.3 14.583 14.1 22.65 20.4 8.567 6.533 17.767 11.867 27.6 16 9.967 4.167 20.383 6.367 31.25 6.6 11.667.3 22.817-1.817 33.45-6.35 9.733-4.133 18.2-9.217 25.4-15.25v-.05c5.467-4.6 9.967-9.25 13.5-13.95 6.767-9 11.867-18.933 15.3-29.8 4.533-14.467 5.633-29.2 3.3-44.2-1.833-11.233-5.433-21.9-10.8-32a95.052 95.052 0 0 0-15.1-21.2l-65.5-66.6c-.4-.367-.85-.6-1.35-.7a2.313 2.313 0 0 0-1.5.2m64.75 70.55h-.05a91.666 91.666 0 0 1 14.35 20.1c5.1 9.6 8.517 19.75 10.25 30.45 2.233 14.2 1.2 28.167-3.1 41.9-3.267 10.333-8.117 19.767-14.55 28.3-3.333 4.433-7.567 8.817-12.7 13.15-6.867 5.733-14.917 10.567-24.15 14.5-9.967 4.267-20.417 6.25-31.35 5.95h-.05c-10.233-.233-20.05-2.3-29.45-6.2h.05a121.1 121.1 0 0 1-26.5-15.4v.05a202.626 202.626 0 0 1-22.1-19.9 550.641 550.641 0 0 0-23.55-23.15v-.05a278.993 278.993 0 0 0-24.5-20.15 247.087 247.087 0 0 0-25.9-16.6l-.05-.05a229.063 229.063 0 0 0-27.2-12.65h.05a224.59 224.59 0 0 0-28.6-9.15 245.845 245.845 0 0 0-29.75-5.55h-.05c-4.5-.5-9-.9-13.5-1.2a258.182 258.182 0 0 1 25-26.55c8.867-8.167 19.133-13.983 30.8-17.45 9.867-2.767 19.9-3.383 30.1-1.85a112.006 112.006 0 0 1 27.1 7.5 104.623 104.623 0 0 1 20.9 11.55c6.9 4.867 13.5 10.1 19.8 15.7a299.778 299.778 0 0 1 18.35 17.35h.05a243.271 243.271 0 0 1 16.5 18.7v-.05c5.067 6.4 10.083 12.75 15.05 19.05a172.682 172.682 0 0 0 24.7 25.6c3.533 2.967 7.317 5.4 11.35 7.3h-.05c6.933 3.367 14.183 4.317 21.75 2.85h.05c3.967-.933 7.567-2.55 10.8-4.85 6.467-4.667 11.133-10.767 14-18.3 2.333-6.2 2.717-12.483 1.15-18.85-1.567-6.2-4.217-11.95-7.95-17.25a95.533 95.533 0 0 0-16.15-17.45h.05a563.66 563.66 0 0 1-20.1-17.8 83.163 83.163 0 0 1-8.6-9.5 228.492 228.492 0 0 1 2.75-28.3c2-12.7 5.967-24.667 11.9-35.9l63.1 64.15M446.5 218.3a2.552 2.552 0 0 0-1.65-.7c-6.067-.267-12.1-.683-18.1-1.25l.05.05a249.839 249.839 0 0 1-29.25-5.15c-9.5-2.3-18.833-5.183-28-8.65v-.05a222.35 222.35 0 0 1-26.75-12.1 244.502 244.502 0 0 1-25.55-16c-8.5-6.1-16.6-12.65-24.3-19.65a560.185 560.185 0 0 1-23.55-22.7 206.406 206.406 0 0 0-22.95-20.15c-8.633-6.433-17.883-11.667-27.75-15.7-10.033-4.067-20.467-6.167-31.3-6.3-11.667-.167-22.8 2.067-33.4 6.7-9.667 4.233-18.083 9.417-25.25 15.55-5.4 4.667-9.85 9.383-13.35 14.15-6.7 9.033-11.7 19.017-15 29.95-4.367 14.533-5.283 29.3-2.75 44.3 1.9 11.2 5.583 21.817 11.05 31.85a97.107 97.107 0 0 0 15.35 21.05l66.2 65.9c.367.367.817.6 1.35.7.5.067 1-.017 1.5-.25a2.57 2.57 0 0 0 1.1-1.05c6.967-12.667 11.533-26.2 13.7-40.6a247.467 247.467 0 0 0 2.5-29.85c0-.6-.167-1.117-.5-1.55-3-3.9-6.283-7.483-9.85-10.75a568.696 568.696 0 0 0-20.45-17.75 91.166 91.166 0 0 1-15.45-16.4c-3.433-4.733-5.867-9.883-7.3-15.45-1.433-5.367-1.183-10.667.75-15.9 2.433-6.667 6.45-12.067 12.05-16.2v.05c2.667-2 5.667-3.383 9-4.15h-.1c6.433-1.333 12.633-.583 18.6 2.25v.05c3.667 1.7 7.1 3.883 10.3 6.55 8.9 7.3 17 15.5 24.3 24.6a4362.363 4362.363 0 0 0 15.35 18.9 259.62 259.62 0 0 0 17.05 18.9 308.897 308.897 0 0 0 18.8 17.4 218.487 218.487 0 0 0 20.4 15.75 111.094 111.094 0 0 0 22 11.9c9.1 3.667 18.55 6.183 28.35 7.55 10.9 1.5 21.617.7 32.15-2.4h.05c12.367-3.767 23.233-10.05 32.6-18.85a282.074 282.074 0 0 0 28.25-31.2c.367-.533.533-1.1.5-1.7-.033-.667-.283-1.217-.75-1.65m-20.25 3.05h.05c4.467.433 8.967.767 13.5 1a277.527 277.527 0 0 1-24.75 26.85c-8.8 8.233-19 14.133-30.6 17.7-9.867 2.9-19.883 3.65-30.05 2.25a117.025 117.025 0 0 1-27.2-7.25c-7.467-3-14.467-6.783-21-11.35a231.39 231.39 0 0 1-20-15.45 310.27 310.27 0 0 1-18.5-17.15 263.801 263.801 0 0 1-16.75-18.5 3194.35 3194.35 0 0 1-15.3-18.9 172.53 172.53 0 0 0-25-25.3c-3.533-2.967-7.333-5.383-11.4-7.25h.05c-7-3.3-14.25-4.183-21.75-2.65-.033 0-.05.017-.05.05-3.967.933-7.567 2.583-10.8 4.95-6.433 4.733-11.033 10.9-13.8 18.5-2.267 6.233-2.567 12.517-.9 18.85 1.6 6.2 4.3 11.917 8.1 17.15a93.264 93.264 0 0 0 16.3 17.3 628.537 628.537 0 0 1 20.3 17.6c3.133 2.867 6.033 6 8.7 9.4a243.088 243.088 0 0 1-2.45 28.3c-1.9 12.7-5.75 24.7-11.55 36L127.65 250v.05a94.207 94.207 0 0 1-14.55-20c-5.2-9.567-8.7-19.667-10.5-30.3-2.433-14.233-1.567-28.233 2.6-42 3.167-10.367 7.917-19.85 14.25-28.45h-.05c3.3-4.467 7.5-8.9 12.6-13.3 6.8-5.8 14.8-10.717 24-14.75 9.933-4.367 20.383-6.467 31.35-6.3 10.2.133 20.033 2.117 29.5 5.95h-.05c9.467 3.867 18.35 8.883 26.65 15.05a206.329 206.329 0 0 1 22.4 19.65 531.327 531.327 0 0 0 23.75 22.9 279.683 279.683 0 0 0 24.75 20 253.011 253.011 0 0 0 26.05 16.35h.05a217.764 217.764 0 0 0 27.35 12.4h-.05a233.188 233.188 0 0 0 28.65 8.85 257.65 257.65 0 0 0 29.85 5.25M181.05 367.2v.05a268.925 268.925 0 0 1-20 23.95 583.24 583.24 0 0 1-23.1 23.2 202.73 202.73 0 0 0-20.5 22.55v.05a127.324 127.324 0 0 0-16.2 27.45v.05c-4.233 9.933-6.5 20.333-6.8 31.2-.367 11.6 1.683 22.75 6.15 33.45 4.067 9.733 9.117 18.233 15.15 25.5 4.567 5.5 9.2 10.033 13.9 13.6 8.9 6.8 18.8 11.967 29.7 15.5 14.467 4.6 29.217 5.767 44.25 3.5a103.557 103.557 0 0 0 32-10.55 97.438 97.438 0 0 0 21.3-15c0-.033.017-.05.05-.05l66.9-65c.367-.367.6-.817.7-1.35.1-.533.05-1.033-.15-1.5a2.57 2.57 0 0 0-1.05-1.1c-12.533-7.233-26-12.033-40.4-14.4-9.8-1.6-19.717-2.6-29.75-3a2.301 2.301 0 0 0-1.6.5 82.86 82.86 0 0 0-10.85 9.65c-6.2 6.6-12.233 13.3-18.1 20.1a88.304 88.304 0 0 1-16.7 15.2h.05c-4.767 3.333-9.95 5.683-15.55 7.05h-.05c-5.367 1.333-10.65 1-15.85-1-6.633-2.567-11.967-6.667-16-12.3-1.9-2.733-3.217-5.767-3.95-9.1v.05c-1.233-6.4-.383-12.567 2.55-18.5 1.767-3.633 4.017-7.017 6.75-10.15 7.467-8.833 15.8-16.8 25-23.9a4553.937 4553.937 0 0 0 19.15-15v-.05a259.545 259.545 0 0 0 19.2-16.75A320.51 320.51 0 0 0 245 402.6v.05c5.7-6.4 11.05-13.117 16.05-20.15v-.05a109.817 109.817 0 0 0 12.25-21.75 124.884 124.884 0 0 0 8-28.3c1.667-10.867 1.033-21.567-1.9-32.1-3.533-12.467-9.633-23.433-18.3-32.9v-.05a281.309 281.309 0 0 0-30.65-28.8c-.533-.4-1.1-.583-1.7-.55-.633.033-1.183.283-1.65.75a2.27 2.27 0 0 0-.75 1.6 413.767 413.767 0 0 1-1.5 18.1 252.6 252.6 0 0 1-5.65 29.15 241.77 241.77 0 0 1-9.1 27.8 227.458 227.458 0 0 1-12.55 26.55c-5 8.767-10.5 17.183-16.5 25.25m48.75-108.1v-.05c.467-4.5.883-9 1.25-13.5 9.333 7.8 18.117 16.2 26.35 25.2 8.133 8.9 13.867 19.2 17.2 30.9 2.733 9.833 3.317 19.833 1.75 30a117.05 117.05 0 0 1-7.65 27.1 108.116 108.116 0 0 1-11.7 20.8h-.05a219.338 219.338 0 0 1-15.7 19.75 332.383 332.383 0 0 1-17.45 18.2 273.906 273.906 0 0 1-18.85 16.45 8750.15 8750.15 0 0 1-19.1 15 167.506 167.506 0 0 0-25.7 24.55l-.05.05a50.794 50.794 0 0 0-7.45 11.2c-3.4 6.933-4.383 14.15-2.95 21.65v.05c.867 3.967 2.45 7.6 4.75 10.9h.05c4.6 6.467 10.683 11.167 18.25 14.1 6.2 2.367 12.483 2.767 18.85 1.2a51.448 51.448 0 0 0 17.25-7.8 94.818 94.818 0 0 0 17.6-16.05 625.987 625.987 0 0 1 17.9-19.9l.05-.05c2.9-3.067 6.067-5.9 9.5-8.5 9.533.4 18.95 1.367 28.25 2.9 12.7 2.067 24.633 6.117 35.8 12.15l-64.5 62.65h.05a91.171 91.171 0 0 1-20.2 14.2c-9.633 5.033-19.783 8.383-30.45 10.05-14.267 2.167-28.267 1.067-42-3.3h.05c-10.333-3.367-19.733-8.283-28.2-14.75h-.05c-4.433-3.367-8.783-7.633-13.05-12.8-5.733-6.933-10.533-15.017-14.4-24.25-4.2-10-6.117-20.45-5.75-31.35.3-10.233 2.433-20.033 6.4-29.4 4.033-9.4 9.217-18.2 15.55-26.4 6.133-7.867 12.8-15.2 20-22 8-7.6 15.767-15.417 23.3-23.45a279.812 279.812 0 0 0 20.35-24.4 257.627 257.627 0 0 0 16.85-25.8c4.833-8.7 9.117-17.75 12.85-27.15a235.58 235.58 0 0 0 9.3-28.4c2.5-9.833 4.417-19.75 5.75-29.75m322.85-148.55c-8.933-6.867-18.833-12.033-29.7-15.5-14.467-4.667-29.217-5.867-44.25-3.6-11.267 1.7-21.967 5.2-32.1 10.5a96.774 96.774 0 0 0-21.3 15h-.05l-67 64.95c-.367.367-.6.817-.7 1.35-.1.533-.033 1.033.2 1.5.2.467.533.85 1 1.15 12.533 7.2 26 12.017 40.4 14.45 9.8 1.6 19.717 2.6 29.75 3 .6.033 1.133-.133 1.6-.5 3.9-2.9 7.517-6.1 10.85-9.6h.05a646.79 646.79 0 0 0 18.15-20.15 89.042 89.042 0 0 1 16.65-15.2 45.121 45.121 0 0 1 15.6-7c5.367-1.333 10.65-.983 15.85 1.05 6.6 2.533 11.917 6.633 15.95 12.3a26.054 26.054 0 0 1 4 9c1.2 6.467.333 12.65-2.6 18.55h-.05c-1.767 3.633-4.017 7.05-6.75 10.25a169.037 169.037 0 0 1-24.95 23.85c-6.4 4.867-12.817 9.85-19.25 14.95a259.107 259.107 0 0 0-19.15 16.7 299.48 299.48 0 0 0-17.75 18.5 218.486 218.486 0 0 0-16.15 20.1 107.967 107.967 0 0 0-12.25 21.75 120.104 120.104 0 0 0-8.05 28.25v.05c-1.733 10.833-1.133 21.567 1.8 32.2 3.533 12.433 9.617 23.4 18.25 32.9a278.773 278.773 0 0 0 30.7 28.8c.467.4 1.033.583 1.7.55.6-.033 1.133-.267 1.6-.7.467-.467.717-1 .75-1.6.4-6.067.933-12.083 1.6-18.05a234.37 234.37 0 0 1 5.65-29.15 228.828 228.828 0 0 1 9.2-27.85c3.6-9.2 7.783-18.05 12.55-26.55a250.098 250.098 0 0 1 16.45-25.25c6.233-8.4 12.933-16.4 20.1-24v.05c7.467-7.9 15.183-15.6 23.15-23.1 7.333-7 14.183-14.533 20.55-22.6a130.143 130.143 0 0 0 16.15-27.45c4.233-9.967 6.5-20.367 6.8-31.2.367-11.667-1.65-22.85-6.05-33.55-4.067-9.733-9.383-18.567-15.95-26.5-4-4.8-8.333-9-13-12.6M521.4 99.8c10.3 3.3 19.7 8.2 28.2 14.7 4.367 3.367 8.433 7.317 12.2 11.85 6.267 7.533 11.333 15.95 15.2 25.25v-.05c4.133 10.033 6.017 20.533 5.65 31.5-.3 10.2-2.433 20-6.4 29.4v-.05c-4.033 9.367-9.2 18.167-15.5 26.4v-.05a210.183 210.183 0 0 1-20.05 22.05 496.577 496.577 0 0 0-23.35 23.3 280.921 280.921 0 0 0-20.45 24.4 247.218 247.218 0 0 0-16.8 25.75v.05a217.793 217.793 0 0 0-12.85 27.15 223.795 223.795 0 0 0-9.4 28.45 241.626 241.626 0 0 0-5.75 29.75v.05c-.5 4.467-.933 8.95-1.3 13.45a273.805 273.805 0 0 1-26.4-25.25v.05c-8.1-8.933-13.817-19.233-17.15-30.9-2.733-9.933-3.283-19.967-1.65-30.1 1.433-9.367 4-18.4 7.7-27.1A104.817 104.817 0 0 1 425 299.1v-.05c4.9-6.9 10.167-13.45 15.8-19.65l.05-.05a309.123 309.123 0 0 1 17.45-18.2 273.514 273.514 0 0 1 18.8-16.4v.05a2180.59 2180.59 0 0 1 19.2-14.95c9.467-7.367 18.033-15.55 25.7-24.55 3-3.5 5.483-7.267 7.45-11.3v.05c3.433-6.933 4.45-14.167 3.05-21.7v-.1c-.933-3.967-2.533-7.583-4.8-10.85v-.05c-4.633-6.467-10.717-11.15-18.25-14.05-6.2-2.4-12.467-2.817-18.8-1.25h-.05a50.69 50.69 0 0 0-17.25 7.75h-.05a95.59 95.59 0 0 0-17.55 16.05 670.143 670.143 0 0 1-18 19.95 85.968 85.968 0 0 1-9.5 8.55c-9.567-.433-19-1.417-28.3-2.95-12.667-2.133-24.583-6.217-35.75-12.25l64.55-62.6a90.594 90.594 0 0 1 20.15-14.15c9.667-5.067 19.85-8.4 30.55-10 14.267-2.167 28.25-1.033 41.95 3.4Z"/>
    <radialGradient id="b" cx="347.5" cy="339.3" r="380.575" fx="347.5" fy="339.3" gradientUnits="userSpaceOnUse">
        <stop offset="0" stop-color="#fff"/>
        <stop offset="1" stop-color="#8c9bac"/>
    </radialGradient>
    <path fill="url(#b)" d="M553.5 431.7h.05l-63.1-64.15c-5.933 11.233-9.9 23.2-11.9 35.9a228.492 228.492 0 0 0-2.75 28.3c2.633 3.4 5.5 6.567 8.6 9.5a563.66 563.66 0 0 0 20.1 17.8h-.05a95.533 95.533 0 0 1 16.15 17.45c3.733 5.3 6.383 11.05 7.95 17.25 1.567 6.367 1.183 12.65-1.15 18.85-2.867 7.533-7.533 13.633-14 18.3-3.233 2.3-6.833 3.917-10.8 4.85h-.05c-7.567 1.467-14.817.517-21.75-2.85h.05c-4.033-1.9-7.817-4.333-11.35-7.3a172.682 172.682 0 0 1-24.7-25.6c-4.967-6.3-9.983-12.65-15.05-19.05v.05a243.271 243.271 0 0 0-16.5-18.7h-.05a299.778 299.778 0 0 0-18.35-17.35c-6.3-5.6-12.9-10.833-19.8-15.7a104.623 104.623 0 0 0-20.9-11.55 112.006 112.006 0 0 0-27.1-7.5c-10.2-1.533-20.233-.917-30.1 1.85-11.667 3.467-21.933 9.283-30.8 17.45a258.182 258.182 0 0 0-25 26.55c4.5.3 9 .7 13.5 1.2h.05c10 1.233 19.917 3.083 29.75 5.55 9.7 2.4 19.233 5.45 28.6 9.15H313a229.063 229.063 0 0 1 27.2 12.65l.05.05a247.087 247.087 0 0 1 25.9 16.6 278.993 278.993 0 0 1 24.5 20.15v.05a550.641 550.641 0 0 1 23.55 23.15 202.626 202.626 0 0 0 22.1 19.9v-.05a121.1 121.1 0 0 0 26.5 15.4h-.05c9.4 3.9 19.217 5.967 29.45 6.2h.05c10.933.3 21.383-1.683 31.35-5.95 9.233-3.933 17.283-8.767 24.15-14.5 5.133-4.333 9.367-8.717 12.7-13.15 6.433-8.533 11.283-17.967 14.55-28.3 4.3-13.733 5.333-27.7 3.1-41.9a97.818 97.818 0 0 0-10.25-30.45 91.666 91.666 0 0 0-14.35-20.1M426.3 221.35h-.05a257.65 257.65 0 0 1-29.85-5.25 233.188 233.188 0 0 1-28.65-8.85h.05a217.764 217.764 0 0 1-27.35-12.4h-.05a253.011 253.011 0 0 1-26.05-16.35 279.683 279.683 0 0 1-24.75-20 531.327 531.327 0 0 1-23.75-22.9 206.329 206.329 0 0 0-22.4-19.65c-8.3-6.167-17.183-11.183-26.65-15.05h.05c-9.467-3.833-19.3-5.817-29.5-5.95-10.967-.167-21.417 1.933-31.35 6.3-9.2 4.033-17.2 8.95-24 14.75-5.1 4.4-9.3 8.833-12.6 13.3h.05c-6.333 8.6-11.083 18.083-14.25 28.45-4.167 13.767-5.033 27.767-2.6 42 1.8 10.633 5.3 20.733 10.5 30.3a94.207 94.207 0 0 0 14.55 20V250l63.75 63.45c5.8-11.3 9.65-23.3 11.55-36a243.088 243.088 0 0 0 2.45-28.3 77.722 77.722 0 0 0-8.7-9.4 628.537 628.537 0 0 0-20.3-17.6 93.264 93.264 0 0 1-16.3-17.3c-3.8-5.233-6.5-10.95-8.1-17.15-1.667-6.333-1.367-12.617.9-18.85 2.767-7.6 7.367-13.767 13.8-18.5 3.233-2.367 6.833-4.017 10.8-4.95 0-.033.017-.05.05-.05 7.5-1.533 14.75-.65 21.75 2.65h-.05c4.067 1.867 7.867 4.283 11.4 7.25a172.53 172.53 0 0 1 25 25.3 3194.35 3194.35 0 0 0 15.3 18.9 263.801 263.801 0 0 0 16.75 18.5 310.27 310.27 0 0 0 18.5 17.15 231.39 231.39 0 0 0 20 15.45 104.588 104.588 0 0 0 21 11.35c8.733 3.5 17.8 5.917 27.2 7.25 10.167 1.4 20.183.65 30.05-2.25 11.6-3.567 21.8-9.467 30.6-17.7a277.527 277.527 0 0 0 24.75-26.85 298.923 298.923 0 0 1-13.5-1m-196.5 37.7v.05c-1.333 10-3.25 19.917-5.75 29.75a235.58 235.58 0 0 1-9.3 28.4 232.706 232.706 0 0 1-12.85 27.15 257.627 257.627 0 0 1-16.85 25.8 279.812 279.812 0 0 1-20.35 24.4 572.45 572.45 0 0 1-23.3 23.45 195.844 195.844 0 0 0-20 22c-6.333 8.2-11.517 17-15.55 26.4-3.967 9.367-6.1 19.167-6.4 29.4-.367 10.9 1.55 21.35 5.75 31.35 3.867 9.233 8.667 17.317 14.4 24.25 4.267 5.167 8.617 9.433 13.05 12.8h.05c8.467 6.467 17.867 11.383 28.2 14.75h-.05c13.733 4.367 27.733 5.467 42 3.3 10.667-1.667 20.817-5.017 30.45-10.05a91.171 91.171 0 0 0 20.2-14.2h-.05l64.5-62.65c-11.167-6.033-23.1-10.083-35.8-12.15-9.3-1.533-18.717-2.5-28.25-2.9a77.133 77.133 0 0 0-9.5 8.5l-.05.05a625.987 625.987 0 0 0-17.9 19.9 94.818 94.818 0 0 1-17.6 16.05 51.448 51.448 0 0 1-17.25 7.8c-6.367 1.567-12.65 1.167-18.85-1.2-7.567-2.933-13.65-7.633-18.25-14.1h-.05a30.115 30.115 0 0 1-4.75-10.9v-.05c-1.433-7.5-.45-14.717 2.95-21.65a50.794 50.794 0 0 1 7.45-11.2l.05-.05a167.506 167.506 0 0 1 25.7-24.55 8750.15 8750.15 0 0 0 19.1-15 273.906 273.906 0 0 0 18.85-16.45 332.383 332.383 0 0 0 17.45-18.2 219.338 219.338 0 0 0 15.7-19.75h.05a108.116 108.116 0 0 0 11.7-20.8 117.05 117.05 0 0 0 7.65-27.1c1.567-10.167.983-20.167-1.75-30-3.333-11.7-9.067-22-17.2-30.9-8.233-9-17.017-17.4-26.35-25.2-.367 4.5-.783 9-1.25 13.5M549.6 114.5c-8.5-6.5-17.9-11.4-28.2-14.7-13.7-4.433-27.683-5.567-41.95-3.4-10.7 1.6-20.883 4.933-30.55 10a90.594 90.594 0 0 0-20.15 14.15l-64.55 62.6c11.167 6.033 23.083 10.117 35.75 12.25a240.784 240.784 0 0 0 28.3 2.95 85.968 85.968 0 0 0 9.5-8.55 670.143 670.143 0 0 0 18-19.95 95.59 95.59 0 0 1 17.55-16.05h.05a50.69 50.69 0 0 1 17.25-7.75h.05c6.333-1.567 12.6-1.15 18.8 1.25 7.533 2.9 13.617 7.583 18.25 14.05v.05c2.267 3.267 3.867 6.883 4.8 10.85v.1c1.4 7.533.383 14.767-3.05 21.7V194c-1.967 4.033-4.45 7.8-7.45 11.3-7.667 9-16.233 17.183-25.7 24.55a2180.59 2180.59 0 0 0-19.2 14.95v-.05a273.514 273.514 0 0 0-18.8 16.4 309.123 309.123 0 0 0-17.45 18.2l-.05.05c-5.633 6.2-10.9 12.75-15.8 19.65v.05a104.817 104.817 0 0 0-11.7 20.75c-3.7 8.7-6.267 17.733-7.7 27.1-1.633 10.133-1.083 20.167 1.65 30.1 3.333 11.667 9.05 21.967 17.15 30.9v-.05c8.233 9 17.033 17.417 26.4 25.25.367-4.5.8-8.983 1.3-13.45v-.05a241.626 241.626 0 0 1 5.75-29.75c2.5-9.7 5.633-19.183 9.4-28.45a217.793 217.793 0 0 1 12.85-27.15v-.05a247.218 247.218 0 0 1 16.8-25.75 280.921 280.921 0 0 1 20.45-24.4c7.5-8 15.283-15.767 23.35-23.3a210.183 210.183 0 0 0 20.05-22.05v.05c6.3-8.233 11.467-17.033 15.5-26.4v.05c3.967-9.4 6.1-19.2 6.4-29.4.367-10.967-1.517-21.467-5.65-31.5v.05c-3.867-9.3-8.933-17.717-15.2-25.25-3.767-4.533-7.833-8.483-12.2-11.85Z"/>
    <linearGradient id="c" x1="444.35" y1="472.4" x2="445.45" y2="4.3" gradientUnits="userSpaceOnUse">
        <stop offset="0" stop-color="#767676" stop-opacity="0"/>
        <stop offset="1" stop-color="#767676" stop-opacity=".776"/>
    </linearGradient>
    <path fill="url(#c)" d="M191.4 313.45c5.767-11.233 9.6-23.167 11.5-35.8-16.867-2.967-33.467-3.733-49.8-2.3l38.3 38.1m34.1-30.6c-.467 2-.95 4-1.45 6a235.58 235.58 0 0 1-9.3 28.4 232.706 232.706 0 0 1-12.85 27.15 257.627 257.627 0 0 1-16.85 25.8 279.812 279.812 0 0 1-20.35 24.4 572.45 572.45 0 0 1-23.3 23.45 195.844 195.844 0 0 0-20 22c-6.333 8.2-11.517 17-15.55 26.4-3.967 9.367-6.1 19.167-6.4 29.4-.367 10.9 1.55 21.35 5.75 31.35 3.867 9.233 8.667 17.317 14.4 24.25 4.267 5.167 8.617 9.433 13.05 12.8h.05c8.467 6.467 17.867 11.383 28.2 14.75h-.05c13.733 4.367 27.733 5.467 42 3.3 10.667-1.667 20.817-5.017 30.45-10.05a91.171 91.171 0 0 0 20.2-14.2h-.05l64.5-62.65c-11.167-6.033-23.1-10.083-35.8-12.15-9.3-1.533-18.717-2.5-28.25-2.9a77.133 77.133 0 0 0-9.5 8.5l-.05.05a625.987 625.987 0 0 0-17.9 19.9 94.818 94.818 0 0 1-17.6 16.05 51.448 51.448 0 0 1-17.25 7.8c-6.367 1.567-12.65 1.167-18.85-1.2-7.567-2.933-13.65-7.633-18.25-14.1h-.05a30.115 30.115 0 0 1-4.75-10.9v-.05c-1.433-7.5-.45-14.717 2.95-21.65a50.794 50.794 0 0 1 7.45-11.2l.05-.05a167.506 167.506 0 0 1 25.7-24.55 8750.15 8750.15 0 0 0 19.1-15 273.906 273.906 0 0 0 18.85-16.45 332.383 332.383 0 0 0 17.45-18.2 219.338 219.338 0 0 0 15.7-19.75h.05a108.116 108.116 0 0 0 11.7-20.8 117.05 117.05 0 0 0 7.65-27.1c1.5-9.767 1.017-19.383-1.45-28.85-16.7-8.633-33.167-15.283-49.4-19.95m328 148.85h.05l-63.1-64.15c-5.933 11.233-9.9 23.2-11.9 35.9a228.492 228.492 0 0 0-2.75 28.3c2.633 3.4 5.5 6.567 8.6 9.5a563.66 563.66 0 0 0 20.1 17.8h-.05a95.533 95.533 0 0 1 16.15 17.45c3.733 5.3 6.383 11.05 7.95 17.25 1.567 6.367 1.183 12.65-1.15 18.85-2.867 7.533-7.533 13.633-14 18.3-3.233 2.3-6.833 3.917-10.8 4.85h-.05c-7.567 1.467-14.817.517-21.75-2.85h.05c-4.033-1.9-7.817-4.333-11.35-7.3a172.682 172.682 0 0 1-24.7-25.6c-4.967-6.3-9.983-12.65-15.05-19.05v.05a243.271 243.271 0 0 0-16.5-18.7h-.05a299.778 299.778 0 0 0-18.35-17.35c-6.3-5.6-12.9-10.833-19.8-15.7a104.623 104.623 0 0 0-20.9-11.55 112.006 112.006 0 0 0-27.1-7.5c-10.2-1.533-20.233-.917-30.1 1.85-11.667 3.467-21.933 9.283-30.8 17.45a258.182 258.182 0 0 0-25 26.55c4.5.3 9 .7 13.5 1.2h.05c10 1.233 19.917 3.083 29.75 5.55 9.7 2.4 19.233 5.45 28.6 9.15H313a229.063 229.063 0 0 1 27.2 12.65l.05.05a247.087 247.087 0 0 1 25.9 16.6 278.993 278.993 0 0 1 24.5 20.15v.05a550.641 550.641 0 0 1 23.55 23.15 202.626 202.626 0 0 0 22.1 19.9v-.05a121.1 121.1 0 0 0 26.5 15.4h-.05c9.4 3.9 19.217 5.967 29.45 6.2h.05c10.933.3 21.383-1.683 31.35-5.95 9.233-3.933 17.283-8.767 24.15-14.5 5.133-4.333 9.367-8.717 12.7-13.15 6.433-8.533 11.283-17.967 14.55-28.3 4.3-13.733 5.333-27.7 3.1-41.9a97.818 97.818 0 0 0-10.25-30.45 91.666 91.666 0 0 0-14.35-20.1m-146.8-90.8c-.433 2-.8 4.017-1.1 6.05-1.633 10.133-1.083 20.167 1.65 30.1 3.333 11.667 9.05 21.967 17.15 30.9v-.05c8.233 9 17.033 17.417 26.4 25.25.367-4.5.8-8.983 1.3-13.45v-.05a241.626 241.626 0 0 1 5.75-29.75c2.5-9.7 5.633-19.183 9.4-28.45a217.793 217.793 0 0 1 12.85-27.15v-.05a239.878 239.878 0 0 1 12.55-19.85c-28.467 15.767-57.117 24.6-85.95 26.5Z"/>
</svg>
