<svg viewBox="0 0 674 673" xmlns="http://www.w3.org/2000/svg">
    <radialGradient id="a" cx="336.923" cy="336.527" r="405.665" fx="336.923" fy="336.527" gradientUnits="userSpaceOnUse">
        <stop offset="0" stop-color="#032323"/>
        <stop offset="1" stop-color="#03bebe"/>
    </radialGradient>
    <path fill="url(#a)" d="M673.173 336.46c0-92.91-32.826-172.19-98.477-237.84C509.046 32.968 429.787.143 336.923.143 244.058.143 164.8 32.968 99.149 98.62 33.5 164.27.673 243.55.673 336.46c0 92.864 32.825 172.122 98.476 237.773 65.651 65.651 144.909 98.477 237.774 98.477 92.864 0 172.122-32.826 237.773-98.477 65.651-65.65 98.477-144.909 98.477-237.773M564.54 108.84c62.845 62.845 94.268 138.718 94.268 227.619 0 88.9-31.423 164.773-94.268 227.618-62.8 62.845-138.65 94.268-227.552 94.268-88.9 0-164.773-31.423-227.618-94.268S15.103 425.36 15.103 336.46s31.423-164.774 94.268-227.619 138.718-94.267 227.618-94.267c88.901 0 164.752 31.422 227.552 94.267Z"/>
    <radialGradient id="b" cx="336.923" cy="336.527" r="405.665" fx="336.923" fy="336.527" gradientUnits="userSpaceOnUse">
        <stop offset="0" stop-color="#059696"/>
        <stop offset="1" stop-color="#030808"/>
    </radialGradient>
    <path fill="url(#b)" d="M658.809 336.46c0-88.9-31.423-164.774-94.268-227.619-62.8-62.845-138.65-94.267-227.552-94.267-88.9 0-164.773 31.422-227.618 94.267S15.103 247.56 15.103 336.46c0 88.9 31.423 164.773 94.268 227.618s138.718 94.268 227.618 94.268c88.901 0 164.752-31.423 227.552-94.268 62.845-62.845 94.268-138.718 94.268-227.618M546.102 127.28c57.767 57.768 86.651 127.517 86.651 209.247 0 81.685-28.884 151.411-86.651 209.179-57.723 57.767-127.45 86.651-209.18 86.651-81.685 0-151.411-28.884-209.179-86.651-57.767-57.768-86.651-127.494-86.651-209.18 0-81.73 28.884-151.478 86.651-209.245 57.768-57.768 127.494-86.652 209.18-86.652 81.73 0 151.456 28.884 209.179 86.652Z"/>
    <radialGradient id="c" cx="336.923" cy="336.527" r="298.169" fx="336.923" fy="336.527" gradientUnits="userSpaceOnUse">
        <stop offset="0" stop-color="#069999"/>
        <stop offset="1" stop-color="#0d1010"/>
    </radialGradient>
    <path fill="url(#c)" d="M632.753 336.527c0-81.73-28.884-151.479-86.651-209.246-57.723-57.768-127.45-86.652-209.18-86.652-81.685 0-151.411 28.884-209.179 86.652-57.767 57.767-86.651 127.516-86.651 209.246 0 81.685 28.884 151.411 86.651 209.179 57.768 57.767 127.494 86.651 209.18 86.651 81.73 0 151.456-28.884 209.179-86.651 57.767-57.768 86.651-127.494 86.651-209.18Z"/>
    <radialGradient id="d" cx="336.923" cy="336.527" r="298.169" fx="336.923" fy="336.527" gradientUnits="userSpaceOnUse">
        <stop offset="0" stop-color="#0fffff" stop-opacity=".149"/>
        <stop offset="1" stop-color="#0ff" stop-opacity="0"/>
    </radialGradient>
    <path fill="url(#d)" d="M656.337 294.303c-8.522-70.966-39.12-132.786-91.796-185.462-62.8-62.845-138.65-94.267-227.552-94.267-88.9 0-164.773 31.422-227.618 94.267S15.103 247.56 15.103 336.46c0 20.92 1.737 41.119 5.211 60.596 126.632 42.655 234.64 26.643 324.024-48.036 89.395-74.634 193.394-92.872 311.999-54.717Z"/>
    <path fill="#0fffff" d="M395.056 482.547h88.225L382.684 323.214 117.41 534.077l226.778-122.218 50.87 70.688m-204.918-292.12L290.736 349.76 556.01 138.897 329.233 261.114l-50.87-70.688H190.14Z"/>
</svg>
