
<svg xmlns="http://www.w3.org/2000/svg" version="1.1" xmlns:xlink="http://www.w3.org/1999/xlink" preserveAspectRatio="none" x="0px" y="0px" width="160px" height="160px" viewBox="0 0 160 160">
<defs>
<g id="Layer4_0_FILL">
<path fill="#990928" stroke="none" d="
M 84.6 1.5
Q 84.3107421875 1.203515625 83.9 1.2
L 65.3 1.2
Q 64.8892578125 1.203515625 64.6 1.5 64.303515625 1.7892578125 64.3 2.2
L 64.3 21.1 35.45 21.1
Q 35.0392578125 21.103515625 34.75 21.4 34.453515625 21.6892578125 34.45 22.1
L 34.45 131.15
Q 34.453515625 131.5607421875 34.75 131.85 35.0392578125 132.146484375 35.45 132.15
L 64.3 132.15 64.3 157.8
Q 64.303515625 158.2107421875 64.6 158.5 64.8892578125 158.796484375 65.3 158.8
L 83.9 158.8
Q 84.3107421875 158.796484375 84.6 158.5 84.896484375 158.2107421875 84.9 157.8
L 84.9 130.85 84.9 130.85
Q 101.300390625 127.658203125 111.4 116.25 125.5521484375 100.45703125 125.55 76.8 125.5447265625 53.2609375 111.8 37.2 101.1240234375 24.627734375 84.9 21.9
L 84.9 21.9 84.9 21.9 84.9 2.2
Q 84.896484375 1.7892578125 84.6 1.5
M 84.5 23.85
Q 84.5373046875 23.8759765625 84.55 23.85 100.076171875 26.472265625 110.3 38.5 123.555078125 54.038671875 123.55 76.8 123.54765625 99.64375 109.9 114.9 100.20625 125.8341796875 84.5 128.9
L 84.55 128.9
Q 83.8064453125 129.0111328125 83.35 129.6 82.901953125 130.1486328125 82.9 130.85
L 82.9 156.8 66.3 156.8 66.3 132.15
Q 66.305078125 131.348046875 65.7 130.75 65.101953125 130.144921875 64.3 130.15
L 36.45 130.15 36.45 23.1 64.3 23.1
Q 65.101953125 23.105078125 65.7 22.5 66.305078125 21.901953125 66.3 21.1
L 66.3 3.2 82.9 3.2 82.9 21.9
Q 82.883984375 22.6017578125 83.35 23.2
L 83.35 23.15
Q 83.738671875 23.6806640625 84.5 23.85
M 97.3 47
Q 92.382421875 40.28359375 85.7 37.3 80.910546875 35.1291015625 75.2 34.95 74.65234375 34.8974609375 74.05 34.9
L 55.05 34.9
Q 54.248046875 34.894921875 53.65 35.5 53.044921875 36.098046875 53.05 36.9
L 53.05 115.8
Q 53.044921875 116.601953125 53.65 117.2 54.248046875 117.805078125 55.05 117.8
L 71.8 117.8
Q 71.95 117.8 72.05 117.8 72.1 117.8 72.25 117.8 72.9888671875 117.8013671875 73.65 117.75 80.1615234375 117.380078125 85.75 114.7 91.2876953125 112.0330078125 95.95 107.1
L 95.95 107.05
Q 105.8466796875 96.5599609375 105.85 75.7 105.8458984375 58.692578125 97.3 47
M 84.9 39.1
Q 91.117578125 41.9162109375 95.7 48.2 103.85390625 59.4072265625 103.85 75.7 103.853125 95.640234375 94.5 105.7
L 94.5 105.7
Q 90.1123046875 110.366796875 84.9 112.9 79.6490234375 115.4146484375 73.55 115.75
L 73.5 115.75
Q 72.9109375 115.7984375 72.25 115.8 72.1 115.8 72.05 115.8 71.95 115.8 71.8 115.8
L 55.05 115.8 55.05 36.9 74.05 36.9
Q 74.5474609375 36.90234375 75 36.95 75.0388671875 36.951171875 75.05 36.95 80.420703125 37.08515625 84.9 39.1 Z"/>

<path fill="#E11D48" stroke="none" d="
M 84.55 23.85
Q 84.5373046875 23.8759765625 84.5 23.85 83.738671875 23.6806640625 83.35 23.15
L 83.35 23.2
Q 82.883984375 22.6017578125 82.9 21.9
L 82.9 3.2 66.3 3.2 66.3 21.1
Q 66.305078125 21.901953125 65.7 22.5 65.101953125 23.105078125 64.3 23.1
L 36.45 23.1 36.45 130.15 64.3 130.15
Q 65.101953125 130.144921875 65.7 130.75 66.305078125 131.348046875 66.3 132.15
L 66.3 156.8 82.9 156.8 82.9 130.85
Q 82.901953125 130.1486328125 83.35 129.6 83.8064453125 129.0111328125 84.55 128.9
L 84.5 128.9
Q 100.20625 125.8341796875 109.9 114.9 123.54765625 99.64375 123.55 76.8 123.555078125 54.038671875 110.3 38.5 100.076171875 26.472265625 84.55 23.85
M 85.7 37.3
Q 92.382421875 40.28359375 97.3 47 105.8458984375 58.692578125 105.85 75.7 105.8466796875 96.5599609375 95.95 107.05
L 95.95 107.1
Q 91.2876953125 112.0330078125 85.75 114.7 80.1615234375 117.380078125 73.65 117.75 72.9888671875 117.8013671875 72.25 117.8 72.1 117.8 72.05 117.8 71.95 117.8 71.8 117.8
L 55.05 117.8
Q 54.248046875 117.805078125 53.65 117.2 53.044921875 116.601953125 53.05 115.8
L 53.05 36.9
Q 53.044921875 36.098046875 53.65 35.5 54.248046875 34.894921875 55.05 34.9
L 74.05 34.9
Q 74.65234375 34.8974609375 75.2 34.95 80.910546875 35.1291015625 85.7 37.3 Z"/>
</g>

<path id="Layer4_0_1_STROKES" stroke="#FF9191" stroke-width="2" stroke-linejoin="round" stroke-linecap="square" fill="none" d="
M 64.3 21.1
L 35.45 21.1
Q 35.0392578125 21.103515625 34.75 21.4 34.453515625 21.6892578125 34.45 22.1
L 34.45 131.15
Q 34.453515625 131.5607421875 34.75 131.85 35.0392578125 132.146484375 35.45 132.15
L 64.3 132.15 64.3 157.8
Q 64.303515625 158.2107421875 64.6 158.5 64.8892578125 158.796484375 65.3 158.8
L 83.9 158.8
Q 84.3107421875 158.796484375 84.6 158.5 84.896484375 158.2107421875 84.9 157.8
L 84.9 130.875 84.925 130.875
Q 101.300390625 127.658203125 111.4 116.275 125.5521484375 100.45703125 125.55 76.8 125.5447265625 53.2609375 111.8 37.2 101.1240234375 24.627734375 84.925 21.925
L 84.925 21.9 84.9 21.9 84.9 2.2
Q 84.896484375 1.7892578125 84.6 1.5 84.3107421875 1.203515625 83.9 1.2
L 65.3 1.2
Q 64.8892578125 1.203515625 64.6 1.5 64.303515625 1.7892578125 64.3 2.2
L 64.3 21.1 Z
M 71.8 115.8
L 55.05 115.8 55.05 36.9 74.05 36.9
Q 74.5474609375 36.90234375 75 36.95 75.0388671875 36.951171875 75.075 36.95 80.420703125 37.08515625 84.9 39.1 91.117578125 41.9162109375 95.7 48.2 103.85390625 59.4072265625 103.85 75.7 103.853125 95.640234375 94.525 105.725
L 94.525 105.7
Q 90.1123046875 110.366796875 84.925 112.9 79.6490234375 115.4146484375 73.55 115.75
L 73.525 115.75
Q 72.9109375 115.7984375 72.25 115.8 72.1 115.8 72.05 115.8 71.95 115.8 71.8 115.8 Z"/>
</defs>

<g transform="matrix( 1, 0, 0, 1, 0,0) ">
<use xlink:href="#Layer4_0_FILL"/>

<use xlink:href="#Layer4_0_1_STROKES"/>
</g>
</svg>
