<svg viewBox="0 0 64 64" xmlns="http://www.w3.org/2000/svg">
    <path fill="#282a39" fill-rule="evenodd" d="M64 32C64 14.327 49.673 0 32 0 14.327 0 0 14.327 0 32c0 17.673 14.327 32 32 32 17.673 0 32-14.327 32-32Z"/>
    <path fill="none" stroke="#03a5ed" stroke-width=".653" stroke-linecap="round" stroke-linejoin="round" d="m32.26 13.008-18.73 31.74h36.943L32.26 13.008Z"/>
    <path fill="#03a5ed" d="M32.26 15.61a2.602 2.602 0 1 0 .102-5.203 2.602 2.602 0 0 0-.102 5.203Z"/>
    <path fill="#03a5ed" d="M50.212 47.35a2.602 2.602 0 1 0 0-5.204 2.602 2.602 0 0 0 0 5.204Z"/>
    <path fill="#03a5ed" d="M13.789 47.35a2.602 2.602 0 1 0 0-5.204 2.602 2.602 0 0 0 0 5.204Z"/>
    <path fill="#b5c0f1" d="M32.26 26.017v8.585l7.025 3.642-7.025-12.227Z"/>
    <path fill="#535974" d="m32.26 34.602-7.024 3.642h14.049l-7.025-3.642Z"/>
    <path fill="#03a5ed" d="m32.26 26.017-7.024 12.227 7.024-3.642v-8.585Z"/>
</svg>
