<svg viewBox="0 0 64 64" xmlns="http://www.w3.org/2000/svg">
    <path fill="#1e1e1e" fill-rule="evenodd" d="M64 32C64 14.327 49.673 0 32 0 14.327 0 0 14.327 0 32c0 17.673 14.327 32 32 32 17.673 0 32-14.327 32-32Z"/>
    <path fill="#f9f9f9" d="M30.217 12.345a2.568 2.568 0 0 1 2.57 0l14.93 8.703A2.58 2.58 0 0 1 49 23.292v17.41a2.6 2.6 0 0 1-1.25 2.248l-14.948 8.7a2.532 2.532 0 0 1-2.57 0l-14.949-8.7A2.6 2.6 0 0 1 14 40.702v-17.41a2.58 2.58 0 0 1 1.269-2.244Zm-4.5 8.856-6.414 3.766a.62.62 0 0 0-.303.534v13.895c0 .249.13.48.343.604l11.741 6.874a.897.897 0 0 0 .918 0l6.05-3.525a.238.238 0 0 0 0-.41l-11.825-6.903a.308.308 0 0 1-.148-.282V21.41a.242.242 0 0 0-.12-.212.236.236 0 0 0-.241.003Z"/>
</svg>
