<?xml version="1.0" encoding="utf-8"?>
<!-- Generator: Adobe Illustrator 24.0.2, SVG Export Plug-In . SVG Version: 6.00 Build 0)  -->
<svg version="1.1" id="Layer_1" xmlns="http://www.w3.org/2000/svg" xmlns:xlink="http://www.w3.org/1999/xlink" x="0px" y="0px"
	 viewBox="0 0 500 500" style="enable-background:new 0 0 500 500;" xml:space="preserve">
<style type="text/css">
	.st0{fill:#B026CF;}
	.st1{fill:#FFFFFF;}
</style>
<g>
	<circle class="st0" cx="249.5" cy="249" r="150"/>
	<g>
		<path class="st1" d="M249.4,185.1c0,0-13.9,29.1-80.8,88.7L249.4,185.1z"/>
		<path class="st1" d="M249.4,212.1c0,0-11.6,38-87.2,73.1L249.4,212.1z"/>
		<path class="st1" d="M249.4,239.2c0,0-9.3,39.9-93.5,57.4L249.4,239.2z"/>
		<path class="st1" d="M249.4,266.2c0,0-7.1,41.8-99.9,41.8L249.4,266.2z"/>
		<path class="st1" d="M249.4,158c0,0-16.2,34.3-74.4,104.4L249.6,158c0,0,16.2,34.3,74.4,104.4L249.4,158z"/>
		<path class="st1" d="M249.6,185.1c0,0,13.9,29.1,80.8,88.7L249.6,185.1z"/>
		<path class="st1" d="M249.6,212.1c0,0,11.6,38,87.2,73.1L249.6,212.1z"/>
		<path class="st1" d="M249.6,239.2c0,0,9.3,39.9,93.5,57.4L249.6,239.2z"/>
		<path class="st1" d="M249.6,266.2c0,0,7.1,41.8,99.9,41.8L249.6,266.2z"/>
	</g>
</g>
</svg>
