<svg width="200" height="200" fill="none" xmlns="http://www.w3.org/2000/svg">
    <path fill="url(#paint0_linear_4_18)" d="M0 0h200v200H0z"/>
    <path d="M98.43 89.79L40.57 56.6a3.16 3.16 0 00-4.73 2.74v88.07a3.162 3.162 0 001.95 2.92c.384.159.795.24 1.21.24h10.17a3.17 3.17 0 003.17-3.16V87.83a3.16 3.16 0 014.73-2.74l21.42 12.28a3.17 3.17 0 010 5.5l-15.16 8.57a3.177 3.177 0 00-1.61 2.76v45.2a3.15 3.15 0 001.56 2.72l36.13 21.38a3.136 3.136 0 003.29-.05l33.94-21.36a3.164 3.164 0 001.47-2.68v-5.95a3.15 3.15 0 00-1.58-2.74l-28.2-16.23a3.173 3.173 0 00-4.33 1.16l-5.07 8.82a3.17 3.17 0 001.16 4.32l9.39 5.41a3.151 3.151 0 01.11 5.41l-7.17 4.52a3.142 3.142 0 01-3.29 0l-19.38-11.42A3.162 3.162 0 0178.2 150v-26.18a3.142 3.142 0 011.61-2.75l18.56-10.5a3.18 3.18 0 013.13 0l18.69 10.73a3.156 3.156 0 011.59 2.74v5.59c.003.837.336 1.64.928 2.232a3.173 3.173 0 002.232.928h10.18a3.173 3.173 0 002.232-.928 3.173 3.173 0 00.928-2.232v-15.15a3.172 3.172 0 00-1.59-2.74L121.45 103a3.172 3.172 0 010-5.5l21.73-12.29a3.162 3.162 0 014.73 2.79v59.72a3.17 3.17 0 003.17 3.16h10.17a3.157 3.157 0 002.919-1.951c.159-.383.241-.794.241-1.209v-88a3.159 3.159 0 00-4.72-2.75L101.56 89.8a3.148 3.148 0 01-3.13-.01z" fill="#fff"/>
    <path d="M99.74 25.83a18.92 18.92 0 00-18.92 18.92h37.84a18.922 18.922 0 00-18.92-18.92z" fill="#fff"/>
    <path d="M126.8 46.38H72.68a1.63 1.63 0 110-3.26h54.12a1.633 1.633 0 011.63 1.63 1.636 1.636 0 01-1.63 1.63z" fill="#fff"/>
    <defs>
        <linearGradient id="paint0_linear_4_18" x1="100.006" y1="2.177" x2="100.006" y2="202.576" gradientUnits="userSpaceOnUse">
            <stop stop-color="#FDDE4F"/>
            <stop offset=".15" stop-color="#F4C44E"/>
            <stop offset=".45" stop-color="#E79449"/>
            <stop offset=".71" stop-color="#DF7245"/>
            <stop offset=".9" stop-color="#DB5942"/>
            <stop offset="1" stop-color="#DA4F41"/>
        </linearGradient>
    </defs>
</svg>
