<svg xmlns="http://www.w3.org/2000/svg" width="342" height="342">
    <defs>
        <style>
            .c{fill:#ec297b}
        </style>
    </defs>
    <path d="M0 0h342v342H0z"/>
    <path d="M152.35 170.46l-12.18-12.19a.5.5 0 00-.35-.14.48.48 0 00-.34.14l-34.41 34.41v-86.53a.51.51 0 00-.3-.46h-.19a.52.52 0 00-.35.14l-64.65 64.63a.49.49 0 00-.15.34.51.51 0 00.15.35l12.18 12.18a.47.47 0 00.35.14.45.45 0 00.34-.14l34.41-34.41v86.54a.49.49 0 00.3.45.43.43 0 00.19 0 .45.45 0 00.34-.15l64.66-64.65a.49.49 0 000-.65z" fill="#00adee"/>
    <path class="c" d="M185.24 49.85l-12.18-12.19a.49.49 0 00-.34-.14.52.52 0 00-.35.14l-56 56a.49.49 0 000 .69l12.18 12.19a.52.52 0 00.35.14.49.49 0 00.34-.14l56-56a.47.47 0 000-.69z"/>
    <path class="c" d="M229.1 93.7l-12.18-12.18a.51.51 0 00-.34-.14.52.52 0 00-.35.14l-56 56a.49.49 0 000 .69l12.18 12.19a.52.52 0 00.35.14.49.49 0 00.34-.14l56-56a.49.49 0 000-.7z"/>
    <path class="c" d="M207.17 71.77L195 59.59a.49.49 0 00-.34-.14.52.52 0 00-.35.14l-56 56a.49.49 0 000 .69l12.18 12.19a.52.52 0 00.35.14.49.49 0 00.34-.14l56-56a.49.49 0 00-.01-.7z"/>
    <path d="M219.71 243.93h-43.37v-55.55a.49.49 0 00-.3-.45.43.43 0 00-.19 0 .49.49 0 00-.35.15l-64.65 64.65a.49.49 0 000 .69L123 265.57a.5.5 0 00.35.14.48.48 0 00.34-.14l34.41-34.41v74.35a.49.49 0 00.49.49h17.23a.49.49 0 00.49-.49v-43.37h43.37a.49.49 0 00.49-.49v-17.23a.49.49 0 00-.46-.49z" fill="#37b34a"/>
    <path d="M305.86 170.46l-56-56.05a.51.51 0 00-.7 0l-56 56.05a.48.48 0 00-.14.34.5.5 0 00.14.35l56 56a.51.51 0 00.7 0l56-56a.49.49 0 000-.69zm-56.39 31.33l-31-31 31-31 31 31z" fill="#f6921e"/>
</svg>
