<svg viewBox="0 0 342 342" xmlns="http://www.w3.org/2000/svg">
    <path fill-rule="evenodd" d="M342 171C342 76.56 265.44 0 171 0S0 76.56 0 171s76.56 171 171 171 171-76.56 171-171Z"/>
    <path fill="#00adee" d="m152.35 170.46-12.18-12.19a.5.5 0 0 0-.35-.14.48.48 0 0 0-.34.14l-34.41 34.41v-86.53a.51.51 0 0 0-.3-.46h-.19a.52.52 0 0 0-.35.14l-64.65 64.63a.49.49 0 0 0-.15.34.51.51 0 0 0 .15.35l12.18 12.18a.47.47 0 0 0 .35.14.45.45 0 0 0 .34-.14l34.41-34.41v86.54a.49.49 0 0 0 .3.45.43.43 0 0 0 .19 0 .45.45 0 0 0 .34-.15l64.66-64.65a.49.49 0 0 0 0-.65Z"/>
    <path fill="#ec297b" d="m185.24 49.85-12.18-12.19a.49.49 0 0 0-.34-.14.52.52 0 0 0-.35.14l-56 56a.49.49 0 0 0 0 .69l12.18 12.19a.52.52 0 0 0 .35.14.49.49 0 0 0 .34-.14l56-56a.47.47 0 0 0 0-.69Z"/>
    <path fill="#ec297b" d="m229.1 93.7-12.18-12.18a.51.51 0 0 0-.34-.14.52.52 0 0 0-.35.14l-56 56a.49.49 0 0 0 0 .69l12.18 12.19a.52.52 0 0 0 .35.14.49.49 0 0 0 .34-.14l56-56a.49.49 0 0 0 0-.7Z"/>
    <path fill="#ec297b" d="M207.17 71.77 195 59.59a.49.49 0 0 0-.34-.14.52.52 0 0 0-.35.14l-56 56a.49.49 0 0 0 0 .69l12.18 12.19a.52.52 0 0 0 .35.14.49.49 0 0 0 .34-.14l56-56a.49.49 0 0 0-.01-.7Z"/>
    <path fill="#37b34a" d="M219.71 243.93h-43.37v-55.55a.49.49 0 0 0-.3-.45.43.43 0 0 0-.19 0 .49.49 0 0 0-.35.15l-64.65 64.65a.49.49 0 0 0 0 .69L123 265.57a.5.5 0 0 0 .35.14.48.48 0 0 0 .34-.14l34.41-34.41v74.35c0 .27.22.49.49.49h17.23c.27 0 .49-.22.49-.49v-43.37h43.37c.27 0 .49-.22.49-.49v-17.23a.49.49 0 0 0-.46-.49Z"/>
    <path fill="#f6921e" d="m305.86 170.46-56-56.05a.51.51 0 0 0-.7 0l-56 56.05a.48.48 0 0 0-.14.34.5.5 0 0 0 .14.35l56 56a.51.51 0 0 0 .7 0l56-56a.49.49 0 0 0 0-.69Zm-56.39 31.33-31-31 31-31 31 31Z"/>
</svg>
