<?xml version="1.0" standalone="no"?>
<!DOCTYPE svg PUBLIC "-//W3C//DTD SVG 20010904//EN"
 "http://www.w3.org/TR/2001/REC-SVG-20010904/DTD/svg10.dtd">
<svg version="1.0" xmlns="http://www.w3.org/2000/svg"
 width="2700.000000pt" height="2700.000000pt" viewBox="0 0 2700.000000 2700.000000"
 preserveAspectRatio="xMidYMid meet">

<g transform="translate(0.000000,2700.000000) scale(0.100000,-0.100000)"
fill="#000000" stroke="none">
<path d="M4350 21831 l0 -2460 43 -6 c319 -43 1898 -178 2802 -240 769 -52
2188 -125 2435 -125 37 0 60 -4 55 -9 -6 -5 -143 -60 -305 -124 -1497 -585
-3043 -1140 -4480 -1605 -272 -89 -507 -164 -522 -168 l-28 -6 0 -2458 0
-2458 73 -6 c258 -22 1948 -90 2877 -116 834 -23 2100 -43 3245 -51 l130 0
-65 -26 c-125 -49 -819 -302 -1185 -433 -1541 -549 -3337 -1126 -4860 -1560
-99 -28 -188 -53 -198 -56 -16 -5 -17 -128 -15 -2442 l3 -2437 220 -22 c1863
-188 3868 -315 5794 -369 153 -4 237 -10 227 -16 -28 -16 -972 -339 -1536
-526 -1414 -469 -2945 -931 -4327 -1308 l-363 -99 4178 -3 c4235 -3 4515 -1
4957 34 797 63 1595 217 2370 459 l115 36 2 1756 3 1756 160 69 c1829 792
3874 1768 5610 2675 379 198 1085 576 1083 579 -2 1 -133 -17 -293 -42 -1747
-263 -4002 -498 -5665 -588 -83 -4 -92 -7 -375 -131 -159 -70 -300 -131 -312
-136 l-23 -9 0 2568 0 2568 203 94 c1308 607 2835 1375 4242 2133 683 368
1985 1097 1959 1097 -5 0 -120 -24 -255 -54 -1935 -431 -4037 -756 -5989 -926
-129 -11 -255 -22 -280 -25 -30 -3 -144 -50 -345 -143 -165 -76 -321 -148
-347 -160 l-48 -21 0 2597 1 2597 416 205 c642 316 1983 1004 2218 1137 l60
34 -75 -5 c-331 -26 -1113 -62 -1690 -77 -481 -13 -1926 -7 -2320 10 -129 6
-356 15 -505 21 -148 6 -277 14 -285 16 -8 3 148 80 345 172 l360 168 3 531 2
530 -62 6 c-170 17 -443 38 -618 47 -125 6 -1733 10 -4507 10 l-4313 0 0
-2459z"/>
</g>
</svg>
