<svg viewBox="0 0 350 350" xmlns="http://www.w3.org/2000/svg">
    <path fill-rule="evenodd" d="M350 175C350 78.35 271.65 0 175 0S0 78.35 0 175s78.35 175 175 175 175-78.35 175-175Z"/>
    <linearGradient id="a" x1="123.265" y1="159.516" x2="161.967" y2="103.319" gradientUnits="userSpaceOnUse">
        <stop offset=".151" stop-color="#e26268"/>
        <stop offset=".262" stop-color="#da5e64"/>
        <stop offset=".422" stop-color="#cc575d"/>
        <stop offset=".61" stop-color="#b64a51"/>
        <stop offset=".818" stop-color="#973940"/>
        <stop offset="1" stop-color="#79272f"/>
    </linearGradient>
    <path fill="url(#a)" d="M136.693 81.667c-16.307 18.829-27.458 49.133-29.223 83.884h52.468c1.753-24.756 9.896-41.827 15.767-49.054-13.447-20.774-31.046-30.867-39.012-34.83Z"/>
    <linearGradient id="b" x1="222.061" y1="104.111" x2="160.847" y2="136.648" gradientUnits="userSpaceOnUse">
        <stop offset="0" stop-color="#f9a57b"/>
        <stop offset="1" stop-color="#ee2957"/>
    </linearGradient>
    <path fill="url(#b)" d="M191.47 165.551h52.468c-2.964-58.339-32.371-104.161-68.234-104.161-14.5 0-27.943 7.496-39.011 20.276 7.939 3.949 25.555 14.041 39.011 34.831 13.204 20.401 15.343 40.193 15.766 49.054Z"/>
    <linearGradient id="c" x1="123.265" y1="190.941" x2="161.967" y2="247.138" gradientUnits="userSpaceOnUse">
        <stop offset=".151" stop-color="#622d33"/>
        <stop offset=".388" stop-color="#5e2a30"/>
        <stop offset=".725" stop-color="#542228"/>
        <stop offset="1" stop-color="#491820"/>
    </linearGradient>
    <path fill="url(#c)" d="M136.693 268.791c-16.307-18.829-27.458-49.133-29.223-83.884h52.468c1.753 24.756 9.896 41.827 15.767 49.054-13.447 20.773-31.046 30.866-39.012 34.83Z"/>
    <linearGradient id="d" x1="230.775" y1="250.977" x2="169.561" y2="218.44" gradientUnits="userSpaceOnUse">
        <stop offset="0" stop-color="#6e483c"/>
        <stop offset="1" stop-color="#6a1d2f"/>
    </linearGradient>
    <path fill="url(#d)" d="M191.47 184.906h52.468c-2.964 58.339-32.371 104.161-68.234 104.161-14.5 0-27.943-7.496-39.011-20.276 7.939-3.949 25.555-14.041 39.011-34.831 13.205-20.401 15.343-40.193 15.766-49.054Z"/>
</svg>
