<svg xmlns="http://www.w3.org/2000/svg" viewBox="0 0 409.408 501.079" style="enable-background:new 0 0 409.408 501.079" xml:space="preserve">
    <linearGradient id="a" gradientUnits="userSpaceOnUse" x1="152.265" y1="234.595" x2="190.967" y2="178.398">
        <stop offset=".151" style="stop-color:#e26268"/>
        <stop offset=".262" style="stop-color:#da5e64"/>
        <stop offset=".422" style="stop-color:#cc575d"/>
        <stop offset=".61" style="stop-color:#b64a51"/>
        <stop offset=".818" style="stop-color:#973940"/>
        <stop offset="1" style="stop-color:#79272f"/>
    </linearGradient>
    <path style="fill:url(#a)" d="M165.693 156.746c-16.307 18.829-27.458 49.133-29.223 83.884h52.468c1.753-24.756 9.896-41.827 15.767-49.054-13.447-20.774-31.046-30.867-39.012-34.83z"/>
    <linearGradient id="b" gradientUnits="userSpaceOnUse" x1="251.061" y1="179.19" x2="189.847" y2="211.727">
        <stop offset="0" style="stop-color:#f9a57b"/>
        <stop offset="1" style="stop-color:#ee2957"/>
    </linearGradient>
    <path style="fill:url(#b)" d="M220.47 240.63h52.468c-2.964-58.339-32.371-104.161-68.234-104.161-14.5 0-27.943 7.496-39.011 20.276 7.939 3.949 25.555 14.041 39.011 34.831 13.204 20.401 15.343 40.193 15.766 49.054z"/>
    <linearGradient id="c" gradientUnits="userSpaceOnUse" x1="152.265" y1="355.923" x2="190.967" y2="299.726" gradientTransform="matrix(1 0 0 -1 0 621.943)">
        <stop offset=".151" style="stop-color:#622d33"/>
        <stop offset=".388" style="stop-color:#5e2a30"/>
        <stop offset=".725" style="stop-color:#542228"/>
        <stop offset="1" style="stop-color:#491820"/>
    </linearGradient>
    <path style="fill:url(#c)" d="M165.693 343.87c-16.307-18.829-27.458-49.133-29.223-83.884h52.468c1.753 24.756 9.896 41.827 15.767 49.054-13.447 20.773-31.046 30.866-39.012 34.83z"/>
    <linearGradient id="d" gradientUnits="userSpaceOnUse" x1="259.775" y1="295.887" x2="198.561" y2="328.424" gradientTransform="matrix(1 0 0 -1 0 621.943)">
        <stop offset="0" style="stop-color:#6e483c"/>
        <stop offset="1" style="stop-color:#6a1d2f"/>
    </linearGradient>
    <path style="fill:url(#d)" d="M220.47 259.985h52.468c-2.964 58.339-32.371 104.161-68.234 104.161-14.5 0-27.943-7.496-39.011-20.276 7.939-3.949 25.555-14.041 39.011-34.831 13.205-20.401 15.343-40.193 15.766-49.054z"/>
</svg>
