<svg width="64" height="64" fill="none" xmlns="http://www.w3.org/2000/svg">
    <path fill="#fff" d="M0 0h64v64H0z"/>
    <g transform-origin="32 32" transform="scale(0.8)">
        <path fill="#E40C5B" fill-rule="evenodd" clip-rule="evenodd" d="M28.895.044c-2.271.053-4.46.137-6.088.284l-3.744.337-2.438 2.076c-4.366 3.718-7.34 6.495-9.237 8.625-3.821 4.289-6.078 6.978-6.313 7.523-.2.467-.608 5.315-.905 10.772a74.3 74.3 0 01-.09 1.46c-.007.082.008.503.021.88h5.213c.814-.825 1.622-1.655 2.432-2.484a149.3 149.3 0 003.628-3.85c1.77-1.977 1.695-1.658 1.892-8.016l.137-4.422 3.202-.124a399.6 399.6 0 005.347-.244l2.145-.119 1.602-1.403c.881-.772 2.63-2.417 3.886-3.657l2.284-2.253.13-.126V.044zm2.518 2.394L29.79 4.201c-.893.97-2.727 2.774-4.077 4.01l-2.455 2.248-1.538.122c-2.344.186-9.65.181-9.767-.006-.056-.091 1.309-1.392 3.033-2.89 1.725-1.499 3.601-3.105 4.171-3.57l1.036-.845 3.179-.286a189.92 189.92 0 015.61-.415zm-9.815 2.588a1.85 1.85 0 00-.464.09c-.763.251-1.007.517-1.335 1.454-.244.695-.2 1.318.14 1.98.514 1.002 2.603 1.423 3.35.675.436-.436.758-1.13.834-1.718a1.589 1.589 0 00-.012-.537c-.257-1.171-1.415-2.019-2.513-1.945zm.074 1.481c.412-.047.791.283.902.725.043.168.046.352-.003.538-.12.46-.503.551-.962.23-.466-.327-.542-1.285-.115-1.449a.726.726 0 01.178-.043zm10.312 3.345l-1.405 1.3c-.773.716-2.256 2.048-3.295 2.96l-1.89 1.66-2.503.2c-1.376.11-3.361.201-4.411.201h-1.91l-.132 2.857a138.682 138.682 0 01-.276 4.489l-.143 1.631-1.323 1.553a99.972 99.972 0 01-2.92 3.239c-.574.685-1.39 1.413-1.896 2.058h4.431c.266-.536.884-.798 1.31-1.013 1.607-.803 3.134-.808 4.81-.015.553.262 1.148.705 1.326 1.029h2.195l-.236-.284-.644-.665c-.354-.366-1.271-.977-2.038-1.356-1.247-.617-1.55-.69-2.856-.69-.803 0-1.458-.043-1.454-.095.004-.051.488-.63 1.076-1.287l1.07-1.194.187-1.804.189-1.803.454.673c.25.37.597.75.771.843l1.137.62c1.059.581 2.457.95 3.608.953l.914.002-.085-1.466c-.104-1.8-.862-3.567-2.005-4.676l-.766-.743.584-.117c.322-.064 1.052-.116 1.622-.116 1.003 0 1.08-.038 2.302-1.124.696-.619 1.293-1.124 1.328-1.124.034 0 .068.626.074 1.39.01 1.209.1 1.57.69 2.763.375.755 1.01 1.692 1.41 2.083l.714.695v-2.207c-.004 0-.012.011-.015.011-.103 0-.426-.463-.718-1.028-.634-1.23-.82-2.899-.438-3.922.35-.938.953-1.94 1.166-1.94.002 0 .004.004.006.004V9.866zm-21.168 1.565l.12 2.425c.066 1.333.061 3.913-.01 5.733l-.13 3.309-.879 1.028c-1.372 1.606-5.314 5.661-6.332 6.513l-.918.77.031-1.095c.018-.603.06-1.432.094-1.844l.365-4.496.303-3.747.743-.937c.41-.515 2.064-2.449 3.678-4.298zm8.977 7.958c.09.008.213.03.375.061 1.741.327 3.259 1.477 3.976 3.012.251.54.396 1.032.426 1.388.03.357-.054.58-.26.58-.66 0-2.359-.816-3.006-1.445-.689-.669-1.424-2.041-1.672-3.121-.092-.397-.11-.5.161-.475zm-12.32.03c-1.537.022-2.708 1.579-1.905 3.132.153.295.539.723.857.95 1.162.827 3.152.058 3.458-1.337.186-.845-.471-2.098-1.308-2.495a2.482 2.482 0 00-1.103-.25zm.014 1.502c.52.01 1.019.48.949.97-.065.452-.953.634-1.378.28-.456-.377-.336-1.09.207-1.226a.839.839 0 01.222-.024zM35.105.044c2.271.053 4.46.137 6.088.283l3.744.338 2.438 2.076c4.366 3.718 7.34 6.495 9.237 8.625 3.821 4.289 6.078 6.978 6.313 7.523.2.466.608 5.315.905 10.772.03.567.071 1.223.09 1.459.007.083-.009.504-.021.88h-5.213c-.815-.824-1.622-1.655-2.432-2.483a149.3 149.3 0 01-3.628-3.85c-1.77-1.978-1.695-1.658-1.892-8.016l-.137-4.422-3.202-.125a399.6 399.6 0 01-5.347-.243l-2.145-.12-1.602-1.402c-.881-.772-2.63-2.417-3.886-3.657L32.131 5.43l-.13-.126V.044zm-2.518 2.394l1.623 1.763c.893.969 2.727 2.773 4.077 4.01l2.455 2.248 1.538.122c2.344.185 9.65.18 9.767-.007.056-.09-1.31-1.391-3.033-2.89-1.725-1.498-3.601-3.105-4.171-3.57l-1.036-.845-3.18-.285a192.777 192.777 0 00-5.609-.416zm9.815 2.587c.157.011.313.04.464.09.763.252 1.006.517 1.335 1.455.244.694.2 1.317-.14 1.979-.514 1.003-2.603 1.424-3.35.676-.436-.436-.758-1.131-.834-1.718a1.596 1.596 0 01.012-.538c.257-1.17 1.415-2.018 2.513-1.944zm-.074 1.482c-.412-.047-.792.283-.902.724a1.07 1.07 0 00.003.539c.12.46.503.55.962.23.466-.327.542-1.285.115-1.449a.726.726 0 00-.178-.044zM32.016 9.851l1.405 1.301c.773.716 2.256 2.048 3.295 2.96l1.89 1.66 2.503.2c1.376.11 3.361.2 4.411.2h1.909l.132 2.857c.072 1.572.196 3.592.275 4.49l.144 1.631 1.323 1.553a99.972 99.972 0 002.92 3.238c.574.686 1.39 1.413 1.896 2.06h-4.431c-.266-.537-.884-.8-1.31-1.015-1.608-.803-3.134-.808-4.81-.015-.553.262-1.148.706-1.326 1.03h-2.195l.236-.284.644-.665c.354-.366 1.27-.977 2.038-1.356 1.247-.618 1.55-.69 2.856-.69.803-.001 1.458-.043 1.454-.095-.004-.051-.488-.63-1.076-1.287l-1.07-1.195-.188-1.803-.188-1.803-.454.673c-.25.37-.597.749-.771.843-.174.093-.686.372-1.137.62-1.06.58-2.457.95-3.608.952l-.914.003.085-1.466c.104-1.8.862-3.567 2.005-4.676l.766-.743-.584-.117c-.322-.064-1.052-.117-1.622-.117-1.003 0-1.08-.038-2.302-1.124-.696-.618-1.293-1.123-1.328-1.123-.034 0-.068.626-.074 1.39-.01 1.208-.1 1.57-.69 2.763-.375.755-1.01 1.692-1.41 2.082L32 23.48v-2.21c.004.001.012.012.015.012.103 0 .426-.463.718-1.029.634-1.23.82-2.898.438-3.921-.35-.939-.953-1.94-1.166-1.94-.002 0-.004.004-.006.004v-4.53zm21.168 1.566l-.12 2.425c-.066 1.333-.061 3.913.01 5.733l.13 3.308.878 1.028c1.373 1.607 5.315 5.662 6.332 6.513l.92.77-.032-1.095a42.646 42.646 0 00-.094-1.844c-.034-.412-.199-2.435-.365-4.496l-.303-3.746-.744-.937c-.409-.515-2.063-2.45-3.677-4.298zm-8.977 7.958c-.09.008-.213.03-.375.06-1.741.327-3.26 1.478-3.976 3.013-.251.54-.396 1.031-.426 1.388-.03.357.053.579.26.579.66 0 2.359-.816 3.006-1.444.689-.669 1.424-2.042 1.672-3.121.092-.397.11-.5-.161-.475zm12.32.03c1.537.022 2.708 1.579 1.905 3.131-.153.296-.539.724-.857.95-1.162.828-3.152.059-3.458-1.336-.186-.846.471-2.099 1.308-2.496a2.482 2.482 0 011.103-.249zm-.014 1.501c-.52.011-1.019.482-.949.97.065.453.953.634 1.378.282.456-.379.336-1.091-.207-1.227a.838.838 0 00-.222-.025zm-27.618 43.05c-2.271-.053-4.46-.137-6.088-.284l-3.744-.337-2.438-2.076c-4.366-3.718-7.34-6.495-9.237-8.625-3.821-4.289-6.078-6.978-6.313-7.523-.2-.466-.608-5.315-.905-10.772a78.875 78.875 0 00-.09-1.46c-.007-.082.008-.503.021-.88h5.213c.815.825 1.622 1.656 2.432 2.484a149.3 149.3 0 013.628 3.85c1.77 1.978 1.695 1.658 1.892 8.016l.137 4.422 3.202.124a399.6 399.6 0 015.347.244l2.145.119 1.602 1.403c.881.772 2.63 2.417 3.886 3.657l2.284 2.253.13.126v5.259zm2.518-2.394l-1.623-1.763c-.893-.97-2.727-2.774-4.077-4.01l-2.455-2.248-1.538-.122c-2.344-.186-9.65-.181-9.767.006-.056.091 1.309 1.392 3.033 2.89 1.725 1.499 3.601 3.105 4.171 3.57l1.036.845 3.179.286c1.749.157 4.273.344 5.61.415zm-9.815-2.588a1.885 1.885 0 01-.464-.09c-.763-.251-1.007-.517-1.335-1.454-.244-.695-.2-1.318.14-1.98.514-1.002 2.603-1.423 3.35-.675.436.436.758 1.13.834 1.718.025.196.023.38-.012.537-.257 1.171-1.415 2.019-2.513 1.945zm.074-1.481c.412.047.791-.283.902-.724a1.082 1.082 0 00-.003-.539c-.12-.46-.503-.551-.962-.23-.466.327-.542 1.285-.115 1.449.06.023.119.037.178.044zm10.312-3.345l-1.405-1.3a206.045 206.045 0 00-3.295-2.96l-1.89-1.66-2.503-.2c-1.376-.11-3.361-.2-4.411-.2h-1.91l-.132-2.858a138.682 138.682 0 00-.276-4.489l-.143-1.631-1.323-1.553a99.972 99.972 0 00-2.92-3.239c-.574-.685-1.39-1.413-1.896-2.058h4.431c.266.536.884.798 1.31 1.013 1.607.804 3.134.808 4.81.015.553-.262 1.148-.705 1.326-1.028h2.195l-.236.283-.644.665c-.354.366-1.271.977-2.038 1.356-1.247.617-1.55.69-2.856.69-.803 0-1.458.043-1.454.095.004.051.488.63 1.076 1.287l1.07 1.195.187 1.803.189 1.803.454-.673c.25-.37.597-.75.771-.843.174-.093.686-.372 1.137-.62 1.06-.58 2.457-.95 3.608-.953l.914-.002-.085 1.466c-.104 1.8-.862 3.567-2.005 4.676l-.766.743.584.117c.322.064 1.052.117 1.622.117 1.003 0 1.08.037 2.302 1.124.696.618 1.293 1.123 1.328 1.123.034 0 .068-.626.074-1.39.01-1.209.1-1.57.69-2.763.375-.755 1.01-1.692 1.41-2.083l.714-.695v2.208c-.004-.002-.012-.012-.015-.012-.103 0-.426.463-.718 1.028-.634 1.23-.82 2.9-.438 3.922.35.938.953 1.94 1.166 1.94.002 0 .004-.004.006-.004v4.531zm-21.168-1.565l.12-2.425c.066-1.333.061-3.913-.01-5.733l-.13-3.309-.879-1.028c-1.372-1.606-5.314-5.661-6.331-6.513l-.92-.77.032 1.096c.018.602.06 1.431.094 1.844.034.412.199 2.435.365 4.495l.303 3.747.744.937c.409.515 2.063 2.45 3.677 4.298zm8.977-7.958c.09-.008.213-.03.375-.061 1.741-.327 3.259-1.477 3.976-3.012.251-.54.396-1.031.426-1.388.03-.357-.054-.58-.26-.58-.66 0-2.359.816-3.006 1.445-.689.669-1.424 2.041-1.672 3.121-.092.397-.11.5.161.475zm-12.32-.03c-1.537-.022-2.708-1.579-1.905-3.131.153-.296.539-.724.857-.95 1.162-.828 3.152-.059 3.458 1.336.186.845-.471 2.098-1.308 2.496a2.482 2.482 0 01-1.103.249zm.014-1.501c.52-.012 1.019-.482.949-.97-.065-.453-.953-.635-1.378-.282-.456.378-.336 1.09.207 1.227a.838.838 0 00.222.024zm27.618 20.863c2.271-.054 4.46-.138 6.088-.284l3.744-.338 2.438-2.076c4.366-3.718 7.34-6.495 9.237-8.625 3.821-4.288 6.078-6.977 6.313-7.523.2-.466.608-5.315.905-10.772.03-.566.071-1.223.09-1.459.007-.083-.009-.504-.021-.88h-5.213c-.815.824-1.622 1.655-2.432 2.483a149.3 149.3 0 00-3.628 3.85c-1.77 1.978-1.695 1.658-1.892 8.016l-.137 4.423-3.202.124a399.6 399.6 0 00-5.347.243l-2.145.12-1.602 1.402c-.881.772-2.63 2.417-3.886 3.657l-2.284 2.253-.13.126v5.26zm-2.518-2.395L34.21 59.8c.893-.97 2.727-2.774 4.077-4.01l2.455-2.249 1.538-.122c2.344-.185 9.65-.18 9.767.007.056.09-1.309 1.391-3.033 2.89-1.725 1.498-3.601 3.105-4.171 3.57l-1.036.845-3.179.285c-1.749.157-4.273.344-5.61.416zm9.815-2.587c.157-.01.313-.04.464-.09.763-.252 1.006-.517 1.335-1.455.244-.694.2-1.317-.14-1.979-.514-1.002-2.603-1.424-3.35-.676-.436.436-.758 1.131-.834 1.718-.025.196-.023.38.012.538.257 1.17 1.415 2.018 2.513 1.944zm-.074-1.482c-.412.047-.792-.283-.902-.724a1.082 1.082 0 01.003-.539c.12-.46.503-.55.962-.23.466.327.542 1.285.115 1.449a.726.726 0 01-.178.044zm-10.312-3.344l1.405-1.301c.773-.716 2.256-2.048 3.295-2.96l1.89-1.66 2.503-.2c1.376-.11 3.361-.2 4.411-.2h1.909l.132-2.857c.072-1.571.196-3.592.276-4.49l.143-1.631 1.323-1.553a99.972 99.972 0 012.92-3.238c.574-.686 1.39-1.413 1.896-2.059h-4.431c-.266.536-.884.799-1.31 1.014-1.608.803-3.134.808-4.81.015-.553-.262-1.148-.706-1.326-1.03h-2.195l.236.284.644.666c.354.366 1.271.976 2.038 1.356 1.247.617 1.55.69 2.856.69.803 0 1.458.043 1.454.094-.004.052-.488.63-1.076 1.288l-1.07 1.194-.188 1.803-.188 1.803-.454-.673c-.25-.37-.597-.749-.771-.842l-1.137-.62c-1.06-.582-2.457-.95-3.608-.953l-.914-.003.085 1.467c.104 1.799.862 3.566 2.005 4.675l.766.743-.584.117c-.322.065-1.052.117-1.622.117-1.003 0-1.08.038-2.302 1.124-.696.618-1.293 1.124-1.328 1.123-.034 0-.068-.626-.074-1.39-.01-1.208-.1-1.57-.69-2.763-.375-.755-1.01-1.692-1.41-2.082L32 40.522v2.207c.004-.001.012-.012.015-.012.103 0 .426.463.718 1.029.634 1.23.82 2.899.438 3.921-.35.939-.953 1.94-1.166 1.94-.002 0-.004-.003-.006-.004v4.532zm21.168-1.566l-.12-2.424c-.066-1.334-.061-3.914.01-5.734l.13-3.308.879-1.028c1.372-1.606 5.314-5.662 6.331-6.513l.92-.77-.032 1.095c-.018.602-.06 1.432-.094 1.844-.034.412-.199 2.435-.365 4.496l-.303 3.746-.744.937c-.409.515-2.063 2.45-3.677 4.298zm-8.977-7.958a4.534 4.534 0 01-.375-.06c-1.741-.327-3.26-1.477-3.976-3.013-.251-.54-.396-1.031-.426-1.388-.03-.357.053-.579.26-.579.66 0 2.359.816 3.006 1.444.689.67 1.424 2.042 1.672 3.122.092.396.11.5-.161.474zm12.32-.03c1.537-.022 2.708-1.579 1.905-3.131-.153-.296-.539-.724-.857-.95-1.162-.828-3.152-.058-3.458 1.336-.186.846.471 2.099 1.308 2.496.374.177.748.254 1.103.249zm-.014-1.501c-.52-.011-1.019-.481-.949-.97.065-.453.953-.634 1.378-.281.456.378.336 1.09-.207 1.226a.838.838 0 01-.222.025z"/>
        <path fill="#E40C5B" fill-rule="evenodd" clip-rule="evenodd" d="M33.198 33.157c-.127.131-.157.78-.324.852-.168.073-.662-.347-.845-.344-.182.003-.662.44-.832.373-.17-.067-.222-.714-.353-.84s-.78-.158-.852-.325c-.073-.168.347-.662.344-.845-.003-.182-.44-.662-.373-.832s.714-.222.84-.353.158-.78.325-.852c.167-.073.662.347.844.344.183-.003.663-.44.832-.373.17.067.223.714.354.84s.78.158.852.325c.073.168-.348.662-.345.845.004.182.44.662.374.832s-.714.222-.841.353z"/>
    </g>
</svg>
