<svg width="128" height="128" xmlns="http://www.w3.org/2000/svg">
    <path d="M0 0h128v128H0z" fill="#e40c5b"/>
    <g clip-rule="evenodd" fill="#fff" fill-rule="evenodd">
        <path d="M59.734 20.091c-3.12.073-6.128.189-8.365.39l-5.144.464-3.35 2.852c-6 5.109-10.085 8.924-12.692 11.85-5.25 5.894-8.351 9.589-8.674 10.337-.275.642-.835 7.303-1.243 14.801a102.088 102.088 0 01-.124 2.006c-.01.113.01.691.029 1.21h7.162c1.119-1.134 2.23-2.275 3.342-3.414a205.138 205.138 0 004.985-5.29c2.432-2.716 2.329-2.278 2.6-11.014l.188-6.075 4.4-.17a549.05 549.05 0 007.346-.336l2.947-.163 2.201-1.928c1.21-1.06 3.614-3.321 5.34-5.025l3.138-3.096.179-.173v-7.226zm3.46 3.29l-2.23 2.422c-1.228 1.333-3.747 3.812-5.602 5.51l-3.374 3.089-2.113.167c-3.22.256-13.259.249-13.42-.008-.077-.125 1.799-1.913 4.168-3.97 2.37-2.06 4.948-4.267 5.73-4.906l1.424-1.161 4.368-.393a260.95 260.95 0 017.708-.57zm-13.486 3.556a2.542 2.542 0 00-.638.123c-1.048.345-1.384.71-1.834 1.998-.335.955-.275 1.811.192 2.72.706 1.377 3.577 1.956 4.603.928.6-.599 1.042-1.552 1.146-2.36a2.183 2.183 0 00-.016-.738c-.354-1.61-1.945-2.774-3.453-2.673zm.101 2.035c.566-.065 1.087.388 1.24.996.059.23.063.483-.004.739-.165.632-.692.757-1.322.316-.64-.45-.745-1.766-.158-1.99a.998.998 0 01.244-.06zm14.169 4.596l-1.93 1.786a280.32 280.32 0 01-4.528 4.067l-2.597 2.28-3.439.276c-1.89.15-4.618.276-6.06.276h-2.625l-.181 3.925a190.546 190.546 0 01-.38 6.168l-.196 2.241-1.818 2.134a137.362 137.362 0 01-4.012 4.45c-.788.941-1.91 1.942-2.605 2.828h6.088c.366-.736 1.215-1.096 1.8-1.392 2.208-1.103 4.306-1.11 6.61-.02.759.36 1.577.968 1.821 1.413h3.016l-.324-.39-.885-.914c-.486-.502-1.746-1.342-2.8-1.863-1.714-.847-2.13-.948-3.924-.948-1.104 0-2.004-.059-1.998-.13.005-.07.67-.866 1.478-1.769l1.47-1.64.257-2.479.26-2.477.624.925c.343.508.82 1.03 1.06 1.158l1.561.852c1.455.798 3.376 1.305 4.958 1.31l1.256.002-.117-2.014c-.143-2.474-1.185-4.902-2.755-6.425l-1.053-1.021.803-.16c.442-.089 1.445-.16 2.229-.16 1.378 0 1.483-.053 3.162-1.545.957-.85 1.777-1.544 1.825-1.544.047 0 .094.86.102 1.91.014 1.661.137 2.157.948 3.796.515 1.038 1.388 2.325 1.937 2.862l.981.955V49.26c-.005 0-.016.015-.02.015-.142 0-.586-.636-.987-1.413-.871-1.69-1.127-3.983-.602-5.388.481-1.29 1.31-2.666 1.602-2.666.003 0 .006.005.009.005v-6.225zm-29.085 2.15l.165 3.332c.09 1.831.084 5.376-.014 7.877l-.178 4.547-1.208 1.412c-1.885 2.207-7.301 7.778-8.7 8.949l-1.262 1.058.043-1.505a58.57 58.57 0 01.13-2.533l.5-6.178.417-5.148 1.02-1.288c.564-.707 2.837-3.365 5.054-5.905zm12.335 10.934c.123.011.292.041.515.084 2.392.45 4.478 2.03 5.463 4.139.345.742.544 1.418.585 1.907.041.49-.074.797-.357.797-.907 0-3.241-1.122-4.13-1.986-.947-.92-1.957-2.804-2.298-4.288-.126-.546-.15-.687.222-.653zm-16.928.041c-2.112.03-3.72 2.17-2.618 4.304.21.405.741.993 1.178 1.305 1.597 1.136 4.33.08 4.751-1.837.256-1.16-.647-2.883-1.797-3.428a3.41 3.41 0 00-1.515-.344zm.02 2.064c.714.014 1.4.66 1.303 1.333-.09.621-1.31.871-1.893.385-.627-.518-.462-1.498.284-1.685a1.153 1.153 0 01.305-.033zm37.946-28.666c3.12.073 6.128.189 8.365.39l5.144.464 3.35 2.852c6 5.109 10.085 8.924 12.692 11.85 5.25 5.894 8.351 9.589 8.674 10.337.275.64.835 7.303 1.243 14.801.042.78.098 1.68.124 2.005.01.114-.012.692-.029 1.209h-7.162c-1.12-1.132-2.23-2.274-3.342-3.412a205.138 205.138 0 01-4.985-5.29c-2.432-2.717-2.329-2.278-2.6-11.014l-.188-6.075-4.4-.172a549.05 549.05 0 01-7.346-.334l-2.947-.165-2.201-1.926c-1.21-1.06-3.614-3.321-5.34-5.025l-3.138-3.094-.179-.173V20.09zm-3.46 3.29l2.23 2.422c1.228 1.332 3.747 3.81 5.602 5.51l3.374 3.089 2.113.167c3.22.254 13.259.248 13.42-.01.077-.123-1.8-1.91-4.168-3.97-2.37-2.058-4.948-4.266-5.73-4.905l-1.424-1.161-4.37-.392a264.88 264.88 0 00-7.706-.572zm13.486 3.554c.216.015.43.055.638.124 1.048.346 1.382.71 1.834 2 .335.953.275 1.809-.192 2.718-.706 1.378-3.577 1.957-4.603.93-.6-.6-1.042-1.555-1.146-2.361a2.193 2.193 0 01.016-.74c.354-1.607 1.945-2.772 3.453-2.67zm-.101 2.037c-.566-.065-1.089.388-1.24.994a1.47 1.47 0 00.004.741c.165.632.692.756 1.322.316.64-.45.745-1.766.158-1.99a.998.998 0 00-.244-.061zm-14.169 4.594l1.93 1.788c1.063.984 3.1 2.814 4.528 4.067l2.597 2.28 3.439.276c1.89.15 4.618.274 6.06.274H85.2l.182 3.926c.099 2.16.27 4.935.378 6.17l.198 2.24 1.817 2.134a137.362 137.362 0 004.012 4.449c.79.942 1.91 1.941 2.606 2.83h-6.089c-.365-.737-1.214-1.099-1.8-1.394-2.209-1.104-4.306-1.11-6.609-.02-.76.36-1.577.97-1.821 1.414h-3.016l.324-.39.885-.914c.486-.502 1.745-1.342 2.8-1.863 1.713-.849 2.13-.948 3.924-.948 1.103-.001 2.003-.059 1.998-.13-.006-.07-.67-.866-1.479-1.769l-1.47-1.642-.516-4.954-.624.925c-.344.508-.82 1.029-1.06 1.158-.239.128-.942.51-1.562.852-1.456.797-3.376 1.305-4.957 1.308l-1.256.004.117-2.014c.143-2.474 1.184-4.902 2.755-6.425l1.052-1.021-.802-.16c-.443-.089-1.446-.162-2.229-.162-1.378 0-1.484-.052-3.163-1.544-.956-.85-1.776-1.543-1.825-1.543-.046 0-.093.86-.101 1.91-.014 1.66-.138 2.157-.948 3.796-.515 1.038-1.388 2.325-1.938 2.86l-.982.959v-3.037c.005.001.016.016.02.016.142 0 .586-.636.987-1.413.871-1.69 1.127-3.982.602-5.388-.48-1.29-1.31-2.665-1.602-2.665-.003 0-.006.005-.008.005v-6.224zm29.085 2.152l-.165 3.332c-.09 1.831-.084 5.376.014 7.877l.178 4.545 1.207 1.413c1.886 2.208 7.302 7.78 8.7 8.949l1.264 1.058-.044-1.505a58.596 58.596 0 00-.13-2.534c-.046-.566-.273-3.345-.5-6.177l-.417-5.147-1.022-1.288c-.562-.707-2.835-3.366-5.052-5.905zM80.772 46.652a6.247 6.247 0 00-.515.083c-2.392.449-4.48 2.03-5.463 4.14-.345.742-.544 1.416-.585 1.907s.073.795.357.795c.907 0 3.241-1.121 4.13-1.984.947-.92 1.957-2.806 2.298-4.288.126-.546.15-.687-.222-.653zm16.928.041c2.112.03 3.72 2.17 2.618 4.302-.21.407-.741.995-1.178 1.306-1.597 1.137-4.33.08-4.751-1.836-.256-1.162.647-2.884 1.797-3.43a3.41 3.41 0 011.515-.342zm-.02 2.063c-.714.015-1.4.662-1.303 1.333.09.622 1.31.87 1.893.387.627-.52.462-1.499-.284-1.686a1.151 1.151 0 00-.305-.034zm-37.946 59.15c-3.12-.072-6.128-.188-8.365-.39l-5.144-.463-3.35-2.852c-6-5.109-10.085-8.924-12.692-11.85-5.25-5.894-8.351-9.589-8.674-10.337-.275-.64-.835-7.303-1.243-14.801a108.374 108.374 0 00-.124-2.006c-.01-.113.01-.691.029-1.21h7.162c1.12 1.134 2.23 2.276 3.342 3.414a205.138 205.138 0 014.985 5.29c2.432 2.717 2.329 2.278 2.6 11.014l.188 6.075 4.4.17a549.05 549.05 0 017.346.336l2.947.163 2.201 1.928c1.21 1.06 3.614 3.321 5.34 5.025l3.138 3.096.179.173v7.226zm3.46-3.289l-2.23-2.422c-1.228-1.333-3.747-3.812-5.602-5.51l-3.374-3.089-2.113-.167c-3.22-.256-13.259-.249-13.42.008-.077.125 1.799 1.913 4.168 3.97 2.37 2.06 4.948 4.267 5.73 4.906l1.424 1.161 4.368.393c2.403.216 5.871.473 7.708.57zm-13.486-3.556a2.59 2.59 0 01-.638-.123c-1.048-.345-1.384-.71-1.834-1.998-.335-.955-.275-1.811.192-2.72.706-1.377 3.577-1.956 4.603-.928.6.599 1.042 1.552 1.146 2.36.034.27.032.523-.016.738-.354 1.61-1.945 2.774-3.453 2.673zm.101-2.035c.566.065 1.087-.388 1.24-.994a1.487 1.487 0 00-.004-.741c-.165-.632-.692-.757-1.322-.316-.64.45-.745 1.766-.158 1.99a.92.92 0 00.244.061zm14.169-4.596l-1.93-1.786a283.099 283.099 0 00-4.528-4.067l-2.597-2.28-3.439-.276c-1.89-.15-4.618-.274-6.06-.274h-2.625l-.181-3.927a190.546 190.546 0 00-.38-6.168l-.196-2.241-1.818-2.134a137.362 137.362 0 00-4.012-4.45c-.788-.941-1.91-1.942-2.605-2.828h6.088c.366.736 1.215 1.096 1.8 1.392 2.208 1.105 4.306 1.11 6.61.02.759-.36 1.577-.968 1.821-1.412h3.016l-.324.389-.885.914c-.486.502-1.746 1.342-2.8 1.863-1.714.847-2.13.948-3.924.948-1.104 0-2.004.059-1.998.13.005.07.67.866 1.478 1.769l1.47 1.642.257 2.477.26 2.477.624-.925c.343-.508.82-1.03 1.06-1.158s.942-.51 1.561-.852c1.457-.797 3.376-1.305 4.958-1.31l1.256-.002-.117 2.014c-.143 2.474-1.185 4.902-2.755 6.425l-1.053 1.021.803.16c.442.089 1.445.162 2.229.162 1.378 0 1.483.05 3.162 1.544.957.85 1.777 1.543 1.825 1.543.047 0 .094-.86.102-1.91.014-1.661.137-2.157.948-3.796.515-1.038 1.388-2.325 1.937-2.862l.981-.955v3.034c-.005-.003-.016-.017-.02-.017-.142 0-.586.636-.987 1.413-.871 1.69-1.127 3.984-.602 5.388.481 1.29 1.31 2.666 1.602 2.666.003 0 .006-.005.009-.005v6.225zm-29.085-2.15l.165-3.332c.09-1.831.084-5.376-.014-7.877l-.178-4.547-1.208-1.412c-1.885-2.207-7.301-7.778-8.699-8.949l-1.264-1.058.044 1.506c.025.827.082 1.966.13 2.534.046.566.273 3.345.5 6.176l.417 5.148 1.022 1.288c.562.707 2.835 3.366 5.052 5.905zm12.335-10.934c.123-.011.292-.041.515-.084 2.392-.45 4.478-2.03 5.463-4.139.345-.742.544-1.416.585-1.907s-.074-.797-.357-.797c-.907 0-3.241 1.122-4.13 1.986-.947.92-1.957 2.804-2.298 4.288-.126.546-.15.687.222.653zM30.3 81.305c-2.112-.03-3.72-2.17-2.618-4.302.21-.407.741-.995 1.178-1.306 1.597-1.137 4.33-.08 4.751 1.836.256 1.16-.647 2.883-1.797 3.43a3.41 3.41 0 01-1.515.342zm.02-2.063c.714-.016 1.4-.662 1.303-1.333-.09-.622-1.31-.872-1.893-.387-.627.52-.462 1.498.284 1.686a1.151 1.151 0 00.305.033zm37.946 28.666c3.12-.074 6.128-.19 8.365-.39l5.144-.465 3.35-2.852c6-5.109 10.085-8.924 12.692-11.85 5.25-5.893 8.351-9.587 8.674-10.337.275-.64.835-7.303 1.243-14.801.042-.778.098-1.68.124-2.005.01-.114-.012-.692-.029-1.209h-7.162c-1.12 1.132-2.23 2.274-3.342 3.412a205.138 205.138 0 00-4.985 5.29c-2.432 2.717-2.329 2.278-2.6 11.014l-.188 6.077-4.4.17a549.05 549.05 0 00-7.346.334l-2.947.165-2.201 1.926c-1.21 1.06-3.614 3.321-5.34 5.025l-3.138 3.096-.179.173v7.227zm-3.46-3.29l2.23-2.422c1.228-1.333 3.747-3.811 5.602-5.51l3.374-3.09 2.113-.167c3.22-.254 13.259-.248 13.42.01.077.123-1.799 1.91-4.168 3.97-2.37 2.058-4.948 4.266-5.73 4.905l-1.424 1.161-4.368.392c-2.403.216-5.871.473-7.708.572zm13.486-3.555c.216-.014.43-.055.638-.124 1.048-.346 1.382-.71 1.834-2 .335-.953.275-1.809-.192-2.718-.706-1.377-3.577-1.957-4.603-.93-.6.6-1.042 1.555-1.146 2.361a2.19 2.19 0 00.016.74c.354 1.607 1.945 2.772 3.453 2.67zm-.101-2.037c-.566.065-1.089-.388-1.24-.994a1.487 1.487 0 01.004-.741c.165-.632.692-.756 1.322-.316.64.45.745 1.766.158 1.99a.998.998 0 01-.244.061zm-14.169-4.594l1.93-1.788a280.32 280.32 0 014.528-4.067l2.597-2.28 3.439-.276c1.89-.15 4.618-.274 6.06-.274H85.2l.182-3.926c.099-2.158.27-4.935.379-6.17l.197-2.24 1.817-2.134a137.362 137.362 0 014.012-4.449c.79-.942 1.91-1.941 2.606-2.829h-6.089c-.365.736-1.214 1.098-1.8 1.393-2.209 1.104-4.306 1.11-6.609.02-.76-.36-1.577-.97-1.821-1.414h-3.016l.324.39.885.915c.486.503 1.746 1.341 2.8 1.863 1.713.848 2.13.948 3.924.948 1.103 0 2.003.06 1.998.13-.006.07-.67.865-1.479 1.769l-1.47 1.64-.516 4.955-.624-.925c-.344-.508-.82-1.029-1.06-1.156l-1.562-.852c-1.456-.8-3.376-1.306-4.957-1.31l-1.256-.004.117 2.016c.143 2.472 1.184 4.9 2.755 6.423l1.052 1.021-.802.16c-.443.09-1.446.162-2.229.162-1.378 0-1.484.052-3.163 1.544-.956.85-1.776 1.544-1.825 1.543-.046 0-.093-.86-.101-1.91-.014-1.66-.138-2.157-.948-3.796-.516-1.038-1.388-2.325-1.938-2.86L64 75.707v3.033c.005-.002.016-.017.02-.017.142 0 .586.636.987 1.414.871 1.69 1.127 3.983.602 5.387-.48 1.29-1.31 2.666-1.602 2.666-.003 0-.006-.004-.008-.005v6.226zm29.085-2.152l-.165-3.33c-.09-1.833-.084-5.378.014-7.88l.178-4.544 1.208-1.413c1.885-2.206 7.301-7.78 8.699-8.949l1.264-1.058-.044 1.505c-.025.827-.082 1.968-.13 2.534s-.273 3.345-.5 6.177l-.417 5.147-1.022 1.288c-.562.707-2.835 3.366-5.052 5.905zM80.772 81.346a6.23 6.23 0 01-.515-.083c-2.392-.449-4.48-2.03-5.463-4.14-.345-.742-.544-1.416-.585-1.907s.073-.795.357-.795c.907 0 3.241 1.121 4.13 1.984.947.92 1.957 2.806 2.298 4.29.126.544.15.686-.222.65zm16.928-.041c2.112-.03 3.72-2.17 2.618-4.302-.21-.407-.741-.995-1.178-1.306-1.597-1.137-4.33-.08-4.751 1.836-.256 1.162.647 2.884 1.797 3.43a3.418 3.418 0 001.515.342zm-.02-2.063c-.714-.015-1.4-.66-1.303-1.333.09-.622 1.31-.87 1.893-.386.627.52.462 1.498-.284 1.685a1.151 1.151 0 01-.305.034z"/>
        <path d="M65.646 65.589c-.174.18-.216 1.071-.445 1.17-.231.1-.91-.476-1.161-.472-.25.004-.91.604-1.143.512s-.305-.98-.485-1.154-1.072-.217-1.171-.446c-.1-.231.477-.91.473-1.162-.004-.25-.605-.91-.513-1.143s.981-.305 1.154-.485.217-1.071.447-1.17c.23-.1.91.476 1.16.472.251-.004.91-.604 1.143-.512.233.092.306.98.486 1.154s1.072.217 1.17.446c.101.231-.477.91-.473 1.162.005.25.604.91.514 1.143s-.981.305-1.156.485z"/>
    </g>
</svg>
