<svg viewBox="0 0 64 64" fill="none" xmlns="http://www.w3.org/2000/svg">
    <circle cx="32" cy="32" r="32" fill="#0E132E"/>
    <g clip-path="url(#a)">
        <path d="M31.152 8c-4.92 0-9.638 1.89-13.117 5.257-3.478 3.365-5.433 7.93-5.433 12.69 0 1.135.11 2.266.328 3.38l2.397-1.586c4.213-2.795 11.046-2.795 15.26 0l2.514 1.666 1.362.905c3.798 2.519 9.95 2.519 13.747 0l1.119-.74a17.395 17.395 0 0 0-.159-7.89 17.743 17.743 0 0 0-3.639-7.062 18.486 18.486 0 0 0-6.416-4.872 19.083 19.083 0 0 0-7.956-1.74L31.152 8Z" fill="#F2B705"/>
        <path d="M41.577 36.731c-2.795 0-5.468-.732-7.48-2.075l-3.875-2.568c-1.854-1.234-4.344-1.914-7.007-1.914-2.662 0-5.153.677-7.008 1.914l-2.504 1.66a1.117 1.117 0 0 1-.815.166 1.091 1.091 0 0 1-.698-.44 1.025 1.025 0 0 1-.171-.788 1.05 1.05 0 0 1 .454-.675l2.505-1.656c2.215-1.464 5.139-2.277 8.237-2.277 3.1 0 6.023.808 8.238 2.277l3.878 2.57a12.283 12.283 0 0 0 6.25 1.702c2.205 0 4.368-.589 6.25-1.702l1.47-.976a1.107 1.107 0 0 1 .82-.177c.143.025.278.077.4.152.12.076.225.175.307.29a1.037 1.037 0 0 1 .17.796 1.034 1.034 0 0 1-.163.384 1.07 1.07 0 0 1-.304.292l-1.47.977C47.031 36 44.37 36.73 41.576 36.73Z" fill="#53CBC8"/>
        <path d="M23.136 44.268v-10.14a4.02 4.02 0 0 1 .027-.64c.033-.278.171-.536.388-.723.216-.187.496-.29.786-.29.282.007.55.115.754.302.205.187.33.44.354.712.044.352.057.707.039 1.061v20.22c-.063.75-.549 1.243-1.202 1.23-.653-.014-1.125-.527-1.129-1.287v-6.741l-.017-3.704Z" fill="#53CBC8"/>
        <path d="M20.93 39.164v5.04c0 .861-.474 1.432-1.15 1.413-.674-.02-1.183-.602-1.187-1.423v-10.08c0-.883.53-1.477 1.223-1.443.693.034 1.104.568 1.107 1.45.01 1.684.007 3.363.007 5.043Z" fill="#53CBC8"/>
        <path d="M27.698 39.157v-3.539c0-.822.45-1.352 1.12-1.352.672 0 1.189.547 1.195 1.322.026 2.41.026 4.82 0 7.23 0 .82-.504 1.314-1.187 1.306-.682-.007-1.128-.51-1.135-1.35v-3.62l.007.003Z" fill="#53CBC8"/>
        <path d="M14.052 39.894v-3.539c0-.821.452-1.352 1.123-1.352.67 0 1.186.548 1.194 1.322.023 2.41.023 4.82 0 7.23 0 .82-.505 1.315-1.188 1.308-.684-.008-1.129-.51-1.135-1.352v-3.62l.006.003Z" fill="#53CBC8"/>
        <path d="M33.388 36.879h-.004c-.634 0-1.149.497-1.149 1.111v1.928c0 .614.515 1.112 1.15 1.112h.003c.635 0 1.149-.498 1.149-1.112V37.99c0-.614-.514-1.111-1.149-1.111Z" fill="#53CBC8"/>
        <path d="M37.943 38.566h-.004c-.635 0-1.149.498-1.149 1.112v10.806c0 .614.514 1.112 1.149 1.112h.004c.634 0 1.149-.498 1.149-1.112V39.678c0-.614-.515-1.112-1.15-1.112Z" fill="#53CBC8"/>
        <path d="M42.467 38.985h-.004c-.634 0-1.148.498-1.148 1.111v9.185c0 .614.514 1.112 1.148 1.112h.004c.635 0 1.15-.498 1.15-1.112v-9.184c0-.614-.515-1.112-1.15-1.112Z" fill="#53CBC8"/>
        <path d="M47.054 37.937h-.004c-.634 0-1.149.497-1.149 1.111v3.962c0 .614.515 1.112 1.15 1.112h.003c.635 0 1.149-.498 1.149-1.112v-3.962c0-.614-.514-1.111-1.149-1.111Z" fill="#53CBC8"/>
    </g>
    <defs>
        <clipPath id="a">
            <path fill="#fff" transform="translate(12 8)" d="M0 0h39v48H0z"/>
        </clipPath>
    </defs>
</svg>
