<svg id="Layer_1" data-name="Layer 1" xmlns="http://www.w3.org/2000/svg" viewBox="0 0 450.78 451.11"><defs><style>.cls-1{fill:#fe8802;}.cls-2{fill:#fe8d03;}.cls-3{fill:#feac0a;}.cls-4{fill:#fea709;}.cls-5{fill:#fea308;}.cls-6{fill:#fe8b03;}.cls-7{fill:#fe9a06;}.cls-8{fill:#fe8401;}.cls-9{fill:#fe7f00;}.cls-10{fill:#fe9f07;}.cls-11{fill:#fe9605;}.cls-12{fill:#fe9e07;}.cls-13{fill:#fe8301;}.cls-14{fill:#fe9104;}.cls-15{fill:#fe9204;}.cls-16{fill:#fecb66;}.cls-17{fill:#fec24a;}.cls-18{fill:#fea809;}.cls-19{fill:#fec147;}.cls-20{fill:#fe8c03;}.cls-21{fill:#fe9505;}.cls-22{fill:#fec34e;}.cls-23{fill:#feae0e;}.cls-24{fill:#fe9004;}.cls-25{fill:#febf41;}.cls-26{fill:#fec657;}.cls-27{fill:#feb117;}.cls-28{fill:#feaf12;}.cls-29{fill:#fe9806;}.cls-30{fill:#febf42;}.cls-31{fill:#fec045;}.cls-32{fill:#feb523;}.cls-33{fill:#feb31e;}.cls-34{fill:#feb21b;}.cls-35{fill:#febb36;}.cls-36{fill:#fec960;}.cls-37{fill:#feae0d;}.cls-38{fill:#feba31;}.cls-39{fill:#febe3e;}.cls-40{fill:#fec553;}.cls-41{fill:#feaf11;}.cls-42{fill:#fec451;}.cls-43{fill:#fec75a;}.cls-44{fill:#febc39;}.cls-45{fill:#febd3c;}.cls-46{fill:#feb627;}.cls-47{fill:#fec450;}.cls-48{fill:#feb72a;}.cls-49{fill:#feb116;}.cls-50{fill:#febe3f;}.cls-51{fill:#feb82d;}.cls-52{fill:#feba33;}.cls-53{fill:#feb930;}.cls-54{fill:#fec85d;}.cls-55{fill:#feb524;}.cls-56{fill:#feb420;}.cls-57{fill:#feb118;}.cls-58{fill:#feca62;}.cls-59{fill:#fec85c;}.cls-60{fill:#febe3d;}.cls-61{fill:#fefefe;}.cls-62{fill:#feba30;}.cls-63{fill:#fe9d07;}.cls-64{fill:#fea208;}.cls-65{fill:#fea007;}.cls-66{fill:#feb21a;}.cls-67{fill:#feab0a;}.cls-68{fill:#feb31d;}.cls-69{fill:#fe9305;}.cls-70{fill:#feb014;}.cls-71{fill:#feb41f;}.cls-72{fill:#fea60a;}.cls-73{fill:#fea909;}.cls-74{fill:#feae0f;}.cls-75{fill:#fe9b00;}.cls-76{fill:#fea000;}.cls-77{fill:#fe9f01;}.cls-78{fill:#feb013;}.cls-79{fill:#fea90a;}.cls-80{fill:#feaf10;}</style></defs><title>Logo</title><path class="cls-1" d="M313.5,451.5h-42c-1.43-5.39,2.89-7.56,6-10.08,21.17-17.08,43.17-33.13,64.31-50.24,30.47-24.65,62.27-47.61,92.27-72.85a62.38,62.38,0,0,1,8.51-6.12c2.86-1.67,5.87-3.09,8.9-.21v33c-2.67,4.41-7.09,6.92-11,9.92-38.31,29.38-75.92,59.67-114.11,89.2C322.36,447.22,317.83,449.11,313.5,451.5Z" transform="translate(-1.4 -0.55)"/><path class="cls-2" d="M451.5,264v24c-8.39,8.25-18.2,14.74-27.34,22.06-22.78,18.24-45.63,36.38-69,53.9C342.61,373.39,331,384,318.42,393.48c-19.35,14.52-38.21,29.67-57.35,44.46-6.29,4.86-11.82,10.81-19.57,13.56h-27c-1.84-5.13,2.14-7.27,5.24-9.46C235.43,431,249.4,417.67,265.37,407c4.1-2.75,7.11-6.19,7-11.52A8.4,8.4,0,0,1,278,391c7.17-1.9,13.12-5.34,16.66-12.15,8.65-3.26,15.89-8.92,22.7-14.8,5-4.3,6.46-2.34,8.14,2.14,11.45-5.59,20.08-14.49,28.39-23.68a189.25,189.25,0,0,0,17.73-23.18c1.88-2.87,3.58-6.13,7.54-6.8,3.67.69,6.06-1.7,8.56-3.69,17.51-13.9,34.62-28.3,52.68-41.5C443.61,265,446.57,261,451.5,264Z" transform="translate(-1.4 -0.55)"/><path class="cls-3" d="M432,1.5c6.39,0,15.63-2.51,18.42.65,3.28,3.73,1,12.39,1.08,18.9,0,1,0,2,0,2.95a26.68,26.68,0,0,1-7.21,8.45Q403.2,63.79,362.83,96c-4.08,3.24-8.17,6.79-14,6-8.62-4.16-16.28-9.46-21.07-18.1.45-3.76,3.73-5.09,6.2-7,29.7-23.4,59.68-46.46,89.22-70.08C425.92,4.6,429.55,4.08,432,1.5Z" transform="translate(-1.4 -0.55)"/><path class="cls-4" d="M349.36,100.88c10.32-4.19,18-12.21,26.54-18.86C391,70.27,405.74,58.14,421.06,46.7,431.2,39.13,440.65,30.63,451.5,24V64.5c-6.38,9.55-16.07,15.54-24.84,22.37q-20.94,16.34-41.88,32.66c-5,3.92-9.89,7.88-16.89,5.16C360.1,118,352.06,111.52,349.36,100.88Z" transform="translate(-1.4 -0.55)"/><path class="cls-5" d="M4.5,451.5c-2.6.6-3.13-.39-3.08-3,.19-11,.08-22,.08-33,14.29-13.9,30.44-25.56,46-37.87C62.33,365.94,78,355.31,91.64,342.2A4.92,4.92,0,0,1,94.33,341c9.15,5.49,17.46,11.84,22.13,21.88-.7,3.17-3.08,5-5.45,6.85-33.4,25.59-65.86,52.39-99.27,78C9.52,449.38,6.68,449.8,4.5,451.5Z" transform="translate(-1.4 -0.55)"/><path class="cls-6" d="M451.5,312c-8.51.52-13.82,6.94-19.45,11.76-29.54,25.24-61.45,47.46-91.31,72.31-20.25,16.86-41.66,32.34-62.56,48.44a25.7,25.7,0,0,0-6.68,7H252c-2.52-5.69,2.51-7.66,5.51-9.87C277.41,427,296.22,411,315.73,396c32.1-24.84,63.84-50.16,95.66-75.38,10.34-8.2,20.88-16.15,31.38-24.17,2.54-1.94,5.08-4.28,8.73-2.4Z" transform="translate(-1.4 -0.55)"/><path class="cls-5" d="M368.82,123.41c5.27.66,9.3-1.94,13-5.11,19.7-16.81,41.31-31.19,60.77-48.29,2.58-2.27,5.91-3.7,8.89-5.51V105c-4.26,7.39-11.55,11.59-18.11,16.29-12.54,9-24,19.28-36.29,28.55-3.14,2.37-6.18,5.08-10.41,5.48A6.18,6.18,0,0,1,382,152c-4.38-7.71-8.7-15.45-13.26-23.07C367.75,127.27,367.32,125.24,368.82,123.41Z" transform="translate(-1.4 -0.55)"/><path class="cls-7" d="M112.5,451.5h-48c-1.52-4.7,2.09-6.8,4.87-9q33.67-27.15,68.1-53.33c3.2-2.44,4.12-7,8.36-8.21,9.12.79,16.9,4.76,24.09,10.15a15.38,15.38,0,0,0,2.14,2.05c6,4.2,6.21,7.17.42,11.94-7.48,6.16-14.77,12.56-22.62,18.22C137.19,432.42,125.8,443.22,112.5,451.5Z" transform="translate(-1.4 -0.55)"/><path class="cls-8" d="M313.5,451.5c8.51-8.8,18.62-15.63,28.24-23.09,19.07-14.82,37.93-29.92,56.92-44.84q20.82-16.36,41.78-32.56c3.32-2.55,6.62-5.4,11.06-6v19.5a27.2,27.2,0,0,1-7.23,8.38c-28.1,21.86-56.46,43.39-83.72,66.3A117.12,117.12,0,0,1,342,451.5Z" transform="translate(-1.4 -0.55)"/><path class="cls-9" d="M451.5,388.5c0,19.5-.12,39,.1,58.5,0,3.75-.85,4.63-4.6,4.6-25-.19-50-.1-75-.1-2.53-4,.62-6.07,3-8,22.36-17.45,44.5-35.18,67-52.38C444.81,389.09,447.57,386.56,451.5,388.5Z" transform="translate(-1.4 -0.55)"/><path class="cls-10" d="M4.5,451.5c5.86-8.75,14.83-14.13,23-20.08,17.92-13.08,34.53-27.78,52.29-41,12-8.94,23.69-18.24,35.52-27.37,8-.87,12.74,3.47,15.94,10.17-3.08,8.91-11.05,13.3-17.91,18.37C93.71,406,75.05,421.73,55.93,436.84A152.62,152.62,0,0,1,34.5,451.5Z" transform="translate(-1.4 -0.55)"/><path class="cls-11" d="M112.5,451.5c4.73-8.89,13.68-13.29,21-19.33,12.6-10.41,25.88-20,38.63-30.23,6.28-5.05.44-5.94-3.06-7.4-.22-.09-.57-.23-.6-.4-.2-1.06.68-1.05,1.33-1.26,1.94-2.19,4.43-2.1,6.9-1.47,10.6,2.69,21.23,5.18,32.14,6.31a5.81,5.81,0,0,1,4.29,2.68c1.8.46-2.6,1,.32,2.74,4.81,2.83,1,6.51-1.63,8.84-6.14,5.39-12.61,10.44-19.22,15.24-11.17,8.12-21.08,18-33.59,24.28Z" transform="translate(-1.4 -0.55)"/><path class="cls-12" d="M386.93,154.69c10.05-8.34,19.65-17.3,30.27-24.84,11.51-8.17,21.65-18.26,34.3-24.85v40.5c-5.21,7.2-13.09,11.35-19.61,17.05-7.5,6.54-15.81,12.07-23.52,18.37-3.46,2.82-7.35,5.24-12.29,4C390.6,175.61,384.82,166.34,386.93,154.69Z" transform="translate(-1.4 -0.55)"/><path class="cls-13" d="M451.5,388.5c-14.05,9-26.57,19.94-39.72,30.09-12,9.24-23.88,18.6-35.89,27.81-1.82,1.4-3.69,2.55-3.89,5.1H342c.18-2.94,2.58-4,4.52-5.54,29.85-23.66,59.61-47.42,89.51-71,4.87-3.84,10.3-7,15.47-10.45Z" transform="translate(-1.4 -0.55)"/><path class="cls-14" d="M451.5,264c-13,6.91-23.7,16.93-35.32,25.7-10.47,7.9-20.56,16.31-30.7,24.64-2.69,2.21-4.61,2.63-6.21-.91-2.34-2.88-1-5.8.29-8.4a201.28,201.28,0,0,0,14.91-39.8,10.1,10.1,0,0,1,3.35-5.68c5.83,1.17,9.89-1.91,14.42-5.12,10.39-7.37,19.71-16.05,29.93-23.6,2.73-2,5.33-4.84,9.33-2.83Z" transform="translate(-1.4 -0.55)"/><path class="cls-12" d="M34.5,451.5c.51-4.47,4.7-5.64,7.47-7.85,21-16.81,41.89-33.71,63.34-49.89,8.53-6.44,16.78-13.1,24.68-20.25,7.9-.73,13.33,2.41,15.55,9-1.74,9.79-11.29,12.12-17.46,17.28-18.89,15.79-38.7,30.47-58.06,45.68-2.12,1.66-3.69,4-5.52,6.05Z" transform="translate(-1.4 -0.55)"/><path class="cls-15" d="M159,451.5c5.39-9.12,15.32-13.13,22.78-19.95,8-7.35,17.23-13.44,25.94-20.05,2.32-1.76,6.11-3.05,5.57-6.29s-5-.47-7.45-2.87l7.54-.52c2.34-3.47,6.05-2.88,9.41-3,4.09-.1,6-1.75,6.93-6,1.1-4.91.09-10.57,4.27-14.6,11.78,3.18,17.07-6,23.62-12.6,1.48-1.49,1.91-4.72,4.49-4.19,2.95.6,2.43,3.88,3,6.2a11.75,11.75,0,0,1-.14,3.35,22.89,22.89,0,0,0-.66,7.82c-.1,6.45-.77,12.8-3.1,18.87a9.14,9.14,0,0,1-.94,1.12c-1,1.17-2.93-1.43-4,1.47-1.2,3.23-4.82,4.94-7.61,7-19.7,14.32-37,31.79-58.16,44.2Z" transform="translate(-1.4 -0.55)"/><path class="cls-16" d="M1.5,58.5c0-17.75.11-35.5-.1-53.25C1.37,2,2,1.38,5.25,1.4c22.25.19,44.5.1,66.75.1C74.52,5,72,7.24,69.67,9,49.14,24.07,29.72,40.6,9.43,56,7.09,57.79,4.93,60.17,1.5,58.5Z" transform="translate(-1.4 -0.55)"/><path class="cls-4" d="M94.22,342.06c-1.46,4.22-4.78,6.68-8.17,9.32Q47.29,381.67,8.76,412.22C6.57,414,4.53,415.76,1.5,415.5V393c1.3-1.8,2.17-3.86,4-5.29C27.22,371,48.47,353.82,70.45,337.56c4.49-3.32,7.39-9,13.68-9.79C89.56,331.07,95.29,334.16,94.22,342.06Z" transform="translate(-1.4 -0.55)"/><path class="cls-3" d="M1.5,372V342c7.51-9.51,18-15.62,27.08-23.24s18.71-14.84,28.28-22c2.36-1.76,4.6-3.94,8-3.47,7.06,5.44,10.11,13,11.39,21.5-2.87,7.42-9.58,11.3-15.36,15.76-16.7,12.87-33.28,25.89-50,38.67C8.11,371.29,5.46,374,1.5,372Z" transform="translate(-1.4 -0.55)"/><path class="cls-17" d="M169.5,1.5H183c1.45,5-2.5,7.19-5.42,9.62-14,11.66-28.48,22.75-42.84,34C95.79,75.52,56.69,105.78,18.1,136.67A80.34,80.34,0,0,1,9,143.31c-2.35,1.38-4.8,3-7.54.69V133.5A38,38,0,0,1,10.87,124c50-38.47,99.42-77.75,149.2-116.51C163.06,5.15,166.82,4.2,169.5,1.5Z" transform="translate(-1.4 -0.55)"/><path class="cls-18" d="M1.5,372c13-7.78,23.91-18.42,36.32-27.09,13-9.05,24.67-19.86,36.93-29.9,7.35,3.53,9.67,7.1,8.79,13.5C77,338.93,66,344.4,56.72,351.7,42.93,362.59,28.77,373,15.38,384.41A60.77,60.77,0,0,1,1.5,393Z" transform="translate(-1.4 -0.55)"/><path class="cls-19" d="M1.5,144c8.69-3.09,14.86-9.86,21.83-15.33,31.28-24.56,62.32-49.4,94-73.47,20.56-15.64,40.56-32,60.75-48.15,1.9-1.53,3.3-3.69,4.94-5.55h10.5c2.84,4.43-.85,6.86-3.48,8.44-10.51,6.31-19.26,14.88-28.93,22.25-17.19,13.1-34,26.75-51,40.06C82.25,94,54.7,116.11,26.67,137.62c-5.91,4.54-11.5,9.52-17.78,13.58-2.29,1.49-4.33,3.62-7.39,1.8Z" transform="translate(-1.4 -0.55)"/><path class="cls-20" d="M451.5,294c-14.92,11.19-30.23,21.91-44.68,33.69-17.93,14.63-36.34,28.61-54.49,42.94q-41.9,33.09-83.59,66.43c-5.75,4.6-13,7.46-16.74,14.44H241.5c7.17-8.77,16.75-14.71,25.43-21.71,28.24-22.77,57.21-44.61,85.57-67.22,30.12-24,60.81-47.3,90.78-71.49A12.43,12.43,0,0,1,451.5,288Z" transform="translate(-1.4 -0.55)"/><path class="cls-21" d="M451.5,228c-11.07,6.2-19.56,15.74-29.73,23.12-4.59,3.32-9.66,6-13.54,10.32s-7.25,4.25-9.1-1.94c-5.26-5.7-1-12.1-1.15-18.14a23,23,0,0,1,1.63-7.84c4-6.69,11.5-9.21,17.21-13.88,8.05-6.59,16.59-12.62,24.81-19,2.73-2.14,5.62-5.46,9.87-2.61Z" transform="translate(-1.4 -0.55)"/><path class="cls-22" d="M169.5,1.5C168.56,7.29,163.1,9,159.4,12,124.58,39.38,89.46,66.44,54.47,93.68c-14.92,11.62-29.7,23.42-44.6,35.07-2.53,2-5,4.18-8.37,4.75v-9c7.94-9.47,18.64-15.67,28.12-23.26C47.3,87.07,64.79,72.64,82.87,59c12.13-9.15,23.82-18.85,36-27.89,8.81-6.52,17.32-13.38,25.69-20.43A61,61,0,0,1,159,1.5Z" transform="translate(-1.4 -0.55)"/><path class="cls-7" d="M397.32,184.9c17-11.42,32.46-24.79,48.7-37.18,1.51-1.15,3.64-1.5,5.48-2.22v30c-5,7.86-13.72,11.37-20.35,17.34-5.74,5.15-12.24,9.41-18.4,14.07-2.74,2.07-5.68,4.23-9.47,1.66-1.13-.77-.19.45-.2.55-.15,1.61-.44,3-2.63,2.5C395.89,203.12,393.56,194.36,397.32,184.9Z" transform="translate(-1.4 -0.55)"/><path class="cls-23" d="M432,1.5c-3.24,6.49-9.5,9.85-14.87,14.06C390,36.91,362.7,58.09,335.55,79.44a43.47,43.47,0,0,1-7,4.12c-5.12,2.19-7.19-.94-8.73-5,.68-6.62,6.43-9.18,10.66-12.74,19.84-16.67,40.62-32.16,61.14-48C399.26,12,406.17,5,415.5,1.5Z" transform="translate(-1.4 -0.55)"/><path class="cls-24" d="M190.5,451.5c3.38-9,12.92-11.22,19.32-16.86,14.69-13,30.81-24.3,45.85-36.89,3.42-2.87,2.66,1.52,4.16,1.07,3.53-4.91,8.22-4.49,13.17-2.85,3.14,1.84,5.42,3.75,1.29,7-3.1,2.46-5.93,5.26-9.06,7.67q-23,17.7-46,35.22a13.67,13.67,0,0,0-4.7,5.62Z" transform="translate(-1.4 -0.55)"/><path class="cls-25" d="M1.5,172.5V168c10.6-10.17,22.78-18.39,34.19-27.55,23-18.51,46.77-36.11,69.49-55,4.93-2.53,9.59-5.39,12.74-10.15a7.46,7.46,0,0,1,2.27-2,13.68,13.68,0,0,0,5.59-3.7,7.72,7.72,0,0,1,1.53-1.2c3.3-1.54,5.55-4.3,7.94-6.89A31.5,31.5,0,0,1,140,58a10.47,10.47,0,0,0,5.26-4.1A7.74,7.74,0,0,1,147.63,52a10.67,10.67,0,0,0,5.3-4.3c4.4-3.72,9.26-6.87,13.6-10.67a15.35,15.35,0,0,0,7.1-4.84A6.56,6.56,0,0,1,175.12,31a17,17,0,0,0,6-4.69A7,7,0,0,1,182.55,25a13.1,13.1,0,0,0,4.53-3.31,7.08,7.08,0,0,1,1.47-1.2,11.06,11.06,0,0,0,4.87-4.26,8.24,8.24,0,0,1,2.32-1.79,16.43,16.43,0,0,0,6.16-4.56,8.62,8.62,0,0,1,1.44-1.26,10.57,10.57,0,0,0,4.83-4.21c1.25-1.56,3.43-1.6,4.83-2.94h7.5c2.68,4.69-1.16,6.75-3.83,9.1-12.73,11.19-26.58,21-39.87,31.45-11.73,9.24-23.17,18.86-35.24,27.68-3.4,2.49-6.56,5.39-8,9.63-8.41,8.32-17.21,16.15-28,21.44-4.1.28-7.21,2.21-10.56,4.69C70.61,123.59,47,142.82,23,161.5c-3.9,3-7.68,6.27-11.66,9.18C8.6,172.69,5.53,176.13,1.5,172.5Z" transform="translate(-1.4 -0.55)"/><path class="cls-26" d="M120,1.5h13.5c2.43,3.85-.82,5.29-3.06,7.08-12.77,10.22-25.75,20.18-38.6,30.3C64.78,60.21,37.45,81.21,10.59,102.8,7.91,105,5.41,107.89,1.5,105V94.5c9.63-9.79,21.3-17,31.9-25.64,21.07-17.08,42.53-33.67,64-50.26C104.87,12.82,112,6.53,120,1.5Z" transform="translate(-1.4 -0.55)"/><path class="cls-27" d="M379.5,1.5h18c2.61,5.21-1.86,7.16-4.71,9.46C377.86,23,362.69,34.8,347.44,46.47c-9.7,7.42-18.82,15.57-28.82,22.63-2.67,1.88-5.27,3.75-8.47,4.63-5.43-.08-10.08-1.58-12.58-7-.26-3.93,2.8-5.53,5.33-7.47C325.18,42.22,347,24.55,369,7.11,372.25,4.57,376.21,3.72,379.5,1.5Z" transform="translate(-1.4 -0.55)"/><path class="cls-28" d="M310.39,72.32q31.32-24.78,62.66-49.54,10.84-8.57,21.8-17a6.12,6.12,0,0,0,2.65-4.3h18c-9.86,10.22-21.66,18.08-32.73,26.83-20.79,16.44-42.44,31.82-61.86,50C315.23,80.13,311.82,78,310.39,72.32Z" transform="translate(-1.4 -0.55)"/><path class="cls-29" d="M401.73,212c.53-2.46-1.5-7.15,4.6-4.61,1.13.48,3.66-2.11,5.42-3.46,11.43-8.74,22.79-17.58,34.28-26.25,1.52-1.14,3.63-1.5,5.47-2.22V198c-12.85,7.21-23.42,17.54-35.37,26a154.92,154.92,0,0,1-14,8.5A17.59,17.59,0,0,1,401.73,212Z" transform="translate(-1.4 -0.55)"/><path class="cls-30" d="M168,39,154.5,49.5c-2.1,1.37-3.91,3.12-6,4.5L147,55.5c-2.1,1.37-3.91,3.12-6,4.5l-4.5,3c-3.38,2-5.62,5.46-9,7.5-2.1,1.37-3.91,3.12-6,4.5L120,76.5c-4.39,3.64-8.76,7.31-13.5,10.5-5.87,7.24-13.88,11.89-21.08,17.54C61.61,123.21,37.88,142,14,160.63c-3.81,3-6.95,7.31-12.53,7.37v-6C14,150.58,27.72,140.7,40.89,130.13c19.78-15.87,40-31.15,59.82-47,18.43-14.73,37.41-28.79,55.77-43.62,13.72-11.09,28.18-21.23,41.46-32.86,2.71-2.38,6.17-3.22,9.06-5.16h6L210,6c-2.1,1.36-3.9,3.13-6,4.5h0c-2.76,1.68-4.75,4.31-7.5,6L195,18c-2.1,1.36-3.9,3.13-6,4.5s-3.9,3.13-6,4.5c-2.76,1.67-4.74,4.33-7.5,6S170.75,37.31,168,39Z" transform="translate(-1.4 -0.55)"/><path class="cls-31" d="M207,1.5c-7.87,9.51-18.61,15.66-27.95,23.42-16.63,13.82-34.07,26.68-51.13,40q-36.18,28.23-72.3,56.53Q32.42,139.62,9.35,158C7,159.85,4.59,161.56,1.5,162v-4.5c9.82-9.57,21.17-17.26,31.92-25.67,23.3-18.23,46.44-36.67,69.69-55,28.55-22.46,57-45.1,85.82-67.17,3.55-2.7,6.37-6.34,10.57-8.2Z" transform="translate(-1.4 -0.55)"/><path class="cls-32" d="M330,1.5h18c1.53,4.33-1.69,6.54-4.27,8.66C324.44,26,304.41,41,285,56.71c-2.37,1.93-5.23,2.85-8.12,3.72-4.09.2-7.87-.47-10.58-4-2.14-5.53,1.85-8.32,5.28-11.11,13.32-10.85,27.12-21.1,40.59-31.76C317.86,9.12,323.11,4.13,330,1.5Z" transform="translate(-1.4 -0.55)"/><path class="cls-33" d="M277.51,58.32c15-11.73,30.27-23.21,45-35.28,8.6-7,18.58-12.48,25.46-21.54h16.5c1.44,5.37-2.89,7.48-6,10-18,14.88-36.6,29-55,43.24-4.29,3.33-7.76,7.74-13,9.85C285.11,64.71,279.82,64.57,277.51,58.32Z" transform="translate(-1.4 -0.55)"/><path class="cls-34" d="M291,63c10-12.4,24-20,35.91-30,12.5-10.53,26.51-19.26,37.59-31.48h15c-7.34,8.93-17.38,14.67-26.19,21.83C335.25,38,316.71,52.07,298.36,66.38,294.56,68.18,292.21,66.84,291,63Z" transform="translate(-1.4 -0.55)"/><path class="cls-35" d="M1.5,214.5V201c3.26-6.88,9.78-10.45,15.39-14.86,12.51-9.84,25-19.75,37.72-29.27,6.27-4.69,8.6-4.16,11.85,1-.6,6.08-1.11,12.21-6.42,16.45-6,2.13-10.11,7.07-15,10.78C33.72,193.69,23,203,11.51,211.39,8.61,213.5,5.8,216.58,1.5,214.5Z" transform="translate(-1.4 -0.55)"/><path class="cls-36" d="M85.5,1.5H96c2.54,3.57-.11,5.6-2.47,7.35C72.43,24.43,52.13,41.05,31.35,57c-7.64,5.87-15.09,12-22.8,17.83-2.2,1.65-4,4-7,1.63v-9c4.56-7.52,12.66-11,19.06-16.39C38.59,36,57.85,22.34,75.9,7.18,78.79,4.75,82.35,3.48,85.5,1.5Z" transform="translate(-1.4 -0.55)"/><path class="cls-31" d="M199.5,1.5c-7.64,9.8-18.41,16-27.93,23.47-37.89,29.92-76,59.56-113.48,90-16.22,13.2-32.87,25.87-49.41,38.67-2.12,1.63-4.27,3.54-7.18,3.83V153c15.49-9.14,28.91-21.08,43.06-32C71.9,99.88,98.94,78.38,126,57Q154.1,34.78,182,12.34C186.07,9,192.35,8,193.5,1.5Z" transform="translate(-1.4 -0.55)"/><path class="cls-37" d="M64.27,294c-14.49,11.54-28.86,23.24-43.54,34.54C14.54,333.3,9.59,339.93,1.5,342V330a30.5,30.5,0,0,1,8.14-9.5C25.36,308.05,42,296.72,56.57,282.85c1.11-1.05,2.43-1.75,4.06-1.09C64.15,285.16,67.08,288.73,64.27,294Z" transform="translate(-1.4 -0.55)"/><path class="cls-38" d="M1.5,214.5c14.87-9.12,27.54-21.1,41.37-31.58,4.34-3.29,8.89-6.32,13.26-9.57,1.53-1.14,2.16-.81,2.45.91,2.13,5.94.64,11.26-2.72,16.27Q34.44,208.38,12,224.94C9,227.14,6.1,230.83,1.5,228Z" transform="translate(-1.4 -0.55)"/><path class="cls-39" d="M132.33,78.11c.39-7.18,6.85-9.86,11.17-13.38,20.87-17,42.44-33.1,63.47-49.88,4.9-3.91,11.2-6.72,13.53-13.35h12c1.39,5.1-2.76,6.94-5.67,9.35-19.35,16-39.61,30.86-59.34,46.4a18.65,18.65,0,0,0-5.82,7.43A59.26,59.26,0,0,1,132.33,78.11Z" transform="translate(-1.4 -0.55)"/><path class="cls-40" d="M1.5,105c9.42-2.88,15.38-10.69,22.85-16.29C38.84,77.85,52.9,66.4,67.15,55.21Q98.5,30.59,129.85,6c1.55-1.21,3.39-2.22,3.65-4.49H141c1,6.05-4.11,8.19-7.56,10.74C115.67,25.39,98.6,39.41,81.17,53,58.05,71,35.08,89.13,11.91,107.05c-2.84,2.2-5.62,6.2-10.41,4Z" transform="translate(-1.4 -0.55)"/><path class="cls-41" d="M59.78,282c-1.77,5.66-6.55,8.59-10.9,11.83C32.92,305.68,18.12,319,1.5,330V316.5a31.16,31.16,0,0,1,8.79-10c13.51-10.67,27.48-20.75,41-31.46,2-1.55,3.81-3.37,6.67-2.34C61.16,275.26,62.89,278.16,59.78,282Z" transform="translate(-1.4 -0.55)"/><path class="cls-42" d="M145.5,1.5H153c1.32,3.24-1.43,4.63-3.18,6-21.32,16.63-42.5,33.44-63.87,50-24.89,19.31-49.42,39.1-74.38,58.34C8.68,118.07,6.35,122.27,1.5,120v-4.5c6.07-7,14-11.85,21.13-17.57C45.26,79.81,68.28,62.16,91,44.17,109.12,29.87,127.48,15.9,145.5,1.5Z" transform="translate(-1.4 -0.55)"/><path class="cls-43" d="M120,1.5c-1.45,6.34-7.42,8.76-11.71,12C74.53,38.53,42.39,65.69,8.8,91c-2.23,1.68-4.48,3.14-7.3,3.53v-6c11.34-10.28,24-19,35.77-28.66,1.74-1.43,3.53-2.68,4.6-4.71a6.31,6.31,0,0,1,1.61-1.39C49.23,52.05,52.55,47,57.1,43.67Q82.23,25.25,106.25,5.41c1.93-1.6,4.66-1.83,6.25-3.91Z" transform="translate(-1.4 -0.55)"/><path class="cls-44" d="M64.62,157.84c-3-4.66-5.76-.57-7.62.85C42.6,169.62,28.45,180.87,14.22,192c-4.09,3.2-7.94,6.74-12.72,9V190.5c6.61-8.94,16.23-14.46,24.68-21.21,12.6-10.06,25.28-20,38.21-29.69,3-2.26,6.12-4.59,10-1.49C76,146.45,71.86,154.76,64.62,157.84Z" transform="translate(-1.4 -0.55)"/><path class="cls-45" d="M161.13,63.31c-1.48-4.31,1.83-6.09,4.43-8.12Q196.46,31,227.39,6.88A49.22,49.22,0,0,0,232.5,1.5H243c2.67,4.27-.65,6.54-3.24,8.6-17.44,14-35.34,27.37-52.91,41.18a26.58,26.58,0,0,0-6.29,6.92C174.43,61.19,168.77,66,161.13,63.31Z" transform="translate(-1.4 -0.55)"/><path class="cls-46" d="M330,1.5c-7.24,8.69-16.59,14.93-25.36,21.83C293.3,32.25,281.83,41,270.46,49.9A8,8,0,0,0,267,55.47c-5.78,3.87-11,2.13-16.14-1.45-1.63-2.17-.52-3.71,1.3-4.92,17.59-11.63,33.56-25.38,50.06-38.44A83,83,0,0,1,316.5,1.5Z" transform="translate(-1.4 -0.55)"/><path class="cls-44" d="M180,57c-.17-3.35,1.66-5.39,4.2-7.34,18.26-14,36.41-28.21,54.63-42.28,2-1.57,3.89-3.1,4.17-5.84h13.5c1.49,4.74-2.27,6.67-5,8.89-16.94,13.64-34.11,27-51.15,40.48-.6,1.18-.08,2.68-1,3.79C193.17,58,187,60.82,180,57Z" transform="translate(-1.4 -0.55)"/><path class="cls-47" d="M1.5,120c11.22-5.2,19.83-14,29.44-21.43C57.81,78,84.62,57.25,110.86,35.87c14-11.45,29.71-20.94,42.14-34.37h6c-7.49,7.68-16.31,13.77-24.66,20.42C102,47.65,69.05,72.57,36.85,98.47c-11.36,9.14-22.14,19.31-35.35,26Z" transform="translate(-1.4 -0.55)"/><path class="cls-48" d="M316.5,1.5c-.21,2.19-1.62,3.41-3.28,4.71-18,14.17-36,28.33-53.81,42.73-2.78,2.25-6.38,1.21-8.91,3.43-4.59,5-9.36,2.91-14.13.36-2.33-2.39-1.2-4.55,1.32-5,11.89-2.06,18.4-12.12,27.63-18.08,13.54-8.73,24.31-21.3,39.18-28.16Z" transform="translate(-1.4 -0.55)"/><path class="cls-49" d="M57,273C46,284.65,32.29,292.84,19.87,302.66,13.87,307.41,8.49,313,1.5,316.5v-12a34.73,34.73,0,0,1,9.92-10c11.28-7.79,21.3-17.18,32.35-25.26,2.77-2,5.75-3.89,6.82-7.62.6-2.1,2.16-3.39,4.6-2.05C58.78,263.67,60.79,268,57,273Z" transform="translate(-1.4 -0.55)"/><path class="cls-50" d="M1.5,172.5c9.92-1.8,15.91-9.75,23.28-15.34,20.54-15.59,40.6-31.81,60.88-47.74a143.83,143.83,0,0,1,12-8.81C99.7,99.31,102,96.77,105,99c-2.78,8.56-7.82,15.3-15.81,19.68-8,.35-12.65,6.52-18.2,10.8-20.85,16.06-41.1,32.89-62.22,48.61C6.55,179.7,4.59,181.8,1.5,180Z" transform="translate(-1.4 -0.55)"/><path class="cls-51" d="M304.5,1.5c-6.38,8.49-15.52,14-23.61,20.38C270.4,30.2,259.21,37.73,249.47,47c-4.26,4-9.88.79-14,4a2.51,2.51,0,0,1-3,.49,3.65,3.65,0,0,1-.94-1.94c.15-3.14,2.47-4.79,4.63-6.45C254.3,29,271.45,13.67,291,1.5Z" transform="translate(-1.4 -0.55)"/><path class="cls-35" d="M198,51c3.37-5.77,8.78-9.37,13.93-13.3,15.23-11.6,30.62-23,44.57-36.2h12c2.33,3.62-.48,5.68-2.66,7.44C248.67,22.83,231.26,36.44,214,50.2c-2.43,1.94-5.73,1.46-8.42,2.77a11.53,11.53,0,0,1-3.42,0A14.07,14.07,0,0,1,198,51Z" transform="translate(-1.4 -0.55)"/><path class="cls-40" d="M145.5,1.5c-.32,3.09-2.61,4.54-4.83,6.26Q85.77,50.27,31,92.92c-9.77,7.6-18.38,16.71-29.48,22.58V111c11.84-6.15,21.21-15.6,31.63-23.64q50.49-39,100.75-78.25c2.71-2.11,4.76-5,7.12-7.61Z" transform="translate(-1.4 -0.55)"/><path class="cls-52" d="M205.51,51c10-3.55,16.7-11.85,25-17.85,12-8.71,23.33-18.37,35-27.6,1.38-1.09,2.79-2.09,3.05-4h12c1.55,4.35-1.69,6.57-4.3,8.63-15.68,12.37-31.34,24.78-47.14,37,1.21.6,2.63,1,3.44,2.35v1.37c-2.78,4.32-7.26,3.09-11.23,3.32-3.14.19-6.3.15-9.45.06C209.48,53.62,207.07,53.1,205.51,51Z" transform="translate(-1.4 -0.55)"/><path class="cls-51" d="M1.5,228c13.34-7.32,24.3-17.9,36.48-26.79,5-3.63,9.68-7.63,14.55-11.4,1.62-1.26,1.31.57,1.73,1.21,5,6.91,1.57,13.46-.84,20-2.5,2.31-4-1.06-6.15-1.06-6.8,2.33-11.56,7.59-17.06,11.74-6.53,4.94-12.63,10.45-19.35,15.13-2.75,1.92-5.66,4.5-9.36,1.62Z" transform="translate(-1.4 -0.55)"/><path class="cls-45" d="M73.89,138.12c-9.1,1.76-14.5,9.18-21.33,14.29C37.49,163.68,22.9,175.58,8,187.11c-1.91,1.48-3.87,3.19-6.52,3.39V183c23.82-18.66,47.76-37.16,71.38-56.07,3.23-2.59,6.28-6.69,11.54-5.49A16.64,16.64,0,0,1,73.89,138.12Z" transform="translate(-1.4 -0.55)"/><path class="cls-53" d="M232.5,49.5c-2.91-.27-5.91.62-9.71-1.08,12.59-9.91,25-19.23,36.83-29.13,7-5.85,15.53-10,20.88-17.79H291c-.4,3.32-2.72,5.27-5.21,7C267.28,21.18,250.37,36,232.5,49.5Z" transform="translate(-1.4 -0.55)"/><path class="cls-54" d="M1.5,76.5C9.9,72.13,17,65.86,24.38,60.13,46.94,42.65,69.32,24.92,91.82,7.35c2-1.58,3.9-3.1,4.18-5.85h7.5C105,6,101.17,7.92,98.67,9.81,72.52,29.61,47.37,50.7,21,70.24c-4,2.94-7.81,6.16-11.56,9.44-2.26,2-4.82,3.83-7.95,1.32Z" transform="translate(-1.4 -0.55)"/><path class="cls-55" d="M1.5,268.5V258a26.28,26.28,0,0,1,7.9-8.7c9.86-7.51,19.51-15.3,29.29-22.93A34.06,34.06,0,0,1,43.56,223c5.48-2.88,7.8-1.59,8.12,4.54a13.85,13.85,0,0,1-.47,5.16C39,247.3,22.38,256.68,7.63,268.28,5.87,269.66,3.61,270.39,1.5,268.5Z" transform="translate(-1.4 -0.55)"/><path class="cls-46" d="M49.5,232.5v-9.88C32,233.8,18.52,248.33,1.5,258v-9c2.9-6.18,8.82-9.35,13.69-13.51,7.76-6.64,16.07-12.61,24.08-18.94,4.35-3.45,8.18-7.26,10.23-12.55,2.11,2.34,1.23,5.33,1.76,8,4.73,6.49,3.74,13.2.81,20A2.11,2.11,0,0,1,49.5,232.5Z" transform="translate(-1.4 -0.55)"/><path class="cls-34" d="M1.5,295.5v-9c8.35-10.88,20.79-16.93,30.73-25.94,3.12-2.84,6.53-5.39,9.9-8,3.58-2.73,5.77-6.17,4.72-11,.52-2.47,1-5,4.38-4.88a5.91,5.91,0,0,1,2.4,4.33c.1,2.87-.62,5.7-.38,8.58.82,7.93-2.48,13.79-8.83,18.38C33.17,276.19,23,285.71,11.53,293.57,8.49,295.65,5.51,298.33,1.5,295.5Z" transform="translate(-1.4 -0.55)"/><path class="cls-56" d="M51,237c-1.74,1.69-1.43,3.89-1.48,6-3.67,8.34-12.22,11.5-18.34,17.24s-13.28,10.55-20.22,15.42c-2.71,1.9-5.65,4.58-9.44,1.84v-9c7.28-5.06,14.73-9.91,21.81-15.24,8.89-6.71,17.47-13.82,26.19-20.76h1.37A3,3,0,0,1,51,237Z" transform="translate(-1.4 -0.55)"/><path class="cls-57" d="M1.5,295.5c10.59-3.7,17.77-12.32,26.61-18.54,5.66-4,10.51-9.14,16.34-12.8,5.43-3.42,7.3-7.69,6.55-13.66a2.09,2.09,0,0,1,2.41,0c2.89,2.87,3.73,5.84.44,9-1.05,5.92-4.54,9.83-9.37,13.39-12,8.83-23.45,18.28-35.23,27.35C6.93,302,4.63,304.08,1.5,304.5Z" transform="translate(-1.4 -0.55)"/><path class="cls-58" d="M1.5,58.5C24.91,42.32,45.89,23,69,6.45A6.74,6.74,0,0,0,72,1.5h7.5c2.37,3.15-.42,4.48-2.25,5.93-22.81,18-45.6,36.08-68.55,53.91C6.76,62.84,4.59,65.53,1.5,63Z" transform="translate(-1.4 -0.55)"/><path class="cls-48" d="M49.5,204c.87,5.74-1.36,9.63-6.14,13.09C29.16,227.39,16.43,239.63,1.5,249V238.5c11.11-3.85,18.46-13.05,27.57-19.7C35.86,213.85,42.5,208.67,49.5,204Z" transform="translate(-1.4 -0.55)"/><path class="cls-59" d="M1.5,81c10.61-3.75,18-12.29,26.62-18.76C51.2,45,73.54,26.71,96.22,8.91,99,6.73,101.63,4.52,103.5,1.5H108c2.41,3.48-1.18,4.34-2.76,5.69C89.16,21,72.12,33.55,55.34,46.46c-3.93,3-7.31,6.8-11.84,9C32.26,65.69,19.9,74.47,8,83.81,6.25,85.16,4.37,87.73,1.5,85.5Z" transform="translate(-1.4 -0.55)"/><path class="cls-33" d="M1.5,277.5c10.56-4.66,18.88-12.52,27.74-19.57A227.18,227.18,0,0,1,49.5,243c.67,4.91-1.16,8.69-5,11.72-12.32,9.69-24.53,19.5-36.9,29.12-1.69,1.31-4,1.79-6.08,2.66Z" transform="translate(-1.4 -0.55)"/><path class="cls-60" d="M84.48,121.66c-16.9,9.74-31,23.28-46.54,34.82-10.38,7.7-20.29,16-30.34,24.2A8.87,8.87,0,0,1,1.5,183v-3c16.47-10.83,31.41-23.66,47-35.71C59.27,135.9,70,127.42,81,119.17c2.11-1.59,4.34-4.83,7.69-1.69Q88.82,121.83,84.48,121.66Z" transform="translate(-1.4 -0.55)"/><path class="cls-58" d="M1.5,63c8.36-2.07,13.67-8.77,20.09-13.65C39.5,35.75,57,21.59,74.71,7.74,76.91,6,79.18,4.57,79.5,1.5h6c-7.4,8.84-17.26,14.79-26,22C43.41,36.72,26.83,49.31,10.37,62.05,7.64,64.16,4.47,65.7,1.5,67.5Z" transform="translate(-1.4 -0.55)"/><path class="cls-43" d="M43.5,55.5C53,44.91,65.35,37.84,76.11,28.8c9.65-8.11,19.6-15.86,29.44-23.73A5.8,5.8,0,0,0,108,1.5h4.5c-.21,2.18-1.61,3.41-3.26,4.7Q79.07,29.86,49,53.67A8.36,8.36,0,0,1,43.5,55.5Z" transform="translate(-1.4 -0.55)"/><path class="cls-43" d="M1.5,85.5c11.15-5.6,20.11-14.22,29.89-21.7,3.9-3,7.23-6.76,12.11-8.3C41,63,33.48,65.55,28,69.82,19.54,76.45,12.29,85.07,1.5,88.5Z" transform="translate(-1.4 -0.55)"/><path class="cls-61" d="M84.48,121.66l4.18-4.18L105,99l27.32-20.85c8.7-6.69,19.48-9.35,28.81-14.8,6.38-1.85,12.11-5.64,18.87-6.35l19.84-4.3c.82-1.09,2-.87,3.15-.91,3.06-.18,6.17.47,9.17-.58l20.34-.3,3,.06,15,1.44,16.5,3.1,10.51,2.85L291,63l7.36,3.39,12,5.94,10.52,6,7.61,5.28,20.84,17.32,19.46,22.53,18.11,31.28q5.19,15.1,10.39,30.21L401.73,212q.21,10.23.4,20.46l-3,27a225.42,225.42,0,0,1-19.86,53.93c-13.87,22.24-30.59,41.86-52.46,56.69-1,.68-3.8,5.5-4.17-.66,1.49-7.39-1.41-14.68-.42-22.13.5-3.73.77-7.39,2.48-10.78,1.52-3.4,1.24-7,1.2-10.6.4-2.6,1.38-5.11,1.29-7.81a16.13,16.13,0,0,1,.33-3.4c.41-2.6,1.75-5,1.75-7.7a15.85,15.85,0,0,1,.4-3.5c1.17-7.24,1.27-14.57,2.05-21.84,2.68-10,2.79-20.45,4.43-30.63.57-2.78,1.4-5.5,1.94-8.3.18-1.22.27-2.46.55-3.66.81-8.75,1.42-17.51,2.56-26.22a45.86,45.86,0,0,0-.92-12.48c-.36-3.95.55-8-.47-11.89-2.95-10.7-6.39-21.23-11.85-31-4.12-8-10.07-14.66-16.31-21.05-7.94-8.32-17.62-14.09-27.87-19-3.91-1.68-7.93-3.08-11.93-4.55-5-.33-10-.93-14.71-3-8.85-2.64-17.61-.08-26.41.39-5.46,1.44-11.06,2.34-16.47,4-22.33,8.48-39.38,23.6-53.45,42.47-3,5-5.7,10.27-8.84,15.24-1,3.89-3.18,7.28-4.45,11.06-.39,10.07-6.59,13.47-15.61,13.62-.67.27-1.36.53-2,.82-17,5.11-26.41,17.4-31.67,33.59-.83,1.6-.87,3.41-1.34,5.1a18.77,18.77,0,0,1-.62,2.1c-1.5,5.88-1.74,11.69.73,17.39,1.16,3.81.88,7.94,2.64,11.62C102.33,274.8,108.21,280,113,286c2.72,4.35,2.35,9.66,4.41,14.22,2.84,6.79,8.82,11,13.41,16.39,7,5.37,15,8.79,23.41,11.24,16.87,3.75,40.79-3.16,47.41-18.36,2.75-6.29,7.87-7.88,14.27-5.58,6.94,2.22,14.17,1.38,21.26,2,4.41.37,8.46.94,9.52,6.26a9.42,9.42,0,0,1,.41,3.73c-.28,2.7-1.35,5.28-1.27,8.05a16,16,0,0,1-.34,3.45c-.52,2.62-1.45,5.15-1.66,7.85,0,.81-.1,1.61-.16,2.43-1.27,10-1.86,20-3.59,29.91-.67,3.85-.88,7.89-4.43,10.52-1,5.88-2.47,11.74-2.78,17.65-.29,5.47-2.77,6.65-7.55,6.25-3.94-.33-7.94-.09-11.91-.11a298.23,298.23,0,0,1-43.59-8.94l-24.25-10.39-15.55-9A78,78,0,0,0,115.3,363L94.22,342.06,83.54,328.51,74.75,315,64.27,294l-4.49-12q-1.39-4.51-2.81-9l-3.12-13.5-1.48-9c-1.49-3.08.19-6.56-1.22-9.66L51,237l-.11-4.49.39-20.5,3-21c2.44-5.33,1.12-11.63,4.32-16.76l6-16.42c3.3-6.47,7.3-12.62,9.27-19.72Z" transform="translate(-1.4 -0.55)"/><path class="cls-61" d="M273,396l-13.17,2.85c-1.4-6.83,2.1-13.34,1.33-20.13,1.28-2.59-.21-5.61,1.26-8.17l.24-2.43a124.21,124.21,0,0,1,1.45-31.52c.31-2.88,2.08-5.38,2.09-8.34.25-4.89-.37-9.83.86-14.65.67-2.7,1.68-5.32,2-8.12,1.07-4.76,4.76-6.89,8.88-8.16,7.22-2.22,13.6-6,20-9.87,9-5.37,10.64-4.6,12.33,5.61-.79,7.37-2.22,14.66-2.83,22.07-2.88,6.56-1.36,13.75-2.82,20.52a20.68,20.68,0,0,1-1,3.53,22.85,22.85,0,0,0-1.41,8.39c-.53,6.89-1,13.79-2.25,20.59-.71,4-.54,8.52-4.41,11.37.31,9.37-6.81,11.13-13.57,13.3C279,393.78,276,394.91,273,396Z" transform="translate(-1.4 -0.55)"/><path class="cls-24" d="M295.54,379.51a267.56,267.56,0,0,1,4.56-33c7.25-1.11,11.24-7.61,17.36-10.59,1.33-.64,2.36-1.85,3.6-2.67,1.8-1.2,3.21-4.36,5.43-3.24,2.65,1.35,1,4.38.66,6.73-2,10.84-1.29,22-4.51,32.71-.12-1.94-.23-3.88-.35-5.8-6.17,7.27-15.13,10.52-21.83,16.71C299.12,381.6,297.13,380.22,295.54,379.51Z" transform="translate(-1.4 -0.55)"/><path class="cls-11" d="M267.11,336.34a212.26,212.26,0,0,1-4.45,31.75c-.11-1.44-.23-2.89-.37-4.77-4.67,9.83-12.94,15.46-21.21,20.51-5.79,3.54-2.64-4.67-5.46-5.8,1.32-14.1,3.18-28.12,5.9-42,2.74-1.27,3.32,2.95,5.82,2.24,6-2.47,9.32-9.22,16.29-10.09a4.24,4.24,0,0,1,3.94,2.14C267.7,332.34,268.16,334.4,267.11,336.34Z" transform="translate(-1.4 -0.55)"/><path class="cls-11" d="M262.42,370.52c.14,2.81.19,5.6-1.26,8.17C261.16,375.9,260.36,373,262.42,370.52Z" transform="translate(-1.4 -0.55)"/><path class="cls-30" d="M106.5,87A36.8,36.8,0,0,1,120,76.5,25.79,25.79,0,0,1,106.5,87Z" transform="translate(-1.4 -0.55)"/><path class="cls-30" d="M127.5,70.5c2.39-3.23,4.62-6.66,9-7.5C134.11,66.23,131.88,69.66,127.5,70.5Z" transform="translate(-1.4 -0.55)"/><path class="cls-30" d="M168,39c1.85-2.81,3.82-5.48,7.5-6C173.65,35.81,171.68,38.48,168,39Z" transform="translate(-1.4 -0.55)"/><path class="cls-30" d="M175.5,33c1.85-2.81,3.82-5.48,7.5-6C181.15,29.81,179.18,32.48,175.5,33Z" transform="translate(-1.4 -0.55)"/><path class="cls-30" d="M196.5,16.5c1.85-2.81,3.82-5.48,7.5-6C202.15,13.31,200.18,16,196.5,16.5Z" transform="translate(-1.4 -0.55)"/><path class="cls-30" d="M204,10.5c1.34-2.38,3.09-4.21,6-4.5C208.66,8.38,206.91,10.21,204,10.5Z" transform="translate(-1.4 -0.55)"/><path class="cls-30" d="M183,27c1.34-2.38,3.09-4.21,6-4.5C187.66,24.88,185.91,26.71,183,27Z" transform="translate(-1.4 -0.55)"/><path class="cls-30" d="M148.5,54c1.34-2.38,3.09-4.21,6-4.5C153.16,51.88,151.41,53.71,148.5,54Z" transform="translate(-1.4 -0.55)"/><path class="cls-30" d="M141,60c1.34-2.38,3.09-4.21,6-4.5C145.66,57.88,143.91,59.71,141,60Z" transform="translate(-1.4 -0.55)"/><path class="cls-30" d="M121.5,75c1.34-2.38,3.09-4.21,6-4.5C126.16,72.88,124.41,74.71,121.5,75Z" transform="translate(-1.4 -0.55)"/><path class="cls-30" d="M189,22.5c1.34-2.38,3.09-4.21,6-4.5C193.66,20.38,191.91,22.21,189,22.5Z" transform="translate(-1.4 -0.55)"/><path class="cls-62" d="M202.49,52.37l-2.65.29c-1-.42-2.4.43-3-1A7.89,7.89,0,0,1,198,51h4.49C203.5,51.46,203.5,51.92,202.49,52.37Z" transform="translate(-1.4 -0.55)"/><path class="cls-44" d="M202.49,52.37V51l3,0,6.64.21C209.06,52.6,205.78,52.49,202.49,52.37Z" transform="translate(-1.4 -0.55)"/><path class="cls-33" d="M51.15,240.84c1.41,3.1,1.34,6.38,1.22,9.66H51Z" transform="translate(-1.4 -0.55)"/><path class="cls-63" d="M343.45,213c1.17,9.32-1,18.29-2.82,27.31-8.49,8.67-18.38,15.69-27.82,23.22-18.88,15.05-37.72,30.2-57.25,44.43-3.24,2.36-6.14,6-10.94,5.52.5-4-1.31-5-5.11-4.84-8.44.37-16.85-.08-25-2.62-.32-4,3.15-3.59,5.4-4.62,9.41-4.3,17.5-10,21.4-20.17,2.32-2.63,5.5-3.21,8.73-3.72,27.56-4.39,48-18.33,59.39-44.35a11.47,11.47,0,0,1,4.57-5.75,36,36,0,0,0,19.61-10.81c2.17-2.28,4.43-4.7,8-4.64A4.21,4.21,0,0,1,343.45,213Z" transform="translate(-1.4 -0.55)"/><path class="cls-7" d="M244.62,313.48c1-1.37,1.78-3.15,3.13-4.06,30.24-20.49,57.69-44.6,86.64-66.77,2.39-1.84,4.83-3.42,5.87-6.66.13,1.44.25,2.88.37,4.32-.09.91-.18,1.82-.28,2.73-1.39,2.49.16,5.43-1.21,7.93a211.39,211.39,0,0,1-4.38,31.58c-4-2.52-6.81-.55-9.87,2.1-4,3.45-7.56,8.43-14.25,5.54-1.1-.48-.64,3.22-3,2.29V284.8c-9.27,6.05-17.87,12-27.8,15.41-3.28,1.13-7.45,1.23-8.41,5.81-1.46,2.57,0,5.6-1.26,8.2-2.12,4.57-.39,9.64-1.82,14.31A2.41,2.41,0,0,1,267,330H262.5c-1.06-1.25-.31-2.84-.9-4.59-6.27,4.34-12.89,8.09-14.1,16.59-7.19,3.18-2.85-5.13-6-6l.14-1.55c1.39-2.46-.2-5.39,1.22-7.85l.26-2.65c1.41-2.49-.15-5.44,1.22-7.94Z" transform="translate(-1.4 -0.55)"/><path class="cls-64" d="M153,330c-9.32-1.39-17.19-5.66-24-12.06-.82-2.27,1-3.13,2.34-4a77.15,77.15,0,0,0,16.14-15c2.8-1,5.39-.09,7.92,1a24.08,24.08,0,0,0,9.47,1.51c12.43,0,14.84-3.35,10.29-14.54-.75-1.85-1.52-3.67-1.25-5.73a49.82,49.82,0,0,1,22.87-16.45c6,6.61,15.1,9,21.47,15.14.42,4.79-2.28,7.94-5.7,10.65-14.4,11.39-28.25,23.47-43.3,34.06C164.17,328.13,159.24,330.65,153,330Z" transform="translate(-1.4 -0.55)"/><path class="cls-65" d="M153,330c15.53-6.42,27.52-18,40.61-28,5.51-4.19,10.49-9.15,16.25-12.94,3.61-2.38,4.83-6.41,8.06-8.83a4,4,0,0,1,2.08-1c2.75,0,5.47-.42,8.22-.61,4.53.74,9.81-1.48,13.29,3.35,2.81,1.63,4.72,2.61,1,6.1-8.31,7.7-16,16-28,17.86-5.5-1.63-8.23,0-10.91,5.71C196,327.89,172.39,335.94,153,330Z" transform="translate(-1.4 -0.55)"/><path class="cls-57" d="M130.28,194.9c9.54.62,13.67-5,15.35-13.37,12-6.94,22.46-15.92,33.27-24.44,2.71-2.15,5.37-4.45,8.68-5.52,2.71-.87,5.47-.81,6.62,2.69-5,8.94-10.32,17.62-18,24.56-4.25.37-7.19,3.17-10.32,5.59-19.31,15-38.41,30.24-57.75,45.19-3.42,2.65-7.64,8-12.46,1.24,4.81-17.82,14.89-30.72,33.4-35.74,2.53,1.35,5.26.27,7.87.72C134.72,195.3,132.3,196.62,130.28,194.9Z" transform="translate(-1.4 -0.55)"/><path class="cls-66" d="M193.49,154.18c-3.13-2.13-5.45-.53-8,1.43q-15.5,12.07-31.18,23.93c-2.56,1.94-5.17,4.13-8.72,2A26.08,26.08,0,0,1,150,171c11.33-6,20.51-14.91,30.61-22.57q20.86-15.8,41.11-32.37c2.9-2.36,5.81-4.71,7.76-8a64.2,64.2,0,0,1,29-.35c-.85,2.19-3,2.23-4.74,2.85-3.82.36-6.81,2.08-9.72,4.69-7,6.28-14.54,11.93-22,17.59-2.23,1.69-3.46,3.3-3.5,6C211.31,145.74,204.19,152.88,193.49,154.18Z" transform="translate(-1.4 -0.55)"/><path class="cls-67" d="M285.27,115.37C296,120,306.16,125.44,313.44,135c-4.44,8.28-11.84,13.22-19.8,17.55-10.89-4.95-21.78-9.94-31.58-16.95-.15-.48-.37-1.13-.09-1.41A121.7,121.7,0,0,1,285.27,115.37Z" transform="translate(-1.4 -0.55)"/><path class="cls-11" d="M307.62,292.48c1.9-1.94,1.08-4.67,2-8.25,1.65,6.65,5,5.21,7.94,3,3.33-2.49,6.13-5.71,9.51-8.12,1.86-1.33,3.42-4.55,6.06-3.31s1,4.49,1.63,6.76a105.49,105.49,0,0,1-3.11,22.29c-3.31,6.64-8.84,11.11-14.77,15.21-3,2.11-5.85,5.06-10,3.44-4.41-1.7-.44-5.94-2.32-8.48A122.16,122.16,0,0,1,307.62,292.48Z" transform="translate(-1.4 -0.55)"/><path class="cls-5" d="M329.86,156a69.73,69.73,0,0,1,12.08,31.47c-5.53,7.78-11.84,14.32-22.36,14.28-2-.35.34-4.5-3.16-3.58a56.7,56.7,0,0,1-7.8-25A63.19,63.19,0,0,1,329.86,156Z" transform="translate(-1.4 -0.55)"/><path class="cls-4" d="M329.86,156c-4.44,8.06-12.13,12.38-19.59,17-8.34-4.94-14.07-11.86-16.28-21.45,5.12-7.11,12.17-12,19.45-16.53A49.94,49.94,0,0,1,329.86,156Z" transform="translate(-1.4 -0.55)"/><path class="cls-68" d="M229.52,108.08c4.4,5.09-1.49,6.67-3.58,8.37-14.39,11.8-29.13,23.17-43.79,34.64-8,6.26-16.18,12.34-24.07,18.76-2.67,2.17-5,3-8,1.17,2.11-5.49,4.37-10.9,8.57-15.21,8.69-4,15.33-10.94,23-16.44,9.48-6.82,18.35-14.48,27.58-21.65A10.91,10.91,0,0,0,213,112.4,40.56,40.56,0,0,1,229.52,108.08Z" transform="translate(-1.4 -0.55)"/><path class="cls-10" d="M319.5,201c7-1.6,11.44-7.38,17.35-10.77,1.68-1,3-2.55,5.09-2.73a25.63,25.63,0,0,1,1.51,12c-1.89,4.34.53,9.15-1.45,13.48-6.88,5.37-12.34,12.47-20.77,16-2.91,1.24-4.43,1-6.25-1-2.24-1.8-2.26-4.22-1.93-6.77.81-6.11,1.16-12.29,3.19-18.2A4.31,4.31,0,0,1,319.5,201Z" transform="translate(-1.4 -0.55)"/><path class="cls-69" d="M304.53,315c3.12,8.1,3.12,8.1,10.72,2.3,13.66-10.43,13.66-10.43,15.92-17.88.23,2.54.35,4,.48,5.41-.1.9-.19,1.8-.28,2.69-1.41,2.52.11,5.48-1.22,8-.08.83-.17,1.67-.25,2.5-1.45,2.54.06,5.53-1.24,8.1,0,3.61.15,7.24-1.51,10.61-.09-1.46-.18-2.92-.3-4.79-6.1,7.24-15,10.14-21.23,16.56-2.1,2.16-3.91-.58-5.52-2-.15-2.74-.17-5.46,1.19-8,.53.07.55.68.93.91,0-1.18.26-2.42-.64-3.44A103.38,103.38,0,0,1,304.53,315Z" transform="translate(-1.4 -0.55)"/><path class="cls-70" d="M95.63,230.84c3.54,2.41,6.2,0,8.67-1.9q29.53-23.13,59-46.43c3.71-2.93,7.25-6.18,12.54-5.42,1.92,4.19-.2,7.19-2.92,10-22.77,16.57-44.34,34.69-66.5,52-3.19,2.49-6.07,6.37-11.07,3.76-1.88-2.31.48-5-.74-7.42A5.6,5.6,0,0,1,95.63,230.84Z" transform="translate(-1.4 -0.55)"/><path class="cls-67" d="M110.83,286.84c-5.81-5.1-12-9.94-13.35-18.3-1.72-3.36.71-5.14,2.83-6.77,6.71-5.17,14-9.81,14.77-19.53a2.74,2.74,0,0,1,3.91-2.31c2.74,3.51,1.69,8.14,3.58,11.9a23.39,23.39,0,0,0,5.63,11c1.85,2,3.47,4.19,3.3,7.16A35.41,35.41,0,0,1,110.83,286.84Z" transform="translate(-1.4 -0.55)"/><path class="cls-71" d="M213,112.4c2.68,2.52,2,4.44-.73,6.58-15.39,12-30.69,24.16-46,36.23a6.16,6.16,0,0,1-7.58.6C172.11,135.56,189.49,120.17,213,112.4Z" transform="translate(-1.4 -0.55)"/><path class="cls-72" d="M147.22,299.37c.52,2.17,1.56,4.64-.77,6.19C140.5,309.51,136.29,315.91,129,318a40.41,40.41,0,0,1-13.61-16.29c-.52-.67-.58-1.61,0-1.95,6.36-3.46,11.9-8.18,18.13-11.82a6.18,6.18,0,0,1,4.35-.74C142.42,290.17,146.92,293.17,147.22,299.37Z" transform="translate(-1.4 -0.55)"/><path class="cls-73" d="M137.92,288c-7.75,4.16-13.14,12.21-22.52,13.69-3.71-4.28-2.32-10.12-4.57-14.85,5.36-6.87,13.28-10.79,19.36-16.83C138.38,273.05,141.53,280.37,137.92,288Z" transform="translate(-1.4 -0.55)"/><path class="cls-23" d="M118.47,240c-.31,13.67-9.71,20.46-20,26.57-.52.3-.64,1.29-.94,2a22.31,22.31,0,0,1-3.11-11.66,66,66,0,0,1,0-20.19,1,1,0,0,1,.17-1.18c2,2.2,1.28,4.93,1.44,7.49,2.33,3.17,4.67,3.73,7.71.62,3.3-3.36,6.81-6.6,11.09-8.73,2.37-1.18,5.12-3,6.58,1.26a5,5,0,0,1-.29,2.14A3.17,3.17,0,0,1,118.47,240Z" transform="translate(-1.4 -0.55)"/><path class="cls-74" d="M285.27,115.37c-4.82,9.72-14.08,14.24-22.76,19.44-2.31,3-5.35,2-8.29,1.6-4.87-2-10.28-1.55-15.2-3.28-2.31-5.49,2.69-5.24,5.08-5.36,10.11-.55,16.13-7.59,22.82-13.58,1.9-1.7,2.67-5,6.29-3.27A27.58,27.58,0,0,1,285.27,115.37Z" transform="translate(-1.4 -0.55)"/><path class="cls-28" d="M273.21,110.92c-3.61,8.45-12.18,11.65-18.33,17.42-2.48,2.32-5.45,2.09-8.45,2.18-2.7.07-5.55-.58-7.91,1.42-6.31.51-3.18-3.25-1.94-5.08,3-4.41,7.65-7.14,11.93-10.12,3.27-2.27,4.36-5,3.55-8.7l6.48-.31C263.15,110.08,268.74,107.94,273.21,110.92Z" transform="translate(-1.4 -0.55)"/><path class="cls-70" d="M94.39,236.69q0,10.09,0,20.19A34.89,34.89,0,0,1,94.39,236.69Z" transform="translate(-1.4 -0.55)"/><path class="cls-41" d="M130.28,194.9h9.93c-3.78,1.37-7.59,2.6-11.18.2A1.12,1.12,0,0,1,130.28,194.9Z" transform="translate(-1.4 -0.55)"/><path class="cls-75" d="M342,213c.54-4.49-1.29-9.23,1.45-13.48a36.37,36.37,0,0,1,0,13.48Z" transform="translate(-1.4 -0.55)"/><path class="cls-7" d="M244.36,316c0,2.71.73,5.53-1.22,7.94C243,321.23,243,318.53,244.36,316Z" transform="translate(-1.4 -0.55)"/><path class="cls-7" d="M242.88,326.61c0,2.67.7,5.47-1.22,7.85A14.42,14.42,0,0,1,242.88,326.61Z" transform="translate(-1.4 -0.55)"/><path class="cls-63" d="M339.14,251c0-2.71-.73-5.53,1.21-7.93A14.34,14.34,0,0,1,339.14,251Z" transform="translate(-1.4 -0.55)"/><path class="cls-11" d="M330.15,315.53c0-2.73-.75-5.57,1.22-8C331.54,310.29,331.5,313,330.15,315.53Z" transform="translate(-1.4 -0.55)"/><path class="cls-11" d="M328.66,326.13c0-2.76-.79-5.65,1.24-8.1C330.06,320.81,330.06,323.58,328.66,326.13Z" transform="translate(-1.4 -0.55)"/><path class="cls-24" d="M301.58,336c1.65,2,1.74,4.26.93,6.84-1.71-1.2-.74-3-1.22-4.31C301.39,337.7,301.48,336.86,301.58,336Z" transform="translate(-1.4 -0.55)"/><path class="cls-7" d="M267,330l1.35-1.48a14.37,14.37,0,0,1-1.22,7.81C267.07,334.23,267,332.12,267,330Z" transform="translate(-1.4 -0.55)"/><path class="cls-7" d="M270.15,314.22c0-2.79-.8-5.72,1.26-8.2C271.55,308.84,271.59,311.64,270.15,314.22Z" transform="translate(-1.4 -0.55)"/><path class="cls-7" d="M247.5,342c-4.41-4.4-1-8,1.75-10.89,3.24-3.34,7.3-5.93,11.15-8.64,1.68-1.18,3.75-3.61,5.79-1.35,1.79,2,0,4.13-1.47,5.9-.79,1-1.48,2-2.22,3C257.54,334.05,253.19,338.87,247.5,342Z" transform="translate(-1.4 -0.55)"/><path class="cls-61" d="M255,133.37l7.53,1.44c11.45,3.78,22.16,8.95,31.48,16.73A124.45,124.45,0,0,1,310.27,173a142.85,142.85,0,0,1,7.56,25.37c1.38,1.29,1.1,2.69.27,4.13-.05,8.62-1.53,17.07-3.12,25.51-12.32,34.56-38.44,50.37-73.48,54.06l-14.34-.21c-2.57-1.36-5.64.31-8.16-1.34l-.51-.31-.58.1c-8.51-3-17.79-4.87-21.6-14.76-3.41-.93-5.11-3.68-6.67-6.48-4-7.07-8.06-14.05-11.75-21.27-4.8-8.38-10.75-16.16-13.52-25.62q-.17-5.4-.23-10.8c1.59-5.36,2.62-11,7.07-15q2.28-4.63,4.58-9.28c5.9-7.64,9.63-17,17.7-22.91,7.76-5.89,15.61-11.63,24.36-16,2.43-5.87,8.24-7.44,12.91-6.53C238.87,133.19,247,131.73,255,133.37Z" transform="translate(-1.4 -0.55)"/><path class="cls-61" d="M120,238.5a.78.78,0,0,0,.22-1c.66-10.64,6.06-17,16.08-19.1,4-.07,6.71,2.09,9,5,6.11,8.2,10.32,17.53,15.45,26.32,3.93,6.85,7.94,13.65,11.76,20.56a20.52,20.52,0,0,1,2.92,10.39c1.44,2.84,2.91,5.67,4.31,8.53,3.63,7.43,1.61,12.26-6.39,14.72-9.42,2.89-18,.35-26.13-4.54-3.17-3.73-7.7-6.35-9.3-11.37a28.38,28.38,0,0,0-7.73-18c-3.11-5.74-9.72-9.27-10.39-16.54A36.83,36.83,0,0,1,120,238.5Z" transform="translate(-1.4 -0.55)"/><path class="cls-4" d="M175.43,280.66a273,273,0,0,1-16.7-29.58c6.54-5.59,11.84-13.07,21.37-14.12a282.19,282.19,0,0,1,16.21,28.58A86.4,86.4,0,0,1,175.43,280.66Z" transform="translate(-1.4 -0.55)"/><path class="cls-76" d="M170,306.82c-3.44.77-5.35,1-7.51.08C164.69,305.55,166.68,306,170,306.82Z" transform="translate(-1.4 -0.55)"/><path class="cls-64" d="M219,280.51a17,17,0,0,1,8.15,1.34C224.37,281.83,221.44,282.66,219,280.51Z" transform="translate(-1.4 -0.55)"/><path class="cls-27" d="M255,133.37c-12.68-.71-25.13.27-37.13,4.78-6-3.42-.34-5.23,1.33-6.61,7.42-6.18,15.35-11.75,22.71-18,3.11-2.63,4.94-7,10.16-5.52,7.48,2.92,7.57,3,1.21,8.41-4.49,3.8-9.35,7.18-13.8,11-1,.86-4.66,2.19-.94,4.47C244,132.61,249.69,130.57,255,133.37Z" transform="translate(-1.4 -0.55)"/><path class="cls-77" d="M318.1,202.49l-.27-4.13c.28-.89.57-1.78.85-2.67,1.58,1.57.46,3.55.82,5.31C319,201.5,318.56,202,318.1,202.49Z" transform="translate(-1.4 -0.55)"/><path class="cls-78" d="M136.48,220.34c-9,2.36-12.71,9.68-16.3,17.15-.38-2.46-1.38-1.61-3-.87-5.37,2.45-8.62,7.46-13.36,10.59-2,1.32-4,4.22-6.36,3.17-3-1.34-.9-4.88-1.48-7.38,12-9.26,23.87-18.74,36.08-27.73,13.06-9.61,24.51-21.41,39.13-28.9q-2.31,7.44-4.6,14.89c-3.42-.73-5.44,1.71-7.84,3.39C151.33,209.87,145.12,216.83,136.48,220.34Z" transform="translate(-1.4 -0.55)"/><path class="cls-70" d="M120,238.5q-.08,7.49-.16,15c-2.54-4.28-.86-9-1.33-13.46C119,239.51,119.47,239,120,238.5Z" transform="translate(-1.4 -0.55)"/><path class="cls-79" d="M258,165a22.86,22.86,0,0,1,11.07-1.14A13.2,13.2,0,0,1,281,177c.06,6.84-4.64,12.92-11.67,13.21-15.07.63-27.11,7.27-38.12,16.91-5.22,4.57-11.18,5.08-16.86.2-1.25-4.1,2.13-5.84,4.32-7.94,10-9.53,21.89-16.56,32.33-25.46C253.85,171.51,258.05,169.86,258,165Z" transform="translate(-1.4 -0.55)"/><path class="cls-3" d="M180.1,237c-4.19,3.42-8.59,6.63-12.5,10.35a12.18,12.18,0,0,1-8.87,3.77,238.86,238.86,0,0,1-14.77-26c-.07-.24-.28-.58-.2-.7,6.07-7.79,16.9-10.7,19.59-22.31,3.74,4.52,1.07,8.19,3.23,10.91A181.62,181.62,0,0,1,180.1,237Z" transform="translate(-1.4 -0.55)"/><path class="cls-67" d="M258,165c2.49,1.56,4.24,2.7,1.05,5.86-7.78,7.71-16.85,13.77-25.56,20.2-6.81,5-12.83,10.8-19.17,16.28-6.08-6.5-7-13.46-1.27-19.08C225.55,175.92,240.12,167.16,258,165Z" transform="translate(-1.4 -0.55)"/><path class="cls-80" d="M166.58,213a20.3,20.3,0,0,1-1.48-3.27,30.78,30.78,0,0,1-.43-4.7c-3.24,11.72-12,15.82-20.71,20.07-2.26-2-4.5-3.93-7.48-4.74-.65-4.47,4-4.27,6-6.19a157.2,157.2,0,0,1,17.73-14.24c1.78-1.26,5.73-5.63,6.45,1.35Z" transform="translate(-1.4 -0.55)"/></svg>