<?xml version="1.0" encoding="utf-8"?>
<!-- Generator: Adobe Illustrator 23.0.1, SVG Export Plug-In . SVG Version: 6.00 Build 0)  -->
<svg version="1.1" id="Layer_1" xmlns="http://www.w3.org/2000/svg" xmlns:xlink="http://www.w3.org/1999/xlink" x="0px" y="0px"
	 viewBox="0 0 466 478" style="enable-background:new 0 0 466 478;" xml:space="preserve">
<style type="text/css">
	.st0{fill:#FFFFFF;}
	.st1{fill-rule:evenodd;clip-rule:evenodd;fill:#151515;}
</style>
<rect class="st0" width="466" height="478"/>
<path class="st1" d="M371.6,158.1L318.8,128l-73.2,42.6l0.1-84.2l-52.8-30.1L139.9,87l-0.1,84.2l0,39.3l0.1,36.9l0.2,19.6l-0.3,48.1
	l0,38.4l0,44.3l52.8,30l52.8-30.7l0-44.3l73.2,41.6l0.5-0.3l52.3-30.4l0-60.7l-73.2-41.6l73.2-42.6L371.6,158.1z M232.3,94.1
	l-0.1,84.2l-32.8,19.1l0.1-121.9L232.3,94.1z M153.3,94.7l32.8-19.1l-0.1,198l-32.8,19.1L153.3,94.7z M139.8,353.6l0-53.1l0,37.7
	L139.8,353.6z M153.2,292.7l32.8-19.1l0,89.6l-32.8,19.1L153.2,292.7z M232.2,389.6l-39.5,23l-32.8-18.7l39.5-23V265.5l32.8,17
	L232.2,389.6z M318.7,379.2l-73.2-41.6l0-37.7l106,60.3L318.7,379.2z M358.2,310.8l0,37.7l-106-60.3l32.8-19.1L358.2,310.8z
	 M232.2,282.5l-32.8-17l119.4-69l32.8,18.7L232.2,282.5z M318.8,181.1l-0.5,0.3L186,257.5l0-39l132.9-75.1l39.4,22.5l-0.1,37.8
	L318.8,181.1z"/>
</svg>
