<svg fill="none" viewBox="0 0 40 40" xmlns="http://www.w3.org/2000/svg">
    <path d="M0 0h40v40H0z" fill="#1e0e2d"/>
    <defs>
        <style>
            .cls-1{fill:#53cbc9}
        </style>
    </defs>
    <g stroke-width=".764">
        <path class="cls-1" d="M32.591 28.155h-5.536a.438.438 0 010-.873h5.536a.438.438 0 110 .873z"/>
        <path class="cls-1" d="M21.732 28.155H7.409a.438.438 0 110-.873h14.323a.438.438 0 010 .873z"/>
        <path class="cls-1" d="M29.427 30.363a.436.436 0 01-.435-.436v-19.85a.438.438 0 01.873 0v19.855a.436.436 0 01-.437.431z"/>
        <path class="cls-1" d="M24.555 18.12a.436.436 0 01-.435-.436v-7.61a.436.436 0 11.872 0v7.61a.436.436 0 01-.437.436z"/>
        <path class="cls-1" d="M10.17 30.363a.438.438 0 01-.438-.436v-19.85a.438.438 0 01.874 0v19.855a.436.436 0 01-.436.431z"/>
        <path class="cls-1" d="M26.158 12.741H7.403a.436.436 0 110-.873h18.755a.436.436 0 110 .873z"/>
        <path class="cls-1" d="M12.817 22.043a.436.436 0 01-.31-.743l7.218-7.218a.436.436 0 11.617.617l-7.217 7.218a.434.434 0 01-.308.126z"/>
        <path class="cls-1" d="M12.986 25.593a.438.438 0 01-.308-.742l8.799-8.803a.437.437 0 11.617.617l-8.791 8.8a.435.435 0 01-.318.128z"/>
        <path class="cls-1" d="M15.825 26.463a.438.438 0 01-.309-.743l6.934-6.935a.437.437 0 11.618.617l-6.934 6.933a.438.438 0 01-.309.128z"/>
        <path d="M17.146 27.49a7.537 7.537 0 01-2.373-.383c-3.164-1.028-4.744-3.651-4.21-7.027a9.794 9.794 0 012.653-5.212c1.495-1.52 3.367-2.358 5.268-2.358.141 0 .286 0 .425.014h.012c1.886 0 3.73 1.214 4.93 3.238a.502.502 0 00.889-.052c.114-.252.212-.485.306-.698.677-1.574.837-1.948 2.563-1.948.346 0 .76.018 1.303.054.14.008.17.061.185.087.319.559-.934 2.93-1.762 4.5-.547 1.035-1.02 1.929-1.145 2.41a.484.484 0 00.028.325l.281.646c1.013 2.344 2.274 5.26 5.064 5.26a4.357 4.357 0 00.774-.071h.018a.385.385 0 01-.046.072c-.695.733-1.522 1.105-2.462 1.105-1.863 0-3.896-1.516-4.726-3.527a.506.506 0 00-.468-.318.495.495 0 00-.392.192c-1.795 2.31-4.458 3.69-7.114 3.69zm1.221-12.817c-1.08 0-2.16.53-3.042 1.508-1.368 1.51-2.045 3.835-1.81 6.22a.432.432 0 00.022.107c.611 1.66 1.86 2.576 3.515 2.576 1.95 0 4.117-1.346 5.152-3.2.646-1.158.65-2.889.006-4.209-.942-1.935-2.308-3.001-3.843-3.001z" fill="#f45b5b"/>
    </g>
</svg>
