<?xml version="1.0" encoding="UTF-8"?>
<svg fill="none" version="1.1" viewBox="0 0 64 64" xmlns="http://www.w3.org/2000/svg">
 <path d="M64 0H0V64H64V0Z" fill="#fff"/>
 <path d="m20.18 30.838-9.4785 4.2591c-2.1071 0.9466-2.1014 3.9386 0.0094 4.8771l23.37 10.394c1.3974 0.6215 2.9949 0.6151 4.3872-0.0182l14.88-6.7638c2.0915-0.9508 2.0876-3.921-0.0061-4.8663l-9.3568-4.2243-5.5159 2.5072c-1.3926 0.6333-2.9897 0.6397-4.3875 0.0183l-13.901-6.1827z" clip-rule="evenodd" fill="url(#gradient_0)" fill-rule="evenodd"/>
 <path d="m25.856 13.595c1.3974-0.6279 2.9973-0.6265 4.3936 0.0039l23.095 10.427c2.0938 0.9454 2.0976 3.9157 0.0061 4.8664l-14.88 6.764c-1.3923 0.633-2.9898 0.6394-4.3872 0.0179l-23.37-10.394c-2.1107-0.9387-2.1165-3.9305-0.0094-4.8773l15.152-6.8082z" fill="url(#gradient_1)"/>
 <defs>
  <linearGradient id="gradient_0" x1="54.906" x2="9.1354" y1="38.703" y2="38.703" gradientUnits="userSpaceOnUse">
   <stop stop-color="#EF18AC" offset="0"/>
   <stop stop-color="#FAD972" offset="1"/>
  </linearGradient>
  <linearGradient id="gradient_1" x1="54.907" x2="9.137" y1="30.635" y2="30.635" gradientUnits="userSpaceOnUse">
   <stop stop-color="#5314F1" offset="0"/>
   <stop stop-color="#04E2FF" offset="1"/>
  </linearGradient>
 </defs>
</svg>
