<svg viewBox="0 0 64 64" xmlns="http://www.w3.org/2000/svg">
    <path fill="#fff" d="M32 64c17.673 0 32-14.327 32-32C64 14.327 49.673 0 32 0 14.327 0 0 14.327 0 32c0 17.673 14.327 32 32 32Z"/>
    <path fill="#f08727" d="m16.629 20.246 17.63-10.18a1.97 1.97 0 0 1 1.962 0l11.107 6.413a1.965 1.965 0 0 1 .722 2.684c-.087.149-.187.28-.305.404l-3.773 3.78a1.97 1.97 0 0 1-2.372.317l-5.36-3.094a2.02 2.02 0 0 0-2.005 0L15.651 31.409v-9.464c0-.697.374-1.35.978-1.7Z"/>
    <path fill="#191919" d="m47.372 47.495-11.15 6.438a1.97 1.97 0 0 1-1.962 0l-17.63-10.18a1.953 1.953 0 0 1-.984-1.699V33.47l9.089-5.267v8.604c0 .703.373 1.351.984 1.7l8.547 4.93a1.97 1.97 0 0 0 1.962 0l5.41-3.119a1.958 1.958 0 0 1 2.366.312l3.772 3.779a1.965 1.965 0 0 1-.404 3.087Z"/>
</svg>
