<svg width="55" height="55" viewBox="0 0 55 55" fill="none" xmlns="http://www.w3.org/2000/svg">
<g clip-path="url(#clip0_3874_9033)">
<path d="M45.2173 16.7654L36.3032 22.1186L45.2173 27.4944L54.1097 22.1186L45.2173 16.7654Z" fill="white"/>
<path d="M9.6044 16.7654L0.711914 22.1186L9.6044 27.4944L18.5184 22.1186L9.6044 16.7654Z" fill="white"/>
<path d="M18.5186 43.4869V54.1263L27.4111 48.7729V38.1335L18.5186 43.4869Z" fill="#1792FF"/>
<path d="M18.5181 22.1831V32.8225L9.604 27.4691V16.8298L18.5181 22.1831Z" fill="#A4D8FF"/>
<path d="M18.5181 32.8268V43.4438L9.604 38.1129V27.4735L18.5181 32.8268Z" fill="#A4D8FF"/>
<path d="M9.6044 27.472V38.1114L0.711914 32.758V22.1187L9.6044 27.472Z" fill="#A4D8FF"/>
<path d="M27.4111 38.1336V48.773L18.5186 43.4421V32.8027L27.4111 38.1336Z" fill="#A4D8FF"/>
<path d="M36.3037 22.1411V32.7805L27.4111 27.4271V16.7878L36.3037 22.1411Z" fill="#A4D8FF"/>
<path d="M18.5181 11.4346V22.074L9.604 16.7206V6.0813L18.5181 11.4346Z" fill="#A4D8FF"/>
<path d="M36.3037 43.4419V54.0812L27.4111 48.7503V38.111L36.3037 43.4419Z" fill="#A4D8FF"/>
<path d="M18.5181 43.4419V54.0812L9.604 48.7503V38.111L18.5181 43.4419Z" fill="#A4D8FF"/>
<path d="M36.3032 22.1411V32.7805L45.2173 27.4271V16.7878L36.3032 22.1411Z" fill="#1792FF"/>
<path d="M36.3032 11.4346V22.074L45.2173 16.7206V6.0813L36.3032 11.4346Z" fill="#1792FF"/>
<path d="M18.5186 22.1411V32.7805L27.4111 27.4271V16.7878L18.5186 22.1411Z" fill="#1792FF"/>
<path d="M36.3032 32.7805V43.4197L45.2173 38.0665V27.4271L36.3032 32.7805Z" fill="#1792FF"/>
<path d="M45.2173 27.472V38.1114L54.1098 32.758V22.1187L45.2173 27.472Z" fill="#1792FF"/>
<path d="M27.4111 38.1113V48.7507L36.3037 43.4198V32.7804L27.4111 38.1113Z" fill="#1792FF"/>
<path d="M36.3032 43.4197V54.0591L45.2173 48.7058V38.0664L36.3032 43.4197Z" fill="#1792FF"/>
<path d="M18.5181 11.4589L9.604 16.8121L18.5181 22.1878L27.4105 16.8121L18.5181 11.4589Z" fill="white"/>
<path d="M27.4111 6.0813L18.5186 11.457L27.4111 16.8102L36.3035 11.457L27.4111 6.0813Z" fill="white"/>
<path d="M27.4111 27.4271L18.5186 32.7805L27.4111 38.1336L36.3035 32.7805L27.4111 27.4271Z" fill="white"/>
<path d="M36.3037 0.728149L27.4111 6.08141L36.3037 11.4571L45.2176 6.08141L36.3037 0.728149Z" fill="white"/>
<path d="M18.5181 0.728149L9.604 6.08141L18.5181 11.4571L27.4105 6.08141L18.5181 0.728149Z" fill="white"/>
<path d="M36.3037 11.3898L27.4111 16.7654L36.3037 22.1186L45.2176 16.7654L36.3037 11.3898Z" fill="white"/>
<path d="M9.6044 6.08141V16.7655L0.711914 22.1189V32.7581L9.6044 38.1114V48.7508L18.5184 54.0815L27.4109 48.7508L36.3033 54.0815L45.2174 48.7508V38.1114L54.11 32.7581V22.1189L45.2174 16.7655V6.08141L36.3033 0.728149L27.4109 6.08141L18.5184 0.728149L9.6044 6.08141Z" stroke="#001423" stroke-width="1.42395" stroke-miterlimit="10" stroke-linejoin="round"/>
<path d="M0.711914 22.1187L9.6044 27.5391" stroke="white" stroke-width="1.42395" stroke-miterlimit="10" stroke-linecap="round" stroke-linejoin="round"/>
<path d="M18.5186 43.4872V54.0817" stroke="white" stroke-width="1.42395" stroke-miterlimit="10" stroke-linecap="round" stroke-linejoin="round"/>
<path d="M18.5186 32.8274V43.489" stroke="#001423" stroke-width="1.42395" stroke-miterlimit="10" stroke-linejoin="round"/>
<path d="M9.604 16.7654V38.1113" stroke="#001423" stroke-width="1.42395" stroke-miterlimit="10" stroke-linejoin="round"/>
<path d="M36.3032 43.4422V32.7804" stroke="#001423" stroke-width="1.42395" stroke-miterlimit="10" stroke-linejoin="round"/>
<path d="M36.3032 54.0816V43.4424" stroke="white" stroke-width="1.42395" stroke-miterlimit="10" stroke-linecap="round" stroke-linejoin="round"/>
<path d="M54.1098 22.0737L45.2173 27.4942" stroke="white" stroke-width="1.42395" stroke-miterlimit="10" stroke-linecap="round" stroke-linejoin="round"/>
<path d="M45.2173 6.0813L36.3032 11.5018" stroke="white" stroke-width="1.42395" stroke-miterlimit="10" stroke-linecap="round" stroke-linejoin="round"/>
<path d="M9.604 6.0813L18.5181 11.5018" stroke="white" stroke-width="1.42395" stroke-miterlimit="10" stroke-linecap="round" stroke-linejoin="round"/>
<path d="M45.2173 38.3561V17.0326" stroke="#001423" stroke-width="1.42395" stroke-miterlimit="10" stroke-linejoin="round"/>
<path d="M9.62598 27.4735L18.5185 32.8044" stroke="#001423" stroke-width="1.42395" stroke-miterlimit="10" stroke-linejoin="round"/>
<path d="M9.604 38.111L27.4105 48.8399" stroke="#001423" stroke-width="1.42395" stroke-miterlimit="10" stroke-linejoin="round"/>
<path d="M45.0454 38.111L27.2603 48.8399" stroke="#001423" stroke-width="1.42395" stroke-miterlimit="10" stroke-linejoin="round"/>
<path d="M45.2173 27.4966L36.3032 32.7826" stroke="#001423" stroke-width="1.42395" stroke-miterlimit="10" stroke-linejoin="round"/>
<path d="M36.605 11.5225L27.4111 16.7861" stroke="#001423" stroke-width="1.42395" stroke-miterlimit="10" stroke-linejoin="round"/>
<path d="M27.4111 6.0813L45.7989 17.1238" stroke="#001423" stroke-width="1.42395" stroke-miterlimit="10" stroke-linejoin="round"/>
<path d="M36.1529 32.6684L27.4111 27.3375V16.7878L18.5186 11.4346" stroke="#001423" stroke-width="1.42395" stroke-miterlimit="10" stroke-linejoin="round"/>
<path d="M27.4105 6.05896L9.604 16.7655" stroke="#001423" stroke-width="1.42395" stroke-miterlimit="10" stroke-linejoin="round"/>
<path d="M27.4101 27.2928L18.4531 32.6909" stroke="#001423" stroke-width="1.42395" stroke-miterlimit="10" stroke-linejoin="round"/>
<path d="M9.604 16.7654L18.5181 22.1859V32.8028L27.4105 38.1336V48.7505" stroke="white" stroke-width="1.42395" stroke-miterlimit="10" stroke-linecap="round" stroke-linejoin="round"/>
<path d="M45.2176 16.7654L36.3037 22.1859V32.8028L27.4111 38.1336" stroke="white" stroke-width="1.42395" stroke-miterlimit="10" stroke-linecap="round" stroke-linejoin="round"/>
<path d="M18.5186 22.1882L27.4111 16.8125L36.3035 22.1882" stroke="white" stroke-width="1.42395" stroke-miterlimit="10" stroke-linecap="round" stroke-linejoin="round"/>
</g>
<defs>
<clipPath id="clip0_3874_9033">
<rect width="55" height="54.822" fill="white" transform="translate(0 0.0162354)"/>
</clipPath>
</defs>
</svg>
