<?xml version="1.0" encoding="utf-8"?>
<!-- Generator: Adobe Illustrator 27.0.0, SVG Export Plug-In . SVG Version: 6.00 Build 0)  -->
<svg version="1.2" baseProfile="tiny" id="Layer_1" xmlns="http://www.w3.org/2000/svg" xmlns:xlink="http://www.w3.org/1999/xlink"
	 x="0px" y="0px" viewBox="0 0 112 112" overflow="visible" xml:space="preserve">
<rect width="112" height="112"/>
<g>
	<g>
		<path fill="#97FF00" d="M62.62,36.63c4.28-2.47,9.41-5.43,13.68-7.9c2.94-1.7,2.94-5.95,0-7.65c-0.07-0.04-0.15-0.08-0.22-0.13
			c-8.93,5.15-11.16,6.44-20.09,11.6v0.25C56,36.2,59.68,38.33,62.62,36.63z"/>
		<path fill="#97FF00" d="M42.53,40.58v-15.8c0-3.4-3.68-5.52-6.62-3.82l-0.22,0.13c0,10.31,0,12.89,0,23.2l0.22,0.13
			C38.85,46.1,42.53,43.98,42.53,40.58z"/>
		<path fill="#97FF00" d="M76.31,44.28c-0.07,0.04-0.15,0.08-0.22,0.13c-2.94,1.7-2.94,5.95,0,7.65c4.27,2.47,9.4,5.43,13.69,7.9
			c2.94,1.7,6.62-0.42,6.62-3.82v-0.25C87.47,50.72,85.24,49.43,76.31,44.28z"/>
		<path fill="#97FF00" d="M35.91,59.95l-13.68-7.9c-2.94-1.7-6.62,0.42-6.62,3.82v0.25c8.93,5.15,11.16,6.44,20.09,11.6l0.22-0.13
			C38.85,65.9,38.85,61.65,35.91,59.95z"/>
		<path fill="#97FF00" d="M69.47,71.42v15.8c0,3.4,3.68,5.52,6.62,3.82c0.07-0.04,0.15-0.08,0.22-0.13c0-10.31,0-12.89,0-23.2
			c-0.07-0.04-0.15-0.08-0.22-0.13C73.15,65.9,69.47,68.02,69.47,71.42z"/>
		<path fill="#97FF00" d="M49.38,75.37l-13.68,7.9c-2.94,1.7-2.94,5.95,0,7.65l0.22,0.13c8.93-5.15,11.16-6.44,20.09-11.6V79.2
			C56,75.8,52.32,73.67,49.38,75.37z"/>
	</g>
	<g>
		<path fill="#97FF00" d="M75.37,62.62c2.47,4.28,5.43,9.41,7.9,13.68c1.7,2.94,5.95,2.94,7.65,0c0.04-0.07,0.08-0.15,0.13-0.22
			c-5.15-8.93-6.44-11.16-11.6-20.09H79.2C75.8,56,73.67,59.68,75.37,62.62z"/>
		<path fill="#97FF00" d="M71.42,42.53h15.8c3.4,0,5.52-3.68,3.82-6.62l-0.13-0.22c-10.31,0-12.89,0-23.2,0l-0.13,0.22
			C65.9,38.85,68.02,42.53,71.42,42.53z"/>
		<path fill="#97FF00" d="M67.72,76.31c-0.04-0.07-0.08-0.15-0.13-0.22c-1.7-2.94-5.95-2.94-7.65,0c-2.47,4.27-5.43,9.4-7.9,13.69
			c-1.7,2.94,0.42,6.62,3.82,6.62h0.25C61.28,87.47,62.57,85.24,67.72,76.31z"/>
		<path fill="#97FF00" d="M52.05,35.91l7.9-13.68c1.7-2.94-0.42-6.62-3.82-6.62h-0.25c-5.15,8.93-6.44,11.16-11.6,20.09l0.13,0.22
			C46.1,38.85,50.35,38.85,52.05,35.91z"/>
		<path fill="#97FF00" d="M40.58,69.47h-15.8c-3.4,0-5.52,3.68-3.82,6.62c0.04,0.07,0.08,0.15,0.13,0.22c10.31,0,12.89,0,23.2,0
			c0.04-0.07,0.08-0.15,0.13-0.22C46.1,73.15,43.98,69.47,40.58,69.47z"/>
		<path fill="#97FF00" d="M36.63,49.38l-7.9-13.68c-1.7-2.94-5.95-2.94-7.65,0l-0.13,0.22c5.15,8.93,6.44,11.16,11.6,20.09h0.25
			C36.2,56,38.33,52.32,36.63,49.38z"/>
	</g>
</g>
</svg>
