<svg fill="none" width="64" height="64" xmlns="http://www.w3.org/2000/svg">
    <path fill="#010717" d="M0 0h64v64H0z"/>
    <path class="st0" d="M51.608 17.282c-2.741-2.741-6.793-4.171-11.798-4.171-3.337 0-5.84.953-7.389 2.86-1.668 1.907-2.026 4.529-2.026 6.197l-.119 5.005 2.86.12.12-5.006c0-1.31.476-2.621 1.191-3.456.596-.953 1.669-1.549 2.86-1.549h.12c1.31 0 2.383.358 3.098.953.715.596 1.192 1.55 1.073 2.86 0 1.192-.477 2.384-1.43 3.337-.954.835-2.026 1.311-3.337 1.311H34.09v1.788h2.86c3.456 0 6.435-2.86 6.435-6.316 0-.835-.119-1.669-.476-2.503l-.12-.358.239.239a5.279 5.279 0 011.31 3.933c-.119 3.337-2.74 5.958-6.077 5.958h-.12l-5.124-.119h-2.86l-7.866-.119h-.238c-2.741 0-5.363 1.073-7.389 2.98-2.026 2.025-3.217 4.647-3.217 7.507 0 1.669.357 3.218.953 4.648h-.12c-1.31-1.787-1.906-3.933-1.906-6.197 0-2.74 1.192-5.244 3.098-7.27 2.026-1.906 4.529-2.979 7.27-2.86l8.342.12v-1.788l-8.342-.12h-.238a12.123 12.123 0 00-8.342 3.337 12.545 12.545 0 00-3.695 8.462c-.119 3.933 1.192 7.508 3.575 9.891 2.503 2.622 6.197 3.933 11.083 3.933 3.218 0 5.72-.953 7.39-2.98 1.31-1.549 2.025-3.813 2.144-6.196l.12-5.006-2.86-.119.119 5.125c0 1.31-.477 2.621-1.192 3.456-.834.953-1.907 1.55-3.099 1.55-1.31 0-2.383-.358-3.098-.954-.715-.596-1.192-1.55-1.073-2.86 0-2.622 2.145-4.648 4.648-4.648h2.86v-1.788h-2.86c-3.456 0-6.435 2.86-6.435 6.316 0 .835.119 1.669.476 2.503l.12.358-.239-.239a5.279 5.279 0 01-1.31-3.933c.118-3.336 2.74-5.958 6.077-5.958h.12l5.124.119 2.86.12 7.865.118h.239c5.72 0 10.487-4.648 10.607-10.487 0-1.668-.358-3.217-.954-4.648h.12c1.31 1.788 1.906 3.933 1.906 6.198 0 2.74-1.191 5.243-3.098 7.27-2.026 1.906-4.529 2.979-7.27 2.86l-8.342-.12v1.788l8.342.12h.239c3.098 0 6.316-1.193 8.818-3.338 2.622-2.264 4.052-5.244 4.052-8.461-.238-3.933-1.549-7.27-3.932-9.773zm-1.668 7.985c-.12 4.886-4.052 8.819-8.938 8.819h-.12l-7.865-.12-2.86-.119-5.125-.119h-.12c-2.025 0-3.932.834-5.481 2.264-1.55 1.43-2.384 3.456-2.384 5.482 0 1.073.239 2.265.596 3.218l.12.358-.239-.358a7.523 7.523 0 01-1.55-4.648c.12-4.052 3.457-7.389 7.509-7.389h.119l5.482.12v-1.788h-5.602c-5.004 0-9.176 4.052-9.176 9.057 0 1.43.239 2.741.835 3.933l.238.477-.477-.358c-1.192-1.549-1.787-3.456-1.668-5.363.119-4.886 4.052-8.7 8.819-8.7h.119l7.985.12 2.86.119 5.124.12h.12c2.025 0 3.932-.835 5.481-2.265 1.55-1.43 2.384-3.456 2.384-5.482a9.632 9.632 0 00-.596-3.218l-.12-.357.24.357c1.072 1.311 1.549 2.98 1.549 4.648 0 2.026-.835 3.814-2.265 5.244-1.43 1.31-3.217 2.145-5.124 2.145h-.12l-5.481-.12v1.788l5.482.12h.119c2.383 0 4.648-.954 6.435-2.622 1.788-1.669 2.741-4.052 2.86-6.555 0-1.43-.238-2.74-.834-3.933l-.238-.476.238.357c1.073 1.43 1.669 3.337 1.669 5.244z" fill="#18ae81"/>
</svg>
