<svg width="64" height="64" viewBox="0 0 250 250" xmlns="http://www.w3.org/2000/svg">
    <path fill="#ff4d6a" d="M0 0h250v250H0z"/>
    <path d="M133.3 185.15a4 4 0 00-1.52-1 4.07 4.07 0 00-1.83-.25c-1.58 0-3.19.2-4.81.2a59.26 59.26 0 1156.15-40.79 4.06 4.06 0 000 2.91L194.71 175a2 2 0 00.67.8 2 2 0 002 .19 2.17 2.17 0 00.81-.66 88.94 88.94 0 10-46.69 34.44 1.91 1.91 0 00.84-.53 2 2 0 00.49-.87 2 2 0 00-.45-1.88z" fill="#fff"/>
    <path d="M161 135.15L148.54 151a3.55 3.55 0 01-1.86 1.22l-19.52 5h-.49a1 1 0 010-.24.53.53 0 010-.25l6.27-23.73a2.62 2.62 0 01.45-1 2.69 2.69 0 01.8-.74 2.84 2.84 0 012.06-.45l24.46 3.56h.29a.34.34 0 010 .2.49.49 0 010 .24.37.37 0 01.08.15.28.28 0 010 .18zm-32.34 28.54l21.86-5.69a3.36 3.36 0 001.86-1.22l13.91-17.62h.48l25.87 55.62a4.21 4.21 0 01.33 2.1 4.11 4.11 0 01-.81 2l-6.31 8.85a3.14 3.14 0 01-1.57 1.05l-10.76 2.87a3.82 3.82 0 01-4-1.17l-41.19-46v-.2a.24.24 0 010-.12.27.27 0 010-.12.19.19 0 010-.1.17.17 0 010-.1z" fill="#fff"/>
</svg>
