<svg viewBox="0 0 64 64" xmlns="http://www.w3.org/2000/svg">
    <path fill="#ff4d6a" fill-rule="evenodd" d="M64 32C64 14.327 49.673 0 32 0 14.327 0 0 14.327 0 32c0 17.673 14.327 32 32 32 17.673 0 32-14.327 32-32Z"/>
    <path fill="#fff" d="M34.125 47.398a1.024 1.024 0 0 0-.39-.256 1.042 1.042 0 0 0-.468-.064c-.404 0-.816.052-1.231.052A15.17 15.17 0 1 1 46.41 36.687a1.04 1.04 0 0 0 0 .745l3.436 7.368a.512.512 0 0 0 .171.205c.15.107.345.125.512.048a.556.556 0 0 0 .208-.169c6.307-9.16 5.074-21.536-2.917-29.272-7.991-7.735-20.402-8.565-29.352-1.963-8.95 6.602-11.821 18.704-6.79 28.622 5.031 9.92 16.492 14.752 27.106 11.43a.512.512 0 0 0 .34-.358.512.512 0 0 0-.115-.482Z"/>
    <path fill="#fff" d="m41.216 34.598-3.19 4.058a.909.909 0 0 1-.476.312l-4.997 1.28h-.125a.256.256 0 0 1 0-.061.136.136 0 0 1 0-.064l1.605-6.075a.689.689 0 0 1 .32-.445.727.727 0 0 1 .527-.116l6.262.912h.074a.087.087 0 0 1 0 .05.125.125 0 0 1 0 .062c.01.011.017.025.02.039a.072.072 0 0 1 0 .046Zm-8.279 7.307 5.596-1.457a.86.86 0 0 0 .476-.312l3.561-4.511h.123l6.623 14.239c.074.169.103.354.084.537a1.052 1.052 0 0 1-.207.512l-1.615 2.266a.804.804 0 0 1-.402.269l-2.755.734a.978.978 0 0 1-1.024-.3L32.852 42.108v-.051a.061.061 0 0 1 0-.031.069.069 0 0 1 0-.03.049.049 0 0 1 0-.026.044.044 0 0 1 0-.026Z"/>
</svg>
