<svg viewBox="0 0 64 64" xmlns="http://www.w3.org/2000/svg">
    <path fill="#fff" fill-rule="evenodd" d="M64 32C64 14.327 49.673 0 32 0 14.327 0 0 14.327 0 32c0 17.673 14.327 32 32 32 17.673 0 32-14.327 32-32Z"/>
    <path fill="#e8662d" d="M64 30.316c-.123-1.996-.37-4.117-.861-5.989-.493-1.996-1.108-3.867-1.97-5.738-.861-1.872-1.846-3.493-2.954-5.115-1.107-1.622-2.461-3.12-3.938-4.492-1.354-1.372-2.954-2.62-4.554-3.617-1.723-1.123-3.446-2.121-5.17-2.87-1.722-.748-3.568-1.372-5.415-1.746A42.151 42.151 0 0 0 33.6 0H32c-1.477 0-3.077.125-4.554.374-1.723.25-3.323.624-4.923 1.123-1.723.5-3.446 1.248-5.17 2.12-1.968.874-3.815 2.122-5.538 3.619-1.107.873-2.215 1.871-3.2 2.994-1.23 1.372-2.461 2.87-3.446 4.491-.984 1.622-1.846 3.244-2.584 4.99-.739 1.747-1.354 3.494-1.723 5.365-.493 1.747-.739 3.618-.862 5.49v1.496c0 1.373.123 2.745.246 4.117.246 1.872.616 3.618 1.23 5.365.493 1.747 1.232 3.493 2.093 5.115.862 1.622 1.723 3.119 2.831 4.491.985 1.497 2.215 2.745 3.446 3.992 1.23 1.248 2.585 2.246 4.062 3.244 1.477.998 2.954 1.871 4.554 2.62 1.476.748 3.076 1.372 4.8 1.746 1.6.5 3.323.749 5.046.998 1.23.125 2.461.25 3.815.25h1.354c1.723-.125 3.446-.25 5.17-.624a33.73 33.73 0 0 0 5.045-1.497c1.723-.624 3.323-1.372 4.8-2.37 1.6-.998 3.077-1.996 4.431-3.244a29.98 29.98 0 0 0 3.938-3.992c1.231-1.497 2.339-3.119 3.2-4.74.985-1.747 1.724-3.494 2.339-5.365.615-1.872 1.108-3.868 1.354-5.864.246-1.372.246-2.87.246-4.366v-1.622ZM28.308 62.253c.369-3.867.615-6.612.738-8.733 1.108.125 2.216.25 3.446.25.123 1.372.246 2.745.37 3.743.123 1.372.246 2.994.369 4.865h-1.108c-1.354.125-2.584 0-3.815-.125ZM4.923 45.91c1.23-.623 2.585-1.247 3.815-1.871 1.477-.748 3.077-1.497 4.554-2.246.493.998 1.108 1.997 1.723 2.994-.615.5-1.23.874-1.476 1.123-2.216 1.622-3.078 2.246-5.908 4.367-.985-1.373-1.97-2.745-2.708-4.367ZM1.6 30.565c.123-1.746.37-3.493.738-5.115 1.97.5 3.693.998 4.431 1.248.862.25 2.831.748 4.431 1.247.123 0 .246 0 .246.125a15.992 15.992 0 0 0-.37 3.493c-2.83-.25-6.4-.623-9.107-.873h-.246c-.123 0-.123-.125-.123-.125ZM12.923 8.36c1.97 1.996 3.815 4.366 5.785 7.11a12.942 12.942 0 0 0-2.585 2.62c-1.108-1.122-2.338-2.37-3.446-3.617-.985-.998-1.97-2.121-2.954-3.12.985-1.122 1.97-2.12 3.2-2.993ZM32 1.497h1.354c-.123 1.248-.246 2.37-.246 3.369-.123 1.746-.37 3.617-.493 5.489h-.246c-1.23 0-2.461.124-3.692.374-.37-3.119-.739-5.988-1.108-8.858A26.556 26.556 0 0 1 32 1.497Zm16 36.678c-.37.998-.862 1.997-1.477 2.87-.492.873-1.23 1.746-1.846 2.495-.739.749-1.477 1.372-2.215 1.996-.739.624-1.6 1.123-2.462 1.622-.862.374-1.723.873-2.585 1.123-.861.25-1.723.499-2.707.623-.739.125-1.477.125-2.339.125H32c-.862 0-1.723-.125-2.585-.25-.861-.124-1.723-.374-2.461-.623-.862-.25-1.6-.624-2.339-.998-.738-.374-1.477-.873-2.215-1.372-.615-.5-1.354-.998-1.846-1.622-.616-.624-1.108-1.248-1.723-1.996-.493-.749-.985-1.497-1.354-2.246-.37-.748-.739-1.622-.985-2.495s-.492-1.747-.615-2.62-.246-1.747-.246-2.62v-.125c0-.873.123-1.87.246-2.744.123-.998.37-1.872.738-2.745l1.108-2.62c.492-.873.985-1.622 1.6-2.37.615-.749 1.23-1.372 1.97-2.121.738-.624 1.476-1.248 2.338-1.747.861-.499 1.723-.998 2.584-1.372a24.544 24.544 0 0 1 2.831-.873c.985-.25 1.97-.25 3.077-.25h.246c.985 0 1.97.125 2.954.25.985.124 2.092.499 2.954.873.985.374 1.97.873 2.83 1.497.862.624 1.724 1.248 2.585 1.996.862.749 1.6 1.622 2.216 2.495.615.874 1.23 1.872 1.6 2.87.492.998.861 2.12 1.107 3.244.246 1.122.37 2.245.37 3.368v.374c0 .998-.123 1.996-.247 2.994 0 .998-.246 1.996-.738 2.994Zm1.846-18.713c1.354-.998 2.831-1.996 3.939-2.87.492-.374 1.477-.998 2.215-1.621.123-.125.492-.374.738-.5a24.786 24.786 0 0 1 2.831 4.991c-2.092.998-4.677 2.246-7.754 3.743-.492-1.373-1.107-2.62-1.969-3.743Zm-2.708-3.244c-.984-.998-2.092-1.746-3.2-2.495 1.723-2.62 3.447-5.24 4.8-7.11 1.6.997 3.077 2.245 4.308 3.492-1.846 1.996-3.815 3.992-5.908 6.113Zm-5.415-7.36c-.123.25-.615 1.372-1.354 3.119a19.295 19.295 0 0 0-3.815-1.123c.246-.873.369-1.373.369-1.497.246-.749.616-2.62.985-3.992.123-.624.492-1.622.738-2.995 1.723.375 3.446.998 5.17 1.622-1.108 2.62-1.97 4.616-2.093 4.866ZM23.262 4.366c.369 1.248.984 4.117 1.6 6.363.123.25.123.624.246.998-1.231.374-2.339.998-3.446 1.622-.616-1.497-1.231-2.62-1.354-3.119-.246-.749-1.231-2.745-2.339-5.24 1.6-.748 3.2-1.497 4.923-1.996.123.5.246.998.37 1.372Zm-9.354 16.718c-.616.998-1.108 2.12-1.6 3.368-1.723-.873-3.693-1.871-5.908-2.87-.862-.373-1.723-.872-2.585-1.247.739-1.622 1.477-3.243 2.462-4.74 2.338 1.621 5.046 3.617 7.63 5.489ZM3.446 35.93c1.97-.125 5.046-.5 7.754-.749.123 1.123.37 2.37.738 3.493-.123 0-.369.125-.492.125-2.584.749-6.03 1.622-8.492 2.37a34.249 34.249 0 0 1-1.108-5.114c.492-.125.985-.125 1.6-.125Zm13.785 11.602c.738.749 1.6 1.497 2.584 2.121-1.846 2.745-3.446 5.115-3.938 5.864-.37.499-.739 1.122-1.108 1.621-1.354-.873-2.584-1.996-3.815-3.118 2.092-2.121 4.308-4.367 6.277-6.488Zm5.415 3.992c.985.5 1.97.998 3.077 1.373-.246.748-.861 3.243-1.477 5.489l-.738 2.994c-1.6-.499-3.077-.998-4.554-1.746 1.108-2.37 2.338-5.115 3.692-8.11Zm15.015 8.858c-.246-1.123-.861-3.119-1.23-4.616-.123-.499-.37-1.247-.616-2.245 1.231-.25 2.339-.5 3.447-.874.615 1.248 1.107 2.37 1.23 2.87.123.374.985 2.245 2.216 4.99-1.6.624-3.2 1.123-4.8 1.372 0-.499-.123-.998-.247-1.497Zm8.493-3.992c-.615-.873-1.97-2.994-3.446-5.115 1.107-.624 2.092-1.372 3.077-2.12.984.997 2.092 2.12 3.077 3.243.984.998 1.846 1.996 2.83 2.87-1.354 1.122-2.707 2.12-4.307 2.993-.37-.624-.862-1.247-1.231-1.871Zm7.63-6.113c-1.6-1.123-3.815-2.87-5.169-3.868.862-.998 1.6-2.12 2.339-3.243.615.25.984.499 1.108.499.369.25 2.338 1.123 4.184 1.996.739.374 1.6.748 2.339 1.123-.862 1.621-1.97 3.119-3.077 4.49-.616-.249-1.108-.623-1.723-.997Zm.74-10.23c-.616-.125-1.232-.374-1.847-.5.492-1.247.738-2.62.985-3.991 2.461.25 4.676.374 6.153.499.862.124 1.6.124 2.339.25-.246 1.87-.739 3.742-1.354 5.488-1.97-.623-4.677-1.372-6.277-1.746Zm6.03-9.357c-2.093.125-4.8.374-6.646.624 0-1.497-.247-2.87-.616-4.242 2.093-.624 3.939-1.123 8.123-2.245h.123c.493 1.87.739 3.742.862 5.738-.615 0-1.23 0-1.846.125Z"/>
    <path fill="#e8662d" d="M29.662 35.806c-.123-.125-.246-.25-.37-.25l-.245-.25-.37-.374c-.123-.125-.123-.25-.246-.374 0-.125-.123-.125-.123-.25 0 0 0-.124-.123-.124 0-.125-.123-.25-.123-.5 0-.124-.123-.374-.123-.498v-.874h-9.477v2.495l.37 2.246c.245.748.491 1.372.738 2.12.369.75.738 1.373 1.107 1.872.37.374.616.873 1.108 1.248.123.124.246.25.492.374.37.374.862.749 1.354 1.123.123.125.246.125.37.25.369.249.86.623.984.623 0 0 .123-.25.37-.499.122-.25.86-1.372 1.476-2.37s1.6-2.495 2.216-3.494c0 0 0-.124.123-.124l1.107-1.747h-.123c-.369-.499-.492-.499-.492-.623Z"/>
    <path fill="#e8662d" d="M26.83 21.833c.247.374.739 1.372 1.723 3.244.247.499.493.998.862 1.497.37.748.738 1.247.738 1.372h.37c.246-.125.492-.125.738-.25.246 0 .492-.124.739-.124h1.353c.37 0 .616.125.985.25h.246s.123-.25.37-.625c0-.124.123-.25.246-.499.492-.998 1.6-2.869 2.092-3.618a16.4 16.4 0 0 1 .738-1.247c.247-.374.616-1.123.862-1.497.246-.5.492-.873.492-.873v-.125l-.492-.25-1.477-.748c-.862-.375-1.723-.624-2.585-.874-.369-.124-.738-.124-1.107-.124H31.26l-1.846.374c-.862.25-1.6.499-2.461.873-.493.25-1.231.624-1.354.749 0 0 .246.499.861 1.497.123.374.246.624.37.998Z"/>
    <path fill="#e8662d" d="M35.2 33.559c.123-.25.123-.499.246-.624.123-.25.123-.624.123-.873v-.125c0-.25 0-.499-.123-.748 0-.125-.123-.375-.123-.5-.123-.124-.123-.249-.246-.374-.123-.124-.246-.374-.37-.499l-.246-.25c-.246-.249-.492-.374-.738-.498-.246-.125-.616-.25-.862-.25H32c-.246 0-.616.125-.862.25l-.738.374c-.123.125-.37.25-.493.374l-.123.125c-.123.125-.246.374-.369.624s-.246.374-.246.624c0 .124-.123.25-.123.499v.998c0 .125 0 .25.123.499v.249c0 .125.123.125.123.25 0 .124.123.124.123.25 0 .124.123.124.123.249 0 0 0 .124.123.124l.246.25.123.125.247.25c.123.124.123.124.246.124s.123.125.246.125.246.125.37.125c.122 0 .245.124.369.124.123 0 .369 0 .492.125h.492c.246 0 .37 0 .615-.125.247-.124.493-.124.616-.25.246-.124.492-.249.738-.498.247-.25.37-.375.493-.624.246-.374.246-.374.246-.499Z"/>
    <path fill="#e8662d" d="M46.277 32.187h-9.354v.125c0 .25-.123.374-.123.624-.123.374-.123.748-.369 1.122 0 .125-.123.125-.123.25-.123.25-.246.499-.37.623-.245.375-.369.624-.615.75-.123.124-.246.124-.246.249-.123.124-.246.124-.246.25 0 0 .123.124.246.373.492.749 1.354 2.246 2.339 3.743.984 1.622 1.969 3.119 2.092 3.369 0 .124.123.249.37.499.122.249.245.374.245.374s.493-.25.862-.5c.123 0 .123-.124.246-.124.739-.499 1.23-.998 1.846-1.497.616-.624 1.108-1.248 1.6-1.871 0-.125.123-.125.123-.25.493-.748.862-1.622 1.231-2.495.246-.873.492-1.747.616-2.62v-.125c0-.624.123-1.871 0-2.37l-.37-.5Z"/>
</svg>
