<svg width="32" height="32" viewBox="0 0 32 32" fill="none" xmlns="http://www.w3.org/2000/svg">
  <path
    d="M15.9998 31.9999C7.17729 31.9999 0 24.8226 0 16C0 7.17745 7.17729 0.000152588 15.9998 0.000152588C24.8224 0.000152588 31.9997 7.17745 31.9997 16C31.9997 24.8226 24.8224 31.9999 15.9998 31.9999ZM15.9998 2.26733C8.42703 2.26733 2.26717 8.42778 2.26717 16C2.26717 23.5728 8.42736 29.7333 15.9998 29.7333C23.5723 29.7333 29.7325 23.5729 29.7325 16C29.7325 8.42712 23.5723 2.26733 15.9998 2.26733Z"
    fill="#fff" fill-opacity="0.3" />
  <path fill-rule="evenodd" clip-rule="evenodd"
    d="M15.9941 28.0001C22.6215 28.0001 27.994 22.6275 27.994 16.0002C27.994 9.37281 22.6215 4.00027 15.9941 4.00027C9.36679 4.00027 3.99426 9.37281 3.99426 16.0002C3.99426 22.6275 9.36679 28.0001 15.9941 28.0001ZM7.27922 16.0001C7.27922 13.4708 13.4774 7.24204 15.9941 7.24204C18.5108 7.24204 24.7091 13.4709 24.7091 16.0001C24.7091 18.5293 18.5108 24.7583 15.9941 24.7583C13.4774 24.7583 7.27922 18.5294 7.27922 16.0001ZM11.0107 14.6353C10.7215 15.7018 13.5748 20.7177 14.636 21.0083C15.6973 21.2989 20.6883 18.4315 20.9776 17.365C21.2668 16.2984 18.4135 11.2827 17.3522 10.992C16.291 10.7014 11.3 13.5687 11.0107 14.6353Z"
    fill="#fff" fill-opacity="0.3" />
</svg>