<svg viewBox="0 0 24 24" fill="none" xmlns="http://www.w3.org/2000/svg">
<path d="M0 12C0 5.3726 5.3726 0 12 0C18.6274 0 24 5.3726 24 12C24 18.6274 18.6274 24 12 24C5.3726 24 0 18.6274 0 12Z" fill="white"/>
<path d="M12.0189 4.79999L11.9224 5.12805V14.6475L12.0189 14.7438L16.4377 12.1319L12.0189 4.79999Z" fill="#343434"/>
<path d="M12.0189 4.79999L7.6001 12.1319L12.0189 14.7439V10.1234V4.79999Z" fill="#8C8C8C"/>
<path d="M12.0188 15.5806L11.9644 15.6469V19.0379L12.0188 19.1968L16.4402 12.9699L12.0188 15.5806Z" fill="#3C3C3B"/>
<path d="M12.0189 19.1967V15.5805L7.6001 12.9698L12.0189 19.1967Z" fill="#8C8C8C"/>
<path d="M12.0188 14.7439L16.4375 12.132L12.0188 10.1235V14.7439Z" fill="#141414"/>
<path d="M7.6001 12.132L12.0188 14.7439V10.1235L7.6001 12.132Z" fill="#393939"/>
</svg>