<svg viewBox="0 0 32 32" xmlns="http://www.w3.org/2000/svg">
    <path fill-rule="evenodd" d="M32 16c0-8.837-7.163-16-16-16S0 7.163 0 16s7.163 16 16 16 16-7.163 16-16Z"/>
    <path fill="#b16eff" d="M5 11.844V8.719C5 7.769 5.953 7 7.13 7H11c1.176 0 2.13.77 2.13 1.719l.595 3.683c.793.64 2.08.64 2.874 0l6.068-4.899L25.227 7c1.175 0 2.128.77 2.128 1.719l-.623 2.065-6.069 4.9c-.793.64-.793 1.679 0 2.32l4.563.48c1.176 0 2.13.77 2.13 1.718v3.125c0 .95-.954 1.719-2.13 1.719h-3.87c-1.176 0-2.13-.77-2.13-1.719l-.595-3.683c-.794-.64-2.08-.64-2.874 0l-6.069 4.899-2.559.503c-1.176 0-2.129-.77-2.129-1.719l.624-2.065 6.068-4.9c.794-.64.794-1.679 0-2.32l-4.563-.48c-1.176 0-2.129-.77-2.129-1.718Z"/>
</svg>
