<?xml version="1.0" encoding="UTF-8"?>
<svg id="Layer_2" data-name="Layer 2" xmlns="http://www.w3.org/2000/svg" viewBox="0 0 174.8 174.8">
  <defs>
    <style>
      .cls-1 {
        fill: #fff;
      }

      .cls-2 {
        fill: #4740fb;
      }
    </style>
  </defs>
  <g id="Layer_1-2" data-name="Layer 1">
    <g>
      <circle class="cls-2" cx="87.4" cy="87.4" r="87.4"/>
      <path class="cls-1" d="M48.98,133.53c-5.26,0-10.05-1.03-14.36-3.08-4.31-2.05-7.73-5.21-10.26-9.47-2.52-4.26-3.79-9.7-3.79-16.33v-53.49h18.15v56.33c0,2.11.47,3.97,1.42,5.6.95,1.63,2.18,2.87,3.71,3.71,1.52.84,3.23,1.26,5.13,1.26,1.79,0,3.47-.42,5.05-1.26,1.58-.84,2.84-2.08,3.79-3.71.95-1.63,1.42-3.5,1.42-5.6v-29.67c0-6.21,1.18-11.44,3.55-15.7,2.37-4.26,5.68-7.47,9.94-9.63,4.26-2.16,9.13-3.23,14.6-3.23s10.47,1.08,14.67,3.23c4.21,2.16,7.52,5.36,9.94,9.63,2.42,4.26,3.63,9.5,3.63,15.7v29.67c0,2.11.47,3.97,1.42,5.6.95,1.63,2.21,2.87,3.79,3.71,1.58.84,3.31,1.26,5.21,1.26,1.79,0,3.44-.42,4.97-1.26,1.52-.84,2.76-2.08,3.71-3.71.95-1.63,1.42-3.5,1.42-5.6v-56.33h18.15v53.49c0,6.63-1.26,12.07-3.79,16.33-2.52,4.26-5.95,7.42-10.26,9.47-4.31,2.05-9.05,3.08-14.2,3.08s-9.89-1.03-14.2-3.08c-4.31-2.05-7.79-5.21-10.41-9.47-2.63-4.26-3.94-9.7-3.94-16.33v-29.35c0-2.31-.45-4.23-1.34-5.76-.9-1.52-2.1-2.71-3.63-3.55-1.53-.84-3.23-1.26-5.13-1.26-1.68,0-3.31.42-4.89,1.26-1.58.84-2.84,2.03-3.79,3.55-.95,1.53-1.42,3.45-1.42,5.76v29.35c0,6.63-1.29,12.07-3.86,16.33-2.58,4.26-6,7.42-10.26,9.47-4.26,2.05-8.97,3.08-14.12,3.08Z"/>
    </g>
  </g>
</svg>