<svg viewBox="0 0 309 309" xmlns="http://www.w3.org/2000/svg">
    <linearGradient id="a" x1=".184" y1="162.047" x2="308.816" y2="146.953" gradientUnits="userSpaceOnUse">
        <stop offset="0" stop-color="#fabc5d"/>
        <stop offset=".254" stop-color="#ea5708"/>
        <stop offset=".684" stop-color="#3c5e87"/>
        <stop offset="1" stop-color="#173446"/>
    </linearGradient>
    <path fill="url(#a)" fill-rule="evenodd" d="M309 154.5C309 69.172 239.828 0 154.5 0S0 69.172 0 154.5 69.172 309 154.5 309 309 239.828 309 154.5Z"/>
    <path d="m180.26 184.08.03-.02s-.03.02-.05.03h.03Z"/>
    <path d="M180.24 184.09c-46.81 14.06-85.52 34.57-109.77 58.59l-1.07 1.07c6.45 6.1 13.52 11.56 21.16 16.2l1.64-2.01c6.62-8.09 13.72-15.9 21.11-23.26 19.83-19.76 42.51-36.86 66.93-50.59Z"/>
    <path d="M185.65 163.25H31.12a123.044 123.044 0 0 0 25.79 66.76l.67-.67c15.01-14.81 34.55-28.27 58.12-40 20.66-10.29 44.38-19.12 69.95-26.09Z"/>
    <path d="M126.41 60.21c41.89 41.74 94.61 69.34 152.44 79.81-6.97-61.88-59.64-110.01-123.64-110.01-16.9 0-33.01 3.37-47.72 9.45 5.97 7.19 12.35 14.19 18.92 20.76Z"/>
    <path d="M70.47 65.32c24.25 24.06 62.98 44.54 109.8 58.63-24.44-13.76-47.14-30.85-66.98-50.62a313.231 313.231 0 0 1-21.11-23.26l-1.64-2.01a124.61 124.61 0 0 0-21.13 16.19l1.07 1.07h-.01Z"/>
    <path d="M126.41 247.79c-6.6 6.57-12.97 13.57-18.92 20.76 14.69 6.08 30.82 9.45 47.72 9.45 64 0 116.67-48.14 123.66-110.04-57.82 10.47-110.54 38.07-152.44 79.81l-.02.02Z"/>
    <path d="M115.67 118.63v.02c-23.55-11.73-43.08-25.2-58.09-39.99l-.67-.67a123.044 123.044 0 0 0-25.79 66.76h154.5c-25.56-6.97-49.26-15.8-69.95-26.12Z"/>
</svg>
