<?xml version="1.0" encoding="utf-8"?>
<!-- Generator: Adobe Illustrator 24.3.0, SVG Export Plug-In . SVG Version: 6.00 Build 0)  -->
<svg version="1.1" id="Layer_1" xmlns="http://www.w3.org/2000/svg" xmlns:xlink="http://www.w3.org/1999/xlink" x="0px" y="0px"
	 viewBox="0 0 1000 1000" style="enable-background:new 0 0 1000 1000;" xml:space="preserve">
<style type="text/css">
	.st0{fill:#333333;}
	.st1{fill:url(#SVGID_1_);}
	.st2{fill:url(#SVGID_2_);}
	.st3{fill:url(#SVGID_3_);}
	.st4{fill:#0B828C;}
	.st5{fill:url(#SVGID_4_);}
	.st6{fill:url(#SVGID_5_);}
	.st7{fill:url(#SVGID_6_);}
</style>
<rect class="st0" width="1000" height="1000"/>
<g>
	<linearGradient id="SVGID_1_" gradientUnits="userSpaceOnUse" x1="543.3881" y1="333.2762" x2="303.9042" y2="333.2762">
		<stop  offset="0" style="stop-color:#0B828C"/>
		<stop  offset="1" style="stop-color:#00EB81"/>
	</linearGradient>
	<polygon class="st1" points="500.2,422.7 220.2,321.6 220.2,243.8 500.2,344.9 	"/>
	<linearGradient id="SVGID_2_" gradientUnits="userSpaceOnUse" x1="543.3881" y1="487.4335" x2="303.9042" y2="487.4335">
		<stop  offset="0" style="stop-color:#0B828C"/>
		<stop  offset="1" style="stop-color:#00EB81"/>
	</linearGradient>
	<polygon class="st2" points="499.2,576.9 219.2,475.8 219.2,398 499.2,499.1 	"/>
	<linearGradient id="SVGID_3_" gradientUnits="userSpaceOnUse" x1="543.3881" y1="643.5868" x2="303.9042" y2="643.5868">
		<stop  offset="0" style="stop-color:#0B828C"/>
		<stop  offset="1" style="stop-color:#00EB81"/>
	</linearGradient>
	<polygon class="st3" points="499.2,733 219.2,631.9 219.2,554.1 499.2,655.3 	"/>
	<polygon class="st4" points="778.7,756.1 780.8,368.2 500.8,267 500.8,344.8 704.3,418.3 704.1,651.4 498.7,577.3 498.7,655.1 
		778.7,756.2 778.7,756.2 778.7,756.2 778.7,756.2 	"/>
</g>
</svg>
