<?xml version="1.0" encoding="utf-8"?>
<!-- Generator: Adobe Illustrator 24.3.0, SVG Export Plug-In . SVG Version: 6.00 Build 0)  -->
<svg version="1.0" id="Layer_1" xmlns="http://www.w3.org/2000/svg" xmlns:xlink="http://www.w3.org/1999/xlink" x="0px" y="0px"
	 viewBox="0 0 1570.83 1224" style="enable-background:new 0 0 1570.83 1224;" xml:space="preserve">
<style type="text/css">
	.st0{fill:#E57310;}
	.st1{fill:#2D364D;}
</style>
<g>
	<g>
		<path class="st0" d="M785.37,123c2,0,3.9,0.5,5.7,1.5l302.2,174.5c3.5,2,5.7,5.8,5.7,9.8v348.9c0,4-2.2,7.8-5.7,9.8L791.07,842
			c-1.7,1-3.7,1.5-5.7,1.5s-3.9-0.5-5.7-1.5l-302.1-174.4c-3.5-2-5.7-5.8-5.7-9.8v-349c0-4,2.2-7.8,5.7-9.8l302.2-174.5
			C781.47,123.5,783.47,123,785.37,123 M785.37,72c-10.8,0-21.5,2.8-31.2,8.3l-302.1,174.5c-19.3,11.1-31.2,31.7-31.2,54v348.9
			c0,22.3,11.9,42.8,31.2,54l302.2,174.5c9.6,5.6,20.4,8.3,31.2,8.3c10.8,0,21.5-2.8,31.2-8.3l302.2-174.5
			c19.3-11.1,31.2-31.7,31.2-54V308.8c0-22.3-11.9-42.8-31.2-54L816.57,80.4C806.97,74.8,796.17,72,785.37,72L785.37,72z"/>
		<g>
			<path class="st0" d="M708.37,304.5h-39.5c-3,0-5.6,1.9-6.6,4.6l-127,348.1c-0.8,2.3,0.9,4.7,3.3,4.7h39.5c3,0,5.6-1.9,6.6-4.6
				l127-348.1C712.47,307,710.77,304.5,708.37,304.5z"/>
			<path class="st0" d="M759.47,439.5c-1.1-3.1-5.5-3.1-6.6,0l-20.5,56.3c-0.6,1.6-0.6,3.3,0,4.8l57.2,156.8c1,2.8,3.7,4.6,6.6,4.6
				h39.5c2.4,0,4.1-2.4,3.3-4.7L759.47,439.5z"/>
			<path class="st0" d="M777.37,304.5h-39.5c-3,0-5.6,1.9-6.6,4.6l-127,348.1c-0.8,2.3,0.9,4.7,3.3,4.7h39.5c3,0,5.6-1.9,6.6-4.6
				l127-348.1C781.57,307,779.87,304.5,777.37,304.5z"/>
			<path class="st0" d="M793.97,344.9c-1.1-3.1-5.5-3.1-6.6,0l-20.5,56.3c-0.6,1.6-0.6,3.3,0,4.8l91.7,251.4c1,2.8,3.7,4.6,6.6,4.6
				h39.5c2.4,0,4.1-2.4,3.3-4.7L793.97,344.9z"/>
			<path class="st0" d="M1032.17,304.5h-39.5c-3,0-5.6,1.9-6.6,4.6l-91.7,251.4c-0.6,1.6-0.6,3.3,0,4.8l20.5,56.3
				c1.1,3.1,5.5,3.1,6.6,0l114-312.4C1036.37,307,1034.67,304.5,1032.17,304.5z"/>
			<path class="st0" d="M880.47,527c1.1,3.1,5.5,3.1,6.6,0l79.4-217.8c0.8-2.3-0.9-4.7-3.3-4.7h-39.5c-3,0-5.6,1.9-6.6,4.6
				l-57.2,156.8c-0.6,1.6-0.6,3.3,0,4.8L880.47,527z"/>
		</g>
	</g>
	<g>
		<path class="st1" d="M340.37,976.9c3.4,0,6.2,0.7,8.5,2.1c2.3,1.4,4.6,4,6.8,8l43.9,79.7c0.4,0.9,0.6,1.6,0.3,2.2
			c-0.2,0.6-0.9,0.9-1.9,0.9h-16.8c-1.5,0-2.5-0.6-3.1-1.7l-9.4-17.1h-62.4l-9.1,17c-0.6,1.2-1.6,1.7-3,1.7h-17.3
			c-1.2,0-1.8-0.3-2.1-0.9c-0.2-0.6-0.1-1.3,0.3-2.2l43.5-79.6c2.2-4,4.4-6.7,6.5-8c2.1-1.4,4.6-2.1,7.4-2.1H340.37z M314.67,1035.5
			h45.6l-21.1-38.9c-0.4-0.6-0.8-0.9-1.5-0.9h-0.8c-0.6,0-1.1,0.3-1.5,0.9L314.67,1035.5z"/>
		<path class="st1" d="M496.07,976.9c10.2,0,17.5,2.3,21.9,6.9c4.4,4.6,6.6,11.4,6.6,20.4v7.6c0,7.6-1.5,13.6-4.6,18
			c-3.1,4.4-8.1,7.3-15.1,8.5l22.7,28.1c0.4,0.4,0.6,1.1,0.4,2c-0.2,0.9-0.9,1.3-2.1,1.3h-17.2c-1.2,0-1.9-0.1-2.4-0.4
			c-0.4-0.3-0.9-0.7-1.3-1.3l-21-27.6h-42.8v26.4c0,1.9-1,2.9-2.9,2.9h-14.3c-2,0-3.1-1-3.1-2.9v-85.9c0-2.7,1.3-4,4-4H496.07
			L496.07,976.9z M441.17,1024.2h50.8c4.5,0,7.7-1,9.5-2.9c1.9-1.9,2.8-4.9,2.8-8.9v-5.6c0-4-0.9-6.9-2.8-8.9
			c-1.9-1.9-5-2.9-9.5-2.9h-49.1c-1.2,0-1.7,0.5-1.7,1.6L441.17,1024.2L441.17,1024.2z"/>
		<path class="st1" d="M635.57,976.9c9.1,0,15.6,1.8,19.4,5.4c3.8,3.6,5.8,9.1,5.8,16.4v6.4c0,7.4-2.8,13-8.5,16.8
			c6.1,3.5,9.2,9.2,9.2,17.1v7.7c0,3.5-0.4,6.7-1.2,9.5s-2.1,5.2-3.9,7.2s-4.2,3.5-7.2,4.6c-3,1.1-6.7,1.6-11.1,1.6h-78.8
			c-2.7,0-4-1.3-4-4v-84.9c0-2.7,1.3-4,4-4L635.57,976.9L635.57,976.9z M575.47,1015.5h54.4c4.4,0,7.4-0.7,9-2
			c1.6-1.3,2.4-3.3,2.4-5.8v-4.5c0-2.7-0.8-4.8-2.3-6c-1.5-1.3-4-1.9-7.5-1.9h-54.3c-1.2,0-1.7,0.6-1.7,1.7V1015.5z M575.47,1029.9
			v19.8c0,1.2,0.6,1.7,1.7,1.7h54.4c3.5,0,6.1-0.6,7.6-1.9s2.3-3.3,2.3-6.2v-5c0-2.7-0.8-4.8-2.5-6.2c-1.6-1.4-4.7-2.1-9.1-2.1
			L575.47,1029.9L575.47,1029.9z"/>
		<path class="st1" d="M710.87,976.9c1.9,0,2.9,1,2.9,2.9v87c0,1.9-1,2.9-2.9,2.9h-14.3c-2,0-3-1-3-2.9v-87c0-1.9,1-2.9,3-2.9
			H710.87z"/>
		<path class="st1" d="M849.87,976.9c2,0,3.1,1,3.1,2.9v13c0,2-1,3.1-3.1,3.1h-41.6v71c0,1.9-1,2.9-2.9,2.9h-14.5
			c-1.9,0-2.9-1-2.9-2.9v-71h-41.6c-2,0-3.1-1-3.1-3.1v-13c0-1.9,1-2.9,3.1-2.9H849.87z"/>
		<path class="st1" d="M954.77,976.9c10.2,0,17.5,2.3,21.9,6.9c4.4,4.6,6.6,11.4,6.6,20.4v7.6c0,7.6-1.5,13.6-4.6,18
			s-8.1,7.3-15.1,8.5l22.7,28.1c0.4,0.4,0.6,1.1,0.4,2c-0.2,0.9-0.9,1.3-2.1,1.3h-17.1c-1.2,0-1.9-0.1-2.4-0.4
			c-0.4-0.3-0.9-0.7-1.3-1.3l-21-27.6h-42.8v26.4c0,1.9-1,2.9-2.9,2.9h-14.4c-2,0-3.1-1-3.1-2.9v-85.9c0-2.7,1.3-4,4-4H954.77
			L954.77,976.9z M899.87,1024.2h50.8c4.5,0,7.7-1,9.5-2.9c1.9-1.9,2.8-4.9,2.8-8.9v-5.6c0-4-0.9-6.9-2.8-8.9
			c-1.9-1.9-5-2.9-9.5-2.9h-49c-1.2,0-1.7,0.5-1.7,1.6L899.87,1024.2L899.87,1024.2z"/>
		<path class="st1" d="M1029.37,976.9c1.9,0,2.9,1,2.9,2.9v52.9c0,3.5,0.3,6.5,0.9,8.8c0.6,2.3,1.5,4.2,2.9,5.6
			c1.3,1.4,3.1,2.3,5.4,2.9c2.3,0.6,5.1,0.9,8.6,0.9h36.6c3.4,0,6.3-0.3,8.6-0.9c2.3-0.6,4-1.5,5.4-2.9c1.3-1.4,2.3-3.2,2.8-5.6
			c0.5-2.3,0.8-5.3,0.8-8.8v-52.9c0-1.9,1-2.9,2.9-2.9h14.5c1.9,0,2.9,1,2.9,2.9v54.9c0,6.4-0.7,11.8-2,16.2
			c-1.3,4.5-3.5,8.1-6.4,10.9c-3,2.8-6.8,4.8-11.5,6c-4.7,1.2-10.5,1.9-17.2,1.9h-38.2c-6.7,0-12.4-0.6-17.1-1.9
			c-4.7-1.2-8.5-3.3-11.5-6c-3-2.8-5.1-6.4-6.5-10.9s-2.1-9.9-2.1-16.2v-54.9c0-1.9,1-2.9,3.1-2.9H1029.37z"/>
		<path class="st1" d="M1181.57,976.9c1.9,0,3.6,0.1,5,0.4c1.4,0.3,2.7,0.8,3.7,1.5c1.1,0.8,2,1.8,2.9,3.1c0.8,1.3,1.7,3,2.6,5.1
			l27.6,63.7c0.4,0.8,1,1.2,1.9,1.2h1.6c0.9,0,1.5-0.4,1.9-1.2l27.6-63.7c0.9-2.1,1.7-3.8,2.6-5.1c0.8-1.3,1.8-2.3,2.9-3.1
			c1.1-0.8,2.3-1.3,3.6-1.5c1.4-0.3,3-0.4,5-0.4h14.2c4.6,0,7.7,1,9.3,3.1s2.4,5.6,2.4,10.7v76.1c0,1.9-1,2.9-3,2.9h-13.5
			c-1.9,0-2.9-1-2.9-2.9v-69.2c0-0.9-0.4-1.3-1.1-1.3h-1.2c-0.9,0-1.5,0.4-1.7,1.1l-26.8,59.4c-1.1,2.4-2.1,4.4-3.3,6
			c-1.1,1.6-2.3,3-3.6,4c-1.3,1.1-2.7,1.8-4.4,2.3c-1.6,0.4-3.6,0.7-5.8,0.7h-6.4c-2.2,0-4.1-0.2-5.8-0.7c-1.6-0.4-3.1-1.2-4.4-2.3
			c-1.3-1.1-2.5-2.4-3.6-4c-1.1-1.6-2.2-3.6-3.2-6l-26.8-59.4c-0.3-0.7-0.8-1.1-1.7-1.1h-1.2c-0.7,0-1.1,0.4-1.1,1.3v69.2
			c0,1.9-1,2.9-2.9,2.9h-13.5c-2,0-3.1-1-3.1-2.9v-76.1c0-5,0.8-8.6,2.4-10.7c1.6-2.1,4.7-3.1,9.4-3.1H1181.57z"/>
	</g>
	<g>
		<path class="st0" d="M647.27,1097.2c1.3,0,2.3,0.1,3.1,0.2c0.8,0.1,1.6,0.3,2.2,0.7c0.6,0.3,1.2,0.8,1.8,1.4s1.2,1.4,2,2.4
			l29.1,38.2c0.2,0.4,0.5,0.5,1,0.5h0.7c0.4,0,0.6-0.3,0.6-0.8v-40.9c0-1.1,0.6-1.7,1.7-1.7h8.2c1.1,0,1.7,0.6,1.7,1.7v45
			c0,3.2-0.6,5.3-1.7,6.5c-1.2,1.1-2.9,1.7-5.3,1.7h-6.7c-1.2,0-2.2,0-3-0.2c-0.8-0.1-1.5-0.3-2.2-0.6c-0.6-0.3-1.2-0.8-1.8-1.4
			c-0.6-0.6-1.3-1.4-2.1-2.5l-29.2-38.2c-0.3-0.4-0.7-0.5-1-0.5h-0.7c-0.4,0-0.6,0.3-0.6,0.8v40.9c0,1.2-0.6,1.7-1.7,1.7h-8.2
			c-1.2,0-1.8-0.6-1.8-1.7v-45c0-3.2,0.6-5.3,1.7-6.5c1.1-1.1,2.9-1.7,5.3-1.7H647.27z"/>
		<path class="st0" d="M763.37,1097.2c4,0,7.4,0.4,10.1,1.1c2.8,0.8,5.1,2,6.8,3.6c1.7,1.6,3,3.8,3.8,6.4s1.2,5.8,1.2,9.6v13.5
			c0,3.8-0.4,7-1.2,9.6c-0.8,2.6-2.1,4.8-3.8,6.4c-1.8,1.6-4,2.8-6.8,3.6c-2.8,0.7-6.2,1.1-10.1,1.1h-24.2c-4,0-7.3-0.4-10.1-1.1
			c-2.8-0.7-5-1.9-6.8-3.6c-1.8-1.6-3-3.8-3.8-6.4s-1.2-5.8-1.2-9.6v-13.5c0-3.8,0.4-6.9,1.2-9.6c0.8-2.6,2.1-4.7,3.8-6.4
			c1.7-1.6,4-2.8,6.8-3.6c2.8-0.8,6.1-1.1,10.1-1.1H763.37z M729.17,1130.5c0,2,0.2,3.7,0.5,5.1s0.9,2.5,1.7,3.3
			c0.8,0.8,1.8,1.4,3.2,1.7c1.3,0.3,3,0.5,5.1,0.5h23.3c2,0,3.7-0.2,5.1-0.5c1.3-0.3,2.4-0.9,3.2-1.7c0.8-0.8,1.3-1.9,1.7-3.3
			c0.3-1.4,0.5-3.1,0.5-5.1v-11.7c0-2-0.2-3.7-0.5-5.1s-0.9-2.5-1.7-3.3s-1.8-1.4-3.2-1.7c-1.3-0.3-3-0.5-5.1-0.5h-23.3
			c-2,0-3.7,0.2-5.1,0.5c-1.3,0.3-2.4,0.9-3.2,1.7c-0.8,0.8-1.3,1.9-1.7,3.3c-0.3,1.4-0.5,3.1-0.5,5.1V1130.5z"/>
		<path class="st0" d="M805.27,1097.2c0.5,0,0.9,0.1,1.1,0.2c0.2,0.2,0.5,0.4,0.7,0.8l23,42.2c0.2,0.4,0.5,0.5,0.9,0.5h0.4
			c0.4,0,0.7-0.2,0.9-0.5l22.6-42.2c0.3-0.7,0.9-1,1.8-1h10.3c0.6,0,1,0.2,1.1,0.5s0.1,0.8-0.2,1.3l-25.7,47.1
			c-1.3,2.4-2.6,4-3.8,4.8c-1.3,0.8-2.7,1.2-4.4,1.2h-4.5c-2,0-3.7-0.4-5.1-1.2c-1.3-0.8-2.7-2.4-4-4.8l-26-47.1
			c-0.3-0.5-0.3-1-0.2-1.3s0.5-0.5,1.2-0.5H805.27z"/>
		<path class="st0" d="M902.27,1097.2c2,0,3.7,0.4,5,1.2c1.4,0.8,2.7,2.4,4,4.7l25.9,47.1c0.3,0.5,0.3,1,0.2,1.3s-0.5,0.5-1.1,0.5
			h-10c-0.9,0-1.5-0.3-1.8-1l-5.6-10.1h-36.8l-5.4,10.1c-0.4,0.7-1,1-1.8,1h-10.2c-0.7,0-1.1-0.2-1.2-0.5s-0.1-0.8,0.2-1.3
			l25.7-47.1c1.3-2.4,2.6-3.9,3.8-4.7c1.3-0.8,2.7-1.2,4.4-1.2L902.27,1097.2L902.27,1097.2z M887.07,1131.8h27l-12.5-23
			c-0.2-0.4-0.5-0.5-0.9-0.5h-0.5c-0.4,0-0.7,0.2-0.9,0.5L887.07,1131.8z"/>
	</g>
</g>
</svg>
