<svg viewBox="0 0 256 256" xmlns="http://www.w3.org/2000/svg">
    <path fill="#db378a" fill-rule="evenodd" d="M256 128C256 57.308 198.692 0 128 0 57.308 0 0 57.308 0 128c0 70.692 57.308 128 128 128 70.692 0 128-57.308 128-128Z"/>
    <path fill="#fff" d="M70.915 83c5.94 0 10.755 4.799 10.755 10.719 0 4.634-2.952 8.583-7.085 10.078v55.525c7.694-.339 14.847-1.742 21.203-4.067v-42.568c-4.132-1.496-7.085-5.444-7.085-10.079 0-5.92 4.815-10.718 10.755-10.718 5.939 0 10.754 4.799 10.754 10.718 0 4.635-2.952 8.583-7.084 10.079v39.283c7.066-3.807 12.728-8.96 16.482-15.184a12.447 12.447 0 0 1-4.148-9.286c0-6.902 5.613-12.497 12.538-12.497.569 0 1.128.038 1.677.111 9.55-16.55 30.026-26.573 54.457-26.826l.95-.005h39.246a3.664 3.664 0 0 1 3.67 3.658 3.663 3.663 0 0 1-3.454 3.651l-.216.006h-7.033v55.605c4.132 1.495 7.084 5.443 7.084 10.078 0 5.92-4.815 10.719-10.754 10.719-5.94 0-10.754-4.8-10.754-10.719 0-4.635 2.952-8.584 7.085-10.078V95.598h-21.204v55.605c4.133 1.495 7.085 5.443 7.085 10.078 0 5.92-4.815 10.719-10.754 10.719-5.94 0-10.755-4.8-10.755-10.719 0-4.635 2.952-8.583 7.085-10.078V95.678c-7.694.339-14.847 1.742-21.203 4.067v42.568c4.133 1.495 7.085 5.443 7.085 10.079 0 5.919-4.816 10.718-10.755 10.718-5.939 0-10.754-4.8-10.754-10.718 0-4.636 2.952-8.584 7.084-10.079V103.03c-7.066 3.807-12.728 8.96-16.482 15.184a12.446 12.446 0 0 1 4.148 9.286c0 6.901-5.614 12.497-12.538 12.497-.569 0-1.128-.038-1.677-.111-9.55 16.549-30.026 26.573-54.457 26.826l-.95.005H31.67a3.664 3.664 0 0 1-3.67-3.658 3.663 3.663 0 0 1 3.454-3.651l.216-.006h7.033v-55.605c-4.132-1.495-7.084-5.444-7.084-10.078 0-5.92 4.815-10.719 10.754-10.719 5.94 0 10.754 4.799 10.754 10.719 0 4.634-2.951 8.582-7.083 10.077l-.001 55.605h21.202v-55.604c-4.132-1.495-7.084-5.444-7.084-10.078 0-5.92 4.815-10.719 10.754-10.719Z"/>
</svg>
