<svg id="Logo_-_main_-_100_" data-name="Logo - main - 100%" xmlns="http://www.w3.org/2000/svg" viewBox="0 0 828 378">
    <defs>
        <style>
            .cls-1 {
                fill: #ff6400;
                stroke-width: 0px;
            }
        </style>
    </defs>
    <g>
        <rect class="cls-1" x="72.08" y="71.97" width="72" height="72" rx="4" ry="4" />
        <g>
            <rect class="cls-1" x="72.08" y="233.97" width="72" height="72" rx="4" ry="4" />
            <rect class="cls-1" x="72.08" y="152.97" width="72" height="72" rx="4" ry="4" />
        </g>
        <g>
            <rect class="cls-1" x="153.08" y="233.97" width="72" height="72" rx="4" ry="4" />
            <rect class="cls-1" x="153.08" y="152.97" width="72" height="72" rx="4" ry="4" />
        </g>
    </g>
    <g>
        <path class="cls-1"
            d="M297.08,152.97h80.51c29.13,0,44.04,18.58,44.04,39,0,19.27-11.93,32.11-26.38,35.1,16.29,2.52,29.36,18.35,29.36,37.62,0,22.94-15.37,41.29-44.5,41.29h-83.04v-153ZM370.49,214.45c11.01,0,17.89-7.11,17.89-16.97s-6.88-16.75-17.89-16.75h-40.83v33.72h40.83ZM371.63,278.22c12.39,0,19.73-7.11,19.73-18.12,0-9.63-6.88-17.89-19.73-17.89h-41.98v36.01h41.98Z" />
        <path class="cls-1"
            d="M621.08,152.97h80.51c29.13,0,44.04,18.58,44.04,39,0,19.27-11.93,32.11-26.38,35.1,16.29,2.52,29.36,18.35,29.36,37.62,0,22.94-15.37,41.29-44.5,41.29h-83.04v-153ZM694.49,214.45c11.01,0,17.89-7.11,17.89-16.97s-6.88-16.75-17.89-16.75h-40.83v33.72h40.83ZM695.63,278.22c12.39,0,19.73-7.11,19.73-18.12,0-9.63-6.88-17.89-19.73-17.89h-41.98v36.01h41.98Z" />
        <path class="cls-1"
            d="M520.97,150.47c46.37,0,80.11,32.97,80.11,79s-33.74,79-80.11,79-79.89-32.97-79.89-79,33.74-79,79.89-79ZM520.97,179.32c-28.24,0-46.37,21.53-46.37,50.15s18.13,50.15,46.37,50.15,46.6-21.75,46.6-50.15-18.36-50.15-46.6-50.15Z" />
    </g>
</svg>