<svg viewBox="0 0 32 32" xmlns="http://www.w3.org/2000/svg">
    <path fill="#ff6400" d="M16 32c8.837 0 16-7.163 16-16S24.837 0 16 0 0 7.163 0 16s7.163 16 16 16z"/>
    <path fill="#fff" d="M15.17 5.504h-4.878a.304.304 0 00-.304.304v4.878c0 .168.136.304.304.304h4.879a.304.304 0 00.304-.304V5.808a.304.304 0 00-.304-.304z"/>
    <path fill="#fff" d="M9.99 19.521V24.4c0 .168.136.304.304.304h4.879a.304.304 0 00.304-.304v-4.88a.304.304 0 00-.304-.304h-4.879a.304.304 0 00-.304.304z"/>
    <path fill="#fff" d="M9.988 12.665v4.879c0 .168.136.304.304.304h4.879a.304.304 0 00.304-.304v-4.879a.304.304 0 00-.304-.304h-4.879a.304.304 0 00-.304.304z"/>
    <path fill="#fff" d="M16.846 19.522V24.4c0 .168.136.304.304.304h4.878a.304.304 0 00.304-.304v-4.878a.304.304 0 00-.304-.304H17.15a.304.304 0 00-.304.304z"/>
    <path fill="#fff" d="M16.846 12.664v4.878c0 .168.136.304.304.304h4.878a.304.304 0 00.304-.304v-4.878a.304.304 0 00-.304-.304H17.15a.304.304 0 00-.304.304z"/>
</svg>
