<svg width="150" height="150" viewBox="0 0 150 150" fill="none" xmlns="http://www.w3.org/2000/svg">
    <rect width="150" height="150" fill="black" />
    <path d="M146 41H4V106H146V41Z" fill="black" />
    <path
        d="M27.9634 53.5581H16.9875C16.7034 53.5581 16.473 53.789 16.473 54.0739V65.0792C16.473 65.3641 16.7034 65.5951 16.9875 65.5951H27.9634C28.2475 65.5951 28.4779 65.3641 28.4779 65.0792V54.0739C28.4779 53.789 28.2475 53.5581 27.9634 53.5581Z"
        fill="white" />
    <path
        d="M27.9634 81.4152H16.9875C16.7034 81.4152 16.473 81.6462 16.473 81.9311V92.9364C16.473 93.2213 16.7034 93.4523 16.9875 93.4523H27.9634C28.2475 93.4523 28.4779 93.2213 28.4779 92.9364V81.9311C28.4779 81.6462 28.2475 81.4152 27.9634 81.4152Z"
        fill="white" />
    <path
        d="M27.9634 67.4866H16.9875C16.7034 67.4866 16.473 67.7176 16.473 68.0025V79.0078C16.473 79.2927 16.7034 79.5237 16.9875 79.5237H27.9634C28.2475 79.5237 28.4779 79.2927 28.4779 79.0078V68.0025C28.4779 67.7176 28.2475 67.4866 27.9634 67.4866Z"
        fill="white" />
    <path
        d="M41.8547 81.4152H30.8789C30.5947 81.4152 30.3644 81.6462 30.3644 81.9311V92.9364C30.3644 93.2213 30.5947 93.4523 30.8789 93.4523H41.8547C42.1389 93.4523 42.3692 93.2213 42.3692 92.9364V81.9311C42.3692 81.6462 42.1389 81.4152 41.8547 81.4152Z"
        fill="#FF6400" />
    <path
        d="M41.8547 67.4866H30.8789C30.5947 67.4866 30.3644 67.7176 30.3644 68.0025V79.0078C30.3644 79.2927 30.5947 79.5237 30.8789 79.5237H41.8547C42.1389 79.5237 42.3692 79.2927 42.3692 79.0078V68.0025C42.3692 67.7176 42.1389 67.4866 41.8547 67.4866Z"
        fill="#FF6400" />
    <path
        d="M71.6986 80.2253L70.7605 80.0791L71.6901 79.8865C72.9043 79.6355 74.0036 78.9579 74.7822 77.9795C75.6294 76.9168 76.077 75.5463 76.077 74.0193C76.077 72.2567 75.4201 70.6421 74.2248 69.4728C72.8974 68.1728 70.9852 67.4849 68.694 67.4849H55.0582V93.4505H69.1279C73.6606 93.4505 76.588 90.7319 76.588 86.5224C76.588 83.3652 74.4855 80.6569 71.6986 80.2235V80.2253ZM60.3026 77.8849V71.9146H67.4764C69.3834 71.9146 70.716 73.1698 70.716 74.9668C70.716 76.7638 69.4143 78.0569 67.4764 78.0569H60.3026V77.8849ZM67.6736 89.0226H60.3026V82.4865H67.6736C70.1294 82.4865 71.2287 84.1184 71.2287 85.7348C71.2287 87.7622 69.867 89.0226 67.6736 89.0226Z"
        fill="white" />
    <path
        d="M127.264 80.2253L126.326 80.0791L127.255 79.8865C128.47 79.6355 129.569 78.9579 130.347 77.9795C131.195 76.9168 131.642 75.5463 131.642 74.0193C131.642 72.2567 130.985 70.6421 129.79 69.4728C128.463 68.1728 126.551 67.4849 124.259 67.4849H110.624V93.4505H124.693C129.226 93.4505 132.153 90.7319 132.153 86.5224C132.153 83.3652 130.051 80.6569 127.264 80.2235V80.2253ZM115.868 77.8849V71.9146H123.042C124.949 71.9146 126.281 73.1698 126.281 74.9668C126.281 76.7638 124.98 78.0569 123.042 78.0569H115.868V77.8849ZM123.239 89.0226H115.868V82.4865H123.239C125.695 82.4865 126.794 84.1184 126.794 85.7348C126.794 87.7622 125.432 89.0226 123.239 89.0226Z"
        fill="white" />
    <path
        d="M93.2851 67.0568C85.4459 67.0568 79.7573 72.697 79.7573 80.4695C79.7573 88.2419 85.4476 93.8822 93.2851 93.8822C97.0923 93.8822 100.548 92.5409 103.018 90.1077C105.492 87.6676 106.854 84.2457 106.854 80.4695C106.854 76.6933 105.492 73.2713 103.018 70.8312C100.548 68.3963 97.0923 67.0568 93.2851 67.0568ZM99.224 86.727C97.7286 88.3864 95.674 89.2651 93.2851 89.2651C90.8961 89.2651 88.8501 88.3881 87.365 86.727C85.9432 85.1381 85.1612 82.9164 85.1612 80.4695C85.1612 75.2901 88.502 71.6738 93.2851 71.6738C98.0681 71.6738 101.448 75.2901 101.448 80.4695C101.448 82.913 100.658 85.1364 99.224 86.727Z"
        fill="white" />
</svg>