<svg viewBox="0 0 800 800" xmlns="http://www.w3.org/2000/svg">
    <path fill="#13181c" fill-rule="evenodd" d="M800 400C800 179.086 620.914 0 400 0S0 179.086 0 400s179.086 400 400 400 400-179.086 400-400Z"/>
    <linearGradient id="a" x1="249.016" y1="354.529" x2="360.621" y2="192.474" gradientUnits="userSpaceOnUse">
        <stop offset=".151" stop-color="#146bb5"/>
        <stop offset=".268" stop-color="#1566ae"/>
        <stop offset=".435" stop-color="#155ca0"/>
        <stop offset=".632" stop-color="#144c8b"/>
        <stop offset=".851" stop-color="#0e356f"/>
        <stop offset="1" stop-color="#06235b"/>
    </linearGradient>
    <path fill="url(#a)" d="M287.738 130.036c-47.024 54.297-79.18 141.684-84.27 241.895H354.77c5.055-71.388 28.537-120.616 45.467-141.456-38.777-59.906-89.527-89.011-112.499-100.439Z"/>
    <linearGradient id="b" x1="533.914" y1="194.759" x2="357.391" y2="288.585" gradientUnits="userSpaceOnUse">
        <stop offset="0" stop-color="#7ec8ef"/>
        <stop offset="1" stop-color="#405eab"/>
    </linearGradient>
    <path fill="url(#b)" d="M445.698 371.932H597C588.453 203.7 503.652 71.563 400.234 71.563c-41.813 0-80.579 21.616-112.496 58.47 22.894 11.388 73.693 40.49 112.496 100.442 38.076 58.83 44.245 115.904 45.464 141.457Z"/>
    <linearGradient id="c" x1="249.017" y1="445.148" x2="360.621" y2="607.203" gradientUnits="userSpaceOnUse">
        <stop offset=".151" stop-color="#152e52"/>
        <stop offset=".388" stop-color="#142c4f"/>
        <stop offset=".725" stop-color="#122645"/>
        <stop offset="1" stop-color="#0f1f3b"/>
    </linearGradient>
    <path fill="url(#c)" d="M287.738 669.641c-47.024-54.297-79.18-141.684-84.27-241.896H354.77c5.055 71.389 28.537 120.617 45.467 141.457-38.777 59.906-89.527 89.011-112.499 100.439Z"/>
    <linearGradient id="d" x1="533.914" y1="604.918" x2="357.391" y2="511.092" gradientUnits="userSpaceOnUse">
        <stop offset="0" stop-color="#1b4f76"/>
        <stop offset="1" stop-color="#142553"/>
    </linearGradient>
    <path fill="url(#d)" d="M445.698 427.745H597c-8.547 168.232-93.348 300.369-196.766 300.369-41.813 0-80.579-21.616-112.496-58.47 22.894-11.388 73.693-40.49 112.496-100.442 38.079-58.83 44.245-115.904 45.464-141.457Z"/>
</svg>
