<svg width="800" height="800" viewBox="0 0 800 800" fill="none" xmlns="http://www.w3.org/2000/svg">
<path d="M287.738 130.036C240.714 184.333 208.558 271.72 203.468 371.931H354.77C359.825 300.543 383.307 251.315 400.237 230.475C361.46 170.569 310.71 141.464 287.738 130.036Z" fill="url(#paint0_linear_4_30)"/>
<path d="M445.698 371.932H597C588.453 203.7 503.652 71.563 400.234 71.563C358.421 71.563 319.655 93.1792 287.738 130.033C310.632 141.421 361.431 170.523 400.234 230.475C438.31 289.305 444.479 346.379 445.698 371.932Z" fill="url(#paint1_linear_4_30)"/>
<path d="M287.738 669.641C240.714 615.344 208.558 527.957 203.468 427.745H354.77C359.825 499.134 383.307 548.362 400.237 569.202C361.46 629.108 310.71 658.213 287.738 669.641Z" fill="url(#paint2_linear_4_30)"/>
<path d="M445.698 427.745H597C588.453 595.977 503.652 728.114 400.234 728.114C358.421 728.114 319.655 706.498 287.738 669.644C310.632 658.256 361.431 629.154 400.234 569.202C438.313 510.372 444.479 453.298 445.698 427.745Z" fill="url(#paint3_linear_4_30)"/>
<defs>
<linearGradient id="paint0_linear_4_30" x1="249.016" y1="354.529" x2="360.621" y2="192.474" gradientUnits="userSpaceOnUse">
<stop offset="0.1511" stop-color="#146BB5"/>
<stop offset="0.2679" stop-color="#1566AE"/>
<stop offset="0.4349" stop-color="#155CA0"/>
<stop offset="0.6321" stop-color="#144C8B"/>
<stop offset="0.8507" stop-color="#0E356F"/>
<stop offset="1" stop-color="#06235B"/>
</linearGradient>
<linearGradient id="paint1_linear_4_30" x1="533.914" y1="194.759" x2="357.391" y2="288.585" gradientUnits="userSpaceOnUse">
<stop stop-color="#7EC8EF"/>
<stop offset="1" stop-color="#405EAB"/>
</linearGradient>
<linearGradient id="paint2_linear_4_30" x1="249.017" y1="445.148" x2="360.621" y2="607.203" gradientUnits="userSpaceOnUse">
<stop offset="0.1511" stop-color="#152E52"/>
<stop offset="0.3877" stop-color="#142C4F"/>
<stop offset="0.7252" stop-color="#122645"/>
<stop offset="1" stop-color="#0F1F3B"/>
</linearGradient>
<linearGradient id="paint3_linear_4_30" x1="533.914" y1="604.918" x2="357.391" y2="511.092" gradientUnits="userSpaceOnUse">
<stop stop-color="#1B4F76"/>
<stop offset="1" stop-color="#142553"/>
</linearGradient>
</defs>
</svg>
