<svg version="1.1" id="Layer_1" xmlns="http://www.w3.org/2000/svg" xmlns:xlink="http://www.w3.org/1999/xlink" x="0px" y="0px" style="enable-background:new 0 0 409.408 501.079;" xml:space="preserve" viewBox="136.45 136.68 136.52 227.7">
<g>
	<g>
		<linearGradient id="SVGID_1_" gradientUnits="userSpaceOnUse" x1="152.2651" y1="234.8272" x2="190.9671" y2="178.6301">
			<stop offset="0.1511" style="stop-color:#146BB5"/>
			<stop offset="0.2679" style="stop-color:#1566AE"/>
			<stop offset="0.4349" style="stop-color:#155CA0"/>
			<stop offset="0.6321" style="stop-color:#144C8B"/>
			<stop offset="0.8507" style="stop-color:#0E356F"/>
			<stop offset="1" style="stop-color:#06235B"/>
		</linearGradient>
		<path style="fill:url(#SVGID_1_);" d="M165.693,156.978c-16.307,18.829-27.458,49.133-29.223,83.884h52.468    c1.753-24.756,9.896-41.827,15.767-49.054C191.258,171.034,173.659,160.941,165.693,156.978z"/>
	</g>
	
		<linearGradient id="SVGID_00000158742378773872453680000003483530850588771211_" gradientUnits="userSpaceOnUse" x1="251.0611" y1="179.4225" x2="189.847" y2="211.9593">
		<stop offset="0" style="stop-color:#7EC8EF"/>
		<stop offset="1" style="stop-color:#405EAB"/>
	</linearGradient>
	<path style="fill:url(#SVGID_00000158742378773872453680000003483530850588771211_);" d="M220.47,240.862h52.468   c-2.964-58.339-32.371-104.161-68.234-104.161c-14.5,0-27.943,7.496-39.011,20.276c7.939,3.949,25.555,14.041,39.011,34.831   C217.908,212.209,220.047,232.001,220.47,240.862z"/>
	<g>
		
			<linearGradient id="SVGID_00000062191965673206843070000013216156317012276112_" gradientUnits="userSpaceOnUse" x1="152.2652" y1="355.6912" x2="190.9672" y2="299.4941" gradientTransform="matrix(1 0 0 -1 0 621.943)">
			<stop offset="0.1511" style="stop-color:#152E52"/>
			<stop offset="0.3877" style="stop-color:#142C4F"/>
			<stop offset="0.7252" style="stop-color:#122645"/>
			<stop offset="1" style="stop-color:#0F1F3B"/>
		</linearGradient>
		<path style="fill:url(#SVGID_00000062191965673206843070000013216156317012276112_);" d="M165.693,344.101    c-16.307-18.829-27.458-49.133-29.223-83.884h52.468c1.753,24.756,9.896,41.827,15.767,49.054    C191.258,330.045,173.659,340.138,165.693,344.101z"/>
	</g>
	
		<linearGradient id="SVGID_00000158729884886148191420000008011703649998953627_" gradientUnits="userSpaceOnUse" x1="251.0612" y1="300.2865" x2="189.8471" y2="332.8233" gradientTransform="matrix(1 0 0 -1 0 621.943)">
		<stop offset="0" style="stop-color:#1B4F76"/>
		<stop offset="1" style="stop-color:#142553"/>
	</linearGradient>
	<path style="fill:url(#SVGID_00000158729884886148191420000008011703649998953627_);" d="M220.47,260.217h52.468   c-2.964,58.339-32.371,104.161-68.234,104.161c-14.5,0-27.943-7.496-39.011-20.276c7.939-3.949,25.555-14.041,39.011-34.831   C217.909,288.87,220.047,269.078,220.47,260.217z"/>
</g>
</svg>