<?xml version="1.0" encoding="utf-8"?>
<!-- Generator: Adobe Illustrator 26.0.1, SVG Export Plug-In . SVG Version: 6.00 Build 0)  -->
<svg version="1.1" id="Calque_1" xmlns="http://www.w3.org/2000/svg" xmlns:xlink="http://www.w3.org/1999/xlink" x="0px" y="0px"
	 viewBox="0 0 566.93 560.69" style="enable-background:new 0 0 566.93 560.69;" xml:space="preserve">
<g>
	<circle cx="443.63" cy="217.82" r="57.34"/>
	<circle cx="123.11" cy="217.82" r="57.34"/>
	<circle cx="282.53" cy="495.66" r="57.34"/>
	<path d="M517.1,349.18c-17.63-10.18-37.34-13.08-56.02-10.32c-19.12,2.83-41.49,17.02-66.6,2.52
		c-20.25-11.69-23.2-34.29-28.51-51.73c-1.89-6.8-4.65-13.48-8.34-19.87c-4.41-7.64-9.83-14.33-15.98-20.02
		c-12.09-12.3-27.16-25.7-27.16-47.03c0-29,23.48-41.27,35.49-56.42c11.73-14.79,19.07-33.32,19.07-53.68
		c0-47-38.1-85.11-85.11-85.11c-47,0-85.11,38.1-85.11,85.11c0,20.17,6.49,37.8,18.76,53.28c10.7,13.49,35.83,31.43,35.83,56.81
		c0,23.77-21.1,37.83-35.41,56.15c-5.37,6.73-9.72,14.16-13.13,21.94c-7.79,17.81-7.83,46.39-31.5,60.05
		c-25.11,14.5-47.48,0.31-66.6-2.52c-18.68-2.76-38.39,0.14-56.02,10.32c-40.71,23.5-54.65,75.55-31.15,116.26
		s75.55,54.65,116.26,31.15c17.47-10.09,29.49-24.52,36.76-42.89c6.34-16.01,9.31-46.74,31.29-59.43
		c17.72-10.23,37.03-3.32,56.75,0.86c0.61,0.17,1.22,0.33,1.83,0.48c0.18,0.05,0.36,0.09,0.54,0.13c0.91,0.23,1.83,0.44,2.75,0.63
		c0.7,0.15,1.41,0.29,2.11,0.43c0.28,0.05,0.56,0.1,0.84,0.15c4.93,0.89,10,1.38,15.19,1.38c0.51,0,1.01-0.03,1.52-0.04
		c0.25,0,0.5-0.01,0.74-0.02c0.82-0.02,1.64-0.03,2.45-0.08c2.44-0.11,4.87-0.31,7.29-0.61c23.59-2.89,46.93-14.98,68.01-2.81
		c21.98,12.69,24.95,43.42,31.29,59.43c7.27,18.38,19.29,32.8,36.76,42.89c40.71,23.5,92.76,9.55,116.26-31.15
		S557.81,372.68,517.1,349.18z"/>
</g>
</svg>
