<svg viewBox="0 0 539 539" fill="none" xmlns="http://www.w3.org/2000/svg">
    <path d="M-.001 269.034C-.001 120.45 120.448 0 269.032 0s269.034 120.45 269.034 269.034-120.454 269.035-269.034 269.035C120.452 538.069-.001 417.62-.001 269.034Zm52.806 0c0 119.422 96.808 216.228 216.228 216.228s216.229-96.806 216.229-216.228c0-119.422-96.812-216.229-216.229-216.229-119.417 0-216.228 96.809-216.228 216.229Zm221.148 118.173c-8.145-16.316-62.625-118.052-62.625-118.052h219.363s-58.073 103.882-64.812 118.052c-6.739 14.17-17.63 39.75-44.18 39.75s-39.601-23.427-47.746-39.75Zm-143.32-56.562c-7.65-20.266-21.309-61.488-21.309-61.488l23.589-61.491c9.432-22.105 17.865-32.609 25.943-32.627 19.1-.041 23.509 12.361 31.159 32.627 7.65 20.266 21.309 61.491 21.309 61.491s-12.549 32.727-23.584 61.488c-9.432 22.105-17.866 32.611-25.944 32.633h-.082c-19.027-.001-23.437-12.393-31.08-32.635l-.001.002Zm226.181-61.488H211.329s58.074-103.885 64.812-118.055c6.738-14.17 17.631-39.748 44.181-39.748 26.55 0 39.6 23.428 47.746 39.748 8.146 16.32 62.625 118.055 62.625 118.055h-73.879Z" fill="#5DEFA7"/>
</svg>
