<?xml version="1.0" encoding="utf-8"?>
<!-- Generator: Adobe Illustrator 23.0.1, SVG Export Plug-In . SVG Version: 6.00 Build 0)  -->
<svg version="1.1" id="Layer_1" xmlns="http://www.w3.org/2000/svg" xmlns:xlink="http://www.w3.org/1999/xlink" x="0px" y="0px"
	 viewBox="0 0 1000 1000" style="enable-background:new 0 0 1000 1000;" xml:space="preserve">
<style type="text/css">
	.st0{fill:#FAFCFC;}
	.st1{fill:#F8FBFB;}
	.st2{fill:#0E736F;}
</style>
<path class="st0" d="M492.77,446.1c-0.82,0.1-1.64,0.21-2.46,0.31c-0.69,0.17-1.37,0.35-2.05,0.52c-0.51,0.27-1,0.62-1.62,0.28
	c-0.46,0.16-0.92,0.32-1.38,0.48c-10.65,3.14-19.55,9.12-26.49,17.63c-13.99,17.17-17.12,36.55-8.58,56.85
	c8.6,20.44,24.7,31.97,46.99,33.59c24.97,1.81,46.54-12.55,55.71-35.87c1.77-4.49,1.81-9.18,3.08-13.67
	c0.02-0.23,0.04-0.45,0.05-0.68c-0.07-3.29-0.16-6.58-0.18-9.88c-0.01-1.02,0.01-2.44,1.41-0.66c0,19.98-0.02,39.96,0.03,59.93
	c0,1.71-0.17,2.38-2.21,2.38c-36.09-0.08-72.17-0.08-108.26-0.01c-1.75,0-2.12-0.33-2.12-2.1c0.07-36.09,0.07-72.17-0.01-108.26
	c0-2.02,0.64-2.23,2.37-2.23c17.23,0.06,34.46,0.04,51.69,0.04c0,0.24,0,0.48,0,0.73c-1.07,0.36-2.15,0.52-3.25,0.12
	C494.54,445.52,493.61,445.55,492.77,446.1z"/>
<path class="st0" d="M557.25,493.5c-1.06,2.04-1.29,0.78-1.62-0.38c-0.97-3.39-1.41-6.87-2.59-10.25
	c-5.41-15.48-15.79-26.14-30.53-32.86c-0.44-0.2-0.84-0.5-1.26-0.75c-0.59-0.22-1.18-0.44-1.76-0.66c0,0-0.28,0.04-0.28,0.04
	s-0.21-0.19-0.21-0.19c-0.62-0.2-1.24-0.4-1.85-0.6c0,0-0.24,0.04-0.24,0.04s-0.16-0.18-0.16-0.18c-0.67-0.19-1.34-0.38-2.02-0.58
	c-0.33-0.07-0.66-0.13-0.99-0.2c-0.69-0.17-1.37-0.34-2.06-0.51c-0.56-0.08-1.13-0.16-1.69-0.24c-1.07-0.78-2.28-0.66-3.49-0.58
	c-1.1,0.35-2.18,0.28-3.25-0.12c0-0.24,0-0.49,0-0.73c17.25,0,34.5,0.03,51.75-0.05c1.88-0.01,2.31,0.42,2.3,2.3
	C557.21,462.5,557.25,478,557.25,493.5z"/>
<path class="st1" d="M503.25,444.75c0,0.24,0,0.49,0,0.73c-1.5,0-3,0-4.5,0c0-0.24,0-0.48,0-0.73
	C500.25,444.75,501.75,444.75,503.25,444.75z"/>
<path class="st1" d="M501.12,456.62c24.71,0.06,44.16,19.82,44.12,44.81c-0.04,24.2-20.18,43.84-44.88,43.76
	c-24.23-0.07-43.78-20.14-43.73-44.89C456.68,476.17,476.66,456.55,501.12,456.62z M489.23,500.79c-1.88-5.25-3.42-9.7-5.07-14.11
	c-0.94-2.51-2.1-5.02-5.3-5.07c-2.92-0.04-3.91,2.46-4.83,4.57c-1.9,4.34-3.56,8.77-5.26,13.19c-0.26,0.67-0.48,1.52-0.28,2.16
	c1.72,5.47,3.23,11.04,5.95,16.11c1.78,3.34,5.36,3.31,7.54,0.23c1.53-2.16,2.34-4.66,3.35-7.08c1.26-3.03,2.02-6.29,3.99-9.39
	c0.78,1.42,1.38,2.5,1.96,3.59c4.12,7.7,7.97,15.55,12.43,23.05c4.37,7.34,11.74,7.01,15.83-0.4c4.52-8.19,8.87-16.47,13.44-24.63
	c0.94-1.68,0.78-2.85-0.07-4.43c-4.1-7.56-8.06-15.21-12.13-22.79c-0.82-1.53-1.78-3.03-2.93-4.31c-3.83-4.24-9.48-3.96-12.86,0.61
	c-0.96,1.29-1.68,2.77-2.45,4.19C498.24,484.17,493.97,492.06,489.23,500.79z"/>
<path class="st1" d="M506.5,445.6c1.21-0.08,2.42-0.19,3.49,0.58C508.78,446.25,507.56,446.38,506.5,445.6z"/>
<path class="st1" d="M492.77,446.1c0.84-0.55,1.77-0.58,2.72-0.5C494.68,446.28,493.73,446.18,492.77,446.1z"/>
<path class="st1" d="M488.26,446.93c0.68-0.17,1.37-0.35,2.05-0.52C489.74,447.01,489,446.98,488.26,446.93z"/>
<path class="st1" d="M511.67,446.42c0.69,0.17,1.37,0.34,2.06,0.51C512.99,447,512.26,447.02,511.67,446.42z"/>
<path class="st1" d="M514.72,447.13c0.67,0.19,1.34,0.38,2.02,0.58C516,447.74,515.27,447.76,514.72,447.13z"/>
<path class="st1" d="M517.13,447.84c0.62,0.2,1.24,0.4,1.85,0.6C518.29,448.5,517.64,448.38,517.13,447.84z"/>
<path class="st1" d="M519.48,448.59c0.59,0.22,1.18,0.44,1.76,0.66C520.57,449.28,519.93,449.18,519.48,448.59z"/>
<path class="st1" d="M485.26,447.68c0.46-0.16,0.92-0.32,1.38-0.48C486.3,447.71,485.79,447.74,485.26,447.68z"/>
<path class="st1" d="M556.03,505.53c-0.02,0.23-0.04,0.46-0.05,0.68C555.84,505.98,555.86,505.75,556.03,505.53z"/>
<g>
	<path class="st2" d="M-203.45,537.99c0,0.5,0,1,0,1.5c-1.4-1.78-1.41-0.37-1.41,0.66c0.02,3.29,0.11,6.58,0.18,9.88
		c-0.17,0.22-0.19,0.44-0.05,0.68c-1.27,4.49-1.31,9.17-3.08,13.67c-9.18,23.32-30.74,37.68-55.71,35.87
		c-22.29-1.61-38.39-13.14-46.99-33.59c-8.54-20.3-5.41-39.69,8.58-56.85c6.94-8.51,15.84-14.49,26.49-17.63
		c0.54,0.06,1.04,0.03,1.38-0.48c0.61,0.35,1.11-0.01,1.62-0.28c0.74,0.06,1.48,0.08,2.05-0.52c0.82-0.1,1.64-0.21,2.46-0.31
		c0.95,0.08,1.91,0.18,2.72-0.5c1.1,0.4,2.18,0.24,3.25-0.12c1.5,0,3,0,4.5,0c1.07,0.4,2.15,0.47,3.25,0.12
		c1.07,0.78,2.28,0.64,3.49,0.58c0.56,0.08,1.13,0.16,1.69,0.24c0.58,0.59,1.32,0.58,2.06,0.51c0.33,0.07,0.66,0.13,0.99,0.2
		c0.55,0.63,1.28,0.61,2.02,0.58l0.16,0.18l0.24-0.04c0.51,0.54,1.15,0.65,1.85,0.6l0.21,0.19l0.28-0.04
		c0.45,0.59,1.08,0.69,1.76,0.66c0.42,0.25,0.82,0.55,1.26,0.75c14.74,6.72,25.12,17.39,30.53,32.86c1.18,3.39,1.62,6.87,2.59,10.25
		C-204.74,538.78-204.5,540.04-203.45,537.99z M-259.57,501.11c-24.46-0.06-44.44,19.55-44.48,43.68
		c-0.05,24.75,19.5,44.82,43.73,44.89c24.7,0.07,44.84-19.57,44.88-43.76C-215.41,520.93-234.86,501.17-259.57,501.11z"/>
	<path class="st2" d="M-271.47,545.29c4.74-8.73,9.01-16.62,13.3-24.51c0.77-1.42,1.49-2.89,2.45-4.19
		c3.38-4.57,9.03-4.85,12.86-0.61c1.16,1.28,2.11,2.79,2.93,4.31c4.07,7.58,8.03,15.22,12.13,22.79c0.86,1.58,1.01,2.75,0.07,4.43
		c-4.57,8.16-8.93,16.44-13.44,24.63c-4.09,7.42-11.46,7.75-15.83,0.4c-4.46-7.49-8.31-15.35-12.43-23.05
		c-0.58-1.09-1.19-2.17-1.96-3.59c-1.97,3.1-2.73,6.36-3.99,9.39c-1.01,2.42-1.82,4.92-3.35,7.08c-2.18,3.08-5.76,3.1-7.54-0.23
		c-2.71-5.07-4.23-10.65-5.95-16.11c-0.2-0.63,0.02-1.49,0.28-2.16c1.7-4.42,3.37-8.85,5.26-13.19c0.92-2.12,1.91-4.61,4.83-4.57
		c3.19,0.04,4.36,2.56,5.3,5.07C-274.89,535.59-273.35,540.04-271.47,545.29z"/>
</g>
</svg>
