<svg width="130" height="130" viewBox="0 0 130 130" fill="none" xmlns="http://www.w3.org/2000/svg">
<circle cx="65" cy="65" r="65" fill="#0B0616"/>
<path d="M92.5553 37.6672L72.2821 26.0346C67.55 23.3218 61.675 23.3218 56.9428 26.0346L36.6697 37.6672C31.9375 40.3829 29 45.4396 29 50.8682V74.1333C29 79.5618 31.9404 84.6186 36.6697 87.3343L56.9428 98.9639C59.3074 100.32 61.9614 101 64.6125 101C67.2635 101 69.9175 100.32 72.2821 98.9639L92.5553 87.3343C97.2875 84.6186 100.225 79.5618 100.225 74.1333V50.8682C100.228 45.4425 97.2875 40.3829 92.5553 37.6672ZM93.4585 74.1333C93.4585 77.1656 91.8158 79.9917 89.1706 81.5107L68.8974 93.1404C66.2552 94.6565 62.9698 94.6565 60.3246 93.1404L40.0515 81.5107C37.4062 79.9946 35.7636 77.1656 35.7636 74.1333V50.8682C35.7636 47.8359 37.4062 45.0098 40.0515 43.4907L60.3246 31.8581C61.6458 31.1001 63.1276 30.7196 64.6096 30.7196C66.0915 30.7196 67.5734 31.1001 68.8945 31.8581L89.1677 43.4907C91.8129 45.0069 93.4556 47.8359 93.4556 50.8682V74.1333H93.4585Z" fill="url(#paint0_linear_6510_181586)"/>
<path d="M81.1005 48.9826L62.5986 59.6421C61.4762 60.2869 60.8799 61.472 60.9238 62.6773C60.9208 62.7354 60.9062 62.7877 60.9062 62.8458V77.5659C60.9062 79.4219 62.4203 80.9293 64.2909 80.9293C66.1587 80.9293 67.6757 79.4248 67.6757 77.5659V64.5014L84.4852 54.8119C86.1045 53.8825 86.6569 51.8261 85.7245 50.217C84.7892 48.605 82.7168 48.0532 81.1005 48.9826Z" fill="url(#paint1_linear_6510_181586)"/>
<defs>
<linearGradient id="paint0_linear_6510_181586" x1="37.2894" y1="32.8614" x2="64.4369" y2="62.685" gradientUnits="userSpaceOnUse">
<stop offset="0.1249" stop-color="#D274F7"/>
<stop offset="1" stop-color="#9A74F7"/>
</linearGradient>
<linearGradient id="paint1_linear_6510_181586" x1="38.9721" y1="27.2274" x2="67.623" y2="58.7026" gradientUnits="userSpaceOnUse">
<stop offset="0.1249" stop-color="#D274F7"/>
<stop offset="1" stop-color="#9A74F7"/>
</linearGradient>
</defs>
</svg>
