<svg viewBox="0 0 44 44" xmlns="http://www.w3.org/2000/svg">
    <linearGradient id="a" x1="6.987" y1="37.014" x2="35.036" y2="8.96" gradientUnits="userSpaceOnUse">
        <stop offset="0" stop-color="#e6007a"/>
        <stop offset=".21" stop-color="#703ac2"/>
        <stop offset=".46" stop-color="#0070eb"/>
        <stop offset=".77" stop-color="#0297fb"/>
        <stop offset="1" stop-color="#0ae2ff"/>
    </linearGradient>
    <path fill="url(#a)" d="M43.944 20.508C43.119 8.384 32.626-.772 20.507.052A21.939 21.939 0 0 0 5.466 7.488l-.083.094A21.942 21.942 0 0 0 .05 23.493l.618 3.875C3.21 37.498 12.702 44.674 23.492 43.94c12.12-.824 21.28-11.317 20.456-23.44l-.004.007Zm-4.79.327-.266 4.338c-1.597-3.897-4.752-6.713-7.523-8.268.561-6.604-1.68-9.39-4.217-9.842l-.207-.034a3.67 3.67 0 0 0-4.111 3.178 3.67 3.67 0 0 0 3.177 4.111l.539.734a19.7 19.7 0 0 0-6.536-.516l-2.24.283c.248-2.23 1.088-4.737 2.71-6.566 1.57-1.774 3.905-2.786 6.45-2.527l1.525.343c5.896 2.402 10.237 8 10.696 14.766h.004ZM23.82 24.194l-1.886 2.232-3.743-6.69 7.666.094-2.037 4.364ZM16.305 5.77l-.011.016c-2.58 3.328-3.438 7.466-3.4 10.643-6.002 2.816-7.29 6.149-6.416 8.573l.076.196a3.676 3.676 0 0 0 4.808 1.973 3.676 3.676 0 0 0 1.972-4.808l.373-.84c.67 2.323 1.66 4.285 2.816 5.926l1.363 1.796c-2.055.9-4.646 1.427-7.044.938-2.32-.475-4.364-1.988-5.414-4.323l-.591-2.695C4.302 15.286 9.189 8.27 16.305 5.77Zm6.86 33.385a17.126 17.126 0 0 1-12.36-4.115c4.171.568 8.184-.757 10.918-2.38 5.44 3.791 8.972 3.242 10.636 1.273l.132-.166a3.674 3.674 0 0 0-.697-5.15 3.674 3.674 0 0 0-5.15.696l-.908.102a19.654 19.654 0 0 0 3.716-5.407l.874-2.082c1.807 1.333 3.562 3.31 4.337 5.633.75 2.243.463 4.774-1.035 6.848l-1.024 1.118a17.09 17.09 0 0 1-9.435 3.626l-.004.004Z"/>
    <radialGradient id="b" cx="28.271" cy="17.544" r="8.366" fx="28.271" fy="17.544" gradientUnits="userSpaceOnUse">
        <stop offset="0" stop-color="#fff"/>
        <stop offset="1" stop-color="#fff" stop-opacity="0"/>
    </radialGradient>
    <path fill="url(#b)" opacity=".9" style="mix-blend-mode:overlay" d="m27.15 7.059-1.25-.015c2.104 1.144 3.636 4.333 2.83 10.629a18.829 18.829 0 0 1-1.78 5.888 19.606 19.606 0 0 1-3.039 4.661l1.826 1.201a19.651 19.651 0 0 0 3.716-5.406 18.698 18.698 0 0 0 1.781-5.889c.96-7.492-1.397-10.587-4.085-11.065v-.004Z"/>
    <path fill="#fff" d="M28.73 17.669c.807-6.292-.726-9.484-2.83-10.629l-.245.049c2.06 1.186 3.543 4.371 2.748 10.58a18.83 18.83 0 0 1-1.78 5.888 19.516 19.516 0 0 1-2.91 4.51l.199.151a19.682 19.682 0 0 0 3.038-4.66 18.7 18.7 0 0 0 1.78-5.89Z" opacity=".8" style="mix-blend-mode:overlay"/>
    <radialGradient id="c" cx="15.908" cy="33.064" r="4.868" fx="15.908" fy="33.064" gradientUnits="userSpaceOnUse">
        <stop offset="0" stop-color="#fff"/>
        <stop offset="1" stop-color="#fff" stop-opacity="0"/>
    </radialGradient>
    <path fill="url(#c)" opacity=".5" style="mix-blend-mode:overlay" d="m20.73 31.942-.58-.467c-3.105 1.295-7.409 2.108-11.686 1.114l2.338 2.451c4.172.569 8.185-.756 10.919-2.379l-.99-.72Z"/>
    <linearGradient id="d" x1="8.603" y1="32.239" x2="13.294" y2="32.175" gradientUnits="userSpaceOnUse">
        <stop offset="0" stop-color="#fff" stop-opacity="0"/>
        <stop offset="1" stop-color="#fff"/>
    </linearGradient>
    <path fill="url(#d)" opacity=".6" style="mix-blend-mode:overlay" d="m20.154 31.475-.282-.237c-3.129 1.25-7.455 1.999-11.72.934l.316.417c4.273.994 8.58.181 11.686-1.114Z"/>
    <radialGradient id="e" cx="15.008" cy="18.794" r="13.321" fx="15.008" fy="18.794" gradientUnits="userSpaceOnUse">
        <stop offset="0" stop-color="#fff"/>
        <stop offset="1" stop-color="#fff" stop-opacity="0"/>
    </radialGradient>
    <path fill="url(#e)" opacity=".9" style="mix-blend-mode:overlay" d="m6.482 25.007.614 1.091c-.06-2.394 1.935-5.32 7.786-7.767a18.788 18.788 0 0 1 5.99-1.4c1.717-.155 3.58-.09 5.557.3l.124-2.179a19.621 19.621 0 0 0-6.54-.516 18.809 18.809 0 0 0-5.99 1.4c-6.969 2.915-8.47 6.503-7.54 9.074v-.003Z"/>
    <path fill="#fff" d="M14.882 18.335c-5.851 2.447-7.847 5.373-7.786 7.767l.165.185c-.003-2.376 2.015-5.252 7.786-7.67a18.787 18.787 0 0 1 5.99-1.4 19.59 19.59 0 0 1 5.362.263l.03-.248a19.651 19.651 0 0 0-5.557-.301 18.811 18.811 0 0 0-5.99 1.4v.004Z" opacity=".8" style="mix-blend-mode:overlay"/>
    <radialGradient id="f" cx="34.631" cy="21.742" r="3.742" fx="34.631" fy="21.742" gradientUnits="userSpaceOnUse">
        <stop offset="0" stop-color="#fff"/>
        <stop offset="1" stop-color="#fff" stop-opacity="0"/>
    </radialGradient>
    <path fill="url(#f)" opacity=".4" style="mix-blend-mode:overlay" d="m31.241 18.124-.113.734c2.673 2.041 5.531 5.366 6.811 9.563l.953-3.252c-1.593-3.897-4.748-6.71-7.52-8.265l-.13 1.22Z"/>
    <linearGradient id="g" x1="37.566" y1="28.477" x2="35.165" y2="24.446" gradientUnits="userSpaceOnUse">
        <stop offset="0" stop-color="#fff" stop-opacity="0"/>
        <stop offset="1" stop-color="#fff"/>
    </linearGradient>
    <path fill="url(#g)" opacity=".5" style="mix-blend-mode:overlay" d="m31.127 18.858-.064.366c2.647 2.085 5.46 5.455 6.668 9.683l.204-.485c-1.28-4.198-4.135-7.52-6.811-9.564h.003Z"/>
    <radialGradient id="h" cx="22.322" cy="29.268" r="10.262" fx="22.322" fy="29.268" gradientUnits="userSpaceOnUse">
        <stop offset="0" stop-color="#fff"/>
        <stop offset="1" stop-color="#fff" stop-opacity="0"/>
    </radialGradient>
    <path fill="url(#h)" opacity=".9" style="mix-blend-mode:overlay" d="m32.358 33.93.64-1.077c-2.044 1.25-5.572.983-10.621-2.861a18.717 18.717 0 0 1-4.21-4.488 19.53 19.53 0 0 1-2.518-4.963l-1.954.983a19.707 19.707 0 0 0 2.824 5.922 18.79 18.79 0 0 0 4.209 4.488c6.009 4.579 9.868 4.085 11.626 1.996h.004Z"/>
    <path fill="#fff" d="M22.383 29.992c5.045 3.844 8.576 4.11 10.62 2.86l.08-.233c-2.056 1.194-5.557.882-10.534-2.91a18.72 18.72 0 0 1-4.21-4.488 19.546 19.546 0 0 1-2.45-4.774l-.23.098a19.528 19.528 0 0 0 2.518 4.962 18.79 18.79 0 0 0 4.21 4.488l-.004-.003Z" opacity=".8" style="mix-blend-mode:overlay"/>
    <radialGradient id="i" cx="15.462" cy="11.19" r="3.466" fx="15.462" fy="11.19" gradientUnits="userSpaceOnUse">
        <stop offset="0" stop-color="#fff"/>
        <stop offset="1" stop-color="#fff" stop-opacity="0"/>
    </radialGradient>
    <path fill="url(#i)" opacity=".3" style="mix-blend-mode:overlay" d="m14.02 15.93.693-.268c.429-3.336 1.878-7.474 4.875-10.678l-3.294.799c-2.58 3.328-3.438 7.466-3.4 10.643l1.126-.497Z"/>
    <linearGradient id="j" x1="19.825" y1="5.275" x2="17.538" y2="9.372" gradientUnits="userSpaceOnUse">
        <stop offset="0" stop-color="#fff" stop-opacity="0"/>
        <stop offset="1" stop-color="#fff"/>
    </linearGradient>
    <path fill="url(#j)" opacity=".4" style="mix-blend-mode:overlay" d="m14.713 15.662.347-.128c.482-3.336 1.995-7.455 5.048-10.617l-.52.064c-2.996 3.207-4.446 7.341-4.875 10.677v.004Z"/>
    <linearGradient id="k" x1="20.846" y1="3.192" x2="13.678" y2="5.278" gradientUnits="userSpaceOnUse">
        <stop offset="0" stop-color="#231f20"/>
        <stop offset="1" stop-color="#fff"/>
    </linearGradient>
    <path fill="url(#k)" opacity=".4" style="mix-blend-mode:multiply" d="M20.507.052a21.939 21.939 0 0 0-15.04 7.436l3.945 2.805a17.181 17.181 0 0 1 6.897-4.522l.584-.708C19.378 2.26 22.77.78 26.708.78l1.348.071a21.848 21.848 0 0 0-7.549-.798Z"/>
    <linearGradient id="l" x1="7.304" y1="30.526" x2="13.298" y2="36.784" gradientUnits="userSpaceOnUse">
        <stop offset="0" stop-color="#231f20"/>
        <stop offset="1" stop-color="#fff"/>
    </linearGradient>
    <path fill="url(#l)" opacity=".4" style="mix-blend-mode:multiply" d="M23.166 39.16a17.126 17.126 0 0 1-12.36-4.116l-.926-.154c-3.671-.75-6.653-2.948-8.618-6.355l-.592-1.16c2.542 10.132 12.033 17.308 22.82 16.573l-.324-4.789Z"/>
    <linearGradient id="m" x1="39.472" y1="29.585" x2="41.558" y2="23.245" gradientUnits="userSpaceOnUse">
        <stop offset="0" stop-color="#231f20"/>
        <stop offset="1" stop-color="#fff"/>
    </linearGradient>
    <path fill="url(#m)" opacity=".4" style="mix-blend-mode:multiply" d="m43.945 20.508-4.79.327.06 5.215c1.187 3.554.773 7.232-1.193 10.643l-.693 1.077c4.47-4.348 7.071-10.553 6.616-17.259v-.003Z"/>
    <linearGradient id="n" x1="24.112" y1="6.822" x2="33.72" y2="9.02" gradientUnits="userSpaceOnUse">
        <stop offset="0" stop-color="#231f20"/>
        <stop offset="1" stop-color="#fff"/>
    </linearGradient>
    <path fill="url(#n)" opacity=".5" style="mix-blend-mode:multiply" d="m26.936 5.722 1.525.343a17.296 17.296 0 0 1 5.131 3.245l2.124-1.724s-2.127-2.176-5.384-2.854c-2.278-.474-7.417-.93-10.659 4.586l.813-1.07c1.57-1.773 3.905-2.785 6.45-2.526Z"/>
    <linearGradient id="o" x1="34.091" y1="31.416" x2="27.378" y2="38.639" gradientUnits="userSpaceOnUse">
        <stop offset="0" stop-color="#231f20"/>
        <stop offset="1" stop-color="#fff"/>
    </linearGradient>
    <path fill="url(#o)" opacity=".5" style="mix-blend-mode:multiply" d="M33.63 34.412 32.57 35.56a17.31 17.31 0 0 1-5.376 2.82l.433 2.7s2.948-.754 5.162-3.235c1.547-1.735 4.514-5.96 1.359-11.524l.52 1.238c.749 2.244.463 4.774-1.036 6.849l-.004.004Z"/>
    <linearGradient id="p" x1="7.798" y1="27.765" x2="4.902" y2="18.342" gradientUnits="userSpaceOnUse">
        <stop offset="0" stop-color="#231f20"/>
        <stop offset="1" stop-color="#fff"/>
    </linearGradient>
    <path fill="url(#p)" opacity=".5" style="mix-blend-mode:multiply" d="m5.437 25.869-.467-1.495a17.361 17.361 0 0 1 .245-6.065l-2.557-.975s-.82 2.933.222 6.088c.73 2.21 2.903 6.89 9.3 6.938l-1.333-.169c-2.319-.474-4.363-1.988-5.414-4.322h.004Z"/>
    <linearGradient id="q" x1="26.21" y1="10.364" x2="23.171" y2="13.407" gradientUnits="userSpaceOnUse">
        <stop offset="0" stop-color="#231f20"/>
        <stop offset="1" stop-color="#fff"/>
    </linearGradient>
    <path fill="url(#q)" opacity=".6" style="mix-blend-mode:multiply" d="m26.006 14.314.52.026-.395-3.46c-.283-1.17-.697-1.95-1.149-2.39-.327-.317-1.355-.708-2.153 1.709a3.67 3.67 0 0 0 3.177 4.111v.004Z"/>
    <linearGradient id="r" x1="9.816" y1="24.164" x2="13.969" y2="25.28" gradientUnits="userSpaceOnUse">
        <stop offset="0" stop-color="#231f20"/>
        <stop offset="1" stop-color="#fff"/>
    </linearGradient>
    <path fill="url(#r)" opacity=".5" style="mix-blend-mode:multiply" d="m13.336 22.371-.237-.463-2.797 2.07c-.874.83-1.34 1.578-1.495 2.192-.109.44.064 1.525 2.557 1.009a3.676 3.676 0 0 0 1.972-4.808Z"/>
    <linearGradient id="s" x1="29.962" y1="31.462" x2="28.85" y2="27.312" gradientUnits="userSpaceOnUse">
        <stop offset="0" stop-color="#231f20"/>
        <stop offset="1" stop-color="#fff"/>
    </linearGradient>
    <path fill="url(#s)" opacity=".6" style="mix-blend-mode:multiply" d="m26.646 29.31-.282.44 3.192 1.386c1.156.343 2.037.373 2.643.2.437-.125 1.288-.821-.403-2.719a3.674 3.674 0 0 0-5.15.697v-.004Z"/>
    <linearGradient id="t" x1="23.644" y1="27.77" x2="25.47" y2="25.251" gradientUnits="userSpaceOnUse">
        <stop offset="0" stop-color="#231f20"/>
        <stop offset="1" stop-color="#fff"/>
    </linearGradient>
    <path fill="url(#t)" opacity=".3" style="mix-blend-mode:multiply" d="m25.858 19.834-3.92 6.592 3.8 2.993a19.651 19.651 0 0 0 3.715-5.406l.874-2.082-4.47-2.098Z"/>
    <linearGradient id="u" x1="17.365" y1="26.678" x2="13.716" y2="28.418" gradientUnits="userSpaceOnUse">
        <stop offset="0" stop-color="#231f20"/>
        <stop offset="1" stop-color="#fff"/>
    </linearGradient>
    <path fill="url(#u)" opacity=".3" style="mix-blend-mode:multiply" d="M10.806 35.044c4.172.569 8.185-.757 10.919-2.38l-3.84-3.414c-2.056.9-4.647 1.427-7.045.937-2.32-.474-4.364-1.988-5.414-4.322l-.452-1.427a17.14 17.14 0 0 0 5.828 10.606h.004Z"/>
    <linearGradient id="v" x1="16.04" y1="20.605" x2="17.169" y2="22.951" gradientUnits="userSpaceOnUse">
        <stop offset="0" stop-color="#231f20"/>
        <stop offset="1" stop-color="#fff"/>
    </linearGradient>
    <path fill="url(#v)" opacity=".3" style="mix-blend-mode:multiply" d="m21.94 26.426-3.743-6.69-4.484 1.788c.67 2.323 1.66 4.285 2.816 5.926l1.363 1.796 4.048-2.82Z"/>
    <linearGradient id="w" x1="21.293" y1="13.361" x2="20.513" y2="10.669" gradientUnits="userSpaceOnUse">
        <stop offset="0" stop-color="#231f20"/>
        <stop offset="1" stop-color="#fff"/>
    </linearGradient>
    <path fill="url(#w)" opacity=".3" style="mix-blend-mode:multiply" d="M16.296 5.786c-2.579 3.329-3.437 7.466-3.4 10.644l4.876-1.619c.249-2.229 1.088-4.736 2.711-6.566 1.57-1.773 3.904-2.786 6.45-2.527l1.524.343a17.059 17.059 0 0 0-7.628-1.224l-4.533.95Z"/>
    <linearGradient id="x" x1="29.718" y1="25.692" x2="31.977" y2="26.211" gradientUnits="userSpaceOnUse">
        <stop offset="0" stop-color="#231f20"/>
        <stop offset="1" stop-color="#fff"/>
    </linearGradient>
    <path fill="url(#x)" opacity=".3" style="mix-blend-mode:multiply" d="M38.893 25.165c-1.596-3.897-4.751-6.713-7.522-8.268l-1.04 5.034c1.808 1.332 3.562 3.309 4.338 5.632.75 2.244.463 4.774-1.035 6.849L32.61 35.53a17.253 17.253 0 0 0 6.298-10.339l-.015-.026Z"/>
    <linearGradient id="y" x1="26.175" y1="18.06" x2="23.309" y2="17.541" gradientUnits="userSpaceOnUse">
        <stop offset="0" stop-color="#231f20"/>
        <stop offset="1" stop-color="#fff"/>
    </linearGradient>
    <path fill="url(#y)" opacity=".3" style="mix-blend-mode:multiply" d="m17.76 17.462.433 2.274 7.665.094.693-4.786a19.7 19.7 0 0 0-6.536-.515l-2.24.282-.015 2.65Z"/>
</svg>
