<?xml version="1.0" encoding="UTF-8"?>
<svg id="Layer_1" data-name="Layer 1" xmlns="http://www.w3.org/2000/svg" viewBox="0 0 139 137">
  <defs>
    <style>
      .cls-1 {
        fill: #fff;
        stroke-width: 0px;
      }
    </style>
  </defs>
  <path class="cls-1" d="M87.01,0l49.37,86.39c1.71-6.04,2.62-12.42,2.62-19.01C139,35,116.92,7.78,87.01,0h0Z"/>
  <path class="cls-1" d="M87.01,0l49.37,86.39c1.71-6.04,2.62-12.42,2.62-19.01C139,35,116.92,7.78,87.01,0h0Z"/>
  <path class="cls-1" d="M69.5,137c19.58,0,37.26-8.12,49.9-21.16H19.6c12.63,13.05,30.32,21.16,49.9,21.16h0Z"/>
  <path class="cls-1" d="M69.5,137c19.58,0,37.26-8.12,49.9-21.16H19.6c12.63,13.05,30.32,21.16,49.9,21.16h0Z"/>
  <path class="cls-1" d="M0,67.39c0,6.59.92,12.97,2.62,19.01L51.99,0C22.09,7.78,0,35,0,67.39Z"/>
  <path class="cls-1" d="M0,67.39c0,6.59.92,12.97,2.62,19.01L51.99,0C22.09,7.78,0,35,0,67.39Z"/>
  <path class="cls-1" d="M102.53,86.28l-33.03-57.8-33.02,57.8h66.05Z"/>
  <path class="cls-1" d="M102.53,86.28l-33.03-57.8-33.02,57.8h66.05Z"/>
</svg>