<?xml version="1.0" encoding="UTF-8"?>
<svg id="Layer_2" data-name="Layer 2" xmlns="http://www.w3.org/2000/svg" viewBox="0 0 575.24 625.47">
  <defs>
    <style>
      .cls-1 {
        fill: #f5bb66;
      }

      .cls-1, .cls-2, .cls-3, .cls-4, .cls-5, .cls-6, .cls-7, .cls-8, .cls-9, .cls-10, .cls-11, .cls-12, .cls-13, .cls-14 {
        stroke-width: 0px;
      }

      .cls-2 {
        fill: #0f2333;
      }

      .cls-3 {
        fill: #f8a490;
      }

      .cls-15 {
        stroke: #133244;
      }

      .cls-15, .cls-16 {
        fill: none;
        stroke-miterlimit: 10;
        stroke-width: 18px;
      }

      .cls-4 {
        fill: #3c3b44;
      }

      .cls-5 {
        fill: #15141a;
      }

      .cls-6 {
        fill: #fcf2e2;
      }

      .cls-16 {
        stroke: #0b0b0d;
      }

      .cls-7 {
        fill: #cf8453;
      }

      .cls-8 {
        fill: #fffffd;
      }

      .cls-9 {
        opacity: .59;
      }

      .cls-9, .cls-14 {
        fill: #c26a4f;
      }

      .cls-10 {
        fill: #55545a;
      }

      .cls-11 {
        fill: #191720;
      }

      .cls-12 {
        fill: #fff;
      }

      .cls-13 {
        fill: #0b0b0d;
      }
    </style>
  </defs>
  <g id="Layer_1-2" data-name="Layer 1">
    <g>
      <path id="Shape" class="cls-12" d="M538.61,244.89c12.88-24.56,14.57-83.56,9.98-113.29-6.06-39.25-12.87-105.27-51.78-117.5-43.94-13.81-124.87,86.73-131,105.76-23.12-5.68-47.42-8.72-72.5-8.72s-49.08,3.01-72.07,8.62C214.84,100.45,134.13.31,90.28,14.1c-38.91,12.23-45.72,78.25-51.78,117.5-4.56,29.56-2.91,88.07,9.77,112.88-21.4,36.04-33.56,77.34-33.56,121.23,0,140.59,124.74,254.57,278.62,254.57s278.62-113.97,278.62-254.57c0-43.72-12.07-84.86-33.32-120.81Z"/>
      <g id="Eyepatch">
        <path class="cls-1" d="M19.15,426.79c5.64-34.17,20.92-69.93,51.27-90.42,8.62-5.82,35.17-23.75,63.19-17.09,23.16,5.5,26.76,21.72,47.14,23.83,15.02,1.55,24-9.5,54.73-30.37,25.63-17.41,41.84-27.35,44.2-39.04,3.88-19.19.02-29.43-9.32-75.11-8.69-42.44-14.44-71.95-6.86-90.21-16.08,1.32-31.77,3.88-46.95,7.58C210.15,96.65,129.43-3.49,85.58,10.3c-38.91,12.23-45.72,78.25-51.78,117.5-4.56,29.56-2.91,88.07,9.77,112.88-21.4,36.04-33.56,77.34-33.56,121.23,0,22.43,3.19,44.17,9.15,64.88Z"/>
        <path class="cls-1" d="M558.09,426.79c-5.64-34.17-20.92-69.93-51.27-90.42-8.62-5.82-35.17-23.75-63.19-17.09-23.16,5.5-26.76,21.72-47.14,23.83-15.02,1.55-24-9.5-54.73-30.37-25.63-17.41-41.84-27.35-44.2-39.04-3.88-19.19-.02-29.43,9.32-75.11,8.69-42.44,14.44-71.95,6.86-90.21,16.08,1.32,31.77,3.88,46.95,7.58,6.4-19.31,87.12-119.45,130.97-105.66,38.91,12.23,45.72,78.25,51.78,117.5,4.56,29.56,2.91,88.07-9.77,112.88,21.4,36.04,33.56,77.34,33.56,121.23,0,22.43-3.19,44.17-9.15,64.88Z"/>
      </g>
      <g id="Eyes">
        <circle class="cls-2" cx="191.32" cy="305.63" r="21.76"/>
        <circle class="cls-2" cx="389.53" cy="305.63" r="21.76"/>
      </g>
      <path id="Outline" class="cls-15" d="M532.92,241.1c12.88-24.56,14.57-83.56,9.98-113.29-6.06-39.25-12.87-105.27-51.78-117.5-43.94-13.81-124.87,86.73-131,105.76-23.12-5.68-47.42-8.72-72.5-8.72s-49.08,3.01-72.07,8.62C209.15,96.65,128.43-3.49,84.58,10.3c-38.91,12.23-45.72,78.25-51.78,117.5-4.56,29.56-2.91,88.07,9.77,112.88-21.4,36.04-33.56,77.34-33.56,121.23,0,140.59,124.74,254.57,278.62,254.57s278.62-113.97,278.62-254.57c0-43.72-12.07-84.86-33.32-120.81Z"/>
      <g id="Ears">
        <path class="cls-7" d="M507.5,190.9c8.63-11.74,5.02-128.16-21.06-131.22-1.9-.22-3.37.14-4.14.35-23.02,6.16-68.37,74.24-68.03,94.96,36.26,8.98,62.16,21.06,93.24,35.91Z"/>
        <path class="cls-7" d="M69.07,187.53c-8.63-11.74-5.02-128.16,21.06-131.22,1.9-.22,3.37.14,4.14.35,23.02,6.16,68.37,74.24,68.03,94.96-36.26,8.98-62.16,21.06-93.24,35.91Z"/>
      </g>
      <path class="cls-2" d="M339.78,373.5c0,14.59-21.57,43.33-48.17,43.33s-48.17-28.74-48.17-43.33,21.57-26.42,48.17-26.42,48.17,11.83,48.17,26.42Z"/>
      <g id="Mouth">
        <path class="cls-2" d="M410.19,411.47c-12.6-10.01-8.62,26.89-64.49,27.19-47.57.26-52.45-36.88-54.1-40.14v167.48c55.05-4.49,61.04-30.55,76.63-65.78,27.28-61.64,49.21-77.23,41.96-88.75Z"/>
        <path class="cls-2" d="M173.01,411.47c12.6-10.01,8.62,26.89,64.49,27.19,47.57.26,52.45-36.88,54.1-40.14v167.48c-55.05-4.49-61.04-30.55-76.63-65.78-27.28-61.64-49.21-77.23-41.96-88.75Z"/>
      </g>
      <g id="Tounge">
        <path class="cls-3" d="M291.6,535.1s28.8,0,37.76-25.71c4.18-12.02,3.83-49.57,3.83-49.57-4.45-3.15-12.06-8.21-18.99-11.22-6.93-3.01-12.17-5.4-22.59-6.82v93.32Z"/>
        <path class="cls-3" d="M291.6,535.1s-28.8,0-37.76-25.71c-4.18-12.02-3.83-49.57-3.83-49.57,4.45-3.15,12.06-8.21,18.99-11.22,6.93-3.01,12.17-5.4,22.59-6.82v93.32Z"/>
      </g>
      <g>
        <path class="cls-14" d="M293.49,471.59c-.64.02-1.26.04-1.88.05v-29.87c10.42,1.42,15.66,3.81,22.59,6.82,6.93,3.01,14.55,8.07,18.99,11.22,0,0,.07,7.09-.2,16.09-8.48-2.57-20.69-4.84-39.5-4.32Z"/>
        <path class="cls-14" d="M289.72,471.59c.64.02,1.26.04,1.88.05v-29.87c-10.42,1.42-15.66,3.81-22.59,6.82-6.93,3.01-14.55,8.07-18.99,11.22,0,0-.07,7.09.2,16.09,8.48-2.57,20.69-4.84,39.5-4.32Z"/>
      </g>
      <g id="Eyebrows">
        <path class="cls-9" d="M235.06,251.42c4.46,9.83-1.04,22.4-11.38,22.4-13.7,0-21.22-10.61-25.91-13.59-7.94-5.04-20.72-5.35-21.76-14.68-1.8-16.17,16.95-22.54,31.77-18.13s22.33,13.11,27.28,24Z"/>
        <path class="cls-9" d="M342.17,251.42c-4.46,9.83,1.04,22.4,11.38,22.4,13.7,0,21.22-10.61,25.91-13.59,7.94-5.04,20.72-5.35,21.76-14.68,1.8-16.17-16.95-22.54-31.77-18.13-14.5,4.32-22.33,13.11-27.28,24Z"/>
      </g>
    </g>
    <g>
      <path id="Shape-2" data-name="Shape" class="cls-4" d="M538.61,244.89c12.88-24.56,14.57-83.56,9.98-113.29-6.06-39.25-12.87-105.27-51.78-117.5-43.94-13.81-124.87,86.73-131,105.76-23.12-5.68-47.42-8.72-72.5-8.72s-49.08,3.01-72.07,8.62C214.84,100.45,134.13.31,90.28,14.1c-38.91,12.23-45.72,78.25-51.78,117.5-4.56,29.56-2.91,88.07,9.77,112.88-21.4,36.04-33.56,77.34-33.56,121.23,0,140.59,124.74,254.57,278.62,254.57s278.62-113.97,278.62-254.57c0-43.72-12.07-84.86-33.32-120.81Z"/>
      <g id="Eyepatch-2" data-name="Eyepatch">
        <path id="Outline-2" data-name="Outline" class="cls-6" d="M534.02,242.97c-.67-1.15-.74-2.54-.17-3.75,12.03-25.57,13.53-82.42,9.06-111.43-6.06-39.25-12.87-105.27-51.78-117.5-41.19-12.95-114.9,74.61-129,101.29-1.14,2.15-3.84,2.83-5.87,1.49-4.93-3.24-11.78-6.13-19.98-8.28-1.43-.38-2.58-1.51-2.89-2.96-2.81-13.29,11.05-41.81,7.24-42.24-6.99-.79-22.19,16.79-33.71,29.35-2.86,3.12-7.98.34-6.93-3.76,2.03-7.87,2.92-17.86-.41-28.47-6.83-21.8-34.24-39.54-36.02-32.13-7.5,31.13-22.81,57.73-40.24,85.93-1.51,2.44-5.63.74-6.41-2.02C209.23,81.43,123.31-1.88,84.58,10.3c-38.91,12.23-45.72,78.25-51.78,117.5-4.45,28.85-2.99,85.26,8.86,111.02.55,1.2.47,2.58-.19,3.72-20.72,35.6-32.47,76.23-32.47,119.36,0,140.59,124.74,254.57,278.62,254.57s278.62-113.97,278.62-254.57c0-42.96-11.65-83.43-32.22-118.93Z"/>
        <path id="Shape-3" data-name="Shape" class="cls-6" d="M538.61,244.89c12.88-24.56,14.57-83.56,9.98-113.29-6.06-39.25-12.87-105.27-51.78-117.5-43.94-13.81-124.87,86.73-131,105.76-23.12-5.68-47.42-8.72-72.5-8.72s-49.08,3.01-72.07,8.62C214.84,100.45,134.13.31,90.28,14.1c-38.91,12.23-45.72,78.25-51.78,117.5-4.56,29.56-2.91,88.07,9.77,112.88-21.4,36.04-33.56,77.34-33.56,121.23,0,140.59,124.74,254.57,278.62,254.57s278.62-113.97,278.62-254.57c0-43.72-12.07-84.86-33.32-120.81Z"/>
        <path class="cls-11" d="M19.15,426.79c5.64-34.17,20.92-69.93,51.27-90.42,8.62-5.82,35.17-23.75,63.19-17.09,23.16,5.5,26.76,21.72,47.14,23.83,15.02,1.55,24-9.5,54.73-30.37,25.63-17.41,41.84-27.35,44.2-39.04,3.88-19.19,13.91-34.69-9.32-75.11-12.77-22.21-31.15-52.25-33.73-89.55-16.08,1.32-4.9,3.22-20.08,6.92C203.57,86.29,129.43-3.49,85.58,10.3c-38.91,12.23-45.72,78.25-51.78,117.5-4.56,29.56-2.91,88.07,9.77,112.88-21.4,36.04-33.56,77.34-33.56,121.23,0,22.43,3.19,44.17,9.15,64.88Z"/>
        <path class="cls-11" d="M558.09,426.79c-5.64-34.17-20.92-69.93-51.27-90.42-8.62-5.82-35.17-23.75-63.19-17.09-23.16,5.5-26.76,21.72-47.14,23.83-15.02,1.55-24-9.5-54.73-30.37-25.63-17.41-41.84-27.35-44.2-39.04-3.88-19.19-8.2-31.9,9.32-75.11,19.09-47.07,18.12-71.03,10.54-89.29,16.08,1.32,28.09,2.96,43.27,6.66,6.4-19.31,87.12-119.45,130.97-105.66,38.91,12.23,45.72,78.25,51.78,117.5,4.56,29.56,2.91,88.07-9.77,112.88,21.4,36.04,33.56,77.34,33.56,121.23,0,22.43-3.19,44.17-9.15,64.88Z"/>
      </g>
      <g id="Eyes-2" data-name="Eyes">
        <circle class="cls-8" cx="191.32" cy="305.63" r="21.76"/>
        <circle class="cls-8" cx="389.53" cy="305.63" r="21.76"/>
      </g>
      <path id="Outline-3" data-name="Outline" class="cls-16" d="M532.92,241.1c12.88-24.56,14.57-83.56,9.98-113.29-6.06-39.25-12.87-105.27-51.78-117.5-43.94-13.81-124.87,86.73-131,105.76-5.15-4.73-14.31-8.99-25.96-11.79,14.86-15.96,10.51-44.21,6.45-44.67-10.78-1.21-35.54,29.09-41.81,29.58,2.17-3.59,7.6-10.68.77-32.46-6.83-21.8-33.57-39.35-36.02-32.13-13.79,40.61-41.54,105.27-48,91.36C206.98,97.51,128.43-3.49,84.58,10.3c-38.91,12.23-45.72,78.25-51.78,117.5-4.56,29.56-2.91,88.07,9.77,112.88-21.4,36.04-33.56,77.34-33.56,121.23,0,140.59,124.74,254.57,278.62,254.57s278.62-113.97,278.62-254.57c0-43.72-12.07-84.86-33.32-120.81Z"/>
      <g id="Ears-2" data-name="Ears">
        <path class="cls-10" d="M507.5,190.9c8.63-11.74,5.02-128.16-21.06-131.22-1.9-.22-3.37.14-4.14.35-23.02,6.16-68.37,74.24-68.03,94.96,36.26,8.98,62.16,21.06,93.24,35.91Z"/>
        <path class="cls-10" d="M69.07,187.53c-8.63-11.74-5.02-128.16,21.06-131.22,1.9-.22,3.37.14,4.14.35,23.02,6.16,68.37,74.24,68.03,94.96-36.26,8.98-62.16,21.06-93.24,35.91Z"/>
      </g>
      <g id="Mouth-2" data-name="Mouth">
        <path class="cls-5" d="M410.19,411.47c-12.6-10.01-8.62,26.89-64.49,27.19-47.57.26-52.45-36.88-54.1-40.14v167.48c55.05-4.49,61.04-30.55,76.63-65.78,27.28-61.64,49.21-77.23,41.96-88.75Z"/>
        <path class="cls-5" d="M173.01,411.47c12.6-10.01,8.62,26.89,64.49,27.19,47.57.26,52.45-36.88,54.1-40.14v167.48c-55.05-4.49-61.04-30.55-76.63-65.78-27.28-61.64-49.21-77.23-41.96-88.75Z"/>
      </g>
      <path class="cls-13" d="M339.78,373.5c0,14.59-21.57,43.33-48.17,43.33s-48.17-28.74-48.17-43.33,21.57-26.42,48.17-26.42,48.17,11.83,48.17,26.42Z"/>
      <g id="Tounge-2" data-name="Tounge">
        <path class="cls-3" d="M291.6,535.1s28.8,0,37.76-25.71c4.18-12.02,3.83-49.57,3.83-49.57-4.45-3.15-12.06-8.21-18.99-11.22-6.93-3.01-12.17-5.4-22.59-6.82v93.32Z"/>
        <path class="cls-3" d="M291.6,535.1s-28.8,0-37.76-25.71c-4.18-12.02-3.83-49.57-3.83-49.57,4.45-3.15,12.06-8.21,18.99-11.22,6.93-3.01,12.17-5.4,22.59-6.82v93.32Z"/>
      </g>
      <g>
        <path class="cls-14" d="M293.49,471.59c-.64.02-1.26.04-1.88.05v-29.87c10.42,1.42,15.66,3.81,22.59,6.82,6.93,3.01,14.55,8.07,18.99,11.22,0,0,.07,7.09-.2,16.09-8.48-2.57-20.69-4.84-39.5-4.32Z"/>
        <path class="cls-14" d="M289.72,471.59c.64.02,1.26.04,1.88.05v-29.87c-10.42,1.42-15.66,3.81-22.59,6.82-6.93,3.01-14.55,8.07-18.99,11.22,0,0-.07,7.09.2,16.09,8.48-2.57,20.69-4.84,39.5-4.32Z"/>
      </g>
      <g id="Eyebrows-2" data-name="Eyebrows">
        <path class="cls-10" d="M235.06,251.42c4.46,9.83-1.04,22.4-11.38,22.4-13.7,0-21.22-10.61-25.91-13.59-7.94-5.04-20.72-5.35-21.76-14.68-1.8-16.17,16.95-22.54,31.77-18.13s22.33,13.11,27.28,24Z"/>
        <path class="cls-10" d="M342.17,251.42c-4.46,9.83,1.04,22.4,11.38,22.4,13.7,0,21.22-10.61,25.91-13.59,7.94-5.04,20.72-5.35,21.76-14.68,1.8-16.17-16.95-22.54-31.77-18.13-14.5,4.32-22.33,13.11-27.28,24Z"/>
      </g>
    </g>
  </g>
</svg>