<svg viewBox="0 0 225 225" fill="none" xmlns="http://www.w3.org/2000/svg">
    <g clip-path="url(#a)">
        <path d="M112.08 224.16c61.9 0 112.08-50.18 112.08-112.08S173.98 0 112.08 0 0 50.18 0 112.08s50.18 112.08 112.08 112.08Z" fill="#C0FF00"/>
        <path d="M161.59 74.77a24.931 24.931 0 0 0-24.93-24.92H62.58v124.46h74.08a24.931 24.931 0 0 0 24.93-24.92 24.874 24.874 0 0 0-8.41-18.66 24.83 24.83 0 0 0 8.41-18.65 24.852 24.852 0 0 0-8.41-18.65 24.88 24.88 0 0 0 8.41-18.66ZM78.11 62.39h54.81a12.39 12.39 0 0 1 0 24.77H78.11V62.39Zm0 37.31h54.81a12.38 12.38 0 1 1 0 24.76H78.11V99.7Zm54.81 62.07H78.11V137h54.81a12.39 12.39 0 0 1 0 24.77Z" fill="#061C00"/>
    </g>
    <defs>
        <clipPath id="a">
            <path fill="#fff" d="M0 0h224.16v224.16H0z"/>
        </clipPath>
    </defs>
</svg>
