<svg viewBox="0 0 1000 1000" xmlns="http://www.w3.org/2000/svg">
    <path fill="#fff" fill-rule="evenodd" d="M1000 500C1000 223.858 776.142 0 500 0S0 223.858 0 500s223.858 500 500 500 500-223.858 500-500Z"/>
    <path d="M687.2 269.333c-1.333 7.2-7.467 14.534-15.333 18.534l-7.067 3.466H501.2c-139.467 0-165.2.267-175.067 2-23.2 4-42.266 13.867-58.133 30-15.733 15.867-23.6 33.067-24.933 54.267l-.8 12.4h7.466c7.067 0 7.6-.267 8.4-3.733 1.467-6.267 5.867-12.8 10.534-16.134 9.733-6.666 10.533-6.666 76.8-6.8 60.933 0 62.266 0 65.733 2.8l3.467 2.667V522c0 152 0 153.067 2.8 162.133 12.133 39.467 43.866 68.4 86.266 78.8 11.2 2.667 39.067 3.067 50.267.534 39.2-8.667 70.933-34.8 85.733-70.667 3.467-8.533 6.934-21.733 6.934-27.2v-3.733l-12.267.4-12.267.4-1.466 6.666c-4.534 19.467-19.867 33.2-41.734 36.934-24.266 4.133-49.6-9.2-57.466-30.4-2.8-7.2-2.8-9.2-2.8-157.2 0-148.267 0-150 2.666-152.667 2.534-2.533 4.4-2.667 46.667-2.667 34.933 0 46.267-.4 54.267-2.133 46.8-9.6 80.4-45.867 80.4-86.8v-9.733h-7.334c-7.2 0-7.2 0-8.133 4.666Z"/>
</svg>
