<svg viewBox="0 0 442 442" xmlns="http://www.w3.org/2000/svg">
    <path fill="#fff" fill-rule="evenodd" d="M442 221C442 98.945 343.055 0 221 0S0 98.945 0 221s98.945 221 221 221 221-98.945 221-221Z"/>
    <path fill="#242423" fill-rule="evenodd" d="M153.733 124.867c-7.066 1.866-14.133 6.933-18.4 12.933-2.8 3.867-6.666 14.267-6.666 18.133 0 1.334 7.066 1.734 37.333 1.734h37.333v66.4c0 74.533.134 75.866 8.934 84.933 7.466 7.6 15.066 10.533 27.733 10.533 8.533.134 12-.533 17.2-3.066l6.533-3.2-5.6-1.734c-7.6-2.266-11.6-5.066-14.4-10.266-2.133-3.867-2.533-10-3.066-60.267-.667-49.467-1.067-56.533-3.067-61.067-3.467-7.6-11.467-15.6-18.933-19.066l-6.667-3.2h34.8c41.467 0 45.467-.8 55.2-10.667 6-5.867 10.667-15.733 10.667-22.267 0-2.533-149.6-2.4-158.934.134Z"/>
</svg>
