<?xml version="1.0" standalone="no"?>
<!DOCTYPE svg PUBLIC "-//W3C//DTD SVG 20010904//EN"
 "http://www.w3.org/TR/2001/REC-SVG-20010904/DTD/svg10.dtd">
<svg version="1.0" xmlns="http://www.w3.org/2000/svg"
 width="804.000000pt" height="772.000000pt" viewBox="0 0 804.000000 772.000000"
 preserveAspectRatio="xMidYMid meet">

<g transform="translate(0.000000,772.000000) scale(0.100000,-0.100000)"
fill="#000000" stroke="none">
<path d="M5424 5585 c-10 -54 -56 -109 -115 -139 l-53 -26 -1227 0 c-1046 0
-1239 -2 -1313 -15 -174 -30 -317 -104 -436 -225 -118 -119 -177 -248 -187
-407 l-6 -93 56 0 c53 0 57 2 63 28 11 47 44 96 79 121 73 50 79 50 576 51
457 0 467 0 493 -21 l26 -20 0 -1149 c0 -1140 0 -1148 21 -1216 91 -296 329
-513 647 -591 84 -20 293 -23 377 -4 294 65 532 261 643 530 26 64 52 163 52
204 l0 28 -92 -3 -92 -3 -11 -50 c-34 -146 -149 -249 -313 -277 -182 -31 -372
69 -431 228 -21 54 -21 69 -21 1179 0 1112 0 1125 20 1145 19 19 33 20 350 20
262 0 347 3 407 16 351 72 603 344 603 651 l0 73 -55 0 c-54 0 -54 0 -61 -35z"/>
</g>
</svg>
