<svg viewBox="0 0 74 74" xmlns="http://www.w3.org/2000/svg">
    <path fill="#050606" fill-rule="evenodd" d="M74 37C74 16.565 57.435 0 37 0S0 16.565 0 37s16.565 37 37 37 37-16.565 37-37Z"/>
    <path fill="none" stroke="#9244e0" stroke-width="4.411" d="M29.772 45.092a10.712 10.712 0 0 0 7.596 3.141c3.45 0 6.527-1.635 8.492-4.167l7.33 6.247a21.053 21.053 0 0 1-4.045 3.981A20.887 20.887 0 0 1 36.6 58.468c-7.682 0-14.402-4.138-18.06-10.306a20.48 20.48 0 0 1-1.435-2.927c2.676-1.836 4.376-4.619 4.376-7.739 0-3.113-1.7-5.895-4.376-7.739a21.38 21.38 0 0 1 1.428-2.905c3.65-6.175 10.378-10.32 18.067-10.32 6.75 0 12.753 3.191 16.59 8.154l-7.33 6.247A10.722 10.722 0 0 0 33.4 27.52a10.764 10.764 0 0 0-3.629 2.388"/>
</svg>
