<?xml version="1.0" standalone="no"?>
<!DOCTYPE svg PUBLIC "-//W3C//DTD SVG 20010904//EN"
 "http://www.w3.org/TR/2001/REC-SVG-20010904/DTD/svg10.dtd">
<svg version="1.0" xmlns="http://www.w3.org/2000/svg"
 width="400.000000pt" height="400.000000pt" viewBox="0 0 400.000000 400.000000"
 preserveAspectRatio="xMidYMid meet">
<metadata>
Created by potrace 1.16, written by Peter Selinger 2001-2019
</metadata>
<g transform="translate(0.000000,400.000000) scale(0.100000,-0.100000)"
fill="#000000" stroke="none">
<path d="M0 2000 l0 -2000 2000 0 2000 0 0 2000 0 2000 -2000 0 -2000 0 0
-2000z m1804 1437 c55 -35 156 -99 223 -141 l121 -77 211 131 c117 72 222 135
235 140 20 7 42 -3 137 -61 233 -143 383 -240 391 -253 4 -6 8 -149 8 -319 0
-296 -1 -308 -20 -325 -44 -37 -483 -302 -502 -302 -11 0 -118 61 -237 135
-120 74 -220 135 -224 135 -4 0 -286 -169 -384 -231 -23 -14 -23 -16 -23 -261
l0 -247 83 -54 c45 -30 120 -78 167 -107 47 -29 87 -56 90 -60 3 -3 19 -12 36
-19 35 -14 6 -29 357 188 86 53 124 71 140 67 12 -3 49 -23 82 -44 33 -21 84
-54 113 -72 30 -18 60 -39 68 -47 7 -8 15 -12 17 -11 2 2 54 -29 115 -69 l112
-72 0 -313 c-1 -237 -4 -317 -13 -330 -15 -18 -370 -244 -447 -283 -27 -14
-57 -25 -66 -25 -9 0 -114 61 -233 137 -119 75 -220 136 -226 136 -5 0 -59
-31 -120 -68 -263 -163 -319 -195 -338 -195 -11 0 -93 46 -183 102 -90 57
-193 121 -228 143 -116 72 -106 37 -106 359 l0 281 -53 31 c-164 97 -384 238
-395 252 -9 12 -12 88 -10 326 l3 310 40 29 c41 30 284 182 368 230 l47 28 0
281 0 280 28 25 c15 14 48 37 74 52 72 40 276 166 343 210 33 22 68 41 79 41
10 0 64 -29 120 -63z"/>
<path d="M1511 3261 c-85 -54 -156 -102 -158 -107 -2 -5 63 -51 145 -102 81
-51 155 -98 164 -105 12 -8 22 -8 40 1 58 29 312 190 316 200 2 7 -17 24 -43
39 -26 16 -97 61 -158 101 -61 39 -120 72 -132 71 -11 0 -90 -45 -174 -98z"/>
<path d="M2582 3347 c-60 -33 -312 -193 -312 -198 0 -8 310 -201 332 -207 10
-2 73 30 145 73 197 120 206 126 191 141 -18 17 -317 204 -326 204 -4 0 -17
-6 -30 -13z"/>
<path d="M1282 2828 l3 -213 50 -33 c131 -86 277 -174 282 -168 4 3 8 97 11
209 l4 204 -143 88 c-79 49 -155 97 -168 107 -13 10 -28 18 -33 18 -4 0 -7
-94 -6 -212z"/>
<path d="M1903 2927 l-163 -101 0 -208 c0 -228 0 -229 58 -189 15 10 77 49
137 86 61 37 120 74 133 81 22 14 22 18 22 224 0 162 -3 210 -12 209 -7 0 -86
-46 -175 -102z"/>
<path d="M2210 2818 l0 -213 48 -30 c26 -16 56 -34 67 -40 11 -7 64 -39 117
-73 53 -33 99 -58 102 -54 3 3 6 98 6 211 l0 206 -161 100 c-89 55 -165 102
-170 103 -5 2 -9 -92 -9 -210z"/>
<path d="M2833 2928 l-163 -102 0 -214 c0 -117 3 -211 8 -209 36 19 274 166
300 185 l32 24 0 209 c0 115 -3 209 -7 209 -5 -1 -81 -47 -170 -102z"/>
<path d="M1165 2477 c-28 -18 -103 -65 -167 -105 -65 -41 -118 -75 -118 -77 0
-1 76 -51 170 -110 l170 -107 157 98 c87 53 164 102 171 109 10 9 -13 28 -110
89 -68 43 -132 83 -143 89 -11 7 -32 20 -47 30 -14 9 -28 17 -30 17 -2 0 -26
-15 -53 -33z"/>
<path d="M826 2172 c-3 -3 -6 -99 -6 -213 l0 -207 93 -56 c50 -32 124 -77 162
-101 39 -24 73 -44 78 -45 4 0 6 95 5 212 l-3 212 -162 102 c-89 56 -164 100
-167 96z"/>
<path d="M1500 2108 c-63 -39 -139 -85 -167 -102 l-53 -31 0 -207 c0 -145 3
-208 11 -208 6 0 82 44 170 98 l158 97 1 213 c0 116 -1 212 -2 212 -2 0 -55
-32 -118 -72z"/>
<path d="M1633 1620 c-24 -16 -43 -26 -43 -22 0 4 -4 2 -8 -4 -4 -6 -50 -37
-103 -69 -160 -97 -164 -74 32 -197 l170 -107 52 33 c29 18 105 66 170 105 64
40 117 74 117 76 0 8 -329 215 -339 215 -3 0 -25 -14 -48 -30z"/>
<path d="M2558 1622 c-15 -9 -88 -54 -163 -100 -74 -46 -135 -87 -135 -90 0
-4 26 -22 58 -41 31 -19 105 -65 164 -103 59 -37 113 -68 120 -68 12 1 265
153 319 192 20 15 22 19 9 28 -101 69 -318 200 -330 199 -8 0 -27 -8 -42 -17z"/>
<path d="M1280 1108 l1 -213 90 -55 c50 -30 123 -76 162 -102 40 -25 75 -44
79 -42 5 3 8 98 8 212 l0 207 -88 54 c-48 30 -120 77 -161 103 -41 26 -79 48
-83 48 -4 0 -8 -96 -8 -212z"/>
<path d="M1898 1212 l-158 -97 0 -213 0 -214 48 28 c26 15 70 41 97 59 28 17
83 52 123 76 l72 44 0 207 c0 160 -3 208 -12 208 -7 0 -84 -44 -170 -98z"/>
<path d="M2200 1100 l0 -210 68 -43 c145 -94 250 -157 261 -157 8 0 11 60 11
214 0 194 -2 214 -17 221 -10 3 -81 46 -159 96 -78 49 -146 89 -152 89 -9 0
-12 -58 -12 -210z"/>
<path d="M2823 1209 l-163 -101 0 -215 0 -215 39 23 c21 13 97 60 170 104
l131 80 0 212 c0 117 -3 213 -7 213 -5 0 -81 -46 -170 -101z"/>
</g>
</svg>
