<?xml version="1.0" standalone="no"?>
<!DOCTYPE svg PUBLIC "-//W3C//DTD SVG 20010904//EN"
 "http://www.w3.org/TR/2001/REC-SVG-20010904/DTD/svg10.dtd">
<svg version="1.0" xmlns="http://www.w3.org/2000/svg"
 width="400.000000pt" height="400.000000pt" viewBox="0 0 400.000000 400.000000"
 preserveAspectRatio="xMidYMid meet" fill="black" >
 <circle cx="200" cy="200" r="190" fill="white" />
<g transform="translate(0.000000,400.000000) scale(0.100000,-0.100000)"
 stroke="none">
<path d="M1720 3964 c-872 -127 -1563 -821 -1684 -1693 -21 -145 -21 -407 0
-552 122 -876 817 -1571 1693 -1693 145 -21 407 -21 552 0 876 122 1571 817
1693 1693 9 64 16 181 16 276 0 95 -7 212 -16 276 -122 876 -817 1571 -1693
1693 -138 20 -427 19 -561 0z m84 -527 c55 -35 156 -99 223 -141 l121 -77 211
131 c117 72 222 135 235 140 24 9 32 4 270 -143 113 -70 252 -162 258 -171 4
-6 8 -149 8 -319 0 -296 -1 -308 -20 -325 -44 -38 -483 -302 -502 -302 -11 0
-114 59 -230 131 -115 71 -215 132 -223 135 -7 3 -104 -49 -214 -117 l-201
-122 0 -248 0 -247 68 -45 c122 -81 326 -207 335 -207 5 0 104 59 221 132 116
72 220 133 231 135 11 2 44 -11 72 -29 29 -18 92 -57 140 -87 49 -30 139 -87
201 -128 l112 -73 0 -312 c-1 -240 -4 -317 -14 -330 -12 -16 -131 -93 -361
-234 -81 -49 -119 -67 -145 -67 -28 -1 -78 27 -240 129 -113 71 -209 133 -215
136 -5 3 -64 -27 -130 -68 -273 -167 -320 -194 -338 -194 -11 0 -93 46 -183
102 -90 57 -193 121 -228 143 -116 72 -106 37 -106 359 l0 282 -52 30 c-142
83 -384 237 -396 252 -9 12 -12 88 -10 326 l3 310 40 29 c41 30 284 182 368
230 l47 28 0 275 c0 160 4 283 10 294 5 10 31 31 57 46 27 16 56 33 65 39 82
49 265 162 313 194 33 22 68 41 79 41 10 0 64 -29 120 -63z"/>
<path d="M1511 3261 c-85 -54 -156 -102 -158 -107 -2 -5 63 -51 145 -102 81
-51 155 -98 164 -105 21 -14 22 -13 208 101 80 50 145 95 145 102 0 7 -41 38
-91 69 -50 31 -120 75 -156 99 -36 23 -74 42 -85 41 -10 0 -88 -45 -172 -98z" />
<path d="M2569 3342 c-13 -10 -86 -56 -161 -103 -76 -46 -138 -87 -138 -91 0
-3 15 -15 33 -26 17 -10 94 -58 170 -105 l138 -85 137 84 c205 125 205 125
190 140 -24 22 -320 204 -333 204 -7 0 -23 -8 -36 -18z" />
<path d="M1285 3028 c-3 -7 -4 -103 -3 -213 l3 -200 50 -33 c120 -79 277 -174
281 -169 3 2 8 96 11 209 l6 204 -149 93 c-82 52 -159 101 -171 109 -19 12
-24 12 -28 0z"/>
<path d="M1903 2927 l-163 -101 0 -208 c0 -228 0 -229 58 -189 15 10 77 49
137 86 61 37 120 74 133 81 22 14 22 18 22 224 0 162 -3 210 -12 209 -7 -1
-86 -46 -175 -102z"/>
<path d="M2210 2818 l0 -213 42 -25 c51 -31 70 -43 190 -118 53 -33 99 -58
102 -54 3 3 6 98 6 211 l0 206 -161 100 c-89 55 -165 102 -170 103 -5 2 -9
-92 -9 -210z"/>
<path d="M2900 2970 c-52 -33 -119 -75 -148 -92 -29 -18 -60 -38 -68 -43 -12
-8 -14 -45 -12 -222 l3 -212 22 12 c27 14 223 134 275 168 l37 24 1 213 c0
116 -3 212 -7 212 -5 0 -51 -27 -103 -60z"/>
<path d="M1053 2407 c-89 -56 -164 -105 -167 -108 -6 -6 32 -32 226 -153 l108
-68 157 98 c87 53 164 102 171 109 10 9 -13 28 -110 89 -68 43 -132 83 -143
89 -11 7 -32 20 -47 30 -14 9 -28 17 -30 17 -1 -1 -76 -47 -165 -103z"/>
<path d="M820 1966 l0 -214 93 -56 c50 -32 124 -77 162 -101 39 -24 73 -44 78
-45 4 0 6 95 5 212 l-3 212 -164 103 c-90 57 -165 103 -167 103 -2 0 -4 -96
-4 -214z"/>
<path d="M1478 2096 c-75 -46 -150 -93 -167 -105 l-31 -22 0 -205 c0 -141 3
-204 11 -204 6 0 82 44 170 98 l158 97 1 213 c0 116 -1 212 -2 212 -2 -1 -65
-38 -140 -84z"/>
<path d="M1634 1622 c-21 -15 -86 -56 -144 -90 -174 -104 -177 -80 21 -204
l171 -107 52 33 c28 18 105 66 170 106 115 71 118 74 99 89 -36 28 -315 201
-324 201 -3 0 -24 -13 -45 -28z"/>
<path d="M2558 1622 c-15 -9 -88 -54 -163 -100 -74 -46 -135 -87 -135 -90 1
-8 316 -206 335 -210 13 -3 271 148 327 190 l23 17 -25 18 c-14 10 -32 23 -41
28 -9 6 -48 29 -85 53 -201 127 -190 122 -236 94z"/>
<path d="M1280 1107 c0 -211 0 -214 23 -226 48 -26 242 -147 276 -173 13 -10
27 -15 32 -12 5 3 9 98 9 212 l0 207 -128 80 c-70 44 -142 90 -161 102 -19 13
-38 23 -42 23 -5 0 -9 -96 -9 -213z"/>
<path d="M1994 1272 c-75 -46 -81 -50 -176 -109 l-78 -48 0 -212 c0 -117 2
-213 5 -213 3 0 31 17 63 37 89 57 122 77 192 119 36 21 68 43 72 48 4 6 8
102 8 214 0 155 -3 202 -12 202 -7 0 -40 -17 -74 -38z"/>
<path d="M2202 1098 l3 -213 165 -103 165 -103 3 208 c1 114 0 213 -2 219 -3
7 -35 31 -73 54 -37 22 -106 65 -153 95 -47 30 -91 54 -98 55 -10 0 -12 -46
-10 -212z"/>
<path d="M2920 1269 c-36 -22 -108 -66 -160 -99 l-95 -58 -3 -217 -2 -217 38
23 c22 13 98 60 171 104 l131 80 0 212 c0 117 -3 213 -7 213 -5 -1 -37 -19
-73 -41z"/>
</g>
</svg>
