<?xml version="1.0" encoding="utf-8"?>
<!-- Generator: Adobe Illustrator 25.0.0, SVG Export Plug-In . SVG Version: 6.00 Build 0)  -->
<svg version="1.1" id="Layer_1" xmlns="http://www.w3.org/2000/svg" xmlns:xlink="http://www.w3.org/1999/xlink" x="0px" y="0px"
	 width="100px" height="100px" viewBox="0 0 100 100" style="enable-background:new 0 0 100 100;" xml:space="preserve">
<style type="text/css">
	.st0{fill:url(#SVGID_1_);}
	.st1{fill:#FFFFFF;}
</style>
<g>
	<g>
		<g>
			
				<image style="overflow:visible;enable-background:new    ;" width="10133" height="10138" xlink:href="BC4FD46E.png"  transform="matrix(9.666601e-03 0 0 9.666601e-03 1.0242 1)">
			</image>
			
				<linearGradient id="SVGID_1_" gradientUnits="userSpaceOnUse" x1="-433.3603" y1="-336.6842" x2="-323.9865" y2="-336.6842" gradientTransform="matrix(0.6982 0.7159 0.7159 -0.6982 549.4407 79.8885)">
				<stop  offset="0" style="stop-color:#02A6DC"/>
				<stop  offset="4.250000e-02" style="stop-color:#0398D2"/>
				<stop  offset="0.1225" style="stop-color:#0473B7"/>
				<stop  offset="0.1647" style="stop-color:#055DA7"/>
				<stop  offset="0.2638" style="stop-color:#1F4497"/>
				<stop  offset="0.3403" style="stop-color:#2E368E"/>
				<stop  offset="0.4948" style="stop-color:#262262;stop-opacity:0.7"/>
				<stop  offset="0.5362" style="stop-color:#472D76;stop-opacity:0.7793"/>
				<stop  offset="0.5832" style="stop-color:#663789;stop-opacity:0.8694"/>
				<stop  offset="0.6234" style="stop-color:#783D94;stop-opacity:0.9462"/>
				<stop  offset="0.6515" style="stop-color:#7F3F98"/>
				<stop  offset="0.6748" style="stop-color:#863695"/>
				<stop  offset="0.7197" style="stop-color:#8F2B90"/>
				<stop  offset="0.768" style="stop-color:#92278F"/>
				<stop  offset="0.8381" style="stop-color:#852386"/>
				<stop  offset="0.9" style="stop-color:#761F7B"/>
				<stop  offset="1" style="stop-color:#662D91"/>
			</linearGradient>
			<circle class="st0" cx="50" cy="50" r="48.9"/>
		</g>
	</g>
	<path class="st1" d="M40.6,29.3H40v0h-3.4h-0.4h-3.9h-2.8h-0.7h0h-6.9H21l0,0c-0.3,0-0.6,0.3-0.6,0.6v1.1v6.7v3.5V50v1.5h0v2.6
		c0,0.3,0.3,0.6,0.6,0.6h2.9h1.9h5.8c0.3,0,0.6-0.3,0.6-0.6v-5.3v0v-5.3c0,0,0,0,0,0v-1.7c0-0.4,0.3-0.7,0.7-0.7h1.8h5.8
		c0.3,0,0.6-0.3,0.6-0.6v-5.3v0v-5.3C41.2,29.5,40.9,29.3,40.6,29.3z"/>
	<g>
		<path class="st1" d="M31.6,58.9h-2.9h-1.9H21c-0.3,0-0.6,0.3-0.6,0.6v5.3v0v5.3c0,0.3,0.3,0.6,0.6,0.6h2.9h1.9h5.8
			c0.3,0,0.6-0.3,0.6-0.6v-5.3v0v-5.3C32.2,59.1,32,58.9,31.6,58.9z"/>
		<path class="st1" d="M79.4,37.2l-7.8-7.8c-0.1-0.1-0.1-0.1-0.2-0.1c-0.1,0-0.2,0-0.2,0H55.3h-2.9h-1.9h-4.7h-1.1
			c-0.3,0-0.6,0.3-0.6,0.6V31v4.2v0v5.3v29.6c0,0.3,0.3,0.6,0.6,0.6h10.7c0.3,0,0.6-0.3,0.6-0.6V41.8c0-0.4,0.3-0.7,0.7-0.7h10.3
			c0.8,0,0.8,0.6,0.8,0.9v28.2c0,0.3,0.3,0.6,0.6,0.6H79c0.3,0,0.6-0.3,0.6-0.6V37.6C79.6,37.5,79.5,37.3,79.4,37.2z"/>
	</g>
	<path class="st1" d="M31.6,58.9h-2.9h-1.9H21c-0.3,0-0.6,0.3-0.6,0.6v5.3v0v5.3c0,0.3,0.3,0.6,0.6,0.6h2.9h1.9h5.8
		c0.3,0,0.6-0.3,0.6-0.6v-5.3v0v-5.3C32.2,59.1,32,58.9,31.6,58.9z"/>
	<path class="st1" d="M79.4,37.2l-7.8-7.8c-0.1-0.1-0.1-0.1-0.2-0.1c-0.1,0-0.2,0-0.2,0H55.3h-2.9h-1.9h-4.7h-1.1
		c-0.3,0-0.6,0.3-0.6,0.6V31v4.2v0v5.3v29.6c0,0.3,0.3,0.6,0.6,0.6h10.7c0.3,0,0.6-0.3,0.6-0.6V41.8c0-0.4,0.3-0.7,0.7-0.7h10.3
		c0.8,0,0.8,0.6,0.8,0.9v28.2c0,0.3,0.3,0.6,0.6,0.6H79c0.3,0,0.6-0.3,0.6-0.6V37.6C79.6,37.5,79.5,37.3,79.4,37.2z"/>
</g>
</svg>
