<svg viewBox="0 0 256 256" xmlns="http://www.w3.org/2000/svg">
    <path fill="#512dbc" fill-rule="evenodd" d="M256 128C256 57.308 198.692 0 128 0 57.308 0 0 57.308 0 128c0 70.692 57.308 128 128 128 70.692 0 128-57.308 128-128Z"/>
    <path fill="#fff" d="M201.874 77.818c4.81 0 8.709 3.908 8.709 8.727 0 4.72-3.737 8.563-8.407 8.723l-10.64 15.994-.116.172a13.055 13.055 0 0 1-10.545 5.655l-.207.002H167.77a43.375 43.375 0 0 1 2.753 8.727h27.421l.14-.002a4.352 4.352 0 0 0 3.403-1.825l.08-.116 10.245-15.4a8.7 8.7 0 0 1-1.23-4.475c0-4.82 3.899-8.727 8.708-8.727 4.81 0 8.709 3.907 8.709 8.727 0 4.766-3.813 8.64-8.549 8.726l-10.637 15.99-.117.172a13.055 13.055 0 0 1-10.544 5.656l-.208.001h-26.55c0 2.99-.3 5.908-.871 8.728h27.421c4.298 0 8.317 2.118 10.752 5.657l.117.172 10.637 15.99c4.736.086 8.549 3.96 8.549 8.726 0 4.82-3.899 8.727-8.709 8.727s-8.708-3.907-8.708-8.727a8.7 8.7 0 0 1 1.23-4.474l-10.245-15.4a4.352 4.352 0 0 0-3.482-1.942l-.14-.002H167.77a43.62 43.62 0 0 1-5.082 8.728h17.84c4.297 0 8.316 2.118 10.751 5.656l.117.173 10.637 15.99c4.736.085 8.549 3.96 8.549 8.726 0 4.82-3.899 8.727-8.709 8.727s-8.708-3.907-8.708-8.727a8.7 8.7 0 0 1 1.23-4.475l-10.245-15.4a4.352 4.352 0 0 0-3.482-1.941l-.14-.002H153.98a43.289 43.289 0 0 1-26.129 8.727 43.289 43.289 0 0 1-26.128-8.727H75.472l-.14.002a4.352 4.352 0 0 0-3.403 1.825l-.08.116-10.245 15.4a8.7 8.7 0 0 1 1.23 4.475c0 4.82-3.899 8.727-8.708 8.727-4.81 0-8.709-3.907-8.709-8.727 0-4.767 3.813-8.64 8.549-8.726l10.637-15.99.117-.173a13.055 13.055 0 0 1 10.544-5.655l.208-.002 17.543.001a43.62 43.62 0 0 1-5.082-8.727L58.055 152l-.14.002a4.352 4.352 0 0 0-3.403 1.825l-.08.116-10.245 15.401a8.7 8.7 0 0 1 1.23 4.474c0 4.82-3.899 8.727-8.708 8.727-4.81 0-8.709-3.907-8.709-8.727 0-4.766 3.813-8.64 8.549-8.726l10.637-15.99.117-.172a13.055 13.055 0 0 1 10.544-5.656l.208-.001H85.18a43.89 43.89 0 0 1-.868-8.2l-.004-.528H58.055a13.055 13.055 0 0 1-10.752-5.657l-.117-.172-10.637-15.99C31.813 112.64 28 108.766 28 104c0-4.82 3.899-8.727 8.709-8.727s8.708 3.907 8.708 8.727a8.7 8.7 0 0 1-1.23 4.474l10.245 15.401a4.352 4.352 0 0 0 3.482 1.94l.14.003h27.127a43.375 43.375 0 0 1 2.752-8.728h-12.6a13.055 13.055 0 0 1-10.753-5.656l-.116-.172-10.64-15.994c-4.67-.16-8.407-4.004-8.407-8.723 0-4.82 3.899-8.727 8.709-8.727s8.708 3.908 8.708 8.727a8.7 8.7 0 0 1-1.296 4.584l10.171 15.292a4.352 4.352 0 0 0 3.483 1.94l.14.003 17.683-.001c7.944-10.599 20.592-17.454 34.837-17.454 14.245 0 26.893 6.855 34.837 17.454h17.979l.14-.002a4.352 4.352 0 0 0 3.403-1.825l.08-.115 10.171-15.292a8.7 8.7 0 0 1-1.296-4.584c0-4.82 3.899-8.727 8.708-8.727Zm-74.022 21.818c-19.238 0-34.834 15.63-34.834 34.91 0 19.28 15.596 34.909 34.834 34.909 19.238 0 34.834-15.63 34.834-34.91 0-19.28-15.596-34.909-34.834-34.909Zm0 8.728c14.429 0 26.126 11.722 26.126 26.181 0 14.46-11.697 26.182-26.126 26.182-14.429 0-26.125-11.722-26.125-26.182 0-14.46 11.696-26.181 26.125-26.181ZM158.332 56l.288.002c9.486.154 17.129 7.91 17.129 17.453 0 9.64-7.798 17.454-17.417 17.454-9.62 0-17.417-7.815-17.417-17.454 0-4.737 1.883-9.033 4.94-12.178l.161-.165 12.316 12.343V56Zm-60.96 0v17.455l12.316-12.343a17.419 17.419 0 0 1 5.101 12.343c0 9.64-7.798 17.454-17.417 17.454-9.619 0-17.417-7.815-17.417-17.454 0-9.544 7.643-17.299 17.13-17.453l.287-.002Z"/>
</svg>
