<svg width="481" height="481" viewBox="0 0 481 481" fill="none" xmlns="http://www.w3.org/2000/svg">
<path d="M364.64 312.16C339.72 355.11 293.23 384 240 384C160.47 384 96 319.53 96 240C96 160.47 160.47 96 240 96C293.29 96 339.81 124.95 364.71 167.97L395.87 149.93C364.73 96.17 306.59 60 240 60C140.59 60 60 140.59 60 240C60 339.41 140.59 420 240 420C306.56 420 364.67 383.87 395.82 330.16L364.64 312.16Z" fill="#2D353F"/>
<path d="M420 222H271.14C264.91 211.25 253.31 204 240 204C220.12 204 204 220.12 204 240C204 259.88 220.12 276 240 276C253.32 276 264.92 268.75 271.14 258H420V222Z" fill="#2D353F"/>
</svg>
