<svg viewBox="0 0 481 481" xmlns="http://www.w3.org/2000/svg">
    <path fill="#fff" fill-rule="evenodd" d="M481 240.5C481 107.676 373.324 0 240.5 0S0 107.676 0 240.5 107.676 481 240.5 481 481 373.324 481 240.5Z"/>
    <path fill="#2d353f" d="M364.64 312.16C339.72 355.11 293.23 384 240 384c-79.53 0-144-64.47-144-144S160.47 96 240 96c53.29 0 99.81 28.95 124.71 71.97l31.16-18.04C364.73 96.17 306.59 60 240 60c-99.41 0-180 80.59-180 180s80.59 180 180 180c66.56 0 124.67-36.13 155.82-89.84l-31.18-18Z"/>
    <path fill="#2d353f" d="M420 222H271.14c-6.23-10.75-17.83-18-31.14-18-19.88 0-36 16.12-36 36s16.12 36 36 36c13.32 0 24.92-7.25 31.14-18H420v-36Z"/>
</svg>
