<svg viewBox="0 0 512 512" xmlns="http://www.w3.org/2000/svg">
    <path fill="#149b9b" fill-rule="evenodd" d="M512 252C512 112.824 397.385 0 256 0S0 112.824 0 252s114.615 252 256 252 256-112.824 256-252Z"/>
    <path fill="#fff" d="M182.06 420h-75.68c-10.04 0-17.61-10.27-17.61-23.88V116.54c0-13.61 7.57-23.88 17.61-23.88h279.38c10.04 0 17.61 10.27 17.61 23.88v164.72h-18V116.54c0-2.81-.68-4.85-1.24-5.88H108.01c-.56 1.03-1.24 3.07-1.24 5.88v279.58c0 2.81.68 4.85 1.24 5.88h74.05v18Z"/>
    <path fill="#fff" d="m402.52 354.08-17.99-4.07c-2.21 11.04-19.25 13.41-26.01 13.41-3.99 0-7.71-.58-9-3.19V165.3l-68.9 9.66v84.62c-10.18-3.12-19.69-4.69-28.51-4.69-45.14 0-75.69 36.56-75.35 78.12.34 51.56 31.91 83.12 67.88 82.5 14.59 0 50.99-2.65 62.03-12.81l2.25.03c16.6 12.8 40.76 17.77 65.68 12.18l4.57-1.26c29.56-10.35 29.67-38.07 23.36-59.58Zm-121.9-2.63c-.34 11.25-4.75 26.87-20.03 23.44-15.27-3.44-15.61-20.31-15.61-41.87 0-26.87 7.81-38.75 21.04-36.87 10.18 1.56 14.59 10 14.59 21.87v33.44Z"/>
    <path fill="#fff" fill-rule="evenodd" d="m410.39 346.82-13.87-15.72-20.13.28 14.87-13.57-.65-20.96 13.87 15.72 20.13-.29-14.87 13.57.65 20.96Z"/>
</svg>
