<svg width="998" height="998" viewBox="0 0 998 998" xmlns="http://www.w3.org/2000/svg">
    <path fill="#149b9b" d="M.86 499C.86 223.88 223.89.86 499 .86S997.14 223.89 997.14 499 774.11 997.14 499 997.14.86 774.12.86 499Z"/>
    <path fill="#fff" d="M738.81 482.28v-160.4s2.91-17.01 15.53-20.42c23.92-5.62 23.86 31.67 23.83 63.07v117.72h91.94V368.03c0-75.33 0-148.54-67.47-148.54-30.15 0-50.72 17.3-63.83 32.86v-25.29h-91.97v255.16h91.97v.06Z"/>
    <path fill="#fff" stroke="#159b9b" stroke-width="15" stroke-linejoin="round" d="M779.18 550.92c5.53 0 10.49-3.44 12.35-8.62 1.89-5.19.32-11.01-3.9-14.54l-40.81-34.03-.7-50.78a13.168 13.168 0 0 0-8.62-12.15c-5.13-1.86-10.87-.38-14.42 3.76l-33.18 38.42-53.14-.15c-5.51 0-10.46 3.44-12.35 8.62-1.89 5.19-.32 11.01 3.93 14.57l40.81 34.03.7 50.78c.06 5.45 3.5 10.28 8.62 12.15 5.13 1.86 10.84.38 14.39-3.76l33.18-38.42 53.14.17v-.06Z"/>
    <path fill="#fff" d="M756.14 744.81c0 54.39-44.37 101-99.07 100.91h-36.04l13.78-15.85a91.037 91.037 0 0 0 19.23-36.21c2.04-7.6 3.06-15.44 3.06-23.3V588.64h99.05v156.2-.03Z"/>
    <path fill="#fff" d="M302.57 773.77c10.84 0 18.21-3.44 18.21-10.81.12-2.53-7.31-4.31-18.41-6.93-33.91-8.04-101.9-24.18-91.88-95.29 7.4-50.13 56.14-79.62 110.29-80.11 20.36 0 43.96 4.75 64.21 13.52 15.88 6.87 25.9 13.87 32.16 18.15.93.64 1.72 1.19 2.33 1.6-19.11 32.42-20.36 66.86-8.74 89.35-9.32-6.67-22.9-14.97-34.46-21.91-1.6-.96-3.15-1.86-4.54-2.74-1.31-.79-2.53-1.51-3.64-2.18-14.25-8.21-39.21-21.12-55.2-21.12-7.89 0-13.78 3.44-14.77 11.3-.55 3.87 8.56 6.47 21.76 10.23 33.68 9.58 93.98 26.71 89.02 92-4.43 59.95-58.58 84.04-113.76 85-30.03.5-69.91-13.25-95.02-29.98l33.97-77.63c17.71 16.72 48.74 27.53 68.43 27.53l.06.03Z"/>
    <path fill="#fff" d="M523.27 773.77c10.84 0 18.21-3.44 18.21-10.81.12-2.53-7.34-4.31-18.41-6.93-33.91-8.04-101.9-24.18-91.88-95.29 7.4-50.13 56.14-79.62 110.29-80.11 28.55 0 63.54 9.35 86.67 26.04l-29.54 75.68c-6.9-4.43-43.81-27.03-64.99-27.03-7.87 0-13.78 3.44-14.77 11.3-.55 3.87 8.56 6.47 21.79 10.23 33.68 9.56 93.98 26.71 89.02 92-4.43 59.95-58.61 84.04-113.76 85.03-28.93.47-67-12.26-92.2-28.14 0 0-2.16-1.43-2.83-1.86l-2.48-1.66c12-13.43 29.95-59.14 10.84-104.29 2.88 2.85 5.56 6.12 8.45 9.67 7.75 9.47 17.16 20.97 36.56 32.25 16.31 8.74 35.39 13.92 49.03 13.92Z"/>
    <path fill="#fff" fill-rule="evenodd" d="M147.82 304.93v81.57c0 69.1 66.56 118.71 132.81 98.93l6.82-2.04c44.02-13.14 68.89-51.5 77.72-86 8.07-31.4 17.94-52.96 46.23-72.68 18.35-12.79 45.15-15.24 71.72-11.8 23.3 3.03 42.07 14.57 42.07 18.88 0 0-46-14.57-84.66-3.7-50.89 14.27-56.66 60.13-52.81 86.61 3.85 26.48 22.29 57.07 64.09 65.69 34.78 7.2 64.53-8.56 75.33-15.76v17.77h89.4V333.45c.61-70.85-51.5-95.29-101.46-108.31-40.78-10.66-97.36-10.98-151.66 21-55.38 32.6-77.52 84.66-87.6 128.32-3.41 14.77-11.54 23.13-21.62 23.13-7.37 0-14.13-3.79-14.13-11.16v-81.57h45.33l-6.35-78.6h-38.98V161.5l-92.26 31.43v33.33h-19.9v78.6h19.9v.06Zm379.14 92.2c0-15.61-6.85-24.88-22.93-24.88s-26.36 9.26-26.36 24.88 10.75 24.88 26.36 24.88 22.93-9.76 22.93-24.88Z"/>
</svg>
