<svg viewBox="0 0 128 128" xmlns="http://www.w3.org/2000/svg">
    <path fill="#151515" fill-rule="evenodd" d="M128 64c0-35.346-28.654-64-64-64C28.654 0 0 28.654 0 64c0 35.346 28.654 64 64 64 35.346 0 64-28.654 64-64Z"/>
    <path fill="#ff3b80" fill-rule="evenodd" d="m90.476 35.078-9.48 17.178H72.51l13.724-24.874 4.242 7.696ZM75.082 26h8.484L69.844 50.874l-4.242-7.696L75.082 26Zm-8.098 27.07-4.36 7.477-14.987-25.688 4.36-7.477 14.987 25.687ZM35.2 34.928 40.517 26h8.814l-5.3 8.929 16.043 27H51.26l-16.06-27ZM24.274 55.019h19.09l4.273 6.91H20l4.274-6.91Zm0 17.965L20 66.074h27.637l-4.274 6.91H24.274Zm27.16-8.291h8.64L45.223 90.948h-8.64l14.851-26.255Zm-.15 37.31h-10.39l-4.311-7.448h10.389l15.7-27.099 4.312 7.448-15.7 27.1Zm23.798 0-9.48-17.178 4.242-7.696 13.722 24.874h-8.484Zm15.394-9.078-4.242 7.696L72.51 75.748h8.484l9.48 17.177ZM69.989 72.984l-4.387-6.91h30.16l4.387 6.91h-30.16Zm27.44-10.438H65.602l4.371-7.527H101.8l5.258 9.057-4.371 7.526-5.258-9.056Z"/>
</svg>
