<svg viewBox="0 0 64 64" xmlns="http://www.w3.org/2000/svg">
    <path fill="#06183c" fill-rule="evenodd" d="M64 32C64 14.327 49.673 0 32 0 14.327 0 0 14.327 0 32c0 17.673 14.327 32 32 32 17.673 0 32-14.327 32-32Z"/>
    <linearGradient id="a" x1="5" y1="5" x2="58.003" y2="58.001" gradientUnits="userSpaceOnUse">
        <stop offset="0" stop-color="#32e4b6"/>
        <stop offset="1" stop-color="#086eb1"/>
    </linearGradient>
    <path fill="url(#a)" d="M50.208 12.58a26.608 26.608 0 0 0-37.627 37.628 26.437 26.437 0 0 0 18.814 7.795 26.608 26.608 0 0 0 18.813-45.422ZM36.735 26.054a7.553 7.553 0 1 1-10.682 0 7.561 7.561 0 0 1 10.682 0ZM23.71 23.71a10.867 10.867 0 1 0 17.503 12.337A15.414 15.414 0 1 1 26.74 21.575a10.812 10.812 0 0 0-3.03 2.135Zm15.367 26.483a18.728 18.728 0 1 0-30.973-19.26 23.293 23.293 0 0 1 46.113-4.206A23.294 23.294 0 0 1 31.891 54.68a18.65 18.65 0 0 0 7.186-4.487"/>
</svg>
