<svg width="193" height="193" viewBox="0 0 193 193" fill="none" xmlns="http://www.w3.org/2000/svg">
      <path
        fillRule="evenodd"
        clipRule="evenodd"
        d="M1.36804 31.9762H4.67074H5.78793C5.77728 31.9762 5.76844 31.9677 5.76844 31.957V19.3176C5.76844 18.4088 6.30016 17.5841 7.12772 17.2085L10.0161 15.898C10.8437 15.5227 11.3754 14.6977 11.3754 13.7891V10.6384V0.825594C11.3754 0.814944 11.384 0.806379 11.3946 0.806379H6.97473C6.33523 0.806379 5.81676 1.32484 5.81676 1.96434V10.6384V13.7891C5.81676 14.6977 5.28531 15.5227 4.45749 15.898L1.56934 17.2085C0.741521 17.5841 0.210083 18.4088 0.210083 19.3176V30.8183C0.210083 31.4578 0.728544 31.9762 1.36804 31.9762ZM10.6122 31.9762H15.0732H16.1901C16.1794 31.9762 16.1709 31.9677 16.1709 31.957V19.3176C16.1709 18.4088 16.7023 17.5841 17.5299 17.2085L20.4183 15.898C21.2458 15.5227 21.7775 14.6977 21.7775 13.7891V10.6384V0.825594C21.7775 0.814944 21.7861 0.806379 21.7968 0.806379H16.2189V10.6384V13.7891C16.2189 14.6977 15.6875 15.5227 14.8599 15.898L11.9715 17.2085C11.144 17.5841 10.6122 18.4088 10.6122 19.3176V31.9762ZM23.2706 31.9762H21.0258C21.0365 31.9762 21.045 31.9677 21.045 31.957V22.1442V18.9935C21.045 18.0849 21.5765 17.2599 22.4043 16.8846L25.2925 15.5741C26.1203 15.1985 26.6517 14.3738 26.6517 13.465V0.825594C26.6517 0.814944 26.6432 0.806379 26.6325 0.806379H27.7494H28.7934H29.1362H31.0521C31.6916 0.806379 32.2101 1.32484 32.2101 1.96434V13.465C32.2101 14.3738 31.6786 15.1985 30.8511 15.5741L27.9627 16.8846C27.1351 17.2599 26.6034 18.0849 26.6034 18.9935V22.1442V30.8183C26.6034 31.4578 26.085 31.9762 25.4455 31.9762H23.6134H23.2706Z"
        fill="url(#paint0_linear_6826_5122)"
      />
      <defs>
        <linearGradient
          id="paint0_linear_6826_5122"
          x1="6.24846"
          y1="1.97525"
          x2="25.5457"
          y2="30.0933"
          gradientUnits="userSpaceOnUse"
        >
          <stop stopColor="#FFE36C" />
          <stop offset="0.145" stopColor="#FFE36C" />
          <stop offset="0.775" stopColor="#FFB167" />
        </linearGradient>
      </defs>
</svg>
