<svg viewBox="0 0 500 500" fill="none" xmlns="http://www.w3.org/2000/svg">
    <g clip-path="url(#clip0_1_49)">
        <circle cx="250" cy="250" r="250" fill="#240E32"/>
        <path d="M400.647 275.039c4.131-4.126 9.448-9.436 14.727-14.703 11.776-11.756 11.782-30.823.007-42.584l-12.475-12.46c-44.663 44.61-111.499 53.573-165.08 26.895 36.214 6.688 73.744 1.478 107-16.38 22.247-11.949 26.472-42.085 8.611-59.924l-73.644-73.556c-16.456-16.436-43.134-16.436-59.584 0l-79.379 79.284c52.277-22.183 115.075-11.899 157.591 30.86-64.863-31.446-145.216-20.289-199.071 33.496l-14.734 14.716c-11.77 11.762-11.763 30.816 0 42.571l12.468 12.454c44.664-44.61 111.499-53.573 165.08-26.895-36.214-6.688-73.744-1.478-106.999 16.38-22.248 11.949-26.473 42.085-8.612 59.924l73.644 73.556c16.456 16.436 43.134 16.436 59.584 0l79.379-79.284c-52.277 22.183-115.075 11.899-157.597-30.86 64.863 31.446 145.216 20.289 199.071-33.496l.013.006z" fill="#E53E76"/>
    </g>
    <defs>
        <clipPath id="clip0_1_49">
            <path fill="#fff" d="M0 0h500v500H0z"/>
        </clipPath>
    </defs>
</svg>
