<svg viewBox="0 0 112 112" xmlns="http://www.w3.org/2000/svg">
    <path fill-rule="evenodd" d="M112 56c0-30.928-25.072-56-56-56S0 25.072 0 56s25.072 56 56 56 56-25.072 56-56Z"/>
    <g fill="#97ff00">
        <path d="M62.62 36.63c4.28-2.47 9.41-5.43 13.68-7.9 2.94-1.7 2.94-5.95 0-7.65-.07-.04-.15-.08-.22-.13-8.93 5.15-11.16 6.44-20.09 11.6v.25c.01 3.4 3.69 5.53 6.63 3.83Z"/>
        <path d="M42.53 40.58v-15.8c0-3.4-3.68-5.52-6.62-3.82l-.22.13v23.2l.22.13c2.94 1.68 6.62-.44 6.62-3.84Z"/>
        <path d="M76.31 44.28c-.07.04-.15.08-.22.13-2.94 1.7-2.94 5.95 0 7.65 4.27 2.47 9.4 5.43 13.69 7.9 2.94 1.7 6.62-.42 6.62-3.82v-.25c-8.93-5.17-11.16-6.46-20.09-11.61Z"/>
        <path d="m35.91 59.95-13.68-7.9c-2.94-1.7-6.62.42-6.62 3.82v.25c8.93 5.15 11.16 6.44 20.09 11.6l.22-.13c2.93-1.69 2.93-5.94-.01-7.64Z"/>
        <path d="M69.47 71.42v15.8c0 3.4 3.68 5.52 6.62 3.82.07-.04.15-.08.22-.13v-23.2c-.07-.04-.15-.08-.22-.13-2.94-1.68-6.62.44-6.62 3.84Z"/>
        <path d="m49.38 75.37-13.68 7.9c-2.94 1.7-2.94 5.95 0 7.65l.22.13c8.93-5.15 11.16-6.44 20.09-11.6v-.25c-.01-3.4-3.69-5.53-6.63-3.83Z"/>
        <path d="M75.37 62.62c2.47 4.28 5.43 9.41 7.9 13.68 1.7 2.94 5.95 2.94 7.65 0 .04-.07.08-.15.13-.22-5.15-8.93-6.44-11.16-11.6-20.09h-.25c-3.4.01-5.53 3.69-3.83 6.63Z"/>
        <path d="M71.42 42.53h15.8c3.4 0 5.52-3.68 3.82-6.62l-.13-.22h-23.2l-.13.22c-1.68 2.94.44 6.62 3.84 6.62Z"/>
        <path d="M67.72 76.31c-.04-.07-.08-.15-.13-.22-1.7-2.94-5.95-2.94-7.65 0-2.47 4.27-5.43 9.4-7.9 13.69-1.7 2.94.42 6.62 3.82 6.62h.25c5.17-8.93 6.46-11.16 11.61-20.09Z"/>
        <path d="m52.05 35.91 7.9-13.68c1.7-2.94-.42-6.62-3.82-6.62h-.25c-5.15 8.93-6.44 11.16-11.6 20.09l.13.22c1.69 2.93 5.94 2.93 7.64-.01Z"/>
        <path d="M40.58 69.47h-15.8c-3.4 0-5.52 3.68-3.82 6.62.04.07.08.15.13.22h23.2c.04-.07.08-.15.13-.22 1.68-2.94-.44-6.62-3.84-6.62Z"/>
        <path d="m36.63 49.38-7.9-13.68c-1.7-2.94-5.95-2.94-7.65 0l-.13.22c5.15 8.93 6.44 11.16 11.6 20.09h.25c3.4-.01 5.53-3.69 3.83-6.63Z"/>
    </g>
</svg>
