<svg viewBox="0 0 66 66" xmlns="http://www.w3.org/2000/svg">
    <path fill="#000563" d="M55.453 55.453c12.4-12.4 12.4-32.505 0-44.906-12.4-12.4-32.506-12.4-44.906 0-12.4 12.4-12.4 32.506 0 44.906 12.4 12.4 32.506 12.4 44.906 0Z"/>
    <path fill="#75e6da" d="M33.001 1.586c8.391 0 16.28 3.269 22.213 9.2 5.934 5.935 9.2 13.823 9.2 22.214 0 8.391-3.268 16.28-9.2 22.213-5.934 5.935-13.822 9.2-22.213 9.2-8.391 0-16.28-3.265-22.213-9.2-5.935-5.934-9.2-13.822-9.2-22.213 0-8.391 3.265-16.28 9.2-22.213 5.934-5.934 13.822-9.2 22.213-9.2Zm0-.68C15.276.906.907 15.275.907 33s14.369 32.094 32.094 32.094S65.095 50.725 65.095 33 50.726.906 33 .906Z"/>
    <path fill="#fff" d="M51.689 19.323c.76 0 1.38-.621 1.38-1.38v-.007c0-.76-.62-1.38-1.38-1.38H14.307c-.76 0-1.38.62-1.38 1.38v.006c0 .76.62 1.38 1.38 1.38h17.304v28.862c0 .692.567 1.258 1.258 1.258h.274c.691 0 1.258-.566 1.258-1.258V19.323H51.69Z"/>
    <path fill="#fff" d="M27.377 22.095H14.203c-.762 0-1.383.623-1.383 1.383 0 .761.624 1.382 1.383 1.382h11.619v9.414H15.633a1.32 1.32 0 0 0-1.317 1.317v.133c0 .723.592 1.317 1.317 1.317h10.189v9.604H14.28c-.76 0-1.38.621-1.38 1.38v.007c0 .76.62 1.38 1.38 1.38h13.101c.529 0 .99-.3 1.222-.74.147-.232.234-.506.234-.798V23.632a1.5 1.5 0 0 0-.263-.846 1.396 1.396 0 0 0-1.197-.691Z"/>
    <path fill="#fff" d="M51.797 24.863c.762 0 1.383-.624 1.383-1.383 0-.762-.623-1.383-1.383-1.383H38.624c-.51 0-.955.28-1.195.692a1.49 1.49 0 0 0-.263.845v24.238c0 .292.086.566.234.797.23.44.69.742 1.221.742h13.101c.76 0 1.38-.621 1.38-1.38v-.008c0-.759-.62-1.38-1.38-1.38H40.181v-9.604h10.188a1.32 1.32 0 0 0 1.317-1.317v-.133a1.32 1.32 0 0 0-1.317-1.317H40.181v-9.41h11.616Z"/>
</svg>
