<svg viewBox="0 0 180 180" xmlns="http://www.w3.org/2000/svg">
    <path fill="#0e0e11" fill-rule="evenodd" d="M180 90c0-49.706-40.294-90-90-90S0 40.294 0 90s40.294 90 90 90 90-40.294 90-90Z"/>
    <linearGradient id="a" x1="121.074" y1="108.169" x2="56.369" y2="75.926" gradientUnits="userSpaceOnUse">
        <stop offset="0" stop-color="#30bcd0"/>
        <stop offset="1" stop-color="#ca28cc"/>
    </linearGradient>
    <path fill="url(#a)" d="M98.183 142.994c-8.581-.361-17.169-.568-25.753-.814-9.458-.274-18.916-.539-28.374-.794-.872-.02-1.745-.091-2.618-.1-.492 0-.625-.208-.7-.683a3.868 3.868 0 0 1 .492-2.489A48905.69 48905.69 0 0 0 68.257 85.47c4.703-9.163 9.409-18.324 14.118-27.483.103-.163.19-.335.262-.514.252-.826.7-.808 1.428-.51 4.92 2 9.862 3.956 14.8 5.916a28782.088 28782.088 0 0 0 41.217 16.354 2.611 2.611 0 0 1 1.664 1.642c.314.854.692 1.687 1.054 2.549-.512.28-.877-.105-1.241-.242A42149.717 42149.717 0 0 1 85.6 61.957c-1.257-.476-1.261-.474-1.9.748a452652.801 452652.801 0 0 0-39.073 74.978 2.873 2.873 0 0 0-.514 1.3l59.305 2.2A8.543 8.543 0 0 1 98.481 143c-.098 0-.197-.002-.298-.006Zm9.595-4.431c-8.525-.473-17.049-.93-25.573-1.374-8.431-.433-16.86-.832-25.293-1.245-2.13-.107-4.26-.218-6.392-.332-.519-.032-1.035-.1-1.686-.165.317-.635.558-1.143.82-1.642a254890.191 254890.191 0 0 1 35.273-66.654c.573-1.08.581-1.078 1.714-.671l37.213 13.426c6.495 2.342 12.985 4.7 19.488 7.022.805.194 1.45.795 1.7 1.584.3.941.759 1.838 1.169 2.793-.629.208-1.047-.141-1.469-.286A28707.193 28707.193 0 0 1 88.09 71.714c-1.262-.429-1.272-.437-1.861.657a442160.75 442160.75 0 0 1-31.294 58.255.917.917 0 0 0-.167.748c20.027 1.409 40.115 2.7 60.175 4.1.135.494-.252.494-.484.607-1.3.641-2.628 1.231-3.891 1.934a4.68 4.68 0 0 1-2.347.56c-.147 0-.294-.004-.443-.012Zm-67.629-6.083c-.5-2.033.22-3.724 1.113-5.507a35297.59 35297.59 0 0 0 38.821-77.707c.775-1.552.775-1.552 2.366-.868 18.133 7.837 36.269 15.67 54.407 23.5a2.69 2.69 0 0 1 1.763 1.735c.269.756.577 1.498.922 2.223-.36.292-.59.058-.844-.046L83.421 52.881c-1.407-.582-1.407-.586-2.088.76a262679.102 262679.102 0 0 1-40.382 79.806c-.139.276-.165.675-.782.889a8.3 8.3 0 0 0-.02-1.856Zm80.474 0c-2.8-.256-5.6-.494-8.4-.734-3.962-.347-7.924-.687-11.886-1.02-3.913-.333-7.826-.67-11.74-1.008l-12.173-1.036c-3.911-.337-7.824-.665-11.735-1.034a28.456 28.456 0 0 1-4.341-.449c.104-.48.308-.934.6-1.33 8.81-16.12 17.623-32.236 26.44-48.351.105-.162.198-.332.278-.508.23-.631.556-.707 1.221-.482 3.206 1.07 6.44 2.053 9.664 3.083a85349.487 85349.487 0 0 0 48.04 15.339c.984.239 1.768.98 2.061 1.949.312.9.739 1.771 1.242 2.952l-60.4-17.994-22.6 40.611c20.544 2.2 40.912 4.373 61.254 6.543.107.605-.361.594-.611.717-1.558.778-3.145 1.491-4.689 2.291a3.837 3.837 0 0 1-2.225.457Zm13.077-7c-6.283-.887-12.576-1.707-18.869-2.533-5.572-.729-11.147-1.419-16.719-2.144-5.572-.725-11.143-1.49-16.712-2.227-2.539-.335-5.08-.655-7.762-1 1.4-2.47 2.729-4.822 4.057-7.174l12.441-21.953c.73-1.282.444-1.272 1.979-.85a35900.31 35900.31 0 0 0 58.429 16.048c.77.127 1.4.68 1.627 1.425.517 1.14.97 2.309 1.355 3.5l-8.653-2.166c-17.109-4.297-34.22-8.59-51.333-12.88-.562-.143-1.121-.447-1.588.381-3.373 5.92-6.8 11.808-10.371 17.988l61.89 9.829c-.225.562-.711.6-1.072.782-1.511.764-3.093 1.4-4.558 2.243a5.886 5.886 0 0 1-3.029.809c-.372 0-.744-.027-1.112-.079Zm-94.391-4.47c.02-.484.162-.955.413-1.37l38.427-78.993c.127-.26.278-.506.4-.77a.479.479 0 0 1 .716-.234c.443.195.877.409 1.316.613 17.752 8.23 35.505 16.451 53.259 24.663a3.034 3.034 0 0 1 1.831 1.874c.226.683.548 1.336.971 2.344-19.109-8.555-37.908-16.97-56.779-25.421l-39.985 81.145a14.258 14.258 0 0 1-.569-3.851Zm109.044-3.794c-7.361-1.439-14.73-2.835-22.093-4.244-7.363-1.409-14.734-2.821-22.1-4.228-4.324-.828-8.649-1.653-12.975-2.474a3.893 3.893 0 0 1-1.368-.431c1.225-2.078 2.424-4.064 3.572-6.081.317-.558.611-.663 1.262-.512 5.89 1.36 11.8 2.65 17.691 3.98 10.567 2.38 21.134 4.767 31.7 7.16 3.54.794 7.071 1.618 10.623 2.342 1.042.21 1.209.975 1.524 1.715.482 1.13.484 1.13-.6 1.67-.212.109-.434.2-.653.31-1.83.894-2.58 1.248-3.594 1.248a17.251 17.251 0 0 1-2.989-.455Zm-109.038-6.739c12.31-25.823 24.592-51.66 36.845-77.511.042-.085.087-.173.131-.258.516-1.074.52-1.08 1.545-.578 4.2 2.073 8.403 4.146 12.608 6.219a25779.89 25779.89 0 0 0 39.966 19.609c1.3.519 2.293 1.6 2.7 2.938.121.4.32.78.617 1.489-9.552-4.572-18.791-8.995-28.03-13.41-9.239-4.415-18.49-8.815-27.87-13.289l-38.611 80.351c-.334-1.88-.808-3.658.099-5.56Zm-.736-7.843 25.4-54.7c3.093-6.667 6.18-13.332 9.262-19.995.426-.757.903-1.483 1.43-2.173.339-.534.68-.534 1.2-.254 2.134 1.132 4.29 2.231 6.436 3.339 15.518 7.99 31.038 15.974 46.559 23.953 1.211.619 1.451 1.687 1.719 2.936l-2.95-1.475c-16.695-8.441-33.391-16.881-50.09-25.319-.171-.087-.349-.169-.522-.254-1.093-.546-1.1-.548-1.626.562l-20.085 42.78a76194.5 76194.5 0 0 1-16.332 34.774c-.121.264-.254.518-.393.8a7.27 7.27 0 0 1-.008-4.975Zm-.41-8.252a12317.877 12317.877 0 0 0 23.545-51.683c.856-1.884 2.354-3.3 3.553-4.929a10.682 10.682 0 0 1 1.876-2.223c-.075 1.1-26.95 60.045-29.333 64.325-.182-1.989-.471-3.684.358-5.491Zm-.6-7.315a3372.733 3372.733 0 0 0 13.8-30.941A22.944 22.944 0 0 1 54.5 51.45a12.456 12.456 0 0 1 1.837-2.2l.289.208-19.149 42.553a7.024 7.024 0 0 1 .095-4.945Zm-.417-7.276c2-4.286 3.815-8.655 5.7-12.995.957-2.2 2.72-3.79 4.128-5.646 0 1.086-9.069 21.815-10.171 23.441a6.806 6.806 0 0 1 .346-4.801Zm-.946-1.934c-.069-.862-.145-1.723-.2-2.583a.951.951 0 0 1 .27-.649c.858-1.08 1.708-2.168 2.561-3.252.112.048.22.1.334.147l-2.711 6.36c-.085-.01-.168-.016-.254-.023Z"/>
</svg>
