<svg viewBox="0 0 600 600" xmlns="http://www.w3.org/2000/svg">
    <path fill="#0e0d11" fill-rule="evenodd" d="M600 300C600 134.315 465.685 0 300 0S0 134.315 0 300s134.315 300 300 300 300-134.315 300-300Z"/>
    <linearGradient id="a" x1="299" y1="141" x2="299" y2="459.111" gradientUnits="userSpaceOnUse">
        <stop offset="0" stop-color="#f7d365"/>
        <stop offset=".502" stop-color="#ea4683"/>
        <stop offset="1" stop-color="#735fa1"/>
    </linearGradient>
    <path fill="url(#a)" fill-rule="evenodd" d="M298.997 141c-17.917 0-32.493 14.58-32.493 32.5 0 17.922 14.576 32.502 32.493 32.502 17.916 0 32.49-14.58 32.49-32.501S316.913 141 298.997 141Zm0 53.01a20.5 20.5 0 0 1-18.945-12.66 20.514 20.514 0 0 1 4.443-22.35 20.502 20.502 0 0 1 35.003 14.5 20.538 20.538 0 0 1-20.501 20.516v-.007Zm166.45 40.55c-5.83-7.938-14.831-12.132-26.024-12.132-30.687 0-54.187 31.21-76.745 62.391-7.487-11.935-15.31-23.745-24.113-33.206-12.695-13.64-25.643-20.267-39.568-20.267-13.927 0-26.87 6.618-39.57 20.267-6.562 7.058-18.37 24.457-24.109 33.206-22.561-31.182-46.06-62.39-76.748-62.39-11.193 0-20.194 4.193-26.023 12.13-5.02 6.82-7.547 16.054-7.547 27.433 0 8.37 1.463 17.676 4.12 27.025h-.093c0 9.857.839 19.519 2.449 28.917l-.099.018c.225 1.205.477 2.402.757 3.591 15.173 78.339 84.114 137.49 166.866 137.49 93.874 0 169.973-76.119 169.973-170.016h-.101c2.656-9.35 4.117-18.655 4.117-27.025.011-11.38-2.532-20.614-7.543-27.433Zm-13.022 90.091c-11.565 16.945-25.592 26.544-39.072 26.544-17.076 0-30.13-13.438-42.421-31.156-1.407 26.476-5.988 51.293-12.957 72.308 18.885-4.42 35.657-10.894 49.714-18.844 23.65-13.38 39.08-30.588 44.736-48.852Zm-93.29-14.804c-17.195 21.89-39.733 45.529-60.143 45.529-22.924 0-41.52-20.477-60.124-45.35.746 32.17 6.36 61.924 15.128 85.332 13.975 2.302 28.998 3.537 44.91 3.537 15.911 0 31.041-1.315 45.175-3.739 8.741-23.422 14.328-53.164 15.055-85.31Zm-132.067 10.178c-12.297 17.724-25.355 31.17-42.433 31.17-13.395 0-27.333-9.479-38.856-26.228 6.564 19.186 22.15 36.416 45.483 49.495 13.823 7.748 30.257 13.966 48.866 18.19-7.029-21.082-11.648-46.017-13.06-72.627Zm15.84-24.73c14.52-22.658 35.831-51.957 56.089-51.957 22.947 0 39.884 25.895 56.088 51.958-16.07 21.312-38.955 48.087-56.086 48.087-16.846 0-33.12-17.597-48.936-38.443a568.516 568.516 0 0 1-7.154-9.644Zm202.486 18.132c-9.756 16.14-21.738 25.776-32.041 25.776-16.05 0-29.659-20.587-43.833-43.387.228-.338.485-.684.734-1.013 21.445-29.69 43.642-60.383 69.17-60.383 14.322 0 21.589 9.27 21.589 27.572 0 15.776-5.984 35.497-15.619 51.435Zm-260.752 25.776c-10.305 0-22.287-9.637-32.034-25.776-9.635-15.938-15.626-35.65-15.626-51.435 0-18.302 7.267-27.572 21.588-27.572 25.536 0 47.716 30.693 69.171 60.383.124.17.248.341.37.512l.003.004.004.005.356.492c-14.172 22.8-27.786 43.387-43.832 43.387ZM408.017 173.5c0-17.921 14.575-32.501 32.492-32.501C458.42 141 473 155.58 473 173.5c0 17.922-14.574 32.502-32.49 32.502-17.918 0-32.493-14.58-32.493-32.501Zm21.1 17.052a20.5 20.5 0 0 0 11.392 3.456v.007a20.533 20.533 0 0 0 20.504-20.516 20.51 20.51 0 0 0-12.658-18.947A20.498 20.498 0 0 0 426.011 159a20.518 20.518 0 0 0-4.445 22.35 20.516 20.516 0 0 0 7.552 9.204ZM157.494 141c-17.917 0-32.484 14.58-32.484 32.5 0 17.922 14.567 32.502 32.484 32.502 17.916 0 32.492-14.58 32.492-32.501S175.398 141 157.493 141Zm0 53.01a20.5 20.5 0 0 1-18.943-12.66 20.513 20.513 0 0 1 4.444-22.351 20.502 20.502 0 0 1 35.002 14.502 20.54 20.54 0 0 1-20.503 20.515v-.007ZM269.6 444.12c-44.972-8.476-83.206-36.038-105.972-73.951 6.448 5.456 13.71 10.447 21.682 14.916 16.878 9.46 37.076 16.67 59.868 21.067.45 1.077.908 2.14 1.373 3.188 6.2 14.003 13.738 25.795 22.412 34.173.212.204.424.406.637.607Zm7.82-9.367c-6.424-6.203-12.494-15.089-17.85-26.248 12.477 1.684 25.624 2.568 39.336 2.568 13.746 0 26.992-.944 39.597-2.724-5.374 11.233-11.47 20.17-17.923 26.404-7.167 6.922-14.45 10.228-21.58 10.228-7.13 0-14.413-3.306-21.58-10.228Zm74.03-25.413c.501-1.131.994-2.28 1.479-3.442 23.084-4.612 43.651-12.122 60.754-21.796 7.666-4.338 14.688-9.142 20.94-14.351-22.737 38.128-61.086 65.862-106.223 74.369.214-.2.425-.403.637-.607 8.674-8.378 16.213-20.17 22.412-34.173Z"/>
</svg>
