<svg xmlns="http://www.w3.org/2000/svg" xmlns:xlink="http://www.w3.org/1999/xlink" width="120.493" height="117.674" viewBox="0 0 120.493 117.674">
  <defs>
    <linearGradient id="linear-gradient" x1="0.706" y1="0.704" x2="0.169" y2="0.43" gradientUnits="objectBoundingBox">
      <stop offset="0" stop-color="#30bcd0"/>
      <stop offset="1" stop-color="#ca28cc"/>
    </linearGradient>
  </defs>
  <path id="Объединение_22" data-name="Объединение 22" d="M62.183,117.668c-8.581-.361-17.169-.568-25.753-.814q-14.187-.411-28.374-.794c-.872-.02-1.745-.091-2.618-.1-.492,0-.625-.208-.7-.683a3.868,3.868,0,0,1,.492-2.489Q18.759,86.475,32.257,60.144,39.311,46.4,46.375,32.661a3.129,3.129,0,0,0,.262-.514c.252-.826.7-.808,1.428-.51,4.92,2,9.862,3.956,14.8,5.916q20.6,8.192,41.217,16.354a2.611,2.611,0,0,1,1.664,1.642c.314.854.692,1.687,1.054,2.549-.512.28-.877-.105-1.241-.242Q77.571,47.263,49.6,36.631c-1.257-.476-1.261-.474-1.9.748Q28.158,74.87,8.627,112.357a2.873,2.873,0,0,0-.514,1.3q29.656,1.1,59.305,2.2a8.543,8.543,0,0,1-4.937,1.817C62.383,117.674,62.284,117.672,62.183,117.668Zm9.595-4.431q-12.787-.709-25.573-1.374c-8.431-.433-16.86-.832-25.293-1.245q-3.195-.161-6.392-.332c-.519-.032-1.035-.1-1.686-.165.317-.635.558-1.143.82-1.642Q29.386,78.742,45.127,49.007q1.9-3.588,3.8-7.182c.573-1.08.581-1.078,1.714-.671q18.611,6.715,37.213,13.426c6.495,2.342,12.985,4.7,19.488,7.022a2.366,2.366,0,0,1,1.7,1.584c.3.941.759,1.838,1.169,2.793-.629.208-1.047-.141-1.469-.286Q80.4,56.068,52.09,46.388c-1.262-.429-1.272-.437-1.861.657Q34.584,76.174,18.935,105.3a.917.917,0,0,0-.167.748c20.027,1.409,40.115,2.7,60.175,4.1.135.494-.252.494-.484.607-1.3.641-2.628,1.231-3.891,1.934a4.68,4.68,0,0,1-2.347.56C72.074,113.249,71.927,113.245,71.778,113.237ZM4.149,107.154c-.5-2.033.22-3.724,1.113-5.507Q24.72,62.818,44.083,23.94c.775-1.552.775-1.552,2.366-.868q27.2,11.756,54.407,23.5a2.69,2.69,0,0,1,1.763,1.735,23.275,23.275,0,0,0,.922,2.223c-.36.292-.59.058-.844-.046L47.421,27.555c-1.407-.582-1.407-.586-2.088.76Q25.148,68.223,4.951,108.121c-.139.276-.165.675-.782.889A8.3,8.3,0,0,0,4.149,107.154Zm80.474,0c-2.8-.256-5.6-.494-8.4-.734Q70.28,105.9,64.337,105.4q-5.869-.5-11.74-1.008-6.086-.518-12.173-1.036c-3.911-.337-7.824-.665-11.735-1.034a28.457,28.457,0,0,1-4.341-.449,3.479,3.479,0,0,1,.6-1.33q13.215-24.179,26.44-48.351a4.027,4.027,0,0,0,.278-.508c.23-.631.556-.707,1.221-.482,3.206,1.07,6.44,2.053,9.664,3.083q24.019,7.677,48.04,15.339a2.857,2.857,0,0,1,2.061,1.949c.312.9.739,1.771,1.242,2.952l-60.4-17.994-22.6,40.611c20.544,2.2,40.912,4.373,61.254,6.543.107.605-.361.594-.611.717-1.558.778-3.145,1.491-4.689,2.291a3.837,3.837,0,0,1-1.848.475C84.873,107.169,84.748,107.163,84.623,107.15Zm13.077-7c-6.283-.887-12.576-1.707-18.869-2.533-5.572-.729-11.147-1.419-16.719-2.144S50.969,93.987,45.4,93.25c-2.539-.335-5.08-.655-7.762-1,1.4-2.47,2.729-4.822,4.057-7.174Q47.915,74.1,54.136,63.123c.73-1.282.444-1.272,1.979-.85q29.209,8.049,58.429,16.048a2.051,2.051,0,0,1,1.627,1.425,33.176,33.176,0,0,1,1.355,3.5l-8.653-2.166Q83.21,74.634,57.54,68.2c-.562-.143-1.121-.447-1.588.381-3.373,5.92-6.8,11.808-10.371,17.988l61.89,9.829c-.225.562-.711.6-1.072.782-1.511.764-3.093,1.4-4.558,2.243a5.886,5.886,0,0,1-3.029.809A8.123,8.123,0,0,1,97.7,100.153ZM3.309,95.684a2.873,2.873,0,0,1,.413-1.37L42.149,15.321c.127-.26.278-.506.4-.77a.479.479,0,0,1,.716-.234c.443.195.877.409,1.316.613Q71.209,27.275,97.84,39.593a3.034,3.034,0,0,1,1.831,1.874c.226.683.548,1.336.971,2.344C81.533,35.256,62.734,26.841,43.863,18.39L3.878,99.535A14.258,14.258,0,0,1,3.309,95.684ZM112.353,91.89c-7.361-1.439-14.73-2.835-22.093-4.244s-14.734-2.821-22.1-4.228q-6.486-1.242-12.975-2.474a3.893,3.893,0,0,1-1.368-.431c1.225-2.078,2.424-4.064,3.572-6.081.317-.558.611-.663,1.262-.512,5.89,1.36,11.8,2.65,17.691,3.98q15.851,3.57,31.7,7.16c3.54.794,7.071,1.618,10.623,2.342,1.042.21,1.209.975,1.524,1.715.482,1.13.484,1.13-.6,1.67-.212.109-.434.2-.653.31-1.83.894-2.58,1.248-3.594,1.248A17.25,17.25,0,0,1,112.353,91.89ZM3.315,85.151Q21.781,46.416,40.16,7.64c.042-.085.087-.173.131-.258.516-1.074.52-1.08,1.545-.578q6.3,3.109,12.608,6.219,19.973,9.821,39.966,19.609a4.609,4.609,0,0,1,2.7,2.938c.121.4.32.78.617,1.489-9.552-4.572-18.791-8.995-28.03-13.41S51.207,14.834,41.827,10.36L3.216,90.711C2.882,88.831,2.408,87.053,3.315,85.151Zm-.736-7.843q12.7-27.348,25.4-54.7,4.639-10,9.262-19.995A18.683,18.683,0,0,1,38.671.44c.339-.534.68-.534,1.2-.254,2.134,1.132,4.29,2.231,6.436,3.339Q69.584,15.51,92.866,27.478c1.211.619,1.451,1.687,1.719,2.936l-2.95-1.475Q66.593,16.277,41.545,3.62c-.171-.087-.349-.169-.522-.254-1.093-.546-1.1-.548-1.626.562L19.312,46.708Q11.149,64.1,2.98,81.482c-.121.264-.254.518-.393.8A7.27,7.27,0,0,1,2.579,77.307Zm-.41-8.252Q14,43.244,25.714,17.373c.856-1.884,2.354-3.3,3.553-4.929a10.681,10.681,0,0,1,1.876-2.223c-.075,1.1-26.95,60.045-29.333,64.325C1.628,72.557,1.339,70.862,2.168,69.055Zm-.6-7.315Q8.549,46.3,15.369,30.8A22.944,22.944,0,0,1,18.5,26.124a12.456,12.456,0,0,1,1.837-2.2l.289.208L1.477,66.685A7.024,7.024,0,0,1,1.572,61.74Zm-.417-7.276c2-4.286,3.815-8.655,5.7-12.995.957-2.2,2.72-3.79,4.128-5.646,0,1.086-9.069,21.815-10.171,23.441A6.806,6.806,0,0,1,1.155,54.464ZM.206,52.531c-.069-.862-.145-1.723-.2-2.583a.951.951,0,0,1,.27-.649c.858-1.08,1.708-2.168,2.561-3.252.112.048.22.1.334.147L.46,52.554C.375,52.544.292,52.538.206,52.531Z" fill="url(#linear-gradient)"/>
</svg>