<svg viewBox="0 0 240 240" xmlns="http://www.w3.org/2000/svg">
    <path fill="#4038ff" fill-rule="evenodd" d="M240 120C240 53.726 186.274 0 120 0S0 53.726 0 120s53.726 120 120 120 120-53.726 120-120Z"/>
    <path fill="#fff" d="M135.28 49.73h12.7l-.15 59.67a57 57 0 0 1-14.49 37.86 67.76 67.76 0 0 0 1.72-15Z"/>
    <path fill="#fff" d="M94.28 153.78a34.19 34.19 0 0 1-26.15 12.61L72 153.73Z"/>
    <path fill="#fff" d="M102 130.94v1.28a34 34 0 0 1-2 11.41l-25-.06 3.83-12.69Z"/>
    <path fill="#fff" d="M158.14 49.78h12.7l-.09 36.84a57 57 0 0 1-14.49 37.86 67.76 67.76 0 0 0 1.72-15Z"/>
    <path fill="#fff" d="m125.11 49.69-.21 82.59c-.121 31.555-25.765 57.055-57.32 57h-6.35l3.83-12.69h2.56c24.546.039 44.487-19.805 44.57-44.35l.22-82.58Z"/>
</svg>
