<svg viewBox="0 0 64 64" fill="none" xmlns="http://www.w3.org/2000/svg">
    <path d="M32 64c17.673 0 32-14.327 32-32C64 14.327 49.673 0 32 0 14.327 0 0 14.327 0 32c0 17.673 14.327 32 32 32Z" fill="#1B1B1B"/>
    <path d="M41.736 14.484 30.352 24.826a6.437 6.437 0 0 1-4.305 1.674l-3.394.007-.01-12.023h-6.137v34.358h3.346c1.871 0 3.617-.992 4.533-2.621.007-.01.01-.022.018-.03.608-1.09.912-3.247.853-4.718-.132-3.364-.674-4.24-.674-4.24-.113 2.307-2.522 2.431-2.522 2.431 1.713-1.636.78-2.874.78-2.874-3.035 2.16-3.793-.146-3.852-.355.096.08.96.802 2.6-1.446 1.735-2.376 4.049-6.337 5.52-7.354 1.476-1.022 2.874-.938 2.874-.938s.806-1.09 2.936-1.999c2.13-.9 3.496.421 3.496.421-2.178 1.758-5.136 4.643-5.3 8.776-.132 3.346 7.08 9.086 5.813 17.565.758-1.926 1.062-3.855.802-6.242-.209-1.926-1.45-5.95-1.45-5.95l6.926 9.57h7.66l-14.97-20.563 14.97-13.79h-9.127Z" fill="url(#a)"/>
    <defs>
        <linearGradient id="a" x1="68.926" y1="62.782" x2="36.726" y2="-1.491" gradientUnits="userSpaceOnUse">
            <stop stop-color="#E40C5B"/>
            <stop offset="1" stop-color="#FF4C3B"/>
        </linearGradient>
    </defs>
</svg>
