<svg viewBox="0 0 640 640" xmlns="http://www.w3.org/2000/svg">
    <path d="M640 320.3c0 176.9-143.4 320.3-320.3 320.3S-.5 497.1-.5 320.3 142.9 0 319.8 0 640 143.4 640 320.3Z"/>
    <path fill="#fff" d="M368.2 121.1c0 26.178-21.222 47.4-47.4 47.4-26.178 0-47.4-21.222-47.4-47.4 0-26.178 21.222-47.4 47.4-47.4 26.178 0 47.4 21.222 47.4 47.4Z"/>
    <path fill="#fff" d="M368.2 519.9c0 26.178-21.222 47.4-47.4 47.4-26.178 0-47.4-21.222-47.4-47.4 0-26.178 21.222-47.4 47.4-47.4 26.178 0 47.4 21.222 47.4 47.4Z"/>
    <path fill="#fff" d="M193.4 215.9c0 26.178-21.222 47.4-47.4 47.4-26.178 0-47.4-21.222-47.4-47.4 0-26.178 21.222-47.4 47.4-47.4 26.178 0 47.4 21.222 47.4 47.4Z"/>
    <path fill="#fff" d="M543.1 215.9c0 26.178-21.222 47.4-47.4 47.4-26.178 0-47.4-21.222-47.4-47.4 0-26.178 21.222-47.4 47.4-47.4 26.178 0 47.4 21.222 47.4 47.4Z"/>
    <path fill="#fff" d="M193.4 426.7c0 26.178-21.222 47.4-47.4 47.4-26.178 0-47.4-21.222-47.4-47.4 0-26.178 21.222-47.4 47.4-47.4 26.178 0 47.4 21.222 47.4 47.4Z"/>
    <path fill="#fff" d="M543.1 426.7c0 26.178-21.222 47.4-47.4 47.4-26.178 0-47.4-21.222-47.4-47.4 0-26.178 21.222-47.4 47.4-47.4 26.178 0 47.4 21.222 47.4 47.4Z"/>
    <path fill="#fff" d="M425.2 335.7c-5-7.5-12.5-13.3-22.4-17.6-3.2-1.4-6.7-2.5-10.4-3.5.8-.4 1.5-.8 2.3-1.2 8.8-5.1 15.2-11.4 19.1-18.9 3.9-7.5 5.9-15.8 5.9-24.9 0-10-2.3-18.6-6.9-25.8-4.6-7.3-11.3-12.8-19.9-16.7-8.7-3.9-19-5.8-31-5.8h-148l14.8 96.4-14.8 101.7h153.5c14.2 0 26.1-2.4 36-7.3 9.8-4.8 17.2-11.6 22.1-20.1 4.9-8.6 7.4-18.4 7.4-29.4-.2-10.5-2.7-19.4-7.7-26.9ZM366 311Zm-22.1-42.9c2.4 1.2 4.3 2.9 5.5 5 1.3 2.1 1.9 4.5 1.9 7.3 0 2.9-.7 5.5-2.1 7.8-1.4 2.3-3.3 4.1-5.7 5.4-2.4 1.3-5.1 1.9-8.2 1.9H289l-4.7-29.1h51.1c3.2-.1 6.1.5 8.5 1.7Zm15.5 101.4c-3.3 3.1-7.8 4.6-13.6 4.6H284l5.2-34.3h56c6 0 10.7 1.6 14 4.8 3.4 3.2 5 7.1 5 12.3.2 5.3-1.5 9.5-4.8 12.6Z"/>
</svg>
