<svg viewBox="0 0 1220 1220" fill="none" xmlns="http://www.w3.org/2000/svg">
    <path d="M1145.5 610c0 295.748-239.752 535.5-535.5 535.5S74.5 905.748 74.5 610 314.252 74.5 610 74.5s535.5 239.752 535.5 535.5z" fill="#D7FF5E" stroke="url(#paint0_linear_157_110)" stroke-width="9"/>
    <path fill-rule="evenodd" clip-rule="evenodd" d="M1220 610c0 336.894-273.106 610-610 610S0 946.894 0 610 273.106 0 610 0s610 273.106 610 610zm-610 540c298.234 0 540-241.766 540-540 0-298.234-241.766-540-540-540C311.766 70 70 311.766 70 610c0 298.234 241.766 540 540 540z" fill="url(#paint1_linear_157_110)"/>
    <path fill-rule="evenodd" clip-rule="evenodd" d="M440.001 303c75.552 0 136.8 56.962 136.8 127.229v304.702c-8.006.781-15.601 1.002-22.799.71v7.228h-114V636.845h.266c4.077 58.981 53.018 105.615 112.939 106.02h.784v-7.224c-83.921-3.406-113.99-76.47-113.99-144.695V303zM440 742.88c0 70.267 56.962 127.229 127.229 127.229H839c0-70.267-56.962-127.229-127.229-127.229H440z" fill="#25143B"/>
    <defs>
        <linearGradient id="paint0_linear_157_110" x1="833.503" y1="1092" x2="-62.998" y2="-1074" gradientUnits="userSpaceOnUse">
            <stop stop-color="#D7FF5E"/>
            <stop offset="1" stop-color="#EF9365"/>
        </linearGradient>
        <linearGradient id="paint1_linear_157_110" x1="420.988" y1="-.001" x2="1056.76" y2="1529.3" gradientUnits="userSpaceOnUse">
            <stop stop-color="#D7FF5E"/>
            <stop offset=".183" stop-color="#EF9365"/>
            <stop offset=".628" stop-color="#613D93"/>
            <stop offset="1" stop-color="#25143B"/>
        </linearGradient>
    </defs>
</svg>
