<svg viewBox="0 0 208 208" xmlns="http://www.w3.org/2000/svg">
    <path fill="#fff" fill-rule="evenodd" d="M207.511 103.812C207.511 46.478 161.033 0 103.7 0 46.366 0-.112 46.478-.112 103.812c0 57.333 46.478 103.811 103.812 103.811 57.333 0 103.811-46.478 103.811-103.811Z"/>
    <clipPath id="a">
        <path d="M53.7 52.013h99.54V155.99H53.7Z"/>
    </clipPath>
    <g clip-path="url(#a)" fill="#121212">
        <path d="M136.369 155.99H53.7V68.885h18.915v70.224h63.754v16.881Z"/>
        <path d="M136.369 85.757c9.318 0 16.872-7.553 16.872-16.872 0-9.318-7.554-16.872-16.872-16.872-9.319 0-16.872 7.554-16.872 16.872 0 9.319 7.553 16.872 16.872 16.872Z"/>
    </g>
</svg>
