<svg xmlns="http://www.w3.org/2000/svg" xmlns:xlink="http://www.w3.org/1999/xlink" width="500" zoomAndPan="magnify" viewBox="0 0 375 374.999991" height="500" preserveAspectRatio="xMidYMid meet" version="1.0"><defs><g/><clipPath id="048e8f16a8"><path d="M 153.046875 108.796875 L 219.953125 108.796875 L 219.953125 175.703125 L 153.046875 175.703125 Z M 153.046875 108.796875 " clip-rule="nonzero"/></clipPath><clipPath id="565184c2bc"><path d="M 153.046875 45.765625 L 219.953125 45.765625 L 219.953125 104.199219 L 153.046875 104.199219 Z M 153.046875 45.765625 " clip-rule="nonzero"/></clipPath><clipPath id="7b757e7d13"><path d="M 186.5 45.765625 L 219.953125 104.308594 L 153.046875 104.308594 Z M 186.5 45.765625 " clip-rule="nonzero"/></clipPath><clipPath id="c4d606a737"><path d="M 88.386719 108.796875 L 146.820312 108.796875 L 146.820312 175.703125 L 88.386719 175.703125 Z M 88.386719 108.796875 " clip-rule="nonzero"/></clipPath><clipPath id="d93dc50a8a"><path d="M 88.386719 142.25 L 146.929688 108.796875 L 146.929688 175.703125 Z M 88.386719 142.25 " clip-rule="nonzero"/></clipPath><clipPath id="a6a2e07753"><path d="M 153.046875 180.277344 L 219.953125 180.277344 L 219.953125 238.707031 L 153.046875 238.707031 Z M 153.046875 180.277344 " clip-rule="nonzero"/></clipPath><clipPath id="ca908678b5"><path d="M 186.5 238.707031 L 153.046875 180.164062 L 219.953125 180.164062 Z M 186.5 238.707031 " clip-rule="nonzero"/></clipPath><clipPath id="717114c8c5"><path d="M 226.308594 108.796875 L 284.738281 108.796875 L 284.738281 175.703125 L 226.308594 175.703125 Z M 226.308594 108.796875 " clip-rule="nonzero"/></clipPath><clipPath id="e98630b4c9"><path d="M 284.738281 142.25 L 226.199219 175.703125 L 226.199219 108.796875 Z M 284.738281 142.25 " clip-rule="nonzero"/></clipPath></defs><rect x="-37.5" width="450" fill="#ffffff" y="-37.499999" height="449.999989" fill-opacity="1"/><g fill="#396bc2" fill-opacity="1"><g transform="translate(71.661003, 273.852112)"><g><path d="M 21.824219 -22.5 L 14.664062 -6.9375 L 7.574219 -22.5 L 2.210938 -22.5 L 2.210938 0 L 7.164062 0 L 7.164062 -13.425781 L 13.238281 0 L 16.085938 0 L 22.199219 -13.386719 L 22.199219 0 L 27.148438 0 L 27.148438 -22.5 Z M 21.824219 -22.5 "/></g></g></g><g fill="#396bc2" fill-opacity="1"><g transform="translate(113.623472, 273.852112)"><g><path d="M 15.976562 0 L 21.261719 0 L 13.164062 -22.5 L 7.613281 -22.5 L -0.488281 0 L 4.800781 0 L 6.1875 -4.238281 L 14.585938 -4.238281 Z M 7.5 -8.363281 L 10.386719 -17.289062 L 13.273438 -8.363281 Z M 7.5 -8.363281 "/></g></g></g><g fill="#396bc2" fill-opacity="1"><g transform="translate(146.998445, 273.852112)"><g><path d="M 18.375 -22.5 L 18.375 -7.613281 L 7.3125 -22.5 L 2.210938 -22.5 L 2.210938 0 L 7.164062 0 L 7.164062 -14.925781 L 18.1875 0 L 23.289062 0 L 23.289062 -22.5 Z M 18.375 -22.5 "/></g></g></g><g fill="#396bc2" fill-opacity="1"><g transform="translate(185.135918, 273.852112)"><g><path d="M 2.210938 0 L 9.636719 0 C 15.824219 0 20.886719 -5.023438 20.886719 -11.25 C 20.886719 -17.476562 15.824219 -22.5 9.636719 -22.5 L 2.210938 -22.5 Z M 7.164062 -4.386719 L 7.164062 -18.113281 L 9.601562 -18.113281 C 13.164062 -18.113281 15.9375 -15.148438 15.9375 -11.25 C 15.9375 -7.351562 13.164062 -4.386719 9.601562 -4.386719 Z M 7.164062 -4.386719 "/></g></g></g><g fill="#396bc2" fill-opacity="1"><g transform="translate(220.010893, 273.852112)"><g><path d="M 15.976562 0 L 21.261719 0 L 13.164062 -22.5 L 7.613281 -22.5 L -0.488281 0 L 4.800781 0 L 6.1875 -4.238281 L 14.585938 -4.238281 Z M 7.5 -8.363281 L 10.386719 -17.289062 L 13.273438 -8.363281 Z M 7.5 -8.363281 "/></g></g></g><g fill="#396bc2" fill-opacity="1"><g transform="translate(253.385867, 273.852112)"><g><path d="M 7.164062 -4.386719 L 7.164062 -22.5 L 2.210938 -22.5 L 2.210938 0 L 14.625 0 L 14.625 -4.386719 Z M 7.164062 -4.386719 "/></g></g></g><g fill="#396bc2" fill-opacity="1"><g transform="translate(280.685838, 273.852112)"><g><path d="M 15.976562 0 L 21.261719 0 L 13.164062 -22.5 L 7.613281 -22.5 L -0.488281 0 L 4.800781 0 L 6.1875 -4.238281 L 14.585938 -4.238281 Z M 7.5 -8.363281 L 10.386719 -17.289062 L 13.273438 -8.363281 Z M 7.5 -8.363281 "/></g></g></g><g fill="#396bc2" fill-opacity="1"><g transform="translate(153.482078, 295.052119)"><g><path d="M 6.238281 -11.261719 C 3.199219 -11.261719 0.832031 -9.167969 0.832031 -5.457031 C 0.832031 -1.839844 3.070312 0.222656 6.09375 0.222656 C 8.894531 0.222656 10.796875 -1.230469 11.054688 -3.726562 L 11.070312 -3.886719 L 8.558594 -3.886719 L 8.527344 -3.726562 C 8.269531 -2.414062 7.488281 -1.632812 6.191406 -1.632812 C 4.6875 -1.632812 3.472656 -2.832031 3.472656 -5.597656 C 3.472656 -8.046875 4.605469 -9.40625 6.207031 -9.40625 C 7.535156 -9.40625 8.320312 -8.71875 8.574219 -7.4375 L 8.605469 -7.277344 L 11.117188 -7.277344 L 11.101562 -7.4375 C 10.878906 -9.613281 9.292969 -11.261719 6.238281 -11.261719 Z M 6.238281 -11.261719 "/></g></g></g><g fill="#396bc2" fill-opacity="1"><g transform="translate(169.079266, 295.052119)"><g><path d="M 11.199219 -11.039062 L 8.703125 -11.039062 L 8.703125 -6.398438 L 3.871094 -6.398438 L 3.871094 -11.039062 L 1.359375 -11.039062 L 1.359375 0 L 3.871094 0 L 3.871094 -4.429688 L 8.703125 -4.429688 L 8.703125 0 L 11.199219 0 Z M 11.199219 -11.039062 "/></g></g></g><g fill="#396bc2" fill-opacity="1"><g transform="translate(185.236321, 295.052119)"><g><path d="M 7.453125 -3.121094 L 8.460938 0 L 11.183594 0 L 7.246094 -11.039062 L 4.144531 -11.039062 L 0.160156 0 L 2.832031 0 L 3.855469 -3.121094 Z M 5.664062 -8.863281 L 6.832031 -5.085938 L 4.480469 -5.085938 Z M 5.664062 -8.863281 "/></g></g></g><g fill="#396bc2" fill-opacity="1"><g transform="translate(200.273642, 295.052119)"><g><path d="M 3.871094 0 L 3.871094 -11.039062 L 1.359375 -11.039062 L 1.359375 0 Z M 3.871094 0 "/></g></g></g><g fill="#396bc2" fill-opacity="1"><g transform="translate(209.104452, 295.052119)"><g><path d="M 11.4375 0 L 11.4375 -11.039062 L 8.941406 -11.039062 L 8.941406 -6.128906 C 8.941406 -5.3125 8.957031 -4.0625 9.023438 -2.910156 L 4.574219 -11.039062 L 1.359375 -11.039062 L 1.359375 0 L 3.871094 0 L 3.871094 -4.800781 C 3.871094 -5.597656 3.855469 -6.734375 3.777344 -7.902344 L 8.09375 0 Z M 11.4375 0 "/></g></g></g><g clip-path="url(#048e8f16a8)"><path stroke-linecap="butt" transform="matrix(0.446037, 0, 0, 0.446037, 153.047558, 108.798055)" fill="none" stroke-linejoin="miter" d="M -0.00153048 -0.00264609 L 150.000105 -0.00264609 L 150.000105 149.99899 L -0.00153048 149.99899 Z M -0.00153048 -0.00264609 " stroke="#396bc2" stroke-width="47.081318" stroke-opacity="1" stroke-miterlimit="4"/></g><g clip-path="url(#565184c2bc)"><g clip-path="url(#7b757e7d13)"><path stroke-linecap="butt" transform="matrix(0.446037, 0, 0, 0.446037, 153.047558, 45.766531)" fill="none" stroke-linejoin="miter" d="M 74.999287 -0.00203031 L 150.000105 131.249401 L -0.00153048 131.249401 Z M 74.999287 -0.00203031 " stroke="#396bc2" stroke-width="47.081318" stroke-opacity="1" stroke-miterlimit="4"/></g></g><g clip-path="url(#c4d606a737)"><g clip-path="url(#d93dc50a8a)"><path stroke-linecap="butt" transform="matrix(0, -0.446037, 0.446037, 0, 88.387556, 175.703573)" fill="none" stroke-linejoin="miter" d="M 75.001823 -0.00187775 L 150.002641 131.249554 L 0.00100499 131.249554 Z M 75.001823 -0.00187775 " stroke="#396bc2" stroke-width="47.081318" stroke-opacity="1" stroke-miterlimit="4"/></g></g><g clip-path="url(#a6a2e07753)"><g clip-path="url(#ca908678b5)"><path stroke-linecap="butt" transform="matrix(-0.446037, 0, 0, -0.446037, 219.953104, 238.70625)" fill="none" stroke-linejoin="miter" d="M 75.000772 -0.00175171 L 150.00159 131.24968 L -0.0000460581 131.24968 Z M 75.000772 -0.00175171 " stroke="#396bc2" stroke-width="47.081318" stroke-opacity="1" stroke-miterlimit="4"/></g></g><g clip-path="url(#717114c8c5)"><g clip-path="url(#e98630b4c9)"><path stroke-linecap="butt" transform="matrix(0, 0.446037, -0.446037, 0, 284.739917, 108.798055)" fill="none" stroke-linejoin="miter" d="M 74.998172 0.0036673 L 149.99899 131.246341 L -0.00264609 131.246341 Z M 74.998172 0.0036673 " stroke="#396bc2" stroke-width="47.081318" stroke-opacity="1" stroke-miterlimit="4"/></g></g></svg>