<svg viewBox="0 0 64 64" xmlns="http://www.w3.org/2000/svg">
    <path fill="#7aead7" fill-rule="evenodd" d="M64 32C64 14.327 49.673 0 32 0 14.327 0 0 14.327 0 32c0 17.673 14.327 32 32 32 17.673 0 32-14.327 32-32Z"/>
    <path fill="#030408" d="M36.75 41.45c-.125.031-.094.154.031.123-.125.031-.125.184 0 .154h.032c-.032.03 0 .091.062.091 0 .062.031.123.031.123.063 0 .094-.03.094-.061.031-.031.094-.031.125 0 .063 0 .125 0 .125.091.094 0 .125.062.156.093.157.122.188.306.25.49l-.03.03s.062.123.187.215c.093.306.28.46.53.612.063.092.22.215.345.337l-.032-.092v-.091c.094.06.188.122.282.214.03 0 .062-.03.062-.03.063.06.094.153.156.183.032 0 .063 0 .094-.03.219.245.281.582.469.796.156.153.531.368.687.613.188.245.532.337.72.582.062-.092.093.03.155 0 0 .03 0 .092.032.092l.25.092c-.063-.031-.094-.092-.126-.123.47.306.907.674 1.376 1.011 1.218 1.011 2.406 2.175 3.624 3.217-.03-.092-.03-.154.032-.184.187.153.469.49.656.52-.5-.52-1.063-1.01-1.25-1.623.188.03.281.03.438.153-.063.03-.094.061-.094.123.125-.092.156 0 .187.03a41.755 41.755 0 0 0 2.625 2.604c-.5-.766-1.28-1.225-1.687-1.96.75.643 1.5 1.286 2.187 2.052l.813.827c0-.092.031-.153.031-.214l-.844-.889c-.28-.275-.625-.582-.812-.857-.25-.399-.375-.797-.781-1.042 0 .092.125.215.062.276-.563-.52-1.25-1.103-1.625-1.746.063-.062.156.153.156.03-.187-.122-.343-.367-.468-.643-.094 0 0 .122-.125.061-.344-.46-.97-.704-1.22-1.286.094.03.188.06.313.06.157.031-.906-.367-.75-.826.157-.368.22.275.782.398.218.03.187-.153.28-.245.876.827 1.595 1.501 1.907 1.746v-.092c-.094-.153-.219-.184-.219-.337l.032-.092c.562.644 1.656 2.175 2.562 2.267-.094-.092-.156-.153-.156-.275.031-.154.125-.123.281-.123a.698.698 0 0 0-.406-.123v.123c-.188-.03-.406-.061-.5-.276.094 0 .25 0 .281-.122-.25 0-.406-.03-.563-.276.094-.061.188-.061.25-.061 0-.092 0-.092-.062-.184-.094-.061-.313-.337-.375-.337-.094-.092-.219-.153-.219-.153l-.125.03-.062-.306c-.156.061-.063.245-.219.306l-.563-.612v-.245c0-.154.157-.092.188-.092-.031.245-.281.184.188.46l.03-.184c0-.307-.374-.338-.374-.583h-.032c0-.03.032-.091.032-.122-.063.03-.094-.03-.156-.061-.032 0-.032 0-.063-.031h-.031v-.123c-.281 0-.375-.275-.5-.428-.282-.43-.625-.858-1.031-1.195-.032-.123-.188-.307-.5-.674-.157-.153 1.093.766 1.03.643-.25-.398 1.75.03 1.75.03l-.562-.428c.125-.03-.031-.52-.031-.582v-.092l-.156.122v-.091l-.219.153h-.031c0-.184.062-.307.187-.398h-.03c-.126 0-.157-.154-.032-.154.062 0 .094.092.062.123l.188-.092.031.184h.125c0 .122.063.214.156.398h-.125l.094.368c.156 0 .156-.368.125-.521 0-.245-.094-.337-.125-.582h.094v-.062h-.125l-.375-.153-.125.092c0-.153-.125-.153-.156-.153-.22 0-.25 0-.25.153l.03.092-.03.061s-.157-.03-.25-.122l-.094-.092.093-.153c0 .092.094.092.157.092l-.032-.184h.094c.032-.03.032-.245.032-.337 0 0-.032-.123-.126-.123h-.062l-.031-.245s.156.154.187.123l.22-.092c-.22-.184-.407-.123-.657-.123 0-.153.062-.153.031-.275-.094-.154-.187-.215-.312-.215 0 .03.062.245.187.245-.156.123-.25.245-.312.368l-.094-.092-.157.092-.093.03h-.094c.344-.153.5-.275.469-.643-.156 0-.5-.092-.563-.122L45 40.624l-.344.03v-.214l.188-.03v-.031a.564.564 0 0 0-.25-.123l-.344.153s-.031 0-.094.03c.157-.06.063-.275.22-.275v-.092a.57.57 0 0 0-.063-.245c.062-.03.03-.153 0-.153-.063 0-.063.03-.063.061-.219-.153-.563-.061-.594-.429l-.156.123c-.25 0-.469-.337-.5-.49l-.125.03c0-.153.094-.367-.156-.337 0-.06-.032-.153.125-.153 0-.03-.063-.153-.157-.153l-.156.153c.063-.153-.093-.153-.093-.276h.156v-.122h-.032c0-.123.094-.184 0-.368-.218-.092-.343 0-.406.123l-.062.03-.188-.122h.188v-.123c-.094-.03-.282-.245-.282-.245l-.156.154-.187-.154.156-.091-.063-.184c.094-.062.157-.123.126-.215-.032-.184-.47-.153-.407.153-.156-.06-.75-.582-.812-.643-.094-.092-.313-.337-.282-.429.032 0 .063.03.094.03h.032c0 .032.062.062.093.123l.032.031.124.153c-.03.03-.03.092 0 .153.032.031.126.031.188 0 .094.092.156.123.156.092 0-.03-.03-.061-.093-.122.03 0 .062-.031.093-.062-.03-.183-.187-.214-.281-.122l-.063-.061c.094-.031.157-.215.063-.276-.094-.03-.188.03-.219.123-.031-.031-.062-.031-.062-.062.156-.03.156-.092.343-.153a.641.641 0 0 0 .126-.184c0 .092.062.092.062 0 0-.03-.031-.061-.031-.061v-.123c0-.337-.407-.551-.813-.52-.03.092 0 .183 0 .306h-.03c-.032-.061-.095-.092-.126-.123l.156-.214c.125 0 .157 0 .25-.123h-.125l-.093.062a.575.575 0 0 0 .062-.399c-.281-.06-.781.215-.906.552l-.5-.429c.062 0 .125-.03.156-.092.063 0 .063-.03.063-.061.03-.061.03-.123.03-.184h.407c-.031-.245-.437-.245-.344-.398l-.5-.398c.063-.092.032-.215-.093-.337a.472.472 0 0 0-.22.06c-.53-.459-1.156-.949-1.218-.888l-.781-.735-.157.03c-.218 0-.406-.887-.812-.612l-.188-.184c.907-1.194 1.813-2.39 2.657-3.584.062 0 .156-.03.25-.123-.032-.153.031-.275 0-.428.156-.215.281-.399.312-.521l-.437.551c-.125 0-.219-.122-.375 0-.094.092-.094.307.031.43-.531.581-1.031 1.163-1.625 1.592.031-.214 0-.306.219-.582.031.03.093.03.156 0-.125-.061 0-.153.063-.214l1.5-1.838c.124.06.25.06.312.06.094-.152.063-.305 0-.459l.438-.52c0 .153.125.306.25.398-.094.092-.22.184-.25.276.125-.123.25-.215.312-.123.031.123-.156.276-.219.398.22-.184.407-.398.563-.582.062-.061.125-.122.156-.214.313-.398.563-.766.844-1.164-.469.367-.594.674-.844 1.01-.031-.091-.094-.183-.188-.214.438-.367.844-.796 1.032-1.195l-.188.184c0-.153-.156-.306-.312-.276l.375-.52c-.844.796-1.406 1.684-2.094 2.45a.238.238 0 0 0-.125-.06c.375-.552.813-1.104 1.219-1.655.062 0 .093-.03.125-.092v-.03l1.031-1.287.75-.95c.063.123.25.184.313-.03 0-.031-.094-.092-.157-.123l.063-.092v.123c.156-.184.5-.43.562-.675l-.53.521c.218-.275.437-.551.687-.796 0 .03 0 .092.03.092.095 0 .126-.123.032-.154.125-.153.25-.275.375-.367.5-.95 1.406-1.838 2.281-2.85.75-.826 1.438-1.837 2.188-2.756l1.687-2.083c.157-.184.657-.766.438-.521a453.025 453.025 0 0 0-9.125 10.844s-.031.031-.031.062c-.157-.092-.25-.092-.344.03 0 .123.062.184.156.184l-.281.368c-.032-.03-.094-.03-.125 0 .031.03.031.061.031.092l-.125.184c-.063-.031-.125-.031-.187-.031a.19.19 0 0 0 0 .276l-.375.398c-.344.337-.688.613-.97.888a1.42 1.42 0 0 0 .188-.551c.125-.858.719-1.44 1.344-1.991.156-.123.375-.276.375-.552-.063-.03-.063-.153.031-.153.063 0 .094 0 .094.061.031-.061.063-.092.031-.153h.125v-.03h-.03s.03-.031.062-.031c.093-.061.125-.184.125-.276.03-.03 0-.092-.032-.122.063 0 .188-.092.313-.184.031-.03.062-.03.062-.062.094.154.282.215.438.062 0-.092-.063-.184-.188-.276.188-.184.344-.337.344-.429-.031-.153.156-.061.281-.306h-.312l.156-.153c.25-.092.219-.245.375-.368l-.094-.061v-.092l.094-.092c.156-.061.313-.398.313-.398l.156.061c0-.092.031-.122.156-.245-.125-.123-.125-.092-.156-.092-.032-.245.219-.276.469-.276l-.25-.122c.03-.276.25-.46.406-.644 0 .092.093.092.093 0 0-.03-.03-.06-.062-.03.094-.153.188-.276.188-.46l-.407.368c0-.245.125-.52.094-.766-.25.03-1.375 1.47-1.469 1.746h.157c-.125.215-.688.521-.657.766h.219c-.156.092-.406.153-.562.184v-.061c-.032-.245.124-.368.312-.368 0-.03-.094-.153-.094-.153.094 0 .157-.061.25-.184.032.03.032.061.063.061.062 0 .062-.122.031-.183.156-.184.281-.399.406-.49l-.468.03c.468-.061 1.437-.827 1.406-1.317 0-.153-.344-.123-.344-.368l-.031-.092c0-.061.469-.674.469-.735l-.157.061v-.061c-.031-.368 1.032-1.042 1-1.47l-.75.857h-.03c0 .03 0 .245-.095.245h-.125l-.031-.122c.25-.123.219-.368.219-.613v-.306c-.094.153-.438.674-.563.674l-.937.95-.094.03c.094-.123.531-.551.531-.674 0-.092-.062-.123-.156-.123.156-.153.844-.95.969-1.102l.219-.245c-.47.091-.875.674-1.125.98h-.094l.062-.123.313-.429h-.063s-.156.276-.218.184l-.782.797-.187.03c.094-.06.468-.428.468-.551 0-.123-.093-.153-.156-.153.157-.153.282-.368.375-.521-.25.184-.53.52-.593.92l-.094.03c-.063 0-.25.122-.313.245v-.123c-.25.03-.312.184-.312.399.093 0 .093.091 0 .122v-.123c-.032 0-.032.123 0 .123v.123c-.25 0-.157.03-.282-.123l.094-.245v-.092h-.125c.032.337-.437 1.256-.937 1.287.031.061.125.061.187.061-.031.123-.125.153-.187.184.031.03.031.153-.032.153-.062 0-.093-.061-.062-.092-.094.03-.156.092-.094.337l-.093-.092-.125.123.062.091v.062c-.156.153-.344.275-.469.398l.094.092c-.094.245-.25.122-.406.122v-.183c-.157 0-.157.183-.344.214h-.156l.343-.214-.218-.123.437-.122.063.091h.093l.063-.183v-.092l-.562.03s-.157.276-.25.184l-.376.46-.03-.337-.5.49c.03-.092.187-.245.187-.337v-.061h-.032c0-.245.72-.521.47-.766l.937-1.226c-.125.062-.25.123-.313.215-.125.092-.218.214-.312.337v.03l-.125.123c-.098.146-.213.28-.344.398v.062l-.094.091.032-.091c-.063.091-.126.122-.188.183.125 0 .156.153.031.153-.062 0-.093-.06-.093-.091l-.407.275a.94.94 0 0 1-.25.245c0 .092-.156.184-.156.368v.061l.156-.184h.032c-.032.092-.094.246-.188.276h-.094l-.093-.092c0-.06.03-.122.03-.184-.033.12-.086.235-.156.338.03.058.092.093.157.091l-.157.245c-.156.123-.718.797-.843.92l-.032-.092c.282-.399.594-.674.876-.98-1.157.214-1.032 1.745-1.844 2.266l.156-.03-.406.428c-.125-.091-.875.736-1.063.98v-.03c.063-.245-.031-.153.157-.214.062-.153.156-.153.156-.307l-.094.031c-1.031.368-.594 1.379-1.375 2.175-.375.337-1.438 2.267-1.75 2.267-1.344-.704-2.813-1.93-3.469-2.45-.281-.215-1.812-1.38-2.687-1.287v-.215l-.157.062.063-.215-.188-.092v.214l-.093.031c-.063 0-.438-.214-.532-.214.094-.153.032-.245-.062-.307.063-.245.125-.429-.094-.551-.375-.061-.406.184-.718.184-.032.061-.032.092-.063.092l-.625.184c.063-.062.094-.123.094-.246-.188-.183-.438.154-.25.307-.153.04-.31.06-.469.061-.375.03-.656.245-.844.49-.093.03-.125.092-.187.123-.032-.092-.032-.154-.125-.184.031-.214.187-.306.218-.52-.25.03-.343.03-.625-.031.032-.092-.03-.154-.093-.184-.032.306-.438.52-.719.275-.25.062-.469.154-.469.368 0 .429.688.306.813 0 .156.276.562.551.937.368.032 0 .032.03.063.06l-.25.491v-.092c-.219-.184-.5 0-.594.184.094.184.313.214.5.153-.125.245-.219.398-.375.429-.25 0 1.594.827 1.344.827 0 .184-1.438-.827-1.438-.582.063.735-1.875.92-1.156 3.309l.188.49c.25.122 1.25.796 1.25 1.041.03.49-1.75-.858-1.75-.52l1.718 1.133-.093.03c.156-.03.562-.03.687.184-.031-.214.063-.275.219-.275-.094.153.062.153.093.275.094 0 .25 0 .25-.03 1.813.888 3.594 1.991 5.282 3.063-1.219 2.91-8.594 9.558-7.75 10.937-.094.03-.157.122-.282.092a.446.446 0 0 1-.187.275c-.094.276.094.49.344.46 0 .092.062.184.062.306-.218 0-.218.399.032.276.03-.337.562-.276.75-.551.03-.062.03-.154-.032-.184.063 0 .094-.03.157-.03-.032.122.062.214.062.367.031.03.063.061.094.061-.032 0-.063 0-.125.03-.125.246.125.43.25.215 0-.092 0-.153-.063-.214.125.061.219 0 .375 0v.03c.032 0 .063-.03.094-.03h.063c.062 0 .093.061.156.061.062 0 .125-.03.187-.03 0 .214.032.55.25.49a.492.492 0 0 0 .125-.215c0 .123.094.092.188.061.031-.061.031-.153 0-.245-.094.061-.125.092-.188.061v-.153c-.093 0-.125-.03-.187-.061a.823.823 0 0 0 .187-.153l.032.214c.062-.03.25-.03.25-.183h-.094l-.032-.062.094-.092v-.092l-.062-.06c.031-.031.031-.031.031-.062h.031c.032-.061.032-.092 0-.123.125 0 .157.092.157.184 0 .245-.063.46-.063.643.094 0 .188-.091.25-.183.094.061.25.061.25.153l-.094.153h.094l.094-.092s.125-.153.281-.398c.031.092.063.153.125.153l-.094.153h-.031c-.031 0-.031.03-.031.061-.125.215-.219.368-.219.399l.063.214c0 .092-.032.153-.032.245 0 .03.157.184.25.154l.157-.031v.245l-.032-.03c-.031.06 0 .122.032.122.03-.03.03-.061.03-.061 0-.062.032-.245.22-.245.03 0 .156-.031.156.06l-.125.185.125-.031c.125 0 .187-.03.281-.03l-.031-.123v-.092a.72.72 0 0 1 .375.184l.218-.123c.125-.122.125-.214.25-.306.157-.123.313-.306.438-.49h.125v-.123a.45.45 0 0 0 .188-.061c.312-.398.625-.705 1.062-.92.031-.03.031-.122.063-.183.468-.429.78-.92 1.187-1.41a.761.761 0 0 1 .344-.275c.031-.03.031-.153.062-.184l.407-.337c-.282.797-1.782 2.328-2.094 2.972-.375.061-1.125 1.256-1.063 1.287.563.306 1.125-.98 1.313-1.012.125-.153.937-1.286 1.187-1.47 0 .214-.281.46-.312.674-.25.123-.719 1.011-.532 1.011.032.123.813-1.103.813-.98.281-.215-.063.765.594.153.062-.061.125-.153.218-.215-.03-.03-.062-.092-.03-.122 0-.092 0-.184.155-.245-.03-.092.094-.184.125-.245.22-.307.594-.49.907-.766.062-.061.062-.153.156-.184.844-.582.969-1.317 1.469-2.022l-.031-.03.28-.337s-.03-.031-.03-.062c.312-.429.875-.735 1.187-1.133.219-.276.531-.827.906-1.195l.157-.184.156.123c0-.061 0-.153.093-.153.063 0 .094.153 0 .153h-.03c.562.398 1.218 1.01 1.405 1.195h-.093l-.157-.031c.032.276.344.52.626.49l.156-.03.156.122-.125.153.219-.092h.031c.25-.03.531.552.906.582v-.061c0-.03-.093-.123-.125-.153h.125c.375-.03.719.367 1.188.337.031.398.125.398.593.429l-.156.092c.094 0 .125.091.125.153.25.03.282.122.344.214 0-.03.031-.061.063-.061.03 0 .03.153 0 .153.093.061.218.061.5 0l-.063.153-.125.123c0 .122.219.214.219.214.031 0 .156 0 .156-.03v.183c.031 0 .25-.183.25-.183l.031.03v.123l-.031.03-.063.123c-.062.061-.156.123-.25.123h-.03l-.032-.031h-.031c0-.061 0-.123-.032-.123.063-.03 0-.122-.062-.122Zm-.094-24.599v.092c.094-.092.25-.245.344-.245.063 0 .219.03.313.03-.094.093-.25.123-.25.276l.03.092c.063-.092.376-.367.47-.612v.183c0 .245-.094.245-.125.399l.437-.521v-.092l-.094-.061.313-.49c.031.03.156-.031.281-.154-.031.031-.031.031.031.031.032 0 .032 0 .032-.061l-.032-.03c.438-.46 1.094-1.471 1.094-1.625-.219.215-.438.858-.844.889h-.03c.03-.092.218-.276.25-.49-.376.245-1.22.98-1.22 1.378l.032.092.125-.122c-.032.428-.282.122-.375.46 0 .06-.032.306-.032.306h-.093l-.032-.154c-.25.031-.625.184-.625.43Zm3.125 24.538c-.093.062-.093.184.063.245l.125-.091.281.245.969.888c.437.337.969.766.906.766a.505.505 0 0 1-.25-.092l.219.306c.031 0 .031-.03.094-.03.062 0 .062.092 0 .092h-.032v.03c-.156-.153-.312-.337-.5-.49-.5-.306-.906-.827-.937-.919a7.301 7.301 0 0 0-.969-.735c-.031.092.125.123.094.184-.282-.153-.594-.49-.813-.552.094.092.282.184.282.337a2.18 2.18 0 0 1-.563-.704c.156.03.25.153.406.214-.156-.214-.375-.367-.562-.49 0 .092.094.214 0 .276-.031-.062-.25-.153-.25-.368.062.092.125.184.219.123-.157-.154-.313-.337-.5-.49 0-.062 0-.123-.063-.184.656.49 1.25 1.01 1.781 1.44Zm-3.968-13.785c-.22-.03-.5.153-.344.398l-.469.49c.031-.122.063-.245.125-.306l.094-.153h.062c.032-.03 0-.092 0-.123.125-.276.188-.582.344-.888.188.306.625-.153.25-.368l-.188.062c0-.031 0-.062.032-.092.437-.368.937-.552 1.375-.95-.032.061-.063.092-.063.123.125-.062.313-.307.375-.276-.187.306-.406.582-.625.888 0-.184-.218-.306-.375-.092-.03.123.094.276.25.245l-.156.184c-.062-.03-.156 0-.281.061-.032.092 0 .184.031.276-.156.153-.281.337-.438.521Zm-3.626 8.608c-.03-.061-.093-.153-.093-.214l.25-.123c.093 0 .218.03.312.092-.187.03-.343.062-.343.215.062.245.593.091.374-.184.188.092.344.245.5.367.126.092.25.184.376.245-.22.307.187.858.437.43.031 0 .031-.062.031-.093l.469.337a.723.723 0 0 0-.156.43l-2.157-1.502Zm-16.937 8.64h-.031c.094-.154-.063-.43-.25-.184 0 .153.031.245.125.245l-.219.092c-.313.336-.156.918.219.888.062 0 .156-.092.25-.061.031-.184.187-.368.187-.583 0-.306-.219-.214-.281-.398Zm25.156-11.397c-.125-.858-1.281-.276-.906.306.219.307.813.123.906-.306ZM14.47 45.862c-.031-.122-.125-.153-.156-.214.124-.184 0-.49-.25-.276 0 .092-.032.153 0 .245-.094.061-.126.184-.157.306-.125.062-.156.154-.219.276 0 .368.157.552.47.49.155-.092.093-.367.155-.551.063-.123.157-.153.157-.276Zm23.219-14.766c.218-.46-.063-1.072-.688-.98-.188.398.031 1.103.688.98ZM45.094 48.1c-.094.03-.157.06-.094.153-.125-.031-.188-.154-.281-.184 0-.061.093-.03.093-.123-.406-.46-.906-.674-1.343-1.102-.063-.062-.031.122-.156.06-.25-.122-.376-.55-.594-.765-.125.03.093.214-.063.245-.125-.092-.062-.276-.062-.368v-.03h.156c.281.214.531.46.781.674.594.49 1.188 1.041 1.719 1.593-.094.03-.125-.062-.156-.154ZM16.28 44.79c-.093-.03-.093.092-.187.092-.094.03-.094-.03-.157 0-.062.03-.124.123-.187.123a.432.432 0 0 0 .031.398c.063.03.125.03.219 0a.51.51 0 0 0 0 .306h.25c.156-.123.063-.429-.031-.46h-.032c0-.03.032-.06.032-.091.093-.031.125-.092.156-.154 0-.122 0-.214-.094-.214Zm2.844-23.895c-.063-.123-.125-.276-.25-.337-.156.184-.563.184-.531.49.062.337.75.276.781-.153Zm13.719-.735c.094 0 .094-.153 0-.153.219-.307.437-.674.531-.92-.406.613-1.25 1.256-1.281 1.777v.092c.062-.061.406-.46.718-.919 0 .03 0 .123.032.123Zm6.937 3.982c-.281.245-.531.49-.656.736-.125-.062-.25-.093-.375-.031l.75-.98c.063.122.156.245.281.275ZM20.156 44.147c-.062-.062-.125-.092-.187-.062.593-.796 1.687-2.297 1.718-2.297 0 .092-.937 1.44-1.53 2.359Zm16.938-14.43c.156-.091.25-.214.218-.459a.51.51 0 0 0-.468-.153c-.219.184-.094.705.25.613Zm6.125-13.754-.188-.092c0-.061.032-.153.032-.215-.126.123-.282.031-.438.245h.094c.031 0 .093-.06.125-.091-.032.214-.219.306-.219.49h.094l.187.122H43a.444.444 0 0 0 .219-.398v-.061Zm-7.375 25.15h-.032v-.06c0 .03.032.03.032.06a.482.482 0 0 0-.157-.244h.032c.031 0 .062-.03.062-.062.043.069.096.13.157.184 0 .062.03.123.062.123.031 0 .031-.03.063-.061 0 .03.03.03.062.06l-.063-.091c0-.061-.03-.123-.093-.123-.094-.183-.219-.337-.375-.398l.093.184c-.03.03-.03.122 0 .184-.156-.153-.343-.215-.437-.46 0-.03.031-.03.094-.03-.063-.031-.094-.062-.094-.092 0 .03 0 .092-.062.092-.094.03-.126-.092-.22-.123.063.123.126.214.188.276-.093 0-.093.184 0 .184.032 0 .063-.123.032-.154l.093.092c-.03.03-.03.153.032.153s.093-.06.062-.091c.031 0 .031.03.063.03-.063.061-.032.153.03.153.032 0 .063-.03.063-.06l.063.06h-.032c-.062 0-.03.154.032.154.062-.031.062-.092.031-.123l.125.092c-.063 0-.063.122 0 .122.031 0 .031 0 .063-.03-.063.03-.063.153.03.153.094 0 .094-.153 0-.153Zm0-2.787c-.032 0-.063 0-.094.03l.094-.06c.375.245.719.52 1.093.796-.124-.03-.312.03-.312.214l-.062-.061c-.063-.092-.032-.153-.032-.214a2.607 2.607 0 0 1-.375-.245c.032 0 .032-.031.032-.031-.063-.184-.188-.184-.282-.092-.062 0-.093-.03-.125-.03.094 0 .188-.215.063-.307ZM41.03 23.5c-.125-.092-.03-.245-.062-.368-.219-.061-.407-.092-.563.154.063.306.438.275.625.214Zm3.47 14.888c-.126-.092-.313-.184-.532-.03 0 .092-.063.184 0 .337.187.122.594-.062.531-.307Zm-.907 6.28c-.094.092-1.219-.765-1.156-.827.124-.03 1.28.797 1.156.827Zm-6.282-17.155c-.374.582-.78 1.164-1.343 1.746a13.09 13.09 0 0 1 1.343-1.746Zm2-12.683v.123c.22-.061.563-.52.563-.705-.25.123-.594.307-.563.582Zm3.97-.612-.97 1.041c.25-.092.97-.643.97-1.01v-.031ZM38.75 33.24a.665.665 0 0 0 .156.245c-.093 0-.062.184.032.184.062 0 .062-.154 0-.184.593-.123-.032-.705-.188-.245ZM16.844 45.005c.031-.093 0-.307-.094-.338-.094-.03-.188.062-.281.123-.032.123.031.276.062.398.125 0 .282-.092.313-.184Zm5-25.52.25.123c.062-.06.187-.092.187-.245-.062-.092-.187-.122-.25-.153 0-.184-.156-.153-.25-.061-.031.184.157.153.063.337Zm-.375.89c-.125-.093-.375-.062-.438.06-.187.368.594.399.438-.06Zm-3.157 25.334c0-.123-.093-.03-.28-.123-.095-.06-.063-.275-.25-.122-.063.123.03.276.093.337.094-.03.156-.092.188 0 0 .092-.032.122.03.184.126-.062.25-.153.22-.276Zm1.47-.766c-.032 0 .03-.122.124-.276.032-.03.032-.03.032-.06.25-.338.656-.859.718-.859.094 0-.781 1.165-.875 1.195Zm22.25-9.435c-.063 0-.094 0-.126-.062-.218.062-.343.154-.25.368.125.184.532-.03.375-.306Zm-.063-19.27c-.032 0-.125-.03-.125-.122-.032.092-.125.245-.094.306v.062h.125l.125.091h.125c.094 0 .125-.153.094-.245l-.094.092.063-.275c-.032.06-.125.091-.22.091ZM37 39.368c.031-.062.063-.123.031-.154v-.03l.938.735h-.188a6.084 6.084 0 0 0-.781-.551Zm4.813 3.461c-.063 0-1.313-1.133-1.25-1.133.093 0 1.343 1.103 1.25 1.133ZM17 45.035c-.031.184.094.368.156.49.094 0 .125-.061.188-.122-.032-.215-.094-.552-.344-.368Zm23.813-31.34c.312-.275.53-.673.718-1.01H41.5l-.75.919.063.092Zm-.094 1.41h.094l.062.123-.625.551c0-.153.375-.674.469-.674Zm-5.25 26.193c-.125-.123-.313-.245-.469-.399-.094-.06-.438-.429-.313-.275.5.612 1.157.98 1.813 1.654-.281-.46-.688-.674-1.031-.98Zm-18.625 2.665a.568.568 0 0 0-.5 0l.25-.215c-.032-.214-.157-.214-.188-.367.073.059.159.1.25.122.094 0 .032.337.032.337l.125.092v-.337c.03 0 .03-.03.062-.03 0-.062 0-.092-.031-.123 0-.03.031-.061.062-.061 0 0 .032.092.094.184-.031 0-.063 0-.094.03-.093.123-.062.245.032.307-.032 0-.063.03-.094.06Zm18.031-3.676-.594-.46h-.093l.125.153v.092l-.125-.092c.062.245.5.276.687.368v-.061Zm5-7.782c.188.184.469-.03.375-.275-.187-.061-.469.061-.375.275ZM16.25 46.107c-.375 0-.281.49-.063.398.188-.06.22-.306.063-.398Zm-1.094 2.053c.094-.092.063-.245.031-.368-.374-.122-.374.643-.03.368Zm4.219-2.727c-.125.307.125.46.344.307-.032-.245-.157-.337-.344-.307Zm-2.625.03c-.094.123-.031.338.063.369.25-.031.25-.307.156-.43-.094.062-.094.031-.219.062Zm3.156-24.874a.64.64 0 0 1-.343-.092c-.032.122-.063.275.03.367.22.031.345-.06.313-.275ZM40.844 33.76c-.188.062-.25.154-.219.307.219.214.531-.215.219-.306Zm-5.032-15.684-.437.674c0 .091 0 .214-.031.214l-.094-.214c.063-.184.344-.552.563-.674ZM20.126 20.65c.156-.03.281-.123.25-.306-.156-.184-.438.06-.313.275.032 0 .063 0 .063.03Zm26.156 29.225c-.343-.275-.687-.551-.968-.919.343.245.687.552.968.92Zm-3.906-33.238c.125.061.063.398.281.398l-.031-.49c-.125 0-.25 0-.25.092Zm-2.969.49c0 .153-.125.337-.25.337h-.125l.157-.184H39c.031-.153.281-.153.406-.153Zm-2.812 14.52v-.122c-.031 0-.688-.551-.719-.551 0 .03.594.643.594.643l.125.03Zm6.156 4.198c-.094-.031-.25.03-.312.092.03.367.562.122.312-.092Zm-8.531-15.9c0 .092.031.245.031.245l-.094.092c-.062 0-.531.552-.625.674l.688-1.01ZM17.406 45.587c-.031.183-.281.52.063.428.031-.153.156-.337.031-.46-.031 0-.063.032-.094.032Zm26.813-5.025h.031c.156 0 .375.245.438.337-.22 0-.407-.183-.594-.214l.125-.123Zm-2.031-27.264c.125-.031.28-.031.374-.276h-.093l-.156.092v-.092c-.032-.061-.032-.123.062-.153-.219.061-.187.367-.344.429h.157Zm.624 33.606c.344-.184.657.367.97.643-.407-.03-.563-.766-.97-.643Zm.47-7.23.156.153v-.153c.125-.03.25-.03.28.123-.03 0-.187.06-.28.091h-.125c-.032 0-.125 0-.125-.06l.093-.154Zm-29.97 6.74c0 .153.032.183.094.245.375-.154.094-.613-.094-.245Zm21.72-8.456c-.063-.06-.188-.03-.282.031l-.125-.092c.125-.061.25-.153.375-.245l.125.092c-.094.061-.063.153-.094.214Zm7.312 8.027c-.063 0-.125 0-.188-.03-.062-.062-.093-.123-.125-.185a.51.51 0 0 0 .282.092l-.032-.184h.094l.219.184a.611.611 0 0 0-.25.123Zm1.531-8.884c-.063-.092-.25-.062-.312.06 0 .093.062.123.093.185.157.03.282-.061.219-.245Zm-1.687 1.256c0 .122-.032.245-.125.245h-.094l.062-.092c-.156 0-.25-.153-.25-.245h.157v.092h.25Zm2.718 3.43c-.187 0-.343-.06-.437-.214 0-.03.094-.03.187-.03.157-.031.25.092.25.245Zm-31.125 5.607.125-.061c.25-.521-.437-.245-.125.06ZM35.531 17.8c-.03.306-.156.551-.437.551l.437-.551ZM15.625 43.963c-.063 0-.125-.061-.188-.061-.156.122 0 .275.063.367.125-.061.156-.153.125-.306Zm28.625-4.38c.125-.032.188-.093.125-.246h-.031v-.061h-.063l.032.061c-.094-.03-.188.03-.188.092l-.094.03.157.154.062-.03Zm-22.156-18.32c.093.06.25 0 .312-.062.032-.306-.375-.184-.312.062Zm20.468 17.553c0 .061 0 .061.063.153 0 0-.156.092-.25.092L42.22 39c.031-.153.219-.184.343-.184Zm.47-4.044c-.157.031-.25.092-.25.215.03 0 .062 0 .062.061.187.03.375-.153.187-.276Zm-8.157-4.901c.094.061-.063.184-.219.306.063.061.125.092.25-.03-.031.091-.125.214-.187.306a.828.828 0 0 1-.157-.184l.313-.398ZM19.25 45.158c-.063.091-.125.153-.125.275.063.03.094.062.156.062l.125-.123c-.031-.123-.062-.214-.156-.214ZM48.031 47.7c.157.03.344.092.313.245l-.188.092c0-.153-.125-.276-.218-.337h.093ZM33.47 39.061c-.219.031-.469-.214-.5-.337l.5.245v.092Zm7.469-15.103c-.094-.06-.188-.03-.25-.06-.157.152.156.367.25.214v-.154Zm1.843-5.36.094-.031s.031-.215.031-.307c-.125.062-.343.337-.281.368 0 .03.156-.03.156-.03ZM21.75 19.914c-.094-.092-.25-.062-.313.06 0 .062.063.093.094.154a.211.211 0 0 0 .219-.214Zm19.813-4.595v.122l-.625.643c.156-.245.375-.52.624-.766Zm-3.032-.215v.03c-.093.215-.125.338-.281.368h-.094c.094-.092.219-.398.375-.398Zm2.625 19.79c-.062 0-.062-.03-.093-.03-.157.03-.188.091-.188.214.063 0 .063.061.094.061.156-.03.219-.122.187-.245Zm5.72 6.31c.03.093 0 .215-.095.246l.125.153v-.153c.157-.03.157.061.25.061 0-.123-.125-.245-.28-.306Zm-28.532 4.78c.062.122-.063.122-.094.153v.153c.156-.03.125-.153.25-.122.094-.154-.031-.307-.156-.184ZM33.5 39.123h.125c.125 0 .281.153.313.306-.157.03-.313-.215-.438-.306Zm-18 7.474c-.094.123-.031.337.156.245.094-.122 0-.337-.156-.245Zm21.313-28.46h.062l-.406.522v-.123c0-.122.187-.276.343-.398Zm9 23.957c.093-.03.187.03.25.123l-.22.184-.03-.093-.063-.214h.063Zm-2.094-1.9c.125 0 .25.093.375.093v.153c-.125 0-.375-.092-.375-.245Zm-2.157 3.279c-.124.06-.218-.154-.187-.245.156-.062.344.153.188.245Zm-9.656-5.576h-.062l-.5-.398c.093.03.437.214.531.214.031.03 0 .154.031.184Zm5.688 2.236c-.125-.06-.282-.153-.313-.245.157-.03.25.031.375.092-.03.062-.062.092-.062.154Zm2-24.568c0-.276.156-.154.312-.276l.032.03-.344.337v-.091Zm1.625 6.892c-.25.184-.375.337-.375.49.156-.06.281-.337.375-.49Zm-26.407 24.57c.063-.093.063-.307-.093-.246-.125.092-.094.337.094.245Zm6.438-27.51c.063-.031.156-.062.125-.184-.094-.092-.281 0-.281.091.062.031.062.123.156.092Zm-5.813 24.997c.032-.061 0-.184 0-.245-.062.03-.062-.03-.156.03-.062.123 0 .276.156.215Zm6.532-22.608-.032-.184-.375-.122c0 .03.344.306.407.306Zm18.906 22.976h.188c.062.123.156.245.28.367a1.38 1.38 0 0 1-.468-.367Zm5.719-2.543c.062 0 .062-.122 0-.153.062-.03.031-.153-.031-.153-.126 0-.126.122-.032.153-.093.03-.062.153.063.153Zm-2.438-.674c.094 0 .125.123.032.153.093.031.093.154 0 .154-.094.03-.126-.123-.032-.154-.093.031-.093-.122 0-.153ZM44.125 14.8a.268.268 0 0 0-.25.275l.094-.03c.093 0 .156-.123.156-.245Zm-1.344 31.829c-.281 0-.437-.153-.625-.337.094.061.438.214.625.337Zm-8.968-28.061s.124-.092.124-.215c-.03.03-.25.215-.25.245-.124.46-.03.245.126-.03Zm5.78-4.412.25-.153c-.093 0-.093-.092-.093-.184h-.094l-.062.337ZM14.75 44.484c0-.123-.031-.184-.125-.154-.188.092 0 .368.125.154Zm22.031-2.513.032.093c0 .153.093.245.25.306h.03c-.03-.092-.187-.215-.187-.306l-.125-.093Zm-20.687 5.637c-.032.123.062.215.156.184 0-.061.094-.061.063-.153-.032-.061-.094-.092-.22-.03Zm23.719-25.365c.093.03.03.092.093.122.125-.03.094-.091.157-.183-.125-.092-.188-.092-.25.06ZM32.75 36.335c0 .092-.125.122-.063.214.094.03.157 0 .22-.061-.032-.123-.094-.153-.157-.153Zm12.938 7.23-.032-.184h.063s.281.122.375.122l-.406.062Zm-3.313-29.073.125-.398-.125.061s-.125.337 0 .337Zm-26.813 30.85c-.156.245.22.275.157 0-.063 0-.094-.031-.156 0Zm1.938 2.205c0 .03-.031.03-.063.061 0 .092 0 .123.063.184.094 0 .094-.061.125-.122 0-.062-.063-.123-.125-.123Zm26.219-30.971v-.092c-.156.091-.219.183-.219.337l.031.06.125-.244.063-.061Zm-8.75 2.021h.093l-.374.399c.062-.215.218-.368.28-.399Zm9.375-4.043c0-.062-.031-.123-.094-.123s-.031.215.031.215c.032 0 .032.03.094.03.094 0 .063-.122-.031-.122ZM37.656 25.95l-.406.398.344-.49.062.092Zm6.094-10.355h-.094c-.156 0-.218.092-.187.153.156 0 .218 0 .281-.153Zm-2.937-.766c0 .031-.25.276-.344.307-.094 0 .344-.399.344-.307ZM39 14.462c.031-.03.219-.276.219-.368-.219.092-.219.245-.219.368Zm-1.53 28.214h-.031c-.032-.061-.032-.092-.063-.092-.031.03-.031.184 0 .153h.031c-.031.062 0 .092.063.092.125 0 .125-.153 0-.153Zm8.156-.276-.094.092c-.062 0-.281-.122-.281-.183l.375.092ZM39.5 13.666l-.156.184v.092c.125-.03.156-.123.25-.184l-.094-.092Zm.5 2.941c-.094 0-.094-.122-.031-.153-.094-.03-.094-.153 0-.153.062-.03.094.122.031.153.063-.03.063.123 0 .153Zm3.5-3.063c-.031 0-.062.03-.062.03.03-.03.03-.061.03-.122 0-.062-.218.184-.124.184.031 0 .062-.031.094-.062-.032.062 0 .123.062.123.063 0 .063-.153 0-.153Zm.344 1.654a.685.685 0 0 0-.25.153v.092c.062 0 .25-.092.25-.245Zm-25.25 29.838c-.094.092-.063.276.093.184.063-.092 0-.215-.093-.184Zm28.375 1.195c0 .122-.219.122-.219 0 0-.092.219-.092.219 0Zm-.063-2.482c.094 0 .094.215 0 .215-.125 0-.125-.215 0-.215Zm-10.468-26.07c-.032-.03-.032-.153 0-.153.093 0 .125.153.03.153h-.03c.03.031.03.184 0 .184-.125 0-.125-.184 0-.184Zm5.093 18.81c.063 0 .032-.153-.031-.153 0-.03-.031-.092-.094-.092-.062 0-.031.153.032.153 0 .03.03.092.093.092Zm5.813 5.667h.031c0 .031.031.062.063.062.124-.031.124-.184 0-.154h-.032c0-.03-.031-.06-.062-.06-.032 0-.032.152 0 .152Zm-25.5-22.424c0-.123-.094-.123-.188-.123 0 .031-.031.062-.062.123.062.03.187.03.25 0ZM41.75 37.53c.063 0 .063.03.063.091 0 0 0-.03.03-.03.063 0 .063.153 0 .153-.062.03-.093-.03-.062-.092h-.031c-.094 0-.094-.122 0-.122Zm1.375 1.164v-.092A.24.24 0 0 0 43 38.54h-.031c.031.06.031.245.031.306l.125-.153ZM36.344 18.29c.125 0 .125.215 0 .215-.094 0-.094-.215 0-.215Zm3.344 1.593c0-.153.093-.306.28-.306l-.28.306Zm-1.813-4.902c.094 0 .063-.214-.031-.214s-.063.214.031.214Zm1.625 1.87c.125 0 .156.183.031.183-.093.03-.125-.153-.031-.184Zm-7.063 21.505c-.093 0-.124-.215-.03-.215.093 0 .124.215.03.215Zm12.188 1.715v-.245l-.156.092c0 .092.094.153.156.153Zm-27.75-19.208c.031-.153-.125-.153-.188-.092v.092c.094 0 .125.062.188 0Zm20.844 22.119c-.094 0-.063.183.031.183.125 0 .094-.183-.031-.183Zm-15.907-22.21c-.03-.031-.187-.031-.218.03v.092c.125 0 .218-.03.218-.123Zm12.97-1.257c0 .154-.157.246-.25.246h-.063c.062-.092.25-.154.312-.246Zm.624 18.902c.032.03.063.03.125.03.063 0 .094-.03.125-.03-.031.03-.031.092.032.153.03.061.062.061.093.061h-.062l-.313-.214Zm4.157-18.932c.062 0 .093.122.03.153.063.03.063.153 0 .153-.03.03-.062-.122-.03-.153-.032.03-.032-.123 0-.153Zm5.03-5.116c.095 0 .095-.215 0-.215-.093.031-.093.215 0 .215Zm-3.812 1.868-.062.154s-.188-.092-.188-.184c.032 0 .219.061.25.03Zm-2.75.062.25-.307h-.093s-.157.154-.157.245v.062Zm-17.5 30.144c-.125.03-.125.215 0 .184.094 0 .094-.184 0-.184Zm21.657-9.558c.03-.061 0-.184-.094-.153 0 .061-.094.092-.094.153.094-.03.094.061.188 0ZM43 13.818v.154l.156-.337c-.156 0-.156.091-.156.183Zm-10.625 7.26c.094 0 .094.185 0 .185-.125 0-.125-.184 0-.184Zm8.594-8.791c.094-.031.094-.245 0-.215-.094 0-.094.215 0 .215Zm-4 27.295c.062-.123-.063-.03-.125-.061v-.092c.031 0 .062 0 .093-.03a.55.55 0 0 1 .157.214c-.063-.092-.094-.03-.125-.03Zm1.187-15.715c.063 0 .094-.062.094-.123-.031-.061-.063-.03-.125-.061-.063.092-.063.153.031.184Zm7.313 23.65c-.125-.123-.25-.184-.375-.338l.25.123a.49.49 0 0 1 .125.215ZM47.5 42.43c.219.061.094-.153-.031-.122-.094 0-.063.122.031.122Zm-6.406-4.748c.094 0 .094.184 0 .214-.094 0-.094-.214 0-.214Zm4.781 3.952c.094 0 .125.183.031.183-.093.031-.125-.153-.03-.183Zm-28.563-20.25c0-.092 0-.184-.125-.153 0 .061-.03.092-.03.123.03.03.062.06.155.03Zm24.594 14.95-.062-.123c-.094 0-.157.03-.125.123.062.03.093.03.187 0Zm4.72 6.8v.093l-.157.153-.094-.03.25-.215Zm-13.75-4.166c-.063 0-.095-.214-.032-.214.094 0 .125.214.031.214ZM42 43.75c.094 0 .094.214 0 .214-.063 0-.063-.215 0-.215Zm-3.094-26.745c.094-.03.094.123 0 .153-.125 0-.125-.153 0-.153Zm4.5-5.116c.063 0 .032-.214-.03-.214-.095.03-.063.214.03.214Zm.813 34.189c-.125 0-.125-.154 0-.154.094-.03.094.123 0 .154Zm-2.344-31.8c.125 0 .094-.213-.031-.213-.032 0 0 .214.031.214Zm2.969 26.377c.062 0 .093.215.031.215-.094 0-.125-.215-.031-.215Zm-.281-28.827c.062 0 .03-.214-.032-.214-.093 0-.062.214.032.214Zm-1.657 3.309h.063c.093 0 .187-.245.187-.276-.187.03-.093.245-.25.276Zm-.312 3.216c.125 0 .125-.122.031-.153h-.031c-.094 0-.094.153 0 .153Zm-5.75 13.571c.125 0 .125-.153 0-.153-.094 0-.094.153 0 .153Zm7.093 10.324c.126 0 .126.154 0 .154-.093 0-.093-.154 0-.154Zm.688.552c-.094 0-.094-.184 0-.184s.094.184 0 .184Zm-4.344-1.226c-.093 0-.093-.153 0-.153.125 0 .125.153 0 .153Zm2.188-25.58c-.094 0-.094.154 0 .154.125 0 .125-.154 0-.154ZM32.75 39.398c-.094.031-.094.215 0 .184.094 0 .094-.184 0-.184Zm2.531-20.004c-.125 0-.156-.153-.03-.153.093 0 .124.153.03.153Zm3.657-1.777c.093 0 .093.153 0 .153-.125.03-.125-.122 0-.153Zm2.75-4.228c.093 0 .093-.153 0-.153-.126.031-.126.184 0 .153Zm2.187 27.45c-.094 0-.125-.154-.031-.154.125 0 .156.153.031.153ZM44 11.213c.063 0 .063-.214 0-.214-.094 0-.094.214 0 .214Zm-4.688 23.13c-.093 0-.093.214 0 .214.063 0 .063-.214 0-.214Zm1.938 4.013c-.094.03-.094-.184 0-.215.063 0 .063.215 0 .215ZM33.5 18.659h-.094s-.125.184-.125.214l.094-.03c.063-.092.125-.154.125-.184Zm10.094-4.442a.231.231 0 0 1-.063-.123l-.093.092v.03l.156.123v-.122Zm3 31.737c0-.092.156-.061.156.03-.031.093-.187.093-.156-.03Zm-7.188-18.932c-.031.092.094.214.157.122.03-.091-.094-.153-.157-.122Zm2.219-12.468c.125-.031.125-.245 0-.215-.031 0-.031.215 0 .215Zm2.344 30.083c-.125 0-.157-.092-.032-.092.032 0 .032.092.032.092.093 0 .125.153.031.153-.031 0-.031-.153-.031-.153Zm-2.875-8.762c.031.123.094.092.187.062 0-.123-.156-.123-.187-.062ZM22.812 19.21c-.03-.03-.093-.03-.156 0v.123c.094 0 .188-.031.157-.123Zm13.782 22.271a.237.237 0 0 0-.125-.06c0 .06.031.091.062.122.032.03.032.061.094.061 0 0 .031.03.063.03l-.063-.091c0-.031 0-.062-.031-.062Zm6.062 3.248c0-.062.032-.123.063-.123.062 0 .093.153.031.215l-.094-.092Zm-26.5-.307c-.062 0-.031-.153-.125-.122-.125.092.063.245.125.122Zm28.094.92c-.125.03-.156-.154-.031-.184.031 0 .062.183.031.183Zm-11.53-7.14c.093 0 .125.154.031.154-.094.03-.125-.123-.031-.154Zm7.562-21.199c-.093 0-.125-.183-.031-.183.063 0 .094.183.031.183Zm-5.656 23.344c-.063 0-.031.184.031.184.094 0 .063-.184-.031-.184Zm8.219-22.425h-.032l-.062.246c.094-.092.188-.246.188-.276-.032 0-.063.03-.094.03Zm1.062-1.593c.063 0 .032-.183-.031-.183-.094 0-.063.183.031.183Zm-4.312.031c.031 0 .062.184.031.184-.125 0-.156-.184-.031-.184Zm-.625.03c.125 0 .156.185.031.185-.031 0-.062-.184-.031-.184Zm4-3.308c.093 0 .062-.153-.032-.153-.093 0-.062.153.032.153Zm-.25 25.886c.093 0 .125.154.031.154s-.125-.154-.031-.154ZM39.939 17.34c-.094 0-.094-.153 0-.153.093 0 .093.153 0 .153Zm1.718 2.451c.094 0 .063-.153-.031-.153s-.063.153.031.153ZM41.5 17.25c-.094 0-.094-.153 0-.153s.094.154 0 .154Zm-.031-.888c.093 0 .093.153 0 .153-.094 0-.094-.153 0-.153Zm-.438 20.403c.094 0 .094-.154 0-.154-.093 0-.093.154 0 .154Zm-.875-20.342c-.093 0-.125-.153-.03-.153.093 0 .124.153.03.153Zm7.97 31.217c0-.092.155-.092.155 0s-.156.092-.156 0ZM34.874 19.424c-.094 0-.125-.153-.031-.153.093 0 .125.153.031.153Zm8.375-5.452c.094 0 .094-.154 0-.154s-.094.154 0 .154Zm-9.031 5.422c.094 0 .094.153 0 .153s-.094-.153 0-.153Zm1.75 22.118c.093 0 .093-.153 0-.153-.094 0-.094.153 0 .153Zm6.531-2.144c.094 0 .094.153 0 .153s-.094-.153 0-.153ZM40.344 12.99c.093 0 .093-.153 0-.153-.094 0-.094.153 0 .153Zm2.406 26.622c.094 0 .125.153.031.153-.093 0-.125-.153-.031-.153Zm-.625 3.461c-.094 0-.125-.153-.031-.153s.125.153.031.153Zm2.563-27.295c.093 0 .062-.153-.032-.153-.093 0-.062.153.032.153Zm-4.407 1.624c-.093 0-.093-.184 0-.184.063 0 .063.184 0 .184Zm1.063-.062c-.094 0-.094-.184 0-.184.062 0 .062.184 0 .184Zm2.812-4.626c.094 0 .094-.183 0-.183-.062 0-.062.184 0 .184Zm-4.531.889c.094 0 .094-.184 0-.184-.063 0-.063.184 0 .184Zm2.344 25.304c.094 0 .094.184 0 .184-.063 0-.063-.184 0-.184Zm3.656 3.83c-.094 0-.094-.184 0-.184.063 0 .063.183 0 .183ZM40 41.143c.063 0 .063.184 0 .184-.094 0-.094-.184 0-.184Zm5 2.267c-.094 0-.094-.183 0-.183.063 0 .063.183 0 .183Zm-5-29.623c.094 0 .094-.153 0-.153-.094.03-.094.183 0 .153Zm.156 7.23c-.093 0-.093-.154 0-.154.094-.03.094.123 0 .153Zm-.125-2.022c-.093 0-.093-.153 0-.153.094-.031.094.122 0 .153Zm1.188-2.635c.094 0 .094.153 0 .153-.094.03-.094-.122 0-.153ZM44 15.319c.094 0 .094-.153 0-.153-.094.03-.094.184 0 .153Zm-2.313 21.322c.094-.03.094-.184 0-.153-.093 0-.093.153 0 .153Zm2.22-22.792c.093-.03.093-.184 0-.153-.094 0-.094.153 0 .153Zm-5.626 20.25c-.093.03-.093-.123 0-.154.094 0 .094.154 0 .154Zm6.5 11.549c-.093 0-.093-.153 0-.153.094-.031.094.122 0 .153Zm-2.5-11.703c-.03-.03-.03-.061-.03-.092-.095.031-.188.031-.126.123.031.03.125.03.156-.03Zm1.594 11.642c.125 0 .125.153.031.183h-.031c-.031-.061-.031-.184 0-.184Zm-29.438-.95c-.062.03-.062.061-.062.122 0 .031.031.062.094.031.031-.03.031-.092.031-.153-.031 0-.063.03-.063 0Zm25.438-9.252c0 .03 0 .03-.031.061 0-.03-.031-.03-.063-.03v-.061c-.062-.062-.093-.092-.125-.092l.063-.062.156.184Zm.719-17.982.093-.123h.063l.094.092-.25.03Zm1.875-1.593c.125 0 .125-.062.125-.154-.125 0-.156.062-.125.154Zm4.312 25.488c.094 0 .063-.123-.03-.123-.126 0-.095.123.03.123Zm.25.275c-.125.031-.125.215 0 .184.032 0 .032-.184 0-.184Zm-7.843-27.938c.03 0 .03-.184 0-.184-.126 0-.126.184 0 .184Zm3.5 1.868c.124 0 .124-.122 0-.122-.094 0-.094.122 0 .122Zm-24.313 30.88c-.156.03-.031.214.031.214.032-.06-.031-.122-.031-.214ZM43.75 40.47c.094 0 .094.215 0 .215-.031 0-.031-.215 0-.215Zm-4.656-24.293c.031 0 .031.153 0 .153-.125 0-.125-.153 0-.153Zm-6.5 4.657c.031 0 .031-.154 0-.154-.125 0-.125.154 0 .154Zm3.312-3.278c.032 0 .032-.153 0-.153-.125 0-.125.153 0 .153Zm6.75-4.595c.032 0 .032-.154 0-.154-.125 0-.125.154 0 .154ZM22.97 21.845c.093 0 .187 0 .156-.092-.031-.03-.125-.03-.156 0v.092Zm23.719 20.831.03.153h-.124c0-.092 0-.153.094-.153Zm-3.125-28.98c-.063 0-.063.153 0 .153.093 0 .093-.153 0-.153Zm2.468 27.877c.094 0 .094.154 0 .154-.062 0-.062-.154 0-.154Zm-1.062-2.726c-.063 0-.063.153 0 .153.093 0 .093-.153 0-.153Zm-3.438-.306c-.062 0-.062-.154 0-.154.094 0 .094.154 0 .154Zm.688.214c-.063 0-.063-.153 0-.153.094 0 .094.153 0 .153Zm-2-19.3c.093 0 .093.153 0 .153-.063 0-.063-.153 0-.153Zm-.406-3.002c.093 0 .093.153 0 .153-.063 0-.063-.153 0-.153Zm.343-2.573c.094 0 .094-.154 0-.154-.062 0-.062.154 0 .154Zm1.438 2.083c-.063 0-.063-.153 0-.153.093 0 .093.153 0 .153Zm.25 20.893c.093 0 .093-.154 0-.154-.063 0-.063.154 0 .154Zm3 2.481c-.063 0-.063.153 0 .153.093 0 .093-.153 0-.153ZM43 15.473c-.063 0-.063.153 0 .153.094 0 .094-.153 0-.153Zm-11.125 5.882c.094 0 .094-.154 0-.154-.062 0-.062.154 0 .154Zm3.844-2.666.031.123h-.125l-.031-.123h.125Zm6.75-.612c.031 0 0-.154-.031-.154-.125.031-.094.184.03.154ZM32.594 38.51c-.063 0-.063-.153 0-.153.093 0 .093.153 0 .153ZM43.53 13.298c.094 0 .094-.154 0-.154-.062 0-.062.154 0 .154ZM45.688 42.4c.093 0 .093.154 0 .154-.063 0-.063-.154 0-.154ZM40.28 13.482c.094 0 .094-.153 0-.153-.062 0-.062.153 0 .153Zm2.75 2.696c-.062 0-.062-.153 0-.153.094 0 .094.153 0 .153Zm-.062 28.521c.093 0 .093.153 0 .153-.063 0-.063-.153 0-.153Zm.093-28.184c-.062 0-.062.153 0 .153.094 0 .094-.153 0-.153Zm1.47 26.1c-.063 0-.063-.152 0-.152.093 0 .093.153 0 .153Zm-6.688-26.62c.093 0 .093.153 0 .153-.063 0-.063-.154 0-.154Zm4.375-2.206c.031-.03.031-.184 0-.153-.125 0-.125.153 0 .153Zm3.531 30.144c-.062 0-.062-.153 0-.153.094 0 .094.153 0 .153Zm-.031-.888c.094 0 .094.153 0 .153-.063 0-.063-.153 0-.153Zm-.063-.889c.094 0 .094.154 0 .154-.062 0-.062-.154 0-.154Zm-6.093-26.162c-.032 0-.063-.183-.032-.183.094 0 .125.183.032.183Zm6.156 24.263c.094-.03.062-.184-.031-.153-.063 0-.032.153.03.153Zm-4.531-3.37c.093 0 .093-.153 0-.153-.063.03-.063.184 0 .153Zm-7.376-18.564c.094-.031.063-.184-.03-.153-.063 0-.032.153.03.153Zm9.563-4.871c.094 0 .094-.153 0-.153-.062.03-.062.183 0 .153Zm1.406 28.98c.094 0 .094.153 0 .153-.062.03-.062-.122 0-.153Zm-1.125 3.186c-.03 0-.03-.153 0-.153.125-.03.157.123 0 .153Zm-.75-6.004c-.062 0-.062-.154 0-.154.094-.03.094.123 0 .154Zm-1.78-20.035c.093 0 .124.153.03.153-.062 0-.093-.123-.03-.153Zm.562 18.717c-.063 0-.063-.153 0-.153.093-.03.093.123 0 .153Zm-3.844-20.77c.062 0 .093.153.031.153-.094.031-.125-.122-.031-.153ZM17.375 43.32h.094s.031 0 .031-.03a.814.814 0 0 0-.156.184c-.032 0-.063 0-.063-.03l.094-.124Zm29-.214c.094-.03.094.123 0 .153-.063 0-.063-.153 0-.153Zm-2.937-29.01c.093 0 .062-.154-.032-.154-.062.03-.03.153.032.153Zm-7.22 27.417c.063 0 .032-.153-.03-.153-.094.03-.063.184.03.153Zm9.126-.398c.094 0 .125.153.031.153-.063 0-.094-.153-.031-.153Zm-5.032-27.387c.094 0 .063-.154-.03-.154-.063 0-.032.153.03.153Zm-6 4.564c.094 0 .063-.153-.03-.153-.063 0-.032.153.03.153Zm7.22-3.584c.093 0 .062-.153-.032-.153-.063 0-.031.153.031.153Zm1.28-2.757c.094 0 .063-.153-.03-.153-.063 0-.032.153.03.153Zm1.563 31.492c.031 0 .063.153.031.153-.125 0-.156-.153-.03-.153ZM42.97 17.74a.305.305 0 0 0-.032-.092c-.124.03-.124.153-.03.153h.03c.032 0 .032-.03.032-.061Zm2.937 21.78c-.062 0-.03.154.032.154.093 0 .062-.153-.032-.153Zm-1.75 6.312c-.125 0-.156-.154-.031-.154.031 0 .063.154.031.154Zm-1.593-10.845-.063-.092c-.094.03-.094.092-.062.153.062 0 .093-.03.124-.061Zm0 8.547c.062 0 .093.153.03.153-.093 0-.124-.122-.03-.153Zm-9.532-24.17c.032 0 0-.154-.03-.154-.126 0-.095.153.03.153Zm9.094 18.9c-.094 0-.094-.152 0-.152.063 0 .063.153 0 .153Zm-2.406-22.21c.062 0 .062.154 0 .154-.094 0-.094-.153 0-.153Zm1.843.705c-.093 0-.093-.153 0-.153.063 0 .063.153 0 .153Zm4.376 24.048c-.094 0-.094.154 0 .154.062 0 .062-.154 0-.154Zm-4.47-25.733c.063 0 .063.154 0 .154-.093 0-.093-.154 0-.154Zm-.53 1.961c.062 0 .062.153 0 .153-.094 0-.094-.153 0-.153Zm1.906 22.24c-.094 0-.094-.152 0-.152.062 0 .062.153 0 .153Zm1.687-.091c.063 0 .032-.153-.03-.153-.095 0-.063.153.03.153ZM17.813 28.983c-.094 0-.094-.154 0-.154.062 0 .062.154 0 .154ZM43.188 15.38c-.094 0-.094.153 0 .153.062 0 .062-.153 0-.153Zm-9.22 2.757c.063 0 .063-.153 0-.153-.093 0-.093.153 0 .153Zm12.376 25.61c.062 0 .062.154 0 .154-.094 0-.094-.154 0-.154Zm-1.375-3.706c.062 0 .062-.154 0-.154-.094 0-.094.154 0 .154Zm-6.031 3.86c-.094 0-.094.153 0 .153.062 0 .062-.153 0-.153Zm4.124-26.01c-.093 0-.062.154.032.154.062 0 .031-.153-.032-.153Zm-.03-.642c-.094 0-.094.153 0 .153.062 0 .062-.153 0-.153ZM41.75 43.502c.063 0 .094.153.031.153-.093 0-.125-.153-.031-.153Zm1.969-30.297c.062 0 .062-.153 0-.153-.094 0-.094.153 0 .153Zm-6.094 3.063c.063 0 .063.153 0 .153-.094 0-.094-.153 0-.153Zm7.531 27.204c-.093 0-.093-.154 0-.154.063 0 .063.154 0 .154Zm-.031-.552c-.094 0-.094-.153 0-.153.063 0 .063.153 0 .153Zm.313.613c-.094 0-.126-.153-.032-.153.063 0 .094.153.032.153Zm-3.063-3.737c.063-.031.063.122 0 .153-.094 0-.094-.154 0-.154Zm-1.219-2.635c.063-.03.063.123 0 .153-.093 0-.093-.153 0-.153ZM39 16.82c.125 0 .156.153.031.153-.03 0-.062-.153-.03-.153Zm3.438 26.192c0 .061 0 .123-.032.123-.093 0-.125-.153-.03-.153.03 0 .03.03.062.03Zm-2.813-7.597-.156-.092c.062 0 .093-.03.125-.061l.031.06.094.093h-.094Zm-3.469-3.768c.125 0 .125.153 0 .153-.031 0-.031-.153 0-.153Zm5.813-15.624c-.032 0-.032.153 0 .153.125 0 .125-.153 0-.153Zm1.375 24.6c-.031 0-.031-.154 0-.154.125 0 .125.154 0 .154Zm3.156 3.094c-.031 0-.031-.153 0-.153.125 0 .125.153 0 .153ZM35.281 17.83c0 .092-.093.154-.218.246 0-.092.125-.154.218-.246Zm1.125 23.773c-.03 0-.03.153 0 .153.125 0 .125-.153 0-.153Zm7.188-1.01c-.031 0-.031-.154 0-.154.125 0 .125.153 0 .153ZM34.5 20.067c-.094.03-.094-.123 0-.153.063 0 .063.153 0 .153ZM46.375 40.96c.125-.031.125-.184 0-.154-.031 0-.031.154 0 .154ZM39.5 34.22c-.063 0-.063.123 0 .123.156 0 .094-.123 0-.123Zm2.813-16.757c.125-.03.125.122 0 .153-.032 0-.032-.153 0-.153Zm2 23.834c-.032-.123.125-.123.156 0 0 .03-.156.03-.156 0Zm1.812.153c.094 0 .094-.123 0-.123s-.094.123 0 .123Zm-.531 2.359c-.094 0-.094-.123 0-.123s.094.123 0 .123Zm-3-29.961c.125 0 .125 0 .125-.092s-.219.092-.125.092Zm4.281 32.258c0 .03-.156 0-.156-.03.031-.092.187-.092.156.03ZM33.531 18.934c.094 0 .094-.122 0-.122-.093 0-.093.122 0 .122ZM44.97 41.298l.125-.154v.123l-.125.122v-.091Zm-.938-1.992a.063.063 0 0 0-.125 0c0 .092.125.092.125 0Zm-.25-27.785c.094-.03.094-.153 0-.123-.093 0-.093.123 0 .123Zm-.312 27.51c.031-.031.031-.215 0-.184-.094 0-.094.184 0 .184Zm1.812.735v.092l.094.092h.094l-.188-.184Zm-2.312.49v.092h-.157c0-.092.094-.092.157-.092Zm-3.844-5.667.094.122h.093c0-.03-.062-.092-.093-.122h-.094Zm.594 6.372c-.094 0-.125-.154-.031-.154.03 0 .062.154.03.154Zm3.968 1.868c.032 0 .063.154.032.154-.094 0-.125-.154-.032-.154Zm-1.25 1.287c.063-.03.094.092.032.123-.094 0-.125-.123-.031-.123Zm4.188-2.42c-.094 0-.062.153.031.153.032 0 0-.153-.03-.153Zm-4.469-25.917c-.093 0-.062.153.032.153.03 0 0-.153-.032-.153Zm-.125-2.726c.032 0 0-.154-.03-.154-.095 0-.063.154.03.154Zm-5.53 5.116c-.032 0-.063-.154-.032-.154.094 0 .125.154.031.154Zm5.03-4.657c-.093 0-.062.153.032.153.03 0 0-.153-.032-.153Zm.657 4.105c.093 0 .093.092 0 .092-.125 0-.125-.092 0-.092Zm-.313-2.849c.031 0 .031.153 0 .153-.094 0-.094-.153 0-.153ZM17.531 43.136c0-.03.032-.03.063-.062.031 0 .031.031.062.031l-.156.184c.031-.03.031-.123.031-.153Zm15.313-4.534c0-.092.094-.092.094 0 0 .122-.094.122-.094 0Zm8.75-.582c.062 0 .093.122.031.122-.094 0-.125-.122-.031-.122Zm1.656 1.409c.031 0 .031.153 0 .153-.094 0-.094-.153 0-.153ZM18 47.149c-.094 0-.063.122-.031.153.093 0 .062-.153.031-.153Zm23.781-31.952c.094 0 .125.092.032.092-.126.03-.157-.061-.032-.092Zm2.75 30.206c-.03 0-.03-.154 0-.154.094 0 .094.154 0 .154Zm-5.468-30.329c.093 0 .093-.153 0-.153-.032 0-.032.153 0 .153ZM43 18.291c.094 0 .094-.153 0-.153-.031 0-.031.153 0 .153Zm-7.188 1.164c-.03 0-.03-.153 0-.153.094 0 .094.153 0 .153Zm7.063-3.339c-.031.03-.031-.123 0-.153.094 0 .094.153 0 .153Zm-6.469 25.855c-.03 0 0 .123.032.123.125 0 .093-.123-.032-.123Zm-22.312 4.78c-.031.03 0 .122.031.153l.063-.062c0-.06-.032-.091-.094-.091Zm31.125-.98c-.063 0-.094-.093-.063-.154l.125.092c-.031.03-.031.061-.062.061Zm-.282-1.808v.061c-.03 0-.062-.03-.093-.03v-.031c0-.123.093-.123.093 0ZM36.47 18.169c.031 0 .031.122 0 .122-.125 0-.125-.122 0-.122Zm-.282-.246c.032 0 .032.123 0 .123-.124.03-.124-.092 0-.123Zm6.5-5.207c.094-.031.094-.184 0-.154-.03 0-.03.154 0 .154Zm4.22 29.378.03.092.126-.03-.157-.123v.061Zm-4.126-.582c-.062 0-.062-.123 0-.123.094 0 .094.123 0 .123Zm-3.125-22.118c0-.061.125-.061.125 0a.063.063 0 0 1-.125 0Zm-4.125 21.781c-.093 0-.093.123 0 .123.063 0 .063-.123 0-.123Zm-19.656 6.372v.123c.031 0 .063-.031.094-.031v-.123c-.031.031-.063.031-.094.031Zm23.188-13.08c.062 0 .062-.123 0-.123-.094 0-.094.122 0 .122Zm6.28 6.28c0 .091.095.091.095 0-.032-.123-.126-.123-.094 0Zm-8.312-8.701c.032-.03.032-.153 0-.123-.125 0-.125.123 0 .123Zm5.719-15.501c-.094 0-.094.092 0 .092.125-.03.125-.123 0-.092Zm-2.625-.52-.156.183v-.061c0-.031.031-.062.062-.123h.094ZM44 41.082c0 .03-.125.03-.125 0 0-.122.125-.122.125 0ZM39.562 15.29c.032 0 .032.122 0 .122-.124 0-.124-.091 0-.122ZM14.439 46.873v-.153c-.126.03-.126.184 0 .153Zm32.187-5.943c-.031 0-.031.123 0 .123.125 0 .125-.123 0-.123Zm-13.844-2.45c.063 0 .063.122 0 .122-.093.03-.093-.092 0-.123Zm14.563 3.92c-.032-.091-.157-.091-.125 0 0 .062.125.062.125 0Zm-3.25-.153-.157-.153h.126c0 .03.03.061.03.092v.061Zm-7.563-.398.094.123v-.123l-.094-.092v.092Zm-21.75 6.923c.031.031.125-.03.125-.091-.062-.031-.125 0-.125.091Zm22.063-31.676c0 .092.093.092.093 0-.03-.092-.124-.092-.093 0Zm3.843-4.534c-.03-.091-.124-.091-.093 0 0 .092.093.092.093 0Zm-.03 5.607c.093 0 .093.091 0 .091-.094.031-.094-.06 0-.091Zm2.468-4.84-.281.306h.062l.22-.307Zm-7.156 5.207v-.092c0-.03.093-.122.125-.153v.03l-.125.215Zm-2.563.888c.063 0 .032-.091-.031-.091-.094.03-.063.122.031.091Zm2.625-.367c0 .122 0 .122-.031.122-.125 0 .031-.214.031-.122Zm8.22 22.026a.063.063 0 1 1-.126 0c0-.03.125-.03.125 0Zm-2.595-25.641c.032 0 .032.123 0 .123-.093 0-.093-.123 0-.123Zm2.125 28.95c-.093 0-.093-.092-.031-.123l.063.061c0 .031 0 .062-.032.062Zm-.312-4.075c0-.092.094-.122.094-.03 0 .06-.094.092-.094.03ZM14.5 47.394v.092c.063 0 .094-.061.094-.123-.031-.03-.031 0-.094.03ZM43.188 17.31c.093 0 .093 0 .093-.061 0-.093-.187.06-.093.06Zm-.282-4.963c.094 0 .094 0 .094-.061 0-.092-.188.06-.094.06ZM19.125 43.595c.063 0 .094.092.031.092-.093 0-.125-.092-.031-.092Zm25.031 1.042c0 .03.032.061.063.092v.061c-.094 0-.125-.092-.063-.153Zm2.782-1.96.156-.032c0 .062-.125.092-.156.092v-.06ZM38.75 43.81c-.062 0-.062.092 0 .092.094 0 .094-.092 0-.092Zm2.469-29.9c0 .062.094.062.094 0 0-.092-.094-.092-.094 0Zm3.406 27.265c0-.092.063-.122.063-.03.03.122-.032.153-.063.03Zm-.375 2.573c-.031-.03-.063-.06-.094-.06 0-.032 0-.062.032-.062.062-.03.093.061.062.122Zm-7.812-26.53c.093 0 .093 0 .093-.091-.03-.092-.125.092-.093.092Zm8.156 22.303c-.063 0-.063.092 0 .092.094-.03.094-.123 0-.092Zm-2.782-.613c0-.061.094-.061.094 0 0 .092-.093.092-.093 0ZM39.75 16.851c0 .092-.094.092-.094 0 0-.061.094-.061.094 0Zm2.688 19.729c-.094 0-.094.092 0 .092.062 0 .062-.092 0-.092Zm1.906-19.637c.062 0 .062-.092 0-.092-.094 0-.094.092 0 .092Zm-3 20.832.093.092h-.093l-.094-.092h.094Zm3.687 4.81h-.156c0-.062.094-.062.156-.062v.061Zm1.97 1.04c.03-.03.03.093 0 .123-.095 0-.095-.122 0-.122ZM21.5 46.353a.07.07 0 0 0 .031.123c0-.03.032-.061.063-.092-.063 0-.063-.061-.094-.03Zm21.031-27.54c0 .03.094.03.094 0 0-.123-.094-.123-.094 0Zm2.875 21.567c0 .122.094.122.094 0 0-.031-.094-.031-.094 0Zm-1.468-27.755c.062 0 .062-.092 0-.092-.094.03-.094.122 0 .092Zm-7.97 5.453c-.03 0-.03-.123 0-.123.094 0 .094.123 0 .123Zm-.593 1.01c-.031 0-.031-.091 0-.091.125 0 .125.091 0 .091Zm4.25 15.44a.063.063 0 0 0-.125 0c0 .031.125.031.125 0Zm4.188 6.801c.093 0 .093.123 0 .123-.032 0-.032-.123 0-.123Zm-.188-.49c.031 0 .094.061.125.092h-.125l-.031-.092h.031Zm.188-26.009c.062 0 .062 0 .062-.122 0-.03-.156.122-.063.122ZM14.905 46.628c-.094 0-.062.092-.031.123.063 0 .063-.092.031-.123ZM43 14.248c0-.031-.125.122-.094.122.094 0 .094 0 .094-.123Zm.313-1.073c.062-.03.062-.123 0-.092-.094 0-.094.092 0 .092Zm-.094 27.571.031.123h-.125l.094-.123Zm1.156-28.766c0-.092-.062-.092-.062 0 0 .123.062.123.062 0ZM17.75 47.915c.031 0 .031 0 .031.03 0 0 .032 0 .063-.03.031-.092-.094-.123-.094 0Zm26.156-6.22c.125 0 .125.062 0 .062-.093 0-.093-.061 0-.061Zm-6.718.368c-.094 0-.094.062 0 .062.124 0 .124-.062 0-.062Zm7.125-3.094c0-.03-.032-.06-.063-.092h-.094l.094.092h.063Zm.812 2.819c.031.092.031.092-.031.092-.094 0 .031-.184.031-.092Zm-30.063 4.595c.032.092 0 .061 0 .153.094-.03.094-.184 0-.153Zm6.157-.49c-.063.03-.063.061-.063.122.094 0 .094-.092.063-.122Zm18.968-27.204c-.03-.122.063-.122.094 0 0 .03-.093.03-.093 0Zm-7.5 20.096c0-.03.094-.06.094-.03.032.092-.062.122-.093.03Zm8.813-21.78-.031-.154h.093l-.062.153Zm3.75 25.12h-.156l.062-.092.094.092Zm-1.125-29.9c.094 0 .094 0 .094-.091 0-.031-.157.091-.094.091Zm-3.688 3.707-.062.092-.094-.092h.157ZM20.782 46.69h.125v-.061c-.093 0-.125 0-.125.061Zm26.625-4.932-.093-.092v.092l.124.061-.03-.06Zm-4.062-26.223-.094.184.188-.215-.094.03Zm.219 25.15c0 .032-.094.062-.094.032 0-.092.094-.123.094-.031Zm-5.907-13.509c-.062.061-.125.061-.156.061l.063-.092c.03.031.062.031.093.031Zm.688-11.059c.093 0 .093 0 .093-.092 0-.061-.156.123-.093.092ZM44 13.573c.063 0 .063 0 .063-.061-.032-.092-.157.092-.063.061Zm-8.344 5.974-.031.153-.094.03.125-.183Zm5.094-5.453c.031.092.094.092.063 0 0-.092-.063-.092-.063 0Zm-5.688 26.407c-.03-.092-.093-.061-.062.03 0 .062.063.031.063-.03Zm3-24.844c0 .091 0 .091-.062.091-.094 0 .063-.122.063-.091Zm6.532 24.752c0 .03-.094.03-.094 0 0-.092.094-.092.094 0ZM34.156 18.383c0-.092-.093-.092-.093 0 0 .03.093.03.093 0Zm8.75 22.118c0 .03-.093.03-.093 0 0-.092.093-.092.093 0ZM40.594 14.34c0 .03.093.03.093 0 0-.092-.093-.092-.093 0Zm-5.5 4.871c0 .03 0 .03-.094.03-.063.031.094-.152.094-.03ZM15.156 44.453c-.062 0-.094.03-.062.092.094 0 .062-.061.062-.092Zm30.5-2.604c.094 0 .094.061 0 .061-.062 0-.062-.061 0-.061Zm-2.437 3.125c-.063 0-.063-.061 0-.061.094 0 .094.06 0 .06Zm-5.188-4.626c0 .061 0 .092.094.122-.094.031-.125-.06-.188-.091 0 0 .032 0 .094-.031Zm2.844 3.033c-.031 0-.062-.03-.094-.062.032 0 .063-.03.094-.03s.031.092 0 .092Zm4.531-.245c0-.092.063-.092.063 0 0 .06-.063.06-.063 0Zm-5.031-27.847c0 .092-.094.092-.094 0-.031-.03.063-.03.094 0Zm.656 2.39c0 .091-.062.091-.062 0 0-.062.062-.062.062 0Zm2.282 27.387c.03 0 .03.092 0 .092-.094 0-.094-.092 0-.092Zm1.593.704c-.031-.061.032-.061.063 0 0 .092-.063.092-.063 0Zm-6.531-11.64v-.032l.063.031v.123a.23.23 0 0 1-.063-.123Zm5.219 11.18c.031 0 .031.093 0 .093-.094 0-.094-.092 0-.092Zm.062-6.157h.125l-.156-.092.031.092Zm-1.5-1.164c0 .03 0 .061.032.092l-.157-.061.125-.03ZM41 43.442h.125v.092L41 43.442Zm-9-5.392v-.122l.094.122H32Zm8.406-19.728c.032 0 .063-.031.094-.031l-.094.153v-.122Zm5 23.527h.094v.061h-.094v-.061Zm.844 1.9c0 .03 0 .03-.094.03-.062 0 .094-.123.094-.03ZM35.937 17.892c.032 0 .032.061 0 .061-.124 0-.124-.061 0-.061Zm9.126 23.619c0-.123.062-.123.062 0 0 .03-.063.03-.063 0Zm1.124-.551c0 .03.063.03.063 0 0-.123-.063-.123-.063 0ZM19.22 43.748h.031a.232.232 0 0 0-.063.154c-.03-.062-.03-.154.032-.154Zm24.875 1.379H44v-.092l.094.092ZM36.28 17.372v-.092l-.093.153.093-.061Zm-16.843 27.48.093.091v-.092h-.093ZM34.5 19.025l.094.092H34.5v-.092Zm1.781 22.578h.094l-.094-.092v.092Zm5.094-26.897-.094.092h.094v-.092Zm.469 29.041v-.092l.093.062-.093.03Zm-24.625.031c-.032 0-.032-.092 0-.092h.062l-.062.092Zm22.719-29.134c0-.091-.063-.091-.063 0 0 .031.063.031.063 0Zm2.25 29.471v-.123l.062.123h-.062Zm-9.594-5.361-.063-.123h.063v.123Zm8.25-20.096-.094-.123.031.123h.063Zm2.469 21.566c-.032-.092 0-.092.03 0 0 .092-.03.092-.03 0Zm-4.375-14.643c-.063 0-.094-.03-.094-.061.031.03.094.03.125.03 0 0 0 .031-.031.031Zm2.812-8.853c0 .092-.031.122-.031.03 0-.061.031-.092.031-.03Zm1.781 23.313c0-.092.032-.092.032 0 0 .06-.032.06-.032 0Zm-.312-1.257c0 .062.031.062.031 0 0-.091-.031-.091-.031 0Zm.219-24.323c.093 0 .093-.03 0-.03-.063 0-.063.03 0 .03Zm-2.907 5.943v.092h-.062l.062-.092Zm1.844 16.757v.061h.094l-.094-.061Zm-5.812 4.993h.093l-.093-.06v.06Zm-17.376 2.482v.092h.063l-.063-.092Zm20.688-31.125-.062.092h.062v-.092Zm5.438 29.47-.126-.06h.094l.032.06Zm-2.438-3.124v-.092l.063.092h-.063Zm-2.406-23.282v-.062h.093l-.093.062Zm-6.125 2.695c.093-.03.093 0 0 .031-.063 0-.063-.03 0-.03Zm8.5-6.74v.062l.093-.061h-.093Zm.375 26.561c.031.092.062.092.031 0 0-.061-.031-.061-.031 0Zm-30.157 5.606v-.092H13l.063.092Zm37.876 8.21c.03.03.062.061.062.092v-.092h-.063Zm-9.344-39.09h-.032l-.093.154.125-.154Zm-5.563 25.06s.032 0 .063-.031v.03c0 .062-.032.031-.063 0Zm10.219 3.185h.063l-.063.062v-.062Zm-10-1.317c0 .061.031.092.063.092l-.063-.092Zm1.813-24.11c-.032 0-.063.031-.063.062l.094-.061h-.032ZM32.25 38.143l-.094-.03h.094v.03Zm7.375-16.175v-.03c-.031 0-.063.03-.094.03h.094ZM17.281 43.534c-.031 0-.031.03-.062.03 0 0 0-.03.031-.06 0 0 0 .03.031.03Zm24.532-30.145-.032.092h.032v-.091Zm3.843 27.204h-.093l.093.03v-.03Zm-1.125 3.278c.032 0 .032 0 .063.03-.031 0-.063-.03-.094-.03h.031Zm6.375 8.976v-.03h-.031l.031.03Zm-9.468-9.068.03.03h-.03v-.03Zm-24.22.03-.03.031v-.03h.03Zm24.97-27.662c.03-.031.03-.062.03-.062l-.03.062Zm-14.5 22.148s0-.03.03-.03l-.03.03Zm13.468 5.3.032.03c-.032 0-.032-.03-.032-.03Zm3.063 2.635v.03-.03Zm-9-6.005c0 .031.031.031.031.062-.031-.03-.031-.03-.031-.062Zm7.875-24.6c0 .031 0 .031-.032.031l.032-.03Z"/>
</svg>
