<svg viewBox="0 0 846 846" xmlns="http://www.w3.org/2000/svg">
    <path fill="#ff0037" fill-rule="evenodd" d="M846 423C846 189.384 656.616 0 423 0S0 189.384 0 423s189.384 423 423 423 423-189.384 423-423z"/>
    <g fill="#fff">
        <path d="M424.454 766a259.458 259.458 0 00173.459-66.186H250.995A259.464 259.464 0 00424.454 766"/>
        <path d="M424.454 79.702C280.608 79.702 164 196.31 164 340.159v165.384a259.79 259.79 0 0086.995 194.271V340.159c0-95.799 77.66-173.459 173.459-173.459s173.459 77.66 173.459 173.459v359.655a259.79 259.79 0 0086.995-194.271V340.159c0-143.849-116.608-260.457-260.454-260.457"/>
        <path d="M424.454 446.602c0-58.708 47.592-106.3 106.3-106.3-58.708 0-106.3-47.592-106.3-106.3 0 58.708-47.592 106.3-106.3 106.3 58.708 0 106.3 47.592 106.3 106.3"/>
    </g>
</svg>
