<svg viewBox="0 0 96 96" fill="none" xmlns="http://www.w3.org/2000/svg">
    <circle fill="#0e0d11" cx="48" cy="48" r="48"/>
    <g transform="translate(8 8)">
        <mask id="a" style="mask-type:luminance" maskUnits="userSpaceOnUse" x="26" y="25" width="28" height="28">
            <path d="M26.31 25.647H53.53v27.222H26.31V25.647Z" fill="#fff"/>
        </mask>
        <g mask="url(#a)">
            <path d="M26.31 25.647H53.53v27.222H26.31V25.647Z" stroke="#057DCD" stroke-width="8"/>
        </g>
        <mask id="b" style="mask-type:luminance" maskUnits="userSpaceOnUse" x="26" y="0" width="28" height="24">
            <path d="M26.31 0H53.53v23.775H26.31V0Z" fill="#fff"/>
        </mask>
        <g mask="url(#b)">
            <mask id="c" style="mask-type:luminance" maskUnits="userSpaceOnUse" x="26" y="0" width="28" height="24">
                <path d="m39.922 0 13.61 23.775H26.308L39.922 0Z" fill="#fff"/>
            </mask>
            <g mask="url(#c)">
                <path d="m39.922 0 13.61 23.775H26.308L39.922 0Z" stroke="#057DCD" stroke-width="8"/>
            </g>
        </g>
        <mask id="d" style="mask-type:luminance" maskUnits="userSpaceOnUse" x="0" y="25" width="24" height="28">
            <path d="M0 25.647h23.775v27.222H0V25.647Z" fill="#fff"/>
        </mask>
        <g mask="url(#d)">
            <mask id="e" style="mask-type:luminance" maskUnits="userSpaceOnUse" x="0" y="25" width="24" height="28">
                <path d="m0 39.26 23.775-13.613v27.222L0 39.259Z" fill="#fff"/>
            </mask>
            <g mask="url(#e)">
                <path d="m0 39.26 23.775-13.613v27.222L0 39.259Z" stroke="#057DCD" stroke-width="8"/>
            </g>
        </g>
        <mask id="f" style="mask-type:luminance" maskUnits="userSpaceOnUse" x="26" y="54" width="28" height="25">
            <path d="M26.31 54.731H53.53v23.775H26.31V54.731Z" fill="#fff"/>
        </mask>
        <g mask="url(#f)">
            <mask id="g" style="mask-type:luminance" maskUnits="userSpaceOnUse" x="26" y="54" width="28" height="25">
                <path d="M39.922 78.506 26.309 54.731h27.222l-13.61 23.775Z" fill="#fff"/>
            </mask>
            <g mask="url(#g)">
                <path d="M39.922 78.506 26.309 54.731h27.222l-13.61 23.775Z" stroke="#057DCD" stroke-width="8"/>
            </g>
        </g>
        <mask id="h" style="mask-type:luminance" maskUnits="userSpaceOnUse" x="56" y="25" width="24" height="28">
            <path d="M56.119 25.647h23.775v27.222H56.119V25.647Z" fill="#fff"/>
        </mask>
        <g mask="url(#h)">
            <mask id="i" style="mask-type:luminance" maskUnits="userSpaceOnUse" x="56" y="25" width="24" height="28">
                <path d="M79.894 39.26 56.119 52.869V25.647L79.894 39.26Z" fill="#fff"/>
            </mask>
            <g mask="url(#i)">
                <path d="M79.894 39.26 56.119 52.869V25.647L79.894 39.26Z" stroke="#057DCD" stroke-width="8"/>
            </g>
        </g>
    </g>
</svg>
