<svg width="1500" height="1500" viewBox="0 0 1500 1500" fill="none" xmlns="http://www.w3.org/2000/svg">
<rect width="1500" height="1500" fill="#1B1B1B"/>
<path fill-rule="evenodd" clip-rule="evenodd" d="M556.919 668.629V1212H369V665.592H369.059C369.586 599.601 387.278 534.861 420.422 477.737C454.075 419.737 502.464 371.646 560.693 338.329C618.922 305.013 684.926 287.653 752.026 288.005C819.127 288.358 884.945 306.411 942.82 340.337C1000.69 374.264 1048.58 422.861 1081.61 481.211C1114.65 539.562 1131.69 605.596 1130.98 672.633C1130.27 739.67 1111.86 805.332 1077.59 862.975C1043.33 920.618 994.441 968.201 935.864 1000.9L844.208 837.026C873.895 820.453 898.674 796.338 916.038 767.124C933.401 737.911 942.735 704.634 943.092 670.658C943.45 636.684 934.82 603.218 918.075 573.645C901.33 544.073 877.065 519.444 847.733 502.249C818.402 485.055 785.046 475.906 751.038 475.727C717.031 475.548 683.58 484.346 654.069 501.231C624.558 518.116 600.035 542.49 582.98 571.884C565.925 601.279 556.942 634.652 556.942 668.629H556.919ZM874.357 1028.42C853.923 1035.47 832.925 1040.76 811.592 1044.25L781.226 858.998C792.038 857.229 802.68 854.544 813.036 850.972L874.357 1028.42ZM620.942 1026.74C641.249 1034.05 662.142 1039.62 683.393 1043.39L716.254 858.561C705.484 856.649 694.896 853.827 684.604 850.124L620.942 1026.74Z" fill="#FB5DEB"/>
</svg>
