<svg viewBox="0 0 1500 1500" xmlns="http://www.w3.org/2000/svg">
    <path fill="#1b1b1b" fill-rule="evenodd" d="M1500 750c0-414.214-335.786-750-750-750S0 335.786 0 750s335.786 750 750 750 750-335.786 750-750Z"/>
    <path fill="#fb5deb" fill-rule="evenodd" d="M556.919 668.629V1212H369V665.592h.059a380.37 380.37 0 0 1 51.363-187.855 380.816 380.816 0 0 1 140.271-139.408 381.257 381.257 0 0 1 191.333-50.324 381.253 381.253 0 0 1 190.794 52.332c57.87 33.927 105.76 82.524 138.79 140.874a380.327 380.327 0 0 1 49.37 191.422 380.332 380.332 0 0 1-53.39 190.342A380.762 380.762 0 0 1 935.864 1000.9l-91.656-163.874a192.994 192.994 0 0 0 71.83-69.902 192.768 192.768 0 0 0 27.054-96.466 192.765 192.765 0 0 0-25.017-97.013 192.993 192.993 0 0 0-70.342-71.396 193.214 193.214 0 0 0-96.695-26.522 193.214 193.214 0 0 0-96.969 25.504 192.995 192.995 0 0 0-71.089 70.653 192.773 192.773 0 0 0-26.038 96.745h-.023Zm317.438 359.791a381.08 381.08 0 0 1-62.765 15.83l-30.366-185.252a193.253 193.253 0 0 0 31.81-8.026l61.321 177.448Zm-253.415-1.68a380.75 380.75 0 0 0 62.451 16.65l32.861-184.829a193.277 193.277 0 0 1-31.65-8.437l-63.662 176.616Z"/>
</svg>
