<svg viewBox="0 0 64 64" xmlns="http://www.w3.org/2000/svg">
    <path fill="#fff" fill-rule="evenodd" d="M64 32C64 14.327 49.673 0 32 0 14.327 0 0 14.327 0 32c0 17.673 14.327 32 32 32 17.673 0 32-14.327 32-32Z"/>
    <linearGradient id="a" x1="54.906" y1="38.703" x2="9.135" y2="38.703" gradientUnits="userSpaceOnUse">
        <stop offset="0" stop-color="#ef18ac"/>
        <stop offset="1" stop-color="#fad972"/>
    </linearGradient>
    <path fill="url(#a)" fill-rule="evenodd" d="m20.18 30.838-9.479 4.26c-2.107.946-2.1 3.938.01 4.876l23.37 10.394a5.348 5.348 0 0 0 4.387-.018l14.88-6.764c2.092-.95 2.088-3.92-.006-4.866l-9.357-4.224-5.516 2.507a5.35 5.35 0 0 1-4.387.018L20.18 30.838Z"/>
    <linearGradient id="b" x1="54.907" y1="30.635" x2="9.137" y2="30.635" gradientUnits="userSpaceOnUse">
        <stop offset="0" stop-color="#5314f1"/>
        <stop offset="1" stop-color="#04e2ff"/>
    </linearGradient>
    <path fill="url(#b)" d="M25.856 13.595a5.35 5.35 0 0 1 4.394.004l23.095 10.427c2.093.945 2.097 3.916.006 4.866l-14.88 6.764a5.35 5.35 0 0 1-4.387.018L10.713 25.28c-2.111-.939-2.117-3.93-.01-4.877l15.152-6.808Z"/>
</svg>
