<svg viewBox="0 0 98 98" xmlns="http://www.w3.org/2000/svg">
    <path fill="#d6e4e3" fill-rule="evenodd" d="M98 49C98 21.938 76.062 0 49 0S0 21.938 0 49s21.938 49 49 49 49-21.938 49-49Z"/>
    <path fill-rule="evenodd" d="M49 77c15.464 0 28-12.536 28-28S64.464 21 49 21 21 33.536 21 49s12.536 28 28 28Zm0 4c17.673 0 32-14.327 32-32 0-17.673-14.327-32-32-32-17.673 0-32 14.327-32 32 0 17.673 14.327 32 32 32Z"/>
    <path fill-rule="evenodd" d="M27.931 50.374c4.135 3.539 10.555 6.877 18.302 8.953 7.747 2.076 14.975 2.395 20.326 1.397 5.67-1.057 7.826-3.233 8.249-4.809.422-1.576-.358-4.538-4.74-8.289-4.135-3.539-10.554-6.877-18.301-8.953-7.747-2.076-14.976-2.395-20.326-1.397-5.67 1.057-7.827 3.233-8.249 4.809-.422 1.576.357 4.538 4.74 8.289Zm-8.603-9.325c-2.1 7.838 9.482 17.75 25.87 22.142 16.387 4.39 31.374 1.597 33.474-6.24 2.1-7.838-9.483-17.75-25.87-22.142-16.387-4.39-31.374-1.597-33.474 6.24Z"/>
    <path d="M63.142 43.343a6 6 0 1 1-8.485-8.485 6 6 0 0 1 8.485 8.485Z"/>
    <path d="M39.808 61.02a6 6 0 1 1-8.486-8.485 6 6 0 0 1 8.486 8.486Z"/>
</svg>
