<svg viewBox="0 0 64 64" fill="none" xmlns="http://www.w3.org/2000/svg">
    <path d="M64 32C64 14.327 49.673 0 32 0 14.327 0 0 14.327 0 32c0 17.673 14.327 32 32 32 17.673 0 32-14.327 32-32Z" fill="url(#a)"/>
    <path d="M64 32C64 14.327 49.673 0 32 0 14.327 0 0 14.327 0 32c0 17.673 14.327 32 32 32 17.673 0 32-14.327 32-32Z" fill="#120901"/>
    <path d="M40.289 31.363c-.298 0-.595.037-.855.186-.335.223-.595.743-.595 1.227 0 .409.372.929.78 1.152 1.153.595 2.38-.743 1.785-1.858-.186-.41-.67-.67-1.115-.707Z" fill="#FF8500"/>
    <path d="M30.976 23.409c.409.074 1.003 1.486 1.115 2.676.037.26 0 .818 0 1.227-.037.632-.112.817-.335 1.115-.483.706-1.375 1.152-2.527 1.226-.335.038-.892.075-1.19.075-.483-.037-.52-.037-.446-.223.037-.075.149-.335.223-.558.483-1.487 1.561-3.866 2.119-4.609.372-.558.818-.967 1.04-.93Zm-.372-3.234c-.186 0-.409.037-.743.148a3.97 3.97 0 0 0-1.339.744c-.594.446-.669.483-.706.297-.037-.297-.52-.706-.966-.743-.446-.075-1.004.148-1.227.483-.111.149-.409.632-.706 1.115-.52.892-.707 1.524-.52 1.896.11.223.074.483-.26 2.082-.596 2.899-1.562 8.884-1.562 10.036-.037 2.602 0 5.055.037 5.538.112.744.372 1.264.855 1.599.483.334.743.409 1.264.26.52-.112.78-.297 1.078-.707.334-.483.409-1.003.409-3.27-.037-2.751.334-7.1.557-7.36.075-.038.558-.075 1.115 0 2.082.185 3.792-.186 5.093-1.153 1.413-1.04 2.007-2.23 2.119-4.237.111-2.64-.744-4.981-2.268-6.17-.483-.335-.632-.373-1.375-.484-.372-.074-.632-.111-.855-.074Z" fill="#fff"/>
    <defs>
        <linearGradient id="a" x1="32" y1="-1.575" x2="30.542" y2="64.679" gradientUnits="userSpaceOnUse">
            <stop stop-color="#020100"/>
            <stop offset="1" stop-color="#1B0E00"/>
        </linearGradient>
    </defs>
</svg>
