<svg viewBox="0 0 360 360" fill="none" xmlns="http://www.w3.org/2000/svg">
    <path d="M180 360c99.411 0 180-80.589 180-180S279.411 0 180 0 0 80.589 0 180s80.589 180 180 180Z" fill="#CAFFA0"/>
    <g clip-path="url(#a)" fill="#25311C">
        <path d="M180.029 199.1v-9.5c15.271 0 30.076-1.24 44.001-3.685 13.37-2.347 25.349-5.696 35.604-9.952 9.87-4.097 17.883-9.007 23.173-14.197 5.06-4.967 7.626-10.086 7.626-15.216 0-5.13-2.566-10.249-7.626-15.215-5.289-5.191-13.301-10.099-23.173-14.198-10.255-4.256-22.234-7.605-35.604-9.952-13.926-2.445-28.73-3.685-44.001-3.685-7 0-14.006.266-20.825.793a248.55 248.55 0 0 0-16.637 1.842l-1.369-9.401a257.813 257.813 0 0 1 17.275-1.913 281.395 281.395 0 0 1 21.557-.822c31.369 0 60.934 5.1 83.248 14.363 23.639 9.813 36.658 23.374 36.658 38.187 0 14.813-13.019 28.374-36.658 38.187-22.314 9.262-51.879 14.363-83.248 14.363l-.001.001Z"/>
        <path d="M179.904 265.249c-31.369 0-60.933-5.101-83.248-14.364C73.02 241.073 60 227.512 60 212.698c0-14.813 13.019-28.374 36.658-38.187 22.314-9.262 51.878-14.363 83.248-14.363v9.5c-15.271 0-30.075 1.24-44.002 3.685-13.37 2.348-25.349 5.696-35.603 9.953-9.871 4.097-17.884 9.006-23.174 14.197-5.06 4.966-7.626 10.085-7.626 15.215 0 5.13 2.566 10.25 7.626 15.216 5.289 5.191 13.302 10.099 23.174 14.197 10.254 4.257 22.233 7.605 35.603 9.953 13.927 2.444 28.731 3.685 44.002 3.685 6.999 0 14.005-.267 20.824-.793a249.872 249.872 0 0 0 16.637-1.842l1.369 9.401a257.537 257.537 0 0 1-17.275 1.913c-7.061.545-14.314.822-21.557.822v-.001Z"/>
        <path d="M180.064 232.147c-31.377 0-60.95-5.097-83.268-14.352-23.647-9.804-36.668-23.357-36.668-38.161 0-14.804 13.023-28.358 36.668-38.162 22.32-9.255 51.891-14.352 83.268-14.352 31.377 0 60.95 5.097 83.268 14.352C286.977 151.276 300 164.83 300 179.634c0 14.804-13.023 28.357-36.668 38.161-22.32 9.255-51.891 14.352-83.268 14.352Zm0-95.527c-15.276 0-30.084 1.239-44.015 3.683-13.374 2.346-25.357 5.692-35.614 9.946-9.873 4.094-17.889 8.999-23.18 14.186-5.06 4.961-7.627 10.075-7.627 15.2s2.566 10.239 7.627 15.2c5.291 5.186 13.306 10.092 23.18 14.186 10.257 4.254 22.24 7.6 35.614 9.946 13.931 2.444 28.74 3.683 44.015 3.683 15.275 0 30.084-1.239 44.015-3.683 13.373-2.346 25.356-5.692 35.614-9.946 9.873-4.094 17.889-9 23.179-14.186 5.062-4.961 7.628-10.075 7.628-15.2s-2.566-10.239-7.628-15.2c-5.29-5.187-13.305-10.092-23.179-14.186-10.258-4.254-22.241-7.6-35.614-9.946-13.931-2.444-28.74-3.683-44.015-3.683Z"/>
    </g>
    <defs>
        <clipPath id="a">
            <path fill="#fff" d="M60 94h240v171.249H60z"/>
        </clipPath>
    </defs>
</svg>
