<svg viewBox="0 0 640 640" xmlns="http://www.w3.org/2000/svg">
    <path fill="#321d47" d="M637.3 319.3c0 175.2-142 317.3-317.3 317.3S2.7 494.6 2.7 319.3 144.8 2.1 320 2.1c175.2 0 317.3 142 317.3 317.2Z"/>
    <path fill="#fff" d="M444.2 392.4h-67.6l-12.7-31h-85.8l-12.7 31h-67.6l80.9-184.3h84.5l81 184.3ZM321.1 256l-22.4 55h44.7l-22.3-55Z"/>
    <path fill="#e6007a" d="M367.9 122.1c0 25.902-20.998 46.9-46.9 46.9-25.902 0-46.9-20.998-46.9-46.9 0-25.902 20.998-46.9 46.9-46.9 25.902 0 46.9 20.998 46.9 46.9Z"/>
    <path fill="#e6007a" d="M367.9 517.1c0 25.902-20.998 46.9-46.9 46.9-25.902 0-46.9-20.998-46.9-46.9 0-25.902 20.998-46.9 46.9-46.9 25.902 0 46.9 20.998 46.9 46.9Z"/>
    <path fill="#e6007a" d="M194.7 216c0 25.902-20.998 46.9-46.9 46.9-25.902 0-46.9-20.998-46.9-46.9 0-25.902 20.998-46.9 46.9-46.9 25.902 0 46.9 20.998 46.9 46.9Z"/>
    <path fill="#e6007a" d="M541.2 216c0 25.902-20.998 46.9-46.9 46.9-25.902 0-46.9-20.998-46.9-46.9 0-25.902 20.998-46.9 46.9-46.9 25.902 0 46.9 20.998 46.9 46.9Z"/>
    <path fill="#e6007a" d="M194.7 424.8c0 25.902-20.998 46.9-46.9 46.9-25.902 0-46.9-20.998-46.9-46.9 0-25.902 20.998-46.9 46.9-46.9 25.902 0 46.9 20.998 46.9 46.9Z"/>
    <path fill="#e6007a" d="M541.2 424.8c0 25.902-20.998 46.9-46.9 46.9-25.902 0-46.9-20.998-46.9-46.9 0-25.902 20.998-46.9 46.9-46.9 25.902 0 46.9 20.998 46.9 46.9Z"/>
</svg>
