<svg viewBox="0 0 64 64" xmlns="http://www.w3.org/2000/svg">
    <path fill="#fff" fill-rule="evenodd" d="M64 32C64 14.327 49.673 0 32 0 14.327 0 0 14.327 0 32c0 17.673 14.327 32 32 32 17.673 0 32-14.327 32-32Z"/>
    <path fill="#2cc5f4" d="M63.416 38.154c-3.368 17.347-20.151 28.688-37.5 25.32C8.565 60.108-2.777 43.327.591 25.98 3.959 8.632 20.742-2.71 38.092.659c17.349 3.367 28.664 20.148 25.324 37.495ZM32.435 13.67c-10.507 0-19.02 8.512-19.02 19.017 0 10.506 8.513 19.017 19.02 19.017 10.506 0 19.019-8.511 19.019-19.017 0-10.505-8.513-19.017-19.02-19.017Z"/>
</svg>
