<svg viewBox="0 0 800 800" xmlns="http://www.w3.org/2000/svg">
    <path fill="#fff" fill-rule="evenodd" d="M800 400C800 179.086 620.914 0 400 0S0 179.086 0 400s179.086 400 400 400 400-179.086 400-400Z"/>
    <path d="M152 232c0-30.928 25.072-56 56-56s56 25.072 56 56-25.072 56-56 56-56-25.072-56-56Zm-8 157.7c-10 11.2-16 26.1-16 42.3 0 16.2 6 31.1 16 42.3v-84.6Zm144.4-49.3C258.7 366.7 240 405.2 240 448c0 34.3 12 65.8 32 90.5V560c0 17.7-14.3 32-32 32h-64c-17.7 0-32-14.3-32-32v-26.8c-37.8-18-64-56.5-64-101.2 0-61.9 50.1-112 112-112h32c24 0 46.2 7.5 64.4 20.3ZM528 560v-21.5c20-24.7 32-56.2 32-90.5 0-42.8-18.7-81.3-48.4-107.7C529.8 327.5 552 320 576 320h32c61.9 0 112 50.1 112 112 0 44.7-26.2 83.2-64 101.2V560c0 17.7-14.3 32-32 32h-64c-17.7 0-32-14.3-32-32Zm8-328c0-30.928 25.072-56 56-56s56 25.072 56 56-25.072 56-56 56-56-25.072-56-56Zm120 157.7v84.7c10-11.3 16-26.1 16-42.3 0-16.2-6-31.1-16-42.3ZM400 176c35.346 0 64 28.654 64 64 0 35.346-28.654 64-64 64-35.346 0-64-28.654-64-64 0-35.346 28.654-64 64-64Zm-80 272c0 16.2 6 31 16 42.3v-84.6c-10 11.3-16 26.1-16 42.3Zm144-42.3v84.7c10-11.3 16-26.1 16-42.3 0-16.2-6-31.1-16-42.3Zm64 42.3c0 44.7-26.2 83.2-64 101.2V592c0 17.7-14.3 32-32 32h-64c-17.7 0-32-14.3-32-32v-42.8c-37.8-18-64-56.5-64-101.2 0-61.9 50.1-112 112-112h32c61.9 0 112 50.1 112 112Z"/>
</svg>
