<svg viewBox="0 0 64 64" xmlns="http://www.w3.org/2000/svg">
    <path fill="#1c1c26" fill-rule="evenodd" d="M64 32C64 14.327 49.673 0 32 0 14.327 0 0 14.327 0 32c0 17.673 14.327 32 32 32 17.673 0 32-14.327 32-32Z"/>
    <mask id="a" maskUnits="userSpaceOnUse" maskContentUnits="userSpaceOnUse" mask-type="alpha">
        <path fill="#1c1c26" fill-rule="evenodd" d="M64 32C64 14.327 49.673 0 32 0 14.327 0 0 14.327 0 32c0 17.673 14.327 32 32 32 17.673 0 32-14.327 32-32Z"/>
    </mask>
    <g mask="url(#a)">
        <path fill="#1c1c26" d="M0 0h64v64H0Z"/>
        <path fill="#fff" d="M64 56.382V47.24L48.381 31.62h-9.143L64 56.382Z"/>
        <path fill="#fff" d="M7.62 63.234h9.033L32 48l15.238 15.234h9.24L32.002 38.858 7.62 63.234Z"/>
        <path fill="#fff" d="M0 6.853v9.143l15.619 15.618h9.143L0 6.854Z"/>
        <path fill="#fff" d="M56.382 0h-9.033L32 15.235 16.763 0H7.522l24.479 24.377L56.381 0Z"/>
        <path fill="#e6007a" d="M32.071 35.802a4.263 4.263 0 1 0 0-8.527 4.263 4.263 0 0 0 0 8.527Z"/>
    </g>
</svg>
