<svg viewBox="0 0 16 16" xmlns="http://www.w3.org/2000/svg">
    <path fill="#fff" d="M15 8A7 7 0 1 1 1 8a7 7 0 0 1 14 0Z"/>
    <linearGradient id="a" x1="36.935" y1="4.121" x2="36.907" y2="18.517" gradientUnits="userSpaceOnUse">
        <stop offset="0" stop-color="#ff2e72"/>
        <stop offset=".935" stop-color="#4a125e"/>
    </linearGradient>
    <path fill="url(#a)" d="M9.909 7.585c-.24.213-.631.328-1.192.328H6.209v3.822h1.048V8.907h1.591c.5 0 .937-.09 1.31-.272.379-.19.676-.455.89-.799.214-.344.32-.751.32-1.218 0-.464-.105-.936-.32-1.282a2.088 2.088 0 0 0-.89-.788c-.372-.19-.81-.283-1.31-.283h-2.64v.994h2.509c.561 0 .952.116 1.192.33.238.21.366.59.366 1.03 0 .427-.126.745-.366.966Z"/>
    <linearGradient id="b" x1="36.935" y1="4.121" x2="36.907" y2="18.517" gradientUnits="userSpaceOnUse">
        <stop offset="0" stop-color="#ff2e72"/>
        <stop offset=".935" stop-color="#4a125e"/>
    </linearGradient>
    <path fill="url(#b)" fill-rule="evenodd" d="M16 8A8 8 0 1 1 0 8a8 8 0 0 1 16 0Zm-1.048 0A6.952 6.952 0 1 1 1.048 8a6.952 6.952 0 0 1 13.904 0Z"/>
</svg>
