<svg viewBox="0 0 64 64" fill="none" xmlns="http://www.w3.org/2000/svg">
    <path d="M32 64c17.673 0 32-14.327 32-32C64 14.327 49.673 0 32 0 14.327 0 0 14.327 0 32c0 17.673 14.327 32 32 32Z" fill="#F9FFF3"/>
    <path d="M40.453 32A8.439 8.439 0 0 1 32 23.547c0 4.68-3.774 8.302-8.453 8.453A8.439 8.439 0 0 1 32 40.453 8.439 8.439 0 0 1 40.453 32ZM32 41.056c0 4.982-4.076 9.057-9.057 9.057-4.98 0-9.056-4.075-9.056-9.056 0-4.982 4.075-9.057 9.056-9.057-4.98 0-9.056-4.076-9.056-9.057 0-4.98 4.075-9.056 9.056-9.056 4.981 0 9.057 4.075 9.057 9.056 0-4.98 4.075-9.056 9.057-9.056 4.98 0 9.056 4.075 9.056 9.056 0 4.981-4.075 9.057-9.056 9.057 4.98 0 9.056 4.075 9.056 9.056 0 4.982-4.075 9.057-9.056 9.057-4.982 0-9.057-4.075-9.057-9.056Z" fill="#FF5995"/>
</svg>
