<svg width="156" height="198" viewBox="0 0 156 198" fill="none" xmlns="http://www.w3.org/2000/svg">
<path d="M123.745 43.3337C107.301 48.0189 82.9566 57.6649 60.7249 77.5999C38.4014 98.4536 53.5593 117.011 53.7431 117.194C53.7431 117.194 45.5669 102.22 65.4101 83.8468C65.6857 83.6631 90.949 61.9826 127.787 51.6017C132.473 50.3155 137.25 49.2131 141.843 48.2945L142.211 48.2026L148.09 38.7404L146.62 38.8322C146.528 38.8322 137.25 39.4753 123.745 43.3337Z" fill="#5928B1"/>
<path d="M149.101 16.6924C145.334 13.569 141.567 10.9967 141.476 10.9967L141.292 10.813H141.016C140.924 10.813 130.727 12.0991 116.672 16.0494C91.5002 23.1231 57.6014 37.7299 39.32 66.7597C30.5008 79.8966 37.4827 95.6977 37.4827 95.6977L37.2989 91.6555C37.2989 91.1962 36.1047 48.7539 124.113 23.858C131.83 21.6532 140.098 19.724 148.733 17.8867L150.203 17.6111L149.101 16.6924Z" fill="#764BC4"/>
<path d="M154.429 22.2044C154.337 22.2044 142.762 23.3987 126.593 27.992C109.506 32.7691 84.6102 42.1395 63.2053 59.3185C50.4359 69.0564 42.4435 80.8153 41.1573 91.5637C40.5143 96.8001 46.7612 107.916 46.7612 107.916L45.4751 103.966C45.3832 103.782 39.8712 85.7761 67.9824 64.8305C83.7834 53.1635 100.136 45.0792 119.703 39.5672C129.717 36.7193 139.363 34.882 150.019 32.861L150.387 32.7691L150.57 32.4016C151.397 30.6562 155.164 23.215 155.256 23.1231L155.899 21.9288L154.429 22.2044Z" fill="#764BC4"/>
<path d="M31.3276 76.865C32.43 59.9616 45.2913 44.4361 69.7278 30.4724C82.5892 22.48 97.0122 16.2331 112.538 11.9154C125.675 8.24069 136.79 7.1383 136.79 7.1383L127.879 0.707642C127.787 0.707642 119.52 1.71817 107.761 5.02537C32.2463 26.3384 22.8759 62.9932 23.7027 77.7837C25.1726 103.506 55.7641 121.788 55.7641 121.788C55.7641 121.788 29.7659 102.036 31.3276 76.865Z" fill="#BBA5E1"/>
<path d="M32.2697 154.716C48.7138 150.031 73.0585 140.385 95.2902 120.45C117.614 99.5965 102.456 81.0395 102.272 80.8557C102.272 80.8557 110.448 95.83 90.605 114.203C90.3294 114.387 65.0661 136.068 28.2276 146.448C23.5424 147.735 18.7653 148.837 14.172 149.756L13.8045 149.848L7.92509 159.31L9.39496 159.218C9.48683 159.218 18.7653 158.483 32.2697 154.716Z" fill="#5928B1"/>
<path d="M6.91454 181.358C10.6811 184.481 14.4476 187.053 14.5395 187.053L14.7232 187.237H14.9988C15.0907 187.237 25.2878 185.951 39.3434 182.001C64.5149 174.927 98.4136 160.32 116.695 131.29C125.422 118.154 118.349 102.353 118.349 102.353L118.532 106.395C118.532 106.854 119.727 149.296 31.7185 174.192C24.0017 176.397 15.7337 178.326 7.09828 180.163L5.62841 180.439L6.91454 181.358Z" fill="#764BC4"/>
<path d="M1.5863 175.754C1.67817 175.754 13.2533 174.56 29.4218 169.966C46.509 165.189 71.4049 155.819 92.8098 138.64C105.487 128.902 113.48 117.143 114.766 106.395C115.409 101.158 109.162 90.0423 109.162 90.0423L110.448 93.9926C110.54 94.1763 116.052 112.182 87.9408 133.128C72.1398 144.795 55.7875 152.879 36.22 158.391C26.2065 161.239 16.5605 163.076 5.90401 165.097L5.53655 165.189L5.35283 165.557C4.52604 167.302 0.759502 174.743 0.667635 174.835L0.0245584 176.029L1.5863 175.754Z" fill="#764BC4"/>
<path d="M124.687 121.093C123.585 137.997 110.724 153.522 86.2872 167.486C73.4259 175.478 59.0029 181.725 43.4774 186.043C30.3405 189.718 19.2247 190.82 19.2247 190.82L28.1357 197.251C28.2276 197.251 36.4956 196.24 48.2545 192.933C123.769 171.62 133.139 134.965 132.312 120.175C130.843 94.452 100.251 76.1705 100.251 76.1705C100.251 76.1705 126.249 95.9218 124.687 121.093Z" fill="#BBA5E1"/>
</svg>
