<svg width="800" height="800" viewBox="0 0 800 800" fill="none" xmlns="http://www.w3.org/2000/svg">
<path d="M551.535 216.02C497.086 231.533 416.477 263.473 342.864 329.481C268.946 398.531 319.137 459.977 319.745 460.585C319.745 460.585 292.673 411.003 358.377 350.166C359.29 349.557 442.941 277.77 564.919 243.397C580.433 239.138 596.25 235.488 611.46 232.446L612.676 232.142L632.144 200.81L627.277 201.115C626.973 201.115 596.25 203.244 551.535 216.02Z" fill="#5928B1"/>
<path d="M635.491 127.806C623.019 117.464 610.547 108.946 610.243 108.946L609.635 108.338H608.722C608.418 108.338 574.653 112.597 528.113 125.677C444.766 149.099 332.521 197.465 271.988 293.587C242.787 337.086 265.905 389.406 265.905 389.406L265.296 376.022C265.296 374.501 261.342 233.967 552.752 151.533C578.304 144.232 605.68 137.844 634.274 131.76L639.141 130.848L635.491 127.806Z" fill="#764BC4"/>
<path d="M653.133 146.057C652.829 146.057 614.501 150.012 560.965 165.221C504.386 181.039 421.952 212.066 351.076 268.948C308.795 301.192 282.33 340.128 278.072 375.718C275.942 393.056 296.627 429.863 296.627 429.863L292.368 416.783C292.064 416.174 273.813 356.554 366.894 287.199C419.214 248.568 473.359 221.8 538.151 203.548C571.307 194.119 603.247 188.035 638.532 181.343L639.749 181.039L640.357 179.822C643.095 174.042 655.567 149.403 655.871 149.099L658 145.145L653.133 146.057Z" fill="#764BC4"/>
<path d="M245.524 327.048C249.174 271.078 291.76 219.67 372.674 173.434C415.26 146.97 463.017 126.285 514.424 111.988C557.923 99.8209 594.73 96.1706 594.73 96.1706L565.224 74.8776C564.919 74.8776 537.543 78.2237 498.607 89.1744C248.566 159.745 217.539 281.116 220.277 330.09C225.144 415.262 326.438 475.795 326.438 475.795C326.438 475.795 240.353 410.395 245.524 327.048Z" fill="#BBA5E1"/>
<path d="M248.643 584.827C303.093 569.314 383.702 537.374 457.315 471.366C531.232 402.316 481.041 340.87 480.433 340.262C480.433 340.262 507.506 389.844 441.801 450.681C440.889 451.29 357.238 523.078 235.259 557.451C219.746 561.709 203.928 565.359 188.719 568.401L187.502 568.705L168.034 600.037L172.901 599.732C173.205 599.732 203.928 597.299 248.643 584.827Z" fill="#5928B1"/>
<path d="M164.688 673.041C177.159 683.384 189.631 691.901 189.935 691.901L190.543 692.509H191.456C191.76 692.509 225.525 688.251 272.065 675.171C355.412 651.748 467.657 603.383 528.19 507.26C557.088 463.761 533.665 411.441 533.665 411.441L534.274 424.826C534.274 426.346 538.228 566.88 246.818 649.315C221.266 656.615 193.89 663.003 165.296 669.087L160.429 669.999L164.688 673.041Z" fill="#764BC4"/>
<path d="M147.045 654.486C147.349 654.486 185.677 650.531 239.214 635.322C295.792 619.504 378.226 588.477 449.102 531.595C491.079 499.351 517.544 460.415 521.802 424.825C523.932 407.487 503.247 370.68 503.247 370.68L507.506 383.76C507.81 384.369 526.061 443.989 432.98 513.343C380.66 551.975 326.515 578.743 261.723 596.995C228.567 606.424 196.627 612.508 161.342 619.2L160.125 619.504L159.517 620.721C156.779 626.501 144.308 651.14 144.003 651.444L141.874 655.398L147.045 654.486Z" fill="#764BC4"/>
<path d="M554.654 473.495C551.004 529.465 508.418 580.873 427.505 627.109C384.919 653.573 337.161 674.258 285.754 688.555C242.255 700.722 205.449 704.372 205.449 704.372L234.955 725.665C235.259 725.665 262.636 722.319 301.572 711.369C551.612 640.797 582.639 519.427 579.902 470.453C575.035 385.281 473.741 324.748 473.741 324.748C473.741 324.748 559.826 390.148 554.654 473.495Z" fill="#BBA5E1"/>
</svg>
