<svg viewBox="0 0 800 800" fill="none" xmlns="http://www.w3.org/2000/svg">
    <path d="M551.535 216.02c-54.449 15.513-135.058 47.453-208.671 113.461-73.918 69.05-23.727 130.496-23.119 131.104 0 0-27.072-49.582 38.632-110.419.913-.609 84.564-72.396 206.542-106.769 15.514-4.259 31.331-7.909 46.541-10.951l1.216-.304 19.468-31.332-4.867.305c-.304 0-31.027 2.129-75.742 14.905Z" fill="#5928B1"/>
    <path d="M635.491 127.806c-12.472-10.342-24.944-18.86-25.248-18.86l-.608-.608h-.913c-.304 0-34.069 4.259-80.609 17.339-83.347 23.422-195.592 71.788-256.125 167.91-29.201 43.499-6.083 95.819-6.083 95.819l-.609-13.384c0-1.521-3.954-142.055 287.456-224.489 25.552-7.301 52.928-13.689 81.522-19.773l4.867-.912-3.65-3.042Z" fill="#764BC4"/>
    <path d="M653.133 146.057c-.304 0-38.632 3.955-92.168 19.164-56.579 15.818-139.013 46.845-209.889 103.727-42.281 32.244-68.746 71.18-73.004 106.77-2.13 17.338 18.555 54.145 18.555 54.145l-4.259-13.08c-.304-.609-18.555-60.229 74.526-129.584 52.32-38.631 106.465-65.399 171.257-83.651 33.156-9.429 65.096-15.513 100.381-22.205l1.217-.304.608-1.217c2.738-5.78 15.21-30.419 15.514-30.723l2.129-3.954-4.867.912Z" fill="#764BC4"/>
    <path d="M245.524 327.048c3.65-55.97 46.236-107.378 127.15-153.614 42.586-26.464 90.343-47.149 141.75-61.446 43.499-12.167 80.306-15.817 80.306-15.817l-29.506-21.293c-.305 0-27.681 3.346-66.617 14.296-250.041 70.571-281.068 191.942-278.33 240.916 4.867 85.172 106.161 145.705 106.161 145.705s-86.085-65.4-80.914-148.747Z" fill="#BBA5E1"/>
    <path d="M248.643 584.827c54.45-15.513 135.059-47.453 208.672-113.461 73.917-69.05 23.726-130.496 23.118-131.104 0 0 27.073 49.582-38.632 110.419-.912.609-84.563 72.397-206.542 106.77-15.513 4.258-31.331 7.908-46.54 10.95l-1.217.304-19.468 31.332 4.867-.305c.304 0 31.027-2.433 75.742-14.905Z" fill="#5928B1"/>
    <path d="M164.688 673.041c12.471 10.343 24.943 18.86 25.247 18.86l.608.608h.913c.304 0 34.069-4.258 80.609-17.338 83.347-23.423 195.592-71.788 256.125-167.911 28.898-43.499 5.475-95.819 5.475-95.819l.609 13.385c0 1.52 3.954 142.054-287.456 224.489-25.552 7.3-52.928 13.688-81.522 19.772l-4.867.912 4.259 3.042Z" fill="#764BC4"/>
    <path d="M147.045 654.486c.304 0 38.632-3.955 92.169-19.164 56.578-15.818 139.012-46.845 209.888-103.727 41.977-32.244 68.442-71.18 72.7-106.77 2.13-17.338-18.555-54.145-18.555-54.145l4.259 13.08c.304.609 18.555 60.229-74.526 129.583-52.32 38.632-106.465 65.4-171.257 83.652-33.156 9.429-65.096 15.513-100.381 22.205l-1.217.304-.608 1.217c-2.738 5.78-15.209 30.419-15.514 30.723l-2.129 3.954 5.171-.912Z" fill="#764BC4"/>
    <path d="M554.654 473.495c-3.65 55.97-46.236 107.378-127.149 153.614-42.586 26.464-90.344 47.149-141.751 61.446-43.499 12.167-80.305 15.817-80.305 15.817l29.506 21.293c.304 0 27.681-3.346 66.617-14.296 250.04-70.572 281.067-191.942 278.33-240.916-4.867-85.172-106.161-145.705-106.161-145.705s86.085 65.4 80.913 148.747Z" fill="#BBA5E1"/>
</svg>
