<svg viewBox="0 0 512 512" xmlns="http://www.w3.org/2000/svg">
    <radialGradient id="a" cx="256" cy="256.858" gradientUnits="userSpaceOnUse" r="238.267">
        <stop offset="0" stop-color="#3d8bff"/>
        <stop offset="1" stop-color="#3de6ff"/>
    </radialGradient>
    <radialGradient id="b" cx="256.182" cy="256.814" gradientUnits="userSpaceOnUse" r="239.204">
        <stop offset="0" stop-color="#cce6ff"/>
        <stop offset=".286" stop-color="#cae3ff"/>
        <stop offset=".521" stop-color="#c6d9ff"/>
        <stop offset=".737" stop-color="#bec7ff"/>
        <stop offset=".942" stop-color="#b2afff"/>
        <stop offset=".994" stop-color="#afa8ff"/>
    </radialGradient>
    <circle cx="256" cy="255.7" fill="#fff" r="255.7"/>
    <path d="m503.7 232.9-13.6 11.6-32.1-1.4 21.5-26.9c3.7-4.7-1.4-9.6-5.9-5.7l-36.9 31.7-134.8-6c-1.7-3.8-3.8-7.4-6.4-10.7l60.2-119 47.1-18c5.6-2.1 3.7-8.9-2.2-7.9l-35 6.2 13-25.8 20.3-7.8c-12.9-9.1-26.7-17-41.3-23.5l3.8 21.5-14.8 23L335 43.4c-2.1-5.6-8.9-3.7-7.9 2.2l8.2 46.5-73.6 114.4c-1.9-.2-3.8-.3-5.7-.3-2.4 0-4.7.2-7 .5L175 93.9l7.3-48c.9-5.9-5.9-7.6-7.9-2l-11.2 31.8-14.3-21.9 3.5-23.2c-14.6 6.7-28.4 14.7-41.3 24l19.4 6.8 13.7 26.5-34.5-5.2c-5.9-.9-7.6 5.9-2 7.9L154 107l61.7 119.5c-2.5 3.4-4.6 7.1-6.2 11.1l-134.3 8L36.8 215c-4.6-3.8-9.5 1.3-5.6 5.9l22.3 26-31.1 1.9-14.5-11.6c-.5 6.5-.8 13-.8 19.6 0 7.7.4 15.4 1.1 23l13.6-11.7 32.1 1.4-21.5 26.9c-3.7 4.7 1.4 9.6 5.9 5.7l36.9-31.7 134.8 6c1.7 3.8 3.8 7.4 6.4 10.7l-60.2 119-47.1 18c-5.6 2.1-3.7 8.9 2.2 7.9l35-6.2-13 25.8-21.3 8.1c13.3 9.4 27.5 17.6 42.5 24.3l-4-22.7 14.8-23 11.8 30.9c2.1 5.6 8.9 3.7 7.9-2.2l-8.2-46.5 73.6-114.4c1.9.2 3.8.3 5.7.3 2.4 0 4.7-.2 7-.5l74 112.8-7.3 48c-.9 5.9 5.9 7.6 7.9 2l11.2-31.8 14.3 21.9-3.7 24.4c15-6.9 29.2-15.2 42.5-24.8l-20.3-7.2-13.7-26.5 34.5 5.2c5.9.9 7.6-5.9 2-7.9L358 405.6l-61.7-119.5c2.5-3.4 4.6-7.1 6.2-11.1l134.3-8 38.3 30.6c4.6 3.8 9.5-1.3 5.6-5.9l-22.3-26 31.1-1.9 14.5 11.5c.5-6.1.7-12.3.7-18.6.2-8-.2-15.9-1-23.8z" fill="url(#a)"/>
    <path d="m485.3 353.6-107.1-69.8c-17-15.2-17.6-43.7 3.2-58.6l103.1-67c-8.1-18.7-18.4-36.2-30.5-52.1l-114.2 58.3c-20.6 5.9-43.9-6.8-47.5-30.4l-6-124.2C276.4 8.6 266.3 8 256 8c-10.2 0-20.3.6-30.1 1.8l-6.7 121.4c-.5 9.5-4.7 17.9-10.9 24.2l-.3.3c-.9.9-1.8 1.6-2.7 2.4-.3.2-.5.4-.8.6-.8.6-1.7 1.2-2.6 1.8-.4.3-.8.5-1.2.8-.8.4-1.5.8-2.3 1.2-.6.3-1.1.6-1.7.8-.6.3-1.2.5-1.8.7-3 1.1-6.2 1.9-9.5 2.2-.4 0-.8.1-1.2.1h-4.6c-.7 0-1.4-.2-2-.3-.9-.1-1.8-.2-2.7-.4-.5-.1-1-.3-1.5-.4-1.1-.3-2.3-.6-3.4-1-.3-.1-.6-.2-1-.4-1.4-.5-2.8-1.1-4.2-1.8L57.5 107c-12.1 16-22.3 33.6-30.3 52.3l105.3 68.6c17.6 14.1 19.6 41.9 1.1 57.8l-106.3 69c8 18.7 18.2 36.2 30.3 52.2l117-59.7c18.9-4.5 39.5 6.3 45 26.5l6.3 130.3c9.9 1.2 20 1.8 30.3 1.8 10.2 0 20.2-.6 30-1.8l7.2-130.4c5.3-19.8 26.5-33 47.7-26.1L455.2 406c12.1-16.1 22.2-33.7 30.1-52.4zm-203.8-52.8-51.2-.2-25.7-44.4 25.8-44.5 51.2.2 25.7 44.4z" fill="url(#b)"/>
    <circle cx="256" cy="255.7" fill="#3db0ff" r="57.7"/>
</svg>
