<svg viewBox="0 0 64 64" fill="none" xmlns="http://www.w3.org/2000/svg">
    <path d="M32 64c17.673 0 32-14.327 32-32C64 14.327 49.673 0 32 0 14.327 0 0 14.327 0 32c0 17.673 14.327 32 32 32Z" fill="#171717"/>
    <path d="M47.318 15.5a2.566 2.566 0 1 0 0-5.133 2.566 2.566 0 0 0 0 5.132Z" fill="#EB027D"/>
    <path d="M42.162 16.89a2.091 2.091 0 1 0 0-4.182 2.091 2.091 0 0 0 0 4.182Z" fill="#EB027D"/>
    <path d="M25.521 34.081a1.12 1.12 0 1 0 0-2.242 1.12 1.12 0 0 0 0 2.242Z" fill="#EB027D"/>
    <path d="M25.765 36.952a1.203 1.203 0 1 0-2.405-.056 1.203 1.203 0 0 0 2.405.056Z" fill="#EB027D"/>
    <path d="M25.139 28.494a1.33 1.33 0 1 0 0-2.659 1.33 1.33 0 0 0 0 2.66Z" fill="#EB027D"/>
    <path d="M24.513 25.074a1.579 1.579 0 1 0 0-3.158 1.579 1.579 0 0 0 0 3.158Z" fill="#EB027D"/>
    <path d="M26.564 31.317a1.12 1.12 0 1 0 0-2.242 1.12 1.12 0 0 0 0 2.242Z" fill="#EB027D"/>
    <path d="M28.535 33.258a.926.926 0 1 0 0-1.853.926.926 0 0 0 0 1.852Z" fill="#EB027D"/>
    <path d="M28.214 35.455a.926.926 0 1 0 0-1.852.926.926 0 0 0 0 1.852Z" fill="#EB027D"/>
    <path d="M28.6 28.269a1.121 1.121 0 1 0 0-2.242 1.121 1.121 0 0 0 0 2.242Z" fill="#EB027D"/>
    <path d="M29.355 30.53a.926.926 0 1 0 0-1.851.926.926 0 0 0 0 1.852Z" fill="#EB027D"/>
    <path d="M30.582 36.278a.772.772 0 1 0 0-1.544.772.772 0 0 0 0 1.544Z" fill="#EB027D"/>
    <path d="M31.171 37.517a.772.772 0 1 0-1.544-.036.772.772 0 0 0 1.544.035Z" fill="#EB027D"/>
    <path d="M30.74 34.464a.772.772 0 1 0 0-1.545.772.772 0 0 0 0 1.545Z" fill="#EB027D"/>
    <path d="M30.999 32.38a.772.772 0 1 0 0-1.545.772.772 0 0 0 0 1.544Z" fill="#EB027D"/>
    <path d="M31.293 30.336a.772.772 0 1 0 0-1.544.772.772 0 0 0 0 1.544Z" fill="#EB027D"/>
    <path d="M31.447 28.074a.926.926 0 1 0 0-1.852.926.926 0 0 0 0 1.852Z" fill="#EB027D"/>
    <path d="M35.188 20.864a1.579 1.579 0 1 0 0-3.157 1.579 1.579 0 0 0 0 3.157Z" fill="#EB027D"/>
    <path d="M32.991 23.068a1.33 1.33 0 1 0 0-2.659 1.33 1.33 0 0 0 0 2.659Z" fill="#EB027D"/>
    <path d="M31.908 25.593a1.12 1.12 0 1 0 0-2.241 1.12 1.12 0 0 0 0 2.241Z" fill="#EB027D"/>
    <path d="M29.208 22.224a1.579 1.579 0 1 0 0-3.157 1.579 1.579 0 0 0 0 3.157Z" fill="#EB027D"/>
    <path d="M28.43 25.34a1.33 1.33 0 1 0 0-2.658 1.33 1.33 0 0 0 0 2.658Z" fill="#EB027D"/>
    <path d="M28.741 37.431a.99.99 0 1 0-1.981-.046.99.99 0 0 0 1.981.046Z" fill="#EB027D"/>
    <path d="M38.209 18.67a1.79 1.79 0 1 0 0-3.58 1.79 1.79 0 0 0 0 3.58Z" fill="#EB027D"/>
    <path d="M37.105 11.358a2.566 2.566 0 1 0 0-5.132 2.566 2.566 0 0 0 0 5.132Z" fill="#EB027D"/>
    <path d="M33.404 15.209a2.091 2.091 0 1 0 0-4.182 2.091 2.091 0 0 0 0 4.182Z" fill="#EB027D"/>
    <path d="M30.852 18.848a1.79 1.79 0 1 0 0-3.581 1.79 1.79 0 0 0 0 3.581Z" fill="#EB027D"/>
    <path d="M27.63 11.32a2.566 2.566 0 1 0 0-5.132 2.566 2.566 0 0 0 0 5.132Z" fill="#EB027D"/>
    <path d="M25.706 16.538a2.091 2.091 0 1 0 0-4.183 2.091 2.091 0 0 0 0 4.183Z" fill="#EB027D"/>
    <path d="M24.698 21.158a1.79 1.79 0 1 0 0-3.581 1.79 1.79 0 0 0 0 3.58Z" fill="#EB027D"/>
    <path d="M22.894 31.915a1.33 1.33 0 1 0 0-2.659 1.33 1.33 0 0 0 0 2.659Z" fill="#EB027D"/>
    <path d="M20.727 28.822a1.579 1.579 0 1 0 0-3.157 1.579 1.579 0 0 0 0 3.157Z" fill="#EB027D"/>
    <path d="M19.388 24.78a1.79 1.79 0 1 0 0-3.581 1.79 1.79 0 0 0 0 3.58Z" fill="#EB027D"/>
    <path d="M22.6 35.492a1.415 1.415 0 1 0-2.829-.065 1.415 1.415 0 0 0 2.829.065Z" fill="#EB027D"/>
    <path d="M19.983 13.907a2.566 2.566 0 1 0 0-5.132 2.566 2.566 0 0 0 0 5.132Z" fill="#EB027D"/>
    <path d="M19.05 19.832a2.091 2.091 0 1 0 0-4.182 2.091 2.091 0 0 0 0 4.182Z" fill="#EB027D"/>
    <path d="M15.341 17.114a2.416 2.416 0 1 0-4.83-.113 2.416 2.416 0 0 0 4.83.113Z" fill="#EB027D"/>
    <path d="M15.894 23.726a1.999 1.999 0 1 0-3.996-.094 1.999 1.999 0 0 0 3.996.094Z" fill="#EB027D"/>
    <path d="M17.432 28.939a1.78 1.78 0 1 0-3.56-.084 1.78 1.78 0 0 0 3.56.084Z" fill="#EB027D"/>
    <path d="M19.688 32.774a1.592 1.592 0 1 0-3.184-.075 1.592 1.592 0 0 0 3.183.075Z" fill="#EB027D"/>
    <path d="M26.895 57.774a2.566 2.566 0 1 0 0-5.132 2.566 2.566 0 0 0 0 5.132Z" fill="#fff"/>
    <path d="M47.491 31.3a1.592 1.592 0 1 0-3.184-.075 1.592 1.592 0 0 0 3.184.074Z" fill="#fff"/>
    <path d="M43.273 38.335a1.579 1.579 0 1 0 0-3.157 1.579 1.579 0 0 0 0 3.157Z" fill="#fff"/>
    <path d="M44.225 28.574a1.414 1.414 0 1 0-2.828-.067 1.414 1.414 0 0 0 2.828.067Z" fill="#fff"/>
    <path d="M44.612 42.801a1.79 1.79 0 1 0 0-3.58 1.79 1.79 0 0 0 0 3.58Z" fill="#fff"/>
    <path d="M38.861 38.164a1.33 1.33 0 1 0 0-2.658 1.33 1.33 0 0 0 0 2.658Z" fill="#fff"/>
    <path d="M39.486 42.084a1.579 1.579 0 1 0 0-3.158 1.579 1.579 0 0 0 0 3.157Z" fill="#fff"/>
    <path d="M32.553 37.778a.926.926 0 1 0 0-1.852.926.926 0 0 0 0 1.852Z" fill="#fff"/>
    <path d="M32.707 35.212a.772.772 0 1 0 0-1.545.772.772 0 0 0 0 1.545Z" fill="#fff"/>
    <path d="M33.001 33.165a.772.772 0 1 0 0-1.544.772.772 0 0 0 0 1.544Z" fill="#fff"/>
    <path d="M33.418 29.267a.772.772 0 1 0 0-1.545.772.772 0 0 0 0 1.544Z" fill="#fff"/>
    <path d="M34.371 26.521a.772.772 0 1 0-1.544-.035.772.772 0 0 0 1.544.035Z" fill="#fff"/>
    <path d="M33.261 31.08a.772.772 0 1 0 0-1.543.772.772 0 0 0 0 1.544Z" fill="#fff"/>
    <path d="M34.631 35.307a.926.926 0 1 0 0-1.851.926.926 0 0 0 0 1.851Z" fill="#fff"/>
    <path d="M35.4 37.973a1.121 1.121 0 1 0 0-2.242 1.121 1.121 0 0 0 0 2.242Z" fill="#fff"/>
    <path d="M35.465 32.594a.926.926 0 1 0 0-1.851.926.926 0 0 0 0 1.851Z" fill="#fff"/>
    <path d="M35.786 30.398a.926.926 0 1 0 0-1.853.926.926 0 0 0 0 1.852Z" fill="#fff"/>
    <path d="M37.238 26.617a.99.99 0 1 0-1.98-.046.99.99 0 0 0 1.98.046Z" fill="#fff"/>
    <path d="M28.812 46.293a1.579 1.579 0 1 0 0-3.157 1.579 1.579 0 0 0 0 3.157Z" fill="#fff"/>
    <path d="M31.009 43.59a1.33 1.33 0 1 0 0-2.658 1.33 1.33 0 0 0 0 2.658Z" fill="#fff"/>
    <path d="M32.092 40.648a1.12 1.12 0 1 0 0-2.241 1.12 1.12 0 0 0 0 2.241Z" fill="#fff"/>
    <path d="M34.792 44.933a1.579 1.579 0 1 0 0-3.157 1.579 1.579 0 0 0 0 3.157Z" fill="#fff"/>
    <path d="M35.57 41.322a1.33 1.33 0 1 0 0-2.66 1.33 1.33 0 0 0 0 2.66Z" fill="#fff"/>
    <path d="M37.436 34.925a1.12 1.12 0 1 0 0-2.242 1.12 1.12 0 0 0 0 2.242Z" fill="#fff"/>
    <path d="M38.478 32.16a1.12 1.12 0 1 0 0-2.241 1.12 1.12 0 0 0 0 2.241Z" fill="#fff"/>
    <path d="M40.64 27.105a1.203 1.203 0 1 0-2.405-.057 1.203 1.203 0 0 0 2.404.057Z" fill="#fff"/>
    <path d="M16.682 53.633a2.566 2.566 0 1 0 0-5.133 2.566 2.566 0 0 0 0 5.133Z" fill="#fff"/>
    <path d="M21.838 51.292a2.091 2.091 0 1 0 0-4.182 2.091 2.091 0 0 0 0 4.182Z" fill="#fff"/>
    <path d="M25.791 48.91a1.79 1.79 0 1 0 0-3.58 1.79 1.79 0 0 0 0 3.58Z" fill="#fff"/>
    <path d="M30.596 52.974a2.091 2.091 0 1 0 0-4.183 2.091 2.091 0 0 0 0 4.183Z" fill="#fff"/>
    <path d="M33.148 48.733a1.79 1.79 0 1 0 0-3.581 1.79 1.79 0 0 0 0 3.581Z" fill="#fff"/>
    <path d="M36.37 57.812a2.566 2.566 0 1 0 0-5.132 2.566 2.566 0 0 0 0 5.132Z" fill="#fff"/>
    <path d="M38.294 51.644a2.091 2.091 0 1 0 0-4.182 2.091 2.091 0 0 0 0 4.182Z" fill="#fff"/>
    <path d="M39.302 46.423a1.79 1.79 0 1 0 0-3.58 1.79 1.79 0 0 0 0 3.58Z" fill="#fff"/>
    <path d="M41.106 34.744a1.33 1.33 0 1 0 0-2.659 1.33 1.33 0 0 0 0 2.659Z" fill="#fff"/>
    <path d="M44.021 55.228a2.566 2.566 0 1 0 0-5.131 2.566 2.566 0 0 0 0 5.131Z" fill="#fff"/>
    <path d="M44.95 48.35a2.091 2.091 0 1 0 0-4.182 2.091 2.091 0 0 0 0 4.182Z" fill="#fff"/>
    <path d="M50.125 35.146a1.78 1.78 0 1 0-3.56-.083 1.78 1.78 0 0 0 3.56.083Z" fill="#fff"/>
    <path d="M52.1 40.37a1.999 1.999 0 1 0-3.996-.094 1.999 1.999 0 0 0 3.996.093Z" fill="#fff"/>
    <path d="M53.485 46.998a2.416 2.416 0 1 0-4.83-.112 2.416 2.416 0 0 0 4.83.112Z" fill="#fff"/>
</svg>
