<svg viewBox="0 0 128 128" xmlns="http://www.w3.org/2000/svg">
    <path fill="#fff" fill-rule="evenodd" d="M128 64c0-35.346-28.654-64-64-64C28.654 0 0 28.654 0 64c0 35.346 28.654 64 64 64 35.346 0 64-28.654 64-64Z"/>
    <clipPath id="a">
        <path d="M113.143 21v86H14.857V21Z"/>
    </clipPath>
    <g clip-path="url(#a)">
        <linearGradient id="b" x1="22.181" y1="26.447" x2="96.339" y2="111.199" gradientUnits="userSpaceOnUse">
            <stop offset="0" stop-color="#8e59ff"/>
            <stop offset="1" stop-color="#6888f9"/>
        </linearGradient>
        <path fill="url(#b)" d="M113.143 88.448c.004-4.912-2.225-9.625-6.2-13.104-3.973-3.479-9.365-5.44-14.995-5.453h-23.5a76.061 76.061 0 0 1-.24-5.891c0-2.026-.093-3.97-.225-5.891h23.965c5.58-.078 10.902-2.067 14.816-5.538 3.915-3.472 6.109-8.146 6.109-13.016 0-4.87-2.194-9.545-6.109-13.017-3.914-3.47-9.236-5.46-14.816-5.538H35.783c-5.58.078-10.901 2.067-14.816 5.538-3.914 3.472-6.108 8.146-6.108 13.017 0 4.87 2.194 9.544 6.108 13.016 3.915 3.47 9.236 5.46 14.816 5.538l22.074.516c1.536 0 1.667 3.35 1.667 5.375 0 2.026.093 3.97.224 5.891H35.783c-5.58.078-10.901 2.067-14.816 5.539-3.914 3.47-6.108 8.146-6.108 13.015 0 4.87 2.194 9.546 6.108 13.016 3.915 3.472 9.236 5.46 14.816 5.539h56.165c5.628-.012 11.02-1.973 14.994-5.451 3.974-3.478 6.204-8.19 6.2-13.101Zm-8.684-48.896c.002 2.899-1.315 5.68-3.66 7.733-2.346 2.053-5.529 3.21-8.85 3.218H67.062c-.901-5.429-2.619-10.73-5.108-15.767a28.174 28.174 0 0 0-4.183-6.115h34.176c3.318.007 6.498 1.162 8.843 3.21 2.345 2.05 3.664 4.826 3.668 7.721Zm-68.676 10.95c-3.328 0-6.52-1.153-8.873-3.207-2.354-2.053-3.676-4.839-3.676-7.743s1.322-5.69 3.676-7.743c2.353-2.054 5.545-3.208 8.873-3.208h5.634c4.977 0 9.692 3.44 12.626 9.207a48.913 48.913 0 0 1 4.255 12.695H35.783Zm-12.51 37.946c-.002-2.899 1.315-5.68 3.66-7.733s5.528-3.21 8.85-3.218h24.885c.902 5.43 2.62 10.73 5.109 15.767a28.184 28.184 0 0 0 4.183 6.116H35.783c-3.318-.008-6.497-1.163-8.842-3.211-2.345-2.049-3.664-4.826-3.668-7.721Zm50.448 1.744a48.914 48.914 0 0 1-4.254-12.695h22.481c3.328 0 6.52 1.154 8.874 3.208 2.353 2.053 3.676 4.839 3.676 7.743s-1.323 5.69-3.676 7.743c-2.354 2.054-5.546 3.207-8.874 3.207h-5.634c-4.955 0-9.669-3.44-12.593-9.206Z"/>
        <linearGradient id="c" x1="22.18" y1="101.554" x2="96.338" y2="16.8" gradientUnits="userSpaceOnUse">
            <stop offset="0" stop-color="#8e59ff"/>
            <stop offset="1" stop-color="#6888f9"/>
        </linearGradient>
        <path fill="url(#c)" opacity=".8" d="M113.143 39.552c.004 4.912-2.225 9.625-6.2 13.104-3.973 3.48-9.366 5.44-14.995 5.453h-23.5A76.06 76.06 0 0 0 68.207 64c0 2.026-.093 3.97-.225 5.891h23.966c5.58.078 10.902 2.067 14.816 5.539 3.915 3.47 6.109 8.146 6.109 13.015 0 4.87-2.194 9.546-6.109 13.016-3.914 3.472-9.236 5.46-14.816 5.539H35.782c-5.58-.078-10.902-2.067-14.816-5.539-3.915-3.47-6.109-8.146-6.109-13.016 0-4.87 2.194-9.545 6.109-13.015 3.914-3.472 9.236-5.46 14.816-5.539l22.074-.516c1.536 0 1.667-3.35 1.667-5.375 0-2.026.093-3.97.225-5.891H35.782c-5.58-.078-10.902-2.067-14.816-5.538-3.915-3.472-6.109-8.146-6.109-13.016 0-4.87 2.194-9.545 6.109-13.017 3.914-3.47 9.236-5.46 14.816-5.538h56.166c5.628.013 11.02 1.973 14.994 5.451 3.974 3.478 6.204 8.19 6.2 13.101Zm-8.684 48.896c.002-2.899-1.315-5.68-3.66-7.733-2.346-2.053-5.529-3.21-8.851-3.218H67.063c-.902 5.43-2.62 10.73-5.109 15.767a28.184 28.184 0 0 1-4.183 6.116h34.177c3.318-.008 6.498-1.163 8.843-3.211 2.344-2.049 3.664-4.826 3.668-7.721Zm-68.677-10.95c-3.328 0-6.52 1.153-8.874 3.207-2.353 2.053-3.675 4.839-3.675 7.743s1.322 5.69 3.675 7.743c2.354 2.054 5.546 3.207 8.874 3.207h5.634c4.977 0 9.691-3.44 12.626-9.206a48.914 48.914 0 0 0 4.255-12.695H35.782ZM23.271 39.551c-.002 2.899 1.315 5.68 3.66 7.733 2.346 2.053 5.529 3.21 8.851 3.218h24.885c.902-5.429 2.62-10.73 5.109-15.767a28.173 28.173 0 0 1 4.183-6.115H35.782c-3.318.007-6.498 1.162-8.843 3.21-2.345 2.05-3.664 4.826-3.668 7.721Zm50.45-1.744a48.913 48.913 0 0 0-4.255 12.695h22.482c3.328 0 6.52-1.154 8.874-3.208 2.353-2.053 3.676-4.839 3.676-7.743s-1.323-5.69-3.676-7.743c-2.354-2.054-5.546-3.208-8.874-3.208h-5.634c-4.955 0-9.67 3.44-12.593 9.207Z"/>
    </g>
</svg>
