<svg version="1.1" id="Calque_1" xmlns="http://www.w3.org/2000/svg" x="0" y="0" viewBox="0 0 283.5 283.5" style="enable-background:new 0 0 283.5 283.5" xml:space="preserve">
    <style>
        .st1{fill:url(#SVGID_00000139255201489438748190000002051599573515998098_)}
    </style>
    <radialGradient id="SVGID_1_" cx="38.372" cy="813.926" r="266.71" gradientTransform="translate(0 -558)" gradientUnits="userSpaceOnUse">
        <stop offset=".077" style="stop-color:#004fff"/>
        <stop offset=".478" style="stop-color:#cb06ed"/>
        <stop offset=".779" style="stop-color:#ff0062"/>
        <stop offset="1" style="stop-color:#ff8500"/>
    </radialGradient>
    <path d="M141.7 10c35.2 0 68.3 13.7 93.1 38.6s38.6 58 38.6 93.1-13.7 68.3-38.6 93.1-58 38.6-93.1 38.6-68.3-13.7-93.1-38.6S10 176.9 10 141.7s13.7-68.3 38.6-93.1S106.5 10 141.7 10m0-10C63.5 0 0 63.5 0 141.7s63.5 141.7 141.7 141.7S283.5 220 283.5 141.7 220 0 141.7 0z" style="fill:url(#SVGID_1_)"/>
    <radialGradient id="SVGID_00000163786088620989682370000017931451140397164162_" cx="-1560.82" cy="74.914" r="1.134" gradientTransform="matrix(155.6487 -132.4332 131.5338 154.5915 233126.984 -218047.406)" gradientUnits="userSpaceOnUse">
        <stop offset=".077" style="stop-color:#004fff"/>
        <stop offset=".478" style="stop-color:#cb06ed"/>
        <stop offset=".779" style="stop-color:#ff0062"/>
        <stop offset="1" style="stop-color:#ff8500"/>
    </radialGradient>
    <path style="fill:url(#SVGID_00000163786088620989682370000017931451140397164162_)" d="M141.9 27.3c-24.7 0-48.8 8.1-68.6 23.2-19.6 15.1-34 36.2-40.6 60.2-6.6 23.9-5.3 49.6 3.8 72.6s25.6 42.7 46.7 55.5c4.3 2.6 9.3 4 14.2 4h.4c3.7 0 7.3-.7 10.8-2.1 3.3-1.5 6.5-3.4 9.1-6s4.7-5.8 6-9.2c1.3-3.4 2.1-7.1 2.1-10.8v-51.9c0-.4-.1-.6-.4-.7-.2-.2-.5-.4-.7-.4h-16.9c-2.1.1-4.3-.2-6.3-1-2-.7-3.8-2-5.4-3.4-1.6-1.5-2.8-3.3-3.6-5.3-.7-2-1.2-4.2-1.2-6.3 0-2.1.5-4.3 1.2-6.3s2-3.8 3.6-5.3 3.3-2.7 5.4-3.4c2-.7 4.2-1.1 6.3-1h68.1c2.1-.1 4.3.2 6.3 1 2 .7 3.8 2 5.4 3.4 1.6 1.5 2.8 3.3 3.6 5.3.7 2 1.2 4.2 1.2 6.3 0 2.1-.5 4.3-1.2 6.3s-2 3.8-3.6 5.3-3.3 2.7-5.4 3.4-4.2 1.1-6.3 1H159c-.4 0-.6.1-.7.4-.2.2-.4.5-.4.7v51.9c0 7.5 3.1 14.6 8.3 19.9 5.3 5.3 12.4 8.3 19.9 8.3h.4c5 0 9.9-1.5 14.2-4 21.2-12.9 37.5-32.4 46.7-55.5 9.1-23.2 10.4-48.6 3.8-72.5s-20.9-45-40.6-60.1c-19.9-15.3-43.9-23.5-68.7-23.5zM61.5 163.8c-3.6 0-7.1-1-10.1-3.1-3.1-2-5.3-4.8-6.7-8.2-1.3-3.3-1.7-7-1-10.6.7-3.4 2.5-6.7 4.9-9.3 2.6-2.6 5.8-4.3 9.3-4.9 3.4-.7 7.2-.4 10.4 1 3.3 1.3 6.1 3.7 8.1 6.7 2 3.1 3.1 6.5 3.1 10.1 0 4.8-2 9.4-5.3 12.8-3.2 3.6-7.9 5.5-12.7 5.5zm80.4-54.3c-5.6 0-11-1.7-15.6-4.7-4.6-3.2-8.2-7.5-10.3-12.6-2.1-5.2-2.7-10.9-1.6-16.3 1.1-5.5 3.8-10.6 7.7-14.5 3.9-3.9 9-6.6 14.4-7.7 5.5-1.1 11.2-.6 16.3 1.6 5.1 2.1 9.6 5.8 12.6 10.4 3.2 4.6 4.7 10.1 4.7 15.7 0 7.5-3.1 14.6-8.3 19.9-5.3 5.3-12.4 8.2-19.9 8.2zm80.1 54.3c-3.6 0-7.1-1.1-10.1-3.1-3.1-2-5.3-4.8-6.7-8.2-1.3-3.3-1.7-7-1-10.6.7-3.4 2.5-6.7 4.9-9.3 2.6-2.6 5.8-4.3 9.3-4.9 3.4-.7 7.2-.4 10.4 1 3.3 1.3 6.1 3.7 8.1 6.7 2 3.1 3.1 6.5 3.1 10.1 0 4.8-2 9.4-5.3 12.9-3.2 3.5-7.8 5.4-12.7 5.4z"/>
</svg>
