<svg width="1500" height="1500" viewBox="0 0 1500 1500" fill="none" xmlns="http://www.w3.org/2000/svg">
<rect width="1500" height="1500" fill="#1B1B1B"/>
<path fill-rule="evenodd" clip-rule="evenodd" d="M837.475 1159.71C837.475 1171.51 848.304 1180.36 859.672 1177.33C1044.59 1128.23 1181 957.878 1181 755.292C1181 514.33 988.038 319 750 319C511.962 319 319 514.33 319 755.292C319 962.529 461.769 1136.04 653.169 1180.54C664.393 1183.14 674.826 1174.34 674.826 1162.76V1059.39C674.826 1051.04 669.277 1043.77 661.376 1041.19C600.766 1021.43 551.722 986.413 514.297 936.166C474.411 882.256 454.46 819.78 454.46 748.738C454.46 654.889 489.299 578.01 558.959 518.102C616.821 468.465 682.692 443.647 756.573 443.647C851.806 443.647 928.632 478.594 987.068 548.487C1034.26 604.965 1057.86 670.153 1057.86 744.051C1057.86 816.494 1036.94 881.394 995.077 938.716C959.969 987.149 911.93 1021.31 850.908 1041.19C843.006 1043.75 837.475 1051.03 837.475 1059.38V1159.71ZM831.998 814.428C831.998 804.156 823.701 795.806 813.465 795.806H699.268C689.031 795.806 680.735 804.156 680.735 814.428V821.504C680.735 837.307 662.92 845.119 654.013 832.099C638.12 808.825 630.164 781.332 630.164 749.6C630.164 713.378 642.663 681.987 667.679 655.463C692.677 628.939 722.308 615.668 756.573 615.668C790.568 615.668 820.073 628.939 845.071 655.463C870.069 681.987 882.568 713.378 882.568 749.6C882.568 780.362 874.721 807.479 859.007 830.95C850.136 844.185 831.998 836.427 831.998 820.462V814.428Z" fill="#00BFFF"/>
</svg>
