<svg viewBox="0 0 1500 1500" xmlns="http://www.w3.org/2000/svg">
    <path fill="#1b1b1b" fill-rule="evenodd" d="M1500 750c0-414.214-335.786-750-750-750S0 335.786 0 750s335.786 750 750 750 750-335.786 750-750Z"/>
    <path fill="#00bfff" fill-rule="evenodd" d="M837.475 1159.71c0 11.8 10.829 20.65 22.197 17.62C1044.59 1128.23 1181 957.878 1181 755.292 1181 514.33 988.038 319 750 319S319 514.33 319 755.292c0 207.237 142.769 380.748 334.169 425.248 11.224 2.6 21.657-6.2 21.657-17.78v-103.37c0-8.35-5.549-15.62-13.45-18.2-60.61-19.76-109.654-54.777-147.079-105.024-39.886-53.91-59.837-116.386-59.837-187.428 0-93.849 34.839-170.728 104.499-230.636 57.862-49.637 123.733-74.455 197.614-74.455 95.233 0 172.059 34.947 230.495 104.84 47.192 56.478 70.792 121.666 70.792 195.564 0 72.443-20.92 137.343-62.783 194.665-35.108 48.433-83.147 82.594-144.169 102.474-7.902 2.56-13.433 9.84-13.433 18.19v100.33Zm-5.477-345.282c0-10.272-8.297-18.622-18.533-18.622H699.268c-10.237 0-18.533 8.35-18.533 18.622v7.076c0 15.803-17.815 23.615-26.722 10.595-15.893-23.274-23.849-50.767-23.849-82.499 0-36.222 12.499-67.613 37.515-94.137 24.998-26.524 54.629-39.795 88.894-39.795 33.995 0 63.5 13.271 88.498 39.795 24.998 26.524 37.497 57.915 37.497 94.137 0 30.762-7.847 57.879-23.561 81.35-8.871 13.235-27.009 5.477-27.009-10.488v-6.034Z"/>
</svg>
