<?xml version="1.0" encoding="UTF-8"?>
<svg id="CIRCLE_OUTLINE_BLACK" xmlns="http://www.w3.org/2000/svg" viewBox="0 0 512 512">
    <circle cx="256" cy="256" r="256" fill="#4141fc"/>
    <path d="M255.65238,409.0881h-75.3057c-9.00901,0-11.14404-1.57621-12.79122-10.64522-3.41651-18.87375-6.50752-37.78924-9.80261-56.6835-4.79891-27.53317-9.67972-55.04658-14.43839-82.57975-3.98629-23.02975-7.82922-46.08-11.79502-69.13022-4.1077-23.56152-8.27684-47.12375-12.3648-70.68599-.42715-2.51758-.69121-5.09732-.69121-7.63538.04096-5.24069,2.74579-8.55699,7.87018-8.61843,16.55369-.22528,33.10738-.14336,49.66107-.04096,5.51132.04096,7.34135,4.29934,8.3178,8.70035,1.68814,7.65586,3.07055,15.39364,4.4332,23.13215,3.45746,19.61106,6.83299,39.22213,10.24951,58.83319,5.47033,31.30002,10.90047,62.60004,16.43154,93.90007,1.64717,9.35498,3.39674,18.68946,5.32846,27.98373,3.51817,16.95013,17.36703,28.495,34.47002,28.96603,16.39132.45056,31.4602-10.56254,35.73103-26.77614,4.1077-15.55748,5.95821-31.56554,8.82614-47.38998,5.02272-27.86085,9.90355-55.74217,14.78437-83.6235,3.88388-22.31296,7.66683-44.62665,11.49-66.93961.16239-.90112.22382-1.82199.38621-2.72238,2.19647-12.81536,3.82317-14.20727,16.57417-14.20727,13.2798,0,26.55888-.04096,39.83873.02048,8.27683.04096,11.67286,3.39821,10.43237,11.46368-3.09103,20.02066-6.58871,40.00036-10.00522,59.98007-4.71772,27.53317-9.49688,55.06634-14.27603,82.59949-4.02652,23.21408-8.13496,46.42817-12.16147,69.64225-4.00603,23.02975-7.97183,46.05951-11.95739,69.08926-.22382,1.26902-.42714,2.5183-.69121,3.76687-1.60694,7.45107-4.04699,9.53929-11.57192,9.53929-25.64388.04094-51.28777,0-76.95214,0l-.02047.06143Z" fill="#fff"/>
</svg>
