
<svg xmlns="http://www.w3.org/2000/svg" version="1.1" xmlns:xlink="http://www.w3.org/1999/xlink" preserveAspectRatio="none" x="0px" y="0px" width="1280px" height="720px" viewBox="0 0 1280 720">
<defs>
<radialGradient id="Gradient_1" gradientUnits="userSpaceOnUse" cx="0" cy="0" r="312.85" fx="0" fy="0" gradientTransform="matrix( 1, 0, 0, 1, 637.05,356.5) " spreadMethod="pad">
<stop  offset="0%" stop-color="#FFFFFF"/>

<stop  offset="100%" stop-color="#8C9BAC"/>
</radialGradient>

<radialGradient id="Gradient_2" gradientUnits="userSpaceOnUse" cx="0" cy="0" r="380.57500000000005" fx="0" fy="0" gradientTransform="matrix( 0.9999999999999999, 0, 0, 0.9999999999999999, 643.5,355.3) " spreadMethod="pad">
<stop  offset="0%" stop-color="#FFFFFF"/>

<stop  offset="100%" stop-color="#8C9BAC"/>
</radialGradient>

<linearGradient id="Gradient_3" gradientUnits="userSpaceOnUse" x1="740.35" y1="488.4" x2="741.4499999999999" y2="20.299999999999983" spreadMethod="pad">
<stop  offset="0%" stop-color="#767676" stop-opacity="0"/>

<stop  offset="100%" stop-color="#767676" stop-opacity="0.7764705882352941"/>
</linearGradient>

<g id="Layer2_0_FILL">
<path fill="#000000" stroke="none" d="
M 977.3 356.55
Q 977.3 215.6 877.65 115.95 778 16.35 637.05 16.35 496.15 16.35 396.5 115.95 296.9 215.6 296.9 356.55 296.9 497.5 396.5 597.15 496.15 696.75 637.05 696.75 778 696.75 877.65 597.15 977.3 497.5 977.3 356.55 Z"/>
</g>

<g id="Layer1_0_MEMBER_0_FILL">
<path fill="url(#Gradient_1)" stroke="none" d="
M 784.8 377.15
Q 784.05 377.5 783.7 378.2 773 397.05 769.6 418.65 767.25 433.4 766.75 448.5 766.7 449.35 767.25 450.05 771.7 455.95 777 460.9 786.95 470.1 797.25 478.85 805.9 486.15 812.55 495.4
L 812.5 495.4
Q 817.6 502.55 819.7 510.95 821.7 519 818.75 526.8
L 818.7 526.85
Q 815 536.7 806.5 542.85 802.45 545.75 797.5 546.9
L 797.6 546.85
Q 787.9 548.75 779 544.4 773.5 541.8 768.7 537.75 755.5 526.65 744.75 512.9 737.25 503.45 729.65 493.85 721.75 483.95 712.8 474.8 703.85 465.6 694.15 457.2 684.5 448.65 673.95 441.15 663.7 433.9 652.05 429.1 638.4 423.45 623.8 421.25 607.45 418.8 591.6 423.25
L 591.55 423.25
Q 572.95 428.75 558.75 441.8
L 558.75 441.85
Q 543.3 456.1 530.2 472.7 529.6 473.45 529.65 474.4 529.7 475.35 530.4 476.05 531.1 476.7 532.05 476.75 541.1 477.25 550.1 478.2 564.8 480 579.25 483.65 593.5 487.2 607.2 492.6 620.95 497.9 633.8 505 646.95 512.3 659.2 521.3 671.8 530.55 683.25 541.1 695.25 552.25 706.6 564.05 717.15 575 729.25 584.45 742.1 594.25 756.85 600.45 771.8 606.7 788.1 607.05 805.6 607.5 821.55 600.7 836.15 594.5 846.95 585.45
L 846.95 585.4
Q 855.15 578.5 860.45 571.45 870.6 557.95 875.75 541.65 882.55 519.95 879.05 497.45 876.3 480.6 868.25 465.45 862.15 453.8 853.15 444.25
L 787.65 377.65
Q 787.05 377.1 786.3 376.95 785.5 376.8 784.8 377.15
M 849.55 447.7
L 849.5 447.7
Q 858.05 456.8 863.85 467.8 871.5 482.2 874.1 498.25 877.45 519.55 871 540.15 866.1 555.65 856.45 568.45 851.45 575.1 843.75 581.6 833.45 590.2 819.6 596.1 804.65 602.5 788.25 602.05
L 788.2 602.05
Q 772.85 601.7 758.75 595.85
L 758.8 595.85
Q 744.6 589.85 732.3 580.45
L 732.3 580.5
Q 720.45 571.3 710.2 560.6 698.75 548.65 686.65 537.45
L 686.65 537.4
Q 675 526.65 662.15 517.25 649.65 508.1 636.25 500.65
L 636.2 500.6
Q 623.05 493.4 609 487.95
L 609.05 487.95
Q 595 482.4 580.45 478.8 565.7 475.1 550.7 473.25
L 550.65 473.25
Q 543.9 472.5 537.15 472.05 548.75 457.85 562.15 445.5 575.45 433.25 592.95 428.05 607.75 423.9 623.05 426.2 637.1 428.25 650.15 433.7 661.3 438.3 671.05 445.25 681.4 452.55 690.85 460.95 700.35 469.2 709.2 478.3
L 709.25 478.3
Q 718 487.25 725.75 497
L 725.75 496.95
Q 733.35 506.55 740.8 516 751.9 530.15 765.5 541.6 770.8 546.05 776.85 548.9
L 776.8 548.9
Q 787.2 553.95 798.55 551.75
L 798.6 551.75
Q 804.55 550.35 809.4 546.9 819.1 539.9 823.4 528.6 826.9 519.3 824.55 509.75 822.2 500.45 816.6 492.5 809.6 482.75 800.45 475.05
L 800.5 475.05
Q 790.25 466.4 780.4 457.25 775.75 452.85 771.8 447.75 772.3 433.45 774.55 419.45 777.55 400.4 786.45 383.55
L 849.55 447.7
M 742.5 234.3
Q 741.8 233.65 740.85 233.6 731.75 233.2 722.75 232.35
L 722.8 232.4
Q 708.05 230.7 693.55 227.25 679.3 223.8 665.55 218.6
L 665.55 218.55
Q 651.7 213.35 638.8 206.45 625.55 199.25 613.25 190.45 600.5 181.3 588.95 170.8 576.85 159.8 565.4 148.1 554.7 137.2 542.45 127.95 529.5 118.3 514.7 112.25 499.65 106.15 483.4 105.95 465.9 105.7 450 112.65 435.5 119 424.75 128.2 416.65 135.2 411.4 142.35 401.35 155.9 396.4 172.3 389.85 194.1 393.65 216.6 396.5 233.4 404.7 248.45 410.95 260 420.05 269.5
L 486.25 335.4
Q 486.8 335.95 487.6 336.1 488.35 336.2 489.1 335.85 489.8 335.5 490.2 334.8 500.65 315.8 503.9 294.2 506.05 279.4 506.4 264.35 506.4 263.45 505.9 262.8 501.4 256.95 496.05 252.05 486 242.9 475.6 234.3 466.85 227.05 460.15 217.9 455 210.8 452.85 202.45 450.7 194.4 453.6 186.55 457.25 176.55 465.65 170.35
L 465.65 170.4
Q 469.65 167.4 474.65 166.25
L 474.55 166.25
Q 484.2 164.25 493.15 168.5
L 493.15 168.55
Q 498.65 171.1 503.45 175.1 516.8 186.05 527.75 199.7 535.3 209.05 543.1 218.6 551.1 228.4 560.15 237.5 569.2 246.6 578.95 254.9 588.65 263.35 599.35 270.65 609.6 277.8 621.35 282.55 635 288.05 649.7 290.1 666.05 292.35 681.85 287.7
L 681.9 287.7
Q 700.45 282.05 714.5 268.85 729.75 254.35 742.75 237.65 743.3 236.85 743.25 235.95 743.2 234.95 742.5 234.3
M 722.25 237.35
L 722.3 237.35
Q 729 238 735.8 238.35 724.3 252.6 711.05 265.2 697.85 277.55 680.45 282.9 665.65 287.25 650.4 285.15 636.3 283.15 623.2 277.9 612 273.4 602.2 266.55 591.75 259.35 582.2 251.1 572.6 242.9 563.7 233.95 554.8 225 546.95 215.45 539.2 205.95 531.65 196.55 520.4 182.55 506.65 171.25 501.35 166.8 495.25 164
L 495.3 164
Q 484.8 159.05 473.55 161.35 473.5 161.35 473.5 161.4 467.55 162.8 462.7 166.35 453.05 173.45 448.9 184.85 445.5 194.2 448 203.7 450.4 213 456.1 220.85 463.15 230.55 472.4 238.15 482.7 246.7 492.7 255.75 497.4 260.05 501.4 265.15 501 279.4 498.95 293.45 496.1 312.5 487.4 329.45
L 423.65 266 423.65 266.05
Q 415.05 257 409.1 246.05 401.3 231.7 398.6 215.75 394.95 194.4 401.2 173.75 405.95 158.2 415.45 145.3
L 415.4 145.3
Q 420.35 138.6 428 132 438.2 123.3 452 117.25 466.9 110.7 483.35 110.95 498.65 111.15 512.85 116.9
L 512.8 116.9
Q 527 122.7 539.45 131.95 551.4 141 561.85 151.6 573.35 163.4 585.6 174.5 597.4 185.2 610.35 194.5 622.85 203.45 636.4 210.85
L 636.45 210.85
Q 649.6 217.95 663.8 223.25
L 663.75 223.25
Q 677.8 228.6 692.4 232.1 707.15 235.6 722.25 237.35
M 477.05 383.2
L 477.05 383.25
Q 467.75 395.8 457.05 407.2 445.8 419.15 433.95 430.4 422.9 440.85 413.45 452.95
L 413.45 453
Q 403.6 465.75 397.25 480.45
L 397.25 480.5
Q 390.9 495.4 390.45 511.7 389.9 529.1 396.6 545.15 402.7 559.75 411.75 570.65 418.6 578.9 425.65 584.25 439 594.45 455.35 599.75 477.05 606.65 499.6 603.25 516.45 600.6 531.6 592.7 543.3 586.6 552.9 577.7 552.9 577.65 552.95 577.65
L 619.85 512.65
Q 620.4 512.1 620.55 511.3 620.7 510.5 620.4 509.8 620.05 509.1 619.35 508.7 600.55 497.85 578.95 494.3 564.25 491.9 549.2 491.3 548.3 491.25 547.6 491.8 541.75 496.15 536.75 501.45 527.45 511.35 518.65 521.55 511.3 530.2 501.95 536.75
L 502 536.75
Q 494.85 541.75 486.45 543.8
L 486.4 543.8
Q 478.35 545.8 470.55 542.8 460.6 538.95 454.55 530.5 451.7 526.4 450.6 521.4
L 450.6 521.45
Q 448.75 511.85 453.15 502.95 455.8 497.5 459.9 492.8 471.1 479.55 484.9 468.9 494.4 461.5 504.05 453.9
L 504.05 453.85
Q 514 446 523.25 437.1 532.5 428.2 541 418.6
L 541 418.65
Q 549.55 409.05 557.05 398.5
L 557.05 398.45
Q 564.4 388.3 569.3 376.7 574.95 363.1 577.3 348.4 579.8 332.1 575.4 316.3 570.1 297.6 557.1 283.4
L 557.1 283.35
Q 542.85 267.8 526.45 254.55 525.65 253.95 524.75 254 523.8 254.05 523.1 254.75 522.4 255.4 522.35 256.35 521.8 265.4 520.85 274.45 518.9 289.1 515.2 303.6 511.5 317.75 506.1 331.4 500.65 345.15 493.55 357.95 486.05 371.1 477.05 383.2
M 525.8 275.1
L 525.8 275.05
Q 526.5 268.3 527.05 261.55 541.05 273.25 553.4 286.75 565.6 300.1 570.6 317.65 574.7 332.4 572.35 347.65 570.15 361.7 564.7 374.75 560 385.8 553 395.55
L 552.95 395.55
Q 545.65 405.9 537.25 415.3 528.9 424.7 519.8 433.5 510.7 442.2 500.95 449.95 491.3 457.55 481.85 464.95 467.65 475.9 456.15 489.5
L 456.1 489.55
Q 451.6 494.7 448.65 500.75 443.55 511.15 445.7 522.4
L 445.7 522.45
Q 447 528.4 450.45 533.35
L 450.5 533.35
Q 457.4 543.05 468.75 547.45 478.05 551 487.6 548.65 496.95 546.35 504.85 540.85 514.7 533.9 522.45 524.8 531.15 514.7 540.35 504.9
L 540.4 504.85
Q 544.75 500.25 549.9 496.35 564.2 496.95 578.15 499.25 597.2 502.35 613.95 511.4
L 549.45 574.05 549.5 574.05
Q 540.4 582.5 529.3 588.25 514.85 595.8 498.85 598.3 477.45 601.55 456.85 595
L 456.9 595
Q 441.4 589.95 428.7 580.25
L 428.65 580.25
Q 422 575.2 415.6 567.45 407 557.05 401.2 543.2 394.9 528.2 395.45 511.85 395.9 496.5 401.85 482.45 407.9 468.35 417.4 456.05 426.6 444.25 437.4 434.05 449.4 422.65 460.7 410.6 471.55 399 481.05 386.2 490.25 373.8 497.9 360.4 505.15 347.35 510.75 333.25 516.3 319.35 520.05 304.85 523.8 290.1 525.8 275.1
M 848.65 126.55
Q 835.25 116.25 818.95 111.05 797.25 104.05 774.7 107.45 757.8 110 742.6 117.95 730.95 124 721.3 132.95
L 721.25 132.95 654.25 197.9
Q 653.7 198.45 653.55 199.25 653.4 200.05 653.75 200.75 654.05 201.45 654.75 201.9 673.55 212.7 695.15 216.35 709.85 218.75 724.9 219.35 725.8 219.4 726.5 218.85 732.35 214.5 737.35 209.25
L 737.4 209.25
Q 746.7 199.35 755.55 189.1 762.9 180.45 772.2 173.9 779.35 168.9 787.8 166.9 795.85 164.9 803.65 167.95 813.55 171.75 819.6 180.25 822.45 184.35 823.6 189.25 825.4 198.95 821 207.8
L 820.95 207.8
Q 818.3 213.25 814.2 218.05 803 231.2 789.25 241.9 779.65 249.2 770 256.85 760.05 264.7 750.85 273.55 741.55 282.45 733.1 292.05 724.45 301.6 716.95 312.15 709.6 322.25 704.7 333.9 698.95 347.5 696.65 362.15
L 696.65 362.2
Q 694.05 378.45 698.45 394.4 703.75 413.05 716.7 427.3 730.95 442.85 747.4 456.1 748.1 456.7 749.1 456.65 750 456.6 750.7 455.95 751.4 455.25 751.45 454.35 752.05 445.25 753.05 436.3 754.95 421.55 758.7 407.15 762.4 392.95 767.9 379.3 773.3 365.5 780.45 352.75 787.9 339.65 796.9 327.5 806.25 314.9 817 303.5
L 817 303.55
Q 828.2 291.7 840.15 280.45 851.15 269.95 860.7 257.85 870.5 245.05 876.85 230.4 883.2 215.45 883.65 199.2 884.2 181.7 877.6 165.65 871.5 151.05 861.65 139.15 855.65 131.95 848.65 126.55
M 817.4 115.8
Q 832.85 120.75 845.6 130.5 852.15 135.55 857.8 142.35 867.2 153.65 873 167.6
L 873 167.55
Q 879.2 182.6 878.65 199.05 878.2 214.35 872.25 228.45
L 872.25 228.4
Q 866.2 242.45 856.75 254.8
L 856.75 254.75
Q 847.45 266.55 836.7 276.8 824.6 288.1 813.35 300.1 802.45 311.7 792.9 324.5 783.7 336.85 776.1 350.25
L 776.1 350.3
Q 768.8 363.3 763.25 377.45 757.6 391.35 753.85 405.9 750.05 420.55 748.1 435.65
L 748.1 435.7
Q 747.35 442.4 746.8 449.15 732.75 437.4 720.4 423.9
L 720.4 423.95
Q 708.25 410.55 703.25 393.05 699.15 378.15 701.6 362.95 703.75 348.9 709.3 335.85 714 324.75 721 315.1
L 721 315.05
Q 728.35 304.7 736.8 295.4
L 736.85 295.35
Q 745.15 285.95 754.3 277.15 763.35 268.5 773.1 260.75
L 773.1 260.8
Q 782.75 253.2 792.3 245.85 806.5 234.8 818 221.3 822.5 216.05 825.45 210
L 825.45 210.05
Q 830.6 199.65 828.5 188.35 828.5 188.3 828.5 188.25 827.1 182.3 823.7 177.4
L 823.7 177.35
Q 816.75 167.65 805.45 163.3 796.15 159.7 786.65 162.05
L 786.6 162.05
Q 777.25 164.3 769.35 169.8
L 769.3 169.8
Q 759.5 176.75 751.75 185.85 743 195.95 733.75 205.8 729.35 210.4 724.25 214.35 709.9 213.7 695.95 211.4 676.95 208.2 660.2 199.15
L 724.75 136.55
Q 733.8814453125 128.0837890625 744.9 122.4 759.4 114.8 775.45 112.4 796.85 109.15 817.4 115.8 Z"/>

<path fill="url(#Gradient_2)" stroke="none" d="
M 849.5 447.7
L 849.55 447.7 786.45 383.55
Q 777.55 400.4 774.55 419.45 772.3 433.45 771.8 447.75 775.75 452.85 780.4 457.25 790.25 466.4 800.5 475.05
L 800.45 475.05
Q 809.6 482.75 816.6 492.5 822.2 500.45 824.55 509.75 826.9 519.3 823.4 528.6 819.1 539.9 809.4 546.9 804.55 550.35 798.6 551.75
L 798.55 551.75
Q 787.2 553.95 776.8 548.9
L 776.85 548.9
Q 770.8 546.05 765.5 541.6 751.9 530.15 740.8 516 733.35 506.55 725.75 496.95
L 725.75 497
Q 718 487.25 709.25 478.3
L 709.2 478.3
Q 700.35 469.2 690.85 460.95 681.4 452.55 671.05 445.25 661.3 438.3 650.15 433.7 637.1 428.25 623.05 426.2 607.75 423.9 592.95 428.05 575.45 433.25 562.15 445.5 548.75 457.85 537.15 472.05 543.9 472.5 550.65 473.25
L 550.7 473.25
Q 565.7 475.1 580.45 478.8 595 482.4 609.05 487.95
L 609 487.95
Q 623.05 493.4 636.2 500.6
L 636.25 500.65
Q 649.65 508.1 662.15 517.25 675 526.65 686.65 537.4
L 686.65 537.45
Q 698.75 548.65 710.2 560.6 720.45 571.3 732.3 580.5
L 732.3 580.45
Q 744.6 589.85 758.8 595.85
L 758.75 595.85
Q 772.85 601.7 788.2 602.05
L 788.25 602.05
Q 804.65 602.5 819.6 596.1 833.45 590.2 843.75 581.6 851.45 575.1 856.45 568.45 866.1 555.65 871 540.15 877.45 519.55 874.1 498.25 871.5 482.2 863.85 467.8 858.05 456.8 849.5 447.7
M 722.3 237.35
L 722.25 237.35
Q 707.15 235.6 692.4 232.1 677.8 228.6 663.75 223.25
L 663.8 223.25
Q 649.6 217.95 636.45 210.85
L 636.4 210.85
Q 622.85 203.45 610.35 194.5 597.4 185.2 585.6 174.5 573.35 163.4 561.85 151.6 551.4 141 539.45 131.95 527 122.7 512.8 116.9
L 512.85 116.9
Q 498.65 111.15 483.35 110.95 466.9 110.7 452 117.25 438.2 123.3 428 132 420.35 138.6 415.4 145.3
L 415.45 145.3
Q 405.95 158.2 401.2 173.75 394.95 194.4 398.6 215.75 401.3 231.7 409.1 246.05 415.05 257 423.65 266.05
L 423.65 266 487.4 329.45
Q 496.1 312.5 498.95 293.45 501 279.4 501.4 265.15 497.4 260.05 492.7 255.75 482.7 246.7 472.4 238.15 463.15 230.55 456.1 220.85 450.4 213 448 203.7 445.5 194.2 448.9 184.85 453.05 173.45 462.7 166.35 467.55 162.8 473.5 161.4 473.5 161.35 473.55 161.35 484.8 159.05 495.3 164
L 495.25 164
Q 501.35 166.8 506.65 171.25 520.4 182.55 531.65 196.55 539.2 205.95 546.95 215.45 554.8 225 563.7 233.95 572.6 242.9 582.2 251.1 591.75 259.35 602.2 266.55 612 273.4 623.2 277.9 636.3 283.15 650.4 285.15 665.65 287.25 680.45 282.9 697.85 277.55 711.05 265.2 724.3 252.6 735.8 238.35 729 238 722.3 237.35
M 525.8 275.05
L 525.8 275.1
Q 523.8 290.1 520.05 304.85 516.3 319.35 510.75 333.25 505.15 347.35 497.9 360.4 490.25 373.8 481.05 386.2 471.55 399 460.7 410.6 449.4 422.65 437.4 434.05 426.6 444.25 417.4 456.05 407.9 468.35 401.85 482.45 395.9 496.5 395.45 511.85 394.9 528.2 401.2 543.2 407 557.05 415.6 567.45 422 575.2 428.65 580.25
L 428.7 580.25
Q 441.4 589.95 456.9 595
L 456.85 595
Q 477.45 601.55 498.85 598.3 514.85 595.8 529.3 588.25 540.4 582.5 549.5 574.05
L 549.45 574.05 613.95 511.4
Q 597.2 502.35 578.15 499.25 564.2 496.95 549.9 496.35 544.75 500.25 540.4 504.85
L 540.35 504.9
Q 531.15 514.7 522.45 524.8 514.7 533.9 504.85 540.85 496.95 546.35 487.6 548.65 478.05 551 468.75 547.45 457.4 543.05 450.5 533.35
L 450.45 533.35
Q 447 528.4 445.7 522.45
L 445.7 522.4
Q 443.55 511.15 448.65 500.75 451.6 494.7 456.1 489.55
L 456.15 489.5
Q 467.65 475.9 481.85 464.95 491.3 457.55 500.95 449.95 510.7 442.2 519.8 433.5 528.9 424.7 537.25 415.3 545.65 405.9 552.95 395.55
L 553 395.55
Q 560 385.8 564.7 374.75 570.15 361.7 572.35 347.65 574.7 332.4 570.6 317.65 565.6 300.1 553.4 286.75 541.05 273.25 527.05 261.55 526.5 268.3 525.8 275.05
M 845.6 130.5
Q 832.85 120.75 817.4 115.8 796.85 109.15 775.45 112.4 759.4 114.8 744.9 122.4 733.8814453125 128.0837890625 724.75 136.55
L 660.2 199.15
Q 676.95 208.2 695.95 211.4 709.9 213.7 724.25 214.35 729.35 210.4 733.75 205.8 743 195.95 751.75 185.85 759.5 176.75 769.3 169.8
L 769.35 169.8
Q 777.25 164.3 786.6 162.05
L 786.65 162.05
Q 796.15 159.7 805.45 163.3 816.75 167.65 823.7 177.35
L 823.7 177.4
Q 827.1 182.3 828.5 188.25 828.5 188.3 828.5 188.35 830.6 199.65 825.45 210.05
L 825.45 210
Q 822.5 216.05 818 221.3 806.5 234.8 792.3 245.85 782.75 253.2 773.1 260.8
L 773.1 260.75
Q 763.35 268.5 754.3 277.15 745.15 285.95 736.85 295.35
L 736.8 295.4
Q 728.35 304.7 721 315.05
L 721 315.1
Q 714 324.75 709.3 335.85 703.75 348.9 701.6 362.95 699.15 378.15 703.25 393.05 708.25 410.55 720.4 423.95
L 720.4 423.9
Q 732.75 437.4 746.8 449.15 747.35 442.4 748.1 435.7
L 748.1 435.65
Q 750.05 420.55 753.85 405.9 757.6 391.35 763.25 377.45 768.8 363.3 776.1 350.3
L 776.1 350.25
Q 783.7 336.85 792.9 324.5 802.45 311.7 813.35 300.1 824.6 288.1 836.7 276.8 847.45 266.55 856.75 254.75
L 856.75 254.8
Q 866.2 242.45 872.25 228.4
L 872.25 228.45
Q 878.2 214.35 878.65 199.05 879.2 182.6 873 167.55
L 873 167.6
Q 867.2 153.65 857.8 142.35 852.15 135.55 845.6 130.5 Z"/>
</g>

<g id="Layer1_0_MEMBER_1_FILL">
<path fill="url(#Gradient_3)" stroke="none" d="
M 487.4 329.45
Q 496.05 312.6 498.9 293.65 473.6 289.2 449.1 291.35
L 487.4 329.45
M 521.5 298.85
Q 520.8 301.85 520.05 304.85 516.3 319.35 510.75 333.25 505.15 347.35 497.9 360.4 490.25 373.8 481.05 386.2 471.55 399 460.7 410.6 449.4 422.65 437.4 434.05 426.6 444.25 417.4 456.05 407.9 468.35 401.85 482.45 395.9 496.5 395.45 511.85 394.9 528.2 401.2 543.2 407 557.05 415.6 567.45 422 575.2 428.65 580.25
L 428.7 580.25
Q 441.4 589.95 456.9 595
L 456.85 595
Q 477.45 601.55 498.85 598.3 514.85 595.8 529.3 588.25 540.4 582.5 549.5 574.05
L 549.45 574.05 613.95 511.4
Q 597.2 502.35 578.15 499.25 564.2 496.95 549.9 496.35 544.75 500.25 540.4 504.85
L 540.35 504.9
Q 531.15 514.7 522.45 524.8 514.7 533.9 504.85 540.85 496.95 546.35 487.6 548.65 478.05 551 468.75 547.45 457.4 543.05 450.5 533.35
L 450.45 533.35
Q 447 528.4 445.7 522.45
L 445.7 522.4
Q 443.55 511.15 448.65 500.75 451.6 494.7 456.1 489.55
L 456.15 489.5
Q 467.65 475.9 481.85 464.95 491.3 457.55 500.95 449.95 510.7 442.2 519.8 433.5 528.9 424.7 537.25 415.3 545.65 405.9 552.95 395.55
L 553 395.55
Q 560 385.8 564.7 374.75 570.15 361.7 572.35 347.65 574.6 333 570.9 318.8 545.85 305.85 521.5 298.85
M 849.5 447.7
L 849.55 447.7 786.45 383.55
Q 777.55 400.4 774.55 419.45 772.3 433.45 771.8 447.75 775.75 452.85 780.4 457.25 790.25 466.4 800.5 475.05
L 800.45 475.05
Q 809.6 482.75 816.6 492.5 822.2 500.45 824.55 509.75 826.9 519.3 823.4 528.6 819.1 539.9 809.4 546.9 804.55 550.35 798.6 551.75
L 798.55 551.75
Q 787.2 553.95 776.8 548.9
L 776.85 548.9
Q 770.8 546.05 765.5 541.6 751.9 530.15 740.8 516 733.35 506.55 725.75 496.95
L 725.75 497
Q 718 487.25 709.25 478.3
L 709.2 478.3
Q 700.35 469.2 690.85 460.95 681.4 452.55 671.05 445.25 661.3 438.3 650.15 433.7 637.1 428.25 623.05 426.2 607.75 423.9 592.95 428.05 575.45 433.25 562.15 445.5 548.75 457.85 537.15 472.05 543.9 472.5 550.65 473.25
L 550.7 473.25
Q 565.7 475.1 580.45 478.8 595 482.4 609.05 487.95
L 609 487.95
Q 623.05 493.4 636.2 500.6
L 636.25 500.65
Q 649.65 508.1 662.15 517.25 675 526.65 686.65 537.4
L 686.65 537.45
Q 698.75 548.65 710.2 560.6 720.45 571.3 732.3 580.5
L 732.3 580.45
Q 744.6 589.85 758.8 595.85
L 758.75 595.85
Q 772.85 601.7 788.2 602.05
L 788.25 602.05
Q 804.65 602.5 819.6 596.1 833.45 590.2 843.75 581.6 851.45 575.1 856.45 568.45 866.1 555.65 871 540.15 877.45 519.55 874.1 498.25 871.5 482.2 863.85 467.8 858.05 456.8 849.5 447.7
M 702.7 356.9
Q 702.05 359.9 701.6 362.95 699.15 378.15 703.25 393.05 708.25 410.55 720.4 423.95
L 720.4 423.9
Q 732.75 437.4 746.8 449.15 747.35 442.4 748.1 435.7
L 748.1 435.65
Q 750.05 420.55 753.85 405.9 757.6 391.35 763.25 377.45 768.8 363.3 776.1 350.3
L 776.1 350.25
Q 781.9 340 788.65 330.4 745.95 354.05 702.7 356.9 Z"/>
</g>
</defs>

<g transform="matrix( 1, 0, 0, 1, 0,0) ">
<use xlink:href="#Layer2_0_FILL"/>
</g>

<g transform="matrix( 1, 0, 0, 1, 0,0) ">
<use xlink:href="#Layer1_0_MEMBER_0_FILL"/>
</g>

<g transform="matrix( 1, 0, 0, 1, 0,0) ">
<use xlink:href="#Layer1_0_MEMBER_1_FILL"/>
</g>
</svg>
