
<svg xmlns="http://www.w3.org/2000/svg" version="1.1" xmlns:xlink="http://www.w3.org/1999/xlink" preserveAspectRatio="none" x="0px" y="0px" width="1280px" height="720px" viewBox="0 0 1280 720">
<defs>
<radialGradient id="Gradient_1" gradientUnits="userSpaceOnUse" cx="0" cy="0" r="303.6" fx="0" fy="0" gradientTransform="matrix( 1, 0, 0, 1, 639.9,360.45) " spreadMethod="pad">
<stop  offset="0%" stop-color="#032323"/>

<stop  offset="100%" stop-color="#03BEBE"/>
</radialGradient>

<radialGradient id="Gradient_2" gradientUnits="userSpaceOnUse" cx="0" cy="0" r="303.6" fx="0" fy="0" gradientTransform="matrix( 1, 0, 0, 1, 639.9,360.45) " spreadMethod="pad">
<stop  offset="0%" stop-color="#059696"/>

<stop  offset="100%" stop-color="#030808"/>
</radialGradient>

<radialGradient id="Gradient_3" gradientUnits="userSpaceOnUse" cx="0" cy="0" r="223.14999999999998" fx="0" fy="0" gradientTransform="matrix( 1.0000000000000002, 0, 0, 1.0000000000000002, 639.9,360.45) " spreadMethod="pad">
<stop  offset="0%" stop-color="#069999"/>

<stop  offset="100%" stop-color="#0D1010"/>
</radialGradient>

<radialGradient id="Gradient_4" gradientUnits="userSpaceOnUse" cx="0" cy="0" r="223.14999999999998" fx="0" fy="0" gradientTransform="matrix( 1.0000000000000002, 0, 0, 1.0000000000000002, 639.9,360.45) " spreadMethod="pad">
<stop  offset="0%" stop-color="#0FFFFF" stop-opacity="0.14901960784313725"/>

<stop  offset="100%" stop-color="#00FFFF" stop-opacity="0"/>
</radialGradient>

<g id="Layer3_0_FILL">
<path fill="url(#Gradient_1)" stroke="none" d="
M 891.55 360.4
Q 891.55 256.1 817.85 182.4 744.15 108.7 639.9 108.7 535.65 108.7 461.95 182.4 388.25 256.1 388.25 360.4 388.25 464.65 461.95 538.35 535.65 612.05 639.9 612.05 744.15 612.05 817.85 538.35 891.55 464.65 891.55 360.4
M 810.25 190.05
Q 880.8 260.6 880.8 360.4 880.8 460.2 810.25 530.75 739.75 601.3 639.95 601.3 540.15 601.3 469.6 530.75 399.05 460.2 399.05 360.4 399.05 260.6 469.6 190.05 540.15 119.5 639.95 119.5 739.75 119.5 810.25 190.05 Z"/>

<path fill="url(#Gradient_2)" stroke="none" d="
M 880.8 360.4
Q 880.8 260.6 810.25 190.05 739.75 119.5 639.95 119.5 540.15 119.5 469.6 190.05 399.05 260.6 399.05 360.4 399.05 460.2 469.6 530.75 540.15 601.3 639.95 601.3 739.75 601.3 810.25 530.75 880.8 460.2 880.8 360.4
M 796.45 203.85
Q 861.3 268.7 861.3 360.45 861.3 452.15 796.45 517 731.65 581.85 639.9 581.85 548.2 581.85 483.35 517 418.5 452.15 418.5 360.45 418.5 268.7 483.35 203.85 548.2 139 639.9 139 731.65 139 796.45 203.85 Z"/>

<path fill="url(#Gradient_3)" stroke="none" d="
M 861.3 360.45
Q 861.3 268.7 796.45 203.85 731.65 139 639.9 139 548.2 139 483.35 203.85 418.5 268.7 418.5 360.45 418.5 452.15 483.35 517 548.2 581.85 639.9 581.85 731.65 581.85 796.45 517 861.3 452.15 861.3 360.45 Z"/>
</g>

<g id="Layer2_0_FILL">
<path fill="url(#Gradient_4)" stroke="none" d="
M 878.95 328.85
Q 869.38359375 249.18359375 810.25 190.05 739.75 119.5 639.95 119.5 540.15 119.5 469.6 190.05 399.05 260.6 399.05 360.4 399.05 383.8849609375 402.95 405.75 545.107421875 453.634765625 645.45 369.8 745.8041015625 286.0162109375 878.95 328.85 Z"/>
</g>

<g id="Layer1_0_FILL">
<path fill="#0FFFFF" stroke="none" d="
M 688.3 481.95
L 761.75 481.95 678 349.3 457.15 524.85 645.95 423.1 688.3 481.95
M 517.7 238.75
L 601.45 371.4 822.3 195.85 633.5 297.6 591.15 238.75 517.7 238.75 Z"/>
</g>
</defs>

<g transform="matrix( 1.336181640625, 0, 0, 1.336181640625, -215.1,-121.1) ">
<use xlink:href="#Layer3_0_FILL"/>
</g>

<g transform="matrix( 1.336181640625, 0, 0, 1.336181640625, -215.1,-121.1) ">
<use xlink:href="#Layer2_0_FILL"/>
</g>

<g transform="matrix( 1.2011566162109375, 0, 0, 1.2011566162109375, -128.7,-72.35) ">
<use xlink:href="#Layer1_0_FILL"/>
</g>
</svg>
