<?xml version="1.0" encoding="UTF-8"?>
<svg id="Layer_1" data-name="Layer 1" xmlns="http://www.w3.org/2000/svg" viewBox="0 0 250 250">
  <defs>
    <style>
      .cls-1 {
        fill: #ed1f7a;
      }

      .cls-2 {
        fill: #050606;
      }
    </style>
  </defs>
  <path class="cls-2" d="m125,2.15C55.97,2.15,0,57.15,0,125c0,42.85,22.32,80.57,56.16,102.55,2.46,1.61,4.99,3.12,7.57,4.55.79.44,1.59.88,2.4,1.29,4.9,2.58,9.98,4.84,15.24,6.77,13.58,4.97,28.28,7.69,43.63,7.69,17.24,0,33.67-3.43,48.61-9.63,3.33-1.39,6.59-2.91,9.77-4.57,3.13-1.62,6.18-3.38,9.15-5.25,2.3-1.46,4.54-2.98,6.73-4.57,30.78-22.38,50.74-58.31,50.74-98.83C250,57.15,194.03,2.15,125,2.15Zm41.27,170.3l-38.2-37.54-37.25,36.61c-2.41,1.1-4.77,2.32-7.09,3.66l-28.48,16.36,16.81-27.9c4.15-6.88,7.23-14.17,9.24-21.67l17.26-16.97-14.95-14.7c-1.57-13.35-6.36-26.41-14.33-37.99l-15.35-22.3,22.66,15.07c3.74,2.49,7.64,4.67,11.65,6.52l39.83,39.15,42.73-43.35,1.33-1.07,25.82-15.03-16.66,27.99c-5.79,9.73-9.45,20.29-11.01,31.06l-12.7,12.48,12.87,12.65c1.96,12.45,6.73,24.54,14.29,35.32l17.47,24.93-25.41-17.18c-3.39-2.3-6.91-4.33-10.53-6.1Z"/>
  <path class="cls-1" d="m202.21,195.73l-25.41-17.18c-3.39-2.3-6.91-4.33-10.53-6.1l-38.2-37.54-37.25,36.61c-2.41,1.1-4.77,2.32-7.09,3.66l-28.48,16.36,16.81-27.9c4.15-6.88,7.23-14.17,9.24-21.67l17.26-16.97-14.95-14.7c-1.57-13.35-6.36-26.41-14.33-37.99l-15.35-22.3,22.66,15.07c3.74,2.49,7.64,4.67,11.65,6.52l39.83,39.15,42.73-43.35,1.33-1.07,25.82-15.03-16.66,27.99c-5.79,9.73-9.45,20.29-11.01,31.06l-12.7,12.48,12.87,12.65c1.96,12.45,6.73,24.54,14.29,35.32l17.47,24.93Z"/>
</svg>