<?xml version="1.0" encoding="utf-8"?>
<!-- Generator: Adobe Illustrator 26.2.1, SVG Export Plug-In . SVG Version: 6.00 Build 0)  -->
<svg version="1.1" id="Layer_1" xmlns="http://www.w3.org/2000/svg" xmlns:xlink="http://www.w3.org/1999/xlink" x="0px" y="0px"
	 viewBox="0 0 500 500" style="enable-background:new 0 0 500 500;" xml:space="preserve">
<style type="text/css">
	.st0{fill:#0DB9CB;}
</style>
<g>
	<g>
		<path class="st0" d="M309.9,170.5c6,13.2,9.3,27.6,9.3,42.7c0,0.5,0.1,0.9,0.1,1.4l49.5-44v-52.5L309.9,170.5z"/>
		<path class="st0" d="M303.5,213.3c0-52.4-46.9-95.1-104.5-95.1v39.2c35.2,0,63.9,23.9,65.2,53.7l-26.7,23.7
			c7.1,12.4,11.7,26.1,13.3,40.7l23.8-21.1c16.9,31.9,52.8,53.9,94.2,53.9v-39.2C332.8,269.1,303.5,244,303.5,213.3z"/>
		<path class="st0" d="M301,381.5v-39.2c-36,0-65.3-25-65.3-55.8c0-52.4-46.9-95.1-104.5-95.1v39.2c30.6,0,56.3,18.1,63.3,42.4
			l-63.3,56.3v52.5l71.4-63.4C217,355.1,255.7,381.5,301,381.5z"/>
	</g>
</g>
</svg>
