<?xml version="1.0" encoding="UTF-8" standalone="no"?>
<svg
   version="1.1"
   id="Layer_1"
   x="0px"
   y="0px"
   width="100%"
   viewBox="0 0 257 256"
   enable-background="new 0 0 257 256"
   xml:space="preserve"
   sodipodi:docname="Logo_black_green_bg.svg"
   inkscape:version="1.4.2 (ebf0e940d0, 2025-05-08)"
   xmlns:inkscape="http://www.inkscape.org/namespaces/inkscape"
   xmlns:sodipodi="http://sodipodi.sourceforge.net/DTD/sodipodi-0.dtd"
   xmlns="http://www.w3.org/2000/svg"
   xmlns:svg="http://www.w3.org/2000/svg"><defs
   id="defs7" /><sodipodi:namedview
   id="namedview7"
   pagecolor="#ffffff"
   bordercolor="#000000"
   borderopacity="0.25"
   inkscape:showpageshadow="2"
   inkscape:pageopacity="0.0"
   inkscape:pagecheckerboard="0"
   inkscape:deskcolor="#d1d1d1"
   inkscape:zoom="3.2734375"
   inkscape:cx="128.61098"
   inkscape:cy="128"
   inkscape:window-width="1920"
   inkscape:window-height="1043"
   inkscape:window-x="0"
   inkscape:window-y="0"
   inkscape:window-maximized="1"
   inkscape:current-layer="Layer_1" />





<rect
   style="fill:#b5ffa5;stroke-width:0;stroke-dasharray:none;paint-order:markers fill stroke"
   id="rect7"
   width="256.30548"
   height="256.30548"
   x="0"
   y="0"
   ry="43.379475" /><path
   fill="#040514"
   opacity="1.000000"
   stroke="none"
   d=" M127.999947,74.842789   C117.039299,74.842789 106.578659,74.842789 95.532257,74.842789   C95.532257,88.585754 95.532257,101.945198 95.532257,116.606934   C86.060043,106.145813 78.039864,96.133377 68.797745,87.416519   C60.111893,79.224304 56.122227,70.225082 57.893856,58.397907   C58.523682,54.193260 57.994686,49.815033 57.994686,45.259079   C105.876648,45.259079 153.427795,45.259079 201.502304,45.259079   C201.502304,54.762997 201.603714,64.221008 201.392410,73.672028   C201.360901,75.080841 200.062515,76.638756 199.006058,77.819839   C188.135208,89.973038 177.225510,102.092117 166.222626,114.125610   C165.104279,115.348724 163.320724,116.694450 161.822052,116.722740   C150.392380,116.938530 138.956787,116.841026 126.270851,116.841026   C139.066177,102.628922 151.113205,89.247978 164.082367,74.842789   C151.527649,74.842789 140.013809,74.842789 127.999947,74.842789  z"
   id="path6" />
<path
   fill="#030413"
   opacity="1.000000"
   stroke="none"
   d=" M72.006844,213.003387   C67.201233,213.003387 62.893921,213.003387 58.019592,213.003387   C58.019592,203.151917 57.985409,193.555481 58.078327,183.960281   C58.086613,183.104935 58.769188,182.121536 59.393517,181.426636   C71.061386,168.439819 82.767891,155.487732 95.271034,141.636887   C95.271034,155.815292 95.271034,168.962906 95.271034,182.463806   C118.079712,182.463806 140.270493,182.463806 163.433945,182.463806   C151.299835,168.978683 139.589584,155.964600 127.020996,141.996613   C132.679337,141.996613 137.377487,141.980911 142.075516,142.000214   C149.569580,142.031006 158.060547,139.898758 164.281158,142.735443   C170.684814,145.655609 174.890961,153.415131 180.029724,159.083359   C186.289032,165.987595 192.654800,172.803741 198.666229,179.918488   C200.210526,181.746216 201.297150,184.525681 201.388580,186.914062   C201.712555,195.377060 201.514893,203.860016 201.514893,213.003387   C158.293304,213.003387 115.399223,213.003387 72.006844,213.003387  z"
   id="path7" />
</svg>
