<svg viewBox="0 0 250 250" xmlns="http://www.w3.org/2000/svg">
    <path fill="#2d374b" d="M0 0h250v250H0z"/>
    <path d="M143.31 118.21l11.935-20.252 32.17 50.105.015 9.616-.105-66.169a4.986 4.986 0 00-2.305-3.971l-57.918-33.314c-1.354-.666-3.073-.658-4.425.021a4.933 4.933 0 00-.518.3l-.202.127-56.219 32.578-.218.1a5.089 5.089 0 00-.831.483 4.967 4.967 0 00-2.074 3.748l.088 53.921L92.668 99.06c3.772-6.158 11.992-8.143 19.623-8.034l8.955.236-52.767 84.623 6.22 3.581 53.399-88.118 23.603-.086-53.261 90.342 22.195 12.767 2.652 1.524a5.09 5.09 0 003.575.07l58.732-34.036-11.229 6.507zm4.553 65.585l-22.417-35.185 13.685-23.222 29.441 46.405z" fill="#2d374b"/>
    <path d="M125.45 148.61l22.418 35.184 20.708-12.001-29.441-46.405z" fill="#28a0f0"/>
    <path d="M187.43 157.68l-.015-9.616-32.17-50.105-11.935 20.252 31.056 50.226 11.229-6.507a4.977 4.977 0 001.838-3.623z" fill="#28a0f0"/>
    <path d="M52.623 166.74l15.857 9.137 52.767-84.623-8.955-.236c-7.63-.108-15.85 1.876-19.623 8.034l-29.965 46.443-10.081 15.489z" fill="#fff"/>
    <path d="M151.7 91.258l-23.603.086-53.399 88.118 18.665 10.746 5.075-8.608z" fill="#fff"/>
    <path d="M197.38 91.136c-.197-4.936-2.87-9.454-7.056-12.085l-58.677-33.744c-4.141-2.085-9.314-2.088-13.463-.001-.49.247-57.062 33.057-57.062 33.057-.783.375-1.537.822-2.246 1.33-3.737 2.679-6.015 6.841-6.25 11.413v69.883L62.707 145.5l-.088-53.922a4.967 4.967 0 012.074-3.748c.267-.19 57.804-33.496 57.987-33.588 1.353-.679 3.071-.687 4.425-.021l57.918 33.314a4.986 4.986 0 012.305 3.971v66.795c-.07 1.416-.63 2.729-1.731 3.623l-11.229 6.507-5.794 3.358-20.708 12.001-21.001 12.17a5.089 5.089 0 01-3.575-.07l-24.847-14.291-5.076 8.608 22.33 12.856c.738.42 1.396.792 1.936 1.096a49.86 49.86 0 001.607.88c1.587.771 3.87 1.219 5.928 1.219 1.886 0 3.726-.346 5.467-1.028l60.999-35.325c3.501-2.713 5.561-6.804 5.746-11.235z" fill="#96bedc"/>
</svg>
