<svg viewBox="0 0 64 64" xmlns="http://www.w3.org/2000/svg">
    <path fill="#fff" fill-rule="evenodd" d="M64 32C64 14.327 49.673 0 32 0 14.327 0 0 14.327 0 32c0 17.673 14.327 32 32 32 17.673 0 32-14.327 32-32Z"/>
    <path fill="#0f0f0f" d="M53.504 25.195s0-.01 0 0c-.043-.15-.075-.288-.117-.427a18.175 18.175 0 0 0-.416-1.29 20.843 20.843 0 0 0-7.947-10.273 18.847 18.847 0 0 0-1.248-.778c-.043-.032-.096-.054-.139-.086a1.628 1.628 0 0 0-.757-.192c-.587 0-1.11.32-1.376.8-.01.022-.021.032-.032.054v.01l-1.003 1.728-2.026 3.51-1.824 3.168-4.395 7.616-.139.245-.224.384a1.488 1.488 0 0 0-.117.619c0 .906.736 1.642 1.643 1.642.117 0 .245-.01.352-.032l.128-.032h.01l.075-.02.395-.108L42.9 29.44l3.52-.939 3.915-1.045 1.728-.459.544-.149c.544-.256.917-.8.917-1.44-.01-.085-.01-.15-.021-.213Zm-7.925.266-3.531.95-5.493 1.472 2.826-4.896 1.824-3.158 2.027-3.509a17.248 17.248 0 0 1 6.272 8.085l-3.925 1.056Z"/>
    <path fill="#ffa940" d="M43.99 35.37c0 .15-.022.3-.054.449l-.064.192c-1.696 5.322-6.688 9.184-12.576 9.184a13.3 13.3 0 0 1-5.27-1.088 12.956 12.956 0 0 1-2.73-1.611 13.41 13.41 0 0 1-2.293-2.24 9.381 9.381 0 0 1-.662-.907 13.374 13.374 0 0 1-1.322-2.506c-.384-.96-.651-1.984-.79-3.04A12.476 12.476 0 0 1 18.112 32c0-6.805 5.152-12.416 11.776-13.12.128-.01.256-.032.395-.032a1.814 1.814 0 0 1 1.664 2.485l-.256.438c-.278.373-.704.629-1.195.693-.043 0-.085.01-.128.01-4.843.47-8.64 4.566-8.64 9.537a9.33 9.33 0 0 0 .821 3.893c.139.31.288.608.459.896.32.555.693 1.067 1.12 1.547.31.352.65.682 1.013.98a9.54 9.54 0 0 0 6.176 2.262c4.267 0 7.883-2.794 9.12-6.645.022-.064.043-.128.064-.203a1.833 1.833 0 0 1 1.142-1.088c.064-.021.128-.032.192-.053a1.805 1.805 0 0 1 2.155 1.77Z"/>
    <path fill="#0f0f0f" d="M52.085 32.992c-.01.213-.021.416-.032.619-.821 10.741-9.802 19.21-20.757 19.21-3.264 0-6.347-.746-9.099-2.09a20.66 20.66 0 0 1-5.184-3.584 20.789 20.789 0 0 1-4.309-5.75 20.185 20.185 0 0 1-1.088-2.57 20.53 20.53 0 0 1-.8-3.04 20.979 20.979 0 0 1-.341-3.776c0-11.499 9.322-20.811 20.81-20.811 1.11 0 2.198.085 3.264.256.182.032.352.053.523.096a1.807 1.807 0 0 1 1.237 1.717c0 .256-.053.491-.138.704 0 .011-.011.022-.011.022l-.181.32v.01c-.331.459-.864.758-1.472.758h-.075a16.735 16.735 0 0 0-3.147-.288c-9.514 0-17.226 7.712-17.226 17.226 0 .971.085 1.92.234 2.848.171 1.046.448 2.07.8 3.04.32.886.715 1.739 1.174 2.55a17.046 17.046 0 0 0 2.602 3.498 17.69 17.69 0 0 0 2.39 2.07c.853.618 1.77 1.152 2.741 1.6a17.196 17.196 0 0 0 7.296 1.621c9.099 0 16.544-7.05 17.184-15.979.01-.117.021-.234.021-.352a1.82 1.82 0 0 1 1.078-1.365h.01l.448-.117c.086-.011.171-.022.256-.022.928-.042 1.696.672 1.792 1.579Z"/>
</svg>
