<svg viewBox="0 0 127 127" xmlns="http://www.w3.org/2000/svg">
    <linearGradient id="a" x1="23.821" y1="113.074" x2="103.178" y2="13.926" gradientUnits="userSpaceOnUse">
        <stop offset="0" stop-color="#03345a"/>
        <stop offset=".557" stop-color="#00457a"/>
    </linearGradient>
    <path fill="url(#a)" d="M13.926 23.822C35.84-3.558 75.8-7.988 103.178 13.925c27.379 21.914 31.81 61.873 9.896 89.252-21.914 27.379-61.873 31.81-89.252 9.896-27.38-21.914-31.81-61.873-9.896-89.252Z"/>
    <linearGradient id="b" x1="40.616" y1="90.281" x2="98.581" y2="17.861" gradientUnits="userSpaceOnUse">
        <stop offset="0" stop-color="#0a7ea3"/>
        <stop offset="1" stop-color="#075886"/>
    </linearGradient>
    <path fill="url(#b)" d="M30.727 22.958C46.734 2.96 77.113.678 98.581 17.86c21.468 17.183 25.896 47.325 9.889 67.323-16.006 19.998-46.386 22.281-67.854 5.098-21.468-17.183-25.895-47.324-9.889-67.323Z"/>
    <linearGradient id="c" x1="53.648" y1="73.774" x2="95.617" y2="21.338" gradientUnits="userSpaceOnUse">
        <stop offset="0" stop-color="#10c5c5"/>
        <stop offset="1" stop-color="#167897"/>
    </linearGradient>
    <path fill="url(#c)" d="M46.62 25.135c11.59-14.48 33.526-16.18 48.997-3.798 15.47 12.383 18.617 34.16 7.027 48.64-11.59 14.479-33.526 16.18-48.997 3.797-15.47-12.383-18.616-34.16-7.027-48.639Z"/>
    <path fill="#fff" d="M63.946 27.973c7.018-8.768 19.814-10.187 28.582-3.17 8.768 7.018 10.187 19.815 3.17 28.583-7.018 8.768-19.815 10.186-28.583 3.169-8.768-7.018-10.186-19.815-3.169-28.582Z"/>
</svg>
