<svg width="220" height="220" fill="none" xmlns="http://www.w3.org/2000/svg">
    <path fill="#101010" d="M0 0h220v220H0z"/>
    <path fill-rule="evenodd" clip-rule="evenodd" d="M205 110c0 52.467-42.533 95-95 95s-95-42.533-95-95 42.533-95 95-95 95 42.533 95 95zm-26.6-29.02c.547 1.274 1.057 2.366 1.647 3.427l1.365 4.498c2.846 9.084 3.579 21.194 1.952 31.914l-.488 2.782-3.254-6.056c-5.856-10.883-16.593-22.257-26.679-28.23-1.302-.82-2.441-2.129-2.441-2.947 0-.5-.175-.899-.512-1.155.192-3.348.208-6.562.004-9.148a369.25 369.25 0 00-.418-5.321c.246-.39.125-1.311-.131-3.197-2.277-16.693-15.698-27.167-27.249-21.194-13.095 6.71-10.248 26.922 4.149 29.214 2.278.409 3.01.9 3.01 2.127 0 1.391-.407 1.555-2.603 1.146-11.551-2.128-20.335-2.373-32.13-.819l-3.416.492.488-3.11c.732-5.483 4.311-15.22 7.24-20.049 8.703-14.484 25.378-20.539 40.343-14.565 2.359.9 6.02 2.782 8.216 4.091l2.593 1.61c1.056.986 2.317 2.018 3.84 3.166 10.759 8.057 19.381 19.156 24.474 31.323zm-93.376 62.834c7.077-2.21 7.646-2.784 5.532-5.074-5.125-5.81-14.235-22.503-15.374-28.478-.65-3.191-3.334-3.191-2.928 0 .057.797.231 2.382.414 4.044l.003.032v.001l.001.007.002.013v.004c.079.712.158 1.438.23 2.119.814 6.547-3.009 12.602-9.597 15.466-5.938 2.455-12.933.654-17.244-4.583-3.01-3.601-3.823-5.973-3.823-11.21 0-9.247 8.297-19.558 21.799-27.168l6.507-3.6.488-7.038c.895-12.438 5.531-26.186 11.876-35.515 1.464-2.045 2.196-3.764 1.79-3.764-1.709 0-10.006 4.092-15.7 7.856-12.038 7.856-23.181 21.521-28.305 34.778-6.426 16.857-7.24 35.432-1.953 46.071 4.067 8.265 12.445 14.893 21.88 17.429 5.613 1.473 17.326.819 24.403-1.39zm37.778-33.909h-.001l-.767 1.586c-2.522 5.318-5.45 9.901-8.297 13.011l-4.393 4.827-3.822-4.827c-4.718-5.893-11.225-18.658-11.388-22.423-.162-2.617 0-2.863 3.092-3.436 5.368-.982 19.195-.9 24.645.163a39.664 39.664 0 00.726.146l.081.016h.003l.01.002c1.882.375 3.046.607 3.499 1.303.735 1.128-.404 3.477-3.388 9.632zm4.926 72.369c15.454-3.764 30.583-13.667 35.137-23.077 7.241-14.811 3.336-30.85-10.817-44.843-2.685-2.7-5.287-4.909-5.612-4.909-.407 0-2.359 3.518-4.311 7.691-4.148 8.756-7.971 14.893-12.852 20.458-3.173 3.601-3.498 5.401-1.139 5.401.651 0 1.709-.818 2.441-1.882 4.229-6.547 16.104-7.283 22.693-1.473 5.043 4.418 6.101 13.747 2.197 19.885-7.077 11.211-25.053 10.638-43.355-1.555l-3.091-2.128-6.343 2.947c-12.202 5.563-25.297 8.428-35.546 7.774-2.928-.165-5.287-.083-5.287.245 0 1.063 10.005 7.529 16.512 10.555 15.454 7.283 32.454 8.92 49.373 4.911z" fill="url(#paint0_linear_6_7)"/>
    <defs>
        <linearGradient id="paint0_linear_6_7" x1="149.875" y1="48.89" x2="39.736" y2="148.676" gradientUnits="userSpaceOnUse">
            <stop stop-color="#08E2FF"/>
            <stop offset=".34" stop-color="#0090F8"/>
            <stop offset=".701" stop-color="#713AC0"/>
            <stop offset="1" stop-color="#C01290"/>
        </linearGradient>
    </defs>
</svg>
