<svg width="428" height="138" viewBox="0 0 428 138" fill="none" xmlns="http://www.w3.org/2000/svg"><script xmlns=""/>
<path fill-rule="evenodd" clip-rule="evenodd" d="M28.1187 56.6618V137.448L0.205078 137.448V56.2102H0.213848C0.292124 46.399 2.92013 36.7737 7.84341 28.2807C12.8422 19.6575 20.0299 12.5075 28.6793 7.55417C37.3287 2.6008 47.1329 0.0197677 57.1001 0.0721942C67.0673 0.124621 76.8439 2.80865 85.4407 7.85273C94.0375 12.8968 101.15 20.122 106.057 28.7973C110.965 37.4727 113.495 47.2903 113.39 57.2571C113.285 67.2239 110.55 76.9862 105.46 85.5564C100.371 94.1265 93.1085 101.201 84.4075 106.063L70.7929 81.6984C75.2026 79.2343 78.8832 75.6491 81.4625 71.3057C84.0417 66.9623 85.4281 62.0148 85.4812 56.9635C85.5343 51.9123 84.2524 46.9367 81.7651 42.54C79.2778 38.1433 75.6734 34.4815 71.3165 31.9251C66.9596 29.3688 62.0048 28.0085 56.9533 27.9819C51.9019 27.9553 46.9331 29.2634 42.5495 31.7738C38.1659 34.2842 34.5232 37.9079 31.9898 42.2781C29.4564 46.6484 28.1222 51.6103 28.1222 56.6618H28.1187ZM75.2712 110.154C72.2359 111.202 69.1169 111.989 65.948 112.508L61.4375 84.9651C63.0435 84.7021 64.6242 84.3029 66.1625 83.7718L75.2712 110.154ZM37.6287 109.905C40.6452 110.991 43.7486 111.819 46.9053 112.38L51.7865 84.9001C50.1867 84.6159 48.6139 84.1963 47.0851 83.6458L37.6287 109.905Z" fill="#FB5DEB"/>
<path d="M152.105 58.7352C162.591 58.7352 168.882 50.9685 168.882 41.7288C168.882 32.5561 162.591 24.7894 152.105 24.7894C141.685 24.7894 135.393 32.5561 135.393 41.7288C135.393 50.9685 141.685 58.7352 152.105 58.7352ZM152.105 51.1694C146.927 51.1694 144.044 46.8174 144.044 41.7288C144.044 36.7072 146.927 32.3552 152.105 32.3552C157.282 32.3552 160.231 36.7072 160.231 41.7288C160.231 46.8174 157.282 51.1694 152.105 51.1694Z" fill="#0C0C0C"/>
<path d="M175.057 57.9318H183.38V36.5733C184.756 34.4977 188.426 32.9578 191.179 32.9578C192.096 32.9578 192.883 33.0248 193.472 33.1587V24.8563C189.54 24.8563 185.608 27.1328 183.38 30.0118V25.5928H175.057V57.9318Z" fill="#0C0C0C"/>
<path d="M202.801 20.8391C205.554 20.8391 207.782 18.5626 207.782 15.7505C207.782 12.9384 205.554 10.662 202.801 10.662C200.115 10.662 197.821 12.9384 197.821 15.7505C197.821 18.5626 200.115 20.8391 202.801 20.8391ZM198.673 57.9318H206.996V25.5928H198.673V57.9318Z" fill="#0C0C0C"/>
<path d="M214.593 66.2341C218.526 69.7827 222.785 71.0548 228.225 71.0548C236.024 71.0548 245.33 68.0419 245.33 55.7223V25.5928H236.941V29.744C234.385 26.4632 230.977 24.7894 227.176 24.7894C219.181 24.7894 213.217 30.6813 213.217 41.2601C213.217 52.0398 219.246 57.7309 227.176 57.7309C231.043 57.7309 234.451 55.8562 236.941 52.6424V55.9232C236.941 62.2838 232.223 64.0916 228.225 64.0916C224.227 64.0916 220.885 62.9534 218.329 60.0743L214.593 66.2341ZM236.941 46.4826C235.565 48.5582 232.55 50.1651 229.798 50.1651C225.079 50.1651 221.802 46.8174 221.802 41.2601C221.802 35.7029 225.079 32.3552 229.798 32.3552C232.55 32.3552 235.565 33.8952 236.941 36.0377V46.4826Z" fill="#0C0C0C"/>
<path d="M257.714 20.8391C260.466 20.8391 262.694 18.5626 262.694 15.7505C262.694 12.9384 260.466 10.662 257.714 10.662C255.027 10.662 252.733 12.9384 252.733 15.7505C252.733 18.5626 255.027 20.8391 257.714 20.8391ZM253.585 57.9318H261.908V25.5928H253.585V57.9318Z" fill="#0C0C0C"/>
<path d="M291.526 57.9318H299.849V35.1003C299.849 28.8066 296.506 24.7894 289.559 24.7894C284.382 24.7894 280.515 27.3336 278.484 29.8109V25.5928H270.161V57.9318H278.484V36.1716C279.86 34.2299 282.416 32.3552 285.693 32.3552C289.232 32.3552 291.526 33.8952 291.526 38.3811V57.9318Z" fill="#0C0C0C"/>
<path d="M318.73 58.7352C322.203 58.7352 324.431 57.7979 325.676 56.6597L323.907 50.232C323.448 50.7007 322.269 51.1694 321.023 51.1694C319.188 51.1694 318.14 49.6294 318.14 47.6208V33.0248H324.562V25.5928H318.14V16.7548H309.751V25.5928H304.508V33.0248H309.751V49.8973C309.751 55.6553 312.897 58.7352 318.73 58.7352Z" fill="#0C0C0C"/>
<path d="M330.257 57.9318H338.58V36.5733C339.956 34.4977 343.626 32.9578 346.379 32.9578C347.296 32.9578 348.083 33.0248 348.672 33.1587V24.8563C344.74 24.8563 340.808 27.1328 338.58 30.0118V25.5928H330.257V57.9318Z" fill="#0C0C0C"/>
<path d="M375.631 57.9318H384.019V25.5928H375.631V29.744C373.14 26.4632 369.601 24.7894 365.866 24.7894C357.805 24.7894 351.841 31.217 351.841 41.7958C351.841 52.5754 357.871 58.7352 365.866 58.7352C369.667 58.7352 373.14 56.9944 375.631 53.8476V57.9318ZM375.631 47.4869C374.189 49.6294 371.24 51.1694 368.422 51.1694C363.703 51.1694 360.426 47.353 360.426 41.7958C360.426 36.1716 363.703 32.4222 368.422 32.4222C371.24 32.4222 374.189 33.9621 375.631 36.1047V47.4869Z" fill="#0C0C0C"/>
<path d="M396.402 20.8391C399.154 20.8391 401.382 18.5626 401.382 15.7505C401.382 12.9384 399.154 10.662 396.402 10.662C393.715 10.662 391.421 12.9384 391.421 15.7505C391.421 18.5626 393.715 20.8391 396.402 20.8391ZM392.273 57.9318H400.596V25.5928H392.273V57.9318Z" fill="#0C0C0C"/>
<path d="M417.762 58.7352C421.17 58.7352 423.398 57.7979 424.643 56.6597L422.874 50.232C422.48 50.7007 421.301 51.1694 420.056 51.1694C418.221 51.1694 417.172 49.6294 417.172 47.6208V13.2732H408.849V49.8973C408.849 55.6553 411.929 58.7352 417.762 58.7352Z" fill="#0C0C0C"/>
<path d="M135.393 137.448V92.187H143.668V96.3262C144.884 94.7429 146.317 93.5215 147.968 92.662C149.662 91.8024 151.465 91.3727 153.376 91.3727C156.069 91.3727 158.458 92.0512 160.543 93.4084C162.672 94.7655 164.322 96.7334 165.495 99.312C166.711 101.891 167.319 104.967 167.319 108.541C167.319 112.114 166.711 115.213 165.495 117.837C164.322 120.416 162.672 122.383 160.543 123.741C158.458 125.098 156.069 125.776 153.376 125.776C151.465 125.776 149.684 125.369 148.033 124.555C146.383 123.695 144.928 122.429 143.668 120.755V137.448H135.393ZM158.719 108.541C158.719 105.736 157.98 103.451 156.503 101.687C155.07 99.9227 153.159 99.0405 150.77 99.0405C149.423 99.0405 148.077 99.4024 146.73 100.126C145.384 100.85 144.363 101.732 143.668 102.773V114.376C144.363 115.417 145.384 116.299 146.73 117.023C148.12 117.746 149.467 118.108 150.77 118.108C153.159 118.108 155.07 117.226 156.503 115.462C157.98 113.698 158.719 111.391 158.719 108.541Z" fill="#FB5DEB"/>
<path d="M195.138 120.823C193.879 122.406 192.402 123.627 190.708 124.487C189.057 125.346 187.298 125.776 185.43 125.776C182.78 125.776 180.391 125.098 178.263 123.741C176.134 122.383 174.462 120.416 173.246 117.837C172.073 115.258 171.487 112.182 171.487 108.608C171.487 105.125 172.073 102.094 173.246 99.5155C174.462 96.8917 176.113 94.8786 178.198 93.4762C180.326 92.0739 182.737 91.3727 185.43 91.3727C187.298 91.3727 189.079 91.8024 190.773 92.662C192.467 93.5215 193.922 94.7655 195.138 96.3941V92.187H203.478V124.962H195.138V120.823ZM195.138 102.841C194.4 101.755 193.357 100.873 192.011 100.194C190.708 99.4703 189.361 99.1084 187.971 99.1084C185.625 99.1084 183.714 99.9905 182.237 101.755C180.761 103.474 180.022 105.758 180.022 108.608C180.022 111.413 180.761 113.698 182.237 115.462C183.714 117.226 185.625 118.108 187.971 118.108C189.361 118.108 190.708 117.769 192.011 117.091C193.357 116.367 194.4 115.462 195.138 114.376V102.841Z" fill="#FB5DEB"/>
<path d="M211.684 92.187H219.958V96.6655C221.088 95.1727 222.565 93.9286 224.389 92.9334C226.213 91.9381 228.081 91.4405 229.992 91.4405V99.8548C229.428 99.7191 228.668 99.6512 227.712 99.6512C226.322 99.6512 224.845 100.013 223.281 100.737C221.718 101.416 220.61 102.275 219.958 103.316V124.962H211.684V92.187Z" fill="#FB5DEB"/>
<path d="M256.794 120.823C255.535 122.406 254.058 123.627 252.364 124.487C250.713 125.346 248.954 125.776 247.086 125.776C244.436 125.776 242.047 125.098 239.919 123.741C237.791 122.383 236.118 120.416 234.902 117.837C233.729 115.258 233.143 112.182 233.143 108.608C233.143 105.125 233.729 102.094 234.902 99.5155C236.118 96.8917 237.769 94.8786 239.854 93.4762C241.982 92.0739 244.393 91.3727 247.086 91.3727C248.954 91.3727 250.735 91.8024 252.429 92.662C254.123 93.5215 255.578 94.7655 256.794 96.3941V92.187H265.134V124.962H256.794V120.823ZM256.794 102.841C256.056 101.755 255.013 100.873 253.667 100.194C252.364 99.4703 251.017 99.1084 249.627 99.1084C247.282 99.1084 245.37 99.9905 243.893 101.755C242.417 103.474 241.678 105.758 241.678 108.608C241.678 111.413 242.417 113.698 243.893 115.462C245.37 117.226 247.282 118.108 249.627 118.108C251.017 118.108 252.364 117.769 253.667 117.091C255.013 116.367 256.056 115.462 256.794 114.376V102.841Z" fill="#FB5DEB"/>
<path d="M271.32 108.541C271.32 105.238 272.037 102.298 273.47 99.7191C274.903 97.0953 276.88 95.0596 279.399 93.612C281.919 92.1191 284.785 91.3727 288 91.3727C290.997 91.3727 293.516 91.9381 295.558 93.0691C297.643 94.2 299.272 95.625 300.444 97.3441L295.037 102.569C293.473 100.217 291.258 99.0405 288.391 99.0405C285.871 99.0405 283.808 99.9227 282.201 101.687C280.637 103.406 279.855 105.691 279.855 108.541C279.855 111.391 280.637 113.698 282.201 115.462C283.808 117.226 285.871 118.108 288.391 118.108C289.781 118.108 291.04 117.814 292.17 117.226C293.299 116.593 294.255 115.711 295.037 114.58L300.444 119.805C299.272 121.524 297.643 122.949 295.558 124.08C293.516 125.211 290.997 125.776 288 125.776C284.785 125.776 281.919 125.052 279.399 123.605C276.88 122.112 274.903 120.076 273.47 117.498C272.037 114.874 271.32 111.888 271.32 108.541Z" fill="#FB5DEB"/>
<path d="M327.16 105.012C327.16 102.841 326.66 101.302 325.661 100.398C324.662 99.4929 323.207 99.0405 321.296 99.0405C319.819 99.0405 318.451 99.425 317.191 100.194C315.931 100.918 314.911 101.823 314.129 102.908V124.962H305.854V79.7012H314.129V96.462C315.258 95.0596 316.778 93.8608 318.69 92.8655C320.644 91.8703 322.816 91.3727 325.205 91.3727C328.593 91.3727 331.134 92.2774 332.828 94.087C334.566 95.8965 335.435 98.4298 335.435 101.687V124.962H327.16V105.012Z" fill="#FB5DEB"/>
<path d="M365.281 120.823C364.021 122.406 362.544 123.627 360.85 124.487C359.2 125.346 357.441 125.776 355.573 125.776C352.923 125.776 350.534 125.098 348.406 123.741C346.277 122.383 344.605 120.416 343.389 117.837C342.216 115.258 341.629 112.182 341.629 108.608C341.629 105.125 342.216 102.094 343.389 99.5155C344.605 96.8917 346.255 94.8786 348.34 93.4762C350.469 92.0739 352.88 91.3727 355.573 91.3727C357.441 91.3727 359.221 91.8024 360.915 92.662C362.61 93.5215 364.065 94.7655 365.281 96.3941V92.187H373.621V124.962H365.281V120.823ZM365.281 102.841C364.542 101.755 363.5 100.873 362.153 100.194C360.85 99.4703 359.504 99.1084 358.114 99.1084C355.768 99.1084 353.857 99.9905 352.38 101.755C350.903 103.474 350.165 105.758 350.165 108.608C350.165 111.413 350.903 113.698 352.38 115.462C353.857 117.226 355.768 118.108 358.114 118.108C359.504 118.108 360.85 117.769 362.153 117.091C363.5 116.367 364.542 115.462 365.281 114.376V102.841Z" fill="#FB5DEB"/>
<path d="M385.931 87.3691C384.585 87.3691 383.412 86.8715 382.413 85.8762C381.457 84.8358 380.979 83.6143 380.979 82.212C380.979 80.8096 381.457 79.6108 382.413 78.6155C383.412 77.575 384.585 77.0548 385.931 77.0548C387.321 77.0548 388.494 77.5524 389.45 78.5477C390.405 79.5429 390.883 80.7643 390.883 82.212C390.883 83.6143 390.405 84.8358 389.45 85.8762C388.494 86.8715 387.321 87.3691 385.931 87.3691ZM381.826 92.187H390.101V124.962H381.826V92.187Z" fill="#FB5DEB"/>
<path d="M419.547 105.148C419.547 102.976 419.047 101.416 418.048 100.466C417.049 99.5155 415.616 99.0405 413.748 99.0405C412.228 99.0405 410.838 99.425 409.578 100.194C408.362 100.918 407.363 101.823 406.581 102.908V124.962H398.306V92.187H406.581V96.462C407.71 95.0596 409.231 93.8608 411.142 92.8655C413.053 91.8703 415.203 91.3727 417.592 91.3727C420.98 91.3727 423.521 92.3 425.215 94.1548C426.953 96.0096 427.822 98.5655 427.822 101.823V124.962H419.547V105.148Z" fill="#FB5DEB"/>
</svg>