<svg width="2500" height="2500" xmlns="http://www.w3.org/2000/svg">
    <path fill="#f3ba2f" fill-rule="evenodd" d="M0 2500h2500V0H0Z"/>
    <path fill="#fff" d="m861.59 1090.417 388.399-388.388 388.598 388.589 226-226L1249.989 250 635.6 864.418l225.99 226m-611.582 159.548 226.006-226.006 225.991 225.992-226.004 226.004Zm611.582 159.61 388.399 388.39 388.589-388.58 226.119 225.88-.11.12-614.598 614.608-614.409-614.398-.32-.32 226.33-225.7m936.42-159.486 226.006-226.005 225.992 225.991-226.006 226.006Z"/>
    <path fill="#fff" d="M1479.218 1249.877h.1l-229.33-229.33-169.479 169.48h-.01l-19.47 19.48-40.16 40.17-.32.31.32.33 229.12 229.13 229.329-229.33.11-.13-.21-.11"/>
</svg>
