<svg width="400" height="400" fill="none" xmlns="http://www.w3.org/2000/svg">
    <path fill="url(#paint0_linear_1624_20)" d="M0 0h400v400H0z"/>
    <circle cx="200" cy="200" r="190" fill="#fff"/>
    <path fill-rule="evenodd" clip-rule="evenodd" d="M400 200c0 110.457-89.543 200-200 200S0 310.457 0 200 89.543 0 200 0s200 89.543 200 200zM199.333 353.333c40.869 0 74-33.131 74-74v-48c0-40.869-33.131-74-74-74-5.736 0-11.32.653-16.681 1.888-3.22.742-4.123 4.715-1.734 6.997l.4.383 42.631 40.717c6.61 6.421 10.718 15.405 10.718 25.349V278c0 19.514-15.82 35.333-35.334 35.333C179.819 313.333 164 297.514 164 278v-16.667a4 4 0 00-4-4h-30.667a4 4 0 00-4 4v18c0 40.869 33.131 74 74 74zm-74.015-236.681c0-40.87 33.131-74 74-74s74 33.13 74 74v18.015a4 4 0 01-4 4h-30.666a4 4 0 01-4-4v-16.682c0-19.514-15.82-35.333-35.334-35.333-19.514 0-35.333 15.819-35.333 35.333v45.333c0 9.944 4.107 18.928 10.718 25.349l42.63 40.717.401.383c2.389 2.282 1.485 6.255-1.734 6.997a74.24 74.24 0 01-16.682 1.888c-40.869 0-74-33.131-74-74v-48z" fill="url(#paint0_linear_1624_20)"/>
    <defs>
        <linearGradient id="paint0_linear_1624_20" x1="200" y1="0" x2="200" y2="400" gradientUnits="userSpaceOnUse">
            <stop stop-color="#720497"/>
            <stop offset="1"/>
        </linearGradient>
    </defs>
</svg>
