<svg width="380" height="380" xmlns="http://www.w3.org/2000/svg">
    <defs>
        <linearGradient id="fd43175a-91f0-4e2e-9d23-4e18621c9534" x1="97.14" x2="190.01" y1="71.15" y2="71.15" gradientTransform="translate(52.24 45.022) scale(.72509)" gradientUnits="userSpaceOnUse">
            <stop stop-color="#f96943" offset="0"/>
            <stop stop-color="#f46640" offset=".45"/>
            <stop stop-color="#e55d38" offset="1"/>
        </linearGradient>
        <linearGradient id="a29b503c-1af9-49b0-94ab-846d13ac9965" x1="197.49" x2="282.86" y1="300.28" y2="300.28" gradientTransform="translate(52.24 45.022) scale(.72509)" gradientUnits="userSpaceOnUse">
            <stop stop-color="#ce4e2c" offset="0"/>
            <stop stop-color="#ce4e2c" offset="1"/>
        </linearGradient>
        <linearGradient id="a864a964-0a37-4f43-8aa7-5154e883442e" x1="197.49" x2="282.92" y1="148.21" y2="148.21" gradientTransform="translate(52.24 45.022) scale(.72509)" gradientUnits="userSpaceOnUse">
            <stop stop-color="#e05935" offset="0"/>
            <stop stop-color="#ce4e2c" offset="1"/>
        </linearGradient>
        <linearGradient id="a5e46261-118a-470a-95df-c0ce552a9c28" x1="98.08" x2="190.01" y1="225.5" y2="225.5" gradientTransform="translate(52.24 45.022) scale(.72509)" gradientUnits="userSpaceOnUse">
            <stop stop-color="#f96943" offset="0"/>
            <stop stop-color="#f46640" offset=".46"/>
            <stop stop-color="#e55c38" offset="1"/>
        </linearGradient>
        <style>
            .a20ad7d0-9a2f-4f8b-b2b6-2cfebac900c6{fill:#8c175b}
        </style>
    </defs>
    <path d="M0 0h380v380H0z" fill="#172027"/>
    <path d="M190.01 95.002l-34.754-24.341h-27.198c-2.966 0-5.38 1.994-5.38 4.452v27.873l27.967 19.577z" fill="url(#fd43175a-91f0-4e2e-9d23-4e18621c9534)"/>
    <path d="M195.44 266.01l30.07 21.028h26.451a5.99 5.99 0 002.248-.42 4.981 4.981 0 001.537-.87 4.075 4.075 0 001.58-3.148v-28.38l-22.528-15.778z" fill="url(#a29b503c-1af9-49b0-94ab-846d13ac9965)"/>
    <path class="a20ad7d0-9a2f-4f8b-b2b6-2cfebac900c6" d="M257.38 74.185v28.793L135.62 188.22a34.029 34.029 0 00-13.008 26.77v-72.806l102.24-71.588h27.408c2.56.065 4.655 1.588 5.12 3.59z"/>
    <path d="M230.68 178.61l12.834-8.984.065-.05a34.079 34.079 0 0013.777-27.402l-22.572-15.8-39.372 27.553 35.24 24.653z" fill="url(#a864a964-0a37-4f43-8aa7-5154e883442e)"/>
    <path d="M190.01 207.08l-35.239-24.653-19.142 13.414a34.159 34.159 0 00-12.283 19.737l27.285 19.106z" fill="url(#a5e46261-118a-470a-95df-c0ce552a9c28)"/>
    <path class="a20ad7d0-9a2f-4f8b-b2b6-2cfebac900c6" d="M243.58 169.57l-.065.05-120.88 84.64v55.144l134.75-94.356v-72.864a34.079 34.079 0 01-13.806 27.387z"/>
</svg>
