<svg viewBox="0 0 400 400" xmlns="http://www.w3.org/2000/svg">
    <linearGradient id="a" x1="200" y1="0" x2="200" y2="400" gradientUnits="userSpaceOnUse">
        <stop offset="0" stop-color="#720497"/>
        <stop offset="1"/>
    </linearGradient>
    <path fill="url(#a)" fill-rule="evenodd" d="M400 200C400 89.543 310.457 0 200 0S0 89.543 0 200s89.543 200 200 200 200-89.543 200-200Z"/>
    <path fill="#fff" d="M390 200c0 104.934-85.066 190-190 190S10 304.934 10 200 95.066 10 200 10s190 85.066 190 190Z"/>
    <linearGradient id="b" x1="200" y1="0" x2="200" y2="400" gradientUnits="userSpaceOnUse">
        <stop offset="0" stop-color="#720497"/>
        <stop offset="1"/>
    </linearGradient>
    <path fill="url(#b)" fill-rule="evenodd" d="M400 200c0 110.457-89.543 200-200 200S0 310.457 0 200 89.543 0 200 0s200 89.543 200 200ZM199.333 353.333c40.869 0 74-33.131 74-74v-48c0-40.869-33.131-74-74-74-5.736 0-11.32.653-16.681 1.888-3.22.742-4.123 4.715-1.734 6.997l.4.383 42.631 40.717c6.61 6.421 10.718 15.405 10.718 25.349V278c0 19.514-15.82 35.333-35.334 35.333C179.819 313.333 164 297.514 164 278v-16.667a4 4 0 0 0-4-4h-30.667a4 4 0 0 0-4 4v18c0 40.869 33.131 74 74 74Zm-74.015-236.681c0-40.87 33.131-74 74-74s74 33.13 74 74v18.015a4 4 0 0 1-4 4h-30.666a4 4 0 0 1-4-4v-16.682c0-19.514-15.82-35.333-35.334-35.333-19.514 0-35.333 15.819-35.333 35.333v45.333c0 9.944 4.107 18.928 10.718 25.349l42.63 40.717.401.383c2.389 2.282 1.485 6.255-1.734 6.997a74.24 74.24 0 0 1-16.682 1.888c-40.869 0-74-33.131-74-74v-48Z"/>
</svg>
