<svg width="400" height="400" fill="none" xmlns="http://www.w3.org/2000/svg">
    <path fill="#0D106E" d="M0 0h400v400H0z"/>
    <path fill-rule="evenodd" clip-rule="evenodd" d="M28 200.006L200.061 28 372 200.051 200.061 372 28 200.006zm63.31-51.322c-7.264 8.177-22.471 28.086-22.471 51.322 0 23.328 15.326 43.301 22.557 51.418l37.196 37.226.175-.171c14.891-14.562 39.646-33.7 67.866-35.157-7.104 7.921-22.772 28.061-22.772 51.63 0 23.569 15.668 43.709 22.772 51.631l3.428 3.592 3.429-3.592c7.104-7.922 22.772-28.062 22.772-51.631s-15.668-43.709-22.772-51.63c28.331 1.463 53.168 20.745 68.041 35.328l38.073-38.104.088-.102c7.528-8.65 21.72-27.991 21.72-50.438 0-22.534-14.303-41.939-21.808-50.539l-37.896-37.927-.175.171c-14.876 14.581-39.713 33.863-68.043 35.326 7.104-7.921 22.772-28.061 22.772-51.63 0-23.57-15.668-43.71-22.772-51.63l-3.429-3.94-3.428 3.94c-7.104 7.92-22.772 28.06-22.772 51.63 0 23.569 15.668 43.709 22.772 51.63-28.441-1.469-53.362-20.896-68.218-35.497l-37.104 37.144zm7.278-.304c45.921 2.43 82.639 51.626 82.639 51.626s-36.718 49.196-82.64 51.627c7.149-7.988 22.736-28.102 22.736-51.627 0-23.525-15.587-43.639-22.735-51.626zm203.076 0c-7.149 7.987-22.736 28.101-22.736 51.626s15.587 43.639 22.736 51.627c-45.922-2.431-82.639-51.627-82.639-51.627s36.717-49.196 82.639-51.626z" fill="#52B2ED"/>
</svg>
