<svg viewBox="0 0 243 243" xmlns="http://www.w3.org/2000/svg">
    <path fill="#1f2326" fill-rule="evenodd" d="M243 121.5C243 54.397 188.603 0 121.5 0 54.397 0 0 54.397 0 121.5 0 188.603 54.397 243 121.5 243c67.103 0 121.5-54.397 121.5-121.5Z"/>
    <linearGradient id="a" x1="0" y1="243" x2="243" y2="243" gradientUnits="userSpaceOnUse">
        <stop offset="0" stop-color="#29ccb9"/>
        <stop offset=".495" stop-color="#0091ff"/>
        <stop offset="1" stop-color="#ff66b7"/>
    </linearGradient>
    <path fill="url(#a)" d="M128.85 192.96s59.02-11.58 31.64-53.43c-17.01-25.99-51.38-23.62-84.9-14.33-28.56 7.92-34.63 4.69-34.63 4.69s-22.79-3.83 8.79-26.27c0 0-15.64-73.14 83.49-56.94 111.32 18.18 96.27 164.15-1.76 157.67 0 0-7.18-1.56-2.63-11.39ZM147.3 42.3s23.57 4.53 43.07 23.65c0 0 1.45-23.22 13.18-31.54 0 0 12.9-12.01-5.27-11.38-17.16.59-38.84 3.65-50.98 19.27Zm-44.68 99.82s18.26 1.23 25.63 18.05c7.36 16.82 10.43 31.15 13.32 34.5 2.9 3.36-31.27-.12-35.48-9-4.21-8.87 10.74-15.9-5.93-40.26 0 0-1.77-4.19 2.46-3.29Zm-18.28 86.3s17.2 6.27 30.8-6.15c13.6-12.41 22.25-24.29 26.26-26.19 4.02-1.89-28.65-12.56-36.12-6.13-7.47 6.42 3.33 18.91-21.85 34.46 0 0-3.32 3.12.91 4.01Zm26.87-105.82s5.63 24.14 24.09 30.25c0 0-2.81-24.25-.19-26.12 1.35-.96-5.29-3.81-11.8-4.62-6.12-.76-12.1.49-12.1.49Z"/>
    <path fill="#1f2326" d="M81.39 81.72c4.86 0 8.8 3.92 8.8 8.75s-3.94 8.75-8.8 8.75c-4.86 0-8.8-3.92-8.8-8.75s3.94-8.75 8.8-8.75Z"/>
</svg>
