<svg width="152" height="152" viewBox="0 0 152 152" fill="none" xmlns="http://www.w3.org/2000/svg">
<circle cx="76" cy="76" r="76" fill="#1F305F"/>
<path d="M48.6743 66.7789L49.1545 45.965C49.1545 35.9705 55.2251 31.0194 63.6855 33.5268C64.4294 33.7473 67.4192 35.1574 67.4192 36.0462L67.6063 55.2767C67.6068 55.3288 67.5648 55.3712 67.5128 55.3712C67.4611 55.3712 67.4192 55.3293 67.4192 55.2777L67.4192 33.0506C67.4192 27.4998 71.919 23 77.4698 23C83.0206 23 87.5204 27.4998 87.5204 33.0506L87.5204 55.2546C87.5204 55.319 87.5726 55.3712 87.637 55.3712C87.6763 55.3712 87.7081 55.3391 87.7077 55.2998L87.5204 36.0462C87.5204 35.1495 90.5429 33.746 91.2933 33.5268C98.6256 31.3844 105.363 35.381 105.363 45.7701L105.829 66.608" stroke="#B3DCF9" stroke-width="4.0569"/>
<path fill-rule="evenodd" clip-rule="evenodd" d="M51.0263 66.5251C49.29 65.9321 47.6086 65.1264 45.9276 64.3209C41.2952 62.1012 34.0827 63.1289 29.2115 68.683C26.9787 71.2289 28.7064 75.1386 31.9205 76.2046C33.4703 76.7187 34.8739 77.5893 36.186 78.5613C36.3346 78.6714 36.4858 78.7815 36.639 78.8914C40.6869 81.7961 40.8972 86.373 41.1564 91.3484L41.1614 92.0893C41.2947 111.759 57.1962 127.678 76.8658 127.832C96.8515 127.989 113.137 111.832 113.137 91.8454V91.3484C113.396 86.373 113.606 81.7961 117.654 78.8914C117.807 78.7815 117.959 78.6714 118.107 78.5613C119.419 77.5893 120.823 76.7187 122.373 76.2046C125.587 75.1386 127.314 71.2289 125.082 68.683C120.211 63.1289 112.998 62.1012 108.366 64.3209C106.685 65.1264 105.003 65.9321 103.267 66.5251L99.7164 67.7376L99.7094 67.7826C93.1956 69.5822 87.8389 69.5882 81.6898 67.0505C78.5809 65.7674 75.4432 65.5263 72.4045 67.0505C66.5613 68.8696 60.6082 69.638 54.5768 67.7376L51.0263 66.5251Z" stroke="#B3DCF9" stroke-width="4.0569"/>
<path d="M77.0123 79.6616H77.0426C83.821 79.6616 89.7284 83.2525 93.8297 86.6304C97.9886 90.0557 100.701 93.6029 101.143 94.1948C101.443 94.5963 101.74 95.2079 101.74 95.9839C101.74 96.7599 101.443 97.3715 101.143 97.7729C100.701 98.3649 97.9886 101.912 93.8297 105.337C89.7284 108.715 83.821 112.306 77.0426 112.306H77.0123C76.8782 112.306 76.7443 112.304 76.611 112.301H76.608C70.011 112.153 64.2669 108.641 60.2555 105.337C56.0966 101.912 53.3839 98.3649 52.942 97.7729C52.6424 97.3715 52.3454 96.7598 52.3453 95.9839C52.3453 95.208 52.6424 94.5963 52.942 94.1948C53.3839 93.6029 56.0967 90.0556 60.2555 86.6304C64.2669 83.3266 70.011 79.8152 76.608 79.6665H76.611L77.0123 79.6616Z" stroke="#B3DCF9" stroke-width="3.58603"/>
<path fill-rule="evenodd" clip-rule="evenodd" d="M77.8215 87.4465H70.1508V91.0303L77.5919 91.0307C78.3109 91.0307 78.8464 91.2241 79.1982 91.6112C79.5654 91.9983 79.749 92.5283 79.749 93.2014C79.749 93.9081 79.5654 94.4549 79.1982 94.842C78.8464 95.2291 78.3109 95.4226 77.5919 95.4226L75.3598 95.396L75.3598 98.4344L79.1982 105.405H83.8836L79.9253 98.1486C81.1031 97.7616 82.2272 97.1053 82.8239 96.1797C83.4358 95.2543 83.7418 94.2026 83.7418 93.0246C83.7418 91.9813 83.5199 91.0391 83.0763 90.1977C82.6326 89.3395 81.9595 88.6664 81.057 88.1785C80.1697 87.6904 79.0912 87.4465 77.8215 87.4465Z" fill="#B3DCF9"/>
<circle cx="76.708" cy="96.1471" r="15.8172" stroke="#B3DCF9" stroke-width="3.58603"/>
</svg>
