<svg width="152" height="152" viewBox="0 0 152 152" fill="none" xmlns="http://www.w3.org/2000/svg">
<rect width="152" height="152" rx="76" fill="#D5FF5C"/>
<path d="M106.452 68.6286C111.445 66.236 119.22 66.9787 124.47 72.9656C126.877 75.7098 125.014 79.6806 121.55 80.8297C119.879 81.3838 118.366 82.3221 116.952 83.3698C116.792 83.4884 116.629 83.6071 116.464 83.7255C112.101 86.8565 109.293 91.5468 109.014 96.9099L108.885 99.3844C108.894 100.25 108.877 101.119 108.832 101.989C107.555 114.199 99.678 124.722 88.3224 129.387C78.4041 133.463 67.2792 133.463 57.3609 129.387C46.0053 124.722 38.1276 114.199 36.851 101.989L36.587 96.9099C36.3076 91.5468 33.4997 86.8565 29.1365 83.7255C28.9713 83.607 28.8082 83.4885 28.6479 83.3698C27.2337 82.3221 25.7206 81.3838 24.05 80.8297C20.5856 79.6805 18.7236 75.7098 21.1302 72.9656C26.3809 66.9787 34.1556 66.236 39.149 68.6286C40.9608 69.4968 42.7733 70.3655 44.6448 71.0047L48.4719 72.3114C54.9732 74.3599 61.39 73.5317 67.6885 71.5708C70.964 69.9278 74.3462 70.1878 77.6974 71.5708C84.3255 74.3062 90.0996 74.2996 97.1208 72.3599L97.1286 72.3114L100.956 71.0047C102.827 70.3655 104.64 69.4968 106.452 68.6286ZM72.9234 82.1375C67.575 82.1375 62.7121 84.4918 58.7865 87.3161C54.8474 90.1501 51.7048 93.5625 49.7594 95.9245C48.8472 97.032 47.8167 98.1606 47.8167 99.8521C47.8168 101.544 48.8472 102.673 49.7594 103.78C51.7048 106.142 54.8476 109.554 58.7865 112.388C62.7121 115.212 67.5751 117.567 72.9234 117.567C78.2717 117.567 83.1343 115.212 87.0599 112.388C90.9988 109.554 94.1415 106.142 96.087 103.78C96.9992 102.673 98.0295 101.544 98.0297 99.8521C98.0296 98.1607 96.9992 97.032 96.087 95.9245C94.1416 93.5626 90.9989 90.1501 87.0599 87.3161C83.1343 84.4919 78.2717 82.1376 72.9234 82.1375ZM72.9854 20.6213C78.3329 20.6213 82.6677 24.9566 82.6677 30.3042V54.4411C82.6677 55.3744 83.4245 56.1312 84.3578 56.1312C85.2848 56.1312 86.0385 55.3842 86.0474 54.4573L86.238 34.5078C86.238 33.5233 87.47 32.4199 88.2937 32.1792C96.3429 29.8271 103.739 34.2153 103.739 45.6219L104.251 66.4729C95.5782 70.8995 87.2337 71.8108 77.6661 68.837C74.0152 67.0469 71.385 67.3624 67.6229 68.8349C58.135 70.9663 50.0675 71.0623 41.5078 66.6604L42.0349 45.8359C42.0349 34.8625 48.4557 29.4262 57.7432 32.1792C58.5599 32.4213 59.7328 33.5211 59.7328 34.4969L59.9234 54.4573C59.9323 55.3842 60.686 56.1312 61.613 56.1312C62.5463 56.1312 63.3031 55.3744 63.3031 54.4411V30.3042C63.3031 24.9566 67.6379 20.6213 72.9854 20.6213Z" fill="#283C54"/>
<path fill-rule="evenodd" clip-rule="evenodd" d="M74.7442 87H64V92.0197L74.4227 92.0203C75.4297 92.0203 76.1798 92.2912 76.6726 92.8333C77.1869 93.3756 77.4441 94.1179 77.4441 95.0607C77.4441 96.0506 77.1869 96.8165 76.6726 97.3586C76.1798 97.9009 75.4297 98.1719 74.4227 98.1719L71.2961 98.1347L71.2961 102.391L76.6726 112.154H83.2353L77.691 101.99C79.3407 101.448 80.9152 100.529 81.751 99.2324C82.6081 97.9362 83.0366 96.4631 83.0366 94.8131C83.0366 93.3518 82.7259 92.0321 82.1046 90.8535C81.483 89.6515 80.5402 88.7087 79.2762 88.0253C78.0333 87.3416 76.5227 87 74.7442 87Z" fill="#283C54"/>
</svg>
