<svg width="152" height="152" viewBox="0 0 152 152" fill="none" xmlns="http://www.w3.org/2000/svg">
<rect width="152" height="152" rx="76" fill="#D5FF5C"/>
<path d="M109.408 68.6286C114.402 66.236 122.176 66.9787 127.427 72.9656C129.834 75.7098 127.971 79.6806 124.507 80.8297C122.836 81.3838 121.323 82.3221 119.909 83.3698C119.749 83.4884 119.586 83.6071 119.421 83.7255C115.058 86.8565 112.25 91.5468 111.97 96.9099L111.842 99.3844C111.851 100.25 111.834 101.119 111.789 101.989C110.512 114.199 102.635 124.722 91.2792 129.387C81.3609 133.463 70.236 133.463 60.3177 129.387C48.9621 124.722 41.0844 114.199 39.8078 101.989L39.5438 96.9099C39.2644 91.5468 36.4565 86.8565 32.0932 83.7255C31.9281 83.607 31.765 83.4885 31.6047 83.3698C30.1904 82.3221 28.6774 81.3838 27.0068 80.8297C23.5424 79.6805 21.6804 75.7098 24.087 72.9656C29.3377 66.9787 37.1124 66.236 42.1057 68.6286C43.9176 69.4968 45.7301 70.3655 47.6016 71.0047L51.4287 72.3114C57.93 74.3599 64.3468 73.5317 70.6453 71.5708C73.9208 69.9278 77.303 70.1878 80.6542 71.5708C87.2823 74.3062 93.0564 74.2996 100.078 72.3599L100.085 72.3114L103.913 71.0047C105.784 70.3655 107.596 69.4968 109.408 68.6286ZM75.8802 82.1375C70.5318 82.1375 65.6689 84.4918 61.7432 87.3161C57.8042 90.1501 54.6616 93.5625 52.7162 95.9245C51.804 97.032 50.7735 98.1606 50.7734 99.8521C50.7736 101.544 51.8039 102.673 52.7162 103.78C54.6616 106.142 57.8044 109.554 61.7432 112.388C65.6689 115.212 70.5318 117.567 75.8802 117.567C81.2285 117.567 86.0911 115.212 90.0167 112.388C93.9556 109.554 97.0983 106.142 99.0438 103.78C99.956 102.673 100.986 101.544 100.986 99.8521C100.986 98.1607 99.956 97.032 99.0438 95.9245C97.0984 93.5626 93.9557 90.1501 90.0167 87.3161C86.0911 84.4919 81.2285 82.1376 75.8802 82.1375ZM75.9422 20.6213C81.2897 20.6213 85.6245 24.9566 85.6245 30.3042V54.4411C85.6245 55.3744 86.3813 56.1312 87.3146 56.1312C88.2416 56.1312 88.9953 55.3842 89.0042 54.4573L89.1948 34.5078C89.1948 33.5233 90.4268 32.4199 91.2505 32.1792C99.2996 29.8271 106.696 34.2153 106.696 45.6219L107.207 66.4729C98.5349 70.8995 90.1905 71.8108 80.6229 68.837C76.972 67.0469 74.3417 67.3624 70.5797 68.8349C61.0918 70.9663 53.0243 71.0623 44.4646 66.6604L44.9917 45.8359C44.9917 34.8625 51.4125 29.4262 60.7 32.1792C61.5167 32.4213 62.6896 33.5211 62.6896 34.4969L62.8802 54.4573C62.8891 55.3842 63.6428 56.1312 64.5698 56.1312C65.5031 56.1312 66.2599 55.3744 66.2599 54.4411V30.3042C66.2599 24.9566 70.5947 20.6213 75.9422 20.6213Z" fill="#283C54"/>
<path fill-rule="evenodd" clip-rule="evenodd" d="M76.7442 87H66V92.0197L76.4227 92.0203C77.4297 92.0203 78.1798 92.2912 78.6726 92.8333C79.1869 93.3756 79.4441 94.1179 79.4441 95.0607C79.4441 96.0506 79.1869 96.8165 78.6726 97.3586C78.1798 97.9009 77.4297 98.1719 76.4227 98.1719L73.2961 98.1347L73.2961 102.391L78.6726 112.154H85.2353L79.691 101.99C81.3407 101.448 82.9152 100.529 83.751 99.2324C84.6081 97.9362 85.0366 96.4631 85.0366 94.8131C85.0366 93.3518 84.7259 92.0321 84.1046 90.8535C83.483 89.6515 82.5402 88.7087 81.2762 88.0253C80.0333 87.3416 78.5227 87 76.7442 87Z" fill="#283C54"/>
</svg>