<svg viewBox="0 0 64 64" xmlns="http://www.w3.org/2000/svg">
    <path fill="#fff" d="M64 32C64 14.327 49.673 0 32 0 14.327 0 0 14.327 0 32c0 17.673 14.327 32 32 32 17.673 0 32-14.327 32-32Z"/>
    <path fill="#ea754b" d="m34.83 24.493-5.684-5.684a.286.286 0 0 0-.398 0l-2.253 2.253a.295.295 0 0 0 0 .398l5.616 5.64a3.55 3.55 0 0 1 0 5.02 3.483 3.483 0 0 1-4.864-.036l-8.184-8.204a3.487 3.487 0 0 1-.04-4.88 3.543 3.543 0 0 1 5.016 0l.816.816a.286.286 0 0 0 .398 0l2.257-2.253a.295.295 0 0 0 0-.398l-.884-.872a7.244 7.244 0 0 0-10.246 0 7.256 7.256 0 0 0 0 10.25l8.196 8.2a7.245 7.245 0 0 0 10.246 0 7.249 7.249 0 0 0 .008-10.25Z"/>
    <path fill="#34c69a" d="M47.97 16.294a7.24 7.24 0 0 0-10.243 0l-5.529 5.548 2.651 2.651 5.541-5.544a3.479 3.479 0 0 1 4.916 4.92l-.871.871a.287.287 0 0 0 0 .398l2.252 2.257a.294.294 0 0 0 .398 0l.872-.875a7.248 7.248 0 0 0 .012-10.226Z"/>
    <path fill="#34c69a" d="M43.205 26.392a.295.295 0 0 0-.398 0l-5.696 5.692a3.475 3.475 0 0 1-4.912 0 3.483 3.483 0 0 1 0-4.892l-2.683-2.67a7.257 7.257 0 0 0-1.42 8.191 7.233 7.233 0 0 0 6.555 4.148 7.225 7.225 0 0 0 5.111-2.118l5.696-5.684a.295.295 0 0 0 0-.398l-2.253-2.269Z"/>
    <path fill="#f6c94a" d="m47.97 37.657-5.544-5.573-2.663 2.67 5.545 5.55a3.479 3.479 0 0 1 .027 4.876 3.543 3.543 0 0 1-5.011 0l-.82-.82a.295.295 0 0 0-.398 0l-2.253 2.253a.287.287 0 0 0 0 .398l.796.796a7.36 7.36 0 0 0 10.373.056 7.257 7.257 0 0 0-.04-10.214l-.011.008Z"/>
    <path fill="#f6c94a" d="M37.875 43.118a.286.286 0 0 0 0-.398L32.2 37.024a3.463 3.463 0 0 1 0-4.92 3.475 3.475 0 0 1 4.892 0l2.67-2.679a7.249 7.249 0 0 0-8.191-1.421 7.249 7.249 0 0 0-2.038 11.683l5.68 5.684a.286.286 0 0 0 .398 0l2.265-2.253Z"/>
    <path fill="#46aee2" d="M36.527 32.104a6.23 6.23 0 0 0-.26-.633 7.269 7.269 0 0 0-4.083-3.734 7.237 7.237 0 0 0-7.563 1.676l2.643 2.671a3.483 3.483 0 0 1 4.904 0 3.475 3.475 0 0 1 .593 4.088 3.284 3.284 0 0 1-.593.796l2.667 2.667a7.245 7.245 0 0 0 1.692-7.531Zm-14.967 5.68 3.04-3.041-2.662-2.659-3.041 3.041a.295.295 0 0 0 0 .398l2.253 2.257a.295.295 0 0 0 .41.004Z"/>
    <path fill="#46aee2" d="M23.971 45.22a3.477 3.477 0 1 1-4.908-4.928l.864-.868a.286.286 0 0 0 0-.398l-2.253-2.257a.295.295 0 0 0-.398 0l-.868.868a7.245 7.245 0 1 0 10.218 10.238l5.573-5.549-2.683-2.679-5.545 5.573Z"/>
</svg>
