<svg width="64" height="64" fill="none" xmlns="http://www.w3.org/2000/svg">
    <path fill="#282A39" d="M0 0h64v64H0z"/>
    <path d="M32.26 13.008L13.53 44.748h36.943L32.26 13.008z" stroke="#03A5ED" stroke-width=".653" stroke-miterlimit="10"/>
    <path d="M32.26 15.61a2.602 2.602 0 100-5.203 2.602 2.602 0 000 5.203z" fill="#03A5ED"/>
    <path d="M50.212 47.35a2.602 2.602 0 100-5.204 2.602 2.602 0 000 5.204z" fill="#03A5ED"/>
    <path d="M13.789 47.35a2.602 2.602 0 100-5.204 2.602 2.602 0 000 5.204z" fill="#03A5ED"/>
    <path d="M32.26 26.017v8.585l7.025 3.642-7.025-12.227z" fill="#B5C0F1"/>
    <path d="M32.26 34.602l-7.024 3.642h14.049l-7.025-3.642z" fill="#535974"/>
    <path d="M32.26 26.017l-7.024 12.227 7.024-3.642v-8.585z" fill="#03A5ED"/>
</svg>
