<svg width="174" height="201" viewBox="0 0 174 201" fill="none" xmlns="http://www.w3.org/2000/svg">
<g clip-path="url(#clip0_16_2)">
<path d="M0 50.08V150.23L86.74 200.31L173.47 150.23V50.08L86.74 0L0 50.08Z" fill="url(#paint0_linear_16_2)"/>
<path d="M85.43 89.79L27.57 56.6C27.0896 56.325 26.5455 56.181 25.9919 56.1824C25.4384 56.1838 24.895 56.3306 24.416 56.608C23.9371 56.8855 23.5394 57.2839 23.2628 57.7633C22.9862 58.2428 22.8404 58.7865 22.84 59.34V147.41C22.84 148.248 23.1729 149.052 23.7655 149.644C24.3582 150.237 25.1619 150.57 26 150.57H36.17C37.009 150.57 37.8138 150.237 38.408 149.645C39.0022 149.053 39.3373 148.249 39.34 147.41V87.83C39.3404 87.2765 39.4862 86.7328 39.7628 86.2533C40.0394 85.7739 40.4371 85.3755 40.916 85.098C41.395 84.8206 41.9384 84.6738 42.4919 84.6724C43.0455 84.671 43.5896 84.815 44.07 85.09L65.49 97.37C65.9741 97.6476 66.3764 98.0481 66.6561 98.5309C66.9359 99.0138 67.0832 99.562 67.0832 100.12C67.0832 100.678 66.9359 101.226 66.6561 101.709C66.3764 102.192 65.9741 102.592 65.49 102.87L50.33 111.44C49.842 111.717 49.4359 112.118 49.1532 112.603C48.8704 113.088 48.721 113.639 48.72 114.2V159.4C48.7199 159.95 48.8638 160.491 49.1375 160.968C49.4112 161.445 49.8051 161.842 50.28 162.12L86.41 183.5C86.9093 183.797 87.4812 183.949 88.0621 183.94C88.6429 183.932 89.2099 183.762 89.7 183.45L123.64 162.09C124.092 161.804 124.464 161.408 124.721 160.94C124.978 160.471 125.112 159.945 125.11 159.41V153.46C125.112 152.905 124.966 152.359 124.689 151.877C124.411 151.396 124.012 150.997 123.53 150.72L95.33 134.49C94.602 134.07 93.7368 133.956 92.9248 134.173C92.1128 134.391 91.4204 134.922 91 135.65L85.93 144.47C85.5129 145.197 85.4007 146.06 85.6181 146.869C85.8355 147.679 86.3647 148.37 87.09 148.79L96.48 154.2C96.954 154.47 97.35 154.858 97.6289 155.327C97.9079 155.795 98.0604 156.328 98.0715 156.874C98.0826 157.419 97.9519 157.958 97.6922 158.438C97.4325 158.917 97.0527 159.321 96.59 159.61L89.42 164.13C88.9253 164.434 88.3558 164.595 87.775 164.595C87.1942 164.595 86.6247 164.434 86.13 164.13L66.75 152.71C66.2791 152.431 65.8887 152.035 65.617 151.56C65.3452 151.085 65.2016 150.547 65.2 150V123.82C65.1986 123.26 65.3471 122.709 65.6302 122.226C65.9133 121.742 66.3207 121.343 66.81 121.07L85.37 110.57C85.8474 110.3 86.3866 110.158 86.935 110.158C87.4834 110.158 88.0226 110.3 88.5 110.57L107.19 121.3C107.673 121.576 108.074 121.975 108.353 122.456C108.632 122.937 108.78 123.484 108.78 124.04V129.63C108.783 130.467 109.116 131.27 109.708 131.862C110.3 132.454 111.103 132.787 111.94 132.79H122.12C122.957 132.787 123.76 132.454 124.352 131.862C124.944 131.27 125.277 130.467 125.28 129.63V114.48C125.278 113.924 125.129 113.379 124.85 112.898C124.571 112.417 124.171 112.018 123.69 111.74L108.45 103C107.966 102.722 107.564 102.322 107.284 101.839C107.004 101.356 106.857 100.808 106.857 100.25C106.857 99.692 107.004 99.1438 107.284 98.6609C107.564 98.1781 107.966 97.7776 108.45 97.5L130.18 85.21C130.664 84.9328 131.213 84.7887 131.771 84.7922C132.328 84.7958 132.875 84.947 133.356 85.2304C133.836 85.5138 134.233 85.9193 134.506 86.4058C134.779 86.8922 134.918 87.4423 134.91 88V147.72C134.913 148.559 135.248 149.363 135.842 149.955C136.436 150.547 137.241 150.88 138.08 150.88H148.25C149.088 150.88 149.892 150.547 150.484 149.954C151.077 149.362 151.41 148.558 151.41 147.72V59.72C151.41 59.1671 151.266 58.6238 150.99 58.1443C150.715 57.6649 150.319 57.266 149.841 56.9877C149.363 56.7094 148.821 56.5612 148.268 56.5581C147.715 56.555 147.171 56.697 146.69 56.97L88.56 89.8C88.0826 90.0713 87.5427 90.213 86.9937 90.2113C86.4446 90.2095 85.9056 90.0643 85.43 89.79Z" fill="white"/>
<path d="M86.74 25.83C81.7221 25.83 76.9097 27.8234 73.3615 31.3715C69.8134 34.9197 67.82 39.7321 67.82 44.75H105.66C105.66 39.7321 103.667 34.9197 100.118 31.3715C96.5703 27.8234 91.7579 25.83 86.74 25.83Z" fill="white"/>
<path d="M113.8 46.38H59.68C59.2477 46.38 58.8331 46.2083 58.5274 45.9026C58.2217 45.5969 58.05 45.1823 58.05 44.75C58.05 44.3177 58.2217 43.9031 58.5274 43.5974C58.8331 43.2917 59.2477 43.12 59.68 43.12H113.8C114.232 43.12 114.647 43.2917 114.953 43.5974C115.258 43.9031 115.43 44.3177 115.43 44.75C115.43 45.1823 115.258 45.5969 114.953 45.9026C114.647 46.2083 114.232 46.38 113.8 46.38Z" fill="white"/>
</g>
<defs>
<linearGradient id="paint0_linear_16_2" x1="86.74" y1="2.18" x2="86.74" y2="202.89" gradientUnits="userSpaceOnUse">
<stop stop-color="#FDDE4F"/>
<stop offset="0.15" stop-color="#F4C44E"/>
<stop offset="0.45" stop-color="#E79449"/>
<stop offset="0.71" stop-color="#DF7245"/>
<stop offset="0.9" stop-color="#DB5942"/>
<stop offset="1" stop-color="#DA4F41"/>
</linearGradient>
<clipPath id="clip0_16_2">
<rect width="173.47" height="200.31" fill="white"/>
</clipPath>
</defs>
</svg>
