<svg width="64" height="64" viewBox="0 0 64 64" fill="none" xmlns="http://www.w3.org/2000/svg">
<path d="M32 64C49.673 64 64 49.673 64 32C64 14.3269 49.673 0 32 0C14.3269 0 0 14.3269 0 32C0 49.673 14.3269 64 32 64Z" fill="#171717"/>
<path d="M47.3182 15.4994C48.7354 15.4994 49.8844 14.3505 49.8844 12.9332C49.8844 11.516 48.7354 10.3671 47.3182 10.3671C45.9009 10.3671 44.7522 11.516 44.7522 12.9332C44.7522 14.3505 45.9009 15.4994 47.3182 15.4994Z" fill="#EB027D"/>
<path d="M42.162 16.8902C43.317 16.8902 44.2533 15.9539 44.2533 14.799C44.2533 13.644 43.317 12.7078 42.162 12.7078C41.0073 12.7078 40.071 13.644 40.071 14.799C40.071 15.9539 41.0073 16.8902 42.162 16.8902Z" fill="#EB027D"/>
<path d="M25.5214 34.081C26.1404 34.081 26.6422 33.5792 26.6422 32.9602C26.6422 32.3412 26.1404 31.8395 25.5214 31.8395C24.9024 31.8395 24.4006 32.3412 24.4006 32.9602C24.4006 33.5792 24.9024 34.081 25.5214 34.081Z" fill="#EB027D"/>
<path d="M25.7655 36.9518C25.781 36.2878 25.2555 35.7368 24.5914 35.721C23.9273 35.7055 23.3763 36.2313 23.3607 36.8953C23.3451 37.5593 23.8707 38.1103 24.5348 38.126C25.199 38.1415 25.75 37.6158 25.7655 36.9518Z" fill="#EB027D"/>
<path d="M25.1388 28.4943C25.8728 28.4943 26.4681 27.899 26.4681 27.165C26.4681 26.4308 25.8728 25.8358 25.1388 25.8358C24.4047 25.8358 23.8096 26.4308 23.8096 27.165C23.8096 27.899 24.4047 28.4943 25.1388 28.4943Z" fill="#EB027D"/>
<path d="M24.5134 25.0738C25.3852 25.0738 26.092 24.367 26.092 23.4951C26.092 22.6233 25.3852 21.9165 24.5134 21.9165C23.6416 21.9165 22.9348 22.6233 22.9348 23.4951C22.9348 24.367 23.6416 25.0738 24.5134 25.0738Z" fill="#EB027D"/>
<path d="M26.5637 31.3165C27.1825 31.3165 27.6845 30.8148 27.6845 30.1958C27.6845 29.5768 27.1825 29.075 26.5637 29.075C25.9447 29.075 25.4427 29.5768 25.4427 30.1958C25.4427 30.8148 25.9447 31.3165 26.5637 31.3165Z" fill="#EB027D"/>
<path d="M28.5353 33.2575C29.0465 33.2575 29.4613 32.8428 29.4613 32.3315C29.4613 31.82 29.0465 31.4055 28.5353 31.4055C28.0238 31.4055 27.6093 31.82 27.6093 32.3315C27.6093 32.8428 28.0238 33.2575 28.5353 33.2575Z" fill="#EB027D"/>
<path d="M28.214 35.4545C28.7255 35.4545 29.14 35.04 29.14 34.5285C29.14 34.0173 28.7255 33.6025 28.214 33.6025C27.7025 33.6025 27.288 34.0173 27.288 34.5285C27.288 35.04 27.7025 35.4545 28.214 35.4545Z" fill="#EB027D"/>
<path d="M28.6002 28.2687C29.219 28.2687 29.721 27.7667 29.721 27.148C29.721 26.529 29.219 26.027 28.6002 26.027C27.9812 26.027 27.4792 26.529 27.4792 27.148C27.4792 27.7667 27.9812 28.2687 28.6002 28.2687Z" fill="#EB027D"/>
<path d="M29.3552 30.5307C29.8667 30.5307 30.2812 30.116 30.2812 29.6047C30.2812 29.0932 29.8667 28.6787 29.3552 28.6787C28.8437 28.6787 28.4292 29.0932 28.4292 29.6047C28.4292 30.116 28.8437 30.5307 29.3552 30.5307Z" fill="#EB027D"/>
<path d="M30.5821 36.278C31.0086 36.278 31.3543 35.9323 31.3543 35.5058C31.3543 35.0793 31.0086 34.7335 30.5821 34.7335C30.1556 34.7335 29.8098 35.0793 29.8098 35.5058C29.8098 35.9323 30.1556 36.278 30.5821 36.278Z" fill="#EB027D"/>
<path d="M31.1713 37.5165C31.1813 37.0903 30.8435 36.7365 30.4173 36.7265C29.9908 36.7165 29.637 37.054 29.6273 37.4803C29.6173 37.9068 29.9548 38.2605 30.381 38.2705C30.8075 38.2805 31.1613 37.9428 31.1713 37.5165Z" fill="#EB027D"/>
<path d="M30.7393 34.4637C31.1658 34.4637 31.5115 34.118 31.5115 33.6915C31.5115 33.265 31.1658 32.9193 30.7393 32.9193C30.3128 32.9193 29.967 33.265 29.967 33.6915C29.967 34.118 30.3128 34.4637 30.7393 34.4637Z" fill="#EB027D"/>
<path d="M30.9988 32.3792C31.4253 32.3792 31.7711 32.0335 31.7711 31.607C31.7711 31.1805 31.4253 30.8347 30.9988 30.8347C30.5723 30.8347 30.2266 31.1805 30.2266 31.607C30.2266 32.0335 30.5723 32.3792 30.9988 32.3792Z" fill="#EB027D"/>
<path d="M31.2928 30.336C31.7193 30.336 32.065 29.9903 32.065 29.5638C32.065 29.1373 31.7193 28.7915 31.2928 28.7915C30.8663 28.7915 30.5205 29.1373 30.5205 29.5638C30.5205 29.9903 30.8663 30.336 31.2928 30.336Z" fill="#EB027D"/>
<path d="M31.4465 28.074C31.9578 28.074 32.3725 27.6592 32.3725 27.148C32.3725 26.6365 31.9578 26.222 31.4465 26.222C30.935 26.222 30.5205 26.6365 30.5205 27.148C30.5205 27.6592 30.935 28.074 31.4465 28.074Z" fill="#EB027D"/>
<path d="M35.188 20.8641C36.06 20.8641 36.7667 20.1573 36.7667 19.2854C36.7667 18.4136 36.06 17.7068 35.188 17.7068C34.3162 17.7068 33.6095 18.4136 33.6095 19.2854C33.6095 20.1573 34.3162 20.8641 35.188 20.8641Z" fill="#EB027D"/>
<path d="M32.991 23.068C33.725 23.068 34.3202 22.4729 34.3202 21.7388C34.3202 21.0047 33.725 20.4096 32.991 20.4096C32.2567 20.4096 31.6617 21.0047 31.6617 21.7388C31.6617 22.4729 32.2567 23.068 32.991 23.068Z" fill="#EB027D"/>
<path d="M31.9077 25.5932C32.5267 25.5932 33.0285 25.0915 33.0285 24.4724C33.0285 23.8534 32.5267 23.3516 31.9077 23.3516C31.2887 23.3516 30.787 23.8534 30.787 24.4724C30.787 25.0915 31.2887 25.5932 31.9077 25.5932Z" fill="#EB027D"/>
<path d="M29.2083 22.224C30.0803 22.224 30.787 21.5172 30.787 20.6454C30.787 19.7735 30.0803 19.0667 29.2083 19.0667C28.3365 19.0667 27.6298 19.7735 27.6298 20.6454C27.6298 21.5172 28.3365 22.224 29.2083 22.224Z" fill="#EB027D"/>
<path d="M28.4292 25.3403C29.1635 25.3403 29.7585 24.7452 29.7585 24.0111C29.7585 23.277 29.1635 22.6819 28.4292 22.6819C27.6952 22.6819 27.1 23.277 27.1 24.0111C27.1 24.7452 27.6952 25.3403 28.4292 25.3403Z" fill="#EB027D"/>
<path d="M28.741 37.431C28.7538 36.8838 28.3205 36.43 27.7735 36.4173C27.2263 36.4048 26.7725 36.838 26.7598 37.385C26.747 37.932 27.1803 38.386 27.7275 38.3985C28.2745 38.4113 28.7283 37.978 28.741 37.431Z" fill="#EB027D"/>
<path d="M38.2087 18.6704C39.1975 18.6704 39.9992 17.8687 39.9992 16.8799C39.9992 15.891 39.1975 15.0894 38.2087 15.0894C37.2197 15.0894 36.4182 15.891 36.4182 16.8799C36.4182 17.8687 37.2197 18.6704 38.2087 18.6704Z" fill="#EB027D"/>
<path d="M37.1051 11.358C38.5223 11.358 39.6711 10.2091 39.6711 8.79186C39.6711 7.37461 38.5223 6.22571 37.1051 6.22571C35.6878 6.22571 34.5388 7.37461 34.5388 8.79186C34.5388 10.2091 35.6878 11.358 37.1051 11.358Z" fill="#EB027D"/>
<path d="M33.4045 15.209C34.5592 15.209 35.4955 14.2727 35.4955 13.1178C35.4955 11.9629 34.5592 11.0266 33.4045 11.0266C32.2495 11.0266 31.3132 11.9629 31.3132 13.1178C31.3132 14.2727 32.2495 15.209 33.4045 15.209Z" fill="#EB027D"/>
<path d="M30.852 18.8481C31.8408 18.8481 32.6425 18.0464 32.6425 17.0576C32.6425 16.0687 31.8408 15.2671 30.852 15.2671C29.863 15.2671 29.0615 16.0687 29.0615 17.0576C29.0615 18.0464 29.863 18.8481 30.852 18.8481Z" fill="#EB027D"/>
<path d="M27.6297 11.3204C29.047 11.3204 30.1957 10.1715 30.1957 8.75426C30.1957 7.33701 29.047 6.18811 27.6297 6.18811C26.2125 6.18811 25.0635 7.33701 25.0635 8.75426C25.0635 10.1715 26.2125 11.3204 27.6297 11.3204Z" fill="#EB027D"/>
<path d="M25.706 16.5382C26.8607 16.5382 27.7972 15.6019 27.7972 14.447C27.7972 13.2921 26.8607 12.3558 25.706 12.3558C24.551 12.3558 23.6147 13.2921 23.6147 14.447C23.6147 15.6019 24.551 16.5382 25.706 16.5382Z" fill="#EB027D"/>
<path d="M24.698 21.1579C25.6867 21.1579 26.4885 20.3563 26.4885 19.3674C26.4885 18.3786 25.6867 17.5769 24.698 17.5769C23.7091 17.5769 22.9075 18.3786 22.9075 19.3674C22.9075 20.3563 23.7091 21.1579 24.698 21.1579Z" fill="#EB027D"/>
<path d="M22.8938 31.9145C23.6279 31.9145 24.223 31.3195 24.223 30.5852C24.223 29.8512 23.6279 29.2562 22.8938 29.2562C22.1597 29.2562 21.5646 29.8512 21.5646 30.5852C21.5646 31.3195 22.1597 31.9145 22.8938 31.9145Z" fill="#EB027D"/>
<path d="M20.7275 28.8223C21.5993 28.8223 22.3061 28.1155 22.3061 27.2435C22.3061 26.3718 21.5993 25.665 20.7275 25.665C19.8556 25.665 19.1488 26.3718 19.1488 27.2435C19.1488 28.1155 19.8556 28.8223 20.7275 28.8223Z" fill="#EB027D"/>
<path d="M19.3879 24.7799C20.3768 24.7799 21.1784 23.9783 21.1784 22.9894C21.1784 22.0005 20.3768 21.1989 19.3879 21.1989C18.399 21.1989 17.5974 22.0005 17.5974 22.9894C17.5974 23.9783 18.399 24.7799 19.3879 24.7799Z" fill="#EB027D"/>
<path d="M22.5997 35.492C22.6178 34.711 21.9993 34.0632 21.2183 34.045C20.4372 34.027 19.7894 34.6455 19.7713 35.4265C19.7531 36.2075 20.3716 36.8553 21.1526 36.8735C21.9337 36.8915 22.5815 36.2733 22.5997 35.492Z" fill="#EB027D"/>
<path d="M19.9825 13.9071C21.3998 13.9071 22.5487 12.7582 22.5487 11.3409C22.5487 9.92368 21.3998 8.77478 19.9825 8.77478C18.5653 8.77478 17.4164 9.92368 17.4164 11.3409C17.4164 12.7582 18.5653 13.9071 19.9825 13.9071Z" fill="#EB027D"/>
<path d="M19.0497 19.8322C20.2046 19.8322 21.1409 18.8959 21.1409 17.741C21.1409 16.586 20.2046 15.6498 19.0497 15.6498C17.8947 15.6498 16.9585 16.586 16.9585 17.741C16.9585 18.8959 17.8947 19.8322 19.0497 19.8322Z" fill="#EB027D"/>
<path d="M15.3413 17.1145C15.3725 15.7806 14.3166 14.6741 12.9828 14.6428C11.649 14.6116 10.5424 15.6676 10.5112 17.0014C10.4799 18.3352 11.5359 19.4418 12.8697 19.473C14.2035 19.5042 15.3101 18.4483 15.3413 17.1145Z" fill="#EB027D"/>
<path d="M15.8944 23.7259C15.9203 22.6222 15.0465 21.7066 13.9429 21.6808C12.8392 21.655 11.9236 22.5287 11.8978 23.6323C11.8719 24.736 12.7457 25.6517 13.8493 25.6775C14.953 25.7032 15.8686 24.8295 15.8944 23.7259Z" fill="#EB027D"/>
<path d="M17.4317 28.9388C17.4548 27.9558 16.6766 27.1403 15.6937 27.1173C14.7108 27.0943 13.8953 27.8725 13.8723 28.8555C13.8493 29.8383 14.6275 30.6538 15.6104 30.6768C16.5933 30.6998 17.4087 29.9218 17.4317 28.9388Z" fill="#EB027D"/>
<path d="M19.6875 32.7737C19.7081 31.8947 19.0121 31.1652 18.133 31.1447C17.2538 31.1242 16.5245 31.8202 16.5039 32.6992C16.4833 33.5785 17.1793 34.3077 18.0584 34.3285C18.9376 34.349 19.667 33.653 19.6875 32.7737Z" fill="#EB027D"/>
<path d="M26.895 57.7742C28.3123 57.7742 29.4613 56.6252 29.4613 55.208C29.4613 53.791 28.3123 52.642 26.895 52.642C25.4778 52.642 24.3289 53.791 24.3289 55.208C24.3289 56.6252 25.4778 57.7742 26.895 57.7742Z" fill="white"/>
<path d="M47.4913 31.2992C47.5118 30.42 46.8158 29.6907 45.9368 29.67C45.0576 29.6495 44.3283 30.3455 44.3076 31.2247C44.2871 32.1037 44.9831 32.8332 45.8623 32.8537C46.7413 32.8742 47.4708 32.1782 47.4913 31.2992Z" fill="white"/>
<path d="M43.2725 38.335C44.1445 38.335 44.8512 37.6282 44.8512 36.7565C44.8512 35.8845 44.1445 35.1777 43.2725 35.1777C42.4007 35.1777 41.694 35.8845 41.694 36.7565C41.694 37.6282 42.4007 38.335 43.2725 38.335Z" fill="white"/>
<path d="M44.2255 28.5737C44.2437 27.7927 43.6255 27.1447 42.8445 27.1265C42.0635 27.1082 41.4155 27.7265 41.397 28.5075C41.3788 29.2885 41.9973 29.9365 42.7783 29.9547C43.5593 29.973 44.2072 29.3547 44.2255 28.5737Z" fill="white"/>
<path d="M44.612 42.801C45.601 42.801 46.4025 41.9995 46.4025 41.0105C46.4025 40.0217 45.601 39.22 44.612 39.22C43.6233 39.22 42.8215 40.0217 42.8215 41.0105C42.8215 41.9995 43.6233 42.801 44.612 42.801Z" fill="white"/>
<path d="M38.8612 38.1642C39.5955 38.1642 40.1905 37.569 40.1905 36.835C40.1905 36.101 39.5955 35.5057 38.8612 35.5057C38.1272 35.5057 37.532 36.101 37.532 36.835C37.532 37.569 38.1272 38.1642 38.8612 38.1642Z" fill="white"/>
<path d="M39.4865 42.0835C40.3585 42.0835 41.0652 41.3768 41.0652 40.5048C41.0652 39.633 40.3585 38.9263 39.4865 38.9263C38.6147 38.9263 37.908 39.633 37.908 40.5048C37.908 41.3768 38.6147 42.0835 39.4865 42.0835Z" fill="white"/>
<path d="M32.5534 37.778C33.0649 37.778 33.4794 37.3635 33.4794 36.852C33.4794 36.3408 33.0649 35.926 32.5534 35.926C32.0422 35.926 31.6274 36.3408 31.6274 36.852C31.6274 37.3635 32.0422 37.778 32.5534 37.778Z" fill="white"/>
<path d="M32.7073 35.212C33.1338 35.212 33.4796 34.8662 33.4796 34.4397C33.4796 34.0132 33.1338 33.6675 32.7073 33.6675C32.2808 33.6675 31.9351 34.0132 31.9351 34.4397C31.9351 34.8662 32.2808 35.212 32.7073 35.212Z" fill="white"/>
<path d="M33.0013 33.1652C33.4278 33.1652 33.7735 32.8195 33.7735 32.393C33.7735 31.9665 33.4278 31.6207 33.0013 31.6207C32.5748 31.6207 32.229 31.9665 32.229 32.393C32.229 32.8195 32.5748 33.1652 33.0013 33.1652Z" fill="white"/>
<path d="M33.418 29.2665C33.8445 29.2665 34.1903 28.9207 34.1903 28.4942C34.1903 28.0677 33.8445 27.722 33.418 27.722C32.9915 27.722 32.6458 28.0677 32.6458 28.4942C32.6458 28.9207 32.9915 29.2665 33.418 29.2665Z" fill="white"/>
<path d="M34.3712 26.5215C34.3812 26.0953 34.0437 25.7415 33.6172 25.7315C33.191 25.7215 32.8372 26.059 32.8272 26.4855C32.8172 26.9118 33.1547 27.2655 33.5812 27.2755C34.0075 27.2855 34.3612 26.948 34.3712 26.5215Z" fill="white"/>
<path d="M33.261 31.0808C33.6875 31.0808 34.033 30.735 34.033 30.3085C34.033 29.882 33.6875 29.5363 33.261 29.5363C32.8345 29.5363 32.4888 29.882 32.4888 30.3085C32.4888 30.735 32.8345 31.0808 33.261 31.0808Z" fill="white"/>
<path d="M34.6311 35.3075C35.1426 35.3075 35.5571 34.893 35.5571 34.3817C35.5571 33.8702 35.1426 33.4557 34.6311 33.4557C34.1198 33.4557 33.7051 33.8702 33.7051 34.3817C33.7051 34.893 34.1198 35.3075 34.6311 35.3075Z" fill="white"/>
<path d="M35.4001 37.973C36.0188 37.973 36.5208 37.471 36.5208 36.852C36.5208 36.233 36.0188 35.7313 35.4001 35.7313C34.7811 35.7313 34.2791 36.233 34.2791 36.852C34.2791 37.471 34.7811 37.973 35.4001 37.973Z" fill="white"/>
<path d="M35.4648 32.5945C35.9763 32.5945 36.3908 32.18 36.3908 31.6685C36.3908 31.1572 35.9763 30.7425 35.4648 30.7425C34.9536 30.7425 34.5388 31.1572 34.5388 31.6685C34.5388 32.18 34.9536 32.5945 35.4648 32.5945Z" fill="white"/>
<path d="M35.786 30.3975C36.2975 30.3975 36.712 29.9828 36.712 29.4715C36.712 28.96 36.2975 28.5455 35.786 28.5455C35.2745 28.5455 34.86 28.96 34.86 29.4715C34.86 29.9828 35.2745 30.3975 35.786 30.3975Z" fill="white"/>
<path d="M37.238 26.6172C37.2507 26.07 36.8177 25.6162 36.2705 25.6035C35.7235 25.5905 35.2695 26.0237 35.2567 26.5707C35.244 27.118 35.677 27.5717 36.2242 27.5847C36.7712 27.5975 37.2252 27.1642 37.238 26.6172Z" fill="white"/>
<path d="M28.812 46.2932C29.6838 46.2932 30.3908 45.5865 30.3908 44.7145C30.3908 43.8427 29.6838 43.136 28.812 43.136C27.94 43.136 27.2333 43.8427 27.2333 44.7145C27.2333 45.5865 27.94 46.2932 28.812 46.2932Z" fill="white"/>
<path d="M31.0089 43.5905C31.7432 43.5905 32.3382 42.9953 32.3382 42.2613C32.3382 41.527 31.7432 40.932 31.0089 40.932C30.2749 40.932 29.6797 41.527 29.6797 42.2613C29.6797 42.9953 30.2749 43.5905 31.0089 43.5905Z" fill="white"/>
<path d="M32.0922 40.6482C32.7112 40.6482 33.2129 40.1465 33.2129 39.5275C33.2129 38.9085 32.7112 38.4067 32.0922 38.4067C31.4732 38.4067 30.9714 38.9085 30.9714 39.5275C30.9714 40.1465 31.4732 40.6482 32.0922 40.6482Z" fill="white"/>
<path d="M34.7918 44.9333C35.6635 44.9333 36.3703 44.2265 36.3703 43.3545C36.3703 42.4827 35.6635 41.776 34.7918 41.776C33.9198 41.776 33.213 42.4827 33.213 43.3545C33.213 44.2265 33.9198 44.9333 34.7918 44.9333Z" fill="white"/>
<path d="M35.5707 41.3215C36.3047 41.3215 36.9 40.7265 36.9 39.9922C36.9 39.2582 36.3047 38.663 35.5707 38.663C34.8365 38.663 34.2415 39.2582 34.2415 39.9922C34.2415 40.7265 34.8365 41.3215 35.5707 41.3215Z" fill="white"/>
<path d="M37.4364 34.925C38.0554 34.925 38.5572 34.4232 38.5572 33.8042C38.5572 33.1852 38.0554 32.6835 37.4364 32.6835C36.8174 32.6835 36.3157 33.1852 36.3157 33.8042C36.3157 34.4232 36.8174 34.925 37.4364 34.925Z" fill="white"/>
<path d="M38.4785 32.1605C39.0975 32.1605 39.5995 31.6588 39.5995 31.0398C39.5995 30.4208 39.0975 29.919 38.4785 29.919C37.8598 29.919 37.3578 30.4208 37.3578 31.0398C37.3578 31.6588 37.8598 32.1605 38.4785 32.1605Z" fill="white"/>
<path d="M40.6395 27.105C40.6552 26.4407 40.1295 25.8897 39.4655 25.8742C38.8012 25.8585 38.2502 26.3842 38.2347 27.0485C38.2192 27.7125 38.7447 28.2635 39.409 28.279C40.073 28.2947 40.624 27.769 40.6395 27.105Z" fill="white"/>
<path d="M16.6816 53.633C18.0989 53.633 19.2478 52.484 19.2478 51.0667C19.2478 49.6495 18.0989 48.5005 16.6816 48.5005C15.2644 48.5005 14.1155 49.6495 14.1155 51.0667C14.1155 52.484 15.2644 53.633 16.6816 53.633Z" fill="white"/>
<path d="M21.8379 51.2922C22.9928 51.2922 23.9291 50.356 23.9291 49.201C23.9291 48.0462 22.9928 47.11 21.8379 47.11C20.683 47.11 19.7467 48.0462 19.7467 49.201C19.7467 50.356 20.683 51.2922 21.8379 51.2922Z" fill="white"/>
<path d="M25.7913 48.9107C26.7803 48.9107 27.5818 48.109 27.5818 47.1202C27.5818 46.1312 26.7803 45.3297 25.7913 45.3297C24.8025 45.3297 24.0009 46.1312 24.0009 47.1202C24.0009 48.109 24.8025 48.9107 25.7913 48.9107Z" fill="white"/>
<path d="M30.5958 52.9735C31.7505 52.9735 32.6868 52.0373 32.6868 50.8823C32.6868 49.7273 31.7505 48.791 30.5958 48.791C29.4408 48.791 28.5045 49.7273 28.5045 50.8823C28.5045 52.0373 29.4408 52.9735 30.5958 52.9735Z" fill="white"/>
<path d="M33.148 48.733C34.137 48.733 34.9385 47.9312 34.9385 46.9425C34.9385 45.9535 34.137 45.152 33.148 45.152C32.1593 45.152 31.3575 45.9535 31.3575 46.9425C31.3575 47.9312 32.1593 48.733 33.148 48.733Z" fill="white"/>
<path d="M36.3702 57.8118C37.7875 57.8118 38.9365 56.663 38.9365 55.2458C38.9365 53.8285 37.7875 52.6795 36.3702 52.6795C34.953 52.6795 33.8042 53.8285 33.8042 55.2458C33.8042 56.663 34.953 57.8118 36.3702 57.8118Z" fill="white"/>
<path d="M38.294 51.6443C39.449 51.6443 40.3853 50.708 40.3853 49.553C40.3853 48.398 39.449 47.4618 38.294 47.4618C37.1393 47.4618 36.203 48.398 36.203 49.553C36.203 50.708 37.1393 51.6443 38.294 51.6443Z" fill="white"/>
<path d="M39.302 46.423C40.291 46.423 41.0925 45.6215 41.0925 44.6325C41.0925 43.6438 40.291 42.842 39.302 42.842C38.3132 42.842 37.5115 43.6438 37.5115 44.6325C37.5115 45.6215 38.3132 46.423 39.302 46.423Z" fill="white"/>
<path d="M41.1062 34.7438C41.8402 34.7438 42.4355 34.1488 42.4355 33.4145C42.4355 32.6805 41.8402 32.0855 41.1062 32.0855C40.3722 32.0855 39.777 32.6805 39.777 33.4145C39.777 34.1488 40.3722 34.7438 41.1062 34.7438Z" fill="white"/>
<path d="M44.021 55.2285C45.4382 55.2285 46.587 54.0798 46.587 52.6625C46.587 51.2453 45.4382 50.0963 44.021 50.0963C42.6037 50.0963 41.4547 51.2453 41.4547 52.6625C41.4547 54.0798 42.6037 55.2285 44.021 55.2285Z" fill="white"/>
<path d="M44.9503 48.3502C46.1053 48.3502 47.0415 47.414 47.0415 46.259C47.0415 45.104 46.1053 44.1677 44.9503 44.1677C43.7955 44.1677 42.8593 45.104 42.8593 46.259C42.8593 47.414 43.7955 48.3502 44.9503 48.3502Z" fill="white"/>
<path d="M50.1254 35.146C50.1484 34.1632 49.3702 33.3477 48.3874 33.3247C47.4044 33.3017 46.5889 34.0797 46.5659 35.0627C46.5429 36.0457 47.3212 36.861 48.3042 36.8842C49.2869 36.9072 50.1024 36.129 50.1254 35.146Z" fill="white"/>
<path d="M52.1002 40.3692C52.126 39.2655 51.2522 38.35 50.1487 38.3242C49.045 38.2982 48.1295 39.172 48.1035 40.2757C48.0777 41.3792 48.9515 42.295 50.0552 42.3207C51.1587 42.3467 52.0745 41.473 52.1002 40.3692Z" fill="white"/>
<path d="M53.4852 46.9985C53.5162 45.6648 52.4602 44.5583 51.1265 44.5273C49.7927 44.496 48.6862 45.5523 48.655 46.886C48.624 48.2198 49.68 49.3263 51.014 49.3573C52.3477 49.3885 53.4542 48.3325 53.4852 46.9985Z" fill="white"/>
</svg>
