<svg width="128" height="128" fill="none" xmlns="http://www.w3.org/2000/svg">
    <path d="M64 128c35.346 0 64-28.654 64-64 0-35.346-28.654-64-64-64C28.654 0 0 28.654 0 64c0 35.346 28.654 64 64 64Z" fill="#E40C5B"/>
    <path d="M64 120.655c31.29 0 56.656-25.365 56.656-56.655 0-31.29-25.366-56.655-56.655-56.655C32.71 7.345 7.346 32.71 7.346 64c0 31.29 25.365 56.655 56.655 56.655Z" stroke="#fff" stroke-width="2"/>
    <path d="M52.278 83.415v14.767c0 1.673-.355 3.125-1.066 4.354-.71 1.219-1.729 2.149-3.057 2.789-1.328.64-2.897.961-4.709.961-2.738 0-4.895-.713-6.47-2.139-1.574-1.425-2.377-3.377-2.408-5.857V83.415h5.45V98.4c.062 2.469 1.205 3.703 3.428 3.703 1.122 0 1.971-.31 2.548-.929.576-.62.864-1.627.864-3.022V83.415h5.42Z" fill="#fff"/>
    <path d="M67.27 99.98c0-.796-.283-1.416-.85-1.86-.555-.444-1.538-.904-2.949-1.38-1.41-.474-2.563-.934-3.458-1.378-2.913-1.436-4.37-3.409-4.37-5.92 0-1.25.36-2.35 1.081-3.3.731-.96 1.76-1.704 3.088-2.231 1.328-.537 2.82-.806 4.478-.806 1.616 0 3.062.29 4.338.868 1.287.579 2.286 1.405 2.996 2.48.71 1.063 1.065 2.282 1.065 3.656h-5.404c0-.92-.283-1.632-.849-2.138-.556-.507-1.312-.76-2.27-.76-.967 0-1.734.218-2.3.651-.556.424-.834.966-.834 1.627 0 .579.309 1.105.927 1.58.617.465 1.703.951 3.257 1.457 1.555.496 2.831 1.033 3.83 1.612 2.428 1.404 3.643 3.341 3.643 5.81 0 1.973-.741 3.523-2.223 4.649-1.482 1.126-3.515 1.689-6.099 1.689-1.822 0-3.474-.325-4.956-.976-1.472-.661-2.584-1.56-3.335-2.696-.741-1.147-1.112-2.464-1.112-3.952H60.4c0 1.209.309 2.103.926 2.681.628.568 1.642.852 3.042.852.896 0 1.6-.191 2.115-.573.525-.393.788-.94.788-1.643Z" fill="#fff"/>
    <path d="M75.469 105.976v-22.56h7.24c1.987 0 3.773.454 5.358 1.363 1.586.898 2.82 2.174 3.706 3.827.895 1.643 1.348 3.487 1.359 5.532v1.038c0 2.066-.438 3.92-1.313 5.563a9.549 9.549 0 0 1-3.675 3.842c-1.574.92-3.335 1.384-5.28 1.395h-7.395Zm5.419-18.362v14.178h1.883c1.555 0 2.749-.553 3.582-1.658.834-1.115 1.251-2.768 1.251-4.958V94.2c0-2.18-.417-3.823-1.25-4.928-.834-1.105-2.049-1.658-3.644-1.658h-1.822Z" fill="#fff"/>
    <path fill-rule="evenodd" clip-rule="evenodd" d="M63.953 57.494a39.347 39.347 0 0 0-6.639.557l3.306-5.738a49.017 49.017 0 0 1 11.096.51L58.922 30.556 37.614 67.634l-3.046-5.3 24.305-42.31.05.087.048-.084 29.334 51.059h-6.09l-6.856-11.932a39.145 39.145 0 0 0-11.405-1.663v.003ZM90.19 67.721 61.792 18.286h6.09L93.235 62.42l-3.045 5.3ZM62.005 42.678 50.343 62.986c4.174-1.265 9.084-1.83 13.717-1.83a49.21 49.21 0 0 1 8.966.832l3.891 6.774a37.304 37.304 0 0 0-12.857-2.32 38.303 38.303 0 0 0-18.324 4.595l.087-.154-.118.203h-6.091L58.98 37.378l3.025 5.3Z" fill="#fff"/>
</svg>
