<svg viewBox="0 0 139 132" fill="none" xmlns="http://www.w3.org/2000/svg">
    <path d="M66 130c35.346 0 64-28.654 64-64 0-35.346-28.654-64-64-64C30.654 2 2 30.654 2 66c0 35.346 28.654 64 64 64Z" fill="url(#a)" fill-opacity=".2"/>
    <path d="M66 130c35.346 0 64-28.654 64-64 0-35.346-28.654-64-64-64C30.654 2 2 30.654 2 66c0 35.346 28.654 64 64 64Z" fill="url(#b)" fill-opacity=".2"/>
    <path d="M66 130c35.346 0 64-28.654 64-64 0-35.346-28.654-64-64-64C30.654 2 2 30.654 2 66c0 35.346 28.654 64 64 64Z" stroke="url(#c)" stroke-width="4"/>
    <path d="M66 130c35.346 0 64-28.654 64-64 0-35.346-28.654-64-64-64C30.654 2 2 30.654 2 66c0 35.346 28.654 64 64 64Z" stroke="url(#d)" stroke-opacity=".2" stroke-width="4"/>
    <path d="M66 130c35.346 0 64-28.654 64-64 0-35.346-28.654-64-64-64C30.654 2 2 30.654 2 66c0 35.346 28.654 64 64 64Z" fill="#FFD8E5"/>
    <path d="M66 130c35.346 0 64-28.654 64-64 0-35.346-28.654-64-64-64C30.654 2 2 30.654 2 66c0 35.346 28.654 64 64 64Z" stroke="url(#e)" stroke-width="4"/>
    <path d="M66 130c35.346 0 64-28.654 64-64 0-35.346-28.654-64-64-64C30.654 2 2 30.654 2 66c0 35.346 28.654 64 64 64Z" stroke="url(#f)" stroke-opacity=".2" stroke-width="4"/>
    <path d="M65.849 41.231c8.644 0 15.652-4.007 15.652-8.949s-7.008-8.949-15.653-8.949c-8.644 0-15.652 4.007-15.652 8.95 0 4.941 7.008 8.948 15.653 8.948Z" fill="url(#g)"/>
    <path d="M65.849 41.231c8.644 0 15.652-4.007 15.652-8.949s-7.008-8.949-15.653-8.949c-8.644 0-15.652 4.007-15.652 8.95 0 4.941 7.008 8.948 15.653 8.948Z" fill="url(#h)" fill-opacity=".2"/>
    <path d="M65.849 108.66c8.644 0 15.652-4.007 15.652-8.949s-7.008-8.949-15.653-8.949c-8.644 0-15.652 4.007-15.652 8.95 0 4.941 7.008 8.948 15.653 8.948Z" fill="url(#i)"/>
    <path d="M65.849 108.66c8.644 0 15.652-4.007 15.652-8.949s-7.008-8.949-15.653-8.949c-8.644 0-15.652 4.007-15.652 8.95 0 4.941 7.008 8.948 15.653 8.948Z" fill="url(#j)" fill-opacity=".2"/>
    <path d="M44.036 53.619c4.322-7.36 4.294-15.33-.063-17.803-4.357-2.473-11.393 1.488-15.715 8.848-4.322 7.359-4.294 15.33.063 17.802 4.356 2.473 11.392-1.488 15.715-8.847Z" fill="url(#k)"/>
    <path d="M44.036 53.619c4.322-7.36 4.294-15.33-.063-17.803-4.357-2.473-11.393 1.488-15.715 8.848-4.322 7.359-4.294 15.33.063 17.802 4.356 2.473 11.392-1.488 15.715-8.847Z" fill="url(#l)" fill-opacity=".2"/>
    <path d="M103.433 87.33c4.321-7.36 4.296-15.329-.058-17.8-4.354-2.472-11.387 1.491-15.71 8.85-4.322 7.36-4.296 15.329.057 17.8 4.354 2.47 11.388-1.491 15.711-8.85Z" fill="url(#m)"/>
    <path d="M103.433 87.33c4.321-7.36 4.296-15.329-.058-17.8-4.354-2.472-11.387 1.491-15.71 8.85-4.322 7.36-4.296 15.329.057 17.8 4.354 2.47 11.388-1.491 15.711-8.85Z" fill="url(#n)" fill-opacity=".2"/>
    <path d="M43.975 96.178c4.357-2.473 4.385-10.443.063-17.802-4.322-7.36-11.358-11.322-15.715-8.848C23.966 72 23.938 79.97 28.26 87.33c4.322 7.36 11.358 11.32 15.715 8.848Z" fill="url(#o)"/>
    <path d="M43.975 96.178c4.357-2.473 4.385-10.443.063-17.802-4.322-7.36-11.358-11.322-15.715-8.848C23.966 72 23.938 79.97 28.26 87.33c4.322 7.36 11.358 11.32 15.715 8.848Z" fill="url(#p)" fill-opacity=".2"/>
    <path d="M103.379 62.468c4.354-2.47 4.379-10.44.057-17.8-4.322-7.359-11.356-11.321-15.71-8.85-4.353 2.471-4.38 10.44-.057 17.8 4.322 7.359 11.356 11.321 15.71 8.85Z" fill="url(#q)"/>
    <path d="M103.379 62.468c4.354-2.47 4.379-10.44.057-17.8-4.322-7.359-11.356-11.321-15.71-8.85-4.353 2.471-4.38 10.44-.057 17.8 4.322 7.359 11.356 11.321 15.71 8.85Z" fill="url(#r)" fill-opacity=".2"/>
    <path d="M117.2 128.435c10.918 0 19.769-8.851 19.769-19.769 0-10.918-8.851-19.769-19.769-19.769-10.918 0-19.77 8.851-19.77 19.769 0 10.918 8.852 19.769 19.77 19.769Z" fill="#F1F0FF" stroke="#645AFF" stroke-width="4"/>
    <path d="M118.206 118.48c-1.826 0-3.466-.41-4.918-1.229a8.774 8.774 0 0 1-3.4-3.404c-.814-1.475-1.222-3.136-1.222-4.984 0-1.85.408-3.499 1.222-4.949a8.828 8.828 0 0 1 3.367-3.405c1.453-.82 3.103-1.23 4.951-1.23 1.739 0 3.258.375 4.556 1.124 1.32.749 2.311 1.826 2.971 3.23l-3.169 1.965c-.506-.865-1.144-1.509-1.915-1.93a4.75 4.75 0 0 0-2.475-.667c-1.541 0-2.817.538-3.829 1.614-1.013 1.053-1.519 2.469-1.519 4.248 0 1.778.495 3.205 1.486 4.282 1.012 1.052 2.299 1.58 3.862 1.58a4.97 4.97 0 0 0 2.475-.632c.771-.446 1.409-1.1 1.915-1.966l3.169 1.966c-.682 1.404-1.683 2.492-3.004 3.264-1.298.748-2.806 1.123-4.523 1.123Z" fill="#645AFF"/>
    <defs>
        <linearGradient id="a" x1="181.867" y1="181.413" x2="3.311" y2="-37.257" gradientUnits="userSpaceOnUse">
            <stop stop-color="#645AFF"/>
            <stop offset=".521" stop-color="#E40C5B"/>
            <stop offset=".986" stop-color="#FF4C3B"/>
        </linearGradient>
        <linearGradient id="b" x1="70.427" y1="-50.587" x2="234.492" y2="-14.541" gradientUnits="userSpaceOnUse">
            <stop stop-color="#fff"/>
            <stop offset="1" stop-color="#fff" stop-opacity="0"/>
        </linearGradient>
        <linearGradient id="c" x1="181.867" y1="181.413" x2="3.311" y2="-37.257" gradientUnits="userSpaceOnUse">
            <stop stop-color="#645AFF"/>
            <stop offset=".521" stop-color="#E40C5B"/>
            <stop offset=".986" stop-color="#FF4C3B"/>
        </linearGradient>
        <linearGradient id="d" x1="70.427" y1="-50.587" x2="234.492" y2="-14.541" gradientUnits="userSpaceOnUse">
            <stop stop-color="#fff"/>
            <stop offset="1" stop-color="#fff" stop-opacity="0"/>
        </linearGradient>
        <linearGradient id="e" x1="181.867" y1="181.413" x2="3.311" y2="-37.257" gradientUnits="userSpaceOnUse">
            <stop stop-color="#645AFF"/>
            <stop offset=".521" stop-color="#E40C5B"/>
            <stop offset=".986" stop-color="#FF4C3B"/>
        </linearGradient>
        <linearGradient id="f" x1="70.427" y1="-50.587" x2="234.492" y2="-14.541" gradientUnits="userSpaceOnUse">
            <stop stop-color="#fff"/>
            <stop offset="1" stop-color="#fff" stop-opacity="0"/>
        </linearGradient>
        <linearGradient id="g" x1="94.186" y1="48.42" x2="74.652" y2="6.577" gradientUnits="userSpaceOnUse">
            <stop stop-color="#645AFF"/>
            <stop offset=".521" stop-color="#E40C5B"/>
            <stop offset=".986" stop-color="#FF4C3B"/>
        </linearGradient>
        <linearGradient id="h" x1="66.931" y1="15.98" x2="103.581" y2="30.064" gradientUnits="userSpaceOnUse">
            <stop stop-color="#fff"/>
            <stop offset="1" stop-color="#fff" stop-opacity="0"/>
        </linearGradient>
        <linearGradient id="i" x1="94.186" y1="115.849" x2="74.652" y2="74.006" gradientUnits="userSpaceOnUse">
            <stop stop-color="#645AFF"/>
            <stop offset=".521" stop-color="#E40C5B"/>
            <stop offset=".986" stop-color="#FF4C3B"/>
        </linearGradient>
        <linearGradient id="j" x1="66.931" y1="83.409" x2="103.581" y2="97.493" gradientUnits="userSpaceOnUse">
            <stop stop-color="#fff"/>
            <stop offset="1" stop-color="#fff" stop-opacity="0"/>
        </linearGradient>
        <linearGradient id="k" x1="64.542" y1="33.092" x2="17.847" y2="29.284" gradientUnits="userSpaceOnUse">
            <stop stop-color="#645AFF"/>
            <stop offset=".521" stop-color="#E40C5B"/>
            <stop offset=".986" stop-color="#FF4C3B"/>
        </linearGradient>
        <linearGradient id="l" x1="22.317" y1="40.063" x2="52.341" y2="15.049" gradientUnits="userSpaceOnUse">
            <stop stop-color="#fff"/>
            <stop offset="1" stop-color="#fff" stop-opacity="0"/>
        </linearGradient>
        <linearGradient id="m" x1="123.935" y1="66.799" x2="77.266" y2="62.982" gradientUnits="userSpaceOnUse">
            <stop stop-color="#645AFF"/>
            <stop offset=".521" stop-color="#E40C5B"/>
            <stop offset=".986" stop-color="#FF4C3B"/>
        </linearGradient>
        <linearGradient id="n" x1="81.729" y1="73.782" x2="111.756" y2="48.777" gradientUnits="userSpaceOnUse">
            <stop stop-color="#fff"/>
            <stop offset="1" stop-color="#fff" stop-opacity="0"/>
        </linearGradient>
        <linearGradient id="o" x1="64.544" y1="98.777" x2="13.062" y2="93.753" gradientUnits="userSpaceOnUse">
            <stop stop-color="#645AFF"/>
            <stop offset=".521" stop-color="#E40C5B"/>
            <stop offset=".986" stop-color="#FF4C3B"/>
        </linearGradient>
        <linearGradient id="p" x1="22.438" y1="58.269" x2="44.721" y2="48.781" gradientUnits="userSpaceOnUse">
            <stop stop-color="#fff"/>
            <stop offset="1" stop-color="#fff" stop-opacity="0"/>
        </linearGradient>
        <linearGradient id="q" x1="123.939" y1="65.072" x2="72.477" y2="60.068" gradientUnits="userSpaceOnUse">
            <stop stop-color="#645AFF"/>
            <stop offset=".521" stop-color="#E40C5B"/>
            <stop offset=".986" stop-color="#FF4C3B"/>
        </linearGradient>
        <linearGradient id="r" x1="81.841" y1="24.56" x2="104.108" y2="15.076" gradientUnits="userSpaceOnUse">
            <stop stop-color="#fff"/>
            <stop offset="1" stop-color="#fff" stop-opacity="0"/>
        </linearGradient>
    </defs>
</svg>
