<svg viewBox="0 0 500 500" xmlns="http://www.w3.org/2000/svg">
    <linearGradient id="a" x1="250.687" y1="6.515" x2="250.687" y2="504.327" gradientUnits="userSpaceOnUse">
        <stop offset=".215" stop-color="#85338c"/>
        <stop offset=".336" stop-color="#7b2f84"/>
        <stop offset=".556" stop-color="#632d79"/>
        <stop offset=".848" stop-color="#3d2767"/>
        <stop offset=".998" stop-color="#26265e"/>
    </linearGradient>
    <path fill="url(#a)" fill-rule="evenodd" d="M500 250C500 111.929 388.071 0 250 0S0 111.929 0 250s111.929 250 250 250 250-111.929 250-250Z"/>
    <path fill="#fff" d="M251.6 159.016c25.916 0 46.923-21.007 46.923-46.923h-93.847c0 25.915 21.008 46.923 46.924 46.923Z"/>
    <path fill="#fff" d="m255.652 264.842 142.596 79.868c5.228 2.929 11.677-.851 11.677-6.843V139.665c0-6.005-6.471-9.782-11.699-6.831L372.99 147.08a7.846 7.846 0 0 0-3.988 6.831v114.133c0 5.992-6.449 9.772-11.677 6.843L102.697 132.272c-5.228-2.929-11.677.851-11.677 6.843v218.161a7.843 7.843 0 0 0 7.842 7.842h25.236a7.843 7.843 0 0 0 7.842-7.842V208.938c0-5.992 6.449-9.772 11.677-6.843l54.257 30.39c5.335 2.989 5.35 10.66.03 13.668l-38.754 21.918a7.844 7.844 0 0 0-3.981 6.828v112.119a7.839 7.839 0 0 0 3.852 6.751l89.67 53.022a7.843 7.843 0 0 0 8.17-.114l80.153-50.47a7.844 7.844 0 0 0 3.663-6.637v-19.591a7.842 7.842 0 0 0-3.931-6.798l-65.934-37.942a7.844 7.844 0 0 0-10.71 2.887l-12.585 21.871a7.844 7.844 0 0 0 2.887 10.71l23.297 13.408c5.122 2.946 5.268 10.285.268 13.435l-17.778 11.193a7.847 7.847 0 0 1-8.172.114l-48.079-28.431a7.845 7.845 0 0 1-3.852-6.751V298.77a7.84 7.84 0 0 1 3.981-6.826l47.881-27.082a7.848 7.848 0 0 1 7.702-.02Z"/>
    <path fill="none" d="M318.709 112.093H184.487"/>
    <path fill="#fff" d="M318.709 116.13H184.487a4.038 4.038 0 1 1 0-8.076h134.222a4.038 4.038 0 0 1 0 8.076Z"/>
</svg>
