<svg xmlns="http://www.w3.org/2000/svg" viewBox="0 0 500 500" style="enable-background:new 0 0 500 500" xml:space="preserve">
    <linearGradient id="a" gradientUnits="userSpaceOnUse" x1="250.687" y1="131.735" x2="250.687" y2="-366.077" gradientTransform="matrix(1 0 0 -1 0 138.25)">
        <stop offset="0" style="stop-color:#fdde4f"/>
        <stop offset=".153" style="stop-color:#f4c34e"/>
        <stop offset=".455" style="stop-color:#e89549"/>
        <stop offset=".706" style="stop-color:#e07345"/>
        <stop offset=".895" style="stop-color:#dc5a42"/>
        <stop offset="1" style="stop-color:#da5041"/>
    </linearGradient>
    <path style="fill:url(#a)" d="M0 0h500v500H0z"/>
    <path style="fill:#fff" d="m245.727 228.997-143.506-82.326c-5.228-2.999-11.746.774-11.746 6.803v218.419a7.843 7.843 0 0 0 7.842 7.842h25.236a7.843 7.843 0 0 0 7.842-7.842V224.131c0-6.027 6.518-9.802 11.746-6.803l53.107 30.465c5.273 3.023 5.248 10.638-.042 13.629l-37.603 21.268a7.844 7.844 0 0 0-3.981 6.828v112.119a7.839 7.839 0 0 0 3.852 6.751l89.668 53.022a7.843 7.843 0 0 0 8.17-.114l84.166-52.993a7.844 7.844 0 0 0 3.663-6.637v-14.762a7.842 7.842 0 0 0-3.931-6.798l-69.942-40.249a7.844 7.844 0 0 0-10.71 2.887l-12.587 21.871a7.844 7.844 0 0 0 2.887 10.71l23.297 13.408c5.122 2.947 5.268 10.285.268 13.435l-17.778 11.193a7.847 7.847 0 0 1-8.172.114l-48.079-28.431a7.845 7.845 0 0 1-3.852-6.751v-64.905a7.845 7.845 0 0 1 3.981-6.828l46.043-26.042a7.845 7.845 0 0 1 7.763.022l46.36 26.595a7.843 7.843 0 0 1 3.941 6.803v13.852a7.841 7.841 0 0 0 7.842 7.842h25.236a7.843 7.843 0 0 0 7.842-7.842v-37.553a7.843 7.843 0 0 0-3.941-6.803l-37.806-21.687c-5.273-3.023-5.248-10.638.042-13.629l53.895-30.484c5.228-2.956 11.704.821 11.704 6.826v148.1a7.843 7.843 0 0 0 7.842 7.842h25.236a7.843 7.843 0 0 0 7.842-7.842V154.295c0-6.007-6.476-9.785-11.704-6.826l-144.18 81.55a7.816 7.816 0 0 1-7.753-.022z"/>
    <path style="fill:#fff" d="M248.968 70.355c-25.916 0-46.923 21.007-46.923 46.923h93.847c0-25.916-21.008-46.923-46.924-46.923z"/>
    <path style="fill:none" d="M316.078 117.278H181.856"/>
    <path style="fill:#fff" d="M316.078 121.316H181.856a4.038 4.038 0 0 1 0-8.076h134.222a4.038 4.038 0 0 1 0 8.076z"/>
</svg>
