<svg xmlns="http://www.w3.org/2000/svg" viewBox="0 0 500 500" style="enable-background:new 0 0 500 500" xml:space="preserve">
    <linearGradient id="a" gradientUnits="userSpaceOnUse" x1="250.687" y1="131.735" x2="250.687" y2="-366.077" gradientTransform="matrix(1 0 0 -1 0 138.25)">
        <stop offset="0" style="stop-color:#e89549"/>
        <stop offset=".895" style="stop-color:#9d318b"/>
    </linearGradient>
    <path style="fill:url(#a)" d="M0 0h500v500H0z"/>
    <path style="fill:#fff" d="M401.294 134.743H283.839V61.94c0-2.849-3.439-4.281-5.461-2.274l-20.5 20.346a3.205 3.205 0 0 0-.947 2.274v52.456h-10.35V99.197c0-2.849-3.439-4.281-5.461-2.274l-20.5 20.346a3.205 3.205 0 0 0-.947 2.274v15.2H107.859c-6.004 0-9.022 7.248-4.793 11.509l44.991 45.256v197.296c0 6.004 7.249 9.022 11.509 4.793l43.204-42.881a6.755 6.755 0 0 0 1.996-4.793V295.32h49.57a6.75 6.75 0 0 0 4.793-1.996l42.881-43.204c4.23-4.261 1.211-11.509-4.793-11.509h-92.451v-47.16h153.648a6.748 6.748 0 0 0 4.792-1.996l42.881-43.204c4.229-4.26 1.211-11.508-4.793-11.508z"/>
</svg>
