<svg xmlns="http://www.w3.org/2000/svg" viewBox="0 0 32 32">
    <defs>
        <style>
            .cls-2{fill:#fff}
        </style>
    </defs>
    <path fill="#1d1d3c" d="M0 0h32v32H0z"/>
    <path class="cls-2" d="M23.77 11.2l-.71.71a3.44 3.44 0 01.36 3.09A3.5 3.5 0 0119 17.06a3.61 3.61 0 01-.71-.35L16 19l-2-2a3.6 3.6 0 01-3.2.4 3.56 3.56 0 01-2.15-4.56 3.37 3.37 0 01.4-.78l-.85-.86-.16.28A9.3 9.3 0 0016 25.6a9.3 9.3 0 008-14.11l-.18-.29"/>
    <path class="cls-2" d="M10.12 13.08a1.91 1.91 0 001.51 3 1.87 1.87 0 001.16-.4l-2.67-2.65"/>
    <path class="cls-2" d="M19.42 15.57a1.9 1.9 0 002.63-2.64l-2.63 2.64"/>
    <path class="cls-2" d="M16 17.56L8.36 9.85l.3-.32a9.91 9.91 0 017.26-3.13 10 10 0 017.38 3.29l.29.32L16 17.56M9.61 9.85L16 16.29 22.37 10A9.1 9.1 0 0016 7.3a9 9 0 00-6.39 2.55"/>
</svg>
