<svg viewBox="0 0 32 32" xmlns="http://www.w3.org/2000/svg">
    <path fill="#1d1d3c" fill-rule="evenodd" d="M32 16c0-8.837-7.163-16-16-16S0 7.163 0 16s7.163 16 16 16 16-7.163 16-16Z"/>
    <path fill="#fff" d="m23.77 11.2-.71.71a3.44 3.44 0 0 1 .36 3.09A3.5 3.5 0 0 1 19 17.06a3.61 3.61 0 0 1-.71-.35L16 19l-2-2a3.6 3.6 0 0 1-3.2.4 3.56 3.56 0 0 1-2.15-4.56 3.37 3.37 0 0 1 .4-.78l-.85-.86-.16.28A9.3 9.3 0 0 0 16 25.6a9.3 9.3 0 0 0 8-14.11l-.18-.29"/>
    <path fill="#fff" d="M10.12 13.08a1.91 1.91 0 0 0 1.51 3c.42 0 .83-.14 1.16-.4l-2.67-2.65"/>
    <path fill="#fff" d="M19.42 15.57a1.9 1.9 0 0 0 2.63-2.64l-2.63 2.64"/>
    <path fill="#fff" d="M16 17.56 8.36 9.85l.3-.32a9.91 9.91 0 0 1 7.26-3.13 10 10 0 0 1 7.38 3.29l.29.32L16 17.56M9.61 9.85 16 16.29 22.37 10A9.1 9.1 0 0 0 16 7.3a9 9 0 0 0-6.39 2.55"/>
</svg>
