<svg width="128" height="128" fill="none" xmlns="http://www.w3.org/2000/svg">
    <path fill="#fff" d="M0 0h128v128H0z"/>
    <circle fill="#E40C5B" cx="64" cy="64" r="63" />
    <path fill="#fff" fill-rule="evenodd" clip-rule="evenodd" d="M64 128c35.345 0 64-28.655 64-64S99.345 0 64 0 0 28.655 0 64s28.655 64 64 64zm.261-6.006c32.029 0 57.991-25.965 57.991-57.991 0-32.026-25.962-57.994-57.991-57.994C32.233 6.01 6.271 31.971 6.271 64c0 32.029 25.962 57.994 57.99 57.994zM64 117.551c29.576 0 53.551-23.975 53.551-53.551S93.576 10.449 64 10.449 10.449 34.424 10.449 64 34.424 117.551 64 117.551zm.132-6.529c26.04 0 47.151-21.111 47.151-47.151 0-26.04-21.111-47.151-47.151-47.151-26.04 0-47.151 21.108-47.151 47.151 0 26.043 21.108 47.151 47.151 47.151zm-.396-38.326c-2.62 0-5.166.219-7.63.636l3.794-6.588a56.696 56.696 0 0112.778.591l-14.733-25.59-24.527 42.598-3.506-6.088 27.976-48.589.057.1.055-.097 33.763 58.639h-7.009l-7.892-13.706c-4.112-1.243-8.506-1.906-13.126-1.906zm30.21 11.749l-32.69-56.772h7.01l29.182 50.684-3.503 6.088zM61.502 55.682L48.082 78.994c4.803-1.453 10.455-2.102 15.789-2.102a56.697 56.697 0 0110.32.958l4.478 7.778c-4.583-1.672-9.545-2.657-14.798-2.657-7.769 0-14.904 1.927-21.117 5.277l.099-.177-.135.234h-7.01L58 49.592l3.503 6.09z"/>
</svg>
