<svg viewBox="0 0 128 128" fill="none" xmlns="http://www.w3.org/2000/svg">
    <path d="M64 125.516c33.974 0 61.516-27.542 61.516-61.516S97.974 2.484 64 2.484 2.484 30.026 2.484 64 30.026 125.516 64 125.516Z" fill="#fff" stroke="#E0E0E0" stroke-width="2"/>
    <path fill-rule="evenodd" clip-rule="evenodd" d="M64 117.877c29.754 0 53.876-24.12 53.876-53.877S93.754 10.124 63.999 10.124C34.245 10.124 10.123 34.25 10.123 64c0 29.75 24.12 53.877 53.877 53.877Zm.22-5.054c26.962 0 48.817-21.858 48.817-48.82s-21.855-48.82-48.818-48.82C37.257 15.183 15.4 37.03 15.4 64s21.858 48.82 48.82 48.82v.003Zm-.22-3.74a45.083 45.083 0 0 0 41.648-27.829 45.076 45.076 0 0 0-9.772-49.128A45.08 45.08 0 0 0 18.92 64.003 45.08 45.08 0 0 0 64 109.08v.002Zm.108-5.496a39.695 39.695 0 0 0 38.931-47.436 39.698 39.698 0 0 0-31.186-31.187 39.693 39.693 0 1 0-7.745 78.621v.002Zm.089-32.984a34.614 34.614 0 0 0-5.812.485l2.893-4.998a43.072 43.072 0 0 1 9.714.445l-11.2-19.397-18.654 32.297-2.666-4.617L59.75 37.965l.043.076.043-.073 25.679 44.474h-5.332L74.18 72.049a34.43 34.43 0 0 0-9.983-1.449v.003Zm22.967 8.907-24.86-43.058h5.332L89.83 74.894l-2.666 4.616ZM62.491 57.698 52.282 75.386c3.654-1.101 7.953-1.594 12.008-1.594.329 0 .657 0 .986.013 2.303.054 4.598.292 6.863.712l3.406 5.9a32.8 32.8 0 0 0-11.255-2.021 33.669 33.669 0 0 0-16.04 4.003l.075-.134-.104.177H42.89l16.953-29.36 2.648 4.616Z" fill="url(#a)"/>
    <defs>
        <linearGradient id="a" x1="95.017" y1="111.529" x2="32.014" y2="14.991" gradientUnits="userSpaceOnUse">
            <stop offset=".01" stop-color="#645AFF"/>
            <stop offset=".5" stop-color="#E40C5B"/>
            <stop offset="1" stop-color="#FF4C3B"/>
        </linearGradient>
    </defs>
</svg>
