<?xml version="1.0" encoding="utf-8"?>
<!-- Generator: Adobe Illustrator 23.0.4, SVG Export Plug-In . SVG Version: 6.00 Build 0)  -->
<svg version="1.1" id="Layer_1" xmlns="http://www.w3.org/2000/svg" xmlns:xlink="http://www.w3.org/1999/xlink" x="0px" y="0px"
	 viewBox="0 0 440 440" style="enable-background:new 0 0 440 440;" xml:space="preserve">
<g>
	<path d="M373.1,126.9c-5.2-4.1-11.4-9.7-22.7-11.1c-10.6-1.4-21.4,5.7-28.7,10.4c-7.3,4.7-21.1,18.5-26.8,22.7
		c-5.7,4.2-20.3,8.1-43.8,22.2s-115.7,73.3-115.7,73.3l24,0.3L52.4,299.8h10.7l-15.4,11.7c0,0,13.6,3.6,25-3.6l0,3.3
		c0,0,127.4-50.2,152-37.2l-15,4.4c1.3,0,25.5,1.6,25.5,1.6s0.8,15.1,15.4,24.8c14.6,9.6,14.9,14.9,14.9,14.9s-7.6,3.1-7.6,7
		c0,0,11.2-3.4,21.6-3.1c10.4,0.3,19.5,3.1,19.5,3.1s-0.8-4.2-10.9-7c-10.2-2.9-20.1-13.8-25-19.8c-4.9-6-8.3-16.7-4.1-27.4
		c3.5-9.1,15.7-14.1,40.9-27.1c29.7-15.4,36.5-26.8,40.7-35.7c4.2-8.9,10.4-26.6,13.9-34.9c4.4-10.7,9.8-16.4,14.3-19.8
		c4.4-3.4,24.5-10.9,24.5-10.9S378,130.8,373.1,126.9z"/>
</g>
</svg>
