<svg width="512" height="512" fill="none" xmlns="http://www.w3.org/2000/svg">
    <path fill="url(#paint0_radial_2_9)" d="M0 0h512v512H0z"/>
    <path fill-rule="evenodd" clip-rule="evenodd" d="M133.215 266.762C111.381 271.398 100 287.733 100 314.434c0 32.082 14.635 48.229 43.713 48.229 30.86 0 46.316-18.225 44.526-52.502-1.643-31.464-24.888-49.798-55.024-43.399zm111.34.406c-40.17 10.249-43.079 78.987-3.973 93.847 23.241 8.831 50.144-4.406 56.232-27.667 1.998-7.636 1.886-7.706-11.897-7.324l-11.772.325-.747 3.66c-2.252 11.042-14.149 17.188-23.704 12.247-11.552-5.975-13.68-40.384-3.234-52.283 8.117-9.244 24.214-4.368 26.543 8.039l.739 3.939h24.893l-.734-3.688c-4.524-22.772-28.697-37.13-52.346-31.095zm110.206.069c-28.266 7.004-41.801 44.769-26.671 74.424 14.791 28.993 64.168 29.114 77.875.191 20.268-42.766-8.799-85.122-51.204-74.615zm-200.589 20.884c12.488 8.893 11.686 45.752-1.166 53.588-14.927 9.102-27.516-3.421-27.421-27.275.099-24.827 13.435-37.102 28.587-26.313zm222.563-.137c13.511 9.8 12.062 46.922-2.117 54.254-17.318 8.955-31.669-14.655-25.01-41.147 3.465-13.787 17.106-20.376 27.127-13.107z" fill="#fff"/>
    <path fill-rule="evenodd" clip-rule="evenodd" d="M245.913 150.595c-24.979 6.483-37.504 31.572-31.083 62.262 8.448 40.381 66.729 46.96 83.337 9.406 17.853-40.371-12.491-81.99-52.254-71.668zm113.315-.407c-27.487 5.859-41.797 42.717-28.155 72.516 16.551 36.154 73.314 29.848 79.5-8.832l.755-4.727-12.28.323-12.281.324-1.016 3.929c-3.326 12.862-17.405 18.206-26.174 9.936-10.791-10.177-10.071-45.332 1.077-52.637 8.559-5.607 19.793-1.579 23.704 8.499l2.269 5.85 11.632.012c13.224.015 13.452-.216 9.975-10.07-6.568-18.616-27.996-29.601-49.006-25.123zM102.6 160.712l.329 9.362 11.632.323 11.631.324v54.311l-11.631.323-11.632.324v18.156l41.136.298 41.136.298v-19.32H150.825l.602-19.113c.964-30.645 3.757-34.149 27.249-34.197l12.199-.025V151.35h-11.209c-13.332 0-18.118 1.63-24.253 8.261l-4.255 4.599v-12.86H102.27l.33 9.362zm165.242 10.68c11.707 8.497 12.569 41.104 1.367 51.733-11.865 11.26-27.06 2.443-29.425-17.075-3.375-27.852 11.729-46.507 28.058-34.658z" fill="#fff"/>
    <defs>
        <radialGradient id="paint0_radial_2_9" cx="0" cy="0" r="1" gradientUnits="userSpaceOnUse" gradientTransform="rotate(-135 362.039 149.961) scale(724.077)">
            <stop stop-color="#14A5FF"/>
            <stop offset=".25" stop-color="#2390FC"/>
            <stop offset=".49" stop-color="#694BD4"/>
            <stop offset=".75" stop-color="#D10298"/>
            <stop offset="1" stop-color="#E50079"/>
        </radialGradient>
    </defs>
</svg>
