<svg width="64" height="64" viewBox="0 0 64 64" fill="none" xmlns="http://www.w3.org/2000/svg">
<path d="M6.90821 11.817C17.7788 -1.76469 37.6013 -3.96242 51.183 6.90821C64.7647 17.7788 66.9624 37.6013 56.0918 51.183C45.2212 64.7647 25.3987 66.9624 11.817 56.0918C-1.76469 45.2212 -3.96242 25.3987 6.90821 11.817Z" fill="#127278"/>
<path d="M15.2424 11.3887C23.1826 1.46823 38.2526 0.335992 48.9022 8.85978C59.5517 17.3836 61.748 32.3356 53.8078 42.2561C45.8675 52.1765 30.7975 53.3088 20.148 44.785C9.49846 36.2612 7.30214 21.3092 15.2424 11.3887Z" fill="#169781"/>
<path d="M23.1261 12.4684C28.8752 5.28552 39.7571 4.44213 47.4316 10.5847C55.106 16.7272 56.6667 27.5296 50.9176 34.7125C45.1685 41.8954 34.2866 42.7388 26.6121 36.5962C18.9377 30.4537 17.377 19.6513 23.1261 12.4684Z" fill="#56E6CD"/>
<path d="M31.7211 13.876C35.2023 9.52664 41.5503 8.82284 45.8997 12.3041C50.2491 15.7853 50.9529 22.1332 47.4716 26.4827C43.9904 30.8321 37.6425 31.5359 33.293 28.0546C28.9436 24.5734 28.2398 18.2254 31.7211 13.876Z" fill="white"/>
<g style="mix-blend-mode:color-burn" opacity="0.6">
<circle cx="31.5" cy="31.5" r="31.5" fill="#C4C4C4"/>
</g>
<g style="mix-blend-mode:overlay">
<circle cx="31.5" cy="31.5" r="31.5" fill="url(#paint0_radial_2_496)" fill-opacity="0.5"/>
</g>
<g style="mix-blend-mode:overlay">
<circle cx="31.5" cy="31.5" r="31.5" fill="url(#paint1_radial_2_496)" fill-opacity="0.5"/>
</g>
<defs>
<radialGradient id="paint0_radial_2_496" cx="0" cy="0" r="1" gradientUnits="userSpaceOnUse" gradientTransform="translate(38 23) rotate(135.03) scale(42.9396 38.2915)">
<stop stop-color="white"/>
<stop offset="0.71875" stop-color="white" stop-opacity="0"/>
</radialGradient>
<radialGradient id="paint1_radial_2_496" cx="0" cy="0" r="1" gradientUnits="userSpaceOnUse" gradientTransform="translate(38 23) rotate(135.03) scale(42.9396 38.2915)">
<stop stop-color="white"/>
<stop offset="0.71875" stop-color="white" stop-opacity="0"/>
</radialGradient>
</defs>
</svg>
